<svg width="1014" height="1266" viewBox="0 0 1014 1266" fill="none" xmlns="http://www.w3.org/2000/svg">
<g clip-path="url(#clip0_562_62)">
<path d="M192.912 652.81C184.932 649.55 185.212 649.69 189.052 642.19C191.512 637.38 194.822 633.62 198.912 630.26C202.222 627.54 205.082 624.29 208.322 621.48C210.992 619.16 213.032 620.09 214.062 623.9C214.372 625.03 214.532 626.21 214.832 627.73C216.832 627.97 218.602 628.39 220.352 628.35C233.232 628.03 245.222 631.7 256.882 636.64C259.952 637.94 262.942 639.72 265.552 641.79C270.532 645.75 271.682 650.02 268.972 655.66C267.002 659.76 264.532 663.79 261.542 667.2C255.242 674.41 247.692 680.23 239.392 685.05C237.322 686.25 235.412 687.74 233.402 689.12C234.072 689.93 234.362 690.64 234.822 690.78C246.252 694.26 257.692 697.72 269.152 701.08C270.252 701.4 271.522 701.12 272.842 701.12C273.222 699.95 273.772 699.11 273.712 698.32C273.032 689.89 275.962 682.2 280.632 675.81C286.972 667.12 291.932 657.59 298.332 649C300.342 646.3 302.802 643.95 304.862 641.28C311.112 633.18 319.762 632.12 328.972 633.21C337.432 634.21 344.652 638.29 351.332 643.36C352.292 644.09 353.162 645.04 353.832 646.05C361.752 657.99 365.942 670.89 363.252 685.33C362.222 690.84 359.672 695.76 355.912 699.99C353.052 703.2 350.102 706.34 347.352 709.64C338.402 720.36 326.452 724.39 313.062 724.55C306.972 724.62 300.772 723.8 295.012 721.37C289.022 718.85 283.302 715.92 279.432 710.35C278.762 709.39 277.662 708.73 276.282 707.49C274.072 709.25 272.682 711.61 270.832 713.49C268.902 715.45 266.652 717.09 264.782 719.11C261.552 722.59 257.962 723.85 253.192 722.59C249.072 721.51 244.752 721.18 240.772 720.56C235.562 723.42 230.572 726.29 225.462 728.93C220.882 731.3 218.132 730.7 215.222 726.64C213.442 724.16 212.052 721.39 210.612 718.69C208.732 715.17 207.092 711.59 203.432 709.34C200.762 707.69 200.182 704.97 201.382 702.04C202.512 699.29 202.042 696.7 201.132 693.98C200.062 690.78 199.312 687.47 198.482 684.19C196.312 675.55 193.962 666.94 193.722 657.94C193.702 656.16 193.172 654.38 192.912 652.81ZM314.402 655.95C314.702 658.11 314.832 659.58 315.122 661.02C316.422 667.41 312.382 672.89 305.102 670.86C303.782 670.49 302.062 670.87 300.732 671.41C298.502 672.33 296.442 673.66 294.332 674.81C291.972 681.9 295.252 687.03 299.892 691.36C308.102 699.01 318.212 702.27 329.262 702.82C333.902 703.05 338.472 702.59 342.412 699.98C350.182 684.95 335.292 656.35 314.402 655.95ZM248.202 665.91C242.172 657.67 232.182 653.36 217.762 652.65C216.822 658.27 219.182 663.36 220.502 668.55C221.282 671.63 221.072 675.31 224.442 677.61C232.662 674.19 240.582 670.44 248.202 665.91Z" fill="#0DFF9D"/>
<path d="M168.839 669.69C173.019 669.05 176.269 668.54 180.099 667.95C180.399 673.39 175.839 675.53 173.829 679.82C174.469 681.55 175.129 683.87 176.149 686.02C180.219 694.64 184.109 703.35 188.629 711.73C191.139 716.39 190.169 719.9 187.049 723.41C183.099 727.85 178.039 730.6 173.119 732.85C169.199 731.86 167.749 729.12 166.369 726.34C163.079 719.74 159.829 713.11 156.539 706.52C154.489 702.41 152.369 698.34 150.259 694.2C145.059 694.2 140.189 694.2 135.329 694.2C130.439 694.2 125.539 694.2 119.969 694.2C120.389 696.31 120.319 697.92 121.019 699.06C123.249 702.68 125.769 706.12 128.289 709.78C124.289 717.38 116.519 718.99 109.279 721.21C107.899 721.63 105.489 720.64 104.349 719.5C101.979 717.15 99.7193 714.48 98.1593 711.55C92.9093 701.7 89.5192 691.22 88.4193 680.03C87.7692 673.4 89.2093 667.2 91.6493 661.15C92.4293 659.22 93.3493 657.36 94.5393 654.72C85.4492 652.89 76.9593 653.85 68.5293 653.83C66.8792 653.83 65.2193 654.87 63.3593 655.5C63.7593 663.02 65.5093 669.79 67.3193 676.58C71.5093 692.31 75.5193 708.1 79.7293 723.83C80.3293 726.07 80.4092 728.03 79.2692 730.01C75.7292 736.15 70.9193 741.16 65.9193 745.7C62.1893 744.67 61.7193 741.63 60.5493 739.26C59.4693 737.07 58.7292 734.69 58.0892 732.33C54.0092 717.19 50.0493 702.02 45.9493 686.89C42.9993 675.99 41.5193 665.2 47.7993 654.64C46.3693 654.17 45.5592 653.68 44.7593 653.68C36.4593 653.69 28.1493 653.7 19.8492 653.91C17.4192 653.97 14.9593 654.52 12.6093 655.19C11.6693 655.46 10.9993 656.66 10.1893 657.42C9.57925 657.99 8.98925 658.92 8.29925 659.02C4.10925 659.6 -0.460749 654.21 1.30925 650.63C4.59925 643.98 9.10925 638.13 14.2193 632.78C15.1893 631.77 16.8492 631.16 18.2792 630.92C20.3792 630.57 22.5693 630.63 24.7193 630.66C54.2393 630.99 83.7592 631.35 113.279 631.7C114.199 631.71 115.129 631.6 116.049 631.68C119.899 632.02 121.549 634.72 119.659 638.06C117.849 641.25 115.939 644.5 113.479 647.18C108.839 652.23 108.249 657.94 109.279 664.11C129.819 670.65 133.699 671.48 140.739 670.83C141.929 667.98 139.999 665.58 139.429 663.01C138.179 657.32 136.699 651.68 135.429 646C132.749 633.97 135.659 623.47 144.289 614.62C146.639 612.21 148.979 609.78 151.569 607.65C152.249 607.09 153.919 607.33 154.919 607.72C155.499 607.95 156.019 609.26 155.959 610.04C155.549 615.87 155.089 621.63 155.989 627.5C158.219 641.92 163.579 655.29 168.839 669.69Z" fill="#0DFF9D"/>
<path d="M589.22 688.99C592.38 684.05 591.53 679.97 590.56 675.68C589.07 669.1 588.17 662.39 586.97 655.75C586.51 653.19 586.8 650.77 588.45 648.76C593.53 642.59 598.65 636.43 606.2 633.06C606.71 632.83 607.4 633.03 607.99 633.03C610.33 634.19 610.29 636.44 610.6 638.56C611.81 646.77 612.99 654.98 614.34 663.16C614.68 665.2 615.61 667.14 616.29 669.2C629.07 670.5 641.27 673.88 654.47 672.95C653.99 670.44 653.7 668.67 653.3 666.94C652.19 662.15 650.62 657.43 649.97 652.59C648.64 642.68 650.65 633.66 658.26 626.44C663.13 621.83 667.81 617.01 673.92 614.56C676.17 615.71 676.3 617.36 675.79 618.77C671.54 630.48 674.09 641.83 677.47 653.12C678.79 657.53 680.41 661.86 681.85 666.23C682.93 669.5 683.93 672.81 688.37 672.17C686.91 679.38 686.77 679.43 689.25 685.4C692.9 694.19 696.78 702.88 700.54 711.63C701.14 713.03 701.68 714.46 702.26 715.93C699.13 725.28 689.8 727.25 683.74 732.42C679.96 732.09 678.52 729.61 677.3 727.15C673.47 719.45 669.75 711.69 666.08 703.91C664.65 700.88 663.44 697.73 661.96 694.21C655.92 694.21 650.14 694.21 644.36 694.21C638.54 694.21 632.72 694.21 627.12 694.21C626.6 695.08 625.94 695.7 626.06 696.07C628.16 702.68 625.33 707.45 620.32 711.29C616.47 714.24 612.42 716.95 608.68 719.61C604.83 717.58 603.78 714.21 602.41 711.2C600.24 706.45 598.14 701.63 596.55 696.67C595.46 693.2 593.47 690.84 589.22 688.99Z" fill="#0DFF9D"/>
<path d="M544.269 703.07C544.389 702.25 544.679 701.34 544.619 700.45C543.579 684.72 553.619 676.71 565.689 670.11C565.889 670 566.259 670.21 566.599 670.28C568.839 671.62 568.339 673.92 568.439 675.99C568.929 686.11 569.479 696.23 569.839 706.35C570.139 714.74 571.819 722.85 574.679 730.67C576.009 734.31 575.489 737.11 573.419 740.12C569.449 745.9 563.229 748.62 557.979 752.7C552.619 749.82 550.999 745.12 549.949 740.35C548.639 734.36 547.929 728.24 546.899 722.18C546.499 719.82 545.959 717.48 545.389 714.68C540.619 716.14 537.149 718.89 534.319 721.81C523.019 733.48 494.229 733.61 478.949 722.98C472.989 718.83 469.869 713.21 469.659 705.88C469.429 697.67 472.019 690.11 474.859 682.64C477.599 675.42 481.599 668.84 486.229 662.66C495.909 649.72 507.769 639.11 521.249 630.27C525.639 627.39 530.299 625.06 535.549 624.15C542.339 622.98 546.799 625.4 549.379 631.87C550.169 633.85 550.689 635.98 551.019 638.09C551.199 639.23 551.039 640.68 550.459 641.63C547.289 646.79 543.019 650.65 536.819 651.68C533.109 652.29 529.469 652.33 526.729 648.88C523.439 644.75 518.989 645.42 514.939 647C512.179 648.08 509.449 649.97 507.459 652.17C499.009 661.51 493.509 672.37 492.199 685.04C491.149 695.24 494.119 700.89 503.419 704.94C513.429 709.29 523.939 711.21 534.889 708.61C538.599 707.75 541.839 706.27 544.269 703.07Z" fill="#0DFF9D"/>
<path d="M445.91 619.16C449.09 619.88 450.82 621.98 451.9 624.65C458.88 641.99 463.37 659.62 459.87 678.6C456.68 695.9 446.74 708.06 432.16 716.92C427.85 719.54 422.96 720.54 417.94 719.78C402.93 717.48 389.81 711.24 378.91 700.56C373.92 695.67 371.09 689.54 369.44 682.89C368.14 677.66 368.87 672.53 371.2 667.62C376.34 656.82 384.11 648.27 393.66 641.25C394.06 640.95 394.83 641.15 396.05 641.08C396.21 642.4 396.84 643.92 396.44 645.09C395.57 647.69 394.34 650.2 393 652.6C389.73 658.44 389.65 664.46 392.44 670.31C394.13 673.86 396.3 677.42 399.05 680.19C408.18 689.36 419.23 695.13 432.07 697.22C433.24 697.41 434.49 697.13 435.43 697.08C438.4 695.23 438.61 692.29 439.18 689.66C441.09 680.76 440.27 671.89 438.23 663.13C437.25 658.95 435.97 654.82 434.57 650.75C432.96 646.09 430.42 641.29 432.54 636.52C435.46 629.94 437.19 622.18 445.91 619.16Z" fill="#0DFF9D"/>
<path d="M532.45 477.36C546.7 480.19 561.47 478.72 576.16 479.34C589.97 479.92 603.78 480.38 617.59 480.97C619.71 481.06 621.81 481.53 623.98 481.84C626.44 481.21 627.62 477.85 631.15 478.69C632.3 478.97 634.15 476.95 635.48 475.76C643.2 468.87 651.16 467.87 659.74 473.29C663.87 475.9 667.57 479.2 671.4 482.26C672.34 483.01 673.37 483.94 673.8 485.01C677.59 494.39 683.43 502.7 687.76 511.81C690.46 517.51 690.42 523.08 688.47 528.78C685.39 537.8 678.84 544.39 672.37 550.96C671.15 552.19 669.22 552.79 667.54 553.48C650.93 560.24 634.51 559.09 618.36 551.92C610.71 548.53 605.3 542.87 602.41 534.92C600.69 530.18 600.35 525.49 601.63 520.47C603.86 511.67 607.42 503.66 613.52 496.86C614.53 495.73 615.3 494.39 616.14 493.12C616.27 492.92 616.16 492.57 616.16 492C615.29 492.11 614.28 491.95 613.65 492.37C612.39 493.19 611.14 494.16 610.24 495.34C606.79 499.88 602.33 501.81 596.64 501.54C592.04 501.32 587.42 501.56 582.81 501.67C581.01 501.71 579.22 501.98 577.08 502.17C575.99 510.03 579.61 516.82 580.73 523.96C581.86 531.15 581.35 538.82 585.58 544.97C585.19 549.63 582.81 552.73 579.72 555.39C576.93 557.8 574.17 560.25 571.28 562.54C568.55 564.71 566.11 564.19 564.59 560.98C563.41 558.5 562.17 555.87 561.85 553.2C559.77 535.72 554.02 519.18 549.24 501.88C543.85 500.91 538.33 501.84 532.88 501.55C527.79 501.28 522.39 502.13 517.57 498.11C518.27 496.13 518.57 493.9 519.72 492.28C523.41 487.06 526.23 481.06 532.45 477.36ZM670.7 534.85C671.1 523.89 666.6 515.26 660.59 507.3C656.87 502.37 652.28 498.3 646.66 495.45C643.49 493.84 640.16 493.07 636.87 494.12C633.12 495.31 629.6 497.23 625.97 498.81C622.77 500.2 621.57 502.94 621.18 506.12C620.26 513.59 622.16 520.03 627.83 525.33C634.67 531.72 643.05 534.64 651.96 535.78C657.86 536.54 664.06 538.29 670.7 534.85Z" fill="#0DFF9D"/>
<path d="M454.451 512.77C454.831 514.5 455.371 515.68 455.291 516.81C454.871 522.58 457.541 526.97 461.621 530.51C473.361 540.7 486.951 545.09 502.481 542.99C502.721 542.96 502.911 542.62 503.561 542.02C503.141 537.84 500.561 534.43 497.791 531.24C491.061 523.48 482.971 517.43 473.611 513.2C456.801 505.61 439.681 498.85 421.831 494.05C421.531 493.97 421.221 493.95 420.931 493.84C412.821 490.97 408.561 488.72 415.881 479.72C417.231 478.06 418.121 476.03 419.471 474.37C424.001 468.82 429.081 464.89 436.771 463.44C452.501 460.46 468.261 458.05 484.231 457.52C492.471 457.25 500.751 458.01 508.891 459.98C516.631 461.86 522.381 465.68 524.941 474.04C522.471 482.4 515.611 487.78 509.381 493.57C507.901 494.95 505.891 494.36 504.321 493.09C503.851 492.71 503.341 492.24 503.151 491.7C500.461 484.17 493.991 482.59 487.191 481.1C481.121 479.77 475.091 479.3 469.001 479.73C468.131 482.12 469.951 482.46 471.191 483.05C478.681 486.59 486.271 489.93 493.681 493.63C501.161 497.37 507.631 502.54 513.421 508.58C517.301 512.62 520.251 517.23 522.601 522.29C525.991 529.59 525.541 536.65 521.341 543.39C517.261 549.95 512.251 555.79 506.361 560.8C502.551 564.04 498.141 566.02 493.001 566.4C484.021 567.05 475.251 566.14 466.551 563.86C457.881 561.59 451.091 556.57 445.361 549.97C442.061 546.17 439.301 542.13 442.851 536.8C443.611 535.67 443.241 533.8 443.461 532.29C444.431 525.76 447.311 520.03 451.081 514.73C451.681 513.87 453.021 513.56 454.451 512.77Z" fill="#0DFF9D"/>
<path d="M705.818 462.35C710.158 462.35 713.488 462.43 716.818 462.34C730.008 461.99 742.368 465.15 754.128 471C757.788 472.82 761.008 475.15 763.438 478.38C766.828 482.89 767.968 487.84 764.968 493C763.278 495.9 761.518 498.89 759.188 501.24C754.018 506.47 748.968 511.93 742.308 515.43C741.528 515.84 740.748 516.27 739.828 516.76C742.918 520.26 746.258 520.98 749.458 521.9C759.778 524.86 770.138 527.69 780.448 530.71C784.788 531.99 789.468 532.59 793.498 536.09C791.838 540.14 789.358 543.45 786.088 546.21C785.148 547 783.858 547.47 783.138 548.4C778.908 553.89 773.908 554.35 767.598 552.01C762.178 550 756.288 549.32 750.638 547.92C744.378 546.38 738.168 544.67 731.918 543.07C730.488 542.7 729.028 542.47 727.308 542.12C726.968 543.31 726.388 544.2 726.558 544.89C727.678 549.29 725.888 552.68 723.148 555.83C719.518 560.01 714.848 562.94 711.018 567.27C709.498 565.92 708.308 565.31 707.808 564.34C706.408 561.62 704.958 558.85 704.108 555.93C697.888 534.68 692.768 513.15 688.498 491.42C686.528 481.37 691.228 474.37 698.248 468.28C700.758 466.11 703.488 464.17 705.818 462.35ZM742.758 498.46C739.628 492.8 735.048 490.55 730.568 489.11C724.968 487.32 719.378 484.24 712.758 485.59C712.638 487.19 712.308 488.41 712.508 489.53C713.308 494.06 714.168 498.58 715.218 503.05C715.598 504.69 716.568 506.19 717.308 507.85C725.868 504.7 733.888 501.74 742.758 498.46Z" fill="#0DFF9D"/>
<path d="M852.958 563.83C851.478 568.22 847.778 569.76 844.648 571.2C841.108 572.83 836.998 573.5 833.058 573.91C829.468 574.28 826.528 572.2 824.648 569.2C822.538 565.83 820.488 562.34 818.988 558.67C816.548 552.71 814.218 546.66 812.528 540.46C811.088 535.19 810.608 529.66 809.488 522.97C808.578 522.31 806.728 520.75 804.678 519.51C793.958 512.96 785.868 503.83 778.958 493.52C778.278 492.5 777.638 491.44 777.068 490.36C771.398 479.63 771.508 478.48 779.298 469.28C782.858 465.08 786.658 461.14 791.618 458.94C795.388 460.49 795.548 463.83 796.578 466.64C800.858 478.2 808.198 487.48 817.838 495.01C818.998 495.91 820.378 496.53 822.258 497.63C823.758 494.96 825.238 492.72 826.328 490.31C827.848 486.96 829.328 483.55 830.368 480.03C833.488 469.5 840.948 462.22 848.668 455.15C850.658 453.33 852.928 451.71 856.558 451.57C856.558 453.3 856.988 454.87 856.498 456.05C849.758 472.19 843.028 488.34 835.968 504.33C833.488 509.96 832.848 515.41 834.328 521.32C837.638 534.52 842.368 547.1 849.868 558.54C851.018 560.3 851.988 562.17 852.958 563.83Z" fill="#0DFF9D"/>
<path d="M292.891 455.87C293.971 458.37 294.541 459.7 295.121 461.03C295.671 461.26 296.211 461.69 296.771 461.7C306.651 462.02 316.331 463.48 325.601 467.02C330.481 468.88 335.231 471.03 338.941 474.95C345.291 481.66 345.681 489.11 340.061 496.5C335.141 502.97 328.681 507.63 322.011 512.06C320.041 513.37 318.071 514.68 315.861 516.15C318.631 518.33 321.321 518.53 324.031 518.77C331.361 519.42 338.701 519.97 346.001 520.86C349.271 521.26 352.451 522.4 356.431 523.4C355.321 525.91 354.921 528.16 353.611 529.54C348.351 535.1 342.871 540.35 334.191 539.66C327.771 539.15 321.321 539.03 314.881 538.81C312.501 538.73 310.101 538.86 307.091 538.9C307.251 540.98 307.031 542.53 307.531 543.79C309.141 547.77 311.041 551.64 312.791 555.56C315.101 560.76 314.271 563.11 309.291 566.07C306.621 567.66 303.921 568.99 300.681 568.83C298.241 568.71 295.801 568.81 292.811 568.81C288.421 565.49 285.381 560.65 283.291 555.11C282.421 552.81 281.511 550.53 280.651 548.23C279.261 544.49 278.451 540.38 276.351 537.1C274.471 534.17 271.181 532.15 268.281 529.52C268.771 528.31 269.011 527.08 269.681 526.17C271.271 524.02 271.811 521.79 270.801 519.28C266.911 509.59 266.831 499.49 267.741 489.33C268.001 486.38 266.931 484.72 264.031 483.61C265.631 476.34 269.201 470.79 276.311 467.66C278.771 466.57 280.871 464.63 283.091 463.01C286.021 460.87 288.691 458.33 292.891 455.87ZM294.451 506.15C305.491 505.18 315.511 501.85 320.231 497.72C315.211 488.59 303.611 482.93 290.331 483.49C289.301 491.55 291.831 498.88 294.451 506.15Z" fill="#0DFF9D"/>
<path d="M64.6306 489.28C68.7406 477.76 70.9106 467.23 72.0906 456.59C73.3306 445.34 77.7906 435.36 82.7206 425.48C83.7806 423.35 85.4706 421.44 87.1906 419.76C88.7006 418.28 91.7606 419.11 92.6806 421.08C93.3206 422.45 93.9406 423.94 94.0406 425.42C94.2406 428.16 94.4406 431 93.9806 433.69C91.7506 446.7 89.4406 459.7 86.8706 472.65C85.4306 479.87 83.2906 486.95 81.7006 494.14C81.0206 497.21 80.1906 500.01 77.9106 502.33C75.0906 505.22 74.5706 508.93 75.4206 512.65C76.3706 516.82 77.6206 520.95 79.0806 524.97C82.2006 533.6 85.5406 542.15 88.7406 550.6C82.5906 557.88 74.8506 558.8 66.2306 559.07C57.7706 545.75 49.4406 532.56 53.5106 515.1C51.8506 514.11 50.0706 513.03 48.2706 511.99C41.9006 508.29 35.4006 504.8 29.1806 500.87C22.0506 496.37 16.6706 490.11 12.2606 482.94C10.2406 479.66 9.85063 476.7 12.5606 473.71C16.6706 469.17 20.7406 464.58 24.9606 460.14C25.9606 459.09 27.4906 458.54 29.2706 457.47C30.7906 459.1 32.7606 460.35 33.5006 462.12C39.2906 476.07 51.6906 482.19 64.6306 489.28Z" fill="#0DFF9D"/>
<path d="M131.461 478.59C138.521 470.55 146.631 472.92 154.061 477.11C163.001 482.15 170.531 488.9 173.391 499.5C173.931 501.52 175.171 503.35 176.071 505.28C178.701 510.89 178.931 516.31 175.791 521.97C170.431 531.62 162.861 539.12 153.771 545.03C150.821 546.95 147.001 548 143.451 548.43C138.301 549.04 133.031 548.78 127.821 548.8C122.691 548.81 118.341 546.45 114.211 543.81C111.131 541.84 108.371 539.4 105.391 537.27C98.5112 532.35 96.1312 525.4 96.2212 517.3C96.2312 516.69 96.2012 516.01 96.4512 515.48C98.6412 510.77 100.271 505.63 103.271 501.49C108.471 494.31 114.481 487.72 120.241 480.95C121.211 479.81 122.581 478.99 123.791 478.07C126.281 476.16 128.791 476.25 131.461 478.59ZM155.081 527.05C156.171 523.62 155.021 520.47 153.751 517.31C149.341 506.33 141.051 499.48 130.281 495.3C127.801 494.34 125.261 493.55 122.911 492.74C123.021 490.75 123.101 489.34 123.211 487.31C115.231 495.26 113.591 502.21 117.191 510.85C122.731 524.13 140.751 531.87 155.081 527.05Z" fill="#0DFF9D"/>
<path d="M232.448 534.18C234.698 531.28 233.918 528.49 233.698 525.78C233.178 519.35 232.798 512.9 231.978 506.51C231.508 502.89 232.188 499.83 234.348 497C237.148 493.34 239.898 489.65 242.778 486.05C243.728 484.87 244.908 483.82 246.128 482.91C248.058 481.47 250.678 482.11 251.348 484.43C252.618 488.84 253.908 493.3 254.488 497.83C255.388 504.83 255.558 511.92 256.278 518.95C257.298 528.8 254.578 537.17 247.058 543.78C244.988 545.6 242.808 547.31 240.738 549.13C234.068 555 226.768 556.79 217.738 555.12C209.408 553.57 201.648 551.28 194.608 546.71C184.018 539.83 178.548 530.15 178.698 517.33C178.738 513.77 179.418 510.55 181.628 507.86C187.078 501.23 192.668 494.73 198.268 488.23C199.038 487.34 200.078 486.63 201.108 486.04C201.528 485.8 202.378 485.97 202.828 486.27C203.258 486.55 203.768 487.3 203.678 487.72C203.168 490.11 202.688 492.54 201.838 494.82C197.198 507.39 202.358 518.31 211.118 525.2C217.398 530.18 224.288 534.06 232.448 534.18Z" fill="#0DFF9D"/>
<path d="M445.971 38.9302C444.471 41.9702 445.881 44.2402 447.091 46.2502C447.751 47.3502 449.531 48.2102 450.891 48.3602C454.241 48.7302 457.641 48.7002 461.021 48.7002C471.461 48.6902 481.911 48.6002 492.351 48.5602C492.961 48.5602 493.591 48.5502 494.191 48.6402C496.541 48.9702 499.541 48.1102 500.871 50.6902C502.461 53.7902 499.921 55.8502 498.011 57.7702C494.771 61.0302 491.461 64.2202 488.061 67.3202C485.641 69.5302 482.601 69.8002 479.421 69.7502C473.581 69.6502 467.731 69.7202 461.891 69.8502C460.161 69.8902 458.441 70.3602 456.091 70.7402C458.451 81.1602 462.651 90.4102 464.601 100.34C463.531 105.07 460.111 108.23 456.801 111.42C454.371 113.76 451.871 116.05 449.261 118.18C447.371 119.73 445.021 119.02 443.981 116.71C443.351 115.32 442.941 113.82 442.441 112.37C438.341 100.47 434.261 88.5502 430.121 76.6702C429.621 75.2402 428.781 73.9402 427.971 72.3102C425.521 72.3102 423.131 72.3902 420.751 72.2902C418.341 72.1802 415.941 71.8802 413.171 71.6302C410.131 78.0002 406.001 83.5802 401.671 89.1502C394.581 98.2802 385.221 101.64 374.461 102.46C369.571 102.83 364.631 102.52 359.681 102.52C356.761 105.02 354.011 107.37 351.041 109.92C347.371 108.18 345.221 105.15 342.801 102.49C340.941 100.44 339.241 98.2502 337.561 96.0502C335.641 93.5502 333.441 91.9102 330.171 91.0702C325.721 89.9202 325.371 88.3702 327.041 83.4102C327.331 82.5502 327.711 81.7102 328.231 80.4302C325.161 74.4002 321.571 68.2902 318.891 61.8202C316.321 55.6202 314.691 49.0402 312.461 42.0502C308.571 40.7002 304.281 39.3502 299.881 41.6202C298.231 44.2802 299.441 46.5602 300.261 48.8402C304.081 59.5602 307.741 70.3402 311.871 80.9302C313.141 84.1802 313.281 87.2602 311.501 89.6802C307.371 95.3302 303.711 101.5 297.811 105.49C294.271 105.7 291.791 103.79 289.211 102.19C274.061 92.7802 258.941 83.3302 243.791 73.9402C241.241 72.3602 238.571 70.9702 236.001 69.5102C233.861 72.4302 235.371 74.7602 235.901 76.9802C237.441 83.4202 236.381 89.2202 232.111 94.2902C229.211 97.7402 227.411 102.23 222.931 104.61C219.501 102.73 218.191 99.5302 217.361 96.3802C214.231 84.4902 211.221 72.5602 208.501 60.5702C206.861 53.3602 208.141 46.5402 212.801 40.5002C215.611 36.8602 217.941 32.8302 220.901 29.3302C224.111 25.5502 225.981 25.8002 230.251 29.2202C236.481 34.2102 242.601 39.3702 249.141 43.9302C258.441 50.4002 268.081 56.3902 277.421 62.4802C279.631 60.8202 278.521 59.3102 278.041 58.1002C275.791 52.3902 273.651 46.6102 270.951 41.1102C268.541 36.2002 268.181 31.8702 271.851 27.4402C274.391 24.3702 276.451 20.8902 278.991 17.8202C280.291 16.2502 282.171 15.1602 284.291 13.4502C285.671 15.2102 287.001 16.4302 287.751 17.9302C290.601 23.6702 293.271 29.4902 296.351 36.0102C298.111 33.9602 299.501 32.4502 300.771 30.8402C303.251 27.7202 305.691 24.5602 308.121 21.4102C310.581 18.2302 313.661 16.7602 317.761 17.4102C327.471 18.9502 337.261 20.0302 346.891 21.9602C355.611 23.7102 364.151 26.3502 372.281 30.1402C374.211 31.0402 376.301 31.5902 378.741 32.4502C380.271 30.9902 381.911 29.6902 383.221 28.1102C384.781 26.2202 386.081 24.1102 387.461 22.0802C391.861 15.6302 397.541 13.2702 405.601 14.2402C414.691 15.3302 423.981 14.7502 433.181 14.9902C436.201 15.0702 439.211 15.6002 442.231 15.6302C456.371 15.7702 470.521 15.9202 484.661 15.8202C492.031 15.7702 499.391 15.1502 506.761 14.8602C509.321 14.7602 510.701 16.6602 509.811 19.1502C509.201 20.8602 508.571 22.7402 507.391 24.0302C503.461 28.3402 499.741 33.0702 495.051 36.4002C491.211 39.1302 486.111 40.0302 481.091 39.0202C478.411 38.4802 475.721 37.6602 473.031 37.6502C465.041 37.6302 457.041 37.9202 449.051 38.1802C447.951 38.2002 446.821 38.7102 445.971 38.9302ZM391.031 79.7302C389.101 73.8702 389.171 73.8002 386.461 71.0702C374.941 59.4402 360.611 52.9302 345.151 48.5402C344.231 48.2802 343.131 48.6302 341.291 48.7402C346.631 58.7002 352.111 67.4502 357.781 76.0902C359.211 78.2702 361.231 79.5802 363.841 79.6902C372.661 80.1002 381.471 80.9502 391.031 79.7302ZM390.051 38.2102C393.731 41.0902 395.681 42.5702 397.571 44.1102C399.231 45.4702 400.871 46.8702 402.431 48.3402C404.211 50.0202 406.031 51.6902 407.611 53.5502C408.991 55.1802 410.021 57.0902 411.261 58.8402C412.561 60.6802 412.821 63.2802 415.461 65.1402C417.721 62.0202 419.811 59.4302 421.551 56.6102C422.291 55.4002 422.821 53.6002 422.521 52.2802C421.451 47.5702 421.251 42.5502 418.181 37.9502C409.511 37.2602 400.791 37.1702 390.051 38.2102Z" fill="#0DFF9D"/>
<path d="M537.609 24.9601C545.349 29.1001 552.619 33.0001 560.319 37.1201C566.529 29.1101 571.589 19.8101 579.799 14.3501C585.409 14.7501 590.239 15.3201 595.079 15.3901C608.849 15.5901 621.839 18.9402 634.229 24.7802C638.989 27.0302 643.259 29.9801 646.729 34.0501C650.039 37.9301 650.699 42.1801 649.119 46.9601C647.529 51.7601 644.569 55.6401 641.149 59.2201C638.839 61.6401 636.449 63.9901 634.039 66.4201C641.409 71.5601 660.419 75.2301 678.759 75.2401C680.219 73.9901 679.519 72.4201 679.259 70.9801C677.889 63.4201 676.439 55.8801 675.059 48.3201C674.549 45.5001 672.899 44.1001 670.119 43.7101C665.269 43.0201 660.439 42.2201 654.949 41.3601C655.139 39.7601 654.809 37.9601 655.559 37.0901C659.959 31.9801 664.529 27.0001 669.209 22.1401C671.269 20.0001 673.899 19.8101 676.889 20.3801C694.409 23.7401 711.779 27.5901 728.389 34.3401C736.379 37.5901 744.339 40.8401 751.629 45.5001C756.029 48.3101 760.369 51.2001 763.759 55.3201C769.179 61.9101 769.789 67.2501 765.709 74.8201C765.419 75.3601 765.099 75.8901 764.739 76.3901C754.869 90.1601 742.859 101.27 726.509 106.89C716.899 110.19 707.319 113.48 699.739 120.71C699.109 121.31 698.139 121.56 696.779 122.26C695.759 120.93 694.279 119.73 693.759 118.22C690.179 107.76 686.799 97.2401 683.339 86.7401C682.609 84.5201 681.819 82.3101 680.759 79.2601C678.799 81.2401 677.269 82.3201 676.359 83.7901C673.679 88.0801 669.579 90.8301 665.879 94.0201C663.159 96.3701 659.969 96.9101 656.389 96.4401C650.609 95.6701 644.759 95.4001 638.989 94.5801C630.789 93.4301 622.639 91.9601 614.459 90.6601C613.339 90.4801 612.189 90.5001 610.199 90.3701C611.589 93.2601 612.619 95.4101 613.869 98.0302C612.099 107.49 603.319 111.22 597.609 117.19C593.609 116.46 591.609 114.03 590.139 111.35C587.629 106.78 585.259 102.11 583.279 97.3001C581.059 91.9001 579.379 86.2901 577.379 80.8001C576.799 79.2201 575.919 77.7501 574.639 75.1101C570.249 84.2501 564.679 91.1401 558.469 97.4601C555.279 100.7 551.609 103.62 547.729 106C542.079 109.48 535.839 110.8 529.139 109.26C524.069 108.09 518.719 107.79 513.869 106.06C509.329 104.44 504.989 101.84 501.079 98.9601C494.099 93.8001 490.809 84.7401 496.499 75.2301C501.419 67.0101 507.249 59.5001 513.809 52.5501C516.349 49.8601 518.469 46.9801 520.519 43.8901C524.239 38.2901 528.729 33.2001 533.049 28.0201C533.949 26.9001 535.509 26.3201 537.609 24.9601ZM701.439 52.6001C702.639 61.0201 704.749 67.6801 706.729 74.3201C708.779 81.1801 709.619 88.5501 714.279 94.8201C724.499 89.7301 735.839 88.8201 744.769 83.1001C745.879 79.7201 744.919 77.4201 743.269 75.5601C741.039 73.0601 738.739 70.5001 736.049 68.5601C726.049 61.3801 714.949 56.4601 701.439 52.6001ZM533.499 52.9001C529.329 54.7901 525.969 56.1801 522.749 57.8401C520.599 58.9501 518.439 60.2301 516.659 61.8501C513.549 64.6701 513.079 68.3001 515.179 71.8701C516.099 73.4401 517.269 74.9601 518.639 76.1401C529.089 85.1601 541.049 87.9501 554.309 85.1501C557.269 69.9901 549.639 58.5201 533.499 52.9001ZM625.569 55.1701C623.789 50.4101 620.559 48.6401 617.349 47.0201C609.229 42.9401 600.939 39.3201 591.159 38.6401C590.299 43.0001 592.379 46.2401 593.339 49.6201C594.249 52.8501 595.359 56.0501 596.689 59.1401C598.059 62.3301 598.419 66.1701 601.619 68.5701C605.359 65.8101 608.539 62.9201 612.209 60.8801C616.159 58.6701 620.569 57.2601 625.569 55.1701Z" fill="#0DFF9D"/>
<path d="M109.919 75.4501C113.939 69.9101 117.129 65.4401 120.409 61.0401C123.139 57.3901 123.189 57.4301 128.939 55.1301C129.859 52.7301 131.089 49.9501 132.019 47.0701C135.659 35.8601 141.089 25.5501 147.749 15.9001C149.819 12.9001 152.429 10.2201 155.089 7.70013C157.239 5.67013 159.719 6.14013 161.299 8.76013C164.469 14.0201 167.469 19.3801 170.469 24.7401C180.239 42.2301 191.889 58.4301 204.129 74.2401C206.009 76.6701 207.699 79.2401 209.409 81.8001C213.709 88.2101 213.319 94.5701 208.799 100.62C205.869 104.55 202.649 108.27 199.399 111.95C197.399 114.21 194.649 113.61 193.799 110.55C190.719 99.4701 182.579 91.7601 176.539 82.9101C161.369 86.0001 146.729 85.1401 131.649 83.9001C128.349 88.4201 125.149 92.8801 121.879 97.2802C119.569 100.39 117.469 101.39 115.999 100.16C113.949 98.4401 114.549 96.3801 115.289 94.2701C116.499 90.8201 117.629 87.3401 118.769 83.9301C114.539 81.7601 112.889 81.7301 111.859 84.5302C109.029 92.1502 103.159 96.9401 96.7991 102.13C95.4391 100.74 93.9691 99.6701 93.0491 98.2501C89.5591 92.8301 86.2791 87.2601 82.8291 81.8101C81.2091 79.2501 79.3891 76.8301 77.2591 73.7601C73.6391 76.7501 71.5191 80.8601 67.1991 81.8601C63.0191 82.8301 58.8191 83.6901 54.1891 84.7001C54.3691 88.3001 55.0891 91.8801 53.0591 95.2802C50.4691 99.6201 44.6391 106.76 39.7591 110.53C36.4591 108.51 34.9891 105.21 33.8991 101.67C32.8091 98.1501 31.8591 94.5801 30.7391 91.0701C29.8091 88.1401 27.8891 86.5402 24.6091 86.5302C20.9991 86.5201 17.2891 86.8801 13.5391 85.1001C14.1591 77.1501 20.4191 72.1401 23.2591 64.9701C22.5991 57.6401 18.1991 49.7101 22.6591 42.0501C26.2491 35.8801 28.3791 28.4101 35.9391 24.3701C40.8591 36.3901 42.7191 48.8701 46.8691 60.6201C54.3191 62.1901 61.1691 62.0401 68.0391 60.3601C68.9691 56.8801 66.8091 54.7601 65.7191 52.3501C62.6891 45.6401 59.5091 39.0001 56.5491 32.2601C53.7391 25.8601 54.1391 19.7801 58.6191 14.0701C61.0691 10.9401 62.9391 7.37014 65.3591 4.21014C66.3691 2.88014 68.1091 2.11012 70.1591 0.620117C70.9891 2.56012 71.7991 3.8101 72.0791 5.1701C73.6891 13.0901 76.7391 20.4401 80.7891 27.3901C88.6691 40.9401 96.5391 54.4901 104.499 67.9901C105.899 70.3201 107.699 72.4101 109.919 75.4501ZM146.839 39.4701C144.669 46.5301 141.819 51.3001 141.529 57.2501C147.369 59.8801 153.199 61.4901 159.849 60.1901C158.819 54.2401 155.079 50.4301 152.419 46.0901C151.219 44.1301 149.449 42.5201 146.839 39.4701Z" fill="#0DFF9D"/>
<path d="M382.572 379.41C379.332 369.62 376.912 360.47 385.062 352.18C385.902 352.7 386.972 352.97 387.272 353.61C389.242 357.75 392.832 360.21 396.592 362.25C410.742 369.91 425.782 375.14 441.572 378.2C443.022 378.48 444.522 378.53 445.792 378.67C447.242 376.64 446.232 375.44 445.232 374.3C438.242 366.32 429.832 360.16 420.302 355.63C413.642 352.47 406.762 349.79 399.972 346.91C392.342 343.67 384.692 340.46 377.062 337.22C375.932 336.74 374.792 336.25 373.732 335.64C364.332 330.22 364.722 326.72 370.182 319.74C372.832 316.35 375.722 313.16 378.392 309.79C382.262 304.9 387.452 302.55 393.462 301.89C402.322 300.92 411.182 299.89 420.062 299.32C429.002 298.75 437.832 300.13 446.562 301.99C448.622 302.43 450.672 303.27 452.522 304.28C456.162 306.28 456.612 309.26 453.912 312.67C452.772 314.11 451.442 315.41 450.152 316.72C447.782 319.13 445.252 321.38 443.042 323.92C440.402 326.95 437.432 327.37 433.962 325.77C427.412 322.77 420.542 321.66 411.792 322.01C414.342 323.59 415.602 324.56 417.022 325.23C423.972 328.49 431.032 331.52 437.932 334.9C449.132 340.39 458.632 347.94 466.192 358.03C471.472 365.09 471.962 372.02 467.292 379.36C462.272 387.25 456.002 393.89 447.802 398.57C442.752 401.46 437.132 402.03 431.712 401.18C424.782 400.1 417.682 398.72 411.272 396C401.132 391.7 391.212 386.72 382.572 379.41Z" fill="#0DFF9D"/>
<path d="M208.561 312.44C205.811 315.94 204.871 318.14 203.221 319.04C198.421 321.64 193.321 323.71 188.361 326.02C186.711 326.79 184.851 327.37 183.541 328.54C178.931 332.63 173.411 334.13 167.511 334.76C161.101 335.44 154.691 336.14 148.131 336.84C145.721 339.41 144.171 342.23 143.861 346.27C158.151 343.6 172.251 344.41 186.301 343.89C189.361 343.77 192.411 343.26 195.471 343.13C196.851 343.07 198.251 343.51 200.581 343.87C199.261 346.17 198.581 347.79 197.521 349.11C192.381 355.5 185.161 359.21 178.211 362.99C173.691 365.45 168.311 366.07 162.961 365.94C158.391 365.83 153.751 365.9 148.831 368.41C149.991 369.8 150.721 371.06 151.791 371.89C158.791 377.32 167.121 379.55 175.571 381.32C178.271 381.89 181.071 381.95 183.821 382.27C190.251 383.03 196.201 382.53 199.621 376.07C203.651 377.9 204.471 378.86 203.391 381.19C202.101 383.95 200.771 386.87 198.761 389.08C194.631 393.61 190.191 397.91 185.521 401.9C183.791 403.37 181.091 404.35 178.801 404.4C172.371 404.55 165.761 404.93 159.541 403.66C152.391 402.2 145.321 399.63 138.681 396.54C123.651 389.53 117.511 372.6 124.701 357.64C127.091 352.67 129.341 347.63 131.671 342.61C130.191 341.23 128.211 340.24 127.881 338.85C127.521 337.33 128.661 335.44 129.171 333.72C129.251 333.44 129.491 333.2 129.661 332.94C137.651 320.16 141.591 317.45 156.611 314.86C160.541 314.18 164.531 313.69 168.521 313.54C181.091 313.07 193.671 312.83 208.561 312.44Z" fill="#0DFF9D"/>
<path d="M17.1611 318.67C15.8011 312.78 19.0711 309.24 22.0511 305.83C23.0511 304.68 25.3411 304.21 27.0411 304.2C53.1611 304.11 79.2711 301.98 105.411 303.7C110.921 304.06 116.471 303.8 122.011 303.89C125.081 303.94 128.191 303.89 131.331 306.23C130.791 307.41 130.491 308.96 129.571 309.89C126.341 313.13 122.991 316.27 119.501 319.25C114.631 323.41 108.791 325.1 102.471 325.26C98.1711 325.37 93.8611 325.41 89.5611 325.49C86.8211 325.55 84.0911 325.64 80.8411 325.73C80.3111 328.07 79.2911 330.13 79.5211 332.04C80.1111 336.89 80.9011 341.78 82.2611 346.46C85.1611 356.49 88.3811 366.44 91.6611 376.35C92.8111 379.83 91.6111 382.26 89.2911 384.6C85.4111 388.52 80.1511 389.46 75.2411 391.04C74.1811 391.38 72.2011 390.31 71.2911 389.31C70.1011 388.01 69.3511 386.2 68.7511 384.48C65.8411 376.06 62.9111 367.64 60.2611 359.14C57.4111 350 58.3611 340.92 61.4511 331.99C62.0311 330.33 62.7511 328.72 63.6511 326.49C61.1811 326.2 59.4411 325.84 57.6911 325.81C52.4611 325.72 47.2411 325.76 42.0111 325.76C37.0711 325.76 32.4311 325.43 28.0111 322.34C25.1311 320.35 21.1511 319.95 17.1611 318.67Z" fill="#0DFF9D"/>
<path d="M292.831 367.37C292.551 368.76 292.621 369.8 292.161 370.49C286.441 378.96 279.501 386.48 271.151 392.19C258.671 400.73 243.021 399.75 231.171 391.9C226.051 388.51 223.171 383.36 221.171 377.84C218.191 369.6 217.681 361.1 219.301 352.4C222.111 337.31 229.581 324.91 240.381 314.3C241.251 313.45 242.191 312.56 243.281 312.1C243.971 311.8 245.191 311.97 245.801 312.43C246.421 312.9 247.041 314.12 246.841 314.76C246.141 317.09 245.241 319.39 244.151 321.57C240.961 327.97 238.951 334.7 238.301 341.82C238.111 343.95 238.021 346.13 238.231 348.26C240.591 371.73 263.251 383.02 283.981 371.09C286.351 369.72 288.741 368.37 291.131 367.05C291.331 366.95 291.681 367.14 292.831 367.37Z" fill="#0DFF9D"/>
<path d="M371.51 368.23C370.73 369.53 370.16 370.97 369.18 372.02C364.16 377.41 359.03 382.7 353.93 388.01C349.49 392.63 343.95 394.99 337.7 396.04C328.92 397.52 320.49 396.25 312.51 392.62C304.29 388.88 299.64 382.39 299.2 373.17C298.79 364.78 299.75 356.54 302.57 348.64C305.47 340.51 309.12 332.73 314.5 325.85C317.14 322.46 319.29 318.7 321.9 315.28C323.87 312.69 325.67 309.7 329.91 308.84C329.97 310.95 330.47 312.8 329.98 314.32C328.46 318.99 326.62 323.56 324.78 328.11C321.76 335.59 319.78 343.28 319.67 351.39C319.51 363.22 324.35 369.89 335.93 372.64C345.72 374.96 355.41 374.81 364.54 369.56C366.42 368.48 368.35 366.08 371.51 368.23Z" fill="#0DFF9D"/>
<path d="M149.242 202.79C145.972 208.86 145.042 213.73 144.692 218.55C144.042 227.38 140.102 234.26 133.762 240.08C132.182 241.53 130.872 243.26 129.292 244.71C126.172 247.58 123.872 247.84 120.282 245.11C117.122 242.71 113.962 240.11 111.522 237.02C106.972 231.26 102.942 225.08 98.7019 219.07C97.8519 217.86 97.0519 216.61 95.6219 214.46C94.7519 216.65 93.8419 217.9 93.8219 219.17C93.7719 222.22 94.0219 225.29 94.3919 228.32C94.6819 230.69 96.7019 233.1 95.0919 235.39C93.0019 238.36 90.6519 241.27 87.9319 243.65C85.2419 246 81.0319 245 79.1519 241.92C77.3819 239.02 76.1419 235.91 76.4119 232.35C77.0419 224.09 77.3919 215.8 78.2119 207.55C79.0319 199.3 80.2119 191.09 81.4119 182.88C81.7119 180.8 82.2119 178.49 83.3919 176.85C86.9719 171.89 90.6619 166.95 94.8319 162.49C98.7319 158.32 101.092 159.03 103.552 164.53C104.802 167.32 105.772 170.25 106.742 173.16C110.722 185.2 116.432 196.38 123.362 206.95C124.832 209.19 125.982 211.88 129.782 212.57C130.882 210.27 132.182 207.9 133.172 205.41C135.562 199.42 137.722 193.34 140.132 187.35C143.862 178.06 149.902 170.37 157.062 163.5C157.722 162.87 158.422 162.25 159.172 161.73C161.102 160.39 163.532 161.07 164.432 163.42C165.522 166.28 166.512 169.21 167.202 172.19C171.392 190.24 177.702 207.49 186.732 223.69C189.412 228.5 192.642 232.99 195.862 238.01C195.842 241.91 193.862 245.06 190.272 247.46C187.482 249.33 184.912 251.54 182.192 253.53C178.642 256.13 176.432 256.01 173.382 252.66C168.162 246.93 164.162 240.35 161.182 233.24C157.752 225.04 154.692 216.67 151.472 208.38C150.932 207.02 150.382 205.65 149.242 202.79Z" fill="#0DFF9D"/>
<path d="M564.589 225.93C565.449 221.23 565.199 217.32 564.589 213.43C563.569 206.98 563.358 200.8 566.748 194.7C568.638 191.3 568.878 187.02 570.378 183.34C571.758 179.97 573.618 176.73 575.718 173.75C576.578 172.52 578.639 172.14 580.899 170.99C581.669 174.73 582.428 177.65 582.858 180.61C584.498 191.84 585.828 203.12 587.678 214.32C588.828 221.27 590.379 228.19 592.339 234.95C593.979 240.58 592.968 244.87 588.888 249.14C585.638 252.54 581.798 254.92 578.108 257.64C574.518 260.28 570.909 260.07 568.019 257.32C563.688 253.19 558.318 250.92 553.388 247.85C552.868 247.53 552.339 247.2 551.779 246.95C535.419 239.67 520.718 229.73 506.598 218.85C505.908 218.32 504.998 218.09 504.258 217.75C502.078 218.61 502.818 220.34 502.928 221.69C503.068 223.52 503.508 225.32 503.848 227.13C504.398 230.09 506.108 233.05 504.228 236.03C501.918 239.69 499.239 243.09 495.149 244.91C492.419 246.13 489.568 247.08 486.958 248.07C483.588 246.7 483.308 243.8 482.848 241.12C480.568 227.82 478.328 214.52 476.158 201.2C475.768 198.79 475.468 196.3 475.638 193.89C475.768 192.15 476.328 190.11 477.418 188.82C481.388 184.15 485.518 179.6 489.878 175.29C492.668 172.53 494.898 172.69 498.038 175.1C499.008 175.84 499.978 176.64 500.758 177.57C505.518 183.31 511.549 187.56 517.399 192.04C522.269 195.77 526.758 200.01 531.678 203.67C540.788 210.43 550.078 216.97 559.358 223.5C560.758 224.51 562.509 224.99 564.589 225.93Z" fill="#0DFF9D"/>
<path d="M356.58 197.13C353.8 195.88 350.73 194.54 347.7 193.13C337.93 188.58 323.57 193.11 316.8 199.52C313.14 202.99 312.65 209.81 315.51 214.94C317.5 218.51 320.24 221.54 323.84 223.35C328.2 225.54 332.72 227.67 337.41 228.86C350.05 232.07 362.85 232.87 376.18 229.4C382.07 220.25 388.02 210.53 398.69 204.14C399.39 205.58 400.38 206.76 400.46 207.99C400.56 209.46 400 211.02 399.51 212.46C396.7 220.73 397.67 228.88 400.57 236.84C402.87 243.17 405.57 249.35 408.19 255.85C405.1 264.69 397.89 269.72 390.6 274.61C384.12 269.43 384.12 269.43 374.61 240.66C370 242.49 366.12 245.43 362.1 248.18C359.62 249.88 356.86 251.92 354.04 252.23C341.83 253.59 329.54 254.73 317.54 250.68C310.8 248.4 304.46 245.49 299.51 240.03C292.34 232.12 290.79 223.37 295.34 213.69C296.51 211.2 297.88 208.76 299.45 206.5C305.8 197.37 313.32 189.28 321.95 182.26C327.48 177.76 333.69 174.47 340.31 171.84C346.17 169.5 352.23 169.11 358.42 169.36C364.33 169.6 368.9 172.53 372.85 176.61C374.74 178.56 375.04 180.8 373.88 183.39C372.3 186.92 369.72 189.45 366.54 191.42C363.43 193.34 360.19 195.07 356.58 197.13Z" fill="#0DFF9D"/>
<path d="M203.899 232.01C199.599 230.17 194.789 231.01 192.809 226.01C195.969 219.24 200.629 213.2 206.589 208.32C208.539 206.73 211.559 206.43 214.779 205.3C218.209 197.2 221.369 188.24 223.229 178.91C225.469 167.71 232.449 159.74 240.469 152.37C240.919 151.96 241.419 151.58 241.939 151.26C243.959 150 246.109 150.74 247.149 153.15C247.879 154.84 248.509 156.59 249.009 158.36C256.349 184.47 268.799 207.96 285.279 229.4C287.149 231.84 288.879 234.39 290.629 236.91C292.369 239.42 292.609 242.11 290.969 244.71C286.829 251.24 281.749 256.85 275.219 260.7C271.699 259.97 270.619 257.31 269.059 255.06C262.949 246.24 256.769 237.46 250.519 228.54C245.299 229.81 240.679 231.37 235.929 231.96C231.089 232.56 226.119 232.2 221.429 232.25C217.129 236.42 213.219 240.31 209.199 244.09C207.689 245.51 206.049 247.44 203.659 245.84C201.499 244.39 201.999 242.05 202.339 239.94C202.719 237.55 203.269 235.18 203.899 232.01ZM239.559 209.78C237.989 204.37 236.889 200.35 233.709 196.56C231.239 200.56 228.669 203.88 230.019 208.99C232.849 209.22 235.489 209.44 239.559 209.78Z" fill="#0DFF9D"/>
<path d="M721.4 260.62C717.8 267.84 716.8 268.66 702.08 276.1C698.6 275.59 697.12 272.86 696.2 269.9C694.39 264.04 692.82 258.1 691.19 252.18C690.39 249.29 689.67 246.37 688.73 242.76C684.23 245.01 680.29 246.67 676.65 248.86C671.69 251.84 666.66 253.22 660.85 251.98C654.26 250.57 647.46 251.25 640.76 249.82C631.19 247.77 624.53 242.32 620.33 234.14C614.97 223.68 614.58 212.53 620.93 202.4C629.76 188.33 641.63 177.35 657.28 170.97C672.68 164.7 685.45 170.18 694.42 179.1C695.46 180.13 696.06 181.61 697.1 183.26C694.68 185.46 692.56 187.67 690.15 189.48C688.2 190.94 686.04 191.67 683.27 190.95C677.68 189.49 671.93 189 666.34 187.09C657.95 184.23 649.95 187.17 642.51 191.15C639.76 192.62 638.08 195.45 637.49 198.6C635.5 209.14 638.21 218.23 646.81 224.87C649.88 227.25 653.7 228.97 657.45 230.1C665.83 232.61 676.86 232.75 687.16 231.12C689.2 221.45 696.58 215.34 703.55 208.93C704.67 207.9 705.89 206.83 707.26 206.24C708.54 205.69 710.32 205.2 711.46 205.68C713.62 206.6 713.16 208.7 712.32 210.42C710.45 214.26 710.86 218.27 711.53 222.18C712.87 230.05 714.24 237.93 716.13 245.68C717.38 250.69 719.56 255.48 721.4 260.62Z" fill="#0DFF9D"/>
<path d="M38.4318 168.13C39.4918 169.67 40.9318 170.94 41.3518 172.5C43.6118 180.79 45.6518 189.14 47.7118 197.48C49.4018 204.34 50.9818 211.22 52.6718 218.07C54.7418 226.45 57.4418 234.57 63.5218 241.2C62.0918 245.95 58.5118 248.39 54.7818 250.42C51.8518 252.01 48.5818 253.04 45.4118 254.16C42.7818 255.09 40.5818 254.38 39.0518 251.93C37.7618 249.87 36.6218 247.64 35.8518 245.34C34.0018 239.81 32.3218 234.23 30.7318 228.62C27.7218 218 25.0018 207.29 21.8118 196.72C20.3518 191.88 20.7818 187.73 23.8318 183.73C25.8818 181.05 27.7318 178.21 29.7218 175.49C31.9218 172.5 34.5018 169.95 38.4318 168.13Z" fill="#0DFF9D"/>
<path d="M469.111 233.93C468.311 237.52 466.981 240.06 464.061 241.8C460.401 243.99 457.001 246.61 453.441 248.97C450.801 250.72 448.131 250.18 446.361 247.33C444.421 244.21 442.581 240.99 440.991 237.68C435.801 226.89 430.561 216.14 427.261 204.55C425.431 198.11 426.241 192.47 430.801 187.4C434.901 182.85 438.091 177.45 443.311 173.97C444.241 173.35 445.701 172.77 446.611 173.08C447.481 173.38 448.561 174.89 448.511 175.8C447.671 189.05 454.111 200.18 458.901 211.75C461.931 219.13 465.551 226.27 469.111 233.93Z" fill="#0DFF9D"/>
<path d="M758.401 864.34C763.521 873.22 767.941 880.89 772.341 888.54C769.271 896.68 766.701 899.89 756.591 908.22C753.681 908.28 752.321 906.01 751.141 903.99C746.201 895.5 741.251 887.01 736.711 878.31C734.021 873.16 731.631 867.91 726.951 864.21C728.191 855.44 725.051 847.72 723.081 839.67C718.741 842.08 706.591 853.92 701.891 860.27C706.411 869.69 716.411 874.94 721.291 884.08C719.621 891.77 713.711 896.09 708.971 901.21C707.321 902.99 705.451 904.73 702.201 904.12C692.661 892.95 682.911 881.53 672.681 869.55C662.331 870.71 651.421 871.93 640.551 873.15C638.021 876.81 635.891 880.96 632.761 884.12C629.601 887.31 627.741 891.99 623.201 893.49C620.321 892.95 619.641 890.82 619.211 888.72C618.161 883.55 618.081 878.35 619.181 873.16C619.691 870.73 620.091 868.46 617.841 866.39C616.271 864.95 617.001 862.9 618.061 861.32C620.471 857.76 623.061 854.32 625.501 850.78C627.931 847.25 630.421 843.75 632.621 840.07C639.231 829 645.101 817.43 654.161 808.02C657.131 804.93 660.281 801.98 663.591 799.26C666.101 797.2 669.131 798.01 670.391 801.04C671.681 804.14 672.581 807.42 673.411 810.68C676.221 821.66 684.151 837.49 691.321 845.96C696.921 845.4 702.581 844.21 708.091 842.29C712.591 840.72 716.211 837.93 718.941 834.09C721.951 829.85 723.631 824.97 726.111 819.9C721.561 818.55 717.611 819.05 713.731 818.99C709.791 818.93 705.861 818.98 701.621 818.98C701.461 818.36 700.811 817.3 701.111 816.74C703.941 811.34 706.491 805.77 711.061 801.45C714.371 798.33 718.081 796.6 722.631 796.65C725.701 796.68 728.821 796.35 731.841 796.75C747.981 798.86 764.081 801.31 779.541 806.59C785.881 808.76 792.071 811.57 797.331 816.04C801.921 819.93 803.081 824.55 801.111 830.08C799.451 834.72 797.601 839.22 793.961 842.81C791.341 845.39 789.201 848.45 786.621 851.08C782.481 855.29 777.741 858.48 771.791 859.87C767.681 860.81 763.721 862.52 758.401 864.34ZM781.501 838.66C774.921 829.59 758.381 822.59 744.361 822.91C743.711 831.32 746.471 838.7 750.351 846.11C761.271 844.37 771.931 844.15 781.501 838.66ZM651.761 828.61C647.021 834.26 643.951 839.51 642.851 846.17C648.561 848.95 653.801 850.85 660.291 849C659.731 847.14 659.451 845.66 658.861 844.31C656.671 839.34 654.381 834.4 651.761 828.61Z" fill="#0DFF9D"/>
<path d="M100.659 826.49C97.4693 830.38 94.4193 833.71 91.8293 837.36C86.3493 845.05 78.7893 849.26 69.8193 851.41C65.3793 852.47 60.9793 853.73 56.1593 855.01C56.2693 857.2 55.9693 859.06 56.4993 860.64C59.1693 868.46 61.0093 876.62 65.4593 883.75C66.5393 885.48 66.4093 887.3 65.5093 889.01C62.4893 894.69 57.7993 898.47 51.8193 900.7C49.4893 901.57 47.4393 900.78 46.0893 898.94C44.8393 897.24 43.9093 895.25 43.1193 893.27C34.3793 871.46 28.0493 849.08 27.1893 825.42C27.1493 824.19 26.9593 822.97 26.9693 821.74C26.9993 818.22 24.8693 816.04 22.2093 814.35C20.6793 813.38 18.7793 813.01 17.1593 812.17C15.1793 811.14 14.2093 808.85 14.9193 806.68C16.2793 802.53 18.4193 798.75 21.9193 796.09C23.2693 795.06 25.2893 794.74 27.0593 794.46C41.2093 792.22 55.2393 793.32 69.1393 796.45C74.5293 797.66 79.8593 799.17 85.1293 800.83C92.9693 803.31 99.7193 807.31 103.009 815.28C106.099 815.4 106.449 812.8 107.699 811.25C110.199 808.14 112.479 804.85 115.159 801.92C115.979 801.03 117.879 800.71 119.199 800.88C119.819 800.96 120.659 802.8 120.649 803.84C120.559 816.39 124.839 827.98 128.349 839.74C128.599 840.59 129.269 841.32 130.039 842.57C136.629 843.51 143.509 843.34 150.329 843.27C151.389 839.44 149.459 836.77 148.539 833.93C146.359 827.21 143.949 820.6 143.289 813.45C142.609 806.07 143.879 799.39 148.689 793.61C151.629 790.08 154.529 786.5 157.709 783.2C158.539 782.34 160.359 782.43 162.299 781.93C162.419 785.02 162.679 787.43 162.559 789.81C162.169 797.65 163.959 805.04 166.679 812.31C173.379 830.2 181.919 847.21 191.189 863.88C193.429 867.9 195.369 872.09 197.479 876.18C199.529 880.15 198.989 883.97 196.609 887.52C192.959 892.99 187.849 896.69 181.429 899.7C177.289 894.36 175.119 888.22 171.849 882.75C168.699 877.5 165.599 872.22 162.559 867.11C153.739 867.37 145.289 867.61 135.999 867.88C137.079 871.16 137.909 873.67 138.829 876.46C138.799 876.72 138.839 877.36 138.649 877.91C136.229 885.09 130.019 888.88 124.599 893.31C122.559 894.98 119.549 894.21 118.429 891.58C116.509 887.07 114.809 882.44 113.469 877.73C111.289 870.06 109.499 862.28 107.499 854.55C106.889 852.17 106.199 849.81 105.469 847.47C103.659 841.6 101.669 835.77 101.859 829.49C101.919 828.76 101.289 827.97 100.659 826.49ZM47.0593 819.93C46.7893 825.5 47.5593 830.24 49.7893 834.59C55.7693 834.86 64.6293 833.28 72.4293 830.44C73.6393 830 75.6393 830.02 75.4693 827.82C66.0593 822.17 55.9593 819.27 47.0593 819.93Z" fill="#0DFF9D"/>
<path d="M250.351 815.76C251.631 815.03 251.951 814.93 252.151 814.72C260.031 806.6 257.481 806.98 271.501 807.73C274.851 807.91 278.171 808.77 281.491 809.34C283.901 809.75 286.301 810.26 288.721 810.61C294.671 811.47 300.391 811.41 304.751 806.28C305.071 805.91 305.871 805.95 306.551 805.78C309.251 806.52 307.841 809.58 309.991 811.62C319.021 814.9 329.361 811.75 339.961 813.68C339.111 816.25 338.931 818.93 337.541 820.57C334.001 824.75 330.051 828.62 325.971 832.28C324.761 833.37 322.581 833.55 320.801 833.81C318.121 834.2 315.391 834.3 313.181 834.48C310.811 837.38 312.001 839.82 312.691 842.05C315.671 851.74 318.841 861.36 321.951 871.01C322.611 873.06 323.111 875.17 323.981 877.13C326.941 883.81 325.731 889.77 320.851 894.96C317.751 898.26 315.451 902.43 311.351 904.47C308.081 903.8 307.431 901.18 306.651 898.97C303.371 889.71 300.261 880.39 297.131 871.08C294.001 861.76 290.871 852.43 290.111 842.52C289.921 840.1 289.421 837.71 289.011 835.01C284.781 833.14 280.651 833.48 275.861 834.33C276.441 836.61 276.781 838.65 277.471 840.56C281.331 851.31 279.121 860.77 272.671 870.09C261.781 885.82 246.791 892.08 228.291 890.9C219.371 890.34 211.761 887.05 206.561 879.08C202.081 872.22 200.151 865.44 203.921 857.58C205.201 854.9 205.891 851.68 205.901 848.71C205.901 845.43 206.931 842.62 208.411 839.99C212.981 831.85 218.921 824.9 226.771 819.68C232.351 815.97 238.241 813.89 245.041 815.27C246.801 815.63 248.661 815.61 250.351 815.76ZM259.071 865.46C261.141 862.05 259.611 859.23 258.501 856.41C256.531 851.42 253.371 847.3 249.041 844.17C240.241 837.83 230.891 835.66 220.781 840.4C216.861 848.67 219.591 855.01 225.391 860.62C228.341 863.47 231.891 865.33 235.811 866.29C243.681 868.22 251.531 868.25 259.071 865.46Z" fill="#0DFF9D"/>
<path d="M573.9 867.51C579.5 871.23 585.42 872.5 591.24 873.99C592.12 874.21 593.08 874.1 593.99 874.25C600.68 875.39 607.14 877.02 611.83 883.37C609.05 886.86 606.34 890.92 602.95 894.31C599.8 897.47 595.6 898.45 591.01 897.67C582.56 896.25 574.07 895.03 565.46 893.7C560.27 899.46 555.88 905.7 549.52 910.59C548.29 909.13 547.06 908.14 546.43 906.86C544.82 903.55 543.39 900.15 542.06 896.72C540.28 892.16 539.39 887.06 536.78 883.07C533.85 878.59 536.86 873.99 535.03 869.71C534.2 867.77 534.13 865.52 533.55 863.45C530.24 851.54 528.77 839.37 528.45 827.04C528.42 825.85 528.01 824.67 527.79 823.55C517.71 822.88 517.92 822.99 522.55 814.3C527.51 805 535.58 800.72 545.47 799.64C555.3 798.57 565.04 799.91 574.72 801.95C584.72 804.06 594.13 807.63 603 812.64C605.38 813.98 607.73 815.5 609.75 817.32C614.31 821.42 615.62 826.41 613.36 832.32C611.37 837.52 609.22 842.54 605.03 846.45C603.02 848.33 601.31 850.53 599.43 852.56C595.62 856.69 591.12 859.7 585.82 861.74C581.93 863.24 577.6 864.05 573.9 867.51ZM593.54 841.21C592.98 837.95 590.53 836.06 588.07 834.3C579.16 827.9 568.74 825.31 558.29 822.9C555.38 822.23 552.31 821.35 549.07 823.7C548.99 825.25 548.5 827.11 548.89 828.76C550.97 837.56 551.72 846.73 555.53 855.02C568.21 852.42 588.07 845.19 593.54 841.21Z" fill="#0DFF9D"/>
<path d="M848.301 888.719C845.571 897.459 837.201 899.959 831.271 905.699C829.341 904.469 827.311 903.649 825.931 902.199C824.041 900.229 822.441 897.9 821.061 895.52C812.601 880.95 808.011 865.139 806.201 848.459C805.221 839.449 807.221 831.53 813.561 824.67C817.081 820.86 819.821 816.349 822.981 812.209C823.691 811.279 824.671 810.569 825.821 809.479C828.001 811.359 827.311 813.54 827.181 815.5C826.881 820.08 826.581 824.669 826.081 829.229C825.601 833.639 826.951 837.649 828.091 842.219C834.021 842.829 839.721 842.43 846.101 842.56C845.751 833.14 843.961 824.01 849.321 816.18C853.791 809.66 858.401 803.13 865.371 799.27C867.491 799.78 867.151 801.209 867.081 802.319C866.991 803.839 866.691 805.37 866.381 806.87C863.801 819.44 868.451 830.45 873.831 841.28C874.491 842.6 875.831 843.57 876.771 844.76C877.501 845.69 878.601 846.689 878.681 847.719C879.361 856.659 884.601 863.749 888.371 871.349C892.731 880.139 897.761 888.61 902.811 897.03C905.411 901.38 905.121 904.869 901.861 908.709C897.871 913.409 893.431 917.43 888.131 920.8C883.961 918.22 882.151 914.289 879.921 910.709C872.601 898.949 866.601 886.51 860.661 874.03C856.691 865.68 856.631 865.62 847.551 865.68C844.241 865.7 840.821 864.869 837.011 866.719C837.181 867.999 836.961 869.619 837.601 870.74C840.931 876.619 844.481 882.349 848.301 888.719Z" fill="#0DFF9D"/>
<path d="M494.19 867.24C495.11 861.76 495.2 856.76 498.62 852.75C502.91 847.71 505.81 841.36 511.82 838.17C514.08 838.95 514.11 840.58 514.11 842.07C514.13 845.45 514.07 848.83 513.91 852.2C513.31 865.39 515.29 877.92 523.48 889.1C520.92 897 515.05 902.49 509.68 908.27C508.98 909.03 506.61 909.03 505.51 908.45C503.99 907.64 502.52 906.14 501.77 904.58C499.51 899.9 497.5 895.09 495.62 890.25C494.75 888.01 494.39 885.57 493.85 883.44C491.64 882.37 490.69 883.83 489.64 884.81C485.86 888.32 481.07 889.86 476.27 890.52C464.01 892.2 451.71 892.56 440.07 887.27C436.47 885.63 432.81 883.73 429.87 881.16C420.24 872.75 417.17 861.23 422.74 849.48C429.26 835.73 438.65 823.92 452.11 816.08C461.19 810.8 471.1 809.39 481.45 810.79C482.96 811 484.51 811.27 485.91 811.85C493.08 814.83 494.15 819.37 489.04 825.28C487.86 826.64 486.37 827.76 484.93 828.88C483.97 829.62 482.35 829.9 481.89 830.82C478.56 837.55 473.89 836 468.12 834.21C460.68 831.89 452.91 832.36 445.7 836.04C440.52 838.68 439.17 841.56 440.33 847.34C441.2 851.67 443.01 855.58 446.56 858.34C449.21 860.4 451.93 862.58 454.97 863.89C467.38 869.22 480.16 871.21 494.19 867.24Z" fill="#0DFF9D"/>
<path d="M948.601 843.75C949.431 840.18 949.981 837.82 950.531 835.47C951.851 829.8 953.061 824.09 954.511 818.45C957.301 807.67 963.571 799.15 972.121 792.22C972.761 791.7 973.721 791.59 974.451 791.32C977.091 793.07 975.971 795.22 975.411 797.18C972.301 808.12 969.811 819.19 968.661 830.52C968.231 834.78 967.941 839.08 968.071 843.35C968.261 849.61 967.281 855.29 964.081 860.94C958.281 871.19 957.951 881.89 963.591 892.56C968.071 901.05 967.201 904 959.021 908.88C957.181 909.97 955.171 910.77 953.241 911.71C948.121 914.2 946.411 913.87 942.921 909.83C940.031 906.48 938.241 902.71 937.881 898.23C937.491 893.28 937.741 888.43 939.071 883.63C939.961 880.4 940.681 877.12 941.551 873.55C939.731 872.07 938.271 870.47 936.471 869.5C930.181 866.11 924.801 861.57 919.711 856.66C913.741 850.91 907.561 845.32 902.101 839.12C898.091 834.57 894.991 829.19 891.651 824.07C889.171 820.27 889.911 816.73 892.501 813.03C896.731 806.99 901.281 801.37 907.621 796.64C911.181 803.07 913.841 809.37 917.811 814.68C922.001 820.29 927.261 825.14 932.371 829.99C937.181 834.58 941.421 839.94 948.601 843.75Z" fill="#0DFF9D"/>
<path d="M376.482 816.63C387.392 816.14 396.722 819.93 405.642 824.85C407.952 826.13 410.012 828.33 411.502 830.56C418.632 841.28 420.152 852.89 414.802 864.65C410.702 873.67 404.012 880.99 396.302 887.2C387.472 894.31 376.872 896.11 366.002 895.88C360.262 895.76 354.312 894.85 348.882 893.02C334.052 888.02 327.432 872.34 333.482 857.88C333.842 857.03 334.192 856.17 334.662 855.38C339.492 847.23 344.382 839.11 349.172 830.94C355.392 820.3 364.812 815.89 376.482 816.63ZM398.222 869.52C400.532 855.89 393.662 842.5 376.642 839.97C371.232 839.17 365.632 839.26 360.152 839.53C354.912 839.79 351.232 843.77 350.702 849.07C349.902 857.1 352.552 863.56 359.862 867.56C362.262 868.87 364.812 870.04 367.432 870.75C376.142 873.11 384.972 873.21 393.792 871.29C395.252 870.97 396.592 870.19 398.222 869.52Z" fill="#0DFF9D"/>
<path d="M270.488 1205.79C275.228 1195.51 279.608 1185.01 287.958 1176.89C288.538 1176.32 288.648 1175.26 289.068 1174.2C285.998 1171.98 282.568 1172.29 279.278 1172.5C276.318 1172.69 273.378 1173.35 270.778 1173.75C268.568 1171.1 269.348 1168.94 270.658 1167.3C274.108 1162.99 277.838 1158.89 281.488 1154.75C285.518 1150.19 290.668 1148.9 296.528 1149.65C301.398 1150.27 306.288 1150.81 311.168 1151.4C320.928 1152.58 330.698 1153.72 340.438 1155.01C342.808 1155.32 345.098 1156.14 347.238 1156.67C347.878 1159.89 345.998 1161.68 344.258 1162.16C339.018 1163.6 334.398 1167.25 328.548 1166.58C325.648 1166.25 323.228 1167.32 321.148 1169.53C317.758 1173.13 313.338 1174.13 308.538 1174.06C305.498 1174.01 302.468 1174.2 299.538 1174.28C296.468 1177.87 295.848 1181.57 296.498 1186.01C302.298 1189.28 308.668 1188.08 314.608 1188.57C320.328 1189.05 326.178 1188.03 332.388 1187.65C334.178 1188.81 333.478 1190.5 332.218 1192.01C326.198 1199.22 318.998 1204.78 309.948 1207.7C308.208 1208.26 306.508 1208.96 304.098 1209.84C304.918 1211.37 305.348 1212.79 306.258 1213.75C312.388 1220.25 320.248 1223.63 328.748 1225.65C332.428 1226.52 334.628 1224.52 333.888 1220.46C332.818 1214.51 334.558 1209.4 337.928 1204.87C343.058 1197.97 348.568 1191.35 353.928 1184.63C354.868 1183.45 355.878 1182.32 357.138 1180.83C355.898 1179.71 354.868 1178.78 353.808 1177.84C355.448 1167.51 362.788 1158.71 372.708 1155.03C386.258 1150.01 398.218 1153.37 408.678 1162.46C415.868 1168.71 422.428 1175.61 424.068 1185.79C424.478 1188.36 426.438 1190.68 428.138 1193.99C432.508 1179.7 441.698 1169.86 451.718 1160.73C460.458 1152.76 470.798 1148.71 482.768 1148.72C490.188 1148.72 495.658 1152.05 500.248 1157.46C502.478 1160.09 503.008 1162.9 501.318 1165.96C499.228 1169.75 497.118 1173.61 491.738 1172.66C489.338 1172.23 488.758 1173.66 487.898 1175.51C486.748 1178 484.918 1178.55 482.748 1177.58C481.358 1176.96 480.018 1176.18 478.758 1175.31C470.498 1169.63 461.918 1170.7 453.248 1174.08C450.718 1175.06 449.498 1177.11 449.268 1179.79C448.898 1184.15 449.178 1188.39 451.298 1192.35C458.338 1205.49 468.708 1213.58 484.108 1214.13C489.338 1214.32 494.498 1214.01 500.108 1212.84C501.048 1207.64 501.248 1202.34 503.078 1197.69C504.838 1193.23 508.368 1189.49 510.978 1185.34C513.788 1180.86 517.298 1177.3 522.618 1174.74C524.758 1179.27 522.528 1183.17 522.898 1186.98C523.248 1190.65 522.918 1194.39 523.398 1198.03C523.918 1201.97 524.898 1205.87 525.918 1209.73C526.938 1213.59 528.278 1217.37 529.418 1221.2C530.468 1224.73 531.288 1228.35 532.508 1231.82C533.818 1235.56 535.478 1239.17 537.018 1242.92C533.908 1250.36 528.058 1255.36 522.228 1260.29C521.458 1260.94 519.018 1260.65 518.108 1259.89C516.528 1258.57 515.128 1256.7 514.368 1254.78C512.448 1249.93 510.938 1244.93 509.248 1239.99C507.458 1234.79 505.648 1229.6 503.768 1224.18C499.408 1224.53 497.318 1227.55 495.168 1229.79C491.678 1233.43 487.638 1234.91 482.838 1234.97C477.018 1235.04 471.188 1235.28 465.368 1235.11C447.858 1234.6 437.278 1224.5 430.418 1209.43C429.908 1208.32 429.588 1207.12 429.218 1205.94C428.858 1204.79 428.558 1203.63 427.898 1201.3C425.198 1211.49 419.808 1218.94 414.358 1226.38C406.638 1236.91 396.368 1241.74 383.358 1240.86C381.218 1240.72 379.058 1240.78 376.908 1240.85C365.948 1241.22 355.548 1238.95 345.608 1234.39C344.508 1233.88 343.348 1233.49 342.058 1232.99C338.568 1234.66 336.348 1237.73 334.028 1240.43C326.758 1248.89 317.828 1249.56 308.008 1246.64C292.198 1241.94 281.508 1231.69 275.438 1216.42C274.128 1213.07 272.408 1209.87 270.488 1205.79ZM407.788 1216.11C409.168 1211.8 408.638 1207.36 407.228 1202.9C404.118 1193.06 397.508 1185.96 389.248 1180.29C385.418 1177.66 380.888 1176.39 376.258 1176.15C374.608 1176.06 372.378 1176.64 371.298 1177.76C365.778 1183.51 360.498 1189.49 355.258 1195.5C353.008 1198.07 352.998 1200.96 354.608 1204.03C356.558 1207.74 359.528 1210.24 363.138 1212.11C370.578 1215.98 378.488 1218.46 386.848 1218.78C393.778 1219.05 400.978 1220.49 407.788 1216.11Z" fill="#0DFF9D"/>
<path d="M641.262 1213.13C641.532 1212.21 641.522 1211.83 641.712 1211.64C647.352 1205.88 649.362 1198.56 650.742 1190.93C651.232 1188.22 652.162 1185.59 652.782 1182.9C656.112 1168.36 664.942 1157.74 676.472 1148.84C680.142 1146.01 684.152 1145.76 687.312 1150.63C688.972 1153.2 690.392 1155.94 691.852 1158.64C696.832 1167.84 702.072 1176.87 708.852 1184.88C710.422 1186.73 712.192 1188.41 714.062 1190.37C724.142 1188.95 732.822 1184.47 741.142 1179.27C742.812 1178.22 744.042 1176.14 744.942 1174.27C746.262 1171.54 747.102 1168.57 748.352 1165.15C747.152 1164.13 745.332 1163.22 744.632 1161.78C744.152 1160.79 744.932 1158.82 745.712 1157.68C747.072 1155.7 747.192 1154.07 746.292 1151.76C745.132 1148.8 746.412 1145.89 749.292 1145.24C757.882 1143.33 766.322 1139.83 775.462 1142.69C779.842 1144.06 784.392 1144.97 788.912 1145.78C799.442 1147.65 808.462 1152.79 817.222 1158.54C817.732 1158.88 818.192 1159.29 818.712 1159.62C827.352 1165.11 826.322 1173.96 821.902 1179.63C815.102 1188.37 807.172 1196.18 796.262 1199.96C791.632 1201.56 786.942 1203.02 782.332 1204.67C780.662 1205.26 779.122 1206.21 777.312 1207.1C779.332 1215.37 783.392 1222.16 788.262 1228.51C791.062 1232.17 794.172 1235.58 797.022 1239.2C799.222 1242 799.122 1243.96 796.832 1246.61C792.472 1251.64 786.742 1254.54 780.622 1256.76C778.362 1257.58 776.252 1256.84 774.782 1255.09C771.042 1250.64 766.992 1246.34 763.932 1241.44C759.882 1234.95 756.122 1228.2 754.022 1220.72C753.942 1220.42 753.792 1220.15 753.712 1219.85C752.192 1214.39 747.382 1210.52 747.652 1203.88C747.882 1198.26 745.452 1192.53 744.172 1186.85C744.112 1186.57 743.842 1186.34 743.662 1186.09C737.952 1187.07 730.702 1192.58 724.582 1200.73C728.262 1208.64 736.142 1212.98 741.732 1219.43C740.482 1224.87 735.862 1227.32 732.722 1230.9C731.942 1231.79 730.532 1232.11 729.702 1232.98C722.522 1240.46 721.022 1237.89 714.652 1232.17C709.172 1227.24 704.062 1221.9 698.832 1216.71C697.032 1214.92 695.152 1213.45 692.392 1213.85C683.302 1215.19 674.212 1216.52 664.462 1217.96C661.142 1228.05 657.792 1238.69 647.392 1244.35C644.472 1243.95 643.292 1241.98 643.242 1239.82C643.132 1235.56 643.202 1231.23 643.792 1227.02C644.892 1219.47 645.072 1219.5 641.262 1213.13ZM765.382 1166.86C765.852 1174.96 767.242 1182.13 770.122 1188.97C770.422 1189.68 771.472 1190.08 772.052 1190.54C788.822 1186.73 793.832 1185.03 799.722 1181.19C793.042 1173.35 778.642 1167.18 765.382 1166.86ZM670.582 1180.47C668.932 1185.77 666.642 1189.45 667.962 1194.16C671.772 1195.02 675.242 1195.5 679.382 1193.77C677.342 1188.97 675.482 1184.62 670.582 1180.47Z" fill="#0DFF9D"/>
<path d="M542.4 1166.01C540.42 1165.67 538.7 1165.38 536.32 1164.97C536.73 1163.42 536.92 1161.99 537.49 1160.73C538.11 1159.35 539.29 1158.21 539.87 1156.81C544.4 1146.01 553.58 1143.07 563.88 1143.82C579.21 1144.93 594.35 1147.73 608.42 1154.31C613.35 1156.62 618.13 1159.64 622.28 1163.17C630.81 1170.42 631.8 1181.23 625.07 1190.34C619.56 1197.81 612.82 1204.02 604.58 1208.48C603.28 1209.18 602.06 1210.05 599.91 1211.4C601.65 1212.31 602.51 1213.07 603.46 1213.21C609.2 1214.04 614.96 1214.73 620.63 1215.45C622.01 1219.19 619.92 1221.41 617.95 1222.96C613.17 1226.71 608.23 1230.38 602.93 1233.3C600.46 1234.66 597.01 1234.4 593.98 1234.54C590.03 1234.73 586.06 1234.59 581.44 1234.59C581.81 1236.32 581.86 1237.82 582.45 1239.06C583.9 1242.09 585.6 1245 587.1 1247.78C584.47 1254.37 584.47 1254.37 569.38 1265.27C567.94 1264.13 565.94 1263.16 564.82 1261.57C560.02 1254.79 555.85 1247.64 553.22 1239.7C550.59 1231.76 550.56 1231.76 544.71 1226.9C544.93 1225.94 544.9 1224.6 545.5 1223.69C547.38 1220.87 547.36 1218 546.53 1214.89C545.18 1209.85 543.98 1204.78 542.72 1199.72C539.96 1188.58 538.95 1177.42 542.4 1166.01ZM563.56 1167.72C562.61 1179.78 566.35 1196.72 571.45 1204.42C582.16 1202.37 592.68 1199.02 603.16 1195.57C604.8 1195.03 606.18 1193.68 607.84 1192.59C607.5 1191.11 607.42 1189.88 606.94 1188.82C604.83 1184.14 601.06 1180.99 596.84 1178.36C588.94 1173.44 580.21 1170.46 571.27 1168.17C568.99 1167.6 566.48 1167.87 563.56 1167.72Z" fill="#0DFF9D"/>
<path d="M856.998 1148.91C855.868 1157.2 854.468 1164.72 853.918 1172.31C853.368 1179.98 854.568 1187.59 856.568 1195.56C864.778 1198.11 873.188 1198.43 881.478 1198.71C883.428 1194.89 881.468 1192.01 880.318 1189.44C876.568 1181.04 876.258 1172.16 875.698 1163.26C875.418 1158.74 876.478 1154.81 879.848 1151.53C883.798 1147.68 887.488 1143.56 891.408 1139.66C892.188 1138.88 893.448 1138.57 894.628 1137.98C897.538 1140.44 897.478 1143.54 897.758 1146.54C898.188 1151.12 898.428 1155.74 899.188 1160.26C901.438 1173.71 906.938 1186.14 911.798 1198.74C916.768 1211.63 922.428 1224.26 927.758 1237.02C928.338 1238.42 928.718 1239.9 929.238 1241.48C925.218 1248.41 919.078 1251.92 911.088 1253.54C906.778 1252.1 903.768 1248.75 901.788 1244.42C899.228 1238.84 896.848 1233.17 894.358 1227.55C893.378 1225.34 892.318 1223.16 891.118 1220.58C886.678 1220.91 882.458 1221.55 878.248 1221.43C874.068 1221.31 869.908 1220.33 865.238 1221.45C866.458 1227.54 870.208 1231.35 872.848 1235.81C871.698 1239.38 868.998 1241.42 865.928 1242.8C861.798 1244.66 857.528 1246.25 853.228 1247.67C851.058 1248.39 848.838 1247.76 847.498 1245.75C845.628 1242.94 843.728 1240.11 842.298 1237.07C840.598 1233.47 839.348 1229.65 837.958 1225.91C836.668 1222.47 835.638 1218.89 832.918 1217.51C832.698 1211.49 832.868 1206.3 832.248 1201.22C831.418 1194.42 831.538 1187.75 832.688 1181.02C833.388 1176.96 834.858 1173.31 837.228 1170.05C841.208 1164.6 845.308 1159.23 849.458 1153.91C850.768 1152.23 852.388 1150.78 853.958 1149.34C854.288 1149.02 855.068 1149.16 856.998 1148.91Z" fill="#0DFF9D"/>
<path d="M210.311 1230.84C204.101 1229.66 201.481 1235.44 196.181 1236.68C195.171 1235.79 193.491 1234.86 192.631 1233.44C189.601 1228.45 186.751 1223.34 184.021 1218.18C180.281 1211.12 176.651 1204 173.051 1196.87C169.571 1189.97 166.711 1182.87 166.301 1174.99C166.211 1173.21 165.481 1171.46 164.961 1169.32C169.921 1164.6 175.041 1159.87 179.981 1154.96C183.441 1151.52 187.301 1150.85 191.791 1152.36C194.121 1153.14 196.561 1153.59 198.871 1154.41C212.841 1159.36 226.021 1165.97 238.431 1174.03C246.551 1179.3 252.731 1186.67 258.041 1194.57C262.821 1201.69 261.871 1209.49 257.151 1216.27C248.831 1228.24 238.481 1237.55 222.971 1238.84C219.911 1239.09 216.871 1239.66 213.801 1239.78C210.491 1239.91 209.181 1238.11 209.571 1234.35C209.691 1233.26 210.031 1232.16 210.311 1230.84ZM197.811 1183.53C201.791 1194.33 206.491 1203.21 210.831 1212.25C212.001 1214.69 213.071 1217.33 215.981 1218.7C223.621 1218.56 231.481 1218.76 238.811 1215.2C234.301 1203.51 214.731 1188.11 197.811 1183.53Z" fill="#0DFF9D"/>
<path d="M999.638 1251.41C993.958 1256.44 987.108 1257.53 980.818 1259.72C979.078 1260.33 976.738 1259.21 974.898 1258.92C971.648 1253.71 970.238 1248.52 969.948 1242.84C969.398 1232.41 968.508 1222 967.698 1210.83C965.938 1209.55 963.768 1207.89 961.518 1206.36C948.708 1197.67 937.318 1187.42 927.878 1175.13C925.278 1171.75 923.288 1167.89 921.178 1164.15C919.468 1161.12 919.948 1158.05 922.288 1155.63C927.368 1150.34 931.768 1144.31 938.068 1140.62C941.398 1140.68 942.438 1142.89 943.378 1145.23C949.848 1161.43 963.008 1171.58 976.268 1181.64C976.658 1181.94 977.408 1181.78 978.128 1181.84C978.458 1181.47 979.068 1181.1 979.218 1180.59C981.368 1173.54 983.488 1166.47 985.558 1159.4C987.878 1151.46 988.688 1143.09 992.248 1135.48C996.298 1126.8 1003.2 1121.15 1011.45 1116.53C1013.65 1119.18 1013.04 1121.63 1012.48 1123.89C1007.14 1145.32 1001.72 1166.74 996.318 1188.15C990.948 1196.91 992.568 1206.62 992.818 1216.05C992.998 1222.77 993.598 1229.55 994.798 1236.16C995.698 1241.17 997.848 1245.95 999.638 1251.41Z" fill="#0DFF9D"/>
<path d="M74.8405 1212.44C76.4305 1205.53 77.8805 1200.53 78.6805 1195.43C80.4505 1184.21 82.4205 1172.97 81.4605 1161.51C81.3305 1160.01 81.1505 1158.18 81.8405 1157C85.8305 1150.16 89.4105 1142.87 97.1305 1139.23C97.6205 1139 98.3205 1139.2 98.8705 1139.2C101.78 1141.43 101.82 1144.65 101.64 1147.65C101.17 1155.61 100.81 1163.62 99.6005 1171.49C97.2205 1186.97 94.2105 1202.35 91.6505 1217.81C90.8205 1222.81 89.2605 1227.25 85.6205 1230.9C81.7205 1234.81 78.0105 1238.91 74.1505 1242.85C72.1105 1244.93 69.7205 1244.6 67.3405 1243.44C61.7205 1240.71 57.0405 1236.69 52.9805 1232.06C48.9305 1227.45 45.2405 1222.53 41.5105 1217.65C32.7205 1206.15 24.8805 1194.06 18.4305 1181.07C16.4305 1177.04 16.1405 1173.62 19.2405 1170.1C23.0905 1165.73 26.6105 1161.06 30.6105 1156.83C32.9505 1154.35 35.5505 1155.08 37.3405 1158.19C37.9505 1159.25 38.3905 1160.41 38.8905 1161.53C46.2605 1177.96 56.9805 1192.19 68.3305 1205.98C69.8105 1207.82 71.6905 1209.35 74.8405 1212.44Z" fill="#0DFF9D"/>
<path d="M137.79 1238.94C134.08 1236.7 133.52 1233.84 132.66 1231.31C128.52 1219.12 124.22 1206.97 120.63 1194.62C119.12 1189.41 119.04 1183.75 118.66 1178.27C118.33 1173.51 119.76 1169.15 123.13 1165.61C126.29 1162.29 129.38 1158.88 132.77 1155.81C133.96 1154.74 135.97 1154.58 138.07 1153.85C138.53 1156.21 139.09 1157.94 139.18 1159.7C139.68 1169.92 142.34 1179.64 145.49 1189.3C148.44 1198.33 150.91 1207.52 153.9 1216.54C155.69 1221.93 154.21 1226.29 150.4 1229.87C146.62 1233.4 142.46 1236.53 137.79 1238.94Z" fill="#0DFF9D"/>
<path d="M129.039 1041.87C130.469 1044.64 129.359 1046.65 127.579 1047.85C123.809 1050.39 120.839 1054.24 116.059 1055.22C115.769 1055.28 115.459 1055.42 115.229 1055.6C106.649 1062.21 96.5394 1062.45 86.3294 1063.11C71.8594 1064.05 57.4394 1064.28 43.0394 1062.56C38.7794 1062.05 34.5594 1061.19 30.3694 1060.27C28.5994 1059.88 26.7994 1059.16 25.2694 1058.18C15.5494 1051.96 15.2294 1047.56 20.7894 1039.35C27.0994 1030.04 35.0294 1022.46 45.2894 1017.53C47.1394 1016.64 48.9094 1015.58 50.9294 1014.48C49.0294 1011.83 46.6494 1012.8 44.7194 1012.38C42.6194 1011.92 40.4694 1011.63 38.3294 1011.53C27.6794 1011.03 27.6994 1006.19 31.9094 999C35.8894 992.19 41.9594 987.36 49.3894 984.66C56.3194 982.15 63.3794 979.96 70.4794 978C82.0194 974.81 93.6394 971.91 105.239 968.94C107.309 968.41 109.469 967.84 111.559 967.9C112.849 967.94 114.619 968.86 115.239 969.93C115.869 971.01 115.719 972.91 115.229 974.18C114.699 975.53 113.429 976.63 112.369 977.74C108.529 981.76 104.029 984.92 99.3594 987.9C96.3494 989.82 93.0494 990.04 89.6594 990.31C82.6194 990.88 75.5994 991.62 68.5794 992.34C66.4694 992.56 64.5394 993.28 61.7994 995.29C73.8494 995.78 84.5094 997.59 95.2794 995.93C97.0694 995.65 99.1294 995.5 100.749 996.12C102.269 996.71 103.839 998.19 104.479 999.67C104.929 1000.69 104.229 1002.74 103.359 1003.7C100.659 1006.63 97.8694 1009.58 94.6794 1011.93C89.5094 1015.74 84.1694 1019.01 77.5594 1020.5C67.4094 1022.8 57.5194 1026.3 47.5494 1029.35C44.6394 1030.24 41.6094 1031 39.2294 1034.2C40.8794 1035.46 42.3194 1037.3 44.1294 1037.81C49.7294 1039.37 55.4194 1041.03 61.1694 1041.56C78.9694 1043.21 96.8094 1042.51 114.639 1041.71C119.499 1041.51 124.399 1040.87 129.039 1041.87Z" fill="#0DFF9D"/>
<path d="M128.889 1093.37C128.639 1097.44 126.589 1100.09 122.849 1101.72C118.379 1103.67 113.999 1105.85 109.599 1107.95C107.209 1109.09 104.939 1108.81 102.539 1107.79C96.0791 1105.06 90.9891 1101 88.2491 1094.31C86.9691 1091.18 87.0791 1088.28 89.1491 1085.65C93.3291 1080.35 97.7591 1075.26 103.459 1071.49C105.639 1070.05 107.879 1070.48 108.689 1072.95C110.959 1079.86 116.069 1084 121.909 1087.63C124.439 1089.22 127.489 1090.3 128.889 1093.37Z" fill="#0DFF9D"/>
<path d="M66.819 959.05C65.499 964.73 61.659 966.87 58.009 969.03C55.669 970.42 52.889 971.07 50.519 972.41C46.679 974.57 43.289 973.41 40.329 971.05C37.979 969.17 35.899 966.79 34.209 964.29C30.899 959.38 31.079 956.39 35.139 952C39.279 947.52 43.699 943.29 48.179 939.15C49.919 937.54 52.639 938.24 53.439 940.56C55.429 946.25 59.389 950.46 63.319 954.74C64.549 956.08 65.619 957.55 66.819 959.05Z" fill="#0DFF9D"/>
</g>
<defs>
<clipPath id="clip0_562_62">
<rect width="1014" height="1266" fill="white"/>
</clipPath>
</defs>
</svg>
