<svg width="153" height="148" viewBox="0 0 153 148" fill="none" xmlns="http://www.w3.org/2000/svg">
<path d="M13.65 23.2508V14.3808H6.82001V23.2508H0V0.550781H6.82999V8.92081H13.66V0.550781H20.49V23.2508H13.65Z" fill="#0D5BFF"/>
<path d="M58.0294 23.2508L57.0294 19.6708H49.8795L48.8795 23.2508H42.1895L49.5194 0.550781H57.9195L65.2495 23.2508H58.0294ZM53.4594 6.9808L51.3895 14.3808H55.5395L53.4594 6.9808Z" fill="#0D5BFF"/>
<path d="M100.541 23.2508L93.3509 10.3808V23.2508H86.8809V0.550781H93.8909L100.721 12.6708V0.550781H107.191V23.2508H100.541Z" fill="#0D5BFF"/>
<path d="M148.401 20.6808C146.251 22.4708 143.391 23.2508 139.641 23.2508H131.131V0.550781H139.641C143.401 0.550781 146.261 1.34079 148.401 3.12079C150.541 4.91079 152.151 7.7708 152.151 11.8808C152.161 16.0608 150.551 18.8908 148.401 20.6808ZM143.651 7.20081C142.761 6.31081 141.431 5.84079 139.471 5.84079H137.971V17.7808H139.471C141.441 17.7808 142.761 17.3108 143.651 16.4208C144.541 15.5308 145.191 14.1308 145.191 11.8108C145.191 9.49079 144.541 8.09081 143.651 7.20081Z" fill="#0D5BFF"/>
<path d="M6.83002 49.5009V53.5009H14.88V58.9009H6.83002V66.9109H0V44.2109H15.55V49.5009H6.83002Z" fill="#0D5BFF"/>
<path d="M53.7306 67.2715C46.5806 67.2715 42.1406 62.8016 42.1406 55.5416C42.1406 48.2816 46.5706 43.8516 53.7306 43.8516C60.8806 43.8516 65.3106 48.2816 65.3106 55.5416C65.3106 62.8116 60.8706 67.2715 53.7306 67.2715ZM53.7306 49.4315C50.5106 49.4315 49.1206 52.0816 49.1206 55.4716C49.1206 58.8716 50.5106 61.5515 53.7306 61.5515C56.9506 61.5515 58.3406 58.8716 58.3406 55.4716C58.3406 52.0816 56.9406 49.4315 53.7306 49.4315Z" fill="#0D5BFF"/>
<path d="M100.61 66.9207L96.5305 59.0907H94.8105V66.9207H87.9805V44.2207H97.7404C100.24 44.2207 102.53 44.5407 104.1 45.6507C105.67 46.7607 106.93 48.6907 106.93 51.3707C106.93 54.0507 106.04 56.4507 103 57.8807L108.29 66.9307H100.61V66.9207ZM97.4005 49.3207H94.8304V54.1107H97.4005C98.9705 54.1107 100.12 53.2907 100.12 51.7107C100.12 50.1307 98.9705 49.3207 97.4005 49.3207Z" fill="#0D5BFF"/>
<path d="M148.401 64.3409C146.251 66.1309 143.391 66.9109 139.641 66.9109H131.131V44.2109H139.641C143.401 44.2109 146.261 45.0009 148.401 46.7809C150.541 48.5709 152.151 51.431 152.151 55.541C152.161 59.731 150.551 62.5509 148.401 64.3409ZM143.651 50.8609C142.761 49.9709 141.431 49.5009 139.471 49.5009H137.971V61.4409H139.471C141.441 61.4409 142.761 60.9709 143.651 60.0809C144.541 59.1909 145.191 57.7909 145.191 55.4709C145.181 53.1509 144.541 51.7609 143.651 50.8609Z" fill="#0D5BFF"/>
<path d="M16.9399 92.3708C16.9399 92.3708 15.5199 89.1908 11.4299 89.1908C7.3399 89.1908 4.5499 92.5808 4.5499 97.4308C4.5499 102.281 7.18991 105.671 11.3099 105.671C15.4299 105.671 17.1599 102.371 17.1599 102.371L18.4299 103.431C18.4299 103.431 16.4599 107.341 11.3099 107.341C6.15991 107.341 2.66992 103.491 2.66992 97.4308C2.66992 91.3708 6.6099 87.5508 11.4599 87.5508C16.3099 87.5508 18.1499 91.0008 18.3099 91.3108L16.9399 92.3708Z" fill="#0D5BFF"/>
<path d="M58.9009 107.06L53.3609 98.7303H50.0309V107.06H48.2109V87.8203H53.821C57.451 87.8203 59.9709 90.0903 59.9709 93.2703C59.9709 96.4503 57.4609 98.1803 55.4009 98.5703L61.0909 107.05H58.9009V107.06ZM56.5309 90.1003C55.6209 89.4903 54.711 89.3403 53.201 89.3403H50.0209V97.2203H53.201C54.711 97.2203 55.6209 97.0703 56.5309 96.4603C57.4409 95.8503 58.141 94.6403 58.141 93.2803C58.141 91.9103 57.4409 90.7003 56.5309 90.1003Z" fill="#0D5BFF"/>
<path d="M92.0391 107.06V87.8203H103.099V89.3103H93.859V96.0003H102.499V97.5203H93.859V105.52H103.399V107.07H92.0391V107.06Z" fill="#0D5BFF"/>
<path d="M147.43 107.06L145.46 101.67H136.52L134.55 107.06H132.73L140.06 87.8203H142.03L149.39 107.06H147.43ZM141 89.4903L137.06 100.16H144.91L141 89.4903Z" fill="#0D5BFF"/>
<path d="M11.1593 129.51V147.23H9.33929V129.51H3.2793V128H17.2193V129.51H11.1593Z" fill="#0D5BFF"/>
<path d="M52.8203 147.23V128H54.6403V147.24H52.8203V147.23Z" fill="#0D5BFF"/>
<path d="M97.9499 147.23H96.1299L89.1699 128H91.1399L97.1099 145.27L103.11 128H104.93L97.9499 147.23Z" fill="#0D5BFF"/>
<path d="M136.061 147.23V128H147.121V129.48H137.881V136.18H146.521V137.7H137.881V145.7H147.421V147.25H136.061V147.23Z" fill="#0D5BFF"/>
</svg>
