<svg width="1052" height="1116" viewBox="0 0 1052 1116" fill="none" xmlns="http://www.w3.org/2000/svg">
<path d="M378.53 188.219C380.42 196.139 383.46 203.799 387.24 211.019C391.04 218.289 395.86 225.019 400.33 232.139C398.73 237.429 395.26 241.129 390.01 243.359C388.25 244.109 386.68 245.329 385.1 246.449C383.24 247.759 381.38 247.709 379.75 246.309C377.75 244.579 375.62 242.849 374.14 240.699C368.62 232.699 364.24 224.129 360.87 214.939C358.03 207.209 355.82 199.339 353.89 191.079C352.05 190.939 350.41 190.659 348.77 190.719C339.55 191.019 330.34 191.109 321.15 189.979C318.39 189.639 315.44 189.239 312.37 191.199C313.84 193.459 315.04 195.499 316.42 197.409C318.52 200.339 320.74 203.199 322.91 206.079C327.68 205.679 331.89 204.739 336.07 203.519C340.1 202.349 344.06 200.469 348.88 201.319C346.25 209.129 338.75 211.969 334.43 217.509C334.85 221.869 339.9 223.209 340.44 227.669C337.79 236.209 330.27 240.449 323.23 245.839C321.66 244.629 320.05 243.639 318.73 242.339C314.77 238.409 310.91 234.379 307.05 230.349C305.83 229.079 304.53 227.959 302.68 228.139C293.3 229.049 283.92 230.019 274.46 230.979C274.05 232.159 273.63 233.029 273.46 233.949C272.46 239.429 269.81 243.849 265.39 247.299C263.49 248.779 261.97 250.719 260.16 252.329C259.32 253.079 258.22 253.529 256.79 254.379C254.32 249.639 256.24 244.959 255.52 240.639C254.1 239.749 253.23 240.729 252.37 241.499C249.3 244.239 246.19 246.939 243.24 249.799C240.37 252.589 237.05 253.399 233.21 252.739C229.34 252.079 225.66 250.879 222.32 248.809C214.05 243.669 207.67 236.899 204.28 227.599C203.12 224.409 201.8 221.269 200.92 217.999C200.43 216.189 200.81 214.159 200.61 212.249C199.75 203.669 200.33 195.319 204.51 187.729C202.63 185.619 200.6 186.879 198.77 186.679C196.89 186.479 195.77 184.799 196.41 183.049C196.66 182.369 196.88 181.619 197.32 181.079C200.84 176.769 204.39 172.469 207.97 168.209C211.03 164.569 215.25 163.189 219.71 163.419C230.12 163.949 240.51 164.909 250.9 165.699C251.14 165.719 251.38 165.769 251.62 165.819C256.39 166.799 257.64 169.689 254.84 173.579C253.87 174.929 252.5 176.009 251.29 177.179C249.73 178.689 247.81 179.939 246.65 181.699C244.53 184.939 241.64 186.109 238.02 185.989C234.63 185.879 231.23 185.599 227.84 185.539C225.46 185.499 222.99 185.019 220.38 186.569C219.13 189.649 219.42 192.799 221.36 196.169C234.37 197.929 247.25 195.669 260.58 193.909C260.34 197.809 259.36 200.579 256.78 202.729C253.06 205.839 249.38 208.999 245.71 212.169C243.63 213.959 241.27 215.029 238.58 215.569C235.77 216.139 232.99 216.909 230.2 217.589C231.19 221.529 233.65 224.479 239 227.499C242.23 229.329 245.5 231.709 249.4 230.509C250.22 228.779 249.19 228.329 248.52 227.739C246.74 226.179 246.61 224.259 247.9 222.539C250.95 218.469 253.93 214.279 257.49 210.679C260.5 207.639 262.55 204.619 263.38 200.239C266.06 186.079 273.92 174.949 284.65 165.579C287.53 163.059 290.15 163.269 292.19 165.659C294.7 168.599 297.22 171.569 299.35 174.779C302.56 179.619 305.81 184.379 310.1 188.599C313.84 182.709 317.8 177.609 322.34 172.919C326.44 168.689 331.01 167.149 336.8 168.299C344.68 169.869 352.68 170.089 360.71 170.089C375.85 170.089 390.68 167.719 405.37 164.399C410.59 163.219 415.52 161.169 420.14 158.369C422.48 156.959 424.52 158.189 424.67 160.889C424.75 162.339 424.83 163.839 424.55 165.249C422.37 176.489 425.39 187.019 429.51 197.159C433.24 206.329 436.53 215.789 442.13 224.119C442.51 224.689 442.54 225.489 442.71 226.089C441.78 229.679 439.49 232.189 436.64 234.089C433.43 236.229 429.91 237.849 427.27 240.849C425.99 242.299 423.42 241.939 422 240.459C421 239.419 420.07 238.249 419.41 236.979C415.82 230.109 411.73 223.409 408.93 216.219C405.15 206.529 401.8 196.579 402.51 185.849C402.56 185.139 402.44 184.389 402.29 183.689C402.19 183.239 401.88 182.839 401.66 182.409C396.85 182.319 383.3 185.649 378.53 188.219ZM289.39 208.589C286.39 203.819 284.21 199.689 279.83 197.039C277.92 200.879 277 204.379 278.49 208.329C281.92 209.079 285.12 209.529 289.39 208.589Z" fill="#0DFF9A"/>
<path d="M162.139 216.349C167.029 218.019 170.889 217.959 174.719 218.309C179.289 218.729 183.869 219.24 188.369 220.09C191.589 220.69 192.179 222.529 190.589 225.439C189.779 226.919 189.029 228.459 188.019 229.799C183.679 235.569 178.879 240.369 170.699 239.759C166.889 239.469 163.009 240.13 158.519 240.39C159.169 241.51 159.549 242.289 160.049 242.989C160.599 243.769 161.239 244.49 161.829 245.21C162.059 249.93 159.179 252.989 156.399 255.969C153.929 258.619 151.169 261.01 148.489 263.46C146.629 265.17 145.199 265.479 143.339 263.929C140.759 261.779 138.039 259.539 136.219 256.789C133.429 252.579 131.009 248.039 129.049 243.379C127.339 239.309 125.729 235.359 121.769 232.749C122.029 231.419 122.019 230.15 122.529 229.14C123.839 226.54 123.469 223.859 122.879 221.299C121.009 213.219 120.169 205.05 120.169 196.77C120.169 195.36 119.799 193.959 119.629 192.759C115.979 190.629 113.439 193.739 110.699 194.129C108.679 193.189 108.649 191.629 109.419 190.359C113.979 182.919 118.539 175.469 126.429 170.879C128.059 169.929 129.399 168.45 130.809 167.14C132.059 165.99 133.169 164.689 134.419 163.559C138.579 159.789 139.329 160.04 141.549 166.15C142.829 166.08 144.239 166.119 145.629 165.919C154.089 164.689 162.559 165.05 171.029 165.58C172.679 165.68 174.439 166.04 175.889 166.78C177.879 167.79 179.919 168.209 182.059 168.679C192.109 170.889 196.369 180.189 191.739 189.439C191.309 190.299 190.849 191.169 190.259 191.939C183.469 200.859 176.229 209.289 165.719 214.099C164.899 214.499 164.139 215.089 162.139 216.349ZM171.859 194.33C171.089 191.59 168.939 190.839 166.979 190.039C159.709 187.079 152.039 186.439 144.289 186.539C143.579 186.549 142.709 186.589 142.209 186.999C141.359 187.689 140.049 188.77 140.139 189.53C140.839 195.44 140.799 201.499 143.129 207.539C151.739 204.559 159.609 200.4 167.789 197.02C169.289 196.39 170.549 195.21 171.859 194.33Z" fill="#0DFF9A"/>
<path d="M565.969 209.75C568.019 211.27 568.839 212.03 569.789 212.56C582.739 219.72 596.779 223.16 611.389 224.59C613.029 224.75 614.749 224.36 616.409 224.11C618.279 223.82 620.129 223.39 621.739 223.08C623.179 224.26 623.119 225.34 622.679 226.59C621.299 230.52 618.009 232.74 614.899 234.99C611.189 237.68 607.209 240 603.349 242.48C601.049 243.96 598.659 244.51 595.819 244.49C588.219 244.42 580.869 242.93 573.619 241C564.229 238.5 555.089 235.27 546.679 230.24C540.579 226.59 535.409 221.94 530.919 216.4C520.869 203.97 520.619 186.9 531.289 173.45C536.089 167.4 541.789 162.07 547.109 156.44C547.589 155.94 548.269 155.63 549.299 154.93C550.029 156.19 550.689 157.31 551.559 158.79C569.309 156.77 587.259 154.74 606.449 156.92C602.529 162.24 598.479 165.43 593.799 167.88C592.089 168.77 590.169 169.34 588.639 170.46C583.769 174.01 578.199 175.41 572.399 175.99C565.649 176.67 558.859 177.02 552.089 177.59C550.409 177.73 548.739 178.05 547.099 178.46C546.209 178.68 545.399 179.27 544.659 179.64C544.539 184.27 544.539 184.27 546.449 188.71C562.189 188.62 577.899 188.58 593.599 188.4C597.219 188.36 600.839 187.77 604.459 187.5C605.339 187.43 606.239 187.64 607.739 187.78C605.519 193.62 600.569 196.17 596.519 199.22C592.319 202.39 587.339 204.53 582.669 207.05C577.919 209.61 572.399 208.49 565.969 209.75Z" fill="#0DFF9A"/>
<path d="M84.3389 219.76C83.9989 218.94 83.4389 217.88 83.1389 216.75C82.8989 215.83 82.9089 214.82 82.9489 213.86C83.1289 208.95 82.9489 204.19 79.6689 200.05C76.1089 195.55 71.6989 192.12 66.3889 190.21C55.4189 186.28 45.0089 188.47 35.0789 193.48C33.3189 200.22 34.5489 205.859 38.3589 211.099C44.4689 219.499 52.3889 225.04 62.6489 227.12C71.7989 228.97 80.9389 229.05 90.0989 227.26C91.4789 226.99 92.8989 226.91 94.3089 226.74C94.8389 232.46 94.8589 232.59 92.0789 235.25C88.2189 238.94 84.3389 242.6 80.3589 246.15C79.1289 247.24 77.6389 248.379 76.0989 248.729C63.2989 251.549 50.4989 252.12 38.3489 246.32C29.8389 242.26 23.0189 235.9 19.0189 227.27C14.3189 217.13 15.2089 206.86 20.7389 197.25C23.7489 192.02 27.3689 187.1 31.0889 182.34C35.0289 177.31 40.1889 173.689 46.0689 171.099C53.9189 167.629 61.9489 165.27 70.6789 165.59C75.1489 165.75 79.2989 166.63 83.2289 168.75C89.9389 172.36 96.5389 176.36 99.4589 183.74C102.869 192.35 103.879 201.14 97.1889 209.03C94.5289 212.17 91.8889 215.33 89.1989 218.44C88.0389 219.77 86.6289 220.63 84.3389 219.76Z" fill="#0DFF9A"/>
<path d="M495.989 205.74C496.319 203.3 496.769 201.91 496.659 200.56C495.769 189.69 494.759 178.83 493.809 167.97C493.559 165.07 493.409 162.171 493.189 159.271C492.889 155.431 494.409 152.17 496.499 149.12C497.999 146.93 499.739 144.91 501.189 142.68C503.519 139.09 506.519 136.48 511.219 135.23C511.599 136.27 512.209 137.27 512.299 138.32C513.329 150.4 513.829 162.54 515.369 174.55C517.379 190.22 517.579 205.97 518.769 221.68C518.949 224.01 518.229 225.89 516.749 227.68C512.869 232.37 508.399 236.42 503.609 240.13C501.499 241.76 499.159 242.111 496.839 240.641C491.919 237.541 486.809 234.68 482.239 231.13C475.159 225.63 468.599 219.51 462.859 212.56C461.469 210.88 459.989 209.26 458.429 207.74C452.959 202.45 448.879 196.19 445.359 189.51C444.119 187.16 442.639 184.931 441.379 182.581C440.399 180.751 440.359 178.86 441.589 177.07C445.719 171.03 450.759 165.83 456.369 161.18C457.489 160.25 459.419 160.52 460.299 161.72C461.439 163.28 462.579 164.89 463.379 166.63C468.649 178.06 477.029 187.18 485.379 196.3C488.269 199.49 491.089 202.84 495.989 205.74Z" fill="#0DFF9A"/>
<path d="M92.4896 331.709C92.6696 330.749 92.5696 329.669 93.0496 328.979C96.2296 324.399 99.3596 319.779 102.83 315.439C105.76 311.769 109.76 310.679 114.54 311.129C121.99 311.829 129.53 312.629 136.96 312.209C144.9 311.769 152.77 310.049 160.64 308.679C162.2 308.409 163.65 307.309 165.05 306.429C166.69 305.389 168.21 304.169 169.77 303.029C173.23 300.509 177.05 299.179 181.36 299.569C190.77 300.419 200.23 300.999 209.58 302.299C215.33 303.099 220.74 305.469 225.81 308.449C229.97 310.899 234.16 313.289 238.15 315.609C255.58 306.449 273.6 305.359 292.09 309.549C297.02 310.669 301.71 312.799 306.5 314.519C307.4 314.839 308.24 315.369 309.08 315.849C317.4 320.619 317.34 328.579 313.72 335.319C312.25 338.059 310.24 340.609 308.1 342.889C302.45 348.889 296.77 354.889 289.31 358.789C288.94 358.979 288.74 359.509 288.44 359.899C288.5 361.329 289.72 361.159 290.54 361.219C294.88 361.539 299.24 361.769 303.59 361.999C306.74 362.169 309.9 362.149 313.03 362.459C315.42 362.699 317.86 363.119 319.58 365.699C317.17 371.609 312.86 376.089 307.71 379.709C306.09 380.849 303.58 380.889 301.44 381.109C295.65 381.699 289.84 382.109 284.04 382.619C282.86 382.719 281.69 382.949 280.24 383.159C278.75 392.909 270.64 397.149 264.23 403.269C262.9 402.199 261.63 401.469 260.76 400.419C257.35 396.299 254.19 391.989 252.39 386.869C251.5 384.329 249.99 382.739 247.15 382.629C246.2 382.589 245.23 382.349 244.33 382.019C241.44 380.959 240.84 379.009 242.57 376.319C243.09 375.509 243.75 374.779 244.36 374.029C245.87 372.169 246.08 370.089 245.39 367.859C244.32 364.379 243.32 360.879 242.16 357.439C239.88 350.719 238.49 343.879 239.05 336.729C239.1 336.049 238.74 335.339 238.56 334.619C236.3 334.259 235.92 336.449 234.68 337.389C233.33 338.399 232.08 339.599 230.99 340.879C225.62 347.189 218.89 350.049 210.56 350.269C203.83 350.449 197.14 351.719 190.13 352.539C189.87 357.149 191.55 360.909 193.08 364.619C194.46 367.979 196.14 371.229 197.9 374.399C199.94 378.059 199.62 381.319 196.82 384.359C193.56 387.909 190.32 391.479 186.98 394.939C185.18 396.799 183.08 396.639 181.4 394.459C180.08 392.739 178.89 390.869 177.95 388.919C172.41 377.509 168.5 365.599 166.56 353.019C165.23 344.429 163.51 335.889 161.96 327.289C161.83 327.169 161.68 326.979 161.49 326.869C161.28 326.749 161 326.599 160.81 326.659C147.25 330.379 133.31 332.009 119.55 333.849C119.21 335.609 120.09 335.789 121.1 335.759C130.79 335.449 140.5 335.639 150.05 333.369C152.02 332.899 154.3 331.989 156.51 333.619C156.83 337.459 154.96 340.499 152.44 343.179C149.46 346.359 146.48 349.579 143.16 352.389C141.6 353.709 139.3 354.279 137.24 354.879C134.94 355.539 132.39 355.379 130.14 357.449C131 358.249 131.71 359.249 132.67 359.729C135.92 361.339 139.25 362.779 142.56 364.259C145.79 365.689 148.58 365.529 150.91 362.399C151.88 361.099 153.36 360.109 154.74 359.189C156.7 357.889 158.67 355.929 161.26 357.879C164.46 360.279 167.17 363.059 166.51 367.519C165.84 372.069 162.79 375.299 159.96 378.599C158.54 380.249 156.76 381.639 155.57 383.429C152.71 387.739 148.61 389.139 143.73 389.269C133.47 389.529 124.08 386.729 115.42 381.339C111.27 378.759 107.62 375.619 104.53 371.789C102.38 369.129 101.03 369.219 98.7296 371.489C95.8196 374.359 92.8696 377.209 89.7996 379.909C88.9596 380.639 87.6296 381.129 86.5096 381.159C83.3896 381.249 80.2196 381.279 77.1296 380.909C70.9096 380.159 64.7996 378.509 58.3596 378.399C57.6996 381.589 57.3096 384.659 56.3696 387.549C55.7196 389.549 54.5996 391.559 53.1896 393.119C50.4596 396.159 47.4096 398.919 44.4196 401.719C43.9496 402.159 43.1096 402.209 42.0896 402.559C41.4796 401.579 40.6296 400.679 40.2996 399.629C38.4896 393.849 36.8196 388.029 35.0796 382.239C34.6596 380.849 34.1596 379.479 33.6796 378.109C32.9996 376.179 31.7996 374.869 29.7796 374.129C28.0296 373.479 26.4496 372.369 24.4696 371.269C24.9896 369.569 25.2796 368.189 25.8196 366.919C26.3896 365.589 27.1896 364.359 27.9696 362.949C27.6096 358.129 25.5296 353.709 24.0596 349.119C22.6596 344.739 20.9396 340.449 19.6596 336.029C18.6696 332.579 18.1396 328.989 17.2996 324.969C12.2596 323.299 7.20956 326.189 2.14956 326.169C0.79956 325.289 0.689559 324.129 1.12956 322.919C2.04956 320.429 2.91956 317.899 4.06956 315.499C6.80956 309.769 10.9296 305.259 17.3696 304.079C34.6396 300.909 52.0096 299.719 69.4196 303.119C74.4496 304.099 79.2896 305.679 83.6596 308.429C85.2996 309.459 86.8296 310.669 88.3196 311.909C90.8096 313.959 91.8096 316.659 90.7796 319.719C89.7796 322.679 88.7396 325.749 87.0296 328.309C81.1996 337.069 74.3996 344.929 64.8396 349.879C63.9796 350.319 63.1796 350.869 62.3696 351.399C62.1796 351.519 62.0696 351.779 61.9296 351.969C62.0596 352.389 62.1196 353.119 62.3396 353.169C72.4996 355.469 82.6596 357.749 92.8396 359.929C94.4296 360.269 96.1196 360.159 98.1096 360.269C98.4696 355.439 98.3096 350.829 99.2696 346.469C100.19 342.299 102.26 338.379 103.9 334.159C100.42 331.609 96.0296 334.209 92.4896 331.709ZM260.04 328.079C260.2 330.709 260.04 332.669 260.48 334.479C261.8 339.869 263.29 345.209 264.87 350.529C265.24 351.789 266.21 352.869 267.02 354.229C275.76 350.319 284.12 346.589 292.46 342.809C293.32 342.419 294.09 341.789 294.82 341.169C295.16 340.879 295.32 340.359 295.64 339.799C294.31 336.479 291.48 334.689 288.33 333.379C279.6 329.749 270.65 327.129 260.04 328.079ZM46.3696 342.859C57.0196 339.639 64.2896 335.559 67.7396 330.779C63.5496 327.189 58.3896 325.819 53.2296 324.839C49.1296 324.059 44.8796 322.449 40.2596 324.529C41.2096 331.249 43.4796 337.169 46.3696 342.859ZM211.93 329.779C205.4 325.199 198.93 322.779 192.2 320.899C189.41 320.119 186.64 319.469 183.59 320.699C182.72 326.299 184.32 331.249 185.51 336.229C186.49 336.119 187.14 336.249 187.37 335.999C189.68 333.529 192.54 332.789 195.83 332.619C199.93 332.409 204.02 331.829 208.1 331.279C209.14 331.129 210.11 330.509 211.93 329.779Z" fill="#0DFF9A"/>
<path d="M771.55 387.329C771.92 384.309 772.09 381.939 772.51 379.619C773.39 374.669 773.94 369.569 778.03 365.339C782.84 368.109 787.52 371.019 792.39 373.559C797.25 376.089 802.33 378.169 808.43 379.599C807.75 378.079 807.63 377.299 807.18 376.859C799.91 369.719 792.4 362.889 783.83 357.249C774.89 351.379 765.58 346.209 756.1 341.319C752.41 339.419 748.97 337.209 746.58 333.649C744.75 330.919 744.54 329.669 746.48 327.089C748.51 324.399 750.79 321.889 753.88 318.199C750.66 319.869 748.53 320.759 746.63 321.999C743.19 324.249 739.38 324.469 735.47 324.579C726.75 324.829 718.03 325.159 709.32 325.529C707.71 325.599 706.11 326.029 704.42 326.309C704.27 329.499 705.66 331.859 706.87 334.169C712.03 344.049 717.28 353.889 722.6 363.679C725.5 368.999 728.38 374.359 731.71 379.419C735.21 384.739 733.52 388.709 728.25 392.199C723.84 395.119 718.93 397.269 714.48 399.619C711.22 398.749 709.93 396.329 708.61 394.039C702.82 383.939 697.09 373.809 691.37 363.679C689.46 360.299 687.3 357.009 685.89 353.429C683.41 347.129 681.39 340.639 679.22 334.219C678.38 331.719 677.65 329.179 676.74 326.259C667.6 325.989 658.72 325.719 650.28 325.469C648.39 327.379 648.96 328.919 649.35 330.619C652.44 344.069 655.25 357.589 658.53 370.989C659.53 375.069 658.58 378.389 656.05 381.039C651.88 385.409 647.24 389.329 642.71 393.349C641.56 394.369 639.98 394.489 638.6 393.739C636.69 392.709 634.79 391.609 633.03 390.339C626.54 385.659 620.18 380.809 613.64 376.199C601.15 367.399 588.45 358.929 575.04 351.569C573.61 350.789 572.07 350.209 570.07 349.299C570.12 355.599 571.66 360.979 574.56 365.669C578.28 371.689 577.82 373.849 572.94 379.899C570.97 382.339 568.74 384.609 566.47 386.789C563.91 389.239 561.82 389.079 559.78 386.299C556.61 381.979 553.79 377.439 552.31 372.229C549.53 362.459 547.01 352.599 543.98 342.909C542.42 337.929 543.33 333.869 546.55 330.089C550.78 325.119 554.7 319.879 560.32 316.239C563.35 314.269 566.22 314.239 569.13 316.089C571.38 317.509 573.44 319.219 575.67 320.669C584.36 326.359 593.12 331.919 602.14 337.099C610.11 341.679 617.57 347.149 625.29 352.179C626.45 352.929 627.8 353.399 629.5 354.199C630.13 350.779 629.56 348.019 629.26 345.189C628.49 337.729 627.92 330.249 627.5 322.759C627.23 317.919 629 313.789 632.61 310.409C635.26 307.929 637.57 305.069 640.26 302.629C642.2 300.869 644.5 299.509 647.14 297.609C647.79 299.149 648.7 300.219 648.54 301.089C647.9 304.449 647.47 307.769 648.08 311.769C649.34 311.219 650.44 310.969 651.26 310.349C653.57 308.599 655.81 306.739 658 304.839C659.99 303.109 662.13 302.769 664.74 303.139C670.73 303.999 676.78 304.519 682.8 305.219C687.68 305.789 692.5 306.139 696.91 302.449C700 305.489 703.72 305.739 707.66 305.689C723.9 305.489 740.15 305.439 756.39 305.389C759.04 305.379 761.68 305.589 764.29 305.689C764.68 307.119 764.98 308.209 765.28 309.309C770.86 308.599 776.32 307.569 781.82 307.289C789.55 306.899 797.33 306.779 805.06 307.139C809.35 307.339 813.63 308.609 817.84 309.689C820.66 310.409 823.17 311.889 825.04 314.459C823.82 319.109 820.81 322.149 817.29 324.779C814.78 326.649 812.06 328.259 809.6 330.179C807.65 331.699 805.73 331.969 803.51 331.059C801.49 330.239 799.45 329.469 797.4 328.719C794.9 327.809 792.4 326.849 789.65 327.629C788.94 329.249 790.29 329.709 791.18 330.319C795.58 333.329 800.04 336.259 804.44 339.279C815.31 346.719 824.98 355.529 833.43 365.599C836.19 368.899 838.17 372.879 840.34 376.649C841.93 379.409 841.6 382.299 839.96 384.949C838.69 386.999 837.51 389.259 835.75 390.819C831.59 394.509 827.15 397.889 822.75 401.299C818.86 404.319 814.31 404.719 809.61 404.309C808.89 404.249 808.16 404.119 807.47 403.909C798.67 401.259 789.82 398.759 781.11 395.829C776.77 394.379 775.02 392.329 771.55 387.329Z" fill="#0DFF9A"/>
<path d="M449.839 338.399C452.189 340.639 454.209 342.699 456.379 344.599C460.989 348.619 464.849 353.259 468.159 358.379C472.319 364.809 472.579 371.459 469.809 378.519C466.709 386.419 461.239 392.529 455.329 398.279C450.899 402.589 445.219 404.099 439.219 403.689C427.399 402.879 416.489 398.939 406.239 393.159C402.589 391.099 399.929 387.909 397.679 384.379C395.159 380.429 395.209 376.109 395.789 371.719C395.879 371.039 396.269 370.369 396.649 369.769C398.189 367.319 399.929 364.989 401.319 362.449C402.959 359.459 405.309 357.729 409.109 357.019C413.139 362.819 415.809 369.939 422.819 373.309C428.259 375.919 432.919 380.089 438.869 381.679C441.659 382.419 444.569 382.799 447.449 383.099C448.559 383.219 449.749 382.689 450.919 382.449C451.739 378.469 449.779 375.689 447.819 372.919C442.389 365.259 435.409 359.289 427.229 354.799C422.139 351.999 416.739 349.789 411.539 347.169C408.529 345.649 405.429 344.149 402.789 342.099C399.539 339.569 399.259 337.309 401.439 333.829C404.929 328.269 409.239 323.349 413.729 318.559C421.999 309.749 432.529 308.249 443.759 308.809C445.439 308.889 447.099 309.519 448.779 309.589C454.369 309.819 458.289 312.839 461.559 316.979C463.559 319.499 463.659 321.739 461.659 324.259C459.709 326.719 457.409 328.899 455.379 331.309C453.529 333.499 451.829 335.829 449.839 338.399Z" fill="#0DFF9A"/>
<path d="M384.359 308.879C384.819 313.109 382.299 315.599 380.309 318.289C379.749 319.049 378.639 319.409 378.119 320.169C374.469 325.549 369.169 326.909 363.039 327.079C358.719 327.199 354.429 328.179 350.209 328.769C348.389 332.349 348.559 335.599 349.239 339.179C355.179 340.519 360.899 339.949 366.679 339.599C372.369 339.259 377.979 337.419 384.179 338.269C383.559 342.179 381.359 344.749 379.319 347.339C378.129 348.849 376.469 349.989 375.229 351.469C371.639 355.749 367.089 358.259 361.639 359.309C360.029 359.619 358.479 360.229 356.359 360.859C359.859 368.239 365.829 372.129 372.169 375.579C378.709 379.139 385.609 378.529 392.619 376.299C393.069 380.199 391.109 382.309 389.439 384.149C386.029 387.909 382.379 391.529 378.429 394.709C374.719 397.699 370.029 398.549 365.339 398.189C355.159 397.419 346.789 392.759 340.119 385.219C336.259 380.859 333.229 375.879 331.259 370.289C330.139 367.109 328.639 364.069 327.259 360.839C328.279 351.409 329.319 341.799 330.369 332.139C329.209 330.819 327.719 331.429 326.389 331.799C325.249 332.119 324.239 332.889 323.109 333.319C321.399 333.969 319.419 335.799 317.929 333.579C316.719 331.779 318.129 329.779 319.279 328.309C323.629 322.769 328.269 317.479 333.759 313.019C336.729 310.609 340.329 309.929 343.979 309.689C354.609 308.979 365.249 308.329 375.889 307.819C378.759 307.669 381.649 308.099 384.359 308.879Z" fill="#0DFF9A"/>
<path d="M533.87 330.369C531.58 332.299 528.56 332.419 525.3 332.359C516.09 332.189 506.88 332.309 497.66 332.369C496.48 332.379 495.3 332.719 494.1 332.899C492.74 336.309 494.12 339.199 495.09 342.549C496.46 342.769 497.83 343.109 499.21 343.169C509.62 343.679 520.04 344.059 530.46 343.329C532.86 343.159 535.28 343.309 538.23 343.309C537.86 344.859 537.77 345.999 537.32 346.969C534.91 352.149 530.45 355.619 526.6 359.599C524.62 361.639 522.09 362.259 519.34 362.489C517.18 362.669 515.03 363.099 512.9 363.509C512.52 363.579 512.23 364.119 511.7 364.629C514.2 367.899 518.02 369.049 521.52 370.429C524.87 371.759 528.58 372.169 532.04 373.269C535.87 374.489 539.63 373.889 543.91 372.859C543.91 374.279 544.2 375.279 543.86 375.969C540.92 381.939 536.35 386.639 531.6 391.169C529.94 392.739 527.82 393.229 525.58 393.369C511.91 394.239 499.31 390.849 489.07 381.809C479.11 373.019 472.68 362.019 474.14 347.889C474.26 346.689 474.2 345.389 474.64 344.309C476.51 339.629 477.99 334.669 480.62 330.439C484.47 324.249 489.72 319.079 495.65 314.789C497.31 313.589 499.67 312.909 501.74 312.799C506.81 312.529 511.91 312.669 516.99 312.799C518.4 312.839 519.8 313.409 521.19 313.789C524.45 314.679 527.7 315.599 530.95 316.519C532.11 316.849 533.31 317.119 534.38 317.649C536.13 318.519 536.9 320.699 536.32 322.599C535.6 324.859 534.89 327.119 533.87 330.369Z" fill="#0DFF9A"/>
<path d="M537.92 752.72C539.27 754.31 540.67 755.94 542.17 757.7C545.15 755.62 547.86 752.98 551.11 751.66C554.4 750.32 558.2 750.24 561.79 749.69C564.28 749.31 566.28 748.23 568.08 746.41C569.39 745.08 571.19 744.24 573.04 743C574.33 744.49 575.39 745.71 576.85 747.39C592.7 744.91 608.93 741.95 625.39 744.85C626.98 749.68 624.22 752.72 621.8 755.54C619.46 758.26 616.42 760.39 613.7 762.79C612.13 764.17 610.29 764.35 608.27 764.33C601.49 764.27 594.7 764.3 587.92 764.41C585.75 764.45 583.58 764.79 581.43 765.11C580.52 765.25 579.65 765.68 578.47 766.08C578.8 767.64 579.09 768.98 579.37 770.32C584.01 771.36 588.33 770.45 592.66 770.3C596.28 770.17 599.91 770.2 603.52 770.39C604.91 770.47 606.32 771.09 607.63 771.68C609.36 772.46 609.88 774.36 608.69 775.93C606.5 778.81 604.33 781.75 601.82 784.33C597.68 788.58 597.56 788.44 591.05 789.27C588.93 789.54 586.84 790 584.58 790.4C584.27 795.25 585.9 799.29 587.42 803.31C589.05 807.62 591.04 811.79 592.66 816.1C593.13 817.34 593.25 819.02 592.82 820.24C591.07 825.13 582.77 832.95 576.68 835.61C573.37 832.54 570.62 828.93 569.3 824.43C567.12 816.99 565.15 809.49 563.02 802.04C562.17 799.08 562.2 795.78 560.01 793.01C554.5 793.4 548.82 795.3 544 790.99C540.46 792.03 537.51 793.9 535.55 796.62C532.56 800.75 528.55 802.36 523.82 802.99C522.41 803.18 521.02 803.56 519.74 803.82C519.14 806.12 520.8 806.63 522.02 807.12C531.79 811.08 541.74 814.01 552.94 811.31C553.05 812.7 553.5 813.91 553.14 814.8C552.44 816.58 551.54 818.39 550.29 819.81C546.92 823.61 543.37 827.25 539.78 830.85C537.38 833.26 534.14 833.78 530.98 833.55C522.49 832.92 514.18 831.33 506.21 828.17C497.48 824.71 491.24 818.5 486.57 810.54C485.22 808.24 483.9 805.91 482.79 803.49C478.25 793.5 477.52 783.45 482.49 773.34C482.69 772.94 482.65 772.42 482.73 771.91C482.25 770.42 480.9 770.52 479.76 770.51C477.58 770.51 475.41 770.74 473.23 770.79C471.62 770.83 469.49 771.66 468.83 769.52C468.48 768.37 468.99 766.63 469.69 765.54C472.71 760.86 475.96 756.4 480.2 752.61C483.14 749.98 486.31 748.72 490.04 748.69C493.91 748.66 497.79 748.86 501.66 749.1C513.74 749.87 525.88 750.05 537.92 752.72ZM547.59 785.82C550.72 781.95 553.14 778.96 555.55 775.97C556.93 774.26 557.01 772.37 555.99 770.54C554.93 768.65 553.16 769.13 551.49 769.56C550.55 769.8 549.63 770.13 548.68 770.25C544.17 770.81 539.85 772.67 535.39 772.37C534.31 771.36 533.45 770.55 532.61 769.77C530.94 770.26 529.36 770.92 527.72 771.14C526.06 771.36 524.34 771.16 522.65 771.09C516.85 770.87 511.05 770.58 505.25 770.43C502.89 770.37 500.4 769.76 497.76 771.76C498.04 776.23 498.42 780.87 501.5 784.47C507.14 784.23 512.2 784.05 517.25 783.8C522.08 783.56 526.9 783.22 531.72 782.94C536.68 782.66 541.56 780.98 546.5 781.57C546.83 782.85 547.05 783.73 547.59 785.82Z" fill="#0DFF9A"/>
<path d="M647.87 790.39C647.84 789.68 647.98 788.91 647.75 788.27C645.54 782.06 647.55 777.029 651.63 772.229C655.42 767.769 659.44 763.61 664.08 760.06C666.95 757.86 668.99 757.699 672.04 759.839C674.61 761.639 677 763.74 679.27 765.91C690.33 776.49 702.24 786.01 714.76 794.79C715.7 795.45 716.81 795.889 717.68 796.349C719.34 795.079 718.59 793.879 718.25 792.839C716.39 787.059 715.12 781.19 714.34 775.15C713.61 769.51 714.44 764.59 718.57 760.4C720.26 758.69 721.56 756.589 723.1 754.719C724.93 752.509 727.5 751.25 732.17 750.27C732.61 754.1 733.04 757.909 733.47 761.719C733.63 763.159 733.55 764.67 733.98 766.03C736.86 775.26 739.83 784.46 742.8 793.66C743.24 795.03 743.67 796.48 744.46 797.66C747.49 802.2 748.4 807.5 750.14 812.52C751.82 817.35 750.27 821.32 747.25 824.56C743.81 828.25 739.71 831.34 735.78 834.54C733.38 836.49 730.75 835.959 728.3 834.479C723.11 831.339 717.8 828.38 712.83 824.93C702.28 817.59 691.94 809.96 681.46 802.52C679.55 801.16 677.95 799.15 674.83 798.8C674.77 800.11 674.58 801.22 674.71 802.29C674.96 804.2 675.48 806.08 675.74 807.99C676.05 810.27 675.39 812.29 673.83 814.02C670.59 817.62 667.4 821.259 664.16 824.859C663.68 825.389 663.08 825.839 662.48 826.229C660.47 827.529 657.9 826.89 657.04 824.66C656.09 822.19 655.37 819.61 654.79 817.02C654.05 813.75 653.54 810.43 652.97 807.29C651.13 806.31 650.59 807.74 649.88 808.55C647.16 811.64 644.62 814.89 641.82 817.9C639.58 820.32 637.2 820.569 634.79 818.469C633 816.919 631.35 814.99 630.25 812.9C625.36 803.64 622 793.77 619.09 783.74C617.54 778.39 618.51 773.64 622.26 769.54C625.52 765.97 628.84 762.44 632.24 759.01C633.41 757.82 634.87 756.779 637.31 757.849C639.21 768.919 641.68 780.22 647.87 790.39Z" fill="#0DFF9A"/>
<path d="M240.199 921.449C242.799 921.879 245.379 922.389 247.989 922.729C255.919 923.769 263.859 924.729 271.789 925.769C276.339 926.369 276.759 926.579 280.499 929.069C279.709 932.879 276.899 935.279 274.039 937.409C264.389 944.609 264.339 944.609 251.999 943.769C246.199 943.379 240.429 942.589 234.629 942.139C231.529 941.899 228.399 941.969 224.719 941.879C224.919 943.669 224.739 945.139 225.279 946.279C227.259 950.419 225.739 953.759 223.249 956.959C220.079 961.029 215.729 963.689 211.549 966.519C210.189 967.439 208.569 966.719 207.659 965.539C206.649 964.219 205.939 962.629 205.289 961.069C202.759 955.039 200.219 949.009 197.859 942.909C196.269 938.789 194.299 934.959 191.549 932.399C191.059 928.689 190.779 925.619 190.239 922.589C189.219 916.869 187.849 911.199 187.009 905.459C186.279 900.439 185.699 895.319 188.649 890.029C186.949 889.809 185.779 889.349 184.779 889.589C180.549 890.619 176.369 891.849 172.179 893.029C171.069 893.339 169.979 893.749 169.009 894.069C167.539 892.479 167.979 891.049 168.709 889.799C174.289 880.229 181.909 873.369 192.989 870.529C214.049 865.129 233.839 868.299 252.599 878.819C255.289 880.329 257.659 882.529 259.919 884.679C264.149 888.719 264.499 893.589 262.089 898.669C261.069 900.829 259.719 902.909 258.179 904.739C254.099 909.579 249.319 913.679 244.109 917.279C242.749 918.219 241.359 919.099 239.979 919.999C240.049 920.489 240.119 920.969 240.199 921.449ZM239.169 903.649C231.479 895.229 217.339 889.399 208.269 890.359C207.949 897.429 209.899 905.859 213.019 910.259C221.479 908.359 230.339 907.469 239.169 903.649Z" fill="#0DFF9A"/>
<path d="M385.919 764.529C381.149 763.199 376.039 761.759 370.919 760.359C369.759 760.039 368.519 759.969 367.379 759.579C365.709 759.019 364.739 756.629 365.869 755.399C369.939 750.949 372.059 745.059 376.839 741.099C378.709 739.549 380.459 738.789 382.739 739.109C383.939 739.279 385.119 739.569 386.289 739.879C407.399 745.559 428.009 752.649 447.619 762.399C452.169 764.659 456.609 767.229 460.809 770.089C463.779 772.109 466.479 774.649 468.929 777.299C472.899 781.589 473.599 786.739 471.839 792.249C470.489 796.459 468.309 800.219 465.399 803.539C463.639 805.549 461.789 807.469 459.969 809.419C451.409 818.609 440.839 823.209 428.299 823.229C424.429 823.239 420.559 823.059 416.689 822.809C414.119 822.639 412.299 821.329 410.929 818.989C408.979 815.639 407.219 812.279 405.989 808.559C401.869 796.079 396.109 784.349 389.409 773.049C388.089 770.809 387.399 768.189 385.919 764.529ZM426.719 800.189C432.369 803.019 438.139 802.559 443.919 801.629C446.939 801.139 450.219 801.169 452.789 798.049C448.979 791.329 442.439 787.969 436.209 784.579C431.339 781.939 426.579 778.429 420.189 778.369C422.419 785.819 424.489 792.719 426.719 800.189Z" fill="#0DFF9A"/>
<path d="M795.379 805.56C806.259 812.66 815.579 818.61 828.099 817.48C827.549 819.29 827.539 820.91 826.719 821.77C822.369 826.31 817.949 830.8 813.289 835.01C810.619 837.43 807.069 837.78 803.649 836.85C799.689 835.77 795.639 834.71 791.979 832.91C785.909 829.92 779.969 826.58 774.259 822.95C768.909 819.55 764.499 815.04 761.159 809.55C759.539 806.89 757.329 804.5 756.149 801.67C755.069 799.06 755.139 796 754.469 793.19C752.539 785.13 753.809 777.83 759.309 771.44C759.919 770.73 760.369 769.88 760.839 769.17C760.029 767.46 758.749 767.95 757.679 768.15C756.259 768.42 754.909 769.03 753.489 769.25C752.879 769.34 751.959 769 751.589 768.53C751.239 768.1 751.149 767.07 751.419 766.59C752.369 764.91 753.379 763.23 754.649 761.79C757.209 758.88 759.819 756 762.649 753.36C766.439 749.82 770.829 747.35 776.209 747.12C778.629 747.02 781.039 746.6 783.459 746.61C792.179 746.65 800.899 746.83 809.619 746.93C813.149 746.97 816.329 747.73 818.609 751.2C815.909 755.7 811.249 758.6 807.979 762.76C807.229 763.72 805.409 764.08 804.029 764.23C801.629 764.5 799.189 764.31 796.769 764.47C790.259 764.92 783.749 765.43 777.239 765.99C776.579 766.05 775.949 766.59 775.119 767C773.739 772.38 775.199 777.39 777.219 782.86C791.889 786.2 806.929 784.81 822.409 785.53C821.799 787.47 821.759 789.41 820.779 790.44C816.779 794.62 812.589 798.64 808.249 802.46C807.089 803.48 805.159 803.72 803.529 804.1C801.429 804.61 799.279 804.89 795.379 805.56Z" fill="#0DFF9A"/>
<path d="M60.7689 962.249C50.4989 961.759 40.5589 959.069 31.2289 954.029C25.6789 951.029 21.6289 946.579 19.0489 940.989C16.5989 935.679 16.8689 930.009 19.5189 924.849C23.2889 917.519 27.6989 910.559 33.3589 904.469C36.5489 901.039 40.2689 898.389 44.4989 896.479C47.0189 895.339 48.9189 893.709 50.4589 891.399C51.9189 889.199 53.7589 887.229 55.5389 885.249C59.0589 881.329 63.5689 880.089 68.6889 880.559C82.1789 881.789 92.3789 888.389 99.6289 899.669C103.709 906.019 104.839 912.889 103.969 920.469C103.019 928.749 99.7089 935.799 94.8289 942.259C92.0589 945.929 89.0289 949.409 85.9789 952.849C81.1089 958.349 75.0989 961.629 67.6089 961.859C65.4289 961.929 63.2589 962.099 60.7689 962.249ZM59.0189 902.869C55.4489 906.549 52.3489 909.849 49.1189 913.039C47.5589 914.579 45.8789 915.659 43.3189 915.119C41.8389 914.809 40.0289 915.549 38.4989 916.139C34.7689 917.579 34.0189 920.079 36.1889 923.609C38.3989 927.209 41.6189 929.719 45.2489 931.779C55.1489 937.379 65.7589 940.189 77.1389 940.139C85.1389 940.099 86.8889 938.319 86.5189 930.249C86.4489 928.819 86.1889 927.349 85.7489 925.989C82.2989 915.429 75.0189 908.429 64.9689 904.189C63.0389 903.379 60.8189 903.249 59.0189 902.869Z" fill="#0DFF9A"/>
<path d="M127.89 890.449C130.09 891.839 130.21 893.65 129.56 895.67C128.53 898.9 127.43 902.109 126.47 905.349C123.1 916.679 126.08 923.809 136.94 929.199C140.4 930.909 144.05 932.299 147.74 933.449C149.96 934.149 152.42 934.1 154.93 934.41C156.56 930.58 155.75 927.21 154.55 924.16C152.7 919.44 150.33 914.92 148.09 910.37C147.13 908.42 145.8 906.64 144.87 904.68C143.41 901.58 143.82 898.579 145.71 895.719C147.44 893.099 149.08 890.43 150.72 887.76C152.65 884.61 154.78 881.71 158.73 880.77C159.31 881.23 160.16 881.57 160.36 882.14C162.93 889.45 166.77 896.16 170.28 903.02C172.62 907.6 174.17 912.42 174.79 917.5C175.94 926.9 171.94 934.509 166.09 941.349C163.89 943.919 161.31 946.159 158.96 948.609C152.04 955.819 143.54 957.309 134.2 955.329C128 954.009 122.32 951.479 116.94 947.949C108.94 942.709 105.69 935.39 106.57 926.25C107.46 916.98 109.64 908.06 116.65 901.14C117.84 899.97 118.61 898.38 119.64 897.04C121.88 894.14 124.39 891.579 127.89 890.449Z" fill="#0DFF9A"/>
<path d="M501.729 931.09C501.919 929.09 502.319 927.49 502.179 925.93C501.689 920.15 501.019 914.38 500.419 908.6C500.369 908.12 500.289 907.64 500.279 907.15C500.079 900.01 506.839 887.97 512.959 884.52C514.329 883.75 515.959 884.41 516.399 885.99C516.779 887.39 517.069 888.82 517.299 890.26C518.759 899.59 520.209 908.93 521.619 918.27C521.979 920.67 521.999 923.13 522.519 925.48C524.219 933.24 520.429 939.07 515.939 944.63C514.269 946.69 512.139 948.38 510.459 950.43C508.129 953.27 505.159 954.55 501.619 954.76C497.219 955.02 492.879 954.61 488.699 953.2C477.819 949.54 467.469 944.92 459.269 936.5C458.959 936.19 458.419 936.1 457.699 935.78C457.439 938.38 457.539 941.01 456.829 943.4C456.079 945.91 454.849 948.41 453.269 950.5C450.509 954.16 447.619 957.82 444.239 960.89C440.569 964.23 435.659 965.56 430.809 965.83C424.539 966.18 418.179 966.3 411.949 965.63C402.279 964.59 392.969 961.96 384.689 956.4C382.659 957.63 380.819 958.74 378.929 959.89C375.879 958.67 375.359 955.93 374.629 953.47C372.419 946.04 370.349 938.56 368.229 931.11C367.899 929.95 367.509 928.79 367.219 927.62C366.169 923.43 364.219 920.03 359.859 918.46C359.009 918.15 358.359 917.28 357.599 916.65C357.549 915.86 357.219 914.99 357.519 914.47C359.899 910.27 360.199 905.92 359.199 901.25C358.659 898.71 358.789 896.02 358.589 892.96C341.829 888.8 324.509 887.56 308.689 881.39C306.949 879.06 307.179 876.93 308.379 874.96C310.389 871.65 312.519 868.4 314.739 865.23C315.549 864.07 316.749 863.17 317.809 862.18C319.599 860.49 321.709 860.44 323.929 861.08C324.389 861.21 324.879 861.33 325.299 861.55C334.659 866.6 345.119 867.54 355.269 869.75C369.439 872.85 383.839 874.61 398.079 877.33C408.519 879.32 419.229 879.97 429.809 881.21C431.449 881.4 433.089 881.55 434.549 881.7C436.379 884.32 435.889 886.67 434.719 888.87C431.959 894.08 427.619 898.04 423.659 902.27C422.819 903.17 421.059 903.47 419.679 903.58C416.789 903.81 413.859 903.68 410.959 903.78C409.029 903.85 407.089 904 405.169 904.24C403.999 904.39 402.859 904.77 401.699 905.04C401.979 907.53 403.879 907.75 405.339 908.27C409.219 909.64 413.179 910.8 417.079 912.1C429.299 916.2 440.979 921.43 451.719 928.65C452.289 929.03 452.969 929.24 453.939 929.69C453.639 926.11 453.309 922.84 453.089 919.56C452.759 914.55 453.939 909.98 456.969 905.88C459.839 901.99 462.129 897.65 465.999 894.57C466.729 893.99 467.519 893.48 468.389 892.86C470.539 894.14 470.719 896.25 470.459 897.97C468.849 908.52 474.099 915.46 481.969 921.36C487.799 925.78 493.969 929.32 501.729 931.09ZM431.439 945.12C425.259 939.55 418.669 937.28 412.269 934.84C397.879 929.35 395.169 928.75 391.079 929.15C390.509 931.62 391.749 933.4 393.529 934.75C395.049 935.91 396.739 936.94 398.499 937.7C407.169 941.5 416.189 944.13 425.569 945.4C427.099 945.62 428.699 945.28 431.439 945.12Z" fill="#0DFF9A"/>
<path d="M661.12 876.809C665.24 879.359 660.87 884.019 664.32 887.229C668.52 887.819 673.27 887.729 678.09 887.139C687.7 885.969 697.32 884.959 706.95 883.909C708.08 883.789 709.23 883.889 710.97 883.889C709.95 888.849 707.34 892.158 704.51 895.328C699.67 900.728 694.1 904.269 686.36 904.259C680.85 904.249 675.33 905.479 669.82 906.219C668.42 906.409 667.06 906.829 665.79 907.119C664.93 918.389 671.08 937.169 678.85 947.349C679.05 949.599 678.1 951.499 676.6 953.169C672.42 957.809 668.21 962.428 662.72 965.818C658.06 962.748 654.97 958.779 653.42 953.839C651.32 947.149 649.48 940.369 647.84 933.549C646.31 927.199 645.2 920.749 643.85 914.359C643.55 912.949 643.06 911.589 642.53 909.799C640.95 909.589 639.34 909.208 637.72 909.188C632.16 909.118 626.59 909.309 621.03 909.139C615.24 908.969 609.39 908.819 603.92 905.419C604.04 904.559 603.91 903.489 604.34 902.789C607.44 897.829 611.25 893.459 615.67 889.639C618.6 887.099 621.74 885.899 625.69 887.269C632.03 889.469 638.64 888.529 645.16 888.639C647.6 888.679 649.14 887.209 650.59 885.499C653.57 881.989 656.7 878.649 661.12 876.809Z" fill="#0DFF9A"/>
<path d="M628.87 930.639C629 934.239 628.04 936.759 625.89 938.929C622.65 942.189 619.43 945.489 616.26 948.819C612.88 952.359 608.51 953.779 603.89 954.279C594.09 955.339 585.03 953.199 577.41 946.729C575.07 944.739 572.96 942.189 571.51 939.479C568.17 933.259 566.01 926.569 565.36 919.469C564.69 912.169 566.41 905.509 570.94 899.679C573.32 896.619 575.75 893.609 578.31 890.699C580.06 888.719 582.12 887.039 584.99 885.549C585.54 886.839 586.23 887.789 586.31 888.799C586.42 890.219 586.2 891.709 585.91 893.119C583.92 902.569 585.97 911.429 590.15 919.829C595.19 929.989 606.27 934.909 616.03 933.559C619.12 933.129 622.11 932.029 625.16 931.289C626.24 931.019 627.35 930.899 628.87 930.639Z" fill="#0DFF9A"/>
<path d="M567.749 934.219C566.979 937.889 565.609 940.919 563.059 943.329C559.889 946.319 556.739 949.329 553.459 952.189C551.479 953.919 549.489 953.719 547.859 951.409C545.769 948.459 543.509 945.449 542.249 942.119C538.739 932.839 535.719 923.369 532.489 913.979C530.419 907.959 531.389 902.569 535.499 897.659C538.759 893.759 541.489 889.399 545.659 886.329C546.429 885.759 547.249 885.24 548.109 884.81C549.179 884.26 550.789 885.009 551.019 886.129C551.169 886.839 551.299 887.569 551.279 888.279C551.109 894.229 552.879 899.769 554.819 905.279C555.139 906.189 555.479 907.099 555.799 908.019C558.959 917.149 561.849 926.429 567.749 934.219Z" fill="#0DFF9A"/>
<path d="M461.449 1085.26C460.629 1085.71 459.949 1085.92 459.489 1086.36C455.139 1090.56 450.639 1094.63 446.529 1099.06C437.199 1109.12 413.459 1111.86 399.539 1103.67C387.849 1096.79 383.709 1082.05 393.239 1070.77C397.299 1065.97 401.549 1061.33 405.789 1056.52C404.519 1055.38 403.839 1056.95 402.929 1057.14C401.999 1057.34 401.139 1057.86 400.209 1058.11C398.699 1058.52 397.219 1057.03 397.679 1055.54C398.039 1054.4 398.399 1053.15 399.119 1052.26C402.179 1048.51 405.129 1044.61 408.569 1041.23C418.649 1031.35 430.569 1029.85 443.489 1034.47C450.169 1036.86 456.049 1040.68 460.889 1045.82C463.319 1045.56 464.079 1043.49 465.479 1042.29C466.939 1041.03 468.189 1039.52 469.519 1038.1C472.509 1034.91 475.629 1031.88 479.489 1029.7C481.609 1028.5 483.639 1028.36 485.649 1029.68C487.669 1031.01 489.649 1032.42 491.529 1033.94C506.279 1045.77 520.989 1057.64 535.739 1069.46C537.009 1070.48 538.499 1071.22 539.809 1072.04C541.919 1070.37 540.969 1068.72 540.509 1067.19C538.759 1061.39 536.939 1055.62 535.169 1049.83C534.459 1047.51 533.909 1045.15 533.159 1042.84C531.919 1039.02 533.069 1035.65 535.109 1032.51C536.809 1029.88 538.689 1027.37 540.539 1024.84C543.279 1021.1 544.109 1020.55 549.579 1018.7C550.229 1019.8 551.269 1020.89 551.559 1022.16C554.619 1035.15 559.359 1047.64 562.909 1060.46C565.749 1070.71 567.609 1081.24 569.929 1091.64C570.789 1095.51 569.939 1098.91 566.959 1101.57C562.819 1105.27 558.589 1108.87 554.339 1112.46C552.589 1113.93 550.749 1113.68 549.049 1112.28C545.499 1109.34 542.089 1106.23 538.419 1103.46C527.769 1095.45 516.969 1087.63 506.319 1079.62C500.509 1075.25 494.909 1070.6 489.169 1066.14C487.289 1064.68 485.269 1063.41 483.629 1062.26C481.539 1062.86 481.579 1064.14 481.479 1065.32C481.439 1065.8 481.479 1066.29 481.489 1066.77C481.729 1078.92 481.789 1079.18 487.689 1090.9C490.229 1095.94 490.039 1098.67 486.169 1102.56C483.109 1105.64 479.729 1108.43 476.359 1111.18C474.279 1112.88 472.629 1112.73 470.569 1110.73C469.199 1109.4 467.939 1107.87 466.989 1106.22C464.539 1101.97 463.219 1097.33 462.739 1092.43C462.549 1090.1 462.859 1087.61 461.449 1085.26ZM423.789 1053.06C421.159 1054.76 418.619 1056.17 416.349 1057.94C414.079 1059.7 412.089 1061.81 409.979 1063.77C407.819 1065.79 407.459 1068.36 407.829 1071.11C408.769 1077.96 412.819 1082.46 418.769 1085.48C426.459 1089.38 434.659 1089.15 442.909 1088.31C445.159 1088.08 446.219 1086.65 446.759 1084.58C449.079 1075.68 447.229 1067.82 440.999 1061.03C436.329 1055.94 430.189 1054.03 423.789 1053.06Z" fill="#0DFF9A"/>
<path d="M848.729 1046.15C851.439 1043.74 853.779 1041.66 856.109 1039.57C857.009 1038.77 857.869 1037.9 858.819 1037.16C869.019 1029.3 867.769 1029.86 880.699 1031.01C892.289 1032.04 903.929 1032.71 915.559 1033.08C925.009 1033.38 934.479 1033.13 943.939 1032.89C948.529 1032.77 953.109 1032.16 957.689 1031.71C963.049 1031.18 968.219 1030.02 972.699 1026.76C973.259 1026.35 974.029 1026.18 974.729 1026.04C976.639 1025.65 978.769 1027.76 978.129 1029.65C977.609 1031.2 976.839 1032.88 975.669 1033.95C971.019 1038.21 966.169 1042.25 960.659 1045.38C956.589 1047.69 952.059 1048.62 947.519 1049.41C938.879 1050.91 930.159 1051.25 921.419 1051.24C916.569 1051.23 911.809 1051.91 906.739 1052.26C906.839 1057.77 909.329 1061.95 911.409 1066.22C916.519 1076.69 922.859 1086.47 928.679 1096.54C929.389 1097.78 929.969 1099.09 930.479 1100.11C929.049 1105.42 925.209 1107.9 921.049 1110.02C918.039 1111.56 914.979 1112.98 911.499 1114.66C909.219 1114.67 907.509 1112.89 906.259 1110.8C899.419 1099.36 891.969 1088.24 886.589 1076C883.949 1070.01 882.009 1063.74 883.009 1056.97C883.219 1055.56 883.039 1054.1 883.039 1052.29C881.599 1051.86 880.309 1051.18 878.979 1051.12C872.199 1050.79 865.409 1050.58 858.619 1050.42C857.179 1050.39 855.719 1050.62 854.299 1050.9C853.159 1051.13 852.079 1051.63 850.619 1052.14C850.889 1053.57 851.009 1054.73 851.329 1055.83C853.459 1063.03 855.529 1070.25 857.819 1077.4C859.219 1081.78 860.879 1086.08 862.629 1090.33C863.579 1092.64 863.339 1094.66 861.819 1096.44C859.779 1098.83 857.689 1101.23 855.329 1103.29C852.969 1105.36 850.289 1107.06 847.689 1108.84C845.309 1110.46 842.879 1110.74 840.189 1109.27C831.889 1104.75 823.509 1100.35 815.169 1095.9C811.769 1094.08 808.369 1092.25 804.759 1090.31C800.249 1095.1 793.649 1096.4 789.359 1101.21C788.239 1102.47 785.929 1102.18 784.699 1100.99C783.839 1100.16 783.069 1099.19 782.479 1098.16C780.449 1094.58 778.189 1091.08 776.609 1087.3C773.339 1079.47 769.699 1071.85 765.879 1064.28C761.099 1054.82 762.909 1054.4 768.419 1048.33C770.529 1046 772.889 1043.86 775.319 1041.87C777.559 1040.04 780.049 1038.53 782.159 1037.06C786.269 1037.2 788.129 1039.89 789.799 1042.53C792.949 1047.52 797.159 1051.51 801.289 1055.62C809.129 1063.4 818.549 1068.91 827.919 1074.51C828.499 1074.85 829.269 1074.86 830.509 1075.15C830.569 1073.84 830.939 1072.67 830.629 1071.72C828.989 1066.65 827.179 1061.63 825.449 1056.59C824.899 1054.99 824.259 1053.38 823.959 1051.73C823.509 1049.31 823.419 1046.73 825.159 1044.79C829.849 1039.56 834.529 1034.26 841.109 1031.25C841.509 1031.07 842.049 1031.19 842.899 1031.15C845.629 1035.5 844.719 1041.44 848.729 1046.15Z" fill="#0DFF9A"/>
<path d="M106.909 1075.57C105.369 1077.53 106.299 1079.76 106.409 1081.84C106.569 1084.69 105.769 1087.13 103.909 1089.18C101.309 1092.05 98.7393 1094.97 95.8793 1097.57C93.4393 1099.8 90.6893 1099.36 89.1993 1096.5C87.8793 1093.96 87.0093 1091.15 86.1993 1088.38C85.2593 1085.16 84.8493 1081.75 82.6893 1078.95C81.0093 1078.83 81.0193 1080.41 80.5193 1081.28C77.0093 1087.46 72.3393 1092.72 67.3493 1097.67C52.9293 1111.96 29.1493 1105.06 23.1093 1087.79C21.8293 1084.13 20.8593 1080.37 19.6893 1076.68C19.1993 1075.11 18.5593 1073.59 17.9793 1072.05C15.2293 1072.23 12.8593 1072.46 10.4793 1072.5C9.24932 1072.52 8.33932 1071.11 8.67932 1069.89C8.93932 1068.97 9.20932 1068.01 9.69932 1067.2C10.7093 1065.55 11.7593 1063.89 12.9893 1062.41C16.7093 1057.94 18.6493 1052.95 18.4193 1047.04C18.2593 1042.77 19.8993 1038.99 22.4593 1035.6C24.0693 1033.47 25.5093 1031.22 27.1693 1029.14C29.0193 1026.83 30.9993 1024.73 34.5193 1025.84C35.2993 1026.09 36.4493 1025.67 37.2493 1025.23C41.2593 1023.06 45.5793 1022.9 49.9793 1022.91C56.2793 1022.93 62.5893 1022.78 68.8893 1022.84C71.2993 1022.86 73.7193 1023.21 76.1193 1023.54C77.0293 1023.66 77.8893 1024.15 78.7393 1024.45C80.1993 1027.79 78.4593 1030.46 76.9993 1032.74C75.3493 1035.32 72.8593 1037.39 70.6293 1039.58C68.4593 1041.71 65.8493 1042.49 62.7293 1042.56C55.7093 1042.72 48.6993 1043.29 41.6793 1043.71C40.7193 1043.77 39.6193 1043.7 38.8293 1044.13C37.8893 1044.65 36.8893 1045.51 36.4993 1046.47C36.0093 1047.64 37.5193 1048.8 39.5493 1048.54C47.7093 1047.51 55.8593 1046.36 64.0093 1045.2C65.9293 1044.93 67.7993 1044.34 69.7193 1044.09C72.1593 1043.76 73.6493 1045.44 72.7493 1047.56C71.8093 1049.77 70.8593 1052.1 69.3693 1053.94C66.9393 1056.94 64.1893 1059.71 61.3093 1062.29C60.1293 1063.35 58.3093 1063.85 56.6993 1064.26C53.1793 1065.15 49.5893 1065.78 46.0493 1066.61C44.4593 1066.99 42.9193 1067.61 40.9893 1068.25C42.3993 1076.14 47.3193 1080.4 54.1793 1082.27C57.8193 1083.26 61.8693 1083.08 65.6993 1082.89C67.4693 1082.8 69.4193 1081.75 70.8693 1080.6C74.0893 1078.06 77.0393 1075.18 80.3893 1072.17C80.1193 1070.46 79.8393 1068.58 79.5093 1066.71C78.9993 1063.85 78.3593 1061.01 77.9193 1058.13C77.5093 1055.44 77.6993 1052.75 79.1393 1050.38C82.5593 1044.77 86.4793 1039.53 91.4093 1035.14C93.6493 1033.15 95.5493 1033.13 97.9693 1034.86C98.9493 1035.56 99.9093 1036.36 100.679 1037.27C105.609 1043.08 111.669 1047.51 118.209 1051.26C128.289 1057.04 138.489 1062.64 148.649 1068.28C149.239 1068.61 149.999 1068.61 151.169 1068.88C151.249 1066 150.549 1063.54 149.879 1061.05C148.929 1057.54 147.869 1054.05 147.249 1050.48C146.889 1048.4 146.569 1045.81 147.459 1044.09C150.459 1038.35 153.149 1032.27 158.929 1028.53C161.279 1027.01 163.239 1027.59 163.969 1030.23C165.129 1034.43 166.209 1038.65 167.239 1042.89C169.899 1053.85 174.889 1063.76 180.779 1073.28C181.039 1073.69 181.339 1074.08 181.589 1074.49C186.879 1082.94 186.869 1084.09 180.629 1091.73C178.489 1094.34 176.009 1096.66 173.709 1099.15C171.529 1101.51 168.979 1102.38 165.839 1101.34C162.159 1100.13 158.409 1099.13 154.769 1097.79C144.519 1094.03 134.669 1089.43 125.189 1083.96C119.749 1080.82 113.979 1078.26 108.339 1075.48C107.979 1075.31 107.419 1075.54 106.909 1075.57Z" fill="#0DFF9A"/>
<path d="M654.62 1095.48C651.66 1104.59 644.23 1108.47 637.6 1113.1C634.95 1114.95 631.91 1114.48 629.4 1112.63C624.92 1109.33 620.34 1106.09 616.3 1102.29C612.44 1098.66 609.25 1094.31 605.69 1090.35C603.82 1088.27 602.57 1085.51 599.31 1084.03C598.3 1087.43 598.54 1090.57 598.93 1093.55C599.36 1096.74 598.29 1099.33 596.68 1101.74C593.25 1106.88 588.27 1110.34 583.13 1113.55C582.39 1114.01 581.28 1113.89 580.22 1114.05C577.98 1111.27 578.12 1108.16 578.25 1105.01C578.58 1097.01 579.1 1089.01 579.07 1081.02C579.04 1073.03 578.46 1065.04 578.08 1057.05C577.99 1055.11 577.69 1053.19 577.57 1051.25C577.17 1045.01 577.91 1039.41 583.19 1034.81C586.81 1031.66 589.71 1027.66 593.89 1025.07C595.86 1023.85 597.77 1024 598.98 1025.89C600.4 1028.11 601.72 1030.5 602.5 1033C607.82 1050.03 618.14 1064.02 629.29 1077.52C629.85 1078.19 630.74 1078.59 631.44 1079.09C633.54 1077.38 632.78 1075.3 632.86 1073.47C633.25 1064.01 633.89 1054.59 635.78 1045.3C636.11 1043.7 636.57 1041.83 637.64 1040.74C641.88 1036.43 646.36 1032.36 650.8 1028.25C651.5 1027.6 652.39 1026.8 653.22 1026.77C654.27 1026.73 655.82 1027.1 656.32 1027.85C657.22 1029.21 657.66 1030.95 658.02 1032.59C662.88 1054.66 672.28 1074.76 684.58 1093.57C686.95 1097.19 689.93 1100.41 692.64 1103.82C690.88 1109.82 686.51 1112.31 681.09 1113.58C679.68 1113.91 678.27 1114.24 676.87 1114.59C671.54 1115.91 667.3 1114.06 664.13 1109.83C661.81 1106.73 659.84 1103.38 657.71 1100.15C656.82 1098.76 655.91 1097.4 654.62 1095.48Z" fill="#0DFF9A"/>
<path d="M314.839 1079.55C314.899 1078.54 314.839 1078.25 314.939 1078.06C316.999 1074.3 316.379 1070.86 314.399 1067.14C311.449 1061.59 309.469 1055.61 307.789 1049.51C306.659 1045.4 307.029 1041.91 309.679 1038.63C314.079 1033.2 317.949 1027.3 323.969 1023.37C326.849 1021.49 329.789 1019.93 333.309 1019.73C346.869 1018.97 359.779 1021.45 372.039 1027.32C372.479 1027.53 372.919 1027.74 373.329 1027.98C379.839 1031.8 381.529 1037.28 377.969 1043.98C376.739 1046.3 375.169 1048.57 373.309 1050.42C368.509 1055.19 363.819 1060.14 357.779 1063.46C357.249 1063.75 356.939 1064.45 356.149 1065.43C358.129 1065.96 359.679 1066.59 361.289 1066.77C368.019 1067.55 374.769 1068.19 381.499 1068.91C384.079 1069.19 387.269 1068.68 388.269 1071.9C389.119 1074.64 386.599 1076.36 385.039 1078.01C375.479 1088.18 376.929 1086.91 365.159 1087.08C361.339 1087.14 357.469 1086.76 353.909 1087.65C353.629 1088.19 353.369 1088.46 353.429 1088.61C355.659 1094.05 353.629 1097.8 348.909 1100.72C346.039 1102.49 343.419 1104.65 340.669 1106.61C339.069 1107.76 337.339 1107.66 336.019 1106.36C334.499 1104.87 333.079 1103.19 331.969 1101.37C329.569 1097.45 327.269 1093.46 325.179 1089.37C323.339 1085.77 320.919 1082.97 317.109 1081.41C316.289 1081.07 315.659 1080.24 314.839 1079.55ZM331.749 1041.36C331.709 1046.88 334.649 1051.29 336.909 1056.29C338.819 1055.93 340.499 1055.83 342.009 1055.29C346.309 1053.75 350.549 1052.07 354.769 1050.33C355.309 1050.11 355.579 1049.24 355.969 1048.69C349.249 1042.99 339.839 1040.12 331.749 1041.36Z" fill="#0DFF9A"/>
<path d="M720.059 1080.05C723.919 1084.74 727.649 1087.65 732.069 1089.78C738.959 1093.08 746.369 1094.29 753.819 1095.34C757.399 1095.84 760.409 1094.2 763.479 1092.7C764.899 1092.01 766.329 1090.52 768.089 1092.01C769.299 1093.04 769.019 1094.61 767.519 1097.27C765.419 1101 762.149 1103.47 758.749 1105.82C756.759 1107.19 754.449 1108.16 752.649 1109.73C749.319 1112.63 745.459 1113.69 741.239 1113.8C727.519 1114.15 714.769 1111.34 703.989 1102.15C699.849 1098.62 696.949 1094.18 694.329 1089.51C690.879 1083.36 690.879 1083.37 685.879 1080.35C685.789 1079.88 685.449 1079.25 685.639 1078.97C688.179 1075.19 688.499 1070.97 688.799 1066.55C689.069 1062.5 690.419 1058.5 691.479 1054.53C691.769 1053.42 692.609 1052.39 693.379 1051.49C697.969 1046.09 703.489 1041.72 709.259 1037.7C710.549 1036.8 712.369 1036.34 713.969 1036.26C718.319 1036.03 722.699 1036.09 727.059 1036.07C734.089 1036.04 741.119 1036 748.149 1036.07C750.009 1036.09 752.129 1035.67 753.549 1038.04C752.909 1040.75 751.219 1043.15 749.049 1045C746.119 1047.52 742.929 1049.76 739.689 1051.88C736.829 1053.75 733.669 1054.76 730.129 1054.77C725.039 1054.78 719.949 1055.07 714.869 1055.38C713.249 1055.48 711.379 1055.61 711.059 1058.21C711.489 1058.49 711.999 1059.1 712.559 1059.16C723.189 1060.3 733.819 1061.09 744.119 1057.13C744.569 1056.96 745.059 1056.6 745.469 1056.67C746.349 1056.82 747.349 1057.02 747.979 1057.56C748.359 1057.89 748.379 1058.99 748.169 1059.6C746.659 1063.87 743.759 1067.09 740.179 1069.72C737.449 1071.72 734.709 1073.75 731.769 1075.39C729.479 1076.66 726.859 1077.34 724.389 1078.29C723.309 1078.71 722.249 1079.16 720.059 1080.05Z" fill="#0DFF9A"/>
<path d="M237.989 1070.66C237.989 1068.45 238.149 1066.8 237.959 1065.2C237.359 1060.15 236.709 1055.1 235.939 1050.07C235.129 1044.79 235.719 1040 239.559 1035.86C241.189 1034.11 242.209 1031.81 243.629 1029.86C246.059 1026.52 247.559 1025.64 252.229 1024.68C252.609 1025.66 253.229 1026.69 253.399 1027.79C255.289 1039.75 257.079 1051.73 258.969 1063.69C259.499 1067.03 260.289 1070.34 260.849 1073.68C261.279 1076.3 261.769 1078.94 261.789 1081.58C261.799 1083.18 261.299 1084.98 260.459 1086.34C257.129 1091.75 252.669 1096.19 247.769 1100.21C245.869 1101.76 243.869 1101.6 241.629 1100.82C232.899 1097.78 224.599 1093.86 216.729 1089.03C206.759 1082.91 197.759 1075.54 190.089 1066.71C186.939 1063.09 184.249 1058.99 181.799 1054.85C179.699 1051.3 179.549 1047.59 182.689 1044.16C186.109 1040.43 189.239 1036.43 192.539 1032.6C193.159 1031.88 193.959 1031.28 194.769 1030.75C196.329 1029.73 198.299 1030.3 198.889 1032.18C203.129 1045.7 213.769 1053.94 223.939 1062.52C227.069 1065.16 230.719 1067.18 234.209 1069.37C235.139 1069.95 236.349 1070.11 237.989 1070.66Z" fill="#0DFF9A"/>
<path d="M267.889 1047.3C268.299 1045.73 268.379 1043.61 269.349 1042.05C273.079 1036.02 277.909 1030.92 283.689 1026.79C285.519 1025.48 287.559 1026.55 287.969 1028.82C288.009 1029.06 288.059 1029.3 288.059 1029.54C288.009 1035.81 290.659 1041.27 293.109 1046.83C298.379 1058.8 303.609 1070.8 308.639 1082.88C311.399 1089.51 310.259 1093.05 304.559 1097.29C302.049 1099.16 299.389 1100.84 296.849 1102.68C294.259 1104.55 292.519 1104.42 290.929 1101.56C287.879 1096.05 284.979 1090.46 282.229 1084.79C278.959 1078.04 276.029 1071.12 272.719 1064.38C270.109 1059.07 269.229 1053.34 267.889 1047.3Z" fill="#0DFF9A"/>
<path d="M987.06 1079.22C986.65 1080.02 986.37 1080.98 985.77 1081.66C984.98 1082.55 984.03 1083.4 982.99 1083.94C977.82 1086.64 972.25 1088.3 966.61 1089.67C965.44 1089.95 963.39 1089.44 962.73 1088.55C960.14 1085.08 957.48 1081.59 956.16 1077.33C955.29 1074.53 955.66 1072.14 957.85 1070.02C962.72 1065.31 967.64 1060.67 973.57 1057.28C976.81 1055.43 978.99 1056.32 980.27 1059.87C981.91 1064.42 983.61 1068.94 985.24 1073.5C985.89 1075.32 986.42 1077.18 987.06 1079.22Z" fill="#0DFF9A"/>
<path d="M238.2 810.459C236.29 810.459 235.08 810.329 233.9 810.479C227.11 811.369 220.35 811.159 213.59 810.199C212.63 810.059 211.65 810.079 210.69 809.919C206.68 809.249 203.75 810.549 201.42 814.029C199.69 816.619 197.34 818.819 195.14 821.079C193.39 822.879 191.36 824.119 188.37 822.709C186.87 817.149 190.92 812.129 190.59 806.139C189.03 805.999 187.5 805.869 186.11 805.749C185.75 806.639 185.34 807.129 185.44 807.479C186.91 813.009 185.16 817.409 181.06 821.219C177.87 824.179 174.98 827.459 171.85 830.479C171.05 831.249 169.82 831.559 168.27 832.339C166.59 827.679 165.01 823.429 163.53 819.149C162.11 815.039 160.81 810.889 159.38 806.519C154.52 805.109 149.72 805.689 144.97 805.599C144.97 807.689 145.41 809.669 144.85 811.299C144.25 813.049 142.92 814.709 141.52 815.979C137.95 819.239 134.24 822.359 130.44 825.339C128.8 826.619 126.65 826.669 125.02 825.269C123.02 823.539 121.06 821.659 119.52 819.529C117.83 817.189 116.57 814.519 115.26 811.919C112.69 806.819 112.73 806.789 108.62 803.319C110.92 799.299 110.7 794.769 110.72 790.189C110.75 785.359 111.5 780.539 111.92 775.719C112.08 773.829 112.19 771.939 112.3 770.449C111.8 769.849 111.68 769.609 111.49 769.499C111.29 769.389 111.01 769.319 110.78 769.359C99.17 771.469 87.56 773.599 75.63 775.779C76.03 777.389 76.2 778.839 76.73 780.139C79.94 787.989 83.24 795.809 86.5 803.639C87.06 804.979 87.81 806.289 88.11 807.689C89.05 812.039 90.3 816.079 94.24 818.859C95.78 819.949 95.64 821.949 94.71 823.519C91.36 829.169 86.98 834.049 82.63 838.929C81.49 840.209 79.27 840.189 78.05 838.839C76.45 837.059 74.83 835.169 73.74 833.069C65.12 816.469 57.88 799.289 52.55 781.329C51.29 777.099 50.92 777.019 46.39 777.229C38.16 777.619 29.93 778.009 21.7 777.969C16.43 777.939 15.52 777.319 10.5 774.519C10.58 773.749 10.39 772.659 10.83 771.959C14.14 766.609 17.58 761.369 22.22 756.979C25.06 754.289 27.97 753.609 31.5 754.999C38.64 757.809 46.08 758.409 53.66 758.159C56.7 758.059 59.35 757.609 61.25 754.799C62.9 752.359 65.31 750.679 68.27 749.729C71.28 751.299 69.54 754.699 71.31 757.109C74.9 758.729 79.13 758.129 83.09 757.729C93.69 756.639 104.27 755.169 114.79 753.479C120.75 752.529 126.74 751.239 131.74 747.389C131.93 747.249 132.2 747.089 132.41 747.119C133.31 747.249 134.32 747.259 135.04 747.699C135.47 747.959 135.72 749.039 135.57 749.619C135.2 751.009 134.64 752.369 134 753.669C130.18 761.339 129.99 769.539 130.42 777.819C130.48 778.959 131.14 780.059 131.66 781.579C137.66 782.369 143.62 783.199 149.6 783.909C150.48 784.019 151.43 783.569 152.39 783.369C153.57 780.149 152.06 777.469 151.39 774.749C149.94 768.869 148.21 763.059 146.8 757.179C144.67 748.279 146.23 740.369 153.27 733.929C155.23 732.139 156.74 729.869 158.62 727.989C160.11 726.499 161.54 724.649 164.59 725.029C164.94 726.739 165.59 728.559 165.64 730.389C165.9 740.169 168.03 749.539 170.84 758.879C174.46 770.939 177.45 783.189 180.77 795.339C181.39 797.609 182.28 799.809 183.1 802.209C191.3 795.479 195.73 789.189 198.75 780.599C200.28 776.259 201.92 771.949 203.75 767.729C207.48 759.079 213.69 752.289 220.66 746.159C222.1 744.899 223.83 743.909 225.55 743.049C227.49 742.069 229.44 742.499 230.69 744.359C232.44 746.969 233.94 749.749 235.43 752.519C236.92 755.289 238.27 758.129 239.94 761.459C241.26 760.389 242.4 759.669 243.3 758.719C245.8 756.079 248.11 753.249 250.68 750.689C253.87 747.499 257.58 745.549 262.38 745.889C267.45 746.249 272.56 746.049 277.64 746.349C291.92 747.199 306.19 748.019 320.5 747.069C324.08 746.829 327.71 747.389 331.65 747.609C331.65 751.699 329.15 754.189 327.18 756.689C324.95 759.519 322.08 761.839 319.42 764.319C316.57 766.979 312.87 767.309 309.26 767.669C306.15 767.979 303.01 767.979 299.43 768.139C299.43 769.819 299.14 771.229 299.47 772.469C303.59 787.719 308.9 802.529 316.6 816.689C312.57 824.499 306.24 829.979 300.24 835.379C297.17 835.009 296.02 833.019 295.08 831.109C290.92 822.619 286.77 814.139 284.28 804.929C281.95 796.289 279.25 787.749 276.63 778.889C275.59 779.359 274.61 779.499 274.48 779.909C272.86 784.889 269.61 788.759 266.22 792.579C264.63 794.369 263.28 796.369 261.62 798.529C262.63 800.399 263.41 802.119 264.44 803.679C267.1 807.729 269.96 811.659 272.58 815.729C274.62 818.899 274.66 822.069 272.02 825.079C268.36 829.269 264.86 833.599 261.15 837.749C259.11 840.019 256.92 839.809 255.18 837.149C251.86 832.079 248.72 826.889 245.48 821.769C243.14 818.089 240.76 814.439 238.2 810.459ZM256.71 790.469C260.11 791.149 262.8 789.289 265.32 787.499C268.07 785.539 270.65 783.129 271.65 779.749C272.79 775.919 274.13 772.039 273.39 768.049C265.55 766.169 249.18 765.549 243.58 766.819C244.76 772.839 251.73 785.409 256.71 790.469ZM224.07 788.019C221.44 779.909 218.82 774.969 215.1 770.899C212.96 775.339 212.15 779.899 212.13 784.779C215.78 786.969 219.18 788.999 224.07 788.019Z" fill="#0DFF9A"/>
<path d="M137.709 486.16C137.359 484.23 137.199 482.34 136.659 480.57C134.809 474.48 134.319 468.21 133.829 461.92C133.519 457.9 134.369 454.23 136.929 451.01C139.489 447.78 141.849 444.39 144.549 441.29C146.119 439.49 148.119 438.04 150.059 436.61C151.309 435.69 153.219 436.58 153.429 438.08C153.599 439.27 153.669 440.5 153.619 441.7C153.329 448.81 154.489 455.73 156.329 462.54C158.289 469.78 160.419 476.98 162.529 484.19C162.859 485.32 163.479 486.38 164.099 487.76C166.059 487.76 167.959 487.74 169.869 487.76C173.299 487.81 175.559 486.69 177.269 483.24C180.639 476.45 185.979 471.03 191.569 465.98C192.729 464.94 194.489 464.33 196.079 464.04C207.039 462.04 218.109 460.75 229.239 460.32C233.789 460.14 238.359 460.57 242.879 460.72C244.109 463.56 243.699 465.67 241.979 467.74C240.129 469.96 238.429 472.3 236.729 474.64C235.229 476.71 233.329 478.04 230.739 478.31C227.609 478.63 224.479 479.03 221.349 479.34C216.589 479.81 211.779 479.93 207.189 481.63C217.689 483.12 228.219 483.17 239.269 482.96C239.329 484.09 239.809 485.37 239.379 486.16C237.539 489.52 236.049 493.13 232.489 495.3C230.879 496.28 229.549 497.85 228.359 499.36C226.399 501.86 223.849 502.91 220.819 503.16C216.009 503.56 211.199 503.97 205.809 504.42C206.349 505.73 206.559 506.9 207.209 507.72C215.349 518.01 226.199 522.41 239.109 521.87C241.179 521.78 243.219 520.64 245.229 519.86C247.009 519.17 248.719 518.3 250.469 517.54C250.639 517.47 250.909 517.64 251.639 517.84C251.589 518.6 251.779 519.58 251.419 520.28C250.099 522.84 248.909 525.58 247.069 527.74C244.419 530.87 241.169 533.47 238.329 536.45C234.199 540.77 228.969 542.34 223.259 542.71C204.409 543.93 185.989 531.06 180.679 512.84C179.259 507.97 178.359 502.94 177.199 497.99C176.989 497.11 176.669 496.25 176.399 495.38C175.659 495.63 175.099 495.66 174.789 495.96C168.849 501.64 168.889 501.63 172.129 509.36C173.819 513.38 175.269 517.5 176.989 521.5C177.829 523.46 177.889 525.27 176.759 527.03C175.209 529.46 173.589 531.85 171.899 534.2C171.349 534.97 170.509 535.53 169.779 536.18C167.079 538.59 164.369 540.99 161.329 543.7C160.239 542.45 159.039 541.58 158.519 540.4C155.049 532.67 151.719 524.88 148.359 517.11C147.309 514.69 146.309 512.24 145.249 509.73C140.899 508.89 136.919 508.76 133.119 509.84C132.349 511.72 133.489 512.39 134.399 513.1C136.099 514.42 137.859 515.66 139.539 516.9C139.419 520.51 138.369 523.01 135.289 524.98C131.659 527.3 128.569 530.43 125.159 533.1C122.369 535.28 120.209 535.34 117.139 533.36C112.539 530.4 109.199 526.21 106.609 521.51C103.929 516.65 101.659 511.56 99.069 506.29C97.289 505.47 95.139 504.48 93.309 503.63C92.479 500.95 93.639 499.39 94.919 497.9C96.229 496.37 97.109 494.67 96.989 492.62C96.759 488.53 96.439 484.45 96.169 480.51C95.259 480.27 94.739 479.95 94.339 480.06C86.209 482.31 78.089 484.6 69.659 486.98C69.679 490.26 70.919 493.11 71.839 496.07C74.279 503.93 76.779 511.78 78.859 519.74C80.029 524.2 78.349 528.39 75.799 532.06C73.729 535.03 71.329 537.77 69.029 540.58C67.309 542.68 65.169 542.72 63.639 540.45C62.589 538.9 61.729 537.08 61.289 535.26C57.919 521.37 52.959 507.89 50.509 493.76C50.269 492.37 49.699 491.04 49.149 489.25C47.339 489.25 45.689 489.15 44.059 489.27C34.149 489.99 24.239 490.77 14.329 491.49C12.199 491.65 9.75898 492.24 8.49898 489.81C7.45898 487.81 8.84898 486.1 9.86898 484.48C11.949 481.21 14.009 477.92 16.199 474.72C19.099 470.47 22.989 467.89 28.339 467.92C30.759 467.93 33.189 467.67 35.609 467.73C43.859 467.94 52.049 467.68 60.249 466.35C65.719 465.46 71.359 465.72 76.899 465.21C85.119 464.45 93.209 462.94 101.019 460.11C105.159 458.61 109.099 456.82 112.329 453.71C112.849 453.21 113.419 452.73 114.029 452.36C115.479 451.48 117.879 452.7 117.829 454.39C117.779 456.06 117.569 457.78 117.089 459.38C114.969 466.39 116.469 473.34 117.229 480.31C117.429 482.11 118.429 483.57 120.299 483.96C125.269 485 130.249 485.96 135.239 486.86C135.869 486.95 136.589 486.49 137.709 486.16Z" fill="#0DFF9A"/>
<path d="M762.629 505.219C762.909 509.109 764.639 511.759 765.889 514.549C766.479 515.869 767.399 517.049 767.909 518.399C769.179 521.739 769.429 524.859 766.529 527.779C764.509 529.819 762.819 532.139 760.449 533.919C757.779 535.929 755.469 538.409 752.839 540.829C750.599 539.319 748.629 537.989 746.309 536.419C741.719 540.139 737.069 543.909 732.159 547.879C730.899 546.929 729.529 546.299 728.719 545.239C724.899 540.239 721.219 535.129 717.529 530.029C716.399 528.479 715.399 526.839 714.299 525.189C711.549 525.879 709.049 526.839 706.489 527.039C703.869 527.249 701.189 526.659 698.519 526.539C692.459 526.289 686.399 526.139 680.349 525.899C675.749 525.709 671.139 525.559 666.559 525.139C663.939 524.899 661.919 525.679 659.969 527.349C656.129 530.619 652.149 533.739 648.289 536.869C645.959 536.339 645.549 534.499 645.519 532.939C645.339 522.999 645.129 513.019 647.609 503.279C648.319 500.479 649.239 497.629 650.629 495.119C657.069 483.499 665.649 473.769 676.699 466.269C681.139 463.259 685.729 462.999 690.529 464.979C692.539 465.809 694.459 466.879 696.319 468.019C710.359 476.589 722.789 486.829 730.949 501.519C732.809 504.859 735.169 507.919 737.599 511.559C739.229 509.689 738.709 507.989 738.619 506.469C738.399 502.609 738.019 498.749 737.819 494.889C737.649 491.609 738.689 488.549 740.579 485.999C745.049 479.939 749.999 474.299 755.929 469.559C758.609 467.409 761.239 467.279 763.949 469.059C766.569 470.789 769.189 472.589 771.529 474.669C779.879 482.079 788.079 489.649 796.389 497.099C799.459 499.849 802.649 502.469 805.849 505.069C806.699 505.769 807.789 506.179 808.729 506.699C809.959 505.079 808.879 504.089 808.589 502.979C807.059 497.129 805.479 491.289 804.069 485.399C803.019 481.019 804.409 477.279 807.589 474.159C811.049 470.769 814.409 467.289 817.999 464.039C819.149 462.999 820.869 462.599 822.569 461.799C823.149 463.099 823.829 463.949 823.869 464.819C824.169 472.739 827.219 479.929 829.679 487.269C832.749 496.469 835.859 505.659 838.879 514.879C839.399 516.479 839.529 518.209 839.899 519.859C840.899 524.249 839.579 527.859 836.649 531.229C832.789 535.669 827.869 538.799 823.419 542.509C820.919 544.589 817.859 544.299 815.129 543.039C811.829 541.529 808.559 539.859 805.559 537.839C793.899 529.999 782.259 522.109 772.219 512.139C770.159 510.089 767.859 508.279 765.599 506.459C764.939 505.939 764.009 505.779 762.629 505.219ZM699.279 505.009C691.819 496.689 684.209 491.639 676.149 487.229C674.699 486.439 672.959 486.129 671.309 485.799C669.739 485.479 668.439 486.099 667.799 487.639C665.759 492.569 665.469 497.769 665.149 502.849C670.859 503.309 676.089 503.799 681.329 504.139C686.769 504.489 692.219 504.679 699.279 505.009Z" fill="#0DFF9A"/>
<path d="M619.139 533.34C615.909 541.07 608.389 543.26 603.219 547.69C600.369 547.9 598.679 546.55 597.299 544.8C594.759 541.56 592.319 538.24 589.819 534.97C589.119 534.05 588.339 533.2 587.609 532.33C584.349 535.27 581.499 538.09 578.389 540.59C575.389 543 572.119 545.08 569.079 547.23C565.199 546.84 562.749 544.53 560.399 542.03C553.889 535.11 548.229 527.56 543.349 519.41C542.409 517.84 541.169 516.46 539.799 514.64C538.819 515.85 537.989 516.49 537.689 517.32C534.989 524.61 528.339 528.29 523.099 533.21C520.709 535.45 517.729 534.76 514.899 533.46C507.939 530.26 502.199 525.48 497.079 519.89C494.659 517.24 492.299 514.54 488.939 510.77C489.159 513.5 489.069 514.85 489.399 516.1C490.299 519.5 489.189 522.67 487.169 524.96C483.189 529.46 478.629 533.45 474.269 537.61C473.979 537.88 473.349 537.79 472.439 537.94C471.889 536.84 470.859 535.66 470.729 534.39C470.169 529.09 469.719 523.77 469.539 518.45C469.389 513.86 469.029 509.13 469.879 504.68C471.189 497.83 471.919 490.79 474.739 484.28C475.029 483.61 475.179 482.85 475.609 482.29C480.769 475.59 485.819 468.78 492.579 463.97C494.999 463.75 496.109 465.11 496.889 466.61C497.669 468.09 498.279 469.72 498.649 471.36C501.549 484.19 509.309 494.01 518.219 503.11C518.859 503.77 519.759 504.18 520.369 504.59C522.459 503.97 522.379 502.31 522.679 501C523.319 498.17 523.929 495.31 524.299 492.43C525.539 482.71 530.929 475.5 538.029 469.27C539.669 467.83 541.109 466.17 542.779 464.78C544.439 463.4 546.879 464.1 547.519 466.09C547.959 467.46 548.199 468.92 548.399 470.35C549.049 475.23 550.529 479.88 553.009 484.06C558.699 493.64 564.309 503.3 570.599 512.49C574.099 517.59 578.049 522.59 583.079 526.44C584.489 525.33 583.429 524.57 583.069 523.86C579.949 517.83 576.569 511.93 573.699 505.79C570.619 499.19 568.629 492.34 568.769 484.81C568.849 480.45 570.239 476.88 572.839 472.85C570.119 472.58 568.109 472.39 565.659 472.14C565.909 470.64 565.719 469.22 566.339 468.46C570.159 463.81 573.219 458.5 578.349 454.97C581.949 452.49 585.479 451.55 589.939 452.46C597.769 454.06 605.649 455.2 613.229 458.03C622.579 461.52 631.479 465.85 639.999 470.97C647.469 475.46 649.499 482.46 645.809 490.37C644.999 492.11 644.009 493.86 642.749 495.28C634.629 504.41 625.939 512.8 613.699 516.27C613.019 516.46 612.389 516.87 611.769 517.21C611.579 517.32 611.459 517.57 611.059 518.07C612.259 523.63 617.549 527.32 619.139 533.34ZM590.529 476.97C591.709 485.45 596.399 495.84 601.549 501.51C609.199 501.6 616.699 500.05 623.969 497.26C624.959 496.88 625.759 495.98 626.609 495.34C623.249 489.81 621.199 488.09 613.399 484.03C602.309 478.27 597.059 476.59 590.529 476.97Z" fill="#0DFF9A"/>
<path d="M979.37 514.28C980.34 513.62 981.34 512.97 982.31 512.27C984.53 510.66 986.77 510.74 989.12 512C991.47 513.26 993.86 514.43 996.25 515.6C1004.57 519.67 1013.49 521.92 1022.38 524.3C1022.78 524.41 1023.28 524.17 1023.75 524.09C1024.78 522.78 1023.8 521.85 1023.06 520.97C1018.33 515.38 1012.91 510.5 1006.65 506.74C999.39 502.38 991.88 498.44 984.46 494.35C981.71 492.83 978.86 491.47 976.14 489.89C974.69 489.05 973.3 488.01 972.08 486.86C967.95 482.95 967.69 480.65 971.19 476.25C973.45 473.41 976.04 470.85 978.49 468.17C982.93 463.3 987.8 460.81 995.02 461.47C1007.18 462.59 1019.06 464.16 1030.19 469.49C1033.07 470.87 1035.66 472.58 1037.67 475.11C1038.99 476.77 1039.42 478.5 1038.4 480.49C1036.32 484.54 1034.26 488.6 1031.91 493.21C1033.73 495.08 1035.89 497.3 1038.06 499.51C1042.3 503.83 1046.37 508.27 1049.21 513.7C1053.19 521.33 1052.68 527.37 1046.7 533.55C1042.86 537.53 1038.55 541.09 1034.18 544.5C1032.56 545.76 1030.22 546.55 1028.16 546.69C1024.32 546.94 1020.29 547.16 1016.6 546.3C1007.41 544.17 998.32 541.58 989.29 538.85C986.59 538.03 983.94 536.48 981.73 534.7C979.46 532.86 977.85 530.38 979.42 527.03C979.87 526.08 979.86 524.58 979.43 523.62C978.05 520.49 978.63 517.48 979.37 514.28ZM1023.97 487.1C1023.69 486.75 1023.43 486.38 1023.11 486.07C1023.06 486.02 1022.73 486.25 1022.53 486.35C1022.84 486.7 1023.13 487.07 1023.47 487.38C1023.52 487.43 1023.8 487.21 1023.97 487.1Z" fill="#0DFF9A"/>
<path d="M964.78 518.199C965.08 523.879 962.68 527.139 959.67 529.919C956.84 532.539 953.65 534.759 950.68 537.249C947.74 539.709 944.37 540.599 940.59 540.649C922.85 540.909 907.91 534.419 895.88 521.589C891.59 517.019 888.48 511.369 886.7 505.259C885.07 499.669 885.84 494.199 889 489.229C890.53 486.819 892.28 484.539 894.07 482.009C892.18 481.489 890.67 481.069 888.75 480.539C889.71 478.699 890.27 477.069 891.28 475.799C895.82 470.059 901.29 465.289 907.25 461.089C908.21 460.409 909.4 459.879 910.55 459.659C917.69 458.309 924.85 457.209 932.18 458.039C936.66 458.549 940.32 461.019 944.37 462.559C945.64 463.039 946.05 465.299 945.13 466.379C941.54 470.569 937.86 474.699 934.64 478.369C926.14 478.229 918.42 478.089 910.69 478.019C910.04 478.009 909.38 478.519 908.34 478.949C907.21 483.439 907.5 487.799 909.99 492.359C912.34 491.909 914.61 491.209 916.9 491.109C919.29 491.009 921.71 491.499 924.12 491.709C925.81 491.859 927.5 492.049 929.19 492.099C935.23 492.259 941.28 492.339 947.32 492.509C948.93 492.549 950.53 492.809 952.59 493.009C952.26 494.359 952.23 495.329 951.8 496.079C948.59 501.699 943.48 505.519 938.41 509.159C936.01 510.889 932.55 511.149 929.06 512.239C929.59 513.029 929.88 513.949 930.5 514.309C935.33 517.169 940.51 519.099 946.05 520.139C952.13 521.289 958.05 520.959 964.78 518.199Z" fill="#0DFF9A"/>
<path d="M405.41 542.91C399.2 542.62 394.18 542.52 389.65 539.51C379.12 532.52 374.85 517.82 380.72 506.02C387.31 492.79 397.03 482.04 408.97 473.39C412.55 470.8 416.6 469.31 421.26 470.58C422.56 470.94 424.11 470.77 425.47 470.49C427.6 470.04 429.62 469.1 431.76 468.72C433.87 468.35 436.15 468 438.21 468.39C448.43 470.32 457.19 475.14 464.88 482.14C469.86 486.66 470.21 492.27 468.93 498.12C468.27 501.12 466.71 504.01 465.1 506.68C459.69 515.69 452.49 523.19 444.6 530.05C441.66 532.61 438.17 534.15 434.48 535.56C428.13 538 421.82 540.429 415.09 541.569C411.52 542.169 407.91 542.57 405.41 542.91ZM406.03 489.9C399.95 492.29 398.22 493.53 397.19 497.35C393.69 510.34 402.51 520.01 411.42 520.84C419.74 521.61 427.88 521.06 435.89 519.1C439.84 518.13 443.63 516.41 447.38 514.78C450.93 513.23 452.01 510.19 451.88 506.45C451.61 499.07 447.04 492.48 439.64 490.05C430.53 487.06 421.54 487.04 413.37 493.01C411.62 494.29 410.09 495.86 408.4 497.21C407.33 498.06 406.13 498.76 404.81 499.64C402.23 495.66 406.17 493.08 406.03 489.9Z" fill="#0DFF9A"/>
<path d="M375.48 516.149C372.77 522.659 368.75 527.528 363.96 531.568C361.48 533.658 358 534.719 354.81 535.779C345.91 538.749 336.8 539.589 327.55 537.649C317.08 535.449 308.94 530.099 303.26 520.739C298.08 512.199 296.28 503.258 298.23 493.588C298.79 490.778 299.78 487.938 301.17 485.438C307.28 474.498 315.59 465.389 325.36 457.629C331.35 452.869 338.05 451.919 345.24 454.499C349.8 456.129 354.47 457.519 358.86 459.529C371.87 465.499 373.43 481.419 366.22 488.729C362.99 491.999 360 495.509 356.79 498.799C355.53 500.089 353.91 500.589 352.19 499.419C350.86 498.519 350.25 497.308 350.59 495.698C350.64 495.458 350.67 495.219 350.73 494.989C352.45 488.249 349.35 483.228 344.9 478.708C340.29 474.028 334.5 472.699 328.21 473.149C326.3 473.289 324.41 473.899 322.52 474.349C318.67 475.259 316.93 477.869 316.66 481.679C316.15 488.979 318.07 495.699 321.96 501.749C329.12 512.899 339.76 517.818 352.75 517.968C357.84 518.028 362.93 517.599 367.85 516.009C371.08 514.959 371.11 515.059 375.48 516.149Z" fill="#0DFF9A"/>
<path d="M887.02 529.709C886.55 532.499 885.16 534.839 882.63 536.669C879.9 538.649 877.5 541.069 874.83 543.139C873.51 544.159 871.98 544.949 870.46 545.639C868.78 546.399 867.1 546.049 865.72 544.849C864.63 543.899 863.61 542.859 862.66 541.759C853.49 531.169 846.71 519.339 843.87 505.459C842.9 500.709 842.19 495.959 842.25 491.069C842.31 485.499 843.89 480.659 847.87 476.639C849.21 475.279 850.53 473.759 851.36 472.069C853.42 467.879 857.01 465.699 860.95 463.529C863.49 465.609 863.86 468.169 864.05 470.819C864.34 474.919 864.71 479.009 864.94 483.109C865.51 493.049 869.43 501.909 874.2 510.329C877.87 516.829 882.41 522.819 887.02 529.709Z" fill="#0DFF9A"/>
<path d="M656.469 618.36C655.189 621.19 653.319 623.04 651.509 624.9C650.329 626.11 648.889 627.05 647.699 628.25C644.269 631.71 640.229 633.37 635.289 633.25C631.459 633.16 627.539 632.86 623.959 633.97C622.669 636.14 623.369 637.989 623.969 639.829C626.369 647.189 628.749 654.55 631.219 661.88C631.599 663 632.359 664 633.009 665.02C633.789 666.25 634.939 667.33 635.389 668.66C636.479 671.84 637.629 675.08 638.059 678.39C638.429 681.27 635.629 683.03 634.099 685.09C631.799 688.18 628.989 690.91 626.209 693.6C624.099 695.65 621.709 695.1 620.299 692.41C612.499 677.53 606.429 662.01 602.899 645.52C602.049 641.52 600.689 637.64 599.479 633.41C590.329 632.6 581.429 632.46 572.919 632.3C568.249 635.97 565.979 641.119 561.539 644.199C560.949 644.609 560.519 645.23 559.969 645.72C558.709 646.84 557.529 648.24 555.559 647.66C552.999 646.9 553.639 644.659 553.409 642.829C553.119 640.419 553.029 637.96 552.439 635.63C551.409 631.56 549.029 628.92 544.469 628.38C538.139 627.62 532.489 629.39 527.059 632.3C525.329 633.23 524.949 634.87 525.219 636.68C525.749 640.15 527.269 643.18 529.849 645.53C531.809 647.32 533.899 649.03 536.149 650.43C548.159 657.86 561.029 662.1 575.409 661.02C579.769 660.69 584.089 660.769 588.029 658.439C588.499 658.159 589.369 658.58 590.459 658.73C590.049 659.79 589.939 660.82 589.369 661.43C585.599 665.53 581.979 669.82 577.819 673.5C573.119 677.67 567.039 678.98 560.949 679.49C550.439 680.37 540.139 679.1 530.169 675.54C528.799 675.05 527.479 674.43 526.079 674.06C524.579 673.66 523.279 674.11 522.199 675.35C519.349 678.62 516.369 681.78 513.559 685.1C511.319 687.74 508.519 689.06 505.199 688.48C492.789 686.31 480.429 683.949 469.219 677.689C465.319 675.509 461.979 672.68 459.499 669.1C456.339 664.53 453.569 659.68 450.829 654.84C448.349 650.46 448.059 645.509 448.379 640.689C448.549 638.159 449.879 635.62 451.089 633.29C452.169 631.19 453.799 629.36 455.459 627.01C452.819 625.79 450.539 627.199 448.309 627.079C446.189 626.959 444.049 627.05 441.559 627.05C441.729 625.9 441.619 624.86 442.039 624.12C445.379 618.14 449.669 612.87 454.899 608.47C456.469 607.15 458.699 606.37 460.749 605.92C463.329 605.36 466.039 605.29 468.709 605.18C477.909 604.83 487.109 604.56 496.309 604.25C497.039 604.23 497.769 604.22 498.489 604.16C500.339 604.02 502.059 604.57 502.809 606.22C503.609 608 502.479 609.41 501.029 610.54C498.729 612.31 496.329 613.99 494.259 616C488.769 621.36 482.179 623.87 474.619 624.13C473.889 624.16 473.169 624.24 472.449 624.34C467.409 625.06 467.069 625.699 468.989 631.449C474.069 632.059 479.329 631.35 484.579 631.17C488.209 631.04 491.839 630.87 495.449 630.53C498.569 630.23 501.659 629.65 504.769 629.23C505.889 629.08 507.029 629.07 508.489 628.97C507.979 633.09 505.569 635.51 503.229 637.89C500.349 640.82 497.459 643.769 494.269 646.329C492.459 647.789 490.129 648.76 487.889 649.47C485.179 650.33 482.299 650.69 479.679 651.23C479.109 653.03 479.999 653.9 480.949 654.65C485.779 658.43 491.239 661.04 497.009 662.98C501.809 664.6 506.689 665.979 511.509 667.449C513.169 665.689 511.539 664.7 510.669 663.79C507.359 660.32 505.399 656.35 505.079 651.49C504.909 648.97 505.159 646.62 506.399 644.47C508.089 641.54 509.709 638.5 511.809 635.88C516.519 630.02 521.599 624.5 527.319 619.56C533.319 614.38 540.199 610.98 547.629 608.55C548.549 608.25 549.509 608.07 550.459 607.91C559.319 606.38 565.209 608.69 570.889 616.11C571.629 615.9 572.669 615.87 573.359 615.37C577.349 612.49 581.869 612.15 586.549 612.38C593.809 612.72 601.079 613.31 608.339 613.24C618.999 613.14 629.559 614.78 640.209 614.65C642.359 614.63 644.569 615 646.669 615.51C649.749 616.23 652.709 617.24 656.469 618.36Z" fill="#0DFF9A"/>
<path d="M346.99 655.489C344.34 655.179 343.35 656.689 342.38 658.029C339.88 661.489 336.58 662.729 332.34 662.599C324.11 662.339 315.87 662.419 307.63 662.369C305.95 662.359 304.28 662.369 302.74 662.369C301.43 664.839 303.02 666.359 303.85 667.959C305.68 671.479 305.05 674.809 302.42 677.289C298.92 680.589 294.93 683.379 291.04 686.239C290.41 686.699 289.09 686.689 288.31 686.369C287.02 685.819 285.79 684.969 284.77 683.989C283.92 683.179 283.36 682.029 282.74 680.989C276.26 670.159 270.76 658.879 266.59 646.949C265.04 642.529 264.26 638.109 264.84 633.399C265.16 630.779 264.9 628.089 264.9 626.079C266.42 623.099 268.45 621.479 269.37 618.759C270.79 614.549 274.87 612.239 278.66 610.029C283.36 607.299 288.6 606.039 293.83 605.339C300.04 604.509 306.36 604.489 312.64 604.209C319.41 603.909 325.41 606.769 331.34 609.379C333.62 610.389 335.49 612.689 337.13 614.739C339.4 617.579 339.7 620.929 338.45 624.379C336.93 628.579 334.28 632.009 331.1 635.039C329.37 636.689 327.58 638.229 326.74 640.799C329.79 642.449 332.68 643.299 335.86 643.449C339 643.599 342.15 643.959 345.25 644.479C347.58 644.869 349.85 645.649 352.71 646.409C355.16 644.499 357.91 642.369 357.86 638.089C357.84 636.759 358.56 635.209 359.4 634.119C363.1 629.329 366.95 624.649 370.77 619.959C373.47 616.639 377.13 615.499 381.19 616.099C386.68 616.909 392.26 617.629 396.22 622.359C397.1 623.419 398.61 623.969 399.87 624.689C405.24 627.739 409.29 632.249 413.29 636.819C414.84 638.579 415.25 640.609 415.04 642.899C414.51 648.749 411.59 653.409 407.85 657.659C405.61 660.199 403.21 662.599 400.93 665.099C397.38 668.989 393.04 671.559 387.89 672.519C382.66 673.499 377.39 674.329 372.1 674.969C366.75 675.609 361.44 675.249 356.35 673.259C349.08 670.429 346.33 666.009 346.86 658.089C346.9 657.369 346.93 656.669 346.99 655.489ZM395.08 652.669C393.81 648.119 393.47 647.439 390.7 645.179C387.1 642.229 382.98 640.249 378.55 638.879C372.54 637.009 371.32 637.359 367.37 642.309C366.64 643.229 366.17 644.359 365.67 645.229C366.89 649.759 370.14 651.809 373.95 652.929C379.08 654.439 384.35 655.199 389.7 654.169C391.54 653.809 393.3 653.179 395.08 652.669ZM313.4 630.089C304.51 624.409 294.65 623.209 286.68 626.349C286.14 629.329 287.71 631.769 288.88 634.679C297.3 635.759 304.56 632.229 313.4 630.089Z" fill="#0DFF9A"/>
<path d="M54.4699 605.649C52.7399 607.099 51.2199 608.299 49.7799 609.589C48.4299 610.799 45.9199 610.059 45.0499 612.259C46.4699 613.239 47.5199 612.229 48.5399 611.879C62.3199 607.229 76.0499 602.419 89.8699 597.859C93.0499 596.809 96.4799 596.259 99.8299 596.059C103.55 595.839 105.16 598.509 103.65 601.849C103.06 603.159 102.32 604.469 101.37 605.529C97.8199 609.489 94.1699 613.359 90.5099 617.229C89.2899 618.519 87.7399 618.869 85.9199 618.959C83.0499 619.089 80.1299 619.459 77.3499 620.179C69.1399 622.309 60.9799 624.639 52.8199 626.959C51.4799 627.339 50.2499 628.079 48.3599 628.929C51.9699 630.849 55.1299 630.199 58.1899 630.159C66.6799 630.059 75.1599 629.689 83.6399 629.859C89.1999 629.969 94.7999 630.489 100.28 631.429C106.73 632.539 107.74 635.929 103.81 641.139C100.28 645.819 95.8199 649.549 91.5899 653.529C89.3899 655.599 86.5799 656.379 83.7599 657.179C76.7699 659.179 69.7799 661.169 62.8299 663.319C58.4799 664.659 54.1499 666.139 50.4299 668.629C50.4699 670.789 51.9899 670.719 52.9999 670.879C60.4299 672.069 67.8899 672.829 75.4299 672.499C79.5499 672.319 83.6799 672.369 87.7799 672.039C91.6099 671.729 95.3999 671.059 99.7299 670.479C99.0499 674.169 98.2399 676.979 95.5199 679.029C91.0799 682.379 86.8599 686.049 82.3299 689.259C80.4199 690.609 77.9899 691.519 75.6799 691.969C62.6799 694.489 49.6099 694.249 36.5799 692.279C34.0099 691.889 31.4399 690.829 29.1399 689.589C25.0699 687.389 24.0099 684.239 25.4999 679.779C25.9499 678.419 26.6099 677.089 27.4199 675.899C33.6099 666.799 40.4799 658.379 50.5599 653.239C50.9499 653.039 51.2099 652.569 51.8399 651.869C49.1199 650.379 46.3699 650.689 43.5899 650.759C36.8099 650.909 30.0299 650.999 23.2499 650.899C20.8599 650.859 18.3799 650.489 16.1099 649.749C11.1399 648.139 9.77992 644.679 12.3699 640.149C17.7599 630.719 24.7199 622.799 34.6999 617.959C36.5999 617.039 38.4599 616.049 40.9399 614.779C31.2899 610.009 23.8199 603.699 17.2999 596.179C15.9299 594.599 14.7499 592.919 15.9199 590.979C19.8999 584.419 23.2699 577.309 30.1799 573.539C33.1199 573.659 34.4299 575.639 35.8299 577.169C41.0799 582.879 46.1899 588.719 51.2699 594.589C53.8699 597.609 55.6599 600.989 54.4699 605.649Z" fill="#0DFF9A"/>
<path d="M166.959 626.62C163.479 624.95 160.429 626.61 156.839 626.74C156.699 625.66 156.129 624.39 156.509 623.54C159.139 617.57 161.699 611.49 167.749 608.01C169.829 606.81 171.909 605.39 174.179 604.76C177.939 603.72 181.639 602.749 184.459 599.189C185.779 600.379 186.539 601.199 187.429 601.829C188.349 602.489 189.369 603.349 190.409 603.449C196.899 604.079 203.419 604.5 209.919 605.03C212.089 605.21 214.279 605.34 216.399 605.76C223.519 607.17 230.649 608.339 237.869 609.209C243.059 609.829 248.219 611.77 253.059 613.89C258.879 616.43 259.799 621.22 256.909 625.79C250.699 635.6 243.479 644.29 231.209 646.51C224.559 647.71 217.829 648.5 211.129 649.5C209.769 649.71 208.429 650.059 206.659 650.439C208.379 659.049 213.769 665.61 216.379 673.14C214.989 678.44 212.549 682.639 207.619 685.219C205.749 686.199 204.409 688.139 202.699 689.469C201.209 690.629 199.399 690.48 198.089 689.12C197.099 688.09 196.309 686.86 195.539 685.65C191.749 679.71 189.149 673.2 186.229 666.81C181.899 657.35 176.929 648.2 172.309 638.87C170.929 636.07 169.829 633.13 168.589 630.26C168.019 628.94 167.419 627.65 166.959 626.62ZM195.519 626.28C197.699 631.7 197.949 632.03 201.699 631.77C205.529 631.5 209.339 630.979 213.139 630.449C214.059 630.319 215.469 630.739 215.909 628.839C209.309 627.209 202.869 625.73 195.519 626.28Z" fill="#0DFF9A"/>
<path d="M432.291 597.18C432.791 597.97 433.561 598.68 433.691 599.49C434.121 602.11 434.611 604.77 434.561 607.41C434.401 615.78 436.471 623.7 438.941 631.58C442.921 644.28 447.061 656.93 450.671 669.73C452.701 676.93 454.161 684.34 455.211 691.74C457.111 705.16 452.011 715.89 441.461 724.15C438.991 726.09 436.561 728.16 433.851 729.71C427.591 733.29 423.121 732.68 418.131 727.62C415.091 724.54 412.191 721.35 410.281 717.28C408.131 712.7 405.271 708.46 402.991 703.93C399.711 697.41 398.901 690.62 401.501 683.61C402.421 681.13 403.211 678.61 404.131 676.14C404.551 675.01 405.051 673.85 407.091 674.14C407.151 675.42 407.341 676.77 407.251 678.1C406.741 685.62 409.401 691.78 414.761 697.02C420.031 702.17 425.941 706.27 432.721 709.11C433.561 709.46 434.531 709.53 435.591 709.76C436.871 706.92 436.291 704.26 435.801 701.74C434.181 693.44 432.441 685.21 429.631 677.16C425.731 665.98 421.521 654.8 419.661 643.05C418.611 636.42 416.751 629.81 417.361 622.98C417.511 621.34 417.631 619.31 418.611 618.2C422.061 614.26 423.031 609.14 425.491 604.75C427.581 601 427.481 600.83 432.291 597.18Z" fill="#0DFF9A"/>
<path d="M680.37 655.34C684.29 658.33 687.51 660.79 690.67 663.2C692.2 661.87 691.19 661.09 690.57 660.53C686.62 656.96 682.64 653.43 678.6 649.97C674.92 646.82 671.03 643.92 667.47 640.64C664.76 638.13 664.77 636.8 666.79 633.67C667.71 632.25 668.75 630.88 669.96 629.7C674.12 625.64 678.24 621.51 682.67 617.75C684.63 616.09 687.2 614.6 689.68 614.2C700.29 612.48 710.92 612.55 721.41 615.38C721.64 615.44 721.89 615.47 722.12 615.52C724.36 615.98 726.63 616.87 727.03 619.25C727.5 621.99 726.2 624.42 723.96 626.18C723.01 626.92 722.06 627.87 720.96 628.16C717.13 629.17 714.04 630.95 711.31 634C710.01 635.46 707.03 635.41 704.41 636.16C707.69 639.63 710.87 642.91 713.95 646.28C717.39 650.04 720.76 653.84 723.1 658.45C725.1 662.39 725.65 666.28 723.4 670.24C721.97 672.75 720.8 675.6 718.8 677.56C714.67 681.61 710.24 685.4 705.61 688.88C701.5 691.97 696.46 692.2 691.63 691.27C687.86 690.54 684.14 689.2 680.61 687.64C676.31 685.75 674.79 682.16 675.59 677.48C675.99 675.11 676.33 672.73 676.55 670.34C676.99 665.39 677.93 660.57 680.37 655.34Z" fill="#0DFF9A"/>
<path d="M82.3887 708.809C82.7887 707.249 82.8887 704.919 83.9387 703.159C86.5287 698.819 89.4287 694.649 92.4787 690.609C93.7587 688.919 95.6387 687.639 97.4087 686.409C98.0687 685.949 99.3687 685.829 100.059 686.179C100.749 686.519 101.199 687.609 101.459 688.459C101.649 689.099 101.449 689.899 101.289 690.589C99.9887 696.069 101.599 700.619 105.759 704.259C108.089 706.299 108.449 708.719 107.579 711.459C107.299 712.339 106.839 713.529 106.139 713.839C103.299 715.109 101.269 717.829 97.9687 718.279C96.5487 718.469 95.1487 718.949 93.7987 719.459C91.7687 720.219 89.7987 721.409 87.6287 719.989C85.3187 718.479 83.6887 716.419 83.0787 713.699C82.7687 712.289 82.6687 710.839 82.3887 708.809Z" fill="#0DFF9A"/>
<path d="M391.81 33.2691C391.65 34.3091 391.52 34.5791 391.59 34.7691C395.98 46.3391 395.57 46.2691 407.64 45.4291C412.24 45.1091 416.83 44.7591 421.44 44.6291C424.48 44.5391 425.94 46.6292 424.88 49.3992C424.37 50.7292 423.63 52.0591 422.69 53.1091C417.99 58.2991 413.22 63.4491 405.96 65.5391C405.83 68.8491 407.01 71.7891 408.28 74.5791C411.18 80.9791 414.13 87.3791 417.55 93.5091C419.37 96.7791 419.08 99.4691 417.29 102.309C416.52 103.529 415.6 104.709 414.55 105.679C411.16 108.789 407.72 111.859 404.2 114.829C401.78 116.869 400.05 116.539 398.3 113.649C396.29 110.329 394.19 107.019 392.68 103.469C389.65 96.3391 387.04 89.0291 384.18 81.8191C382.67 77.9891 381.08 74.1891 379.39 70.4291C378.59 68.6591 377.05 68.0892 374.72 68.8392C374.45 69.9592 373.95 71.2892 373.83 72.6492C373.43 77.1692 371.56 81.0091 368.87 84.5691C364.9 89.8091 360.33 94.4991 355.44 98.8591C351.4 102.449 346.74 105.039 341.52 106.509C333.57 108.749 325.42 109.939 317.22 110.779C314.34 111.079 311.41 110.989 308.64 109.729C306.79 108.889 305.55 107.849 304.93 105.679C304.29 103.429 303 101.289 301.64 99.3491C295.23 90.2191 288.63 81.2491 283.04 71.5591C280.31 66.8391 279.6 61.4891 277.33 56.6691C276.98 55.9291 277.38 54.7792 277.58 53.8392C277.97 51.9592 278.46 50.0991 278.96 48.0091C276.61 45.5491 273.81 45.8391 270.5 46.0691C270.72 47.2891 270.74 48.2091 271.04 49.0091C275.85 61.6891 280.76 74.3391 285.52 87.0491C288.74 95.6491 288.69 96.4091 282.81 103.489C279.44 107.549 276.06 111.719 271.12 114.799C269.71 114.199 268.04 113.789 266.73 112.869C261.17 108.979 255.59 105.089 250.24 100.919C240.08 93.0091 229.46 85.7891 218.54 78.9891C216.51 77.7291 214.3 76.7391 212.28 75.6891C210.27 77.2391 211.02 78.9891 211.36 80.5091C212.54 85.8891 211.07 90.4391 207.41 94.4191C204.78 97.2691 202.24 100.209 199.55 102.989C198.78 103.779 197.61 104.189 196.21 105.019C194.86 102.139 193.68 99.6291 192.63 97.4091C187.98 102.219 183.47 106.909 178.92 111.549C177.74 112.749 176.19 112.699 174.91 111.869C173.51 110.959 172.21 109.809 171.07 108.579C166.94 104.149 162.73 99.7591 158.86 95.1091C156.65 92.4491 154.22 91.0791 150.77 91.1891C142.53 91.4491 134.29 91.6291 126.04 91.7691C123.34 91.8091 121.62 93.0791 120.08 95.2191C117.96 98.1591 115.6 100.939 113.16 103.619C111.91 104.989 110.27 105.999 109.08 106.949C106.41 106.329 105.86 104.699 105.97 102.949C106.07 101.279 106.44 99.5791 106.99 97.9891C107.97 95.1791 108.96 92.5691 106.4 89.9191C105.83 89.3291 106.06 87.5291 106.48 86.5091C107.2 84.7291 108.11 82.9091 109.38 81.4991C112.15 78.3991 112.94 74.8091 113.23 70.8091C113.82 62.8291 114.72 54.8791 115.51 46.9091C116.15 40.5291 117.92 34.6391 122.07 29.4991C124.8 26.1191 126.81 22.1691 130.39 19.4791C134.16 16.6491 135.36 16.5291 138.38 19.9191C140.94 22.7991 143.16 25.9991 145.36 29.1791C154.91 42.9091 164.27 56.7691 173.97 70.3891C177.47 75.3091 181.67 79.7491 185.64 84.3291C186.53 85.3591 187.81 86.0491 189.22 87.1391C189.58 85.9491 190.04 85.2491 189.9 84.7091C188.59 79.8091 186.98 74.9692 185.83 70.0292C184.57 64.6192 183.55 59.1392 182.76 53.6492C182.54 52.1192 183.14 50.1691 184.01 48.8291C187.71 43.1491 191.2 37.2891 196.4 32.7491C198.97 30.5091 200.83 30.1191 203.52 31.8491C204.93 32.7591 206.29 33.8692 207.36 35.1492C211.11 39.6592 215.46 43.5392 220.21 46.8992C229.32 53.3292 238.55 59.5891 247.75 65.8791C248.27 66.2391 249.04 66.2391 249.89 66.4491C250.84 63.9691 249.51 62.0591 248.64 60.1791C246.62 55.7791 244.58 51.3691 242.25 47.1291C239.56 42.2391 240.07 37.8891 243.66 33.7391C246.67 30.2591 249.48 26.5792 252.67 23.2792C256.49 19.3292 257.72 19.6991 259.43 24.7491C260.13 26.8091 260.84 28.8791 261.47 30.9591C262.24 33.5091 263.39 35.7991 265.62 37.9591C266.71 37.0391 267.71 36.3891 268.44 35.5191C269.53 34.2291 270.35 32.7191 271.42 31.4091C276.4 25.3191 282.3 22.0691 290.51 24.4991C295.84 26.0791 301.36 27.0292 306.79 28.2792C308.2 28.6092 309.59 29.0791 311.01 29.3691C318.31 30.8691 318.31 30.8491 323 24.6691C323.59 23.8991 324.14 23.0791 324.84 22.4191C332.09 15.5791 330.63 15.0091 341.25 15.5991C349.27 16.0491 357.25 15.4791 365.21 14.6191C370.46 14.0491 375.92 14.8491 380.85 12.0491C381.54 11.6591 382.85 11.8091 383.61 12.2091C386.18 13.5491 388.81 13.0091 391.45 12.8191C410.79 11.3891 430.13 10.1391 449.53 10.0191C450.98 10.0091 452.46 9.98915 453.88 10.2091C456.44 10.6091 457.9 13.9091 456.15 15.8091C451.55 20.7691 446.93 25.7491 441.89 30.2491C438.72 33.0791 434.67 33.9891 430.32 32.2891C428.8 31.6991 426.99 31.6191 425.33 31.6591C415.15 31.9291 404.98 32.2792 394.8 32.6492C393.81 32.7092 392.89 33.0391 391.81 33.2691ZM304.42 53.1791C307.36 60.1591 320.54 80.4391 328.08 89.9491C341.11 89.5791 347.67 88.2391 352.42 84.9591C351.03 80.4191 350.41 79.3191 346.96 75.8691C342.48 71.3791 337.38 67.6991 331.94 64.4591C323.6 59.4891 314.92 55.3891 304.42 53.1791ZM364.11 35.3691C355.14 34.3791 343.4 35.6791 338.57 38.0791C346.09 42.4891 353.54 46.8492 361.19 51.3392C363.23 49.9292 365.37 48.4491 367.8 46.7691C366.54 42.8791 365.36 39.2391 364.11 35.3691ZM132.06 59.2491C129.88 63.0091 129.89 63.0191 130.46 67.1891C131.45 67.3791 132.55 67.7091 133.68 67.7691C135.03 67.8291 136.57 68.1091 137.37 66.0191C136.39 63.6191 135.18 61.1591 132.06 59.2491Z" fill="#0DFF9A"/>
<path d="M521.76 113.94C518.97 113.08 518.38 111.15 517.8 109.32C516.77 106.08 515.95 102.78 514.96 99.54C513.9 96.08 512.73 92.6501 511.58 89.0901C509.7 88.5901 508.11 88.0901 506.49 87.7601C503.44 87.1301 503.31 84.7301 503.85 82.7801C503.98 82.3201 504.2 81.8301 504.52 81.5101C507.6 78.4601 507.35 75.13 505.65 71.5C504.75 69.57 504.24 67.4601 503.33 64.7801C502.27 65.7601 501.3 66.22 501.1 66.91C498.86 74.65 493.94 80.59 488.41 86.12C486.52 88.01 484.56 89.82 482.68 91.72C473.53 100.96 462.19 103.1 449.84 101.76C443.7 101.09 438.08 98.8 432.92 95.5C421.1 87.95 417.22 74.3 423.58 61.86C424.24 60.57 425.02 59.32 425.88 58.16C431.69 50.36 438.16 43.15 445.53 36.79C447.94 34.71 450.62 33.1801 453.73 32.2601C455.77 31.6601 458 30.8201 459.49 29.4001C465.9 23.3001 472.79 24.58 479.63 27.98C483.27 29.79 486.47 32.48 490.16 34.98C493.24 33.33 494.7 30.08 497.09 27.81C499.72 25.31 502.16 22.6 504.85 20.18C507.37 17.92 510.11 15.9101 512.56 13.9501C515.73 13.6501 518.63 13.5201 521.48 13.0701C537.41 10.6001 552.9 12.4701 567.96 17.9401C571.32 19.1601 574.56 21.0401 577.43 23.1901C582.7 27.1401 583.7 31.7 581.64 37.92C580.53 41.25 578.57 43.9801 576.32 46.5101C570.98 52.5101 565.11 57.92 558.39 62.37C556.61 63.55 554.87 64.8 552.36 66.55C554.39 67.3 555.6 68.0801 556.85 68.1501C563.86 68.5301 570.88 68.8 577.9 68.97C583.96 69.11 590.02 69.0401 596.09 69.1301C597.49 69.1501 598.88 69.46 600.13 69.62C601.02 71.93 599.75 73.33 598.6 74.41C593.08 79.58 586.96 84.0001 580.01 86.9501C576.99 88.2301 573.4 88.49 570.05 88.6C561.81 88.87 553.56 88.77 545.31 88.86C543.18 88.88 541.06 89.0301 538.55 89.1401C538.61 90.7801 538.29 92.11 538.75 93.05C540.72 97.06 539.06 100.52 536.4 102.89C531.73 107.01 526.46 110.44 521.76 113.94ZM496.5 39.93C496.39 40.34 496.28 40.76 496.05 41.6C496.29 40.77 496.4 40.37 496.52 39.97C496.09 39.95 495.67 39.93 495.24 39.91C495.66 39.9 496.09 39.9 496.5 39.93ZM442.82 52.7001C440.07 56.7901 439.92 57.31 440.76 60.75C442.28 66.98 446.13 71.52 451.41 74.86C459.56 80.01 468.51 81.21 477.9 79.72C481.38 79.17 482.23 78.04 482.05 74.22C481.54 63.68 476.13 56.05 467.64 50.35C464.59 48.3 461.32 47.1901 458.04 51.2701C457.6 51.8101 456.91 52.15 455.81 52.98C451.76 52.9 447.22 52.8001 442.82 52.7001ZM559.75 47.5C557.41 41.78 556.3 40.6701 550.84 38.6401C542.37 35.5001 533.65 33.5801 524.6 33.2701C523.47 33.2301 522.34 33.54 521.22 33.68C521.92 41.96 526.56 55.3301 530.62 60.7001C538.76 58.7301 546.23 54.6301 554.05 51.4501C556.04 50.6401 558.21 50.04 559.75 47.5Z" fill="#0DFF9A"/>
<path d="M600.049 33.3099C596.589 33.2299 593.979 33.1699 590.799 33.0999C590.999 31.4199 590.659 29.6099 591.389 28.9099C595.379 25.0799 598.299 20.2699 602.909 16.9499C606.689 14.2299 610.659 12.87 615.129 13.27C631.299 14.73 647.519 15.92 663.299 20.03C669.849 21.74 676.259 23.9999 682.669 26.1999C689.419 28.5199 695.039 32.8399 700.599 37.1199C703.859 39.6299 706.289 42.9999 708.279 46.6999C712.309 54.1599 711.389 61.2199 706.759 67.9199C704.979 70.4899 702.739 72.7699 700.509 74.9899C690.589 84.8799 678.789 91.9999 666.179 97.8799C662.669 99.5199 659.079 101.01 655.489 102.47C653.929 103.11 652.299 103.76 650.649 103.95C647.499 104.31 644.939 103.05 646.269 98.8499C648.799 90.8799 648.609 90.7999 656.949 87.8899C666.349 84.6099 675.559 80.9099 684.399 76.3199C688.979 73.9299 690.079 71.7099 688.199 66.9399C686.979 63.8399 685.199 60.8099 683.059 58.2599C678.489 52.8099 672.779 48.8699 666.179 45.9799C655.859 41.4699 645.069 38.85 634.069 36.9C632.229 36.57 630.299 36.7699 628.549 36.7299C627.319 39.9299 628.819 42.3599 629.579 44.8099C632.139 53.1399 634.709 61.4799 637.659 69.6699C639.289 74.2099 641.449 78.5899 643.779 82.8299C645.279 85.5599 645.209 87.87 643.559 90.28C642.749 91.47 641.919 92.7899 640.779 93.5799C636.789 96.3199 632.739 98.9799 628.569 101.43C626.039 102.91 623.899 102.3 622.419 99.7199C620.489 96.3699 618.659 92.9199 617.169 89.3599C612.399 77.9499 608.839 66.1299 605.669 54.1899C603.869 47.4299 602.039 40.6799 600.049 33.3099Z" fill="#0DFF9A"/>
<path d="M13.5291 83.2096C11.5991 80.6496 12.1891 78.3595 13.5491 76.1895C14.8391 74.1395 16.2891 72.1895 17.6991 70.2195C20.2191 66.6795 21.1991 62.8495 20.1991 58.5395C19.5491 55.7095 19.1291 52.8095 18.4191 49.9895C16.8491 43.7595 17.5691 37.9895 21.4391 32.7195C23.8791 29.4095 26.1991 25.9995 28.6991 22.7295C29.5691 21.5895 30.7191 20.6196 31.8791 19.7696C33.7491 18.3896 36.4991 19.6396 36.8691 22.0196C37.0191 22.9596 36.9291 23.9395 36.8991 24.9095C36.5591 37.0195 40.4091 48.2996 43.7191 59.6996C43.8391 60.1296 44.2791 60.4695 44.8091 61.1795C48.0191 62.2495 51.5391 62.1095 55.6291 61.6095C55.3191 59.9095 55.2391 58.5195 54.7991 57.2595C51.5791 47.8595 48.4291 38.4295 44.9591 29.1195C43.0891 24.1095 43.4591 19.6995 46.6991 15.4395C49.3391 11.9695 51.6991 8.28956 54.4191 4.89956C55.5891 3.43956 57.3091 2.35954 58.9091 1.31954C60.1991 0.479545 61.9991 1.32953 62.2491 2.92953C64.1491 15.2795 68.9591 26.6995 73.4791 38.1895C75.7891 44.0495 78.5591 49.7296 81.1991 55.4496C81.8991 56.9596 82.9091 58.3295 83.9091 59.9895C86.8491 60.0595 89.7391 60.0596 92.6191 60.1996C95.6691 60.3496 97.0991 62.3695 95.8791 65.1095C94.4191 68.3995 92.5891 71.5195 90.6091 75.3095C91.0791 76.5195 91.6491 78.3495 92.4891 80.0495C94.8391 84.8395 97.1891 89.6395 99.7691 94.2995C101.239 96.9395 101.089 99.2795 99.7991 101.87C97.2291 107.02 90.4991 114.11 84.9591 117.24C82.6991 116.43 81.8391 114.28 80.8491 112.42C77.7591 106.65 74.8191 100.8 71.8691 94.9596C70.5591 92.3596 69.3891 89.6896 68.1091 87.0796C65.8891 82.5596 65.7391 82.3995 60.9191 82.9195C58.0991 83.2195 55.1491 83.0895 52.0691 84.5395C52.7091 88.4195 54.0391 91.7395 56.1891 94.6295C58.6791 97.9795 58.1491 101.22 55.6891 103.91C51.7791 108.18 47.4991 112.12 43.2291 116.04C42.0491 117.12 40.3891 116.7 39.2991 115.53C38.3291 114.48 37.3591 113.3 36.8091 112C33.8291 104.86 30.9691 97.6595 28.0791 90.4795C27.5391 89.1395 27.0591 87.7795 26.5391 86.3695C22.6691 83.8895 17.9791 84.9296 13.5291 83.2096Z" fill="#0DFF9A"/>
<path d="M496.51 39.8887C496.09 39.8987 495.66 39.9086 495.24 39.9086C495.67 39.9286 496.09 39.9486 496.52 39.9686C496.52 39.9686 496.51 39.8887 496.51 39.8887Z" fill="#0DFF9A"/>
<path d="M496.519 39.9695C496.409 40.3695 496.289 40.7695 496.049 41.5995C496.279 40.7495 496.389 40.3395 496.499 39.9095C496.509 39.8895 496.519 39.9695 496.519 39.9695Z" fill="#0DFF9A"/>
</svg>
