<svg width="66" height="26" viewBox="0 0 66 26" fill="none" xmlns="http://www.w3.org/2000/svg">
<path d="M58.27 24.81H7.71997C4.01997 24.81 1 21.78 1 18.09V7.72C1 4.02 4.02997 1 7.71997 1H58.27C61.97 1 64.99 4.03 64.99 7.72V18.09C64.99 21.78 61.97 24.81 58.27 24.81Z" stroke="#0CE8CD" stroke-width="0.5" stroke-miterlimit="10"/>
<path d="M16.15 16.6994C15.19 17.4994 13.9099 17.8494 12.2299 17.8494H8.41992V7.68945H12.2299C13.9099 7.68945 15.19 8.03945 16.15 8.83945C17.11 9.63945 17.83 10.9194 17.83 12.7594C17.83 14.6394 17.11 15.8994 16.15 16.6994ZM14.02 10.6694C13.62 10.2694 13.03 10.0594 12.15 10.0594H11.4799V15.4095H12.15C13.03 15.4095 13.62 15.1994 14.02 14.7994C14.42 14.3994 14.71 13.7794 14.71 12.7394C14.71 11.6994 14.42 11.0694 14.02 10.6694Z" fill="#0CE8CD"/>
<path d="M21.4895 14.7207C21.5695 15.6307 22.3695 15.9007 23.1695 15.9007C23.9695 15.9007 24.9195 15.5807 25.3195 15.2607L26.2295 16.9407C26.2295 16.9407 25.1595 18.0107 22.7295 18.0107C20.2995 18.0107 18.5195 16.6207 18.5195 13.9907C18.5195 11.3607 20.2795 9.9707 22.7095 9.9707C25.1395 9.9707 26.4595 11.6507 26.4595 14.0807V14.7007H21.4895V14.7207ZM22.5795 11.8907C21.8595 11.8907 21.4895 12.4207 21.4095 13.0607H23.6695C23.6695 12.4107 23.2995 11.8907 22.5795 11.8907Z" fill="#0CE8CD"/>
<path d="M33.0003 17.2502C32.6803 17.4902 32.0203 18.0202 30.2603 18.0202C28.5003 18.0202 27.3103 17.3302 26.8203 16.9502L27.8103 15.1102C28.7703 15.8302 29.9403 16.0202 30.3403 16.0202C30.7403 16.0202 31.1703 16.0002 31.1703 15.6502C31.1703 15.3002 30.5103 15.2002 29.9403 15.0602C29.3603 14.9202 29.0003 14.8002 28.6603 14.6602C28.3203 14.5202 27.2003 14.0402 27.2003 12.5202C27.2003 11.0002 28.5003 9.99023 30.6603 9.99023C32.8203 9.99023 33.9103 10.9802 33.9103 10.9802L32.9803 12.6602C32.1003 12.0202 31.1903 11.8902 30.7903 11.8902C30.3903 11.8902 29.9403 11.9202 29.9403 12.2702C29.9403 12.6202 30.7303 12.7502 31.3003 12.8902C31.8803 13.0302 32.1203 13.1102 32.4503 13.2602C32.7903 13.4002 33.9203 13.8802 33.9203 15.3202C33.9203 16.4502 33.3203 17.0102 33.0003 17.2502Z" fill="#0CE8CD"/>
<path d="M36.4001 9.69C35.4901 9.69 34.8301 9.13 34.8301 8.22C34.8301 7.31 35.4901 6.75 36.4001 6.75C37.3101 6.75 37.97 7.31 37.97 8.22C37.97 9.13 37.3101 9.69 36.4001 9.69ZM34.91 17.86V10.15H37.8901V17.86H34.91Z" fill="#0CE8CD"/>
<path d="M46.2794 19.3805C45.3694 20.3105 44.3794 20.6105 42.8494 20.6105C41.3294 20.6105 39.8894 20.1605 39.1694 19.7605L40.0195 17.7005C40.6595 18.0205 41.5695 18.4005 42.6895 18.4005C43.8095 18.4005 44.4495 17.9205 44.4495 16.9605V16.4205C44.1895 16.8005 43.4994 17.4805 42.2994 17.4805C40.2194 17.4805 38.9395 15.9805 38.9395 13.7305C38.9395 11.4905 40.2194 9.98047 42.2994 9.98047C43.6594 9.98047 44.2094 10.8105 44.3694 11.0505L44.5294 10.1405H47.3494V15.9305C47.3494 17.1405 47.1994 18.4605 46.2794 19.3805ZM43.2194 12.2205C42.3394 12.2205 41.9694 12.9205 41.9694 13.6905C41.9694 14.4605 42.3394 15.1605 43.2194 15.1605C44.0994 15.1605 44.4694 14.4605 44.4694 13.6905C44.4694 12.9305 44.0994 12.2205 43.2194 12.2205Z" fill="#0CE8CD"/>
<path d="M53.7798 17.86V13.62C53.7798 12.9 53.5698 12.44 52.8498 12.44C52.1298 12.44 51.8598 13 51.7798 13.48V17.87H48.7998V10.16H51.6198L51.7798 11.23C52.2398 10.65 52.9698 10 54.0898 10C56.1698 10 56.7598 11.31 56.7598 13.07V17.87H53.7798V17.86Z" fill="#0CE8CD"/>
</svg>
