<svg width="59" height="26" viewBox="0 0 59 26" fill="none" xmlns="http://www.w3.org/2000/svg">
<path d="M51.27 24.81H7.71997C4.01997 24.81 1 21.78 1 18.09V7.72C1 4.02 4.02997 1 7.71997 1H51.27C54.97 1 57.99 4.03 57.99 7.72V18.09C58 21.78 54.97 24.81 51.27 24.81Z" stroke="#0CE8CD" stroke-width="0.5" stroke-miterlimit="10"/>
<path d="M14.9508 10.8891C14.2508 10.3091 13.0308 9.89908 12.2308 9.89908C11.4308 9.89908 11.0808 10.0591 11.0808 10.4391C11.0808 10.8191 11.5908 10.9691 11.8308 11.0491C12.0708 11.1291 13.2509 11.4991 13.5709 11.6091C13.8909 11.7191 14.4808 11.9491 14.9808 12.3491C15.4808 12.7491 15.9908 13.3691 15.9908 14.5691C15.9908 15.7691 15.4509 16.5891 14.8209 17.0791C14.2009 17.5791 13.2708 18.0091 11.6708 18.0091C10.0708 18.0091 8.48082 17.4291 7.59082 16.6491L8.87085 14.4091C9.77085 15.1091 10.9509 15.4791 11.7509 15.4791C12.5509 15.4791 12.9508 15.3191 12.9508 14.9191C12.9508 14.5191 12.3908 14.3391 12.0908 14.2491C11.7908 14.1591 10.8709 13.8691 10.6309 13.7891C10.3909 13.7091 9.65084 13.4491 9.11084 13.0391C8.57084 12.6191 8.05084 11.9391 8.05084 10.7391C8.05084 9.53907 8.74084 8.68908 9.36084 8.27908C9.98084 7.86908 10.7008 7.53906 12.2308 7.53906C13.7608 7.53906 15.2709 8.14907 16.0609 8.79907L14.9508 10.8891Z" fill="#0CE8CD"/>
<path d="M20.8513 18.0205C18.3113 18.0205 16.6113 16.5505 16.6113 14.0005C16.6113 11.4505 18.3113 9.98047 20.8513 9.98047C23.3913 9.98047 25.0913 11.4505 25.0913 14.0005C25.0913 16.5505 23.4013 18.0205 20.8513 18.0205ZM20.8513 12.1605C19.9713 12.1605 19.6313 13.0405 19.6313 14.0005C19.6313 14.9605 19.9713 15.8405 20.8513 15.8405C21.7313 15.8405 22.0714 14.9605 22.0714 14.0005C22.0714 13.0405 21.7313 12.1605 20.8513 12.1605Z" fill="#0CE8CD"/>
<path d="M32.9512 17.0105C32.9512 17.0105 31.8912 18.0205 29.8312 18.0205C27.7612 18.0205 25.7012 16.7205 25.7012 14.0005C25.7012 11.2805 27.8012 9.98047 29.8812 9.98047C31.9612 9.98047 32.9212 10.9705 32.9212 10.9705L32.0212 12.9705C31.8612 12.8105 31.2512 12.2805 30.3512 12.2805C29.4512 12.2805 28.6712 12.9005 28.6712 13.9605C28.6712 15.0205 29.4512 15.6405 30.3512 15.6405C31.2512 15.6405 31.8512 15.1105 32.0212 14.9505L32.9512 17.0105Z" fill="#0CE8CD"/>
<path d="M35.2712 9.69C34.3612 9.69 33.7012 9.13 33.7012 8.22C33.7012 7.31 34.3612 6.75 35.2712 6.75C36.1812 6.75 36.8412 7.31 36.8412 8.22C36.8412 9.13 36.1812 9.69 35.2712 9.69ZM33.7812 17.86V10.15H36.7612V17.86H33.7812Z" fill="#0CE8CD"/>
<path d="M42.7905 17.8602C42.7905 17.8602 42.6306 17.4902 42.6306 17.0902C42.2306 17.4902 41.6205 18.0202 40.4705 18.0202C39.3205 18.0202 37.8105 17.4602 37.8105 15.6202C37.8105 13.7802 39.5405 13.3602 40.3405 13.2002C41.1405 13.0402 42.1505 13.0102 42.5505 13.0102V12.8502C42.5505 12.2102 42.0205 12.0502 41.2705 12.0502C40.5205 12.0502 39.5406 12.3502 38.8806 12.7402L38.1906 10.7602C38.9906 10.3602 40.3506 9.99023 41.6306 9.99023C42.9106 9.99023 43.8705 10.2602 44.5005 10.7602C45.1205 11.2602 45.5305 11.9402 45.5305 13.2202V15.9402C45.5305 16.7402 45.5905 17.3002 45.9105 17.8602H42.7905ZM42.5505 14.5702C42.5505 14.5702 41.9605 14.5902 41.6205 14.6502C41.2805 14.7102 40.7905 14.8902 40.7905 15.3702C40.7905 15.8502 41.1605 16.0902 41.5605 16.0902C41.9605 16.0902 42.3905 15.8802 42.5505 15.4802V14.5702Z" fill="#0CE8CD"/>
<path d="M46.9209 17.8606V7.39062H49.9009V17.8606H46.9209Z" fill="#0CE8CD"/>
</svg>
