<svg width="64" height="24" viewBox="0 0 64 24" fill="none" xmlns="http://www.w3.org/2000/svg">
<path d="M57.27 23.81H6.71997C3.01997 23.81 0 20.78 0 17.09V6.72C0 3.02 3.02997 0 6.71997 0H57.27C60.97 0 63.99 3.03 63.99 6.72V17.09C63.99 20.78 60.97 23.81 57.27 23.81Z" fill="#0CE8CD"/>
<path d="M15.15 15.6994C14.19 16.4994 12.9099 16.8494 11.2299 16.8494H7.41992V6.68945H11.2299C12.9099 6.68945 14.19 7.03945 15.15 7.83945C16.11 8.63945 16.83 9.91943 16.83 11.7594C16.83 13.6394 16.11 14.8994 15.15 15.6994ZM13.02 9.66943C12.62 9.26943 12.03 9.05945 11.15 9.05945H10.4799V14.4095H11.15C12.03 14.4095 12.62 14.1994 13.02 13.7994C13.42 13.3994 13.71 12.7794 13.71 11.7394C13.71 10.6994 13.42 10.0694 13.02 9.66943Z" fill="white"/>
<path d="M20.4895 13.7207C20.5695 14.6307 21.3695 14.9007 22.1695 14.9007C22.9695 14.9007 23.9195 14.5807 24.3195 14.2607L25.2295 15.9407C25.2295 15.9407 24.1595 17.0107 21.7295 17.0107C19.2995 17.0107 17.5195 15.6207 17.5195 12.9907C17.5195 10.3607 19.2795 8.9707 21.7095 8.9707C24.1395 8.9707 25.4595 10.6507 25.4595 13.0807V13.7007H20.4895V13.7207ZM21.5795 10.8907C20.8595 10.8907 20.4895 11.4207 20.4095 12.0607H22.6695C22.6695 11.4107 22.2995 10.8907 21.5795 10.8907Z" fill="white"/>
<path d="M32.0003 16.2502C31.6803 16.4902 31.0203 17.0202 29.2603 17.0202C27.5003 17.0202 26.3103 16.3302 25.8203 15.9502L26.8103 14.1102C27.7703 14.8302 28.9403 15.0202 29.3403 15.0202C29.7403 15.0202 30.1703 15.0002 30.1703 14.6502C30.1703 14.3002 29.5103 14.2002 28.9403 14.0602C28.3603 13.9202 28.0003 13.8002 27.6603 13.6602C27.3203 13.5202 26.2003 13.0402 26.2003 11.5202C26.2003 10.0002 27.5003 8.99023 29.6603 8.99023C31.8203 8.99023 32.9103 9.98022 32.9103 9.98022L31.9803 11.6602C31.1003 11.0202 30.1903 10.8902 29.7903 10.8902C29.3903 10.8902 28.9403 10.9202 28.9403 11.2702C28.9403 11.6202 29.7303 11.7502 30.3003 11.8902C30.8803 12.0302 31.1203 12.1102 31.4503 12.2602C31.7903 12.4002 32.9203 12.8802 32.9203 14.3202C32.9203 15.4502 32.3203 16.0102 32.0003 16.2502Z" fill="white"/>
<path d="M35.4001 8.69C34.4901 8.69 33.8301 8.13 33.8301 7.22C33.8301 6.31 34.4901 5.75 35.4001 5.75C36.3101 5.75 36.97 6.31 36.97 7.22C36.97 8.13 36.3101 8.69 35.4001 8.69ZM33.91 16.86V9.14999H36.8901V16.86H33.91Z" fill="white"/>
<path d="M45.2794 18.3805C44.3694 19.3105 43.3794 19.6105 41.8494 19.6105C40.3294 19.6105 38.8894 19.1605 38.1694 18.7605L39.0195 16.7005C39.6595 17.0205 40.5695 17.4005 41.6895 17.4005C42.8095 17.4005 43.4495 16.9205 43.4495 15.9605V15.4205C43.1895 15.8005 42.4994 16.4805 41.2994 16.4805C39.2194 16.4805 37.9395 14.9805 37.9395 12.7305C37.9395 10.4905 39.2194 8.98047 41.2994 8.98047C42.6594 8.98047 43.2094 9.81048 43.3694 10.0505L43.5294 9.14047H46.3494V14.9305C46.3494 16.1405 46.1994 17.4605 45.2794 18.3805ZM42.2194 11.2205C41.3394 11.2205 40.9694 11.9205 40.9694 12.6905C40.9694 13.4605 41.3394 14.1605 42.2194 14.1605C43.0994 14.1605 43.4694 13.4605 43.4694 12.6905C43.4694 11.9305 43.0994 11.2205 42.2194 11.2205Z" fill="white"/>
<path d="M52.7798 16.86V12.62C52.7798 11.9 52.5698 11.44 51.8498 11.44C51.1298 11.44 50.8598 12 50.7798 12.48V16.87H47.7998V9.16H50.6198L50.7798 10.23C51.2398 9.64998 51.9698 9 53.0898 9C55.1698 9 55.7598 10.31 55.7598 12.07V16.87H52.7798V16.86Z" fill="white"/>
</svg>
