<svg width="34" height="24" viewBox="0 0 34 24" fill="none" xmlns="http://www.w3.org/2000/svg">
<path d="M27.27 23.81H6.71997C3.01997 23.81 0 20.78 0 17.09V6.72C0 3.02 3.02997 0 6.71997 0H27.27C30.97 0 33.99 3.03 33.99 6.72V17.09C33.99 20.78 30.97 23.81 27.27 23.81Z" fill="#0CE8CD"/>
<path d="M14.4396 16.8592L13.9896 15.2592H10.7896L10.3396 16.8592H7.34961L10.6296 6.69922H14.3896L17.6696 16.8592H14.4396ZM12.3896 9.56921L11.4596 12.8792H13.3196L12.3896 9.56921Z" fill="white"/>
<path d="M18.2598 16.8587V6.38867H21.2398V16.8587H18.2598Z" fill="white"/>
<path d="M22.7393 16.8587V6.38867H25.7192V16.8587H22.7393Z" fill="white"/>
</svg>
