<svg width="108" height="24" viewBox="0 0 108 24" fill="none" xmlns="http://www.w3.org/2000/svg">
<path d="M101.27 23.81H6.71997C3.01997 23.81 0 20.78 0 17.09V6.72C0 3.02 3.02997 0 6.71997 0H101.27C104.97 0 107.99 3.03 107.99 6.72V17.09C107.99 20.78 104.97 23.81 101.27 23.81Z" fill="#0CE8CD"/>
<path d="M14.4902 12.9712C13.7102 13.5512 12.3101 13.7412 11.5101 13.7412H10.4702V16.8612H7.41016V6.70117H11.5101C12.4701 6.70117 13.7002 6.89119 14.4902 7.47119C15.2802 8.05119 15.7101 8.86119 15.7101 10.2212C15.7101 11.5812 15.2802 12.3912 14.4902 12.9712ZM12.1901 9.20117C11.8701 8.96117 11.5802 8.98117 11.1002 8.98117H10.4802V11.4412H11.1002C11.5802 11.4412 11.8701 11.4612 12.1901 11.2212C12.5101 10.9812 12.6501 10.6912 12.6501 10.2112C12.6501 9.73118 12.5101 9.44117 12.1901 9.20117Z" fill="white"/>
<path d="M21.7603 16.8604V12.6204C21.7603 11.9004 21.5503 11.4404 20.8303 11.4404C20.1103 11.4404 19.8403 12.0004 19.7603 12.4804V16.8704H16.7803V6.40039H19.7603V10.2304C20.2203 9.65038 20.9403 9.0004 22.0703 9.0004C24.1503 9.0004 24.7403 10.3104 24.7403 12.0704V16.8704H21.7603V16.8604Z" fill="white"/>
<path d="M29.95 17.0205C27.4 17.0205 25.71 15.5505 25.71 13.0005C25.71 10.4505 27.41 8.98047 29.95 8.98047C32.49 8.98047 34.1899 10.4505 34.1899 13.0005C34.1899 15.5505 32.49 17.0205 29.95 17.0205ZM29.95 11.1605C29.07 11.1605 28.73 12.0405 28.73 13.0005C28.73 13.9605 29.07 14.8405 29.95 14.8405C30.83 14.8405 31.17 13.9605 31.17 13.0005C31.16 12.0405 30.83 11.1605 29.95 11.1605Z" fill="white"/>
<path d="M40.4601 16.691C39.9801 16.851 39.0801 17.011 38.3201 17.011C37.5501 17.011 36.8801 16.931 36.3401 16.431C35.8001 15.931 35.6501 15.331 35.6501 14.521V11.261H34.6602V9.13104H35.6501L35.7902 7.29102H38.6202V9.13104H40.3801V11.261H38.6202V13.801C38.6202 14.121 38.6001 14.391 38.7601 14.551C38.9201 14.711 39.1301 14.711 39.4501 14.711C39.7701 14.711 40.2202 14.611 40.2202 14.611L40.4601 16.691Z" fill="white"/>
<path d="M45.1501 17.0205C42.6101 17.0205 40.9102 15.5505 40.9102 13.0005C40.9102 10.4505 42.6101 8.98047 45.1501 8.98047C47.6901 8.98047 49.3901 10.4505 49.3901 13.0005C49.3901 15.5505 47.6901 17.0205 45.1501 17.0205ZM45.1501 11.1605C44.2701 11.1605 43.9302 12.0405 43.9302 13.0005C43.9302 13.9605 44.2701 14.8405 45.1501 14.8405C46.0301 14.8405 46.3702 13.9605 46.3702 13.0005C46.3602 12.0405 46.0301 11.1605 45.1501 11.1605Z" fill="white"/>
<path d="M57.3199 18.3805C56.4099 19.3105 55.42 19.6105 53.9 19.6105C52.38 19.6105 50.94 19.1605 50.22 18.7605L51.0699 16.7005C51.7099 17.0205 52.62 17.4005 53.74 17.4005C54.86 17.4005 55.5 16.9205 55.5 15.9605V15.4205C55.24 15.8005 54.56 16.4805 53.36 16.4805C51.28 16.4805 50 14.9805 50 12.7305C50 10.4905 51.28 8.98047 53.36 8.98047C54.72 8.98047 55.26 9.81048 55.42 10.0505L55.58 9.14047H58.4V14.9305C58.4 16.1305 58.2499 17.4605 57.3199 18.3805ZM54.27 11.2205C53.39 11.2205 53.02 11.9205 53.02 12.6905C53.02 13.4605 53.39 14.1605 54.27 14.1605C55.15 14.1605 55.52 13.4605 55.52 12.6905C55.51 11.9305 55.15 11.2205 54.27 11.2205Z" fill="white"/>
<path d="M65.2106 11.8503C65.2106 11.8503 64.8606 11.7402 64.4606 11.7402C63.6606 11.7402 63.0706 12.2202 62.8306 13.1802V16.8602H59.8506V9.15024H62.6706L62.8306 10.3002C63.1506 9.66023 63.9506 8.99023 64.9106 8.99023C65.3906 8.99023 65.5306 9.07022 65.5306 9.07022L65.2106 11.8503Z" fill="white"/>
<path d="M70.5103 16.8602C70.5103 16.8602 70.3503 16.4902 70.3503 16.0902C69.9503 16.4902 69.3402 17.0202 68.1902 17.0202C67.0402 17.0202 65.5303 16.4602 65.5303 14.6202C65.5303 12.7802 67.2603 12.3602 68.0603 12.2002C68.8603 12.0402 69.8703 12.0102 70.2703 12.0102V11.8503C70.2703 11.2103 69.7403 11.0502 68.9903 11.0502C68.2403 11.0502 67.2603 11.3502 66.6103 11.7402L65.9203 9.76022C66.7203 9.36022 68.0803 8.99023 69.3603 8.99023C70.6403 8.99023 71.6003 9.26022 72.2303 9.76022C72.8503 10.2602 73.2503 10.9402 73.2503 12.2202V14.9402C73.2503 15.7402 73.3102 16.3002 73.6302 16.8602H70.5103ZM70.2703 13.5702C70.2703 13.5702 69.6803 13.5902 69.3403 13.6502C69.0003 13.7102 68.5103 13.8902 68.5103 14.3702C68.5103 14.8502 68.8803 15.0902 69.2803 15.0902C69.6803 15.0902 70.1103 14.8802 70.2703 14.4802V13.5702Z" fill="white"/>
<path d="M79.7704 17.0205C78.4104 17.0205 77.8704 16.2705 77.6304 15.9505V19.4505H74.6504V9.14047H77.4804L77.6204 10.0505C77.7804 9.81048 78.4704 8.98047 79.8304 8.98047C81.8304 8.98047 83.1304 10.6005 83.1304 13.0005C83.1304 15.4005 81.7704 17.0205 79.7704 17.0205ZM78.8304 11.2005C77.9504 11.2005 77.5504 12.0005 77.5504 12.9605C77.5504 13.9205 77.9504 14.7205 78.8304 14.7205C79.7104 14.7205 80.1104 13.9205 80.1104 12.9605C80.1104 12.0105 79.7104 11.2005 78.8304 11.2005Z" fill="white"/>
<path d="M89.1597 16.8604V12.6204C89.1597 11.9004 88.9497 11.4404 88.2297 11.4404C87.5097 11.4404 87.2397 12.0004 87.1597 12.4804V16.8704H84.1797V6.40039H87.1597V10.2304C87.6197 9.65038 88.3397 9.0004 89.4597 9.0004C91.5397 9.0004 92.1296 10.3104 92.1296 12.0704V16.8704H89.1597V16.8604Z" fill="white"/>
<path d="M98.8398 16.7706C97.9598 19.0906 97.2598 19.6006 95.7698 19.6006C94.2798 19.6006 93.3698 19.1706 93.3698 19.1706L93.9598 17.0106C93.9598 17.0106 94.4698 17.2506 94.8698 17.2506C95.2698 17.2506 95.4598 17.1706 95.5698 16.7706L95.6298 16.5306L92.7998 9.14062H96.0198L97.3198 13.8906L98.6198 9.14062H101.76L98.8398 16.7706Z" fill="white"/>
</svg>
