<svg width="107" height="24" viewBox="0 0 107 24" fill="none" xmlns="http://www.w3.org/2000/svg">
<path d="M100.27 23.81H6.71997C3.01997 23.81 0 20.78 0 17.09V6.72C0 3.02 3.02997 0 6.71997 0H100.27C103.97 0 106.99 3.03 106.99 6.72V17.09C107 20.78 103.97 23.81 100.27 23.81Z" fill="#0CE8CD"/>
<path d="M13.2297 16.8592H9.70978L6.50977 6.69922H9.72974L11.5897 13.5792L13.4598 6.69922H16.4398L13.2297 16.8592Z" fill="white"/>
<path d="M18.6696 8.69C17.7596 8.69 17.0996 8.13 17.0996 7.22C17.0996 6.31 17.7596 5.75 18.6696 5.75C19.5796 5.75 20.2396 6.31 20.2396 7.22C20.2396 8.13 19.5796 8.69 18.6696 8.69ZM17.1796 16.86V9.14999H20.1596V16.86H17.1796Z" fill="white"/>
<path d="M26.9398 16.8608L26.7197 15.9508C26.4797 16.2708 25.9398 17.0208 24.5798 17.0208C22.5798 17.0208 21.2197 15.4009 21.2197 13.0009C21.2197 10.6009 22.5198 8.98083 24.5198 8.98083C25.8798 8.98083 26.5697 9.81084 26.7297 10.0508V6.38086H29.7098V16.8508H26.9398V16.8608ZM25.5198 11.2108C24.6398 11.2108 24.2397 12.0109 24.2397 12.9709C24.2397 13.9309 24.6398 14.7308 25.5198 14.7308C26.3998 14.7308 26.7997 13.9309 26.7997 12.9709C26.7997 12.0109 26.3998 11.2108 25.5198 11.2108Z" fill="white"/>
<path d="M33.7397 13.7207C33.8197 14.6307 34.6197 14.9007 35.4197 14.9007C36.2197 14.9007 37.1698 14.5807 37.5698 14.2607L38.4797 15.9407C38.4797 15.9407 37.4097 17.0107 34.9697 17.0107C32.5297 17.0107 30.7598 15.6207 30.7598 12.9907C30.7598 10.3607 32.5198 8.9707 34.9498 8.9707C37.3798 8.9707 38.6998 10.6507 38.6998 13.0807V13.7007H33.7397V13.7207ZM34.8298 10.8907C34.1098 10.8907 33.7397 11.4207 33.6597 12.0607H35.9197C35.9197 11.4107 35.5498 10.8907 34.8298 10.8907Z" fill="white"/>
<path d="M43.5193 17.0205C40.9693 17.0205 39.2793 15.5505 39.2793 13.0005C39.2793 10.4505 40.9793 8.98047 43.5193 8.98047C46.0593 8.98047 47.7593 10.4505 47.7593 13.0005C47.7593 15.5505 46.0593 17.0205 43.5193 17.0205ZM43.5193 11.1605C42.6393 11.1605 42.2993 12.0405 42.2993 13.0005C42.2993 13.9605 42.6393 14.8405 43.5193 14.8405C44.3993 14.8405 44.7393 13.9605 44.7393 13.0005C44.7293 12.0405 44.3993 11.1605 43.5193 11.1605Z" fill="white"/>
<path d="M55.6894 18.3805C54.7794 19.3105 53.7794 19.6105 52.2594 19.6105C50.7394 19.6105 49.2994 19.1605 48.5794 18.7605L49.4294 16.7005C50.0694 17.0205 50.9794 17.4005 52.0994 17.4005C53.2194 17.4005 53.8594 16.9205 53.8594 15.9605V15.4205C53.5994 15.8005 52.9194 16.4805 51.7194 16.4805C49.6394 16.4805 48.3594 14.9805 48.3594 12.7305C48.3594 10.4905 49.6394 8.98047 51.7194 8.98047C53.0794 8.98047 53.6194 9.81048 53.7794 10.0505L53.9394 9.14047H56.7594V14.9305C56.7694 16.1405 56.6194 17.4605 55.6894 18.3805ZM52.6394 11.2205C51.7594 11.2205 51.3894 11.9205 51.3894 12.6905C51.3894 13.4605 51.7594 14.1605 52.6394 14.1605C53.5194 14.1605 53.8894 13.4605 53.8894 12.6905C53.8894 11.9305 53.5194 11.2205 52.6394 11.2205Z" fill="white"/>
<path d="M63.5798 11.8502C63.5798 11.8502 63.2298 11.7402 62.8298 11.7402C62.0298 11.7402 61.4398 12.2202 61.1998 13.1802V16.8602H58.2197V9.15024H61.0397L61.1998 10.3002C61.5198 9.66023 62.3197 8.99023 63.2797 8.99023C63.7597 8.99023 63.8997 9.07022 63.8997 9.07022L63.5798 11.8502Z" fill="white"/>
<path d="M68.8795 16.8602C68.8795 16.8602 68.7194 16.4902 68.7194 16.0902C68.3194 16.4902 67.7094 17.0202 66.5594 17.0202C65.4094 17.0202 63.8994 16.4602 63.8994 14.6202C63.8994 12.7802 65.6294 12.3602 66.4294 12.2002C67.2294 12.0402 68.2395 12.0102 68.6395 12.0102V11.8502C68.6395 11.2102 68.1094 11.0502 67.3594 11.0502C66.6094 11.0502 65.6294 11.3502 64.9794 11.7402L64.2894 9.76022C65.0894 9.36022 66.4494 8.99023 67.7294 8.99023C69.0094 8.99023 69.9694 9.26022 70.5994 9.76022C71.2194 10.2602 71.6194 10.9402 71.6194 12.2202V14.9402C71.6194 15.7402 71.6795 16.3002 71.9995 16.8602H68.8795ZM68.6395 13.5702C68.6395 13.5702 68.0495 13.5902 67.7095 13.6502C67.3695 13.7102 66.8795 13.8902 66.8795 14.3702C66.8795 14.8502 67.2494 15.0902 67.6494 15.0902C68.0494 15.0902 68.4795 14.8802 68.6395 14.4802V13.5702Z" fill="white"/>
<path d="M78.1395 17.0205C76.7795 17.0205 76.2395 16.2705 75.9995 15.9505V19.4505H73.0195V9.14047H75.8495L75.9895 10.0505C76.1495 9.81048 76.8395 8.98047 78.1995 8.98047C80.1995 8.98047 81.4995 10.6005 81.4995 13.0005C81.4995 15.4005 80.1395 17.0205 78.1395 17.0205ZM77.1995 11.2105C76.3195 11.2105 75.9195 12.0105 75.9195 12.9705C75.9195 13.9305 76.3195 14.7305 77.1995 14.7305C78.0795 14.7305 78.4795 13.9305 78.4795 12.9705C78.4795 12.0105 78.0795 11.2105 77.1995 11.2105Z" fill="white"/>
<path d="M87.5298 16.8604V12.6204C87.5298 11.9004 87.3198 11.4404 86.5998 11.4404C85.8798 11.4404 85.6098 12.0004 85.5298 12.4804V16.8704H82.5498V6.40039H85.5298V10.2304C85.9898 9.65038 86.7098 9.0004 87.8298 9.0004C89.9098 9.0004 90.4998 10.3104 90.4998 12.0704V16.8704H87.5298V16.8604Z" fill="white"/>
<path d="M97.21 16.7804C96.33 19.1004 95.63 19.6104 94.14 19.6104C92.65 19.6104 91.7399 19.1804 91.7399 19.1804L92.33 17.0204C92.33 17.0204 92.8399 17.2604 93.2399 17.2604C93.6399 17.2604 93.8299 17.1804 93.9399 16.7804L93.9999 16.5404L91.1699 9.15039H94.39L95.6899 13.9004L96.9899 9.15039H100.13L97.21 16.7804Z" fill="white"/>
</svg>
