<svg width="57" height="24" viewBox="0 0 57 24" fill="none" xmlns="http://www.w3.org/2000/svg">
<path d="M50.27 23.81H6.71997C3.01997 23.81 0 20.78 0 17.09V6.72C0 3.02 3.02997 0 6.71997 0H50.27C53.97 0 56.99 3.03 56.99 6.72V17.09C57 20.78 53.97 23.81 50.27 23.81Z" fill="#0CE8CD"/>
<path d="M13.9498 9.88907C13.2498 9.30907 12.0299 8.89908 11.2299 8.89908C10.4299 8.89908 10.0798 9.05909 10.0798 9.43909C10.0798 9.81909 10.5898 9.96907 10.8298 10.0491C11.0698 10.1291 12.2499 10.4991 12.5699 10.6091C12.8899 10.7191 13.4799 10.9491 13.9799 11.3491C14.4799 11.7491 14.9899 12.3691 14.9899 13.5691C14.9899 14.7691 14.4499 15.5891 13.8199 16.0791C13.1999 16.5791 12.2699 17.0091 10.6699 17.0091C9.06986 17.0091 7.47984 16.4291 6.58984 15.6491L7.86987 13.4091C8.76987 14.1091 9.94988 14.4791 10.7499 14.4791C11.5499 14.4791 11.9498 14.3191 11.9498 13.9191C11.9498 13.5191 11.3898 13.3391 11.0898 13.2491C10.7898 13.1591 9.86988 12.8691 9.62988 12.7891C9.38988 12.7091 8.64986 12.4491 8.10986 12.0391C7.56986 11.6191 7.04987 10.9391 7.04987 9.73907C7.04987 8.53907 7.73986 7.68908 8.35986 7.27908C8.97986 6.86908 9.69986 6.53906 11.2299 6.53906C12.7599 6.53906 14.2699 7.14907 15.0599 7.79907L13.9498 9.88907Z" fill="white"/>
<path d="M19.8494 17.0205C17.3094 17.0205 15.6094 15.5505 15.6094 13.0005C15.6094 10.4505 17.3094 8.98047 19.8494 8.98047C22.3894 8.98047 24.0894 10.4505 24.0894 13.0005C24.0894 15.5505 22.3994 17.0205 19.8494 17.0205ZM19.8494 11.1605C18.9694 11.1605 18.6294 12.0405 18.6294 13.0005C18.6294 13.9605 18.9694 14.8405 19.8494 14.8405C20.7294 14.8405 21.0694 13.9605 21.0694 13.0005C21.0694 12.0405 20.7294 11.1605 19.8494 11.1605Z" fill="white"/>
<path d="M31.9502 16.0105C31.9502 16.0105 30.8902 17.0205 28.8302 17.0205C26.7602 17.0205 24.7002 15.7205 24.7002 13.0005C24.7002 10.2805 26.8002 8.98047 28.8802 8.98047C30.9602 8.98047 31.9202 9.97049 31.9202 9.97049L31.0202 11.9705C30.8602 11.8105 30.2502 11.2805 29.3502 11.2805C28.4502 11.2805 27.6702 11.9005 27.6702 12.9605C27.6702 14.0205 28.4502 14.6405 29.3502 14.6405C30.2502 14.6405 30.8502 14.1105 31.0202 13.9505L31.9502 16.0105Z" fill="white"/>
<path d="M34.2702 8.69C33.3602 8.69 32.7002 8.13 32.7002 7.22C32.7002 6.31 33.3602 5.75 34.2702 5.75C35.1802 5.75 35.8402 6.31 35.8402 7.22C35.8402 8.13 35.1802 8.69 34.2702 8.69ZM32.7802 16.86V9.14999H35.7603V16.86H32.7802Z" fill="white"/>
<path d="M41.7896 16.8602C41.7896 16.8602 41.6296 16.4902 41.6296 16.0902C41.2296 16.4902 40.6195 17.0202 39.4695 17.0202C38.3195 17.0202 36.8096 16.4602 36.8096 14.6202C36.8096 12.7802 38.5395 12.3602 39.3395 12.2002C40.1395 12.0402 41.1496 12.0102 41.5496 12.0102V11.8502C41.5496 11.2102 41.0195 11.0502 40.2695 11.0502C39.5195 11.0502 38.5396 11.3502 37.8796 11.7402L37.1896 9.76022C37.9896 9.36022 39.3496 8.99023 40.6296 8.99023C41.9096 8.99023 42.8696 9.26022 43.4996 9.76022C44.1196 10.2602 44.5295 10.9402 44.5295 12.2202V14.9402C44.5295 15.7402 44.5895 16.3002 44.9095 16.8602H41.7896ZM41.5496 13.5702C41.5496 13.5702 40.9596 13.5902 40.6196 13.6502C40.2796 13.7102 39.7896 13.8902 39.7896 14.3702C39.7896 14.8502 40.1596 15.0902 40.5596 15.0902C40.9596 15.0902 41.3896 14.8802 41.5496 14.4802V13.5702Z" fill="white"/>
<path d="M45.9199 16.8606V6.39062H48.8999V16.8606H45.9199Z" fill="white"/>
</svg>
