<svg width="125" height="47" viewBox="0 0 125 47" fill="none" xmlns="http://www.w3.org/2000/svg">
<path d="M117.334 46H7.66635C3.99589 46 1 42.9572 1 39.2515V7.7485C1 4.03281 4.00581 1 7.66635 1H117.334C121.004 1 124 4.04285 124 7.7485V39.2515C124 42.9572 121.004 46 117.334 46Z" fill="#0CE5CA" stroke="#0CE5CA" stroke-width="0.3735" stroke-miterlimit="10"/>
<path d="M28.7767 18.9649C27.8144 18.0811 26.5248 17.2878 25.5625 16.876C24.6003 16.4542 22.8047 15.8517 21.2473 15.8517C19.6898 15.8517 18.4002 16.2735 18.4002 17.5288C18.4002 18.7841 19.8684 19.2461 21.0191 19.718C22.1699 20.19 25.1558 21.3951 26.4851 22.1382C27.8144 22.8814 30.9393 24.8397 30.9393 29.2583C30.9393 33.677 28.7767 35.7658 27.3581 36.8905C25.9296 38.0052 23.271 39.5417 18.9061 39.5417C14.5413 39.5417 11.9223 38.196 10.593 37.4529C9.26373 36.7098 8.113 35.7758 7.19043 34.8519L11.099 29.0374C11.5553 29.4993 13.1227 30.5739 14.1345 31.086C15.1464 31.5982 17.0709 32.4819 18.9161 32.4819C20.7513 32.4819 22.1302 31.9698 22.1302 30.5739C22.1302 29.178 20.7513 28.8064 19.6006 28.3445C18.4498 27.8825 15.5134 26.6674 14.3131 26.0146C13.1227 25.3619 9.85895 23.4538 9.85895 18.5732C9.85895 13.6926 13.2616 11.4531 14.4024 10.7602C15.5531 10.0673 17.7554 9.04297 20.9695 9.04297C24.1836 9.04297 25.7907 9.50492 27.6359 10.2079C29.4711 10.9008 31.3063 12.0657 32.4571 13.2306L28.7767 18.9649Z" fill="white"/>
<path d="M50.8294 29.2507C48.528 30.4156 45.0857 30.8775 41.6434 30.8775C41.6434 32.0425 42.566 33.4383 45.3238 33.4383C48.0816 33.4383 50.8394 31.9521 51.5239 31.4801L53.865 36.4109C52.0298 38.0378 48.3097 39.524 43.7167 39.524C39.1237 39.524 33.3799 37.385 33.3799 29.2507C33.3799 21.1163 39.3518 16.0449 46.0182 16.0449C52.6746 16.0449 55.0257 19.4895 55.0257 22.9742C55.0058 26.4589 53.121 28.0858 50.8294 29.2507ZM45.175 21.6184C44.2524 21.6184 42.0005 22.5022 41.7327 26.1777C41.7327 26.1777 43.6175 25.9869 44.7186 25.7157C45.8198 25.4345 47.1491 24.832 47.1491 23.4361C47.1491 22.0402 46.0975 21.6184 45.175 21.6184Z" fill="white"/>
<path d="M79.3103 26.9208L77.7925 39.0119H69.4794L71.0865 26.4589C71.1361 26.1375 71.1361 25.8563 71.1361 25.5752C71.1361 24.0387 70.4516 23.2051 68.8842 23.2051C67.049 23.2051 66.1264 25.1132 65.8487 25.9969L64.192 39.0219H55.8789L58.726 16.5571H66.5332V19.7204C67.4557 18.5555 69.4298 16.0449 73.5665 16.0449C77.7032 16.0449 79.7666 18.7865 79.7666 22.2812C79.7765 23.8981 79.4492 25.7559 79.3103 26.9208Z" fill="white"/>
<path d="M104.031 39.01H96.1243V36.0776C96.1243 36.0776 94.0609 39.5221 89.4579 39.5221C84.855 39.5221 81.8789 36.2181 81.8789 29.4797C81.8789 22.7412 85.7875 16.043 92.4439 16.043C96.8088 16.043 98.2372 19.2565 98.2372 19.2565L99.5666 8.60156H107.88L104.031 39.01ZM94.4775 22.5504C92.176 22.5504 90.3011 25.292 90.3011 29.0178C90.3011 31.1066 91.0849 32.9243 93.1482 32.9243C95.4497 32.9243 97.3246 30.1827 97.3246 26.457C97.3246 24.3581 96.5409 22.5504 94.4775 22.5504Z" fill="white"/>
<path d="M112.622 39.4819C109.954 39.4819 108.535 38.0358 108.535 35.3444C108.535 32.6932 110.509 30.7852 113.178 30.7852C115.797 30.7852 117.225 32.2313 117.225 34.9226C117.215 37.5738 115.241 39.4819 112.622 39.4819Z" fill="white"/>
</svg>
