<svg width="937" height="234" viewBox="0 0 937 234" fill="none" xmlns="http://www.w3.org/2000/svg">
<path d="M479.412 102.34C476.012 100.95 476.122 101.01 477.762 97.8104C478.812 95.7604 480.222 94.1504 481.972 92.7204C483.382 91.5604 484.602 90.1704 485.992 88.9704C487.132 87.9804 488.002 88.3804 488.442 90.0004C488.572 90.4804 488.642 90.9804 488.772 91.6304C489.622 91.7304 490.382 91.9104 491.132 91.9004C496.632 91.7604 501.752 93.3304 506.722 95.4404C508.032 96.0004 509.302 96.7504 510.422 97.6404C512.542 99.3304 513.042 101.15 511.882 103.56C511.042 105.31 509.982 107.03 508.712 108.49C506.022 111.57 502.802 114.05 499.262 116.11C498.382 116.62 497.562 117.26 496.702 117.85C496.992 118.2 497.112 118.5 497.312 118.56C502.192 120.05 507.072 121.52 511.962 122.96C512.432 123.1 512.972 122.98 513.532 122.98C513.692 122.48 513.932 122.12 513.902 121.79C513.612 118.19 514.862 114.91 516.852 112.18C519.562 108.47 521.672 104.4 524.412 100.74C525.272 99.5904 526.322 98.5804 527.202 97.4504C529.872 93.9904 533.562 93.5404 537.492 94.0004C541.102 94.4304 544.182 96.1704 547.032 98.3303C547.442 98.6404 547.812 99.0504 548.092 99.4804C551.472 104.58 553.262 110.08 552.112 116.24C551.672 118.59 550.582 120.69 548.982 122.5C547.762 123.87 546.502 125.21 545.332 126.62C541.512 131.2 536.412 132.92 530.702 132.98C528.102 133.01 525.462 132.66 523.002 131.62C520.442 130.54 518.002 129.3 516.352 126.92C516.072 126.51 515.602 126.23 515.012 125.7C514.062 126.45 513.472 127.46 512.682 128.26C511.862 129.1 510.902 129.8 510.102 130.66C508.722 132.15 507.192 132.68 505.162 132.15C503.402 131.69 501.562 131.55 499.862 131.28C497.642 132.5 495.512 133.73 493.332 134.85C491.382 135.86 490.202 135.61 488.962 133.87C488.202 132.81 487.612 131.63 486.992 130.48C486.192 128.98 485.492 127.45 483.932 126.49C482.792 125.79 482.542 124.63 483.062 123.38C483.542 122.21 483.342 121.1 482.952 119.94C482.492 118.57 482.172 117.16 481.822 115.76C480.892 112.07 479.892 108.4 479.792 104.56C479.752 103.77 479.522 103 479.412 102.34ZM531.262 103.68C531.392 104.6 531.442 105.23 531.572 105.84C532.122 108.57 530.402 110.91 527.292 110.04C526.732 109.88 525.992 110.04 525.432 110.28C524.482 110.67 523.602 111.24 522.702 111.73C521.692 114.76 523.092 116.95 525.072 118.79C528.582 122.06 532.892 123.45 537.602 123.68C539.582 123.78 541.532 123.58 543.212 122.47C546.532 116.05 540.182 103.85 531.262 103.68ZM503.012 107.93C500.442 104.41 496.172 102.57 490.022 102.27C489.622 104.67 490.632 106.84 491.192 109.05C491.522 110.37 491.432 111.93 492.872 112.92C496.382 111.46 499.752 109.86 503.012 107.93Z" fill="#0DFF9D"/>
<path d="M469.141 109.54C470.921 109.26 472.311 109.05 473.951 108.8C474.081 111.12 472.131 112.03 471.271 113.87C471.541 114.61 471.831 115.6 472.261 116.52C474.001 120.2 475.661 123.92 477.591 127.49C478.661 129.48 478.251 130.98 476.921 132.47C475.231 134.37 473.071 135.54 470.971 136.5C469.291 136.08 468.681 134.91 468.091 133.72C466.691 130.9 465.301 128.08 463.891 125.26C463.011 123.51 462.111 121.77 461.211 120C458.991 120 456.911 120 454.841 120C452.751 120 450.661 120 448.291 120C448.471 120.9 448.441 121.59 448.741 122.07C449.691 123.61 450.771 125.08 451.841 126.65C450.131 129.89 446.821 130.58 443.731 131.53C443.141 131.71 442.111 131.29 441.631 130.8C440.621 129.8 439.661 128.66 438.991 127.41C436.751 123.2 435.301 118.73 434.831 113.96C434.551 111.13 435.171 108.49 436.211 105.9C436.541 105.08 436.941 104.28 437.441 103.16C433.561 102.38 429.941 102.79 426.341 102.78C425.631 102.78 424.931 103.22 424.131 103.49C424.301 106.7 425.051 109.59 425.821 112.49C427.611 119.21 429.321 125.94 431.121 132.65C431.381 133.6 431.411 134.44 430.921 135.29C429.411 137.91 427.361 140.05 425.221 141.99C423.631 141.55 423.431 140.25 422.931 139.24C422.471 138.31 422.151 137.29 421.881 136.28C420.141 129.82 418.451 123.35 416.701 116.89C415.441 112.24 414.811 107.63 417.491 103.13C416.881 102.93 416.541 102.72 416.191 102.72C412.651 102.73 409.101 102.73 405.561 102.82C404.521 102.85 403.471 103.08 402.471 103.36C402.071 103.47 401.781 103.99 401.441 104.31C401.181 104.55 400.931 104.95 400.641 104.99C398.851 105.24 396.901 102.94 397.661 101.41C399.061 98.5705 400.991 96.0705 403.171 93.7905C403.581 93.3605 404.291 93.1005 404.901 93.0005C405.801 92.8505 406.731 92.8805 407.651 92.8905C420.251 93.0305 432.851 93.1905 445.441 93.3405C445.831 93.3405 446.231 93.3004 446.621 93.3304C448.261 93.4804 448.971 94.6304 448.161 96.0504C447.391 97.4104 446.571 98.8005 445.521 99.9405C443.541 102.1 443.291 104.53 443.731 107.16C452.491 109.95 454.151 110.31 457.161 110.03C457.671 108.81 456.841 107.79 456.601 106.69C456.061 104.26 455.431 101.86 454.891 99.4305C453.751 94.3005 454.991 89.8105 458.671 86.0405C459.671 85.0105 460.671 83.9805 461.781 83.0605C462.071 82.8205 462.781 82.9205 463.211 83.0905C463.461 83.1905 463.681 83.7504 463.661 84.0804C463.481 86.5704 463.291 89.0305 463.671 91.5305C464.611 97.6905 466.891 103.39 469.141 109.54Z" fill="#0DFF9D"/>
<path d="M648.553 117.78C649.903 115.67 649.543 113.93 649.123 112.1C648.483 109.29 648.103 106.43 647.593 103.59C647.393 102.5 647.523 101.46 648.223 100.61C650.393 97.9797 652.573 95.3498 655.803 93.9098C656.023 93.8098 656.313 93.8997 656.563 93.8997C657.563 94.3897 657.543 95.3498 657.673 96.2598C658.193 99.7598 658.693 103.27 659.263 106.76C659.403 107.63 659.803 108.46 660.093 109.34C665.553 109.9 670.753 111.34 676.383 110.94C676.173 109.87 676.053 109.11 675.883 108.37C675.413 106.33 674.743 104.31 674.463 102.24C673.893 98.0097 674.753 94.1597 678.003 91.0797C680.083 89.1097 682.073 87.0498 684.683 86.0098C685.643 86.4998 685.703 87.2098 685.483 87.8098C683.673 92.8098 684.753 97.6498 686.203 102.47C686.763 104.35 687.453 106.2 688.073 108.07C688.533 109.47 688.963 110.88 690.853 110.6C690.233 113.68 690.173 113.7 691.233 116.24C692.793 119.99 694.443 123.7 696.053 127.43C696.313 128.03 696.543 128.64 696.793 129.26C695.453 133.25 691.473 134.09 688.883 136.3C687.263 136.16 686.653 135.1 686.133 134.05C684.503 130.76 682.913 127.45 681.343 124.13C680.733 122.83 680.213 121.49 679.583 119.99C677.003 119.99 674.543 119.99 672.073 119.99C669.593 119.99 667.103 119.99 664.713 119.99C664.493 120.36 664.213 120.63 664.263 120.78C665.153 123.6 663.953 125.64 661.813 127.28C660.173 128.54 658.443 129.7 656.843 130.83C655.203 129.96 654.753 128.52 654.163 127.24C653.233 125.21 652.343 123.16 651.663 121.04C651.213 119.57 650.363 118.57 648.553 117.78Z" fill="#0DFF9D"/>
<path d="M629.361 123.78C629.411 123.43 629.531 123.04 629.511 122.66C629.071 115.95 633.351 112.53 638.501 109.71C638.581 109.66 638.741 109.75 638.891 109.78C639.851 110.35 639.631 111.33 639.681 112.22C639.891 116.54 640.121 120.86 640.281 125.18C640.411 128.76 641.121 132.22 642.351 135.56C642.921 137.11 642.691 138.31 641.811 139.59C640.121 142.06 637.461 143.22 635.221 144.96C632.931 143.73 632.241 141.73 631.791 139.69C631.231 137.13 630.931 134.52 630.491 131.93C630.321 130.92 630.091 129.92 629.851 128.73C627.811 129.35 626.331 130.53 625.131 131.77C620.311 136.75 608.021 136.81 601.501 132.27C598.951 130.5 597.621 128.1 597.541 124.97C597.441 121.47 598.551 118.24 599.761 115.05C600.931 111.97 602.641 109.16 604.611 106.52C608.741 101 613.801 96.4704 619.561 92.7004C621.431 91.4704 623.421 90.4804 625.661 90.0904C628.561 89.5904 630.461 90.6204 631.561 93.3904C631.901 94.2404 632.121 95.1404 632.261 96.0404C632.341 96.5304 632.271 97.1404 632.021 97.5504C630.671 99.7504 628.841 101.4 626.201 101.84C624.621 102.1 623.061 102.12 621.891 100.65C620.491 98.8904 618.591 99.1704 616.861 99.8504C615.681 100.31 614.521 101.12 613.671 102.06C610.071 106.05 607.711 110.68 607.161 116.09C606.711 120.44 607.981 122.86 611.951 124.58C616.221 126.44 620.711 127.26 625.381 126.15C626.941 125.78 628.331 125.15 629.361 123.78Z" fill="#0DFF9D"/>
<path d="M587.393 87.9805C588.753 88.2905 589.493 89.1805 589.953 90.3205C592.933 97.7205 594.843 105.25 593.353 113.35C591.993 120.73 587.753 125.92 581.523 129.7C579.683 130.82 577.593 131.25 575.453 130.92C569.053 129.94 563.453 127.27 558.793 122.72C556.663 120.63 555.453 118.02 554.753 115.18C554.203 112.95 554.503 110.76 555.503 108.66C557.693 104.05 561.013 100.4 565.093 97.4105C565.263 97.2805 565.593 97.3705 566.113 97.3405C566.183 97.9005 566.453 98.5504 566.283 99.0504C565.913 100.16 565.383 101.23 564.813 102.26C563.423 104.75 563.383 107.32 564.573 109.82C565.293 111.34 566.223 112.85 567.393 114.03C571.283 117.94 576.003 120.41 581.483 121.3C581.983 121.38 582.513 121.26 582.913 121.24C584.183 120.45 584.273 119.2 584.513 118.07C585.323 114.27 584.983 110.49 584.103 106.75C583.683 104.96 583.133 103.2 582.543 101.47C581.853 99.4805 580.773 97.4305 581.673 95.4005C582.933 92.5805 583.673 89.2605 587.393 87.9805Z" fill="#0DFF9D"/>
<path d="M229.861 97.87C235.941 99.08 242.241 98.45 248.511 98.71C254.401 98.96 260.301 99.15 266.191 99.4C267.091 99.44 267.991 99.64 268.921 99.77C269.971 99.5 270.471 98.07 271.981 98.43C272.471 98.55 273.261 97.69 273.831 97.18C277.121 94.24 280.521 93.81 284.181 96.13C285.941 97.25 287.521 98.65 289.161 99.96C289.561 100.28 290.001 100.68 290.191 101.13C291.811 105.13 294.301 108.68 296.151 112.57C297.301 115 297.291 117.38 296.451 119.81C295.131 123.66 292.341 126.47 289.581 129.27C289.061 129.8 288.241 130.05 287.521 130.34C280.431 133.23 273.431 132.73 266.531 129.67C263.271 128.22 260.951 125.81 259.721 122.41C258.991 120.39 258.841 118.38 259.391 116.24C260.341 112.48 261.861 109.07 264.471 106.16C264.901 105.68 265.231 105.11 265.591 104.56C265.651 104.48 265.601 104.32 265.601 104.08C265.231 104.13 264.801 104.06 264.531 104.24C263.991 104.59 263.461 105 263.071 105.51C261.601 107.45 259.701 108.27 257.261 108.16C255.301 108.07 253.331 108.17 251.361 108.22C250.591 108.24 249.831 108.35 248.921 108.44C248.451 111.8 250.001 114.69 250.481 117.74C250.961 120.81 250.751 124.08 252.551 126.7C252.381 128.69 251.371 130.01 250.051 131.15C248.861 132.18 247.681 133.22 246.451 134.2C245.281 135.13 244.251 134.91 243.591 133.53C243.091 132.47 242.561 131.35 242.421 130.21C241.531 122.75 239.081 115.69 237.041 108.31C234.741 107.9 232.381 108.29 230.061 108.17C227.891 108.05 225.581 108.42 223.531 106.7C223.831 105.85 223.961 104.9 224.451 104.21C226.011 102.01 227.211 99.45 229.861 97.87ZM288.871 122.4C289.041 117.72 287.121 114.04 284.561 110.64C282.971 108.54 281.011 106.8 278.621 105.58C277.271 104.89 275.841 104.57 274.441 105.01C272.841 105.52 271.341 106.34 269.791 107.01C268.421 107.6 267.911 108.77 267.751 110.13C267.361 113.32 268.171 116.07 270.591 118.33C273.511 121.06 277.091 122.3 280.891 122.79C283.391 123.12 286.031 123.87 288.871 122.4Z" fill="#0DFF9D"/>
<path d="M196.582 112.98C196.742 113.72 196.972 114.22 196.942 114.7C196.762 117.16 197.902 119.04 199.642 120.55C204.652 124.9 210.452 126.77 217.082 125.87C217.182 125.86 217.262 125.71 217.542 125.45C217.362 123.67 216.262 122.21 215.082 120.85C212.212 117.54 208.752 114.95 204.762 113.15C197.592 109.91 190.282 107.03 182.662 104.98C182.532 104.95 182.402 104.94 182.282 104.89C178.822 103.66 177.002 102.71 180.122 98.86C180.702 98.15 181.082 97.28 181.652 96.58C183.582 94.21 185.752 92.5401 189.032 91.9101C195.752 90.6401 202.472 89.6101 209.292 89.3901C212.812 89.2701 216.342 89.6001 219.812 90.4401C223.112 91.2401 225.572 92.8701 226.662 96.4401C225.602 100.01 222.682 102.3 220.022 104.78C219.392 105.37 218.532 105.12 217.862 104.57C217.662 104.41 217.442 104.21 217.362 103.98C216.212 100.77 213.452 100.09 210.552 99.4501C207.962 98.8801 205.392 98.6801 202.792 98.8701C202.422 99.8901 203.192 100.03 203.722 100.28C206.922 101.79 210.152 103.21 213.322 104.79C216.512 106.38 219.272 108.59 221.752 111.17C223.402 112.89 224.662 114.86 225.672 117.02C227.122 120.14 226.922 123.15 225.132 126.03C223.392 128.83 221.252 131.32 218.742 133.46C217.112 134.84 215.232 135.69 213.042 135.85C209.212 136.13 205.472 135.74 201.752 134.77C198.052 133.8 195.152 131.66 192.702 128.84C191.292 127.22 190.112 125.5 191.632 123.22C191.952 122.74 191.802 121.94 191.892 121.29C192.302 118.5 193.532 116.06 195.142 113.79C195.392 113.45 195.972 113.31 196.582 112.98Z" fill="#0DFF9D"/>
<path d="M303.864 91.4598C305.714 91.4598 307.134 91.4898 308.554 91.4498C314.184 91.2998 319.454 92.6498 324.474 95.1398C326.034 95.9198 327.404 96.9098 328.444 98.2898C329.894 100.21 330.384 102.33 329.094 104.53C328.374 105.77 327.624 107.04 326.624 108.05C324.414 110.28 322.264 112.61 319.424 114.1C319.094 114.28 318.754 114.46 318.364 114.67C319.684 116.16 321.104 116.47 322.474 116.86C326.884 118.12 331.304 119.33 335.704 120.62C337.554 121.16 339.554 121.42 341.274 122.92C340.564 124.65 339.504 126.06 338.114 127.24C337.714 127.58 337.164 127.78 336.854 128.18C335.044 130.52 332.914 130.72 330.224 129.72C327.914 128.86 325.394 128.57 322.984 127.98C320.314 127.32 317.664 126.6 314.994 125.91C314.384 125.75 313.764 125.65 313.024 125.5C312.874 126.01 312.634 126.39 312.704 126.68C313.184 128.56 312.414 130 311.244 131.35C309.694 133.13 307.704 134.39 306.064 136.23C305.414 135.65 304.904 135.39 304.694 134.98C304.094 133.82 303.474 132.64 303.114 131.39C300.454 122.32 298.274 113.13 296.454 103.86C295.614 99.5697 297.624 96.5798 300.614 93.9798C301.704 93.0698 302.864 92.2398 303.864 91.4598ZM319.624 106.87C318.294 104.45 316.334 103.49 314.424 102.88C312.034 102.12 309.654 100.8 306.824 101.38C306.774 102.06 306.634 102.58 306.714 103.06C307.054 104.99 307.424 106.92 307.864 108.83C308.024 109.53 308.434 110.17 308.754 110.88C312.414 109.53 315.834 108.27 319.624 106.87Z" fill="#0DFF9D"/>
<path d="M366.652 134.77C366.022 136.64 364.442 137.3 363.102 137.91C361.592 138.61 359.832 138.89 358.162 139.06C356.632 139.22 355.372 138.33 354.572 137.05C353.672 135.61 352.792 134.12 352.152 132.56C351.112 130.02 350.123 127.43 349.393 124.79C348.773 122.54 348.572 120.18 348.092 117.33C347.702 117.05 346.912 116.38 346.042 115.85C341.472 113.05 338.012 109.16 335.062 104.76C334.772 104.33 334.502 103.87 334.252 103.41C331.832 98.8301 331.883 98.3401 335.203 94.4201C336.722 92.6301 338.342 90.9501 340.462 90.0101C342.072 90.6701 342.142 92.1001 342.582 93.3001C344.412 98.2301 347.542 102.19 351.652 105.41C352.142 105.8 352.732 106.06 353.532 106.53C354.172 105.39 354.802 104.44 355.272 103.41C355.922 101.98 356.552 100.52 357.002 99.0201C358.332 94.5301 361.512 91.4201 364.812 88.4001C365.662 87.6201 366.632 86.9301 368.182 86.8701C368.182 87.6101 368.362 88.2801 368.152 88.7801C365.272 95.6701 362.403 102.56 359.393 109.39C358.333 111.79 358.062 114.12 358.692 116.64C360.102 122.27 362.122 127.64 365.322 132.52C365.832 133.26 366.242 134.06 366.652 134.77Z" fill="#0DFF9D"/>
<path d="M121.951 91.8496C122.411 92.9196 122.661 93.4796 122.901 94.0496C123.131 94.1496 123.371 94.3296 123.601 94.3396C127.821 94.4696 131.951 95.0996 135.901 96.6096C137.981 97.3996 140.011 98.3196 141.591 99.9896C144.301 102.86 144.471 106.03 142.071 109.19C139.971 111.95 137.211 113.94 134.361 115.83C133.521 116.39 132.681 116.95 131.741 117.57C132.921 118.5 134.071 118.59 135.231 118.69C138.361 118.97 141.491 119.2 144.611 119.58C146.011 119.75 147.361 120.24 149.061 120.66C148.591 121.73 148.411 122.69 147.851 123.28C145.601 125.65 143.261 127.89 139.561 127.6C136.821 127.38 134.071 127.33 131.321 127.24C130.301 127.21 129.281 127.26 128.001 127.28C128.071 128.17 127.971 128.83 128.191 129.36C128.881 131.06 129.691 132.71 130.431 134.38C131.421 136.6 131.061 137.6 128.941 138.87C127.801 139.55 126.651 140.12 125.261 140.05C124.221 140 123.181 140.04 121.901 140.04C120.031 138.62 118.731 136.56 117.841 134.19C117.471 133.21 117.081 132.24 116.721 131.25C116.131 129.65 115.781 127.9 114.891 126.5C114.091 125.25 112.681 124.39 111.451 123.27C111.661 122.75 111.761 122.23 112.051 121.84C112.731 120.92 112.961 119.97 112.531 118.9C110.871 114.76 110.841 110.45 111.221 106.12C111.331 104.86 110.871 104.15 109.641 103.68C110.321 100.58 111.851 98.2096 114.881 96.8696C115.931 96.4096 116.831 95.5796 117.771 94.8896C119.021 93.9796 120.161 92.8996 121.951 91.8496ZM122.621 113.31C127.331 112.89 131.611 111.47 133.621 109.71C131.481 105.82 126.531 103.4 120.861 103.64C120.421 107.07 121.501 110.2 122.621 113.31Z" fill="#0DFF9D"/>
<path d="M24.5335 106.11C26.2835 101.19 27.2135 96.6996 27.7135 92.1596C28.2435 87.3596 30.1435 83.0996 32.2535 78.8796C32.7035 77.9696 33.4235 77.1596 34.1635 76.4396C34.8035 75.8096 36.1135 76.1596 36.5035 76.9996C36.7735 77.5796 37.0435 78.2196 37.0835 78.8496C37.1735 80.0196 37.2535 81.2296 37.0535 82.3796C36.1035 87.9296 35.1135 93.4796 34.0135 99.0096C33.4035 102.09 32.4835 105.11 31.8035 108.18C31.5135 109.49 31.1535 110.68 30.1835 111.68C28.9735 112.91 28.7635 114.5 29.1235 116.08C29.5235 117.86 30.0635 119.62 30.6835 121.34C32.0135 125.02 33.4435 128.67 34.8035 132.28C32.1835 135.39 28.8735 135.78 25.1935 135.9C21.5835 130.21 18.0335 124.58 19.7635 117.13C19.0535 116.71 18.2935 116.25 17.5235 115.8C14.8035 114.22 12.0335 112.73 9.37351 111.05C6.33351 109.13 4.03351 106.46 2.15351 103.4C1.29351 102 1.12351 100.74 2.28351 99.4596C4.03351 97.5196 5.77351 95.5596 7.57351 93.6696C8.00351 93.2196 8.65351 92.9896 9.41352 92.5296C10.0635 93.2296 10.9035 93.7595 11.2235 94.5195C13.7235 100.47 19.0135 103.08 24.5335 106.11Z" fill="#0DFF9D"/>
<path d="M53.0528 101.54C56.0628 98.1097 59.5228 99.1197 62.6928 100.91C66.5128 103.06 69.7228 105.94 70.9428 110.47C71.1728 111.33 71.7028 112.11 72.0828 112.94C73.2028 115.33 73.3028 117.65 71.9628 120.06C69.6728 124.18 66.4428 127.38 62.5628 129.9C61.3028 130.72 59.6728 131.17 58.1628 131.35C55.9628 131.61 53.7228 131.5 51.4928 131.51C49.3028 131.52 47.4528 130.51 45.6828 129.38C44.3728 128.54 43.1928 127.5 41.9128 126.59C38.9728 124.49 37.9628 121.52 37.9928 118.07C37.9928 117.81 37.9828 117.52 38.0928 117.3C39.0328 115.29 39.7228 113.1 41.0028 111.33C43.2228 108.26 45.7928 105.45 48.2428 102.56C48.6528 102.07 49.2428 101.73 49.7628 101.33C50.8528 100.51 51.9228 100.55 53.0528 101.54ZM63.1428 122.23C63.6028 120.77 63.1228 119.42 62.5728 118.07C60.6928 113.38 57.1528 110.46 52.5528 108.68C51.4928 108.27 50.4128 107.93 49.4028 107.59C49.4528 106.74 49.4828 106.14 49.5328 105.27C46.1228 108.66 45.4228 111.63 46.9628 115.32C49.3328 120.98 57.0228 124.28 63.1428 122.23Z" fill="#0DFF9D"/>
<path d="M96.1525 125.27C97.1125 124.03 96.7825 122.84 96.6825 121.69C96.4625 118.95 96.3025 116.19 95.9425 113.46C95.7425 111.92 96.0325 110.61 96.9525 109.4C98.1425 107.84 99.3225 106.26 100.553 104.73C100.953 104.22 101.463 103.78 101.983 103.39C102.803 102.77 103.923 103.05 104.213 104.04C104.753 105.92 105.303 107.83 105.553 109.76C105.933 112.75 106.013 115.77 106.313 118.77C106.743 122.97 105.593 126.54 102.373 129.37C101.493 130.15 100.563 130.87 99.6725 131.65C96.8225 134.15 93.7125 134.92 89.8525 134.21C86.2925 133.55 82.9825 132.57 79.9825 130.62C75.4625 127.68 73.1325 123.55 73.1925 118.08C73.2125 116.56 73.5025 115.18 74.4425 114.04C76.7625 111.21 79.1525 108.44 81.5425 105.66C81.8725 105.28 82.3125 104.98 82.7525 104.73C82.9325 104.63 83.2925 104.7 83.4825 104.83C83.6725 104.95 83.8825 105.27 83.8425 105.45C83.6225 106.47 83.4225 107.51 83.0625 108.48C81.0825 113.84 83.2825 118.5 87.0225 121.44C89.7325 123.56 92.6725 125.22 96.1525 125.27Z" fill="#0DFF9D"/>
<path d="M186.031 16.3798C185.391 17.6798 185.991 18.6498 186.511 19.4998C186.791 19.9698 187.551 20.3397 188.131 20.3997C189.561 20.5597 191.011 20.5498 192.451 20.5398C196.911 20.5298 201.361 20.4998 205.821 20.4798C206.081 20.4798 206.351 20.4798 206.611 20.5098C207.611 20.6498 208.891 20.2798 209.461 21.3898C210.141 22.7098 209.061 23.5898 208.241 24.4098C206.861 25.7998 205.441 27.1598 203.991 28.4798C202.961 29.4198 201.661 29.5397 200.301 29.5197C197.811 29.4797 195.311 29.5098 192.821 29.5598C192.081 29.5798 191.351 29.7798 190.341 29.9398C191.351 34.3898 193.141 38.3398 193.971 42.5698C193.511 44.5898 192.061 45.9397 190.641 47.2997C189.601 48.2997 188.541 49.2698 187.421 50.1898C186.611 50.8498 185.611 50.5498 185.171 49.5598C184.901 48.9698 184.731 48.3297 184.511 47.7097C182.761 42.6297 181.021 37.5498 179.251 32.4698C179.041 31.8598 178.681 31.2997 178.331 30.6097C177.291 30.6097 176.261 30.6498 175.251 30.5998C174.221 30.5498 173.201 30.4298 172.021 30.3198C170.721 33.0398 168.961 35.4197 167.111 37.7997C164.081 41.6997 160.091 43.1298 155.501 43.4798C153.411 43.6398 151.311 43.5098 149.191 43.5098C147.941 44.5798 146.771 45.5798 145.501 46.6698C143.931 45.9298 143.021 44.6398 141.981 43.4998C141.191 42.6298 140.461 41.6898 139.741 40.7498C138.921 39.6798 137.981 38.9798 136.591 38.6198C134.691 38.1297 134.541 37.4698 135.251 35.3498C135.371 34.9798 135.541 34.6297 135.761 34.0797C134.451 31.4997 132.921 28.8998 131.771 26.1398C130.671 23.4998 129.981 20.6898 129.031 17.6998C127.371 17.1198 125.541 16.5497 123.661 17.5197C122.951 18.6597 123.471 19.6298 123.821 20.5998C125.451 25.1698 127.011 29.7697 128.781 34.2997C129.321 35.6897 129.381 36.9998 128.621 38.0398C126.861 40.4498 125.301 43.0898 122.781 44.7898C121.271 44.8798 120.211 44.0598 119.111 43.3798C112.651 39.3698 106.191 35.3298 99.7312 31.3198C98.6412 30.6498 97.5012 30.0497 96.4012 29.4297C95.4912 30.6797 96.1313 31.6698 96.3613 32.6198C97.0213 35.3698 96.5713 37.8398 94.7413 40.0098C93.5013 41.4798 92.7313 43.3998 90.8213 44.4098C89.3613 43.6098 88.8013 42.2397 88.4413 40.8997C87.1113 35.8197 85.8213 30.7298 84.6613 25.6198C83.9613 22.5398 84.5113 19.6297 86.4913 17.0497C87.6913 15.4997 88.6813 13.7698 89.9513 12.2798C91.3212 10.6698 92.1213 10.7698 93.9413 12.2298C96.6013 14.3598 99.2113 16.5598 102.001 18.5098C105.971 21.2698 110.081 23.8297 114.071 26.4297C115.011 25.7197 114.541 25.0798 114.331 24.5598C113.371 22.1198 112.461 19.6598 111.311 17.3098C110.281 15.2098 110.131 13.3698 111.691 11.4798C112.781 10.1698 113.651 8.68975 114.741 7.36975C115.291 6.69975 116.101 6.23977 117.001 5.50977C117.591 6.25977 118.161 6.77977 118.481 7.41977C119.701 9.86977 120.841 12.3598 122.151 15.1398C122.901 14.2698 123.491 13.6197 124.041 12.9297C125.101 11.5997 126.141 10.2497 127.181 8.89975C128.231 7.53975 129.541 6.91976 131.301 7.18976C135.441 7.84976 139.621 8.30976 143.731 9.12976C147.451 9.87976 151.101 10.9998 154.571 12.6198C155.391 12.9998 156.281 13.2398 157.331 13.5998C157.981 12.9798 158.681 12.4198 159.241 11.7498C159.911 10.9498 160.461 10.0397 161.051 9.17975C162.931 6.42975 165.351 5.41974 168.791 5.82974C172.671 6.29974 176.631 6.04975 180.561 6.14975C181.851 6.17975 183.131 6.40977 184.421 6.41977C190.461 6.47977 196.491 6.53976 202.531 6.49976C205.671 6.47976 208.821 6.21975 211.961 6.08975C213.051 6.04975 213.641 6.85977 213.261 7.91977C213.001 8.64977 212.731 9.44976 212.231 9.99976C210.551 11.8398 208.961 13.8598 206.971 15.2798C205.331 16.4498 203.161 16.8298 201.011 16.3997C199.871 16.1698 198.721 15.8198 197.571 15.8198C194.161 15.8098 190.751 15.9397 187.341 16.0497C186.881 16.0697 186.401 16.2898 186.031 16.3798ZM162.591 33.7898C161.761 31.2898 161.791 31.2598 160.641 30.0898C155.731 25.1298 149.611 22.3498 143.011 20.4798C142.621 20.3698 142.151 20.5198 141.361 20.5698C143.641 24.8198 145.981 28.5497 148.401 32.2397C149.011 33.1697 149.871 33.7298 150.991 33.7798C154.741 33.9498 158.511 34.3198 162.591 33.7898ZM162.161 16.0698C163.731 17.2998 164.561 17.9298 165.371 18.5898C166.081 19.1698 166.781 19.7697 167.441 20.3997C168.201 21.1198 168.981 21.8298 169.651 22.6198C170.241 23.3098 170.681 24.1298 171.211 24.8798C171.771 25.6598 171.871 26.7698 173.001 27.5698C173.961 26.2398 174.861 25.1297 175.601 23.9297C175.921 23.4097 176.141 22.6497 176.011 22.0797C175.561 20.0697 175.471 17.9298 174.161 15.9698C170.471 15.6698 166.751 15.6298 162.161 16.0698Z" fill="#0DFF9D"/>
<path d="M225.141 10.4196C228.441 12.1896 231.551 13.8496 234.831 15.6096C237.481 12.1896 239.641 8.21965 243.141 5.88965C245.541 6.05965 247.601 6.29962 249.661 6.32962C255.541 6.41962 261.081 7.83963 266.371 10.3396C268.401 11.2996 270.231 12.5596 271.701 14.2996C273.111 15.9596 273.391 17.7696 272.721 19.8096C272.041 21.8596 270.781 23.5096 269.321 25.0396C268.331 26.0696 267.311 27.0696 266.291 28.1096C269.431 30.3096 277.551 31.8696 285.381 31.8796C286.001 31.3496 285.701 30.6796 285.591 30.0596C285.011 26.8296 284.391 23.6096 283.801 20.3896C283.581 19.1896 282.881 18.5896 281.691 18.4196C279.621 18.1296 277.561 17.7796 275.221 17.4196C275.301 16.7396 275.161 15.9696 275.481 15.5996C277.361 13.4196 279.311 11.2896 281.301 9.21964C282.181 8.30963 283.301 8.21964 284.581 8.46964C292.061 9.89963 299.471 11.5496 306.561 14.4296C309.971 15.8196 313.371 17.2096 316.481 19.1896C318.361 20.3896 320.211 21.6196 321.661 23.3796C323.971 26.1896 324.231 28.4696 322.491 31.6996C322.371 31.9296 322.231 32.1596 322.081 32.3696C317.871 38.2496 312.741 42.9896 305.761 45.3896C301.661 46.7996 297.571 48.1996 294.331 51.2896C294.061 51.5496 293.651 51.6496 293.071 51.9496C292.631 51.3796 292.001 50.8696 291.781 50.2196C290.251 45.7596 288.811 41.2696 287.331 36.7896C287.021 35.8396 286.681 34.8996 286.231 33.5996C285.391 34.4396 284.741 34.9096 284.351 35.5296C283.211 37.3596 281.451 38.5296 279.881 39.8996C278.721 40.8996 277.361 41.1396 275.831 40.9296C273.361 40.5996 270.871 40.4796 268.401 40.1396C264.901 39.6496 261.421 39.0196 257.931 38.4696C257.451 38.3896 256.961 38.3996 256.111 38.3496C256.701 39.5796 257.141 40.4996 257.681 41.6196C256.931 45.6596 253.181 47.2496 250.741 49.7996C249.031 49.4896 248.181 48.4496 247.551 47.3096C246.481 45.3596 245.471 43.3696 244.621 41.3096C243.671 39.0096 242.961 36.6096 242.101 34.2696C241.851 33.5896 241.481 32.9696 240.931 31.8396C239.061 35.7396 236.681 38.6796 234.031 41.3796C232.671 42.7596 231.101 44.0096 229.451 45.0296C227.041 46.5096 224.381 47.0796 221.521 46.4196C219.351 45.9196 217.071 45.7896 215.001 45.0496C213.061 44.3596 211.211 43.2496 209.541 42.0196C206.561 39.8196 205.161 35.9496 207.581 31.8896C209.681 28.3796 212.171 25.1696 214.971 22.2096C216.051 21.0596 216.961 19.8296 217.841 18.5096C219.431 16.1196 221.351 13.9496 223.191 11.7396C223.581 11.2496 224.251 10.9996 225.141 10.4196ZM295.061 22.2196C295.571 25.8096 296.471 28.6496 297.321 31.4896C298.191 34.4196 298.551 37.5596 300.541 40.2396C304.901 38.0696 309.741 37.6796 313.551 35.2396C314.021 33.7996 313.621 32.8196 312.911 32.0196C311.961 30.9496 310.981 29.8596 309.831 29.0296C305.561 25.9596 300.821 23.8596 295.061 22.2196ZM223.391 22.3396C221.611 23.1496 220.181 23.7396 218.801 24.4496C217.881 24.9196 216.961 25.4696 216.201 26.1596C214.871 27.3596 214.671 28.9096 215.571 30.4396C215.961 31.1096 216.461 31.7596 217.051 32.2596C221.511 36.1096 226.611 37.2996 232.271 36.0996C233.531 29.6396 230.281 24.7396 223.391 22.3396ZM262.681 23.3096C261.921 21.2796 260.541 20.5196 259.171 19.8296C255.711 18.0896 252.171 16.5396 247.991 16.2496C247.621 18.1096 248.511 19.4896 248.921 20.9396C249.311 22.3196 249.781 23.6896 250.351 24.9996C250.941 26.3596 251.091 27.9996 252.451 29.0196C254.041 27.8396 255.411 26.6096 256.971 25.7396C258.671 24.8096 260.551 24.1996 262.681 23.3096Z" fill="#0DFF9D"/>
<path d="M42.6122 31.97C44.3322 29.61 45.6922 27.7 47.0922 25.82C48.2522 24.26 48.2822 24.28 50.7322 23.3C51.1222 22.28 51.6522 21.09 52.0522 19.86C53.6022 15.08 55.9222 10.68 58.7622 6.56003C59.6422 5.28003 60.7622 4.14003 61.8922 3.06003C62.8122 2.19003 63.8622 2.39004 64.5422 3.51004C65.8922 5.76004 67.1722 8.04002 68.4522 10.33C72.6222 17.79 77.5922 24.71 82.8222 31.46C83.6222 32.5 84.3422 33.6 85.0722 34.68C86.9122 37.42 86.7422 40.13 84.8122 42.71C83.5622 44.39 82.1822 45.98 80.8022 47.55C79.9522 48.52 78.7722 48.26 78.4122 46.95C77.0922 42.22 73.6222 38.93 71.0422 35.16C64.5622 36.48 58.3222 36.11 51.8822 35.58C50.4722 37.51 49.1122 39.41 47.7122 41.29C46.7222 42.62 45.8322 43.04 45.2022 42.52C44.3322 41.79 44.5822 40.91 44.9022 40.01C45.4122 38.54 45.9022 37.05 46.3922 35.6C44.5922 34.67 43.8822 34.66 43.4422 35.86C42.2322 39.11 39.7322 41.15 37.0122 43.37C36.4322 42.78 35.8022 42.32 35.4122 41.71C33.9222 39.4 32.5222 37.02 31.0522 34.69C30.3622 33.6 29.5822 32.56 28.6722 31.25C27.1222 32.53 26.2222 34.28 24.3822 34.71C22.6022 35.12 20.8022 35.49 18.8322 35.92C18.9122 37.46 19.2222 38.99 18.3522 40.44C17.2422 42.29 14.7522 45.34 12.6722 46.95C11.2622 46.09 10.6322 44.68 10.1722 43.17C9.71219 41.67 9.30219 40.14 8.82219 38.64C8.42219 37.39 7.60219 36.71 6.21219 36.7C4.67219 36.7 3.09219 36.85 1.49219 36.09C1.75219 32.7 4.43219 30.56 5.64219 27.5C5.36219 24.37 3.48219 20.99 5.39219 17.72C6.92219 15.09 7.83219 11.9 11.0622 10.18C13.1622 15.31 13.9522 20.64 15.7322 25.65C18.9122 26.32 21.8322 26.26 24.7722 25.54C25.1722 24.05 24.2522 23.15 23.7822 22.12C22.4922 19.26 21.1322 16.42 19.8722 13.54C18.6722 10.81 18.8422 8.22003 20.7522 5.78003C21.8022 4.45003 22.6022 2.92004 23.6322 1.57004C24.0622 1.00004 24.8022 0.670039 25.6822 0.0400391C26.0422 0.870039 26.3822 1.40004 26.5022 1.98004C27.1922 5.36004 28.4922 8.50002 30.2222 11.46C33.5822 17.24 36.9422 23.03 40.3422 28.79C40.9022 29.78 41.6622 30.67 42.6122 31.97ZM58.3722 16.61C57.4522 19.62 56.2322 21.66 56.1022 24.2C58.5922 25.32 61.0822 26.01 63.9222 25.46C63.4822 22.92 61.8922 21.3 60.7522 19.44C60.2422 18.6 59.4822 17.91 58.3722 16.61Z" fill="#0DFF9D"/>
<path d="M842.381 40.2601C841.001 36.0801 839.971 32.1801 843.441 28.6402C843.801 28.8601 844.261 28.9801 844.381 29.2501C845.221 31.0201 846.751 32.0701 848.361 32.9401C854.401 36.2101 860.821 38.4401 867.561 39.7501C868.181 39.8701 868.821 39.8901 869.361 39.9501C869.981 39.0802 869.551 38.5701 869.121 38.0901C866.141 34.6801 862.551 32.0601 858.481 30.1201C855.641 28.7701 852.701 27.6301 849.801 26.4001C846.541 25.0201 843.281 23.6501 840.021 22.2601C839.541 22.0601 839.051 21.8501 838.601 21.5901C834.591 19.2801 834.751 17.7801 837.091 14.8001C838.221 13.3601 839.461 11.9901 840.601 10.5501C842.251 8.46012 844.471 7.46013 847.031 7.18013C850.811 6.77013 854.591 6.33012 858.381 6.08012C862.191 5.84012 865.961 6.42014 869.691 7.22014C870.571 7.41014 871.441 7.76015 872.241 8.20015C873.791 9.05015 873.991 10.3201 872.841 11.7801C872.351 12.4001 871.781 12.9501 871.231 13.5101C870.221 14.5401 869.141 15.5001 868.191 16.5801C867.061 17.8701 865.801 18.0501 864.311 17.3701C861.521 16.0901 858.581 15.6201 854.851 15.7701C855.941 16.4501 856.481 16.8602 857.081 17.1402C860.051 18.5302 863.061 19.8201 866.001 21.2701C870.781 23.6101 874.841 26.8401 878.061 31.1402C880.311 34.1502 880.521 37.1101 878.531 40.2401C876.391 43.6101 873.711 46.4401 870.211 48.4401C868.051 49.6701 865.661 49.9101 863.341 49.5601C860.381 49.1001 857.351 48.5101 854.621 47.3501C850.301 45.5101 846.071 43.3801 842.381 40.2601Z" fill="#0DFF9D"/>
<path d="M768.123 11.6797C766.953 13.1697 766.543 14.1097 765.843 14.4897C763.793 15.5997 761.623 16.4797 759.503 17.4697C758.803 17.7997 758.003 18.0497 757.443 18.5397C755.473 20.2797 753.123 20.9297 750.603 21.1897C747.863 21.4797 745.133 21.7797 742.333 22.0797C741.303 23.1797 740.643 24.3797 740.513 26.0997C746.613 24.9597 752.633 25.3097 758.623 25.0797C759.933 25.0297 761.233 24.8097 762.533 24.7597C763.123 24.7397 763.723 24.9197 764.713 25.0797C764.153 26.0597 763.863 26.7497 763.413 27.3197C761.223 30.0497 758.143 31.6297 755.173 33.2497C753.243 34.2997 750.943 34.5597 748.663 34.5097C746.713 34.4597 744.733 34.4897 742.633 35.5597C743.123 36.1497 743.443 36.6897 743.893 37.0397C746.883 39.3597 750.433 40.3097 754.043 41.0697C755.193 41.3097 756.393 41.3397 757.563 41.4797C760.303 41.7997 762.853 41.5897 764.303 38.8297C766.023 39.6097 766.373 40.0197 765.913 41.0097C765.363 42.1897 764.793 43.4297 763.933 44.3797C762.173 46.3097 760.273 48.1497 758.283 49.8497C757.543 50.4797 756.393 50.8897 755.413 50.9197C752.673 50.9797 749.853 51.1497 747.193 50.5997C744.143 49.9797 741.123 48.8797 738.293 47.5597C731.883 44.5697 729.263 37.3397 732.333 30.9597C733.353 28.8397 734.313 26.6897 735.303 24.5397C734.673 23.9497 733.823 23.5297 733.683 22.9397C733.523 22.2897 734.013 21.4897 734.233 20.7497C734.273 20.6297 734.373 20.5297 734.443 20.4197C737.853 14.9697 739.533 13.8097 745.943 12.6997C747.623 12.4097 749.323 12.1997 751.023 12.1397C756.393 11.9497 761.763 11.8397 768.123 11.6797Z" fill="#0DFF9D"/>
<path d="M686.433 14.3301C685.853 11.8201 687.243 10.3101 688.523 8.85011C688.953 8.36011 689.923 8.16011 690.653 8.16011C701.803 8.12011 712.943 7.21012 724.093 7.95012C726.443 8.10012 728.812 7.99011 731.172 8.03011C732.482 8.05011 733.813 8.03011 735.153 9.03011C734.923 9.53011 734.793 10.2001 734.403 10.5901C733.023 11.9701 731.592 13.3101 730.102 14.5801C728.022 16.3601 725.533 17.0801 722.833 17.1501C720.993 17.2001 719.163 17.2101 717.323 17.2501C716.153 17.2701 714.982 17.3101 713.602 17.3501C713.372 18.3501 712.942 19.2301 713.042 20.0401C713.292 22.1101 713.633 24.2001 714.213 26.2001C715.453 30.4801 716.822 34.7301 718.222 38.9601C718.712 40.4401 718.203 41.4801 717.213 42.4801C715.563 44.1501 713.313 44.5501 711.213 45.2301C710.763 45.3801 709.913 44.9201 709.523 44.4901C709.013 43.9401 708.693 43.1601 708.443 42.4301C707.203 38.8401 705.953 35.2401 704.823 31.6101C703.613 27.7101 704.013 23.8301 705.333 20.0201C705.583 19.3101 705.893 18.6201 706.273 17.6701C705.223 17.5501 704.472 17.3901 703.722 17.3801C701.492 17.3401 699.263 17.3601 697.033 17.3601C694.923 17.3601 692.943 17.2201 691.063 15.9001C689.833 15.0501 688.133 14.8801 686.433 14.3301Z" fill="#0DFF9D"/>
<path d="M804.084 35.1205C803.964 35.7105 803.994 36.1605 803.794 36.4505C801.354 40.0705 798.394 43.2705 794.824 45.7105C789.494 49.3505 782.824 48.9405 777.764 45.5905C775.584 44.1405 774.354 41.9505 773.494 39.5905C772.224 36.0705 772.004 32.4505 772.694 28.7305C773.894 22.2905 777.084 17.0005 781.694 12.4705C782.064 12.1105 782.464 11.7305 782.934 11.5305C783.234 11.4005 783.754 11.4805 784.014 11.6705C784.274 11.8705 784.544 12.3905 784.464 12.6605C784.164 13.6505 783.784 14.6405 783.314 15.5705C781.954 18.3005 781.094 21.1805 780.814 24.2105C780.734 25.1205 780.694 26.0505 780.784 26.9605C781.794 36.9805 791.464 41.7905 800.304 36.7005C801.314 36.1205 802.334 35.5405 803.354 34.9805C803.444 34.9405 803.594 35.0205 804.084 35.1205Z" fill="#0DFF9D"/>
<path d="M837.663 35.4896C837.333 36.0396 837.093 36.6596 836.673 37.1096C834.533 39.4096 832.343 41.6696 830.163 43.9296C828.263 45.8996 825.903 46.9096 823.233 47.3596C819.483 47.9896 815.893 47.4496 812.483 45.8996C808.973 44.3096 806.993 41.5296 806.803 37.5996C806.633 34.0196 807.033 30.4996 808.243 27.1296C809.483 23.6596 811.043 20.3396 813.333 17.3996C814.463 15.9596 815.383 14.3496 816.493 12.8896C817.333 11.7796 818.103 10.5096 819.913 10.1396C819.933 11.0396 820.153 11.8296 819.943 12.4796C819.293 14.4696 818.513 16.4196 817.723 18.3696C816.433 21.5596 815.583 24.8396 815.543 28.3096C815.473 33.3596 817.543 36.2096 822.483 37.3796C826.663 38.3696 830.793 38.3096 834.693 36.0596C835.493 35.5896 836.313 34.5696 837.663 35.4896Z" fill="#0DFF9D"/>
<path d="M411.552 25.1903C410.152 27.7803 409.762 29.8603 409.612 31.9203C409.332 35.6903 407.652 38.6303 404.942 41.1103C404.272 41.7303 403.712 42.4703 403.032 43.0903C401.702 44.3103 400.722 44.4303 399.182 43.2603C397.832 42.2403 396.482 41.1203 395.442 39.8103C393.502 37.3503 391.782 34.7203 389.972 32.1503C389.612 31.6303 389.272 31.1003 388.662 30.1803C388.292 31.1103 387.902 31.6503 387.892 32.1903C387.872 33.4903 387.972 34.8003 388.132 36.0903C388.252 37.1003 389.122 38.1303 388.432 39.1103C387.542 40.3803 386.532 41.6203 385.372 42.6303C384.222 43.6303 382.432 43.2103 381.622 41.8903C380.872 40.6503 380.342 39.3203 380.452 37.8103C380.722 34.2803 380.872 30.7403 381.222 27.2303C381.572 23.7103 382.082 20.2003 382.582 16.7003C382.712 15.8103 382.922 14.8303 383.432 14.1303C384.962 12.0103 386.532 9.91028 388.312 8.00028C389.982 6.22028 390.982 6.52028 392.032 8.87028C392.562 10.0603 392.982 11.3103 393.392 12.5503C395.092 17.6903 397.532 22.4603 400.482 26.9703C401.112 27.9303 401.602 29.0703 403.222 29.3703C403.692 28.3903 404.242 27.3803 404.672 26.3203C405.692 23.7603 406.612 21.1703 407.642 18.6103C409.232 14.6503 411.812 11.3603 414.872 8.43028C415.152 8.16028 415.452 7.9003 415.772 7.6703C416.592 7.1003 417.632 7.3903 418.012 8.3903C418.482 9.6103 418.902 10.8603 419.192 12.1303C420.982 19.8303 423.672 27.2003 427.522 34.1103C428.662 36.1603 430.042 38.0803 431.422 40.2203C431.412 41.8803 430.572 43.2303 429.032 44.2503C427.842 45.0503 426.742 45.9903 425.582 46.8403C424.072 47.9503 423.122 47.9003 421.822 46.4703C419.592 44.0303 417.882 41.2203 416.612 38.1803C415.142 34.6803 413.842 31.1103 412.472 27.5703C412.272 26.9903 412.032 26.4103 411.552 25.1903Z" fill="#0DFF9D"/>
<path d="M588.812 35.0601C589.182 33.0501 589.072 31.3801 588.812 29.7301C588.382 26.9801 588.282 24.3401 589.732 21.7401C590.542 20.2901 590.642 18.4601 591.282 16.8901C591.872 15.4501 592.662 14.0701 593.562 12.8001C593.932 12.2801 594.802 12.1101 595.772 11.6201C596.102 13.2201 596.422 14.4601 596.612 15.7301C597.312 20.5201 597.882 25.3401 598.672 30.1201C599.162 33.0901 599.822 36.0401 600.662 38.9201C601.362 41.3201 600.932 43.1501 599.192 44.9801C597.802 46.4301 596.162 47.4501 594.592 48.6101C593.062 49.7401 591.522 49.6501 590.292 48.4701C588.442 46.7101 586.152 45.7401 584.052 44.4301C583.832 44.2901 583.602 44.1501 583.362 44.0501C576.382 40.9401 570.102 36.7001 564.082 32.0601C563.792 31.8301 563.402 31.7401 563.082 31.5901C562.152 31.9601 562.472 32.6901 562.512 33.2701C562.572 34.0501 562.762 34.8201 562.902 35.5901C563.142 36.8501 563.862 38.1201 563.062 39.3901C562.072 40.9501 560.932 42.4001 559.182 43.1801C558.012 43.7001 556.802 44.1001 555.682 44.5301C554.242 43.9501 554.122 42.7101 553.932 41.5601C552.952 35.8901 552.002 30.2101 551.072 24.5201C550.902 23.4901 550.782 22.4301 550.852 21.4001C550.902 20.6601 551.142 19.7901 551.612 19.2401C553.302 17.2501 555.072 15.3101 556.932 13.4701C558.122 12.2901 559.072 12.3601 560.412 13.3901C560.822 13.7101 561.242 14.0501 561.572 14.4401C563.602 16.8901 566.182 18.7001 568.672 20.6201C570.752 22.2101 572.662 24.0201 574.772 25.5801C578.662 28.4701 582.622 31.2501 586.582 34.0401C587.172 34.4501 587.922 34.6601 588.812 35.0601Z" fill="#0DFF9D"/>
<path d="M500.033 22.7697C498.843 22.2397 497.533 21.6697 496.243 21.0597C492.073 19.1197 485.943 21.0497 483.053 23.7897C481.493 25.2697 481.283 28.1797 482.503 30.3697C483.353 31.8897 484.523 33.1897 486.063 33.9597C487.923 34.8897 489.853 35.7997 491.853 36.3097C497.243 37.6797 502.713 38.0197 508.403 36.5397C510.913 32.6297 513.453 28.4897 518.013 25.7597C518.313 26.3797 518.733 26.8797 518.773 27.3997C518.813 28.0297 518.573 28.6897 518.363 29.3097C517.163 32.8397 517.573 36.3197 518.813 39.7197C519.793 42.4197 520.943 45.0597 522.063 47.8297C520.743 51.5997 517.673 53.7497 514.553 55.8397C511.783 53.6297 511.783 53.6297 507.723 41.3497C505.753 42.1297 504.103 43.3897 502.383 44.5597C501.323 45.2797 500.143 46.1597 498.943 46.2897C493.733 46.8697 488.483 47.3597 483.363 45.6297C480.483 44.6597 477.783 43.4097 475.673 41.0897C472.613 37.7097 471.953 33.9797 473.893 29.8497C474.393 28.7897 474.973 27.7497 475.643 26.7797C478.353 22.8797 481.563 19.4297 485.243 16.4297C487.603 14.5097 490.253 13.1097 493.073 11.9797C495.573 10.9797 498.163 10.8097 500.803 10.9197C503.323 11.0197 505.273 12.2697 506.963 14.0097C507.773 14.8397 507.893 15.7997 507.403 16.8997C506.733 18.4097 505.623 19.4897 504.273 20.3297C502.963 21.1497 501.583 21.8897 500.033 22.7697Z" fill="#0DFF9D"/>
<path d="M434.871 37.6596C433.031 36.8696 430.981 37.2296 430.141 35.0996C431.491 32.2096 433.481 29.6296 436.021 27.5496C436.851 26.8696 438.141 26.7396 439.511 26.2596C440.981 22.7996 442.321 18.9796 443.121 14.9996C444.081 10.2196 447.051 6.81958 450.481 3.66958C450.671 3.48958 450.881 3.32958 451.111 3.19958C451.971 2.65958 452.891 2.97957 453.331 4.00957C453.641 4.72957 453.911 5.47957 454.121 6.22957C457.251 17.3696 462.571 27.3996 469.601 36.5496C470.401 37.5896 471.141 38.6796 471.881 39.7596C472.621 40.8296 472.731 41.9796 472.021 43.0896C470.251 45.8796 468.081 48.2696 465.301 49.9096C463.801 49.5996 463.341 48.4596 462.671 47.4996C460.061 43.7296 457.421 39.9896 454.761 36.1796C452.531 36.7196 450.561 37.3896 448.541 37.6396C446.471 37.8996 444.361 37.7396 442.351 37.7696C440.521 39.5496 438.851 41.2096 437.131 42.8196C436.491 43.4196 435.791 44.2496 434.761 43.5696C433.841 42.9496 434.051 41.9496 434.201 41.0496C434.371 40.0196 434.601 39.0096 434.871 37.6596ZM450.091 28.1696C449.421 25.8596 448.951 24.1496 447.591 22.5296C446.541 24.2396 445.441 25.6496 446.011 27.8396C447.231 27.9296 448.351 28.0196 450.091 28.1696Z" fill="#0DFF9D"/>
<path d="M655.73 49.8703C654.19 52.9503 653.77 53.3003 647.48 56.4803C645.99 56.2603 645.36 55.1003 644.97 53.8403C644.2 51.3403 643.531 48.8003 642.831 46.2803C642.491 45.0503 642.181 43.8003 641.781 42.2603C639.861 43.2203 638.18 43.9302 636.63 44.8602C634.51 46.1302 632.37 46.7203 629.89 46.1903C627.08 45.5903 624.18 45.8802 621.32 45.2702C617.24 44.4002 614.39 42.0702 612.6 38.5802C610.31 34.1202 610.14 29.3603 612.86 25.0303C616.63 19.0303 621.69 14.3403 628.37 11.6203C634.94 8.94025 640.39 11.2803 644.22 15.0903C644.66 15.5303 644.92 16.1602 645.36 16.8602C644.33 17.8002 643.42 18.7403 642.39 19.5103C641.56 20.1303 640.64 20.4503 639.45 20.1403C637.06 19.5203 634.61 19.3102 632.22 18.4902C628.64 17.2702 625.23 18.5203 622.05 20.2203C620.87 20.8503 620.16 22.0603 619.91 23.4003C619.06 27.9003 620.22 31.7802 623.89 34.6102C625.2 35.6202 626.83 36.3603 628.43 36.8403C632.01 37.9103 636.71 37.9702 641.11 37.2702C641.98 33.1402 645.13 30.5302 648.1 27.8002C648.58 27.3602 649.1 26.9003 649.68 26.6503C650.23 26.4203 650.99 26.2003 651.47 26.4103C652.39 26.8003 652.201 27.7003 651.841 28.4303C651.041 30.0702 651.22 31.7803 651.5 33.4503C652.07 36.8103 652.651 40.1703 653.461 43.4803C654.011 45.6303 654.95 47.6703 655.73 49.8703Z" fill="#0DFF9D"/>
<path d="M364.262 10.3896C364.712 11.0496 365.332 11.5896 365.512 12.2496C366.482 15.7896 367.352 19.3496 368.232 22.9096C368.952 25.8396 369.622 28.7696 370.352 31.6996C371.232 35.2796 372.382 38.7396 374.982 41.5696C374.372 43.5996 372.842 44.6396 371.252 45.4996C370.002 46.1796 368.612 46.6196 367.252 47.0996C366.132 47.4996 365.192 47.1896 364.532 46.1496C363.982 45.2696 363.492 44.3196 363.172 43.3396C362.382 40.9796 361.662 38.5996 360.982 36.1996C359.702 31.6696 358.542 27.0996 357.172 22.5896C356.552 20.5196 356.732 18.7496 358.032 17.0496C358.902 15.9096 359.692 14.6996 360.542 13.5296C361.482 12.2596 362.582 11.1696 364.262 10.3896Z" fill="#0DFF9D"/>
<path d="M548.063 38.48C547.723 40.01 547.153 41.1 545.903 41.84C544.343 42.77 542.893 43.89 541.373 44.9C540.243 45.65 539.113 45.42 538.353 44.2C537.523 42.87 536.743 41.5 536.063 40.08C533.853 35.48 531.613 30.89 530.203 25.94C529.423 23.19 529.773 20.79 531.713 18.62C533.463 16.68 534.823 14.37 537.053 12.89C537.453 12.62 538.073 12.38 538.463 12.51C538.833 12.64 539.293 13.28 539.273 13.67C538.913 19.32 541.663 24.08 543.703 29.01C544.993 32.16 546.543 35.21 548.063 38.48Z" fill="#0DFF9D"/>
<path d="M317.642 201.69C319.822 205.48 321.712 208.75 323.592 212.02C322.282 215.49 321.182 216.86 316.872 220.42C315.632 220.45 315.052 219.48 314.552 218.61C312.442 214.99 310.332 211.36 308.392 207.65C307.242 205.45 306.222 203.21 304.222 201.63C304.752 197.89 303.412 194.59 302.572 191.16C300.722 192.19 295.532 197.24 293.532 199.95C295.462 203.97 299.732 206.21 301.812 210.11C301.102 213.39 298.582 215.23 296.552 217.42C295.852 218.18 295.052 218.92 293.662 218.66C289.592 213.89 285.432 209.02 281.062 203.91C276.642 204.4 271.992 204.93 267.352 205.44C266.272 207 265.362 208.77 264.032 210.12C262.682 211.48 261.892 213.48 259.952 214.12C258.722 213.89 258.432 212.98 258.252 212.08C257.802 209.87 257.772 207.65 258.242 205.44C258.462 204.4 258.632 203.44 257.672 202.55C257.002 201.93 257.312 201.06 257.772 200.39C258.802 198.87 259.902 197.4 260.942 195.89C261.982 194.38 263.042 192.89 263.982 191.32C266.802 186.6 269.312 181.66 273.172 177.64C274.442 176.32 275.782 175.06 277.192 173.9C278.262 173.02 279.562 173.36 280.092 174.66C280.642 175.98 281.022 177.38 281.382 178.77C282.582 183.46 285.962 190.21 289.032 193.83C291.422 193.59 293.842 193.08 296.192 192.26C298.112 191.59 299.652 190.4 300.822 188.76C302.112 186.95 302.822 184.87 303.882 182.7C301.942 182.12 300.252 182.34 298.592 182.31C296.912 182.28 295.232 182.3 293.422 182.3C293.352 182.03 293.082 181.58 293.202 181.34C294.412 179.03 295.502 176.66 297.452 174.82C298.862 173.49 300.452 172.75 302.392 172.77C303.702 172.78 305.032 172.64 306.322 172.81C313.212 173.71 320.082 174.76 326.682 177.01C329.392 177.94 332.032 179.13 334.272 181.04C336.232 182.7 336.732 184.67 335.882 187.03C335.172 189.01 334.382 190.93 332.832 192.46C331.712 193.56 330.802 194.87 329.702 195.99C327.932 197.79 325.912 199.15 323.372 199.74C321.602 200.19 319.912 200.92 317.642 201.69ZM327.502 190.73C324.692 186.86 317.632 183.87 311.652 184.01C311.372 187.6 312.552 190.75 314.202 193.91C318.872 193.17 323.412 193.08 327.502 190.73ZM272.132 186.45C270.112 188.86 268.792 191.1 268.332 193.94C270.772 195.13 273.002 195.94 275.772 195.15C275.532 194.36 275.412 193.72 275.162 193.15C274.222 191.02 273.252 188.92 272.132 186.45Z" fill="#0DFF9D"/>
<path d="M36.9321 185.54C35.5721 187.2 34.2722 188.62 33.1622 190.18C30.8222 193.46 27.6022 195.26 23.7722 196.17C21.8722 196.62 20.0022 197.16 17.9422 197.71C17.9922 198.64 17.8622 199.44 18.0922 200.11C19.2322 203.45 20.0122 206.93 21.9122 209.97C22.3722 210.71 22.3221 211.49 21.9321 212.22C20.6422 214.64 18.6422 216.26 16.0922 217.21C15.1022 217.58 14.2222 217.24 13.6422 216.46C13.1022 215.74 12.7122 214.88 12.3722 214.04C8.64215 204.73 5.94216 195.18 5.57216 185.08C5.55216 184.56 5.47216 184.03 5.48216 183.51C5.49216 182.01 4.58215 181.08 3.45215 180.36C2.80215 179.95 1.99216 179.79 1.29216 179.43C0.442158 178.99 0.0321586 178.01 0.332159 177.09C0.912159 175.32 1.82216 173.71 3.32216 172.57C3.90216 172.13 4.76216 171.99 5.51216 171.87C11.5522 170.91 17.5422 171.38 23.4722 172.72C25.7722 173.24 28.0522 173.88 30.2922 174.59C33.6422 175.65 36.5222 177.36 37.9222 180.76C39.2422 180.81 39.3922 179.7 39.9222 179.04C40.9922 177.71 41.9622 176.31 43.1022 175.06C43.4522 174.68 44.2622 174.54 44.8222 174.62C45.0822 174.65 45.4422 175.44 45.4422 175.88C45.4022 181.24 47.2322 186.18 48.7322 191.2C48.8422 191.56 49.1222 191.87 49.4522 192.41C52.2622 192.81 55.2022 192.74 58.1122 192.71C58.5622 191.07 57.7422 189.94 57.3422 188.72C56.4122 185.85 55.3822 183.03 55.1022 179.98C54.8122 176.83 55.3521 173.98 57.4021 171.51C58.6521 170 59.8922 168.48 61.2522 167.07C61.6022 166.7 62.3822 166.74 63.2122 166.53C63.2622 167.85 63.3722 168.88 63.3222 169.89C63.1522 173.24 63.9222 176.39 65.0822 179.49C67.9422 187.13 71.5822 194.39 75.5422 201.5C76.5022 203.22 77.3322 205 78.2322 206.75C79.1022 208.44 78.8722 210.07 77.8622 211.59C76.3022 213.92 74.1222 215.5 71.3822 216.79C69.6122 214.51 68.6922 211.89 67.2922 209.56C65.9522 207.32 64.6222 205.07 63.3322 202.88C59.5722 202.99 55.9622 203.09 52.0022 203.21C52.4622 204.61 52.8222 205.68 53.2122 206.87C53.2022 206.98 53.2122 207.25 53.1322 207.49C52.1022 210.56 49.4522 212.17 47.1322 214.06C46.2622 214.77 44.9722 214.45 44.5022 213.32C43.6822 211.4 42.9522 209.42 42.3822 207.41C41.4522 204.14 40.6822 200.81 39.8322 197.52C39.5722 196.51 39.2722 195.5 38.9722 194.5C38.2022 191.99 37.3521 189.51 37.4321 186.83C37.4721 186.51 37.2021 186.17 36.9321 185.54ZM14.0622 182.74C13.9522 185.12 14.2722 187.14 15.2322 189C17.7822 189.12 21.5622 188.44 24.8922 187.23C25.4122 187.04 26.2622 187.05 26.1922 186.11C22.1722 183.7 17.8522 182.46 14.0622 182.74Z" fill="#0DFF9D"/>
<path d="M100.812 180.96C101.362 180.65 101.492 180.6 101.582 180.51C104.952 177.05 103.852 177.21 109.842 177.53C111.272 177.61 112.682 177.97 114.112 178.22C115.142 178.4 116.162 178.61 117.202 178.76C119.742 179.13 122.182 179.1 124.042 176.91C124.182 176.75 124.522 176.77 124.812 176.69C125.962 177.01 125.362 178.31 126.282 179.18C130.132 180.58 134.542 179.24 139.072 180.06C138.712 181.16 138.632 182.3 138.042 183C136.532 184.78 134.842 186.44 133.102 188C132.582 188.47 131.652 188.54 130.892 188.65C129.752 188.82 128.582 188.86 127.642 188.94C126.632 190.18 127.142 191.22 127.432 192.17C128.702 196.3 130.062 200.41 131.382 204.53C131.662 205.4 131.882 206.31 132.252 207.14C133.512 209.99 132.992 212.54 130.912 214.75C129.592 216.16 128.602 217.94 126.862 218.81C125.472 218.52 125.192 217.4 124.852 216.46C123.452 212.51 122.122 208.53 120.792 204.56C119.452 200.58 118.122 196.6 117.792 192.37C117.712 191.34 117.492 190.32 117.322 189.17C115.522 188.37 113.752 188.52 111.712 188.88C111.962 189.86 112.102 190.72 112.402 191.54C114.052 196.13 113.102 200.16 110.352 204.14C105.702 210.85 99.3024 213.52 91.4124 213.02C87.6024 212.78 84.3624 211.38 82.1324 207.98C80.2224 205.05 79.3924 202.16 81.0024 198.8C81.5524 197.66 81.8423 196.28 81.8423 195.01C81.8423 193.61 82.2824 192.41 82.9124 191.29C84.8624 187.82 87.4024 184.85 90.7524 182.62C93.1324 181.04 95.6424 180.15 98.5524 180.74C99.3024 180.9 100.092 180.9 100.812 180.96ZM104.532 202.17C105.412 200.72 104.762 199.51 104.292 198.31C103.452 196.18 102.102 194.42 100.252 193.09C96.5023 190.38 92.5124 189.46 88.1924 191.48C86.5224 195.01 87.6824 197.72 90.1624 200.11C91.4224 201.33 92.9424 202.12 94.6124 202.53C97.9724 203.35 101.322 203.36 104.532 202.17Z" fill="#0DFF9D"/>
<path d="M238.902 203.05C241.292 204.64 243.812 205.18 246.302 205.81C246.682 205.91 247.092 205.86 247.472 205.92C250.332 206.4 253.082 207.1 255.092 209.81C253.902 211.3 252.752 213.03 251.302 214.48C249.952 215.83 248.162 216.25 246.202 215.92C242.592 215.31 238.972 214.79 235.302 214.23C233.082 216.69 231.212 219.35 228.502 221.44C227.972 220.82 227.452 220.4 227.182 219.85C226.492 218.44 225.882 216.99 225.312 215.52C224.552 213.57 224.172 211.4 223.062 209.69C221.812 207.78 223.092 205.82 222.312 203.99C221.962 203.16 221.922 202.2 221.682 201.32C220.272 196.24 219.642 191.04 219.502 185.78C219.492 185.27 219.312 184.77 219.222 184.29C214.922 184 215.012 184.05 216.982 180.34C219.102 176.37 222.542 174.54 226.762 174.08C230.962 173.62 235.112 174.19 239.242 175.07C243.512 175.97 247.522 177.49 251.312 179.63C252.322 180.2 253.332 180.85 254.192 181.63C256.142 183.38 256.702 185.51 255.732 188.03C254.882 190.25 253.962 192.39 252.172 194.06C251.312 194.86 250.582 195.8 249.782 196.67C248.152 198.43 246.232 199.72 243.972 200.59C242.332 201.22 240.482 201.57 238.902 203.05ZM247.282 191.82C247.042 190.43 245.992 189.62 244.952 188.87C241.152 186.14 236.702 185.04 232.242 184C231.002 183.71 229.692 183.34 228.302 184.34C228.272 185 228.062 185.8 228.222 186.5C229.112 190.25 229.432 194.17 231.052 197.71C236.472 196.61 244.952 193.52 247.282 191.82Z" fill="#0DFF9D"/>
<path d="M356.012 212.1C354.852 215.83 351.272 216.9 348.742 219.35C347.922 218.83 347.052 218.47 346.462 217.86C345.652 217.02 344.972 216.02 344.382 215.01C340.772 208.79 338.812 202.05 338.042 194.93C337.622 191.08 338.482 187.7 341.182 184.78C342.682 183.16 343.852 181.23 345.202 179.46C345.502 179.06 345.922 178.76 346.412 178.29C347.342 179.09 347.052 180.02 346.992 180.86C346.862 182.82 346.732 184.77 346.522 186.72C346.322 188.6 346.892 190.31 347.382 192.26C349.912 192.52 352.352 192.35 355.062 192.41C354.912 188.39 354.152 184.49 356.432 181.15C358.342 178.37 360.312 175.58 363.282 173.93C364.192 174.15 364.042 174.76 364.012 175.23C363.972 175.88 363.842 176.53 363.712 177.17C362.612 182.53 364.592 187.23 366.892 191.86C367.172 192.42 367.742 192.84 368.152 193.35C368.462 193.75 368.932 194.17 368.962 194.62C369.252 198.44 371.492 201.46 373.102 204.71C374.962 208.46 377.112 212.07 379.262 215.67C380.372 217.53 380.252 219.01 378.862 220.66C377.162 222.67 375.262 224.38 373.002 225.82C371.222 224.72 370.452 223.04 369.502 221.51C366.382 216.49 363.822 211.18 361.282 205.86C359.582 202.3 359.562 202.27 355.682 202.3C354.272 202.31 352.812 201.95 351.182 202.74C351.252 203.29 351.162 203.98 351.432 204.46C352.862 206.94 354.382 209.38 356.012 212.1Z" fill="#0DFF9D"/>
<path d="M204.884 202.93C205.274 200.59 205.314 198.46 206.774 196.75C208.604 194.6 209.844 191.89 212.404 190.53C213.374 190.86 213.384 191.56 213.384 192.19C213.394 193.63 213.364 195.07 213.304 196.51C213.044 202.14 213.894 207.49 217.384 212.26C216.294 215.63 213.784 217.98 211.494 220.44C211.194 220.76 210.184 220.77 209.714 220.52C209.064 220.17 208.444 219.53 208.114 218.87C207.154 216.87 206.294 214.82 205.484 212.75C205.114 211.79 204.954 210.75 204.734 209.84C203.794 209.38 203.384 210.01 202.934 210.42C201.324 211.92 199.274 212.58 197.234 212.86C192.004 213.58 186.754 213.73 181.784 211.47C180.254 210.77 178.684 209.96 177.434 208.86C173.324 205.27 172.014 200.35 174.394 195.34C177.174 189.47 181.184 184.43 186.934 181.08C190.804 178.82 195.044 178.22 199.454 178.82C200.094 178.91 200.764 179.03 201.354 179.27C204.414 180.54 204.874 182.48 202.684 185C202.184 185.58 201.544 186.06 200.934 186.53C200.524 186.85 199.834 186.97 199.634 187.36C198.214 190.23 196.224 189.57 193.764 188.8C190.594 187.81 187.274 188.01 184.194 189.58C181.984 190.71 181.404 191.94 181.904 194.4C182.274 196.25 183.044 197.92 184.564 199.09C185.694 199.97 186.854 200.9 188.154 201.46C193.444 203.78 198.894 204.63 204.884 202.93Z" fill="#0DFF9D"/>
<path d="M398.811 192.91C399.171 191.39 399.401 190.38 399.631 189.37C400.191 186.95 400.711 184.51 401.331 182.11C402.521 177.51 405.201 173.87 408.841 170.92C409.111 170.7 409.521 170.65 409.841 170.54C410.971 171.29 410.491 172.21 410.251 173.04C408.921 177.71 407.861 182.43 407.371 187.27C407.191 189.09 407.061 190.92 407.121 192.75C407.201 195.42 406.781 197.85 405.421 200.26C402.941 204.63 402.801 209.2 405.211 213.76C407.121 217.38 406.751 218.64 403.261 220.73C402.481 221.2 401.621 221.54 400.791 221.94C398.611 223 397.871 222.86 396.381 221.14C395.151 219.71 394.381 218.1 394.231 216.19C394.061 214.08 394.171 212.01 394.741 209.96C395.121 208.58 395.431 207.18 395.801 205.66C395.021 205.03 394.401 204.34 393.631 203.93C390.941 202.48 388.651 200.54 386.481 198.45C383.931 196 381.301 193.61 378.961 190.96C377.251 189.02 375.931 186.72 374.501 184.54C373.441 182.92 373.761 181.41 374.861 179.83C376.661 177.25 378.611 174.85 381.311 172.84C382.831 175.59 383.971 178.27 385.661 180.54C387.451 182.93 389.691 185 391.871 187.08C393.941 188.99 395.751 191.28 398.811 192.91Z" fill="#0DFF9D"/>
<path d="M154.644 181.33C159.304 181.12 163.284 182.74 167.084 184.84C168.074 185.38 168.954 186.32 169.584 187.28C172.624 191.86 173.274 196.81 170.994 201.83C169.244 205.68 166.394 208.8 163.094 211.45C159.324 214.49 154.804 215.25 150.164 215.16C147.714 215.11 145.174 214.72 142.854 213.94C136.524 211.81 133.704 205.11 136.284 198.94C136.434 198.58 136.584 198.21 136.784 197.87C138.844 194.39 140.934 190.93 142.974 187.44C145.654 182.9 149.674 181.02 154.644 181.33ZM163.924 203.91C164.904 198.09 161.974 192.38 154.714 191.3C152.404 190.96 150.014 191 147.674 191.11C145.434 191.22 143.864 192.92 143.644 195.18C143.304 198.61 144.434 201.37 147.554 203.07C148.574 203.63 149.664 204.13 150.784 204.43C154.504 205.44 158.274 205.48 162.034 204.66C162.654 204.53 163.234 204.19 163.924 203.91Z" fill="#0DFF9D"/>
<path d="M620.111 200.93C622.131 196.54 624.001 192.06 627.561 188.6C627.811 188.36 627.851 187.9 628.031 187.45C626.721 186.5 625.261 186.64 623.851 186.73C622.581 186.81 621.331 187.09 620.221 187.26C619.281 186.13 619.611 185.21 620.171 184.51C621.641 182.67 623.231 180.92 624.791 179.15C626.511 177.2 628.711 176.65 631.211 176.97C633.291 177.24 635.371 177.46 637.461 177.72C641.631 178.23 645.791 178.71 649.951 179.26C650.961 179.39 651.941 179.74 652.851 179.97C653.121 181.34 652.321 182.11 651.581 182.31C649.341 182.93 647.371 184.48 644.871 184.2C643.631 184.06 642.601 184.52 641.711 185.46C640.261 187 638.381 187.43 636.331 187.39C635.031 187.37 633.741 187.45 632.491 187.48C631.181 189.01 630.921 190.59 631.191 192.49C633.671 193.88 636.381 193.37 638.921 193.58C641.361 193.79 643.861 193.35 646.511 193.19C647.271 193.68 646.981 194.41 646.441 195.05C643.871 198.13 640.801 200.5 636.931 201.75C636.191 201.99 635.461 202.29 634.431 202.66C634.781 203.31 634.961 203.92 635.351 204.33C637.971 207.1 641.321 208.55 644.951 209.41C646.521 209.78 647.461 208.93 647.151 207.2C646.691 204.66 647.441 202.48 648.881 200.55C651.071 197.6 653.421 194.78 655.711 191.91C656.111 191.41 656.541 190.92 657.081 190.29C656.551 189.81 656.111 189.42 655.661 189.01C656.361 184.6 659.491 180.85 663.721 179.28C669.501 177.14 674.611 178.57 679.071 182.45C682.141 185.12 684.941 188.06 685.641 192.4C685.821 193.5 686.651 194.49 687.381 195.9C689.251 189.8 693.171 185.6 697.441 181.7C701.171 178.3 705.581 176.57 710.691 176.57C713.861 176.57 716.191 177.99 718.151 180.3C719.101 181.42 719.331 182.62 718.611 183.93C717.721 185.55 716.821 187.2 714.521 186.79C713.501 186.61 713.251 187.22 712.881 188.01C712.391 189.07 711.611 189.31 710.681 188.89C710.091 188.63 709.521 188.29 708.981 187.92C705.461 185.5 701.791 185.95 698.091 187.39C697.011 187.81 696.491 188.69 696.391 189.83C696.231 191.69 696.351 193.5 697.261 195.19C700.261 200.8 704.691 204.25 711.261 204.49C713.491 204.57 715.691 204.44 718.091 203.94C718.491 201.72 718.581 199.46 719.361 197.47C720.111 195.57 721.621 193.97 722.731 192.2C723.931 190.29 725.431 188.77 727.701 187.67C728.611 189.6 727.661 191.27 727.821 192.89C727.971 194.45 727.831 196.05 728.031 197.61C728.251 199.29 728.671 200.96 729.111 202.6C729.541 204.25 730.121 205.86 730.611 207.49C731.061 209 731.411 210.54 731.931 212.02C732.491 213.61 733.201 215.16 733.851 216.76C732.521 219.94 730.031 222.07 727.541 224.17C727.211 224.45 726.171 224.32 725.781 224C725.101 223.44 724.511 222.64 724.181 221.82C723.361 219.75 722.721 217.61 721.991 215.51C721.231 213.29 720.451 211.08 719.651 208.76C717.791 208.91 716.901 210.2 715.981 211.16C714.491 212.71 712.771 213.34 710.721 213.37C708.231 213.4 705.751 213.5 703.261 213.43C695.791 213.21 691.271 208.9 688.341 202.47C688.121 201.99 687.991 201.48 687.831 200.98C687.681 200.49 687.551 199.99 687.271 199C686.121 203.35 683.821 206.53 681.491 209.7C678.191 214.2 673.811 216.26 668.261 215.88C667.351 215.82 666.421 215.84 665.511 215.87C660.831 216.03 656.391 215.06 652.151 213.11C651.681 212.89 651.191 212.73 650.641 212.51C649.151 213.22 648.201 214.53 647.211 215.69C644.111 219.3 640.291 219.58 636.111 218.34C629.361 216.34 624.801 211.96 622.211 205.44C621.661 204.04 620.931 202.67 620.111 200.93ZM678.711 205.33C679.301 203.49 679.071 201.6 678.471 199.69C677.141 195.49 674.321 192.46 670.801 190.04C669.171 188.92 667.231 188.37 665.261 188.27C664.561 188.23 663.601 188.48 663.141 188.96C660.791 191.41 658.531 193.97 656.291 196.53C655.331 197.63 655.321 198.86 656.011 200.17C656.841 201.75 658.111 202.82 659.651 203.62C662.821 205.27 666.201 206.33 669.771 206.47C672.731 206.59 675.801 207.2 678.711 205.33Z" fill="#0DFF9D"/>
<path d="M778.352 204.06C778.462 203.67 778.462 203.5 778.542 203.42C780.952 200.96 781.812 197.84 782.392 194.58C782.602 193.42 783.002 192.3 783.262 191.15C784.682 184.94 788.452 180.41 793.372 176.61C794.932 175.4 796.652 175.3 798.002 177.38C798.712 178.48 799.312 179.65 799.942 180.8C802.062 184.73 804.302 188.58 807.202 192C807.872 192.79 808.632 193.51 809.422 194.34C813.722 193.73 817.432 191.82 820.982 189.6C821.692 189.15 822.222 188.26 822.602 187.47C823.162 186.3 823.522 185.04 824.062 183.58C823.552 183.14 822.772 182.76 822.472 182.14C822.272 181.72 822.602 180.88 822.932 180.39C823.512 179.54 823.562 178.85 823.182 177.86C822.682 176.6 823.232 175.35 824.462 175.08C828.122 174.26 831.732 172.77 835.632 173.99C837.502 174.58 839.442 174.96 841.372 175.31C845.872 176.11 849.712 178.3 853.452 180.75C853.672 180.89 853.872 181.07 854.092 181.21C857.782 183.55 857.342 187.33 855.452 189.75C852.552 193.48 849.162 196.82 844.512 198.43C842.532 199.11 840.532 199.74 838.562 200.44C837.852 200.69 837.192 201.1 836.422 201.48C837.282 205.01 839.022 207.91 841.092 210.62C842.292 212.18 843.612 213.64 844.832 215.18C845.772 216.37 845.732 217.21 844.752 218.34C842.892 220.49 840.442 221.72 837.832 222.67C836.872 223.02 835.962 222.7 835.342 221.96C833.742 220.06 832.012 218.23 830.712 216.14C828.982 213.37 827.382 210.49 826.482 207.3C826.442 207.17 826.382 207.06 826.352 206.93C825.702 204.6 823.652 202.95 823.762 200.12C823.862 197.72 822.822 195.28 822.282 192.85C822.252 192.73 822.142 192.63 822.062 192.52C819.622 192.94 816.532 195.29 813.912 198.77C815.482 202.15 818.842 204 821.232 206.75C820.702 209.07 818.722 210.12 817.382 211.64C817.052 212.02 816.452 212.16 816.092 212.53C813.032 215.72 812.382 214.62 809.672 212.18C807.332 210.08 805.152 207.8 802.922 205.58C802.152 204.82 801.352 204.19 800.172 204.36C796.292 204.93 792.412 205.5 788.252 206.11C786.832 210.42 785.402 214.96 780.962 217.37C779.712 217.2 779.212 216.36 779.192 215.44C779.142 213.62 779.172 211.77 779.432 209.98C779.902 206.77 779.982 206.78 778.352 204.06ZM831.322 184.32C831.522 187.78 832.112 190.84 833.342 193.75C833.472 194.05 833.912 194.22 834.172 194.42C841.332 192.79 843.472 192.07 845.982 190.43C843.132 187.09 836.982 184.45 831.322 184.32ZM790.862 190.12C790.162 192.38 789.182 193.95 789.742 195.96C791.362 196.33 792.852 196.53 794.622 195.79C793.752 193.75 792.952 191.89 790.862 190.12Z" fill="#0DFF9D"/>
<path d="M736.16 183.95C735.32 183.81 734.58 183.68 733.57 183.51C733.74 182.85 733.82 182.24 734.07 181.7C734.34 181.11 734.84 180.62 735.09 180.03C737.02 175.42 740.94 174.17 745.34 174.49C751.88 174.96 758.35 176.16 764.35 178.97C766.46 179.95 768.5 181.25 770.26 182.75C773.9 185.84 774.32 190.46 771.45 194.34C769.1 197.53 766.22 200.18 762.7 202.08C762.14 202.38 761.62 202.75 760.71 203.33C761.45 203.72 761.82 204.04 762.23 204.1C764.68 204.45 767.14 204.75 769.56 205.06C770.15 206.66 769.26 207.6 768.42 208.26C766.38 209.86 764.27 211.43 762.01 212.67C760.96 213.25 759.48 213.14 758.19 213.2C756.5 213.28 754.81 213.22 752.84 213.22C753 213.96 753.02 214.6 753.27 215.13C753.89 216.42 754.61 217.67 755.25 218.85C754.13 221.66 754.13 221.66 747.69 226.31C747.07 225.82 746.22 225.41 745.74 224.73C743.69 221.84 741.91 218.79 740.79 215.39C739.67 212 739.66 212 737.16 209.93C737.25 209.52 737.24 208.95 737.5 208.56C738.3 207.36 738.29 206.13 737.94 204.81C737.36 202.66 736.85 200.49 736.32 198.34C735.12 193.59 734.69 188.82 736.16 183.95ZM745.19 184.68C744.79 189.83 746.38 197.06 748.56 200.34C753.13 199.47 757.62 198.03 762.09 196.56C762.79 196.33 763.38 195.75 764.09 195.29C763.95 194.66 763.91 194.13 763.71 193.68C762.81 191.68 761.2 190.34 759.4 189.22C756.03 187.12 752.3 185.85 748.49 184.87C747.5 184.63 746.44 184.75 745.19 184.68Z" fill="#0DFF9D"/>
<path d="M870.423 176.66C869.943 180.2 869.343 183.41 869.113 186.65C868.873 189.92 869.393 193.17 870.243 196.57C873.743 197.66 877.333 197.8 880.873 197.92C881.703 196.29 880.863 195.06 880.373 193.96C878.773 190.38 878.643 186.58 878.403 182.79C878.283 180.86 878.733 179.19 880.173 177.78C881.863 176.14 883.433 174.38 885.103 172.72C885.433 172.39 885.973 172.26 886.473 172C887.713 173.05 887.693 174.37 887.813 175.65C887.993 177.6 888.103 179.57 888.423 181.51C889.383 187.25 891.733 192.56 893.803 197.93C895.923 203.43 898.343 208.82 900.613 214.27C900.863 214.87 901.023 215.5 901.243 216.18C899.533 219.14 896.903 220.63 893.503 221.33C891.663 220.71 890.383 219.29 889.533 217.44C888.443 215.06 887.423 212.64 886.363 210.24C885.943 209.3 885.493 208.37 884.983 207.26C883.093 207.4 881.283 207.67 879.493 207.62C877.713 207.57 875.933 207.15 873.943 207.63C874.463 210.23 876.063 211.85 877.193 213.76C876.703 215.28 875.553 216.15 874.243 216.74C872.483 217.53 870.663 218.21 868.823 218.82C867.903 219.13 866.953 218.86 866.373 218C865.573 216.8 864.763 215.59 864.153 214.3C863.423 212.76 862.893 211.13 862.303 209.54C861.753 208.07 861.313 206.54 860.153 205.96C860.063 203.39 860.133 201.18 859.863 199.01C859.513 196.11 859.563 193.26 860.053 190.39C860.353 188.66 860.973 187.1 861.993 185.71C863.693 183.38 865.443 181.09 867.213 178.82C867.773 178.1 868.463 177.48 869.133 176.87C869.273 176.7 869.603 176.76 870.423 176.66Z" fill="#0DFF9D"/>
<path d="M594.43 211.62C591.78 211.12 590.66 213.58 588.4 214.11C587.97 213.73 587.25 213.34 586.88 212.73C585.59 210.6 584.37 208.42 583.2 206.22C581.6 203.21 580.06 200.17 578.52 197.13C577.03 194.18 575.82 191.16 575.64 187.79C575.6 187.03 575.29 186.28 575.07 185.37C577.19 183.35 579.37 181.34 581.48 179.24C582.96 177.77 584.6 177.49 586.52 178.13C587.51 178.46 588.55 178.66 589.54 179C595.5 181.11 601.13 183.93 606.42 187.38C609.89 189.63 612.52 192.77 614.79 196.15C616.83 199.19 616.42 202.52 614.41 205.41C610.86 210.52 606.44 214.49 599.82 215.04C598.51 215.15 597.21 215.39 595.91 215.44C594.5 215.5 593.94 214.73 594.11 213.12C594.17 212.65 594.31 212.18 594.43 211.62ZM589.09 191.43C590.79 196.04 592.79 199.83 594.65 203.69C595.15 204.73 595.6 205.86 596.85 206.44C600.11 206.38 603.47 206.46 606.59 204.95C604.67 199.96 596.31 193.38 589.09 191.43Z" fill="#0DFF9D"/>
<path d="M931.304 220.4C928.874 222.55 925.954 223.01 923.274 223.95C922.534 224.21 921.534 223.73 920.744 223.61C919.354 221.39 918.754 219.17 918.634 216.75C918.404 212.3 918.014 207.86 917.674 203.09C916.924 202.55 915.994 201.84 915.034 201.18C909.564 197.47 904.704 193.1 900.674 187.85C899.564 186.41 898.714 184.76 897.814 183.17C897.084 181.88 897.294 180.57 898.284 179.53C900.454 177.27 902.324 174.7 905.014 173.12C906.434 173.14 906.884 174.09 907.284 175.09C910.044 182 915.664 186.34 921.324 190.63C921.494 190.76 921.814 190.69 922.114 190.72C922.254 190.56 922.514 190.4 922.584 190.19C923.504 187.18 924.404 184.17 925.284 181.15C926.274 177.76 926.624 174.19 928.134 170.94C929.864 167.24 932.804 164.82 936.324 162.85C937.264 163.98 937.004 165.03 936.764 165.99C934.484 175.14 932.174 184.28 929.864 193.42C927.574 197.16 928.264 201.3 928.364 205.33C928.444 208.2 928.694 211.09 929.214 213.91C929.624 216.03 930.544 218.07 931.304 220.4Z" fill="#0DFF9D"/>
<path d="M536.622 203.77C537.302 200.82 537.922 198.69 538.262 196.51C539.022 191.72 539.862 186.93 539.452 182.03C539.402 181.39 539.322 180.61 539.612 180.11C541.312 177.19 542.842 174.08 546.132 172.53C546.342 172.43 546.642 172.52 546.872 172.52C548.112 173.47 548.132 174.85 548.052 176.13C547.852 179.53 547.692 182.95 547.182 186.31C546.162 192.92 544.882 199.48 543.792 206.08C543.442 208.21 542.772 210.11 541.222 211.67C539.562 213.34 537.972 215.09 536.322 216.77C535.452 217.66 534.432 217.52 533.412 217.02C531.012 215.85 529.012 214.14 527.282 212.16C525.552 210.19 523.982 208.09 522.382 206.01C518.632 201.1 515.282 195.94 512.532 190.4C511.672 188.68 511.552 187.22 512.872 185.72C514.512 183.85 516.022 181.86 517.722 180.06C518.722 179 519.832 179.31 520.592 180.64C520.852 181.09 521.042 181.59 521.252 182.07C524.402 189.08 528.972 195.15 533.822 201.04C534.472 201.8 535.272 202.45 536.622 203.77Z" fill="#0DFF9D"/>
<path d="M563.48 215.08C561.9 214.12 561.66 212.91 561.29 211.82C559.52 206.62 557.69 201.43 556.16 196.16C555.51 193.94 555.48 191.52 555.32 189.18C555.18 187.15 555.79 185.29 557.23 183.78C558.58 182.36 559.9 180.91 561.34 179.6C561.85 179.14 562.71 179.08 563.6 178.76C563.8 179.77 564.03 180.51 564.07 181.25C564.29 185.61 565.42 189.76 566.76 193.88C568.02 197.74 569.07 201.66 570.35 205.5C571.11 207.8 570.48 209.66 568.86 211.19C567.25 212.71 565.47 214.05 563.48 215.08Z" fill="#0DFF9D"/>
<path d="M487.571 204.85C488.181 206.03 487.711 206.89 486.951 207.4C485.341 208.49 484.071 210.13 482.041 210.55C481.911 210.58 481.781 210.63 481.681 210.71C478.021 213.53 473.701 213.63 469.351 213.92C463.171 214.32 457.021 214.42 450.881 213.69C449.061 213.47 447.261 213.11 445.471 212.71C444.711 212.54 443.951 212.23 443.301 211.82C439.151 209.17 439.011 207.29 441.391 203.78C444.081 199.81 447.471 196.57 451.841 194.47C452.631 194.09 453.391 193.64 454.251 193.17C453.441 192.04 452.421 192.45 451.601 192.27C450.711 192.08 449.791 191.95 448.871 191.91C444.321 191.7 444.331 189.63 446.131 186.56C447.831 183.65 450.421 181.59 453.591 180.44C456.551 179.37 459.561 178.44 462.591 177.6C467.521 176.24 472.471 175 477.431 173.73C478.311 173.5 479.231 173.26 480.131 173.29C480.681 173.31 481.431 173.7 481.701 174.16C481.971 174.62 481.911 175.43 481.691 175.97C481.461 176.55 480.921 177.02 480.471 177.49C478.831 179.21 476.911 180.55 474.921 181.83C473.631 182.65 472.231 182.74 470.781 182.86C467.781 183.1 464.781 183.42 461.781 183.73C460.881 183.82 460.061 184.13 458.891 184.99C464.031 185.2 468.581 185.97 473.181 185.26C473.951 185.14 474.821 185.08 475.511 185.34C476.161 185.59 476.831 186.22 477.101 186.86C477.291 187.29 476.991 188.17 476.621 188.58C475.471 189.83 474.281 191.09 472.921 192.09C470.711 193.72 468.441 195.11 465.621 195.75C461.291 196.73 457.071 198.22 452.811 199.53C451.571 199.91 450.271 200.23 449.261 201.6C449.971 202.14 450.581 202.92 451.351 203.14C453.741 203.81 456.171 204.51 458.621 204.74C466.221 205.44 473.831 205.14 481.441 204.8C483.491 204.7 485.591 204.42 487.571 204.85Z" fill="#0DFF9D"/>
<path d="M487.501 226.83C487.391 228.57 486.521 229.7 484.921 230.4C483.011 231.23 481.141 232.16 479.261 233.06C478.241 233.55 477.271 233.43 476.251 232.99C473.491 231.82 471.321 230.09 470.151 227.24C469.611 225.91 469.651 224.67 470.531 223.54C472.321 221.28 474.201 219.1 476.641 217.5C477.571 216.88 478.531 217.07 478.871 218.12C479.841 221.07 482.021 222.83 484.511 224.39C485.601 225.06 486.901 225.52 487.501 226.83Z" fill="#0DFF9D"/>
<path d="M461.014 169.5C460.454 171.93 458.814 172.84 457.254 173.76C456.254 174.35 455.074 174.63 454.054 175.2C452.414 176.12 450.964 175.63 449.704 174.62C448.704 173.82 447.814 172.8 447.094 171.74C445.684 169.65 445.764 168.37 447.494 166.49C449.254 164.58 451.144 162.77 453.054 161.01C453.794 160.32 454.954 160.62 455.304 161.61C456.154 164.04 457.844 165.83 459.524 167.66C460.044 168.23 460.504 168.86 461.014 169.5Z" fill="#0DFF9D"/>
</svg>
