<svg width="99" height="24" viewBox="0 0 99 24" fill="none" xmlns="http://www.w3.org/2000/svg">
<path d="M10.02 19.4227C7.60498 19.4227 6.81006 17.6677 6.81006 17.6677L6.12003 23.2777H1.5L3.58502 6.83773H7.92004V8.44275C7.92004 8.44275 9.12004 6.55273 11.67 6.55273C14.22 6.55273 15.87 8.3677 15.87 12.0577C15.87 15.7477 13.71 19.4227 10.02 19.4227ZM9.63006 10.1227C8.35506 10.1227 7.305 11.6227 7.305 13.6627C7.305 14.8027 7.74006 15.8077 8.88006 15.8077C10.1551 15.8077 11.205 14.3077 11.205 12.2677C11.205 11.1127 10.7851 10.1227 9.63006 10.1227Z" fill="#0DFF9A" stroke="#0DFF9A" stroke-width="0.25" stroke-miterlimit="10"/>
<path d="M25.9494 11.2491C25.9494 11.2491 25.3194 10.9941 24.6744 10.9941C24.0294 10.9941 23.5494 11.1441 23.0244 11.6241C22.4994 12.1041 22.2594 12.6741 22.0044 13.3041L21.2694 19.1391H16.6494L18.2244 6.82406H22.5594V8.68405C23.1894 7.40905 24.2994 6.53906 25.4394 6.53906C26.5794 6.53906 26.9694 7.00405 26.9694 7.00405L25.9494 11.2491Z" fill="#0DFF9A" stroke="#0DFF9A" stroke-width="0.25" stroke-miterlimit="10"/>
<path d="M36.0455 13.799C34.7705 14.429 32.8655 14.684 30.9455 14.684C30.9455 15.3141 31.4556 16.0791 32.9856 16.0791C34.5156 16.0791 36.0455 15.2691 36.4205 15.0141L37.7255 17.7141C36.7055 18.5991 34.6355 19.4241 32.0855 19.4241C29.5355 19.4241 26.3555 18.2541 26.3555 13.7841C26.3555 9.31408 29.6706 6.53906 33.3606 6.53906C37.0506 6.53906 38.3555 8.42905 38.3555 10.334C38.3705 12.269 37.3205 13.154 36.0455 13.799ZM32.9105 9.61408C32.4005 9.61408 31.1555 10.0941 31.0055 12.1191C31.0055 12.1191 32.0555 12.0141 32.6555 11.8641C33.2705 11.7141 34.0055 11.3841 34.0055 10.6191C34.0055 9.85406 33.4205 9.61408 32.9105 9.61408Z" fill="#0DFF9A" stroke="#0DFF9A" stroke-width="0.25" stroke-miterlimit="10"/>
<path d="M46.5304 19.1567H41.7904L38.9854 6.8418H43.7254L44.7454 14.5218L47.8053 6.8418H52.5154L46.5304 19.1567Z" fill="#0DFF9A" stroke="#0DFF9A" stroke-width="0.25" stroke-miterlimit="10"/>
<path d="M56.2499 19.155H51.6299L53.2049 6.84H57.8249L56.2499 19.155ZM55.7549 6.09C54.2249 6.09 53.4149 5.32498 53.4149 3.91498C53.4149 2.51998 54.5099 1.5 56.0399 1.5C57.5699 1.5 58.3799 2.265 58.3799 3.66C58.3799 5.07 57.2849 6.09 55.7549 6.09Z" fill="#0DFF9A" stroke="#0DFF9A" stroke-width="0.25" stroke-miterlimit="10"/>
<path d="M64.4998 19.4241C60.5548 19.4241 58.5898 17.3541 58.5898 13.7841C58.5898 9.44908 61.4398 6.53906 65.7748 6.53906C69.7198 6.53906 71.6848 8.60906 71.6848 12.1791C71.6998 16.5291 68.8348 19.4241 64.4998 19.4241ZM65.4448 9.97406C64.0348 9.97406 63.2548 11.7591 63.2548 13.6641C63.2548 14.9391 63.5548 15.9591 64.8298 15.9591C66.2248 15.9591 67.0198 14.1741 67.0198 12.2691C67.0348 10.9941 66.7198 9.97406 65.4448 9.97406Z" fill="#0DFF9A" stroke="#0DFF9A" stroke-width="0.25" stroke-miterlimit="10"/>
<path d="M84.4198 19.1562H80.0847V17.4162C79.6047 18.0762 78.5848 19.4262 76.2898 19.4262C73.9948 19.4262 72.9297 17.8662 72.9297 15.9612C72.9297 15.0762 73.0497 14.1012 73.1247 13.4562L73.9647 6.82617H78.5847L77.6848 13.7112C77.6548 13.8912 77.6547 14.0412 77.6547 14.1912C77.6547 15.0312 78.0298 15.4962 78.8998 15.4962C79.9198 15.4962 80.2947 14.4462 80.4597 13.9662L81.3747 6.82617H85.9947L84.4198 19.1562Z" fill="#0DFF9A" stroke="#0DFF9A" stroke-width="0.25" stroke-miterlimit="10"/>
<path d="M96.1793 10.9652C95.8943 10.7402 95.2343 10.3052 94.6043 10.0502C93.9593 9.79519 93.1793 9.61523 92.5643 9.61523C91.9493 9.61523 91.4993 9.72022 91.4993 10.1252C91.4993 10.5302 92.0843 10.7402 92.7443 10.9952C93.4043 11.2502 93.8394 11.4002 94.1994 11.5502C94.5594 11.7002 95.1893 11.9852 95.5793 12.2402C95.9693 12.4952 97.1393 13.3352 97.1393 15.1201C97.1393 16.9051 96.1493 17.8951 95.4893 18.3901C94.8293 18.8701 93.8093 19.4401 91.7693 19.4401C89.7293 19.4401 88.3343 18.8551 87.6593 18.4951C86.9993 18.1351 86.2793 17.6253 85.9043 17.2503L87.8094 14.5652C88.0644 14.8202 88.7993 15.3753 89.8043 15.7953C90.7943 16.2003 91.3793 16.2601 91.8893 16.2601C92.3993 16.2601 92.9093 16.2151 92.9093 15.7201C92.9093 15.2251 91.9943 14.9552 91.5893 14.8052C91.1843 14.6552 90.3893 14.3402 90.0293 14.1902C89.6693 14.0402 89.1443 13.7552 88.8893 13.6052C88.6343 13.4552 87.2843 12.6302 87.2843 10.7252C87.2843 8.55022 88.7693 7.5602 89.5343 7.2002C90.3293 6.8402 91.1693 6.61523 92.5493 6.61523C93.9293 6.61523 94.7993 6.87019 95.4593 7.09519C96.1193 7.32019 97.1693 7.7552 97.9043 8.4152L96.1793 10.9652Z" fill="#0DFF9A" stroke="#0DFF9A" stroke-width="0.25" stroke-miterlimit="10"/>
</svg>
