<svg width="51" height="18" viewBox="0 0 51 18" fill="none" xmlns="http://www.w3.org/2000/svg">
<g clip-path="url(#clip0)">
<path d="M13.005 10.095L12.165 16.725H7.54496L8.43 9.84C8.46 9.66 8.46001 9.50998 8.46001 9.35998C8.46001 8.51998 8.07 8.055 7.215 8.055C6.195 8.055 5.685 9.10497 5.535 9.58497L4.62003 16.725H0L1.57499 4.41H5.91V6.135C6.42 5.505 7.51497 4.125 9.80997 4.125C12.105 4.125 13.245 5.625 13.245 7.545C13.26 8.43 13.08 9.45001 13.005 10.095Z" fill="#0DFF9A" stroke="#0DFF9A" stroke-width="0.25" stroke-miterlimit="10"/>
<path d="M24.1201 11.3694C22.8451 11.9994 20.9401 12.2544 19.0201 12.2544C19.0201 12.8844 19.53 13.6494 21.06 13.6494C22.59 13.6494 24.1201 12.8394 24.4951 12.5844L25.8001 15.2843C24.7801 16.1693 22.7101 16.9943 20.1601 16.9943C17.6101 16.9943 14.415 15.8245 14.415 11.3544C14.415 6.8844 17.73 4.10938 21.42 4.10938C25.11 4.10938 26.4151 5.99937 26.4151 7.90437C26.4451 9.83937 25.3951 10.7244 24.1201 11.3694ZM20.9851 7.1844C20.4751 7.1844 19.2301 7.66439 19.0651 9.68939C19.0651 9.68939 20.1151 9.5844 20.7301 9.4344C21.3451 9.2844 22.08 8.95439 22.08 8.18939C22.08 7.42439 21.4951 7.1844 20.9851 7.1844Z" fill="#0DFF9A" stroke="#0DFF9A" stroke-width="0.25" stroke-miterlimit="10"/>
<path d="M36.031 10.4982L39.091 16.7231H34.0959L32.851 12.9282L30.586 16.7231H25.666L30.406 10.4982L27.466 4.4082H32.431L33.556 8.08317L35.4909 4.4082H40.411L36.031 10.4982Z" fill="#0DFF9A" stroke="#0DFF9A" stroke-width="0.25" stroke-miterlimit="10"/>
<path d="M48.9903 7.695H46.3953L45.9303 11.235C45.8553 11.745 45.8103 12.12 45.8103 12.63C45.8103 13.14 45.9903 13.365 46.7553 13.365C47.5203 13.365 48.1053 13.245 48.1053 13.245V16.455C47.7453 16.635 46.3203 16.995 44.4153 16.995C42.5103 16.995 41.0553 16.08 41.0553 14.16C41.0553 13.53 41.1303 12.765 41.2353 12L41.8053 7.695H40.3203L40.7553 4.41H42.2553L43.1253 1.5H47.2353L46.8603 4.41H49.4552L48.9903 7.695Z" fill="#0DFF9A" stroke="#0DFF9A" stroke-width="0.25" stroke-miterlimit="10"/>
</g>
<defs>
<clipPath id="clip0">
<rect width="51" height="18" fill="white"/>
</clipPath>
</defs>
</svg>
