<svg width="82" height="10" viewBox="0 0 82 10" fill="none" xmlns="http://www.w3.org/2000/svg">
<path d="M0 9.54001C0.24 7.34001 2.22996 5.99 2.95996 5.38C3.67996 4.77 4.87994 3.84 4.87994 2.66C4.87994 1.48 4.06994 0.709991 2.87994 0.709991C1.69994 0.709991 1.02997 1.48 0.719971 1.91L0.139954 1.48001C0.599954 0.830011 1.46995 0 2.94995 0C4.42995 0 5.72998 0.959996 5.72998 2.59C5.72998 4.22 4.27997 5.24998 3.46997 5.91998C2.65997 6.58998 1.27999 7.57999 0.98999 8.82999H6.06V9.54001H0V9.54001Z" fill="#0D5BFF"/>
<path d="M29.1901 9.66974C27.0501 9.66974 26.04 7.41975 26.04 4.83975C26.04 2.24975 27.0501 0.00976562 29.1901 0.00976562C31.3301 0.00976562 32.34 2.25975 32.34 4.83975C32.34 7.42975 31.3301 9.66974 29.1901 9.66974ZM29.1901 0.689758C27.6401 0.689758 26.9301 2.63974 26.9301 4.82974C26.9301 7.01974 27.6401 8.96976 29.1901 8.96976C30.7401 8.96976 31.45 7.01974 31.45 4.82974C31.45 2.63974 30.7401 0.689758 29.1901 0.689758Z" fill="#0D5BFF"/>
<path d="M52.3203 9.54001C52.5603 7.34001 54.5503 5.99 55.2803 5.38C56.0003 4.77 57.2003 3.84 57.2003 2.66C57.2003 1.48 56.3903 0.709991 55.2003 0.709991C54.0203 0.709991 53.3503 1.48 53.0403 1.91L52.4603 1.48001C52.9203 0.830011 53.7903 0 55.2703 0C56.7503 0 58.0504 0.959996 58.0504 2.59C58.0504 4.22 56.6003 5.24998 55.7903 5.91998C54.9803 6.58998 53.6004 7.57999 53.3104 8.82999H58.3803V9.54001H52.3203V9.54001Z" fill="#0D5BFF"/>
<path d="M80.4796 9.53961V1.47961C80.2596 1.65961 79.8295 1.80961 79.6995 1.84961C79.5695 1.88961 79.2296 1.99961 78.9296 2.03961L78.8096 1.3996C79.1096 1.3696 79.6196 1.2196 79.9196 1.0296C80.2196 0.849602 80.5096 0.559609 80.6096 0.0996094H81.3195V9.5296H80.4796V9.53961Z" fill="#0D5BFF"/>
</svg>
