<svg width="154" height="147" viewBox="0 0 154 147" fill="none" xmlns="http://www.w3.org/2000/svg">
<path d="M142 146.679V127.449H153.06V128.929H143.82V135.629H152.46V137.149H143.82V145.149H153.36V146.699H142V146.679Z" fill="#0D5BFF"/>
<path d="M100.95 146.679H99.1299L92.1699 127.449H94.1399L100.11 144.719L106.11 127.449H107.93L100.95 146.679Z" fill="#0D5BFF"/>
<path d="M53.8203 146.679V127.449H55.6403V146.689H53.8203V146.679Z" fill="#0D5BFF"/>
<path d="M8.54993 128.959V146.679H6.72992V128.959H0.669922V127.449H14.6099V128.959H8.54993Z" fill="#0D5BFF"/>
<path d="M150.7 106.51L148.73 101.12H139.79L137.82 106.51H136L143.33 87.2695H145.3L152.66 106.51H150.7ZM144.27 88.9395L140.33 99.6095H148.18L144.27 88.9395Z" fill="#0D5BFF"/>
<path d="M93.04 106.51V87.2695H104.1V88.7595H94.86V95.4495H103.5V96.9695H94.86V104.97H104.4V106.52H93.04V106.51Z" fill="#0D5BFF"/>
<path d="M59.9 106.51L54.36 98.1795H51.03V106.51H49.21V87.2695H54.82C58.45 87.2695 60.97 89.5395 60.97 92.7195C60.97 95.8995 58.46 97.6295 56.4 98.0195L62.09 106.5H59.9V106.51ZM57.53 89.5495C56.62 88.9395 55.71 88.7896 54.2 88.7896H51.02V96.6695H54.2C55.71 96.6695 56.62 96.5195 57.53 95.9095C58.44 95.2995 59.14 94.0896 59.14 92.7296C59.14 91.3596 58.44 90.1495 57.53 89.5495Z" fill="#0D5BFF"/>
<path d="M14.9399 91.82C14.9399 91.82 13.5199 88.64 9.4299 88.64C5.3399 88.64 2.5499 92.03 2.5499 96.88C2.5499 101.73 5.18991 105.12 9.30991 105.12C13.4299 105.12 15.1599 101.82 15.1599 101.82L16.4299 102.88C16.4299 102.88 14.4599 106.79 9.30991 106.79C4.15991 106.79 0.669922 102.94 0.669922 96.88C0.669922 90.82 4.6099 87 9.4599 87C14.3099 87 16.1499 90.45 16.3099 90.76L14.9399 91.82Z" fill="#0D5BFF"/>
<path d="M101.63 66.3699L97.55 58.5399H95.83V66.3699H89V43.6699H98.76C101.26 43.6699 103.55 43.9899 105.12 45.0999C106.69 46.2099 107.95 48.1399 107.95 50.8199C107.95 53.4999 107.06 55.8999 104.02 57.3299L109.31 66.3799H101.63V66.3699ZM98.42 48.7699H95.85V53.5599H98.42C99.99 53.5599 101.14 52.7399 101.14 51.1599C101.14 49.5799 99.99 48.7699 98.42 48.7699Z" fill="#0D5BFF"/>
<path d="M149.4 63.7902C147.25 65.5802 144.39 66.3602 140.64 66.3602H132.13V43.6602H140.64C144.4 43.6602 147.26 44.4502 149.4 46.2302C151.54 48.0202 153.15 50.8802 153.15 54.9902C153.16 59.1802 151.55 62.0002 149.4 63.7902ZM144.65 50.3102C143.76 49.4202 142.43 48.9502 140.47 48.9502H138.97V60.8902H140.47C142.44 60.8902 143.76 60.4202 144.65 59.5302C145.54 58.6402 146.19 57.2402 146.19 54.9202C146.18 52.6002 145.54 51.2102 144.65 50.3102Z" fill="#0D5BFF"/>
<path d="M54.7296 66.7208C47.5796 66.7208 43.1396 62.2508 43.1396 54.9908C43.1396 47.7308 47.5696 43.3008 54.7296 43.3008C61.8796 43.3008 66.3096 47.7308 66.3096 54.9908C66.3096 62.2608 61.8696 66.7208 54.7296 66.7208ZM54.7296 48.8808C51.5096 48.8808 50.1196 51.5308 50.1196 54.9208C50.1196 58.3208 51.5096 61.0008 54.7296 61.0008C57.9496 61.0008 59.3396 58.3208 59.3396 54.9208C59.3396 51.5308 57.9396 48.8808 54.7296 48.8808Z" fill="#0D5BFF"/>
<path d="M7.49994 48.9502V52.9502H15.5499V58.3502H7.49994V66.3602H0.669922V43.6602H16.2199V48.9502H7.49994Z" fill="#0D5BFF"/>
<path d="M149.4 20.13C147.25 21.92 144.39 22.7 140.64 22.7H132.13V0H140.64C144.4 0 147.26 0.790007 149.4 2.57001C151.54 4.36001 153.15 7.22002 153.15 11.33C153.16 15.51 151.55 18.34 149.4 20.13ZM144.65 6.65002C143.76 5.76002 142.43 5.29001 140.47 5.29001H138.97V17.23H140.47C142.44 17.23 143.76 16.76 144.65 15.87C145.54 14.98 146.19 13.58 146.19 11.26C146.19 8.94001 145.54 7.54002 144.65 6.65002Z" fill="#0D5BFF"/>
<path d="M101.54 22.7L94.3499 9.83002V22.7H87.8799V0H94.8899L101.72 12.12V0H108.19V22.7H101.54Z" fill="#0D5BFF"/>
<path d="M59.0304 22.7L58.0304 19.12H50.8804L49.8804 22.7H43.1904L50.5204 0H58.9204L66.2504 22.7H59.0304ZM54.4604 6.43002L52.3904 13.83H56.5404L54.4604 6.43002Z" fill="#0D5BFF"/>
<path d="M14.65 22.7V13.83H7.82001V22.7H1V0H7.82999V8.37003H14.66V0H21.49V22.7H14.65Z" fill="#0D5BFF"/>
</svg>
