<svg width="110" height="26" viewBox="0 0 110 26" fill="none" xmlns="http://www.w3.org/2000/svg">
<path d="M102.27 24.81H7.71997C4.01997 24.81 1 21.78 1 18.09V7.72C1 4.02 4.02997 1 7.71997 1H102.27C105.97 1 108.99 4.03 108.99 7.72V18.09C108.99 21.78 105.97 24.81 102.27 24.81Z" stroke="#0CE8CD" stroke-width="0.5" stroke-miterlimit="10"/>
<path d="M15.4902 13.9712C14.7102 14.5512 13.3101 14.7412 12.5101 14.7412H11.4702V17.8612H8.41016V7.70117H12.5101C13.4701 7.70117 14.7002 7.89119 15.4902 8.47119C16.2802 9.05119 16.7101 9.86119 16.7101 11.2212C16.7101 12.5812 16.2802 13.3912 15.4902 13.9712ZM13.1901 10.2012C12.8701 9.96117 12.5802 9.98117 12.1002 9.98117H11.4802V12.4412H12.1002C12.5802 12.4412 12.8701 12.4612 13.1901 12.2212C13.5101 11.9812 13.6501 11.6912 13.6501 11.2112C13.6501 10.7312 13.5101 10.4412 13.1901 10.2012Z" fill="#0CE8CD"/>
<path d="M22.7603 17.8604V13.6204C22.7603 12.9004 22.5503 12.4404 21.8303 12.4404C21.1103 12.4404 20.8403 13.0004 20.7603 13.4804V17.8704H17.7803V7.40039H20.7603V11.2304C21.2203 10.6504 21.9403 10.0004 23.0703 10.0004C25.1503 10.0004 25.7403 11.3104 25.7403 13.0704V17.8704H22.7603V17.8604Z" fill="#0CE8CD"/>
<path d="M30.95 18.0205C28.4 18.0205 26.71 16.5505 26.71 14.0005C26.71 11.4505 28.41 9.98047 30.95 9.98047C33.49 9.98047 35.1899 11.4505 35.1899 14.0005C35.1899 16.5505 33.49 18.0205 30.95 18.0205ZM30.95 12.1605C30.07 12.1605 29.73 13.0405 29.73 14.0005C29.73 14.9605 30.07 15.8405 30.95 15.8405C31.83 15.8405 32.17 14.9605 32.17 14.0005C32.16 13.0405 31.83 12.1605 30.95 12.1605Z" fill="#0CE8CD"/>
<path d="M41.4601 17.691C40.9801 17.851 40.0801 18.011 39.3201 18.011C38.5501 18.011 37.8801 17.931 37.3401 17.431C36.8001 16.931 36.6501 16.331 36.6501 15.521V12.261H35.6602V10.131H36.6501L36.7902 8.29102H39.6202V10.131H41.3801V12.261H39.6202V14.801C39.6202 15.121 39.6001 15.391 39.7601 15.551C39.9201 15.711 40.1301 15.711 40.4501 15.711C40.7701 15.711 41.2202 15.611 41.2202 15.611L41.4601 17.691Z" fill="#0CE8CD"/>
<path d="M46.1501 18.0205C43.6101 18.0205 41.9102 16.5505 41.9102 14.0005C41.9102 11.4505 43.6101 9.98047 46.1501 9.98047C48.6901 9.98047 50.3901 11.4505 50.3901 14.0005C50.3901 16.5505 48.6901 18.0205 46.1501 18.0205ZM46.1501 12.1605C45.2701 12.1605 44.9302 13.0405 44.9302 14.0005C44.9302 14.9605 45.2701 15.8405 46.1501 15.8405C47.0301 15.8405 47.3702 14.9605 47.3702 14.0005C47.3602 13.0405 47.0301 12.1605 46.1501 12.1605Z" fill="#0CE8CD"/>
<path d="M58.3199 19.3805C57.4099 20.3105 56.42 20.6105 54.9 20.6105C53.38 20.6105 51.94 20.1605 51.22 19.7605L52.0699 17.7005C52.7099 18.0205 53.62 18.4005 54.74 18.4005C55.86 18.4005 56.5 17.9205 56.5 16.9605V16.4205C56.24 16.8005 55.56 17.4805 54.36 17.4805C52.28 17.4805 51 15.9805 51 13.7305C51 11.4905 52.28 9.98047 54.36 9.98047C55.72 9.98047 56.26 10.8105 56.42 11.0505L56.58 10.1405H59.4V15.9305C59.4 17.1305 59.2499 18.4605 58.3199 19.3805ZM55.27 12.2205C54.39 12.2205 54.02 12.9205 54.02 13.6905C54.02 14.4605 54.39 15.1605 55.27 15.1605C56.15 15.1605 56.52 14.4605 56.52 13.6905C56.51 12.9305 56.15 12.2205 55.27 12.2205Z" fill="#0CE8CD"/>
<path d="M66.2106 12.8503C66.2106 12.8503 65.8606 12.7402 65.4606 12.7402C64.6606 12.7402 64.0706 13.2202 63.8306 14.1802V17.8602H60.8506V10.1502H63.6706L63.8306 11.3002C64.1506 10.6602 64.9506 9.99023 65.9106 9.99023C66.3906 9.99023 66.5306 10.0702 66.5306 10.0702L66.2106 12.8503Z" fill="#0CE8CD"/>
<path d="M71.5103 17.8602C71.5103 17.8602 71.3503 17.4902 71.3503 17.0902C70.9503 17.4902 70.3402 18.0202 69.1902 18.0202C68.0402 18.0202 66.5303 17.4602 66.5303 15.6202C66.5303 13.7802 68.2603 13.3602 69.0603 13.2002C69.8603 13.0402 70.8703 13.0102 71.2703 13.0102V12.8503C71.2703 12.2103 70.7403 12.0502 69.9903 12.0502C69.2403 12.0502 68.2603 12.3502 67.6103 12.7402L66.9203 10.7602C67.7203 10.3602 69.0803 9.99023 70.3603 9.99023C71.6403 9.99023 72.6003 10.2602 73.2303 10.7602C73.8503 11.2602 74.2503 11.9402 74.2503 13.2202V15.9402C74.2503 16.7402 74.3102 17.3002 74.6302 17.8602H71.5103ZM71.2703 14.5702C71.2703 14.5702 70.6803 14.5902 70.3403 14.6502C70.0003 14.7102 69.5103 14.8902 69.5103 15.3702C69.5103 15.8502 69.8803 16.0902 70.2803 16.0902C70.6803 16.0902 71.1103 15.8802 71.2703 15.4802V14.5702Z" fill="#0CE8CD"/>
<path d="M80.7704 18.0205C79.4104 18.0205 78.8704 17.2705 78.6304 16.9505V20.4505H75.6504V10.1405H78.4804L78.6204 11.0505C78.7804 10.8105 79.4704 9.98047 80.8304 9.98047C82.8304 9.98047 84.1304 11.6005 84.1304 14.0005C84.1304 16.4005 82.7704 18.0205 80.7704 18.0205ZM79.8304 12.2005C78.9504 12.2005 78.5504 13.0005 78.5504 13.9605C78.5504 14.9205 78.9504 15.7205 79.8304 15.7205C80.7104 15.7205 81.1104 14.9205 81.1104 13.9605C81.1104 13.0105 80.7104 12.2005 79.8304 12.2005Z" fill="#0CE8CD"/>
<path d="M90.1597 17.8604V13.6204C90.1597 12.9004 89.9497 12.4404 89.2297 12.4404C88.5097 12.4404 88.2397 13.0004 88.1597 13.4804V17.8704H85.1797V7.40039H88.1597V11.2304C88.6197 10.6504 89.3397 10.0004 90.4597 10.0004C92.5397 10.0004 93.1296 11.3104 93.1296 13.0704V17.8704H90.1597V17.8604Z" fill="#0CE8CD"/>
<path d="M99.8398 17.7706C98.9598 20.0906 98.2598 20.6006 96.7698 20.6006C95.2798 20.6006 94.3698 20.1706 94.3698 20.1706L94.9598 18.0106C94.9598 18.0106 95.4698 18.2506 95.8698 18.2506C96.2698 18.2506 96.4598 18.1706 96.5698 17.7706L96.6298 17.5306L93.7998 10.1406H97.0198L98.3198 14.8906L99.6198 10.1406H102.76L99.8398 17.7706Z" fill="#0CE8CD"/>
</svg>
