<svg width="109" height="26" viewBox="0 0 109 26" fill="none" xmlns="http://www.w3.org/2000/svg">
<path d="M101.27 24.81H7.71997C4.01997 24.81 1 21.78 1 18.09V7.72C1 4.02 4.02997 1 7.71997 1H101.27C104.97 1 107.99 4.03 107.99 7.72V18.09C108 21.78 104.97 24.81 101.27 24.81Z" stroke="#0CE8CD" stroke-width="0.5" stroke-miterlimit="10"/>
<path d="M14.2297 17.8592H10.7098L7.50977 7.69922H10.7297L12.5897 14.5792L14.4598 7.69922H17.4398L14.2297 17.8592Z" fill="#0CE8CD"/>
<path d="M19.6696 9.69C18.7596 9.69 18.0996 9.13 18.0996 8.22C18.0996 7.31 18.7596 6.75 19.6696 6.75C20.5796 6.75 21.2396 7.31 21.2396 8.22C21.2396 9.13 20.5796 9.69 19.6696 9.69ZM18.1796 17.86V10.15H21.1596V17.86H18.1796Z" fill="#0CE8CD"/>
<path d="M27.9398 17.8608L27.7197 16.9508C27.4797 17.2708 26.9398 18.0208 25.5798 18.0208C23.5798 18.0208 22.2197 16.4009 22.2197 14.0009C22.2197 11.6009 23.5198 9.98083 25.5198 9.98083C26.8798 9.98083 27.5697 10.8108 27.7297 11.0508V7.38086H30.7098V17.8508H27.9398V17.8608ZM26.5198 12.2108C25.6398 12.2108 25.2397 13.0109 25.2397 13.9709C25.2397 14.9309 25.6398 15.7308 26.5198 15.7308C27.3998 15.7308 27.7997 14.9309 27.7997 13.9709C27.7997 13.0109 27.3998 12.2108 26.5198 12.2108Z" fill="#0CE8CD"/>
<path d="M34.7397 14.7207C34.8197 15.6307 35.6197 15.9007 36.4197 15.9007C37.2197 15.9007 38.1698 15.5807 38.5698 15.2607L39.4797 16.9407C39.4797 16.9407 38.4097 18.0107 35.9697 18.0107C33.5297 18.0107 31.7598 16.6207 31.7598 13.9907C31.7598 11.3607 33.5198 9.9707 35.9498 9.9707C38.3798 9.9707 39.6998 11.6507 39.6998 14.0807V14.7007H34.7397V14.7207ZM35.8298 11.8907C35.1098 11.8907 34.7397 12.4207 34.6597 13.0607H36.9197C36.9197 12.4107 36.5498 11.8907 35.8298 11.8907Z" fill="#0CE8CD"/>
<path d="M44.5193 18.0205C41.9693 18.0205 40.2793 16.5505 40.2793 14.0005C40.2793 11.4505 41.9793 9.98047 44.5193 9.98047C47.0593 9.98047 48.7593 11.4505 48.7593 14.0005C48.7593 16.5505 47.0593 18.0205 44.5193 18.0205ZM44.5193 12.1605C43.6393 12.1605 43.2993 13.0405 43.2993 14.0005C43.2993 14.9605 43.6393 15.8405 44.5193 15.8405C45.3993 15.8405 45.7393 14.9605 45.7393 14.0005C45.7293 13.0405 45.3993 12.1605 44.5193 12.1605Z" fill="#0CE8CD"/>
<path d="M56.6894 19.3805C55.7794 20.3105 54.7794 20.6105 53.2594 20.6105C51.7394 20.6105 50.2994 20.1605 49.5794 19.7605L50.4294 17.7005C51.0694 18.0205 51.9794 18.4005 53.0994 18.4005C54.2194 18.4005 54.8594 17.9205 54.8594 16.9605V16.4205C54.5994 16.8005 53.9194 17.4805 52.7194 17.4805C50.6394 17.4805 49.3594 15.9805 49.3594 13.7305C49.3594 11.4905 50.6394 9.98047 52.7194 9.98047C54.0794 9.98047 54.6194 10.8105 54.7794 11.0505L54.9394 10.1405H57.7594V15.9305C57.7694 17.1405 57.6194 18.4605 56.6894 19.3805ZM53.6394 12.2205C52.7594 12.2205 52.3894 12.9205 52.3894 13.6905C52.3894 14.4605 52.7594 15.1605 53.6394 15.1605C54.5194 15.1605 54.8894 14.4605 54.8894 13.6905C54.8894 12.9305 54.5194 12.2205 53.6394 12.2205Z" fill="#0CE8CD"/>
<path d="M64.5798 12.8502C64.5798 12.8502 64.2298 12.7402 63.8298 12.7402C63.0298 12.7402 62.4398 13.2202 62.1998 14.1802V17.8602H59.2197V10.1502H62.0397L62.1998 11.3002C62.5198 10.6602 63.3197 9.99023 64.2797 9.99023C64.7597 9.99023 64.8997 10.0702 64.8997 10.0702L64.5798 12.8502Z" fill="#0CE8CD"/>
<path d="M69.8795 17.8602C69.8795 17.8602 69.7194 17.4902 69.7194 17.0902C69.3194 17.4902 68.7094 18.0202 67.5594 18.0202C66.4094 18.0202 64.8994 17.4602 64.8994 15.6202C64.8994 13.7802 66.6294 13.3602 67.4294 13.2002C68.2294 13.0402 69.2395 13.0102 69.6395 13.0102V12.8502C69.6395 12.2102 69.1094 12.0502 68.3594 12.0502C67.6094 12.0502 66.6294 12.3502 65.9794 12.7402L65.2894 10.7602C66.0894 10.3602 67.4494 9.99023 68.7294 9.99023C70.0094 9.99023 70.9694 10.2602 71.5994 10.7602C72.2194 11.2602 72.6194 11.9402 72.6194 13.2202V15.9402C72.6194 16.7402 72.6795 17.3002 72.9995 17.8602H69.8795ZM69.6395 14.5702C69.6395 14.5702 69.0495 14.5902 68.7095 14.6502C68.3695 14.7102 67.8795 14.8902 67.8795 15.3702C67.8795 15.8502 68.2494 16.0902 68.6494 16.0902C69.0494 16.0902 69.4795 15.8802 69.6395 15.4802V14.5702Z" fill="#0CE8CD"/>
<path d="M79.1395 18.0205C77.7795 18.0205 77.2395 17.2705 76.9995 16.9505V20.4505H74.0195V10.1405H76.8495L76.9895 11.0505C77.1495 10.8105 77.8395 9.98047 79.1995 9.98047C81.1995 9.98047 82.4995 11.6005 82.4995 14.0005C82.4995 16.4005 81.1395 18.0205 79.1395 18.0205ZM78.1995 12.2105C77.3195 12.2105 76.9195 13.0105 76.9195 13.9705C76.9195 14.9305 77.3195 15.7305 78.1995 15.7305C79.0795 15.7305 79.4795 14.9305 79.4795 13.9705C79.4795 13.0105 79.0795 12.2105 78.1995 12.2105Z" fill="#0CE8CD"/>
<path d="M88.5298 17.8604V13.6204C88.5298 12.9004 88.3198 12.4404 87.5998 12.4404C86.8798 12.4404 86.6098 13.0004 86.5298 13.4804V17.8704H83.5498V7.40039H86.5298V11.2304C86.9898 10.6504 87.7098 10.0004 88.8298 10.0004C90.9098 10.0004 91.4998 11.3104 91.4998 13.0704V17.8704H88.5298V17.8604Z" fill="#0CE8CD"/>
<path d="M98.21 17.7804C97.33 20.1004 96.63 20.6104 95.14 20.6104C93.65 20.6104 92.7399 20.1804 92.7399 20.1804L93.33 18.0204C93.33 18.0204 93.8399 18.2604 94.2399 18.2604C94.6399 18.2604 94.8299 18.1804 94.9399 17.7804L94.9999 17.5404L92.1699 10.1504H95.39L96.6899 14.9004L97.9899 10.1504H101.13L98.21 17.7804Z" fill="#0CE8CD"/>
</svg>
