<svg width="36" height="26" viewBox="0 0 36 26" fill="none" xmlns="http://www.w3.org/2000/svg">
<path d="M28.27 24.81H7.71997C4.01997 24.81 1 21.78 1 18.09V7.72C1 4.02 4.02997 1 7.71997 1H28.27C31.97 1 34.99 4.03 34.99 7.72V18.09C34.99 21.78 31.97 24.81 28.27 24.81Z" stroke="#0CE8CD" stroke-width="0.5" stroke-miterlimit="10"/>
<path d="M15.4406 17.8592L14.9906 16.2592H11.7906L11.3406 17.8592H8.35059L11.6306 7.69922H15.3906L18.6706 17.8592H15.4406ZM13.3906 10.5692L12.4606 13.8792H14.3206L13.3906 10.5692Z" fill="#0CE8CD"/>
<path d="M19.2607 17.8587V7.38867H22.2408V17.8587H19.2607Z" fill="#0CE8CD"/>
<path d="M23.7402 17.8587V7.38867H26.7202V17.8587H23.7402Z" fill="#0CE8CD"/>
</svg>
