<svg width="153" height="148" viewBox="0 0 153 148" fill="none" xmlns="http://www.w3.org/2000/svg">
<path d="M13.7689 23.2108V14.3608H6.94891V23.2108H0.128906V0.550781H6.94891V8.90079H13.7689V0.550781H20.5889V23.2108H13.7689Z" fill="#0D5BFF"/>
<path d="M58.0698 23.2108L57.0698 19.6408H49.9297L48.9297 23.2108H42.2598L49.5797 0.550781H57.9698L65.2898 23.2108H58.0698ZM53.4998 6.97079L51.4297 14.3608H55.5698L53.4998 6.97079Z" fill="#0D5BFF"/>
<path d="M100.499 23.2108L93.3291 10.3608V23.2108H86.8691V0.550781H93.8591L100.679 12.6508V0.550781H107.139V23.2108H100.499Z" fill="#0D5BFF"/>
<path d="M148.269 20.6408C146.129 22.4208 143.269 23.2108 139.529 23.2108H131.039V0.550781H139.529C143.279 0.550781 146.129 1.34079 148.269 3.12079C150.409 4.90079 152.019 7.76078 152.019 11.8608C152.009 16.0408 150.409 18.8608 148.269 20.6408ZM143.519 7.18079C142.629 6.29079 141.309 5.8208 139.339 5.8208H137.839V17.7408H139.339C141.299 17.7408 142.619 17.2808 143.519 16.3808C144.409 15.4908 145.049 14.1008 145.049 11.7808C145.049 9.47079 144.409 8.08079 143.519 7.18079Z" fill="#0D5BFF"/>
<path d="M6.81998 49.4106V53.4106H14.85V58.8006H6.81998V66.8006H0V44.1406H15.53V49.4206H6.81998V49.4106Z" fill="#0D5BFF"/>
<path d="M53.769 67.1512C46.629 67.1512 42.209 62.6913 42.209 55.4513C42.209 48.2113 46.639 43.7812 53.769 43.7812C60.909 43.7812 65.329 48.2113 65.329 55.4513C65.329 62.6913 60.899 67.1512 53.769 67.1512ZM53.769 49.3412C50.559 49.3412 49.169 51.9812 49.169 55.3712C49.169 58.7612 50.559 61.4413 53.769 61.4413C56.979 61.4413 58.369 58.7612 58.369 55.3712C58.369 51.9812 56.979 49.3412 53.769 49.3412Z" fill="#0D5BFF"/>
<path d="M100.569 66.7909L96.4987 58.9709H94.7888V66.7909H87.9688V44.1309H97.7087C100.209 44.1309 102.489 44.4509 104.059 45.5609C105.629 46.6709 106.879 48.5908 106.879 51.2708C106.879 53.9508 105.989 56.3408 102.949 57.7708L108.229 66.8008H100.569V66.7909ZM97.3488 49.2309H94.7787V54.0109H97.3488C98.9188 54.0109 100.059 53.1908 100.059 51.6208C100.069 50.0608 98.9288 49.2309 97.3488 49.2309Z" fill="#0D5BFF"/>
<path d="M148.269 64.2209C146.129 66.0109 143.269 66.7909 139.529 66.7909H131.039V44.1309H139.529C143.279 44.1309 146.129 44.9209 148.269 46.7009C150.409 48.4809 152.019 51.3409 152.019 55.4409C152.009 59.6209 150.409 62.4409 148.269 64.2209ZM143.519 50.7708C142.629 49.8808 141.309 49.4109 139.339 49.4109H137.839V61.3308H139.339C141.299 61.3308 142.619 60.8709 143.519 59.9709C144.409 59.0809 145.049 57.6908 145.049 55.3708C145.049 53.0508 144.409 51.6608 143.519 50.7708Z" fill="#0D5BFF"/>
<path d="M9.45898 106.86V87.6602H11.269V106.86H9.45898Z" fill="#0D5BFF"/>
<path d="M61.4997 106.86L60.9497 89.6202L54.4497 106.86H52.9397L46.4397 89.6202L45.9297 106.86H44.1797L44.9397 87.6602H47.5097L53.7697 104.45L60.0597 87.6602H62.6297L63.3897 106.86H61.4997Z" fill="#0D5BFF"/>
<path d="M103.348 106.86L101.378 101.48H92.4579L90.4879 106.86H88.668L95.9879 87.6602H97.948L105.298 106.86H103.348ZM96.938 89.3202L93.008 99.9702H100.838L96.938 89.3202Z" fill="#0D5BFF"/>
<path d="M130.43 100.601V99.2109H151.45V100.571L130.43 100.601Z" fill="#0D5BFF"/>
<path d="M16.8585 146.961L16.6185 144.54C16.6185 144.54 14.6785 147.23 10.4485 147.23C5.45852 147.23 1.97852 143.391 1.97852 137.341C1.97852 131.291 5.9085 127.48 10.7485 127.48C15.5885 127.48 17.5485 131.081 17.5485 131.081L16.1885 132.141C16.1885 132.141 14.7985 129.12 10.7185 129.12C6.63851 129.12 3.85849 132.51 3.85849 137.35C3.85849 142.19 6.48851 145.57 10.5985 145.57C14.7085 145.57 16.3685 142.73 16.3685 142.73V138.951H11.0485V137.44H18.1585V146.97H16.8585V146.961Z" fill="#0D5BFF"/>
<path d="M52.8594 146.962V127.762H54.6794V146.962H52.8594Z" fill="#0D5BFF"/>
<path d="M102.598 146.962L91.4081 130.032V146.962H89.748V127.762H91.928L102.598 143.942V127.762H104.258V146.962H102.598Z" fill="#0D5BFF"/>
<path d="M147.429 146.961L147.189 144.54C147.189 144.54 145.249 147.23 141.019 147.23C136.029 147.23 132.549 143.391 132.549 137.341C132.549 131.291 136.479 127.48 141.319 127.48C146.159 127.48 148.119 131.081 148.119 131.081L146.759 132.141C146.759 132.141 145.369 129.12 141.289 129.12C137.209 129.12 134.429 132.51 134.429 137.35C134.429 142.19 137.059 145.57 141.179 145.57C145.289 145.57 146.949 142.73 146.949 142.73V138.951H141.629V137.44H148.739V146.97H147.429V146.961Z" fill="#0D5BFF"/>
</svg>
