<svg width="285" height="286" viewBox="0 0 285 286" fill="none" xmlns="http://www.w3.org/2000/svg">
<path d="M0 166.078V136.178L105.07 97.7383V129.768L35.45 151.128L105.07 172.488V204.518L0 166.078Z" fill="#0C8AE5"/>
<path d="M179.01 204.518V172.488L248.63 151.128L179.01 129.768V97.7383L284.08 136.178V166.078L179.01 204.518Z" fill="#0C8AE5"/>
<path d="M31.88 243.139C32.51 245.769 30.57 248.139 32.62 250.349C32.88 250.629 32.7899 251.149 32.8999 251.549C33.9799 255.289 32.8 259.219 34.41 262.979C35.6 265.769 36.0799 268.819 36.6999 271.789C37.1999 274.169 37.4299 276.599 37.7799 278.999C37.5899 279.059 37.3899 279.109 37.1999 279.169C37.7999 279.339 38.41 279.499 39 279.659C39.06 279.899 39.17 280.089 39.13 280.239C38.52 282.579 40.84 283.579 41.91 285.139C42.05 285.349 43.04 285.389 43.32 285.179C45.13 283.739 48.14 283.579 48.85 280.949C48.89 280.799 49.1 280.669 49.23 280.539C52.93 276.939 56.63 273.349 60.32 269.749C62.28 267.839 64.26 265.939 66.19 263.999C67.77 262.409 69.2899 260.759 70.8399 259.129C71.5099 258.419 72.1999 257.729 72.8299 256.999C74.0499 255.589 75.11 254.029 76.49 252.749C78.34 251.029 80.93 249.809 82.29 247.859C84.49 244.689 87.95 242.679 90.25 239.659C92.56 236.619 95.26 233.829 97.79 230.919C98.07 230.589 98.2999 230.209 98.6499 229.939C100.45 228.529 102.41 227.259 104.07 225.719C106.01 223.919 107.77 221.949 109.47 219.959C112.13 216.849 114.69 213.669 117.28 210.509C118.19 209.399 119.05 208.259 119.97 207.159C121.18 205.719 122.43 204.299 123.68 202.879C124.3 202.169 124.88 201.399 125.63 200.819C127.09 199.669 128.84 198.779 130.13 197.499C131.79 195.849 133.03 193.849 134.61 192.119C135.77 190.849 137.24 189.829 138.45 188.599C139.22 187.809 139.69 186.799 140.42 185.959C141.8 184.369 143.38 182.909 144.66 181.259C146.53 178.859 148.12 176.289 150 173.909C151.02 172.609 152.55 171.639 153.58 170.349C155.01 168.559 156.08 166.529 157.49 164.729C158.32 163.679 159.58 162.909 160.53 161.929C162.08 160.319 163.67 158.709 164.98 156.949C165.74 155.929 165.79 154.499 166.5 153.439C167.65 151.709 169.08 150.129 170.39 148.489C171.19 148.369 172.03 148.149 172.46 147.639C173.29 146.679 173.78 145.489 174.59 144.529C177.03 141.639 179.66 138.879 182.04 135.949C183.93 133.629 185.54 131.119 187.32 128.719C188.77 126.769 190.95 125.019 191.6 122.879C192.48 120.009 195.27 118.509 196.38 115.869C197.29 113.709 199.12 111.869 200.47 109.849C201.83 107.829 202.76 105.449 204.52 103.799C206.31 102.119 206.73 99.9986 207.95 98.1786C209.07 96.5086 209.97 94.7286 211.01 93.0186C212.46 90.6286 214.03 88.2986 215.4 85.8786C216.37 84.1486 217.08 82.3086 217.92 80.5186C218.74 78.7686 220.57 77.2086 219.01 75.0586C219.67 74.8286 220.2 74.6486 220.74 74.4686C219.87 72.9586 220.12 72.4986 221.6 71.6686C222.28 71.2886 222.87 70.5686 223.16 69.8786C224.01 67.8986 224.33 65.6786 225.49 63.8886C227.84 60.2686 227.17 56.1286 228.43 52.3486C228.72 51.4586 228.98 50.5586 229.15 49.6486C229.8 46.0986 230.45 42.5586 231.02 38.9986C231.15 38.2086 231.11 37.3386 230.87 36.5686C230.36 34.8986 231.87 32.9186 229.93 31.4686C229.88 31.4286 229.99 31.2386 229.97 31.1186C229.85 30.2686 229.79 29.4086 229.57 28.5786C229.22 27.2686 228.77 25.9686 228.32 24.6786C228.02 23.8086 227.55 22.9786 227.31 22.0986C227.05 21.1186 226.63 20.0186 226.88 19.1186C227.33 17.4886 227.07 16.3486 225.25 15.9086C223.7 15.5386 223.53 14.7086 223.52 13.5286C223.5 12.0686 223.34 10.6086 223.24 9.13861C220.5 9.41861 220.41 9.30861 220.79 6.99861C220.85 6.61861 220.73 6.1686 220.55 5.8086C219.55 3.8186 218.51 1.8486 217.65 0.178599C216.79 0.108599 216.04 -0.0914057 215.36 0.0485943C214.88 0.148594 214.17 0.678594 214.14 1.04859C214.04 2.66859 214.16 4.2986 214.2 5.9286C214.25 8.4686 214.44 11.0186 214.31 13.5586C214.2 15.7486 213.22 17.9886 213.55 20.0886C214.02 23.1286 212.17 25.4986 211.53 28.1886C210.99 30.5086 209.57 32.6486 208.59 34.8786C207.99 36.2286 207.02 37.5986 207.02 38.9586C207.02 40.9286 206.24 42.3686 204.91 43.7586C204.59 44.0986 204.68 44.7386 204.45 45.1886C203.62 46.8086 203.11 48.7786 201.76 49.9086C200.5 50.9586 199.96 51.9886 199.71 53.3486C199.64 53.7486 199.79 54.2586 199.57 54.5586C198.48 56.0386 197.23 57.4386 196.17 58.9386C195.74 59.5486 195.67 60.3686 195.43 61.0886C195.42 61.4586 194.95 61.7286 194.66 62.0986C194.17 62.7286 193.84 63.4486 193.35 64.0786C192.64 65.0086 191.78 65.8386 191.13 66.7986C189.82 68.7286 188.6 70.6986 187.37 72.6686C186.64 73.8386 185.4 75.0386 185.38 76.2286C185.35 79.3186 181.81 80.3186 181.09 82.8886C181.05 83.0286 180.8 83.1186 180.67 83.2486C179.55 84.3686 178.3 85.4086 177.35 86.6386C176.22 88.1086 175.37 89.7486 174.25 91.5486C174.35 91.8586 174.56 92.5486 174.8 93.2986C173.91 93.2586 173.28 93.2286 172.67 93.2086C172.29 94.1886 172.21 95.5486 171.56 95.8286C169.38 96.7786 168.33 98.5686 167.1 100.179C165.78 101.899 164.77 103.819 163.4 105.999C162.12 106.009 161.34 106.969 161.42 108.579C160.73 108.989 160.16 109.499 159.84 110.109C159.55 110.649 159.74 111.449 159.37 111.899C158.64 112.809 157.46 113.269 156.92 114.509C156.4 115.719 155.09 116.649 154.01 117.819C154.82 118.109 155.5 118.349 156.71 118.789C155.8 119.369 155.09 120.149 154.69 120.029C152.58 119.439 151.49 120.849 150.52 121.869C147.92 124.629 145.58 127.599 142.98 130.679C143.87 131.159 144.67 131.589 145.46 132.009C145.43 132.189 145.41 132.359 145.38 132.539C144.48 132.489 143.56 132.329 142.68 132.419C142.08 132.479 141.05 132.839 141.02 133.139C140.85 134.629 140.94 136.139 140.94 137.989C140.22 137.919 139.49 137.749 138.8 137.829C138.05 137.919 137.05 138.049 136.67 138.509C135.66 139.709 134.82 141.059 134.14 142.449C133.9 142.949 134.07 143.949 134.49 144.299C135.42 145.089 135.12 145.589 134.44 146.239C133.97 146.689 133.57 147.199 133.14 147.679C132.5 147.539 131.88 147.409 131.27 147.279C131.09 149.459 129.32 149.149 127.88 149.139C127.25 151.139 128.8 150.629 129.84 150.579C129.75 151.889 129.17 152.429 127.8 152.319C127.21 152.269 126.55 152.499 125.98 152.729C125.08 153.089 124.23 153.549 123.37 153.969C122.89 154.099 122.75 154.689 122.36 155.049C120.38 156.889 118.48 158.759 118.05 161.459C118.02 161.659 117.84 161.939 117.65 162.019C114.87 163.179 113.29 165.009 113.48 167.899C113.48 167.919 113.38 167.949 113.18 168.039C112.85 167.329 112.51 166.619 112.16 165.859C111.32 166.669 110.45 167.259 109.94 168.039C108.58 170.109 105.68 171.319 105.76 174.199C105.77 174.399 105.38 174.759 105.13 174.789C102.69 175.079 101.87 176.629 101.57 178.099C100.53 178.719 99.65 179.049 99.07 179.629C96.66 182.009 94.3 184.439 92 186.899C89.75 189.309 87.86 191.989 85.07 193.999C83.52 195.119 82.4299 196.749 80.9599 197.969C79.5399 199.139 79.2399 200.999 77.6499 202.029C76.9899 202.459 76.28 202.879 75.74 203.429C72.96 206.229 71.18 209.689 67.56 212.009C64.69 213.849 62.59 216.689 60.17 219.099C59.23 220.029 58.4 221.049 57.42 221.939C55.78 223.429 53.99 224.779 52.41 226.309C48.98 229.649 45.73 233.149 42.24 236.439C40.43 238.149 38.12 239.419 36.31 241.129C35.1 242.279 34.58 244.099 31.88 243.139Z" fill="#0CE5CA"/>
<path d="M31.88 243.138C34.57 244.098 35.0999 242.288 36.2999 241.148C38.1099 239.438 40.4199 238.168 42.2299 236.458C45.7199 233.168 48.9699 229.668 52.3999 226.328C53.9799 224.788 55.7799 223.448 57.4099 221.958C58.3899 221.068 59.2299 220.048 60.1599 219.118C62.5799 216.708 64.6799 213.858 67.5499 212.028C71.1599 209.718 72.9499 206.248 75.7299 203.448C76.2699 202.908 76.9699 202.478 77.6399 202.048C79.2299 201.018 79.5299 199.168 80.9499 197.988C82.4299 196.768 83.51 195.138 85.06 194.018C87.85 191.998 89.7399 189.328 91.9899 186.918C94.2899 184.448 96.65 182.028 99.06 179.648C99.64 179.078 100.52 178.748 101.56 178.118C101.86 176.648 102.68 175.108 105.12 174.808C105.36 174.778 105.75 174.418 105.75 174.218C105.67 171.338 108.57 170.128 109.93 168.058C110.44 167.278 111.31 166.688 112.15 165.878C112.5 166.628 112.84 167.348 113.17 168.058C113.37 167.968 113.47 167.938 113.47 167.918C113.27 165.028 114.86 163.198 117.64 162.038C117.83 161.958 118.01 161.688 118.04 161.478C118.47 158.778 120.37 156.908 122.35 155.068C122.74 154.708 122.87 154.118 123.36 153.988C124.23 153.568 125.08 153.108 125.97 152.748C126.54 152.518 127.2 152.298 127.79 152.338C129.16 152.448 129.74 151.918 129.83 150.598C128.78 150.658 127.24 151.168 127.87 149.158C129.31 149.168 131.08 149.468 131.26 147.298C131.87 147.428 132.49 147.568 133.13 147.698C133.56 147.218 133.96 146.708 134.43 146.258C135.11 145.608 135.4 145.108 134.48 144.318C134.06 143.968 133.89 142.958 134.13 142.468C134.81 141.088 135.65 139.728 136.66 138.528C137.05 138.068 138.05 137.938 138.79 137.848C139.48 137.768 140.21 137.948 140.93 138.008C140.93 136.168 140.84 134.648 141.01 133.158C141.04 132.858 142.07 132.498 142.67 132.438C143.56 132.348 144.47 132.508 145.37 132.558C145.4 132.378 145.42 132.208 145.45 132.028C144.66 131.598 143.86 131.178 142.97 130.698C145.58 127.618 147.91 124.648 150.51 121.888C151.47 120.868 152.57 119.458 154.68 120.048C155.09 120.158 155.8 119.388 156.7 118.808C155.49 118.378 154.8 118.128 154 117.838C155.07 116.668 156.39 115.738 156.91 114.528C157.44 113.288 158.63 112.828 159.36 111.918C159.72 111.458 159.54 110.668 159.83 110.128C160.15 109.518 160.72 109.018 161.41 108.598C161.33 106.978 162.11 106.028 163.39 106.018C164.75 103.838 165.77 101.918 167.09 100.198C168.33 98.5881 169.37 96.7981 171.55 95.8481C172.2 95.5681 172.28 94.2081 172.66 93.2281C173.27 93.2581 173.9 93.2781 174.79 93.3181C174.55 92.5681 174.34 91.8781 174.24 91.5681C175.36 89.7681 176.22 88.1281 177.34 86.6581C178.28 85.4281 179.54 84.3881 180.66 83.2681C180.79 83.1381 181.04 83.0481 181.08 82.9081C181.8 80.3381 185.34 79.3381 185.37 76.2481C185.38 75.0581 186.63 73.8581 187.36 72.6881C188.59 70.7181 189.81 68.7481 191.12 66.8181C191.77 65.8581 192.63 65.0281 193.34 64.0981C193.82 63.4681 194.16 62.7381 194.65 62.1181C194.94 61.7381 195.41 61.4681 195.42 61.1081C195.65 60.3881 195.73 59.5681 196.16 58.9581C197.21 57.4481 198.46 56.0581 199.56 54.5781C199.78 54.2781 199.63 53.7681 199.7 53.3681C199.95 52.0081 200.49 50.9781 201.75 49.9281C203.1 48.7981 203.61 46.8281 204.44 45.2081C204.67 44.7581 204.58 44.1181 204.9 43.7781C206.22 42.3781 207 40.9481 207.01 38.9781C207.01 37.6181 207.98 36.2381 208.58 34.8981C209.57 32.6681 210.98 30.5181 211.52 28.2081C212.15 25.5181 214.01 23.1581 213.54 20.1081C213.21 18.0081 214.19 15.7681 214.3 13.5781C214.43 11.0381 214.24 8.48813 214.19 5.94813C214.16 4.31813 214.04 2.68813 214.13 1.06813C214.15 0.698126 214.86 0.168126 215.35 0.0681256C216.02 -0.0718744 216.78 0.12813 217.64 0.19813C218.51 1.86813 219.55 3.83812 220.54 5.82812C220.72 6.18812 220.84 6.63812 220.78 7.01812C220.4 9.31812 220.49 9.43812 223.23 9.15812C223.33 10.6281 223.49 12.0881 223.51 13.5481C223.53 14.7281 223.7 15.5581 225.24 15.9281C227.06 16.3681 227.32 17.5081 226.87 19.1381C226.62 20.0481 227.04 21.1381 227.3 22.1181C227.54 22.9981 228 23.8281 228.31 24.6981C228.76 25.9881 229.2 27.2881 229.56 28.5981C229.78 29.4281 229.84 30.2881 229.96 31.1381C229.98 31.2481 229.87 31.4481 229.92 31.4881C231.86 32.9381 230.35 34.9081 230.86 36.5881C231.09 37.3581 231.13 38.2281 231.01 39.0181C230.44 42.5781 229.8 46.1281 229.14 49.6681C228.97 50.5781 228.71 51.4881 228.42 52.3681C227.17 56.1481 227.83 60.2881 225.48 63.9081C224.32 65.6981 223.99 67.9181 223.15 69.8981C222.86 70.5881 222.26 71.3081 221.59 71.6881C220.11 72.5181 219.86 72.9781 220.73 74.4881C220.19 74.6681 219.66 74.8481 219 75.0781C220.56 77.2281 218.74 78.7881 217.91 80.5381C217.07 82.3281 216.36 84.1781 215.39 85.8981C214.02 88.3281 212.45 90.6581 211 93.0381C209.96 94.7481 209.05 96.5381 207.94 98.1981C206.72 100.018 206.31 102.148 204.51 103.818C202.74 105.468 201.82 107.838 200.46 109.868C199.1 111.888 197.27 113.728 196.37 115.888C195.26 118.538 192.47 120.028 191.59 122.898C190.93 125.038 188.75 126.788 187.31 128.738C185.53 131.138 183.92 133.638 182.03 135.968C179.65 138.898 177.03 141.658 174.58 144.548C173.76 145.508 173.27 146.708 172.45 147.658C172.01 148.158 171.18 148.378 170.38 148.508C169.07 150.148 167.64 151.728 166.49 153.458C165.78 154.518 165.73 155.948 164.97 156.968C163.66 158.738 162.07 160.338 160.52 161.948C159.57 162.938 158.31 163.698 157.48 164.748C156.07 166.548 154.99 168.578 153.57 170.368C152.54 171.668 151.01 172.638 149.99 173.928C148.11 176.318 146.52 178.888 144.65 181.278C143.37 182.928 141.79 184.388 140.41 185.978C139.69 186.808 139.21 187.828 138.44 188.618C137.23 189.848 135.75 190.868 134.6 192.138C133.02 193.868 131.78 195.868 130.12 197.518C128.83 198.798 127.08 199.688 125.62 200.838C124.87 201.428 124.29 202.198 123.67 202.898C122.42 204.318 121.18 205.738 119.96 207.178C119.04 208.278 118.18 209.418 117.27 210.528C114.68 213.688 112.13 216.868 109.46 219.978C107.76 221.968 106 223.938 104.06 225.738C102.4 227.278 100.44 228.548 98.6399 229.958C98.2999 230.228 98.0699 230.608 97.7799 230.938C95.2499 233.838 92.5499 236.638 90.2399 239.678C87.9299 242.708 84.4699 244.718 82.2799 247.878C80.9199 249.838 78.3299 251.058 76.4799 252.768C75.1099 254.048 74.05 255.598 72.82 257.018C72.19 257.748 71.4999 258.448 70.8299 259.148C69.2899 260.778 67.77 262.418 66.18 264.018C64.25 265.958 62.27 267.858 60.31 269.768C56.61 273.368 52.9099 276.958 49.2199 280.558C49.0799 280.688 48.8799 280.808 48.8399 280.968C48.1399 283.598 45.12 283.758 43.31 285.198C43.04 285.418 42.0499 285.378 41.8999 285.158C40.8399 283.598 38.51 282.598 39.12 280.258C39.16 280.098 39.0499 279.908 38.9899 279.678C38.3999 279.518 37.8 279.348 37.19 279.188C37.38 279.128 37.5799 279.078 37.7699 279.018C37.4199 276.608 37.18 274.188 36.69 271.808C36.07 268.838 35.5899 265.788 34.3999 262.998C32.7999 259.238 33.9699 255.298 32.8899 251.568C32.7699 251.168 32.8599 250.648 32.6099 250.368C30.5699 248.138 32.52 245.768 31.88 243.138Z" fill="#0CE5CA"/>
</svg>
