<svg width="134" height="134" viewBox="0 0 134 134" fill="none" xmlns="http://www.w3.org/2000/svg">
<path d="M133.5 67C133.5 103.727 103.727 133.5 67 133.5C30.2731 133.5 0.5 103.727 0.5 67C0.5 30.2731 30.2731 0.5 67 0.5C103.727 0.5 133.5 30.2731 133.5 67Z" fill="#27282A" stroke="#0CE5CA"/>
<path d="M97.0775 78.6171C99.6151 58.2724 84.4989 50.777 70.3361 50.777C62.9175 50.777 58.9738 52.1155 58.9738 52.1155L62.2312 41.1401H97.8405L100.228 22H45.6L32.8583 66.8386L45.1727 71.9247C46.4868 71.1217 52.9406 68.0432 59.6848 68.0432C66.4289 68.0432 72.9908 70.5863 72.0058 78.4832C71.0208 86.3802 63.8078 89.0571 57.1985 89.0571C50.5892 89.0571 42.4421 86.2463 36.9053 80.8925L24.6006 97.3556C30.5935 103.379 40.9014 108.331 57.7618 108.331C74.6223 108.331 94.5398 98.9617 97.0775 78.6171Z" fill="#0DFF9A"/>
</svg>
