<svg width="134" height="134" viewBox="0 0 134 134" fill="none" xmlns="http://www.w3.org/2000/svg">
<path d="M133.5 67C133.5 103.727 103.727 133.5 67 133.5C30.2731 133.5 0.5 103.727 0.5 67C0.5 30.2731 30.2731 0.5 67 0.5C103.727 0.5 133.5 30.2731 133.5 67Z" fill="#0CE5CA" stroke="#0CE5CA"/>
<path d="M98.6409 108.331L101.028 89.1909H65.2841C67.7248 85.8448 76.9056 79.2863 81.3695 75.9401C85.8334 72.594 100.239 64.1616 102.159 48.7693C104.079 33.377 93.6279 22 73.3953 22C53.1628 22 40.6305 31.637 37.4807 34.18L45.8801 50.1078C52.0614 44.8878 59.9141 41.4077 65.9838 41.4077C72.0536 41.4077 78.1427 43.4154 77.308 50.1078C76.4732 56.8001 66.8196 62.8232 57.1339 70.1847C47.4482 77.5463 32.8426 87.5848 28.906 108.331H98.6409Z" fill="#27282A"/>
</svg>
