<svg width="134" height="134" viewBox="0 0 134 134" fill="none" xmlns="http://www.w3.org/2000/svg">
<path d="M133.5 67C133.5 103.727 103.727 133.5 67 133.5C30.2731 133.5 0.5 103.727 0.5 67C0.5 30.2731 30.2731 0.5 67 0.5C103.727 0.5 133.5 30.2731 133.5 67Z" fill="#0CE5CA" stroke="#0CE5CA"/>
<path d="M96.2144 78.0163C98.3516 60.8819 86.5527 52.1829 73.9344 52.1829C61.3161 52.1829 54.7471 56.9278 53.4531 57.7186C54.7683 47.1744 61.8659 40.3206 71.1637 40.3206C80.4614 40.3206 87.1242 44.4065 88.8029 45.8564L99.0766 29.5128C94.1076 25.6905 85.4031 22 73.4489 22C61.4947 22 52.5664 25.4269 44.9868 31.8852C37.4072 38.3436 30.7119 48.3606 28.3281 67.4721C25.1222 93.1736 36.514 108.331 58.6957 108.331C80.8774 108.331 94.0772 95.1507 96.2144 78.0163ZM71.8595 79.4661C71.1361 85.2655 67.6222 90.0104 60.3168 90.0104C53.0115 90.0104 50.4787 82.6294 51.4651 74.7212C51.4651 74.7212 56.2567 69.3173 62.8979 69.3173C69.5392 69.3173 72.5829 73.6668 71.8595 79.4661Z" fill="#27282A"/>
</svg>
