<svg width="134" height="134" viewBox="0 0 134 134" fill="none" xmlns="http://www.w3.org/2000/svg">
<path d="M133.5 67C133.5 103.727 103.727 133.5 67 133.5C30.2731 133.5 0.5 103.727 0.5 67C0.5 30.2731 30.2731 0.5 67 0.5C103.727 0.5 133.5 30.2731 133.5 67Z" fill="#27282A" stroke="#0CE5CA"/>
<path d="M97.7301 83.0248C99.8674 65.8904 84.2737 63.1226 84.2737 63.1226C84.2737 63.1226 98.697 59.3003 100.588 44.1429C102.478 28.9856 88.0748 22 71.4718 22C54.8687 22 43.6864 28.5902 40.7833 30.5672L46.4814 46.6472C52.2876 42.6931 59.2083 40.4524 65.1854 40.4524C71.1625 40.4524 76.893 42.4295 76.2354 47.7016C75.5777 52.9737 71.3957 54.5554 65.4186 54.5554H54.1286L51.8598 72.7442H63.1499C69.127 72.7442 74.1933 74.7212 73.4535 80.6524C72.7137 86.5835 66.4078 89.2196 59.7666 89.2196C53.1254 89.2196 45.4176 86.0563 40.9115 80.6524L28.7277 96.3369C34.3976 103.059 45.0301 108.331 60.969 108.331C76.9079 108.331 95.5929 100.159 97.7301 83.0248Z" fill="#0DFF9A"/>
</svg>
