<svg width="298" height="170" viewBox="0 0 298 170" fill="none" xmlns="http://www.w3.org/2000/svg">
<path d="M97.9716 121.522C97.9716 121.522 86.5016 138.322 57.5616 138.322C28.6216 138.322 4.18164 120.362 4.18164 83.7823C4.18164 47.2023 31.1217 29.4023 58.3917 29.4023C85.6617 29.4023 97.9716 46.2023 97.9716 46.2023L83.3417 67.8223C83.3417 67.8223 74.6916 56.6823 60.5616 56.6823C46.4316 56.6823 36.4517 66.6623 36.4517 83.2923C36.4517 99.9223 46.4316 109.902 60.5616 109.902C74.6916 109.902 83.3417 99.0923 83.3417 99.0923L97.9716 121.522Z" fill="#0C8AE5"/>
<path d="M181.112 136.652V73.1325L164.482 136.652H135.882L119.252 73.1325V136.652H89.8115L92.9715 31.0625H132.882L151.012 99.4125L169.142 31.0625H209.052L212.212 136.652H181.112V136.652Z" fill="#0C8AE5"/>
<path d="M280.711 64.3128C273.391 58.3228 260.751 54.0028 252.441 54.0028C244.131 54.0028 240.471 55.6628 240.471 59.6528C240.471 63.6428 245.791 65.1428 248.291 65.9728C250.791 66.8028 263.091 70.6328 266.421 71.7928C269.751 72.9528 275.901 75.2828 281.051 79.4428C286.211 83.6028 291.531 90.0828 291.531 102.553C291.531 115.023 285.881 123.503 279.391 128.663C272.901 133.813 263.261 138.303 246.631 138.303C230.001 138.303 213.541 132.313 204.231 124.173L217.531 100.893C226.841 108.213 239.151 112.033 247.461 112.033C255.771 112.033 259.931 110.373 259.931 106.213C259.931 102.053 254.111 100.223 250.951 99.2328C247.791 98.2328 238.311 95.2428 235.821 94.4128C233.331 93.5828 225.681 90.9228 220.021 86.5928C214.371 82.2728 209.051 75.1228 209.051 62.6428C209.051 50.1628 216.201 41.3528 222.691 37.0328C229.181 32.7128 236.661 29.3828 252.461 29.3828C268.261 29.3828 284.051 35.7028 292.201 42.5228L280.711 64.3128Z" fill="#0C8AE5"/>
<path d="M78.5713 24.4336C78.5913 24.4636 78.6013 24.5036 78.6213 24.5336C77.9313 24.3436 77.2413 24.1136 76.5413 23.9836C75.5813 23.8036 74.6013 23.6336 73.6213 23.5936C72.4813 23.5436 71.3113 23.5236 70.1913 23.7136C69.2513 23.8736 68.9313 23.7836 68.9013 22.7636C67.0413 22.5236 65.1613 22.3636 63.3213 22.0136C61.3813 21.6436 59.4913 20.9836 57.5413 20.6536C53.5713 19.9736 49.7413 18.8336 45.9813 17.4636C44.8313 17.0436 43.7613 16.4236 42.6213 15.9836C41.4813 15.5436 40.2213 15.3736 39.1513 14.8136C37.8313 14.1136 36.5113 13.5836 35.0113 13.5136C34.5613 13.4936 34.0313 13.5136 33.6813 13.2936C32.4913 12.5336 31.2413 11.9836 29.8313 11.7736C29.0413 11.6536 26.4113 13.1436 26.5513 13.8936C26.7213 14.8836 26.0613 15.2836 25.6013 15.7936C24.8113 16.6736 23.8313 17.3736 23.0413 18.2436C22.0813 19.3136 21.2213 20.4936 20.3513 21.6436C20.2313 21.8036 20.2413 22.0736 20.2113 22.2936C20.0513 23.2936 19.7013 24.1436 18.7513 24.7236C18.3413 24.9736 18.0713 25.5036 17.8013 25.9436C17.4013 26.6036 17.1013 27.3236 16.6713 27.9636C15.8013 29.2636 14.9813 30.5736 15.1613 32.2236C15.2113 32.6336 15.4313 33.1936 15.7513 33.3736C16.7313 33.9236 17.7713 34.4136 18.8413 34.7736C20.7713 35.4236 22.7513 35.9336 24.6913 36.5636C25.6813 36.8836 26.6313 37.3536 27.6113 37.7136C29.5813 38.4436 31.5413 39.2336 33.5513 39.8436C36.5413 40.7436 39.5613 41.5836 42.6013 42.3036C45.2313 42.9236 47.9013 43.3736 50.5713 43.8436C53.2713 44.3136 55.9813 44.7136 58.6913 45.1236C61.4113 45.5436 64.1313 46.0536 66.8613 46.3236C69.8913 46.6236 72.9513 46.7136 76.0013 46.8536C79.9413 47.0436 83.8813 47.1836 87.8213 47.3636C89.9113 47.4636 92.0113 47.6536 94.1013 47.7236C98.1213 47.8436 102.151 47.9136 106.171 48.0036C108.871 48.0636 111.581 48.1636 114.281 48.1436C118.011 48.1136 121.741 47.9236 125.471 47.9036C127.531 47.8936 129.581 48.0136 131.661 47.8636C134.861 47.6336 138.081 47.7636 141.291 47.6936C141.841 47.6836 142.381 47.4636 142.951 47.3336C143.471 47.3936 144.031 47.5236 144.591 47.5136C145.781 47.4936 146.981 47.4236 148.171 47.3536C149.411 47.2836 150.741 47.4536 151.861 47.0536C152.771 46.7336 153.491 46.7436 154.331 46.9636C154.581 47.0336 154.861 47.0336 155.121 47.0236C157.121 46.8936 159.121 46.8136 161.101 46.5836C164.401 46.1836 167.721 46.2736 171.031 45.8236C175.791 45.1736 180.611 44.9936 185.411 44.6036C187.861 44.4036 190.311 44.2236 192.751 43.9436C195.101 43.6736 197.441 43.2836 199.781 42.9436C201.431 42.7036 203.111 42.6036 204.711 42.1736C206.631 41.6536 208.801 42.2436 210.501 40.8336C210.521 40.8136 210.571 40.8236 210.611 40.8336C212.261 41.2336 213.861 41.0236 215.491 40.6136C216.801 40.2836 218.161 40.2036 219.491 39.9536C221.781 39.5336 224.061 39.0736 226.341 38.6436C229.401 38.0636 232.461 37.5336 235.521 36.9336C237.791 36.4836 240.051 35.9936 242.301 35.4836C245.461 34.7636 248.611 34.0436 251.751 33.2536C252.891 32.9636 253.981 32.4736 255.101 32.1036C257.321 31.3636 259.581 30.7336 261.771 29.9036C264.171 29.0036 266.511 27.9336 268.871 26.9336C270.851 26.0836 272.861 25.2836 274.791 24.3436C275.811 23.8436 276.751 23.1436 277.641 22.4236C278.381 21.8236 279.011 21.0736 279.681 20.3836C279.911 20.1536 280.281 19.9736 280.381 19.6936C281.151 17.6336 282.251 15.7636 283.971 14.3836C286.141 12.6436 286.461 9.72362 288.381 7.85362C288.401 7.83362 288.401 7.77364 288.421 7.74364C289.001 6.83364 289.411 5.70363 290.211 5.05363C291.351 4.12363 291.291 3.16364 290.901 2.03364C290.271 0.233644 288.161 -0.666378 286.951 0.573622C285.531 2.04362 284.041 3.15363 282.111 3.83363C280.781 4.30363 279.581 5.16362 278.311 5.82362C277.601 6.19362 276.841 6.47362 276.121 6.82362C275.171 7.27362 274.231 7.74363 273.011 8.33363C270.951 8.43363 268.741 9.07362 266.891 10.7636C266.051 9.97362 264.371 10.3936 263.551 11.6136C261.651 11.4136 260.691 11.6036 259.891 12.7536C259.441 13.4036 258.731 13.4336 258.451 13.2736C257.591 12.7836 256.851 13.1836 256.091 13.3336C255.231 13.5136 254.391 13.8236 253.531 14.0336C251.371 14.5536 249.211 15.0336 247.051 15.5436C246.651 15.6336 246.281 15.8736 245.881 15.9136C244.761 16.0236 243.631 16.0236 242.521 16.1536C241.641 16.2536 240.701 16.4036 240.681 17.6436C240.681 17.7536 240.511 17.8536 240.411 17.9536C240.421 17.8436 240.421 17.7336 240.431 17.6236C239.601 17.4036 238.751 16.9736 237.931 17.0136C236.531 17.0836 235.141 17.4036 233.761 17.7236C233.301 17.8236 232.931 18.2536 232.491 18.5036C232.291 18.6136 232.021 18.7336 231.831 18.6836C230.621 18.3536 229.041 18.7836 228.401 19.5636C228.031 19.5036 227.671 19.3236 227.461 19.4336C226.841 19.7536 226.291 20.1636 225.681 19.3936C225.591 19.2836 225.191 19.3936 224.941 19.4236C224.581 19.4736 224.221 19.5436 223.861 19.6136C223.221 19.7336 222.581 19.8436 221.951 19.9836C221.741 20.0336 221.561 20.2036 221.351 20.2336C220.811 20.3236 220.271 20.3636 219.721 20.4236C217.631 19.9236 215.651 20.9436 213.621 21.2236C211.681 21.4936 209.671 21.6036 207.371 22.3036C206.811 22.3036 205.781 22.3036 204.731 22.3036C204.731 22.8436 204.731 23.2336 204.731 23.5236C203.251 23.4336 201.841 23.3536 200.351 23.2636C200.351 23.2636 200.351 23.0336 200.351 22.6136C199.941 22.8636 199.581 22.9636 199.411 23.2036C198.921 23.8936 198.531 24.3336 198.141 23.1336C198.111 23.0236 197.761 23.0236 197.651 22.9936C197.461 23.3936 197.321 23.7036 197.171 24.0136C196.871 23.8036 196.571 23.5936 196.191 23.3336C195.671 23.9536 194.371 22.5436 194.041 24.0036C193.391 23.8736 192.801 23.7636 192.091 23.6236C192.231 24.9936 191.641 25.0136 190.741 24.5936C190.061 24.2736 189.351 24.0336 188.891 23.8536C188.491 24.3236 188.301 24.7436 188.101 24.7536C187.251 24.7936 186.391 24.7136 185.551 24.6736C185.641 25.1236 185.451 25.6736 184.761 25.3736C182.881 24.5636 180.951 24.3836 178.961 24.7336C178.461 24.8236 177.991 25.1336 177.511 25.3436C177.551 25.4636 177.581 25.5836 177.621 25.7136C174.661 25.0736 171.701 24.6836 168.651 25.8636C168.051 25.2636 167.861 25.2936 167.081 26.1136C166.901 26.3036 166.321 26.4436 166.251 26.3636C165.301 25.1036 163.981 26.1336 163.501 26.4536C162.451 27.1636 162.231 26.9636 162.061 25.8936C161.051 25.8936 160.121 25.8936 159.301 25.8936C159.061 26.3836 158.861 26.7736 158.671 27.1636C158.581 27.1236 158.491 27.0836 158.401 27.0336C158.401 26.7036 158.401 26.3736 158.401 25.8536C157.931 26.2636 157.611 26.5336 157.251 26.8536C156.991 26.4936 156.771 26.2036 156.511 25.8436C155.771 26.2336 155.031 26.6136 154.061 27.1236C154.231 26.5936 154.321 26.2836 154.461 25.8336C153.971 25.9436 153.541 25.9636 153.201 26.1436C152.541 26.4936 152.041 26.5936 151.231 26.2336C150.651 25.9736 149.431 25.6936 148.951 26.9136C148.421 26.7036 147.891 26.3436 147.341 26.3136C146.071 26.2336 144.791 26.2536 143.521 26.3336C143.031 26.3636 142.561 26.6536 142.081 26.8136C141.771 26.9136 141.431 27.0936 141.131 27.0536C139.911 26.8836 138.711 26.5336 137.491 26.4536C136.611 26.3936 135.371 25.8636 135.131 27.5736C135.031 27.5636 134.931 27.5536 134.831 27.5436C134.661 27.1936 134.491 26.8436 134.181 26.2236C132.741 26.3036 130.911 26.3836 129.081 26.5236C128.211 26.5936 127.351 26.8736 126.481 26.9036C125.751 26.9236 125.021 26.6936 124.291 26.6236C123.451 26.5336 123.071 26.9436 123.051 27.8736C122.831 27.5736 122.611 27.2836 122.391 26.9736C121.811 27.7036 121.261 27.7736 120.511 27.0836C119.511 26.1636 119.081 26.2636 118.471 27.3536C118.041 27.1636 117.551 27.0336 117.181 26.7636C116.271 26.0936 115.571 26.1136 114.641 26.8536C114.431 27.0136 114.021 27.0636 113.751 26.9836C112.841 26.7436 111.921 26.1036 111.051 26.1936C108.741 26.4236 106.421 25.4736 104.131 26.2736C104.011 26.3136 103.851 26.1936 103.701 26.1636C102.821 26.0036 101.941 25.7536 101.041 25.6936C99.4213 25.5836 97.8013 25.5836 96.1713 25.5436C94.9713 25.5136 93.7613 25.5636 92.5613 25.4736C89.8613 25.2736 87.1713 25.0236 84.4713 24.7736C83.6813 24.7036 82.9013 24.5336 82.1113 24.4936C80.9613 24.3936 79.7713 24.4336 78.5713 24.4336Z" fill="#0CE5CA"/>
<path d="M81.1215 129.173C80.6515 129.203 80.2215 129.213 79.8015 129.273C79.4715 129.323 79.1615 129.473 78.8315 129.513C76.8715 129.763 74.9015 129.993 72.9415 130.253C72.2015 130.353 71.4915 130.593 70.7515 130.673C69.3615 130.833 67.9714 131.123 66.5414 130.893C66.2214 130.843 65.8614 130.933 65.5314 131.023C63.5614 131.523 61.6115 132.133 59.6215 132.533C58.2815 132.803 56.8215 132.583 55.5215 132.953C54.5515 133.233 53.6215 133.303 52.6515 133.443C50.9615 133.673 49.3215 134.173 47.6415 134.473C45.5315 134.843 43.3914 134.853 41.3514 135.763C40.1814 136.293 38.7015 136.083 37.3915 136.363C35.1815 136.833 33.0115 137.483 30.8115 137.953C29.9115 138.143 29.0615 138.263 28.4615 139.043C27.9415 139.713 27.3914 139.983 26.5414 139.383C26.2614 139.183 25.5515 139.473 25.0915 139.663C23.9015 140.153 22.7415 140.703 21.5715 141.243C21.2315 141.403 20.8915 141.573 20.5915 141.783C19.2915 142.693 17.9714 143.573 16.7314 144.563C15.5614 145.503 14.3015 146.433 13.4315 147.623C12.6615 148.673 12.1915 149.823 11.0715 150.733C9.22147 152.223 7.68146 154.103 6.68146 156.353C6.12146 157.613 4.61144 158.393 4.79144 160.043C4.80144 160.143 4.53144 160.263 4.41144 160.383C3.86144 160.933 3.21144 161.423 2.79144 162.073C2.06144 163.193 1.39146 164.373 0.871461 165.603C0.461461 166.583 -0.578551 167.793 0.421449 168.703C1.21145 169.433 2.56145 169.553 3.67145 169.913C3.76145 169.943 3.93145 169.773 4.05145 169.683C5.99145 168.253 7.94145 166.833 9.86145 165.383C11.0015 164.523 12.0715 163.573 13.2115 162.713C13.4515 162.533 13.8715 162.613 14.1915 162.533C15.9215 162.073 17.6815 161.683 19.3815 161.103C20.3415 160.773 21.1315 159.933 22.0915 159.663C24.1715 159.073 26.3315 158.743 28.4315 158.243C29.8115 157.913 31.1514 157.393 32.5414 157.123C34.6814 156.703 36.8615 156.503 39.0015 156.083C41.4315 155.613 43.8215 154.963 46.2515 154.503C48.9415 153.993 51.6615 153.623 54.3715 153.163C56.3415 152.823 58.3014 152.393 60.2814 152.093C62.5214 151.763 64.7715 151.523 67.0215 151.253C68.4115 151.093 69.8015 150.993 71.1815 150.793C73.9315 150.403 76.6715 149.913 79.4315 149.543C81.2115 149.303 83.0114 149.243 84.7914 149.043C87.3614 148.753 89.9114 148.333 92.4814 148.093C95.4814 147.813 98.5115 147.723 101.511 147.463C104.661 147.193 107.791 146.763 110.941 146.503C112.921 146.343 114.921 146.363 116.911 146.293C118.761 146.233 120.601 146.173 122.451 146.103C124.531 146.033 126.601 145.983 128.681 145.873C130.441 145.783 132.201 145.603 133.961 145.483C136.351 145.313 138.741 145.103 141.131 145.033C142.891 144.983 144.661 145.133 146.431 145.163C149.561 145.203 152.681 145.193 155.811 145.253C158.611 145.303 161.401 144.893 164.221 145.173C165.871 145.343 167.541 145.343 169.201 145.333C169.881 145.333 170.571 145.023 171.251 145.043C173.001 145.103 174.741 145.233 176.481 145.423C179.571 145.753 182.691 145.333 185.781 145.813C186.731 145.963 187.711 145.933 188.681 145.933C190.051 145.923 191.431 145.713 192.771 145.873C194.191 146.043 195.561 146.303 197.031 146.313C200.181 146.333 203.321 146.713 206.471 146.943C208.721 147.113 210.961 147.303 213.211 147.463C216.631 147.713 220.071 147.873 223.481 148.203C226.301 148.473 229.111 148.953 231.931 149.263C234.611 149.553 237.301 149.733 239.981 149.993C240.721 150.063 241.441 150.303 242.171 150.383C243.491 150.533 244.821 150.623 246.151 150.723C247.821 150.853 249.511 150.893 251.171 151.113C252.641 151.303 254.091 151.693 255.551 151.963C256.801 152.193 258.071 152.363 259.321 152.603C261.401 153.003 263.461 153.483 265.551 153.853C267.451 154.193 269.471 154.143 271.261 154.763C274.031 155.733 277.111 155.893 279.571 157.793C280.091 158.203 280.791 158.343 281.671 157.763C282.741 157.063 283.011 155.893 283.871 155.143C284.571 154.533 285.311 153.893 285.811 153.133C286.431 152.193 286.961 151.293 288.131 151.393C288.431 150.803 288.621 149.883 288.971 149.823C290.201 149.593 290.351 148.323 291.221 147.773C291.551 147.563 291.581 146.913 291.801 146.493C292.061 146.003 292.361 145.533 292.711 145.103C293.181 144.523 293.681 143.973 294.221 143.463C295.181 142.573 295.401 140.923 297.161 140.793C296.921 139.683 296.841 138.593 296.431 137.653C295.881 136.393 294.571 136.043 293.341 135.863C291.601 135.603 289.841 135.503 288.091 135.303C287.761 135.263 287.241 135.183 287.161 134.983C286.561 133.393 285.291 134.253 284.301 134.133C283.881 134.083 283.421 134.153 283.031 134.013C282.131 133.693 281.301 133.083 280.261 133.613C280.131 133.683 279.881 133.493 279.681 133.453C278.781 133.303 277.831 132.903 276.981 133.073C275.701 133.323 274.631 133.043 273.501 132.573C272.461 132.143 271.401 131.633 270.301 131.503C269.331 131.393 268.301 131.823 267.291 131.893C266.941 131.923 266.571 131.593 266.311 131.473C265.051 131.173 263.791 131.093 262.751 130.573C261.651 130.033 261.211 130.433 260.771 131.423C260.071 130.383 259.151 129.903 258.021 130.203C256.941 130.493 255.981 130.493 255.381 129.903C254.881 130.013 254.581 130.193 254.371 130.113C253.751 129.883 253.151 129.293 252.561 129.313C251.261 129.343 249.971 129.663 248.481 129.893C247.421 128.993 247.341 128.973 245.751 129.003C245.581 129.003 245.421 128.823 245.241 128.803C244.821 128.763 244.391 128.783 243.961 128.763C243.341 128.733 242.621 128.873 242.111 128.613C241.061 128.083 239.991 128.023 239.091 128.653C238.831 128.833 238.451 128.853 237.961 128.993C238.081 128.473 238.141 128.173 238.281 127.563C237.641 127.923 237.231 128.163 236.811 128.403C236.661 128.183 236.481 127.903 236.221 127.513C235.161 128.593 234.181 127.963 233.231 127.543C233.001 127.783 232.731 127.893 232.501 127.833C231.751 127.653 231.011 127.413 230.241 127.193C229.811 128.863 229.241 127.853 228.751 127.373C228.431 127.563 228.161 127.713 227.751 127.953C227.471 126.433 226.591 126.813 225.571 126.983C224.661 127.133 223.671 126.853 222.721 126.733C222.471 126.703 222.221 126.493 221.991 126.523C220.311 126.733 218.561 125.883 216.931 126.863C216.781 126.953 216.491 126.983 216.381 126.893C216.211 126.753 216.131 126.493 216.051 126.343C215.631 126.343 215.091 126.383 214.561 126.333C213.031 126.213 211.451 126.453 209.991 125.743C209.811 125.653 209.551 125.773 209.331 125.763C207.731 125.683 206.111 125.743 204.551 125.453C203.641 125.283 202.981 125.423 202.221 125.803C201.891 125.963 201.371 125.733 200.931 125.673C200.741 125.623 200.321 125.973 200.241 125.913C199.191 125.053 198.161 125.853 197.121 125.873C196.431 125.883 195.711 125.693 195.041 125.473C194.281 125.213 193.601 124.623 192.791 125.363C192.571 125.573 192.231 125.663 191.951 125.803C192.071 125.523 192.191 125.253 192.291 124.963C192.321 124.873 192.281 124.753 192.271 124.523C191.681 124.953 191.171 125.323 190.611 125.733C190.461 125.483 190.351 125.303 190.401 125.383C189.091 125.283 187.991 125.203 186.701 125.103C186.431 123.873 185.251 125.143 184.441 124.793C183.591 124.423 182.581 124.563 182.071 125.603C181.021 124.823 179.281 124.813 178.211 125.473C177.961 125.623 177.381 125.713 177.281 125.583C176.581 124.623 175.881 124.963 175.141 125.463C174.861 124.883 174.581 124.473 173.851 124.993C173.201 125.453 172.551 125.963 171.651 125.313C171.181 124.973 170.521 124.793 169.931 124.723C168.901 124.603 167.851 124.613 166.811 124.613C166.481 124.613 166.161 124.753 165.831 124.803C165.511 124.853 165.101 125.003 164.871 124.873C163.171 123.913 161.331 124.223 159.551 124.273C158.201 124.313 156.861 124.583 155.521 124.713C154.731 124.793 153.841 125.053 153.171 124.783C151.951 124.293 150.901 124.603 149.781 124.933C149.451 125.033 148.961 125.003 148.701 124.813C147.921 124.243 147.331 124.703 146.581 124.873C146.021 125.003 145.311 124.113 144.461 124.703C144.061 124.973 143.501 125.083 143.001 125.103C142.341 125.113 141.671 124.963 140.931 124.873C140.281 124.693 139.531 124.473 138.771 124.263C138.641 124.853 138.551 125.273 138.411 125.873C137.331 125.463 136.391 125.103 135.291 124.683C135.121 124.943 134.821 125.383 134.471 125.903C134.191 125.553 133.951 125.273 133.681 124.943C133.141 125.333 132.651 125.683 132.271 125.953C131.901 125.553 131.661 125.293 131.431 125.033C131.061 125.383 130.691 125.733 130.391 126.013C129.611 125.693 128.711 125.333 127.511 124.853C127.731 125.423 127.811 125.633 127.931 125.923C127.651 125.923 127.461 125.953 127.291 125.913C125.661 125.533 123.911 125.083 122.401 125.703C120.911 126.323 119.511 126.113 118.081 126.043C115.921 125.943 113.821 126.033 111.801 126.893C111.551 127.003 111.241 126.983 110.951 126.993C108.921 127.083 106.901 126.143 104.841 127.083C103.581 127.663 101.981 126.593 100.771 127.763C100.731 127.803 100.601 127.823 100.551 127.793C99.6215 127.123 98.9214 127.673 98.1614 128.433C97.9714 127.313 97.3115 127.333 96.5915 127.503C95.7815 127.693 94.8214 127.493 94.2914 128.443C94.2114 128.593 93.8115 128.633 93.5615 128.613C92.2915 128.553 91.0315 128.363 89.7615 128.393C88.9115 128.413 88.0615 128.723 87.2115 128.873C86.8015 128.943 86.3214 129.083 85.9814 128.933C84.3114 128.153 82.8615 129.503 81.1215 129.173Z" fill="#0CE5CA"/>
</svg>
