<svg width="370" height="265" viewBox="0 0 370 265" fill="none" xmlns="http://www.w3.org/2000/svg">
<path d="M157.251 57.1011C155.951 57.3011 155.151 56.1011 154.851 54.5011C154.651 52.9011 154.951 51.5011 156.251 51.3011C157.551 51.1011 158.351 52.3011 158.651 53.9011C158.951 55.5011 158.551 56.9011 157.251 57.1011ZM156.351 51.7011C155.451 51.8011 155.151 53.1011 155.351 54.4011C155.551 55.7011 156.151 56.8011 157.151 56.7011C158.051 56.6011 158.351 55.3011 158.151 54.0011C157.951 52.7011 157.351 51.6011 156.351 51.7011Z" fill="#0C8AE5"/>
<path d="M164.752 56.2004L164.452 51.3004C164.352 51.4004 164.052 51.5004 163.952 51.6004C163.852 51.6004 163.652 51.7004 163.452 51.7004L163.352 51.3004C163.552 51.3004 163.852 51.2004 164.052 51.0004C164.252 50.9004 164.352 50.7004 164.452 50.4004H164.852L165.152 56.1004L164.752 56.2004Z" fill="#0C8AE5"/>
<path d="M171.652 56.1008L171.852 51.2008C171.752 51.3008 171.452 51.4008 171.352 51.4008C171.252 51.4008 171.052 51.5008 170.852 51.5008L170.752 51.1008C170.952 51.1008 171.252 51.0008 171.452 50.9008C171.652 50.8008 171.852 50.6008 171.852 50.3008H172.252L172.052 56.0008L171.652 56.1008Z" fill="#0C8AE5"/>
<path d="M179.252 56.8003C177.952 56.6003 177.552 55.2003 177.752 53.6003C177.952 52.0003 178.752 50.8004 180.052 50.9004C181.352 51.1004 181.752 52.5003 181.552 54.1003C181.352 55.7003 180.552 57.0003 179.252 56.8003ZM180.052 51.4004C179.152 51.3004 178.552 52.4003 178.352 53.7003C178.152 55.0003 178.452 56.3004 179.352 56.4004C180.252 56.5004 180.852 55.4003 181.052 54.1003C181.252 52.8003 180.952 51.5004 180.052 51.4004Z" fill="#0C8AE5"/>
<path d="M186.752 58.2013C185.452 57.9013 185.252 56.4014 185.552 54.9014C185.952 53.4014 186.852 52.2014 188.052 52.5014C189.352 52.8014 189.552 54.3013 189.252 55.8013C188.952 57.3013 187.952 58.5013 186.752 58.2013ZM187.952 52.9014C187.052 52.7014 186.352 53.7014 186.052 55.0014C185.752 56.3014 185.852 57.6013 186.852 57.8013C187.752 58.0013 188.452 57.0013 188.752 55.7013C189.052 54.4013 188.852 53.1014 187.952 52.9014Z" fill="#0C8AE5"/>
<path d="M193.952 60.3C192.752 59.9 192.552 58.4 193.152 56.9C193.652 55.4 194.652 54.3 195.952 54.7C197.152 55.1 197.352 56.6 196.752 58.1C196.252 59.7 195.152 60.8 193.952 60.3ZM195.752 55.1C194.852 54.8 194.052 55.8 193.652 57C193.252 58.3 193.252 59.5 194.152 59.8C195.052 60.1 195.852 59.1 196.252 57.9C196.652 56.7 196.652 55.5 195.752 55.1Z" fill="#0C8AE5"/>
<path d="M200.951 63.1004L203.051 58.6004C202.851 58.6004 202.651 58.6004 202.551 58.6004C202.451 58.6004 202.251 58.6004 202.051 58.5004L202.151 58.1004C202.351 58.2004 202.651 58.2004 202.851 58.2004C203.051 58.2004 203.251 58.1004 203.451 57.9004L203.851 58.1004L201.451 63.3004L200.951 63.1004Z" fill="#0C8AE5"/>
<path d="M206.852 66.1016L209.252 61.8016C209.052 61.8016 208.852 61.8016 208.752 61.8016C208.652 61.8016 208.452 61.7016 208.252 61.7016L208.352 61.3016C208.552 61.4016 208.852 61.5016 209.052 61.4016C209.252 61.4016 209.552 61.3016 209.652 61.1016L210.052 61.3016L207.152 66.3016L206.852 66.1016Z" fill="#0C8AE5"/>
<path d="M213.251 70.3012C212.151 69.5012 212.451 68.1012 213.351 66.8012C214.251 65.5012 215.551 64.8012 216.651 65.5012C217.751 66.3012 217.451 67.7012 216.551 69.0012C215.651 70.3012 214.251 71.0012 213.251 70.3012ZM216.451 65.8012C215.651 65.3012 214.651 66.0012 213.851 67.1012C213.051 68.2012 212.751 69.4012 213.551 70.0012C214.351 70.5012 215.351 69.8012 216.151 68.7012C216.951 67.6012 217.151 66.4012 216.451 65.8012Z" fill="#0C8AE5"/>
<path d="M218.951 74.7004L222.151 71.0004C221.951 71.0004 221.751 70.9004 221.651 70.9004C221.551 70.9004 221.351 70.8004 221.251 70.7004L221.451 70.4004C221.551 70.5004 221.851 70.6004 222.151 70.7004C222.351 70.7004 222.651 70.7004 222.851 70.5004L223.151 70.8004L219.351 75.1004L218.951 74.7004Z" fill="#0C8AE5"/>
<path d="M224.052 79.5008L227.552 76.1008C227.352 76.1008 227.152 76.0008 227.052 75.9008C226.952 75.9008 226.752 75.8008 226.652 75.6008L226.852 75.3008C226.952 75.4008 227.252 75.6008 227.452 75.6008C227.652 75.7008 227.952 75.7008 228.152 75.5008L228.452 75.8008L224.352 79.8008L224.052 79.5008Z" fill="#0C8AE5"/>
<path d="M228.651 84.8004L232.451 81.7004C232.251 81.7004 232.051 81.5004 231.951 81.5004C231.851 81.5004 231.751 81.3004 231.551 81.2004L231.851 80.9004C231.951 81.0004 232.251 81.2004 232.451 81.3004C232.651 81.4004 232.951 81.4004 233.151 81.3004L233.451 81.6004L228.951 85.2004L228.651 84.8004Z" fill="#0C8AE5"/>
<path d="M232.952 90.9011C232.252 89.8011 233.052 88.5011 234.352 87.7011C235.652 86.8011 237.152 86.6011 237.852 87.7011C238.552 88.8011 237.752 90.1011 236.452 90.9011C235.152 91.8011 233.652 92.0011 232.952 90.9011ZM237.552 88.0011C237.052 87.2011 235.852 87.5011 234.652 88.2011C233.552 88.9011 232.752 89.9011 233.252 90.7011C233.752 91.5011 234.952 91.2011 236.152 90.5011C237.352 89.8011 238.052 88.8011 237.552 88.0011Z" fill="#0C8AE5"/>
<path d="M236.751 97.5014C236.151 96.3014 237.051 95.2014 238.451 94.5014C239.851 93.8014 241.351 93.7014 241.951 94.9014C242.551 96.1014 241.651 97.2014 240.251 97.9014C238.851 98.6014 237.351 98.6014 236.751 97.5014ZM241.651 95.0014C241.251 94.2014 239.951 94.3014 238.751 94.9014C237.551 95.5014 236.751 96.4014 237.151 97.3014C237.551 98.2014 238.851 98.0014 240.051 97.4014C241.151 96.8014 242.051 95.8014 241.651 95.0014Z" fill="#0C8AE5"/>
<path d="M239.951 104.402L244.551 102.602C244.451 102.502 244.251 102.302 244.151 102.202C244.051 102.102 243.951 102.002 243.851 101.802L244.151 101.602C244.251 101.802 244.451 102.002 244.651 102.102C244.851 102.202 245.051 102.302 245.351 102.302L245.551 102.702L240.251 104.802L239.951 104.402Z" fill="#0C8AE5"/>
<path d="M242.252 111.601C241.852 110.301 243.052 109.401 244.552 109.001C246.052 108.601 247.552 108.801 247.852 110.101C248.252 111.401 247.052 112.301 245.552 112.701C244.052 113.001 242.652 112.801 242.252 111.601ZM247.552 110.101C247.252 109.201 246.052 109.101 244.752 109.501C243.452 109.901 242.452 110.601 242.652 111.501C242.952 112.401 244.152 112.501 245.452 112.101C246.752 111.701 247.752 111.001 247.552 110.101Z" fill="#0C8AE5"/>
<path d="M243.951 118.901C243.751 117.601 244.952 116.801 246.552 116.501C248.152 116.201 249.552 116.601 249.752 117.901C249.952 119.201 248.752 120.001 247.152 120.301C245.552 120.601 244.151 120.201 243.951 118.901ZM249.352 118.001C249.152 117.101 247.952 116.801 246.652 117.101C245.352 117.301 244.252 117.901 244.352 118.901C244.552 119.801 245.752 120.101 247.052 119.801C248.352 119.601 249.452 118.901 249.352 118.001Z" fill="#0C8AE5"/>
<path d="M244.951 126.4L249.851 126C249.751 125.9 249.651 125.6 249.551 125.5C249.551 125.4 249.451 125.2 249.351 125L249.751 124.9C249.751 125.1 249.851 125.4 250.051 125.6C250.151 125.8 250.351 125.9 250.651 126V126.4L244.951 126.8V126.4Z" fill="#0C8AE5"/>
<path d="M245.151 133.4L250.051 133.5C249.951 133.4 249.851 133.1 249.851 133C249.851 132.9 249.751 132.7 249.751 132.5L250.151 132.4C250.151 132.6 250.251 132.9 250.351 133.1C250.451 133.3 250.651 133.5 250.951 133.5V133.9L245.251 133.8L245.151 133.4Z" fill="#0C8AE5"/>
<path d="M244.551 141.001C244.751 139.701 246.151 139.301 247.651 139.401C249.251 139.601 250.551 140.401 250.351 141.601C250.151 142.901 248.751 143.301 247.251 143.201C245.751 143.101 244.451 142.301 244.551 141.001ZM250.051 141.601C250.151 140.701 249.051 140.101 247.751 139.901C246.451 139.701 245.151 140.001 245.051 141.001C244.951 141.901 246.051 142.501 247.351 142.701C248.651 142.901 249.851 142.601 250.051 141.601Z" fill="#0C8AE5"/>
<path d="M243.352 148.4C243.652 147.1 245.052 146.8 246.652 147.2C248.152 147.5 249.352 148.4 249.152 149.7C248.852 151 247.452 151.3 245.852 150.9C244.252 150.6 243.052 149.7 243.352 148.4ZM248.652 149.6C248.852 148.7 247.752 148 246.452 147.7C245.152 147.4 243.852 147.6 243.652 148.5C243.452 149.4 244.552 150.1 245.852 150.4C247.252 150.7 248.452 150.5 248.652 149.6Z" fill="#0C8AE5"/>
<path d="M241.351 155.701L246.051 157.201C245.951 157.001 245.951 156.801 245.951 156.701C245.951 156.601 245.951 156.401 245.951 156.201L246.351 156.301C246.351 156.501 246.251 156.801 246.351 157.001C246.351 157.201 246.551 157.401 246.751 157.601L246.651 158.001L241.151 156.201L241.351 155.701Z" fill="#0C8AE5"/>
<path d="M238.552 162.801C239.052 161.601 240.552 161.601 242.052 162.201C243.452 162.801 244.451 164.001 243.951 165.101C243.451 166.301 241.951 166.301 240.451 165.701C239.051 165.101 238.052 164.001 238.552 162.801ZM243.652 165.001C244.052 164.101 243.151 163.301 241.951 162.701C240.751 162.201 239.452 162.101 239.052 162.901C238.652 163.801 239.552 164.601 240.752 165.201C241.952 165.801 243.252 165.901 243.652 165.001Z" fill="#0C8AE5"/>
<path d="M235.252 169.602L239.552 172.002C239.552 171.802 239.552 171.602 239.552 171.502C239.552 171.402 239.652 171.202 239.652 171.002L240.052 171.102C239.952 171.302 239.852 171.602 239.952 171.802C239.952 172.002 240.052 172.302 240.252 172.402L240.052 172.802L235.052 170.002L235.252 169.602Z" fill="#0C8AE5"/>
<path d="M231.152 175.901C231.952 174.801 233.352 175.101 234.652 176.001C235.952 176.901 236.652 178.201 235.952 179.301C235.152 180.401 233.752 180.101 232.452 179.201C231.152 178.301 230.352 177.001 231.152 175.901ZM235.552 179.101C236.052 178.301 235.352 177.301 234.252 176.501C233.152 175.701 231.952 175.401 231.352 176.201C230.852 177.001 231.552 178.001 232.652 178.801C233.852 179.501 235.052 179.901 235.552 179.101Z" fill="#0C8AE5"/>
<path d="M226.551 181.9L230.251 185.1C230.251 184.9 230.351 184.7 230.351 184.6C230.351 184.5 230.451 184.3 230.551 184.2L230.851 184.4C230.751 184.5 230.651 184.8 230.551 185.1C230.551 185.3 230.551 185.6 230.751 185.8L230.451 186.1L226.151 182.3L226.551 181.9Z" fill="#0C8AE5"/>
<path d="M221.751 187L225.151 190.5C225.151 190.3 225.251 190.1 225.351 190C225.351 189.9 225.451 189.7 225.651 189.6L225.951 189.8C225.851 189.9 225.651 190.2 225.651 190.4C225.551 190.6 225.551 190.9 225.751 191.1L225.451 191.4L221.451 187.3L221.751 187Z" fill="#0C8AE5"/>
<path d="M215.952 191.901C216.952 191.101 218.352 191.801 219.252 193.001C220.252 194.201 220.552 195.701 219.552 196.501C218.552 197.301 217.152 196.601 216.252 195.401C215.252 194.201 214.952 192.701 215.952 191.901ZM219.352 196.201C220.052 195.601 219.752 194.401 218.852 193.401C218.052 192.401 216.952 191.701 216.252 192.301C215.552 192.901 215.852 194.101 216.752 195.101C217.452 196.101 218.552 196.801 219.352 196.201Z" fill="#0C8AE5"/>
<path d="M209.752 196.301C210.852 195.601 212.152 196.401 212.952 197.801C213.752 199.101 214.052 200.601 212.952 201.301C211.852 202.001 210.552 201.201 209.752 199.801C208.852 198.401 208.652 197.001 209.752 196.301ZM212.652 200.901C213.452 200.401 213.152 199.201 212.452 198.001C211.752 196.901 210.752 196.101 209.952 196.601C209.152 197.101 209.452 198.301 210.152 199.501C210.852 200.601 211.852 201.401 212.652 200.901Z" fill="#0C8AE5"/>
<path d="M203.152 200C204.352 199.4 205.452 200.4 206.152 201.8C206.852 203.2 206.952 204.7 205.752 205.3C204.552 205.9 203.452 204.9 202.752 203.5C202.052 202.1 202.052 200.6 203.152 200ZM205.652 204.9C206.452 204.5 206.352 203.2 205.752 202C205.152 200.8 204.252 199.9 203.352 200.4C202.552 200.8 202.652 202.1 203.252 203.3C203.852 204.4 204.752 205.3 205.652 204.9Z" fill="#0C8AE5"/>
<path d="M196.251 203.001C197.451 202.501 198.551 203.601 199.051 205.101C199.651 206.601 199.551 208.101 198.351 208.501C197.151 209.001 196.051 207.901 195.551 206.401C194.951 205.001 195.051 203.501 196.251 203.001ZM198.251 208.101C199.151 207.801 199.151 206.501 198.651 205.301C198.151 204.101 197.351 203.101 196.451 203.401C195.551 203.701 195.551 205.001 196.051 206.201C196.551 207.501 197.351 208.501 198.251 208.101Z" fill="#0C8AE5"/>
<path d="M189.151 205.4L190.451 210.1C190.551 210 190.751 209.8 190.851 209.8C190.951 209.8 191.151 209.6 191.251 209.6L191.451 210C191.251 210.1 191.051 210.2 190.851 210.4C190.751 210.6 190.551 210.8 190.551 211.1L190.151 211.2L188.651 205.7L189.151 205.4Z" fill="#0C8AE5"/>
<path d="M181.652 207C182.952 206.8 183.752 208 184.052 209.6C184.352 211.2 183.952 212.6 182.652 212.8C181.352 213 180.552 211.8 180.252 210.2C180.052 208.6 180.352 207.2 181.652 207ZM182.552 212.4C183.452 212.2 183.752 211 183.452 209.7C183.252 208.4 182.652 207.3 181.652 207.4C180.752 207.6 180.452 208.8 180.752 210.1C181.052 211.4 181.652 212.5 182.552 212.4Z" fill="#0C8AE5"/>
<path d="M174.151 207.9L174.451 212.8C174.551 212.7 174.851 212.6 174.951 212.5C175.051 212.5 175.251 212.4 175.451 212.4L175.551 212.8C175.351 212.8 175.051 212.9 174.851 213.1C174.651 213.2 174.551 213.4 174.451 213.7H174.051L173.651 208L174.151 207.9Z" fill="#0C8AE5"/>
<path d="M167.252 208.102L167.152 213.002C167.252 212.902 167.552 212.802 167.652 212.802C167.752 212.802 167.952 212.702 168.152 212.702L168.252 213.102C168.052 213.102 167.752 213.202 167.552 213.302C167.352 213.402 167.152 213.602 167.152 213.902H166.752L166.852 208.202L167.252 208.102Z" fill="#0C8AE5"/>
<path d="M160.252 207.6L159.652 212.5C159.752 212.4 160.052 212.4 160.152 212.3C160.252 212.3 160.452 212.2 160.652 212.2V212.6C160.452 212.6 160.152 212.6 159.952 212.7C159.752 212.8 159.552 212.9 159.452 213.2L159.052 213.1L159.752 207.4L160.252 207.6Z" fill="#0C8AE5"/>
<path d="M152.752 206.202C154.052 206.502 154.352 208.002 153.952 209.502C153.652 211.002 152.752 212.202 151.452 212.002C150.152 211.702 149.852 210.202 150.252 208.702C150.552 207.202 151.452 205.902 152.752 206.202ZM151.552 211.602C152.452 211.802 153.152 210.702 153.452 209.402C153.752 208.102 153.552 206.802 152.652 206.602C151.752 206.402 151.052 207.502 150.752 208.802C150.452 210.102 150.652 211.402 151.552 211.602Z" fill="#0C8AE5"/>
<path d="M145.451 204.302L143.951 209.002C144.151 208.902 144.351 208.902 144.451 208.902C144.551 208.902 144.751 208.902 144.951 208.902L144.851 209.302C144.651 209.302 144.351 209.202 144.151 209.302C143.951 209.302 143.751 209.502 143.551 209.702L143.151 209.602L144.951 204.102L145.451 204.302Z" fill="#0C8AE5"/>
<path d="M138.352 201.502C139.552 202.002 139.552 203.502 138.952 205.002C138.352 206.402 137.152 207.402 136.052 206.902C134.852 206.402 134.852 204.902 135.452 203.402C136.052 202.002 137.252 201.002 138.352 201.502ZM136.152 206.502C137.052 206.902 137.852 206.002 138.452 204.802C138.952 203.602 139.052 202.302 138.252 201.902C137.352 201.502 136.552 202.402 135.952 203.602C135.352 204.802 135.352 206.102 136.152 206.502Z" fill="#0C8AE5"/>
<path d="M131.651 198.1C132.751 198.7 132.651 200.2 131.851 201.6C131.051 203 129.851 203.9 128.751 203.2C127.651 202.6 127.751 201.1 128.551 199.7C129.351 198.3 130.551 197.5 131.651 198.1ZM128.951 202.9C129.751 203.4 130.751 202.5 131.351 201.4C132.051 200.2 132.251 199 131.351 198.5C130.551 198 129.551 198.9 128.951 200C128.351 201.1 128.151 202.4 128.951 202.9Z" fill="#0C8AE5"/>
<path d="M125.252 194.001C126.352 194.801 126.052 196.201 125.152 197.501C124.252 198.801 122.952 199.501 121.852 198.801C120.752 198.001 121.052 196.601 121.952 195.301C122.852 194.001 124.252 193.301 125.252 194.001ZM122.152 198.501C122.952 199.001 123.952 198.301 124.752 197.201C125.552 196.101 125.852 194.901 125.052 194.301C124.252 193.801 123.252 194.501 122.452 195.601C121.652 196.701 121.352 198.001 122.152 198.501Z" fill="#0C8AE5"/>
<path d="M119.252 189.4L116.052 193.1C116.252 193.1 116.452 193.2 116.552 193.2C116.652 193.2 116.852 193.3 116.952 193.4L116.752 193.7C116.652 193.6 116.352 193.5 116.052 193.4C115.852 193.4 115.552 193.4 115.352 193.6L115.052 193.3L118.852 189L119.252 189.4Z" fill="#0C8AE5"/>
<path d="M114.252 184.601L110.752 188.001C110.952 188.001 111.152 188.101 111.252 188.201C111.352 188.201 111.552 188.301 111.652 188.501L111.352 188.801C111.252 188.701 110.952 188.501 110.752 188.501C110.552 188.401 110.252 188.401 110.052 188.601L109.752 188.301L113.852 184.301L114.252 184.601Z" fill="#0C8AE5"/>
<path d="M109.351 178.801C110.151 179.801 109.451 181.201 108.251 182.101C107.051 183.101 105.551 183.401 104.751 182.401C103.951 181.401 104.651 180.001 105.851 179.101C107.051 178.201 108.551 177.801 109.351 178.801ZM104.951 182.201C105.551 182.901 106.751 182.601 107.751 181.701C108.751 180.901 109.451 179.801 108.851 179.101C108.251 178.401 107.051 178.701 106.051 179.601C105.051 180.401 104.451 181.401 104.951 182.201Z" fill="#0C8AE5"/>
<path d="M104.851 172.702L100.751 175.302C100.951 175.402 101.151 175.502 101.151 175.602C101.251 175.702 101.351 175.802 101.451 175.902L101.151 176.202C101.051 176.102 100.751 175.802 100.551 175.702C100.351 175.602 100.151 175.502 99.8514 175.602L99.6514 175.202L104.551 172.102L104.851 172.702Z" fill="#0C8AE5"/>
<path d="M101.251 166.101C101.851 167.301 100.851 168.401 99.4511 169.101C98.0511 169.801 96.5511 169.901 95.9511 168.701C95.3511 167.501 96.3511 166.401 97.7511 165.701C99.1511 165.001 100.651 164.901 101.251 166.101ZM96.3511 168.501C96.7511 169.301 98.0511 169.201 99.2511 168.601C100.451 168.001 101.351 167.101 100.851 166.201C100.451 165.401 99.1511 165.501 97.9511 166.101C96.7511 166.701 95.9511 167.701 96.3511 168.501Z" fill="#0C8AE5"/>
<path d="M98.2511 159.101C98.7511 160.301 97.6511 161.401 96.1511 161.901C94.6511 162.501 93.1511 162.401 92.7511 161.201C92.2511 160.001 93.3511 158.901 94.8511 158.401C96.3511 157.901 97.7511 157.901 98.2511 159.101ZM93.0511 161.101C93.3511 162.001 94.6511 162.001 95.8511 161.501C97.0511 161.001 98.0511 160.201 97.7511 159.301C97.4511 158.401 96.1511 158.401 94.9511 158.901C93.7511 159.401 92.7511 160.201 93.0511 161.101Z" fill="#0C8AE5"/>
<path d="M95.8517 152L91.1517 153.3C91.2517 153.4 91.4517 153.6 91.4517 153.7C91.4517 153.8 91.6517 154 91.6517 154.1L91.2518 154.3C91.1518 154.1 91.0517 153.8 90.8517 153.7C90.6517 153.6 90.4517 153.4 90.1517 153.4L90.0518 153L95.5518 151.5L95.8517 152Z" fill="#0C8AE5"/>
<path d="M94.2515 144.6C94.4515 145.9 93.2515 146.7 91.6515 147C90.0515 147.3 88.6515 146.9 88.4515 145.6C88.2515 144.3 89.4515 143.5 91.0515 143.2C92.6515 142.9 94.0515 143.3 94.2515 144.6ZM88.8515 145.5C89.0515 146.4 90.2515 146.7 91.5515 146.4C92.8515 146.2 93.9515 145.6 93.8515 144.6C93.6515 143.7 92.4515 143.4 91.1515 143.7C89.8515 143.9 88.7515 144.5 88.8515 145.5Z" fill="#0C8AE5"/>
<path d="M93.3517 137.102L88.4517 137.402C88.5517 137.502 88.6518 137.802 88.7518 137.902C88.7518 138.002 88.8517 138.202 88.8517 138.402L88.4517 138.502C88.4517 138.302 88.3517 138.002 88.1517 137.802C88.0517 137.602 87.8518 137.502 87.5518 137.402V137.002L93.2518 136.602L93.3517 137.102Z" fill="#0C8AE5"/>
<path d="M93.1516 130.102L88.2516 130.002C88.3516 130.102 88.4515 130.402 88.4515 130.502C88.4515 130.602 88.5516 130.802 88.5516 131.002L88.1516 131.102C88.1516 130.902 88.0515 130.602 87.9515 130.402C87.8515 130.202 87.6516 130.002 87.3516 130.002V129.602L93.0516 129.802L93.1516 130.102Z" fill="#0C8AE5"/>
<path d="M93.6517 123.1L88.7518 122.5C88.8518 122.6 88.8517 122.9 88.9517 123C88.9517 123.1 89.0518 123.3 89.0518 123.5H88.6517C88.6517 123.3 88.6518 123 88.5518 122.8C88.4518 122.6 88.3518 122.4 88.0518 122.3L88.1517 121.9L93.8517 122.6L93.6517 123.1Z" fill="#0C8AE5"/>
<path d="M95.0513 115.601C94.7513 116.901 93.2513 117.201 91.7513 116.801C90.2513 116.501 89.0513 115.601 89.2513 114.301C89.4513 113.001 91.0513 112.701 92.5513 113.101C94.0513 113.501 95.3513 114.401 95.0513 115.601ZM89.6513 114.401C89.4513 115.301 90.5513 116.001 91.8513 116.301C93.1513 116.601 94.4513 116.401 94.6513 115.501C94.8513 114.601 93.7513 113.901 92.4513 113.601C91.1513 113.401 89.8513 113.501 89.6513 114.401Z" fill="#0C8AE5"/>
<path d="M96.9517 108.3L92.2518 106.8C92.3518 107 92.3517 107.2 92.3517 107.3C92.3517 107.4 92.3517 107.6 92.3517 107.8L91.9517 107.7C91.9517 107.5 92.0517 107.2 91.9517 107C91.9517 106.8 91.7518 106.6 91.5518 106.4L91.6517 106L97.1517 107.8L96.9517 108.3Z" fill="#0C8AE5"/>
<path d="M99.4514 101.8L94.9514 99.8C94.9514 100 94.9514 100.2 94.9514 100.3C94.9514 100.4 94.9514 100.6 94.8514 100.8L94.4514 100.7C94.5514 100.5 94.5514 100.2 94.5514 100C94.5514 99.8 94.4514 99.6 94.1514 99.4L94.3514 99L99.6514 101.3L99.4514 101.8Z" fill="#0C8AE5"/>
<path d="M102.852 95.0001C102.252 96.1001 100.752 96.0001 99.3515 95.2001C97.9515 94.4001 97.0515 93.2001 97.7515 92.1001C98.3515 91.0001 99.8515 91.1001 101.252 91.9001C102.652 92.7001 103.552 93.9001 102.852 95.0001ZM98.1515 92.4001C97.6515 93.2001 98.5515 94.2001 99.6515 94.8001C100.851 95.5001 102.052 95.7001 102.552 94.8001C103.052 94.0001 102.152 93.0001 101.052 92.4001C99.8515 91.7001 98.5515 91.5001 98.1515 92.4001Z" fill="#0C8AE5"/>
<path d="M106.851 88.6015C106.151 89.7015 104.651 89.4016 103.351 88.5016C102.051 87.6016 101.251 86.3015 102.051 85.2015C102.751 84.1015 104.251 84.4015 105.551 85.3015C106.851 86.3015 107.651 87.6015 106.851 88.6015ZM102.451 85.5016C101.951 86.3016 102.651 87.3015 103.751 88.1015C104.851 88.9015 106.051 89.2016 106.651 88.4016C107.151 87.6016 106.451 86.6015 105.351 85.8015C104.151 85.1015 102.951 84.7016 102.451 85.5016Z" fill="#0C8AE5"/>
<path d="M111.451 82.6004L107.751 79.4004C107.751 79.6004 107.651 79.8004 107.651 79.9004C107.651 80.0004 107.551 80.2004 107.451 80.3004L107.151 80.1004C107.251 80.0004 107.351 79.7004 107.451 79.4004C107.451 79.2004 107.451 78.9004 107.251 78.7004L107.551 78.4004L111.951 82.1004L111.451 82.6004Z" fill="#0C8AE5"/>
<path d="M116.252 77.5016L112.852 74.0016C112.852 74.2016 112.752 74.4016 112.652 74.5016C112.652 74.6016 112.552 74.8016 112.352 74.9016L112.052 74.7016C112.152 74.6016 112.352 74.3016 112.352 74.1016C112.452 73.9016 112.452 73.6016 112.252 73.4016L112.552 73.1016L116.552 77.2016L116.252 77.5016Z" fill="#0C8AE5"/>
<path d="M122.052 72.6002C121.052 73.4002 119.652 72.7003 118.752 71.5003C117.752 70.3003 117.452 68.8003 118.452 68.0003C119.452 67.2003 120.852 67.9002 121.752 69.1002C122.652 70.3002 123.052 71.7002 122.052 72.6002ZM118.652 68.3003C117.952 68.9003 118.352 70.1002 119.152 71.1002C119.952 72.1002 121.052 72.8003 121.752 72.2003C122.452 71.6003 122.052 70.4003 121.252 69.4003C120.452 68.3003 119.352 67.7003 118.652 68.3003Z" fill="#0C8AE5"/>
<path d="M128.151 68.2005C127.051 68.9005 125.751 68.1005 124.951 66.8005C124.051 65.5005 123.851 64.0005 124.951 63.3005C126.051 62.6005 127.351 63.4005 128.151 64.7005C129.051 66.0005 129.251 67.5005 128.151 68.2005ZM125.151 63.6005C124.351 64.1005 124.651 65.3005 125.351 66.5005C126.051 67.6005 127.051 68.4005 127.851 67.9005C128.651 67.4005 128.351 66.2005 127.651 65.0005C126.951 63.8005 125.951 63.1005 125.151 63.6005Z" fill="#0C8AE5"/>
<path d="M134.652 64.3004L132.452 59.9004C132.352 60.1004 132.152 60.3004 132.152 60.3004C132.052 60.4004 131.952 60.5004 131.752 60.6004L131.552 60.3004C131.752 60.2004 131.952 60.0004 132.052 59.8004C132.152 59.6004 132.252 59.4004 132.152 59.1004L132.552 58.9004L135.152 64.0004L134.652 64.3004Z" fill="#0C8AE5"/>
<path d="M141.651 61.3C140.451 61.8 139.351 60.6999 138.751 59.1999C138.151 57.6999 138.251 56.2 139.451 55.8C140.651 55.3 141.751 56.4 142.351 57.9C142.951 59.4 142.851 60.8 141.651 61.3ZM139.651 56.2C138.751 56.5 138.751 57.8 139.251 59C139.751 60.2 140.551 61.2 141.451 60.9C142.351 60.6 142.351 59.2999 141.851 58.0999C141.351 56.7999 140.551 55.9 139.651 56.2Z" fill="#0C8AE5"/>
<path d="M148.751 58.9016L147.451 54.2016C147.351 54.3016 147.151 54.5016 147.051 54.5016C146.951 54.5016 146.751 54.7016 146.651 54.7016L146.451 54.3016C146.651 54.2016 146.851 54.1016 147.051 53.9016C147.151 53.7016 147.351 53.5016 147.351 53.2016L147.751 53.1016L149.251 58.6016L148.751 58.9016Z" fill="#0C8AE5"/>
<path d="M129.851 236.5L125.651 234.9L126.551 221.4L130.351 222.9L129.351 231.9L134.751 224.6L138.251 226L129.851 236.5Z" fill="#0C8AE5"/>
<path d="M144.552 240.899L144.452 238.799L140.552 237.799L139.552 239.599L135.852 238.699L142.952 227.199L147.552 228.299L148.552 241.799L144.552 240.899ZM144.152 231.299L142.052 235.099L144.352 235.699L144.152 231.299Z" fill="#0C8AE5"/>
<path d="M160.152 243.2L156.752 235.5L156.052 242.8L152.352 242.4L153.552 229.6L157.552 230L160.752 237.2L161.452 230.3L165.152 230.7L163.952 243.5L160.152 243.2Z" fill="#0C8AE5"/>
<path d="M179.851 241.299C179.851 241.299 178.551 243.399 175.051 243.599C171.551 243.799 168.451 241.699 168.251 237.199C168.051 232.699 171.251 230.399 174.551 230.299C177.851 230.099 179.451 232.099 179.451 232.099L177.751 234.799C177.751 234.799 176.651 233.499 174.951 233.599C173.251 233.699 172.051 234.999 172.151 236.999C172.251 238.999 173.551 240.199 175.251 240.099C176.951 239.999 177.951 238.699 177.951 238.699L179.851 241.299Z" fill="#0C8AE5"/>
<path d="M190.051 241.699C186.051 242.499 183.151 240.499 182.251 236.499C181.451 232.499 183.351 229.499 187.351 228.699C191.351 227.899 194.251 229.899 195.151 233.899C195.951 237.899 194.051 240.899 190.051 241.699ZM188.051 231.799C186.251 232.199 185.751 233.799 186.151 235.699C186.551 237.599 187.651 238.899 189.451 238.599C191.251 238.199 191.751 236.599 191.351 234.699C190.851 232.699 189.851 231.399 188.051 231.799Z" fill="#0C8AE5"/>
<path d="M203.552 224.499L207.252 223.199L209.852 230.499C210.452 232.299 210.452 233.499 209.852 234.699C209.252 235.899 208.152 236.699 206.252 237.399C204.352 238.099 202.952 238.099 201.752 237.499C200.552 236.899 199.752 235.999 199.152 234.199L196.552 226.899L200.252 225.599L202.852 233.099C203.052 233.799 203.352 234.099 203.752 234.199C204.152 234.399 204.752 234.299 205.152 234.099C205.552 233.999 206.052 233.699 206.252 233.299C206.452 232.899 206.452 232.499 206.252 231.799L203.552 224.499Z" fill="#0C8AE5"/>
<path d="M222.751 229.899L218.751 231.999L209.251 222.399L212.851 220.499L218.951 227.199L217.051 218.399L220.451 216.699L222.751 229.899Z" fill="#0C8AE5"/>
<path d="M229.752 225.8L222.352 215.2L229.852 210L231.552 212.5L227.252 215.5L228.252 217L232.252 214.2L233.952 216.7L229.952 219.5L231.052 221.1L235.452 218L237.252 220.5L229.752 225.8Z" fill="#0C8AE5"/>
<path d="M246.251 212.8L241.551 211.1L240.851 211.8L243.851 215.1L240.951 217.7L232.251 208.2L236.351 204.5C237.351 203.5 238.451 202.8 239.551 202.7C240.651 202.6 241.851 202.9 242.951 204C243.951 205.1 244.551 206.5 243.751 208.2L249.451 210L246.251 212.8ZM238.251 206.6L237.151 207.6L238.951 209.6L240.051 208.6C240.751 208 240.851 207.2 240.251 206.6C239.651 205.9 238.851 206 238.251 206.6Z" fill="#0C8AE5"/>
<path d="M72.4515 109.3L66.8516 108.1L65.9515 112.4L71.5516 113.6L70.6516 117.9L56.3516 114.9L57.2516 110.6L62.5516 111.7L63.4515 107.4L58.1516 106.3L59.0516 102L73.3516 105L72.4515 109.3Z" fill="#0C8AE5"/>
<path d="M77.8519 92.8004L75.4519 92.5004L73.752 96.8004L75.6519 98.2004L74.0519 102.2L62.252 92.4004L64.252 87.4004L79.5519 88.4004L77.8519 92.8004ZM67.0519 91.7004L70.9519 94.7004L71.9519 92.2004L67.0519 91.7004Z" fill="#0C8AE5"/>
<path d="M85.4515 78.5992L75.9515 78.1992L83.0516 82.4992L80.8516 86.0992L68.3516 78.4992L70.6516 74.5992L79.5516 74.8992L72.8516 70.7992L75.0516 67.1992L87.5516 74.7992L85.4515 78.5992Z" fill="#0C8AE5"/>
<path d="M96.2514 61.9999C96.2514 63.7999 95.3514 65.4999 93.7514 67.2999L90.1514 71.3999L79.1514 61.7999L82.7514 57.6999C84.3514 55.8999 85.9514 54.7999 87.7514 54.4999C89.5514 54.1999 91.5514 54.6999 93.5514 56.3999C95.6514 58.1999 96.3514 60.1999 96.2514 61.9999ZM87.7514 58.5999C86.9514 58.6999 86.1514 59.0999 85.3514 59.9999L84.7514 60.6999L90.5514 65.7999L91.1514 65.0999C91.9514 64.0999 92.3514 63.2999 92.2514 62.4999C92.1514 61.6999 91.7514 60.7999 90.6514 59.7999C89.5514 58.7999 88.5514 58.4999 87.7514 58.5999Z" fill="#0C8AE5"/>
<path d="M97.9515 47.4988L99.6516 49.4988L103.652 46.1988L105.852 48.8988L101.852 52.1988L105.152 56.0988L101.752 58.8988L92.3516 47.6988L100.052 41.2988L102.252 43.8988L97.9515 47.4988Z" fill="#0C8AE5"/>
<path d="M118.152 47.0989C114.252 49.4989 110.252 48.4989 107.852 44.4989C105.452 40.4989 106.452 36.5989 110.352 34.1989C114.252 31.7989 118.252 32.7989 120.652 36.7989C123.052 40.7989 122.052 44.6989 118.152 47.0989ZM112.252 37.2989C110.452 38.3989 110.552 40.2989 111.752 42.1989C112.852 44.0989 114.552 45.0989 116.352 43.9989C118.152 42.8989 118.052 40.9989 116.852 39.0989C115.652 37.1989 114.052 36.1989 112.252 37.2989Z" fill="#0C8AE5"/>
<path d="M135.252 38.6997L130.952 34.9997L129.952 35.3997L131.752 40.0997L127.652 41.6997L122.352 28.0997L128.252 25.7997C129.752 25.1997 131.152 24.8997 132.352 25.1997C133.552 25.4997 134.752 26.3997 135.352 27.9997C135.952 29.5997 135.952 31.2997 134.552 32.7997L139.852 36.9997L135.252 38.6997ZM129.152 28.8997L127.652 29.4997L128.752 32.3997L130.252 31.7997C131.152 31.3997 131.652 30.6997 131.352 29.6997C131.052 28.7997 130.152 28.4997 129.152 28.8997Z" fill="#0C8AE5"/>
<path d="M153.152 32.2994C152.052 33.6994 150.352 34.5993 147.952 35.0993L142.552 36.1994L139.552 21.8994L144.952 20.7994C147.352 20.2994 149.252 20.3994 150.852 21.2994C152.452 22.0994 153.852 23.6994 154.352 26.2994C154.952 28.8994 154.252 30.8994 153.152 32.2994ZM148.352 24.3994C147.652 23.9994 146.752 23.7993 145.552 24.0993L144.652 24.2994L146.252 31.7994L147.152 31.5993C148.352 31.2993 149.152 30.8994 149.652 30.1994C150.052 29.4994 150.352 28.5993 150.052 27.0993C149.652 25.5993 149.052 24.8994 148.352 24.3994Z" fill="#0C8AE5"/>
<path d="M177.551 30.7995C177.551 30.7995 175.951 33.0995 171.951 32.9995C167.951 32.8995 164.651 30.3995 164.651 25.2995C164.751 20.1995 168.451 17.7995 172.251 17.8995C176.051 17.9995 177.651 20.2995 177.651 20.2995L175.551 23.2995C175.551 23.2995 174.351 21.6995 172.451 21.6995C170.451 21.6995 169.051 22.9995 169.051 25.2995C169.051 27.5995 170.351 28.9995 172.351 28.9995C174.351 28.9995 175.551 27.5995 175.551 27.5995L177.551 30.7995Z" fill="#0C8AE5"/>
<path d="M188.651 34.5988L186.951 29.1988L185.851 28.9988L184.951 33.9988L180.651 33.1988L183.151 18.7988L189.351 19.8988C190.951 20.1988 192.351 20.5988 193.251 21.4988C194.151 22.3988 194.751 23.6988 194.451 25.3988C194.151 27.0988 193.351 28.4988 191.251 29.0988L193.551 35.3988L188.651 34.5988ZM188.551 23.0988L186.951 22.7988L186.451 25.7988L188.051 26.0988C189.051 26.2988 189.851 25.8988 190.051 24.8988C190.151 23.9988 189.551 23.2988 188.551 23.0988Z" fill="#0C8AE5"/>
<path d="M196.352 36.3996L201.052 22.5996L210.852 25.8996L209.752 29.0996L204.152 27.1996L203.452 29.0996L208.652 30.8996L207.552 34.1996L202.352 32.3996L201.652 34.4996L207.452 36.4996L206.352 39.7996L196.352 36.3996Z" fill="#0C8AE5"/>
<path d="M217.451 45.1992L217.951 42.8992L213.851 40.7992L212.251 42.4992L208.451 40.4992L219.351 29.6992L224.151 32.1992L221.551 47.2992L217.451 45.1992ZM219.651 34.5992L216.251 38.1992L218.651 39.3992L219.651 34.5992Z" fill="#0C8AE5"/>
<path d="M235.051 43.2988L228.551 52.3988L224.951 49.8988L231.451 40.7988L228.451 38.5988L230.451 35.7988L240.151 42.6988L238.151 45.4988L235.051 43.2988Z" fill="#0C8AE5"/>
<path d="M234.052 56.8004L243.852 45.9004L247.152 48.8004L237.352 59.7004L234.052 56.8004Z" fill="#0C8AE5"/>
<path d="M246.052 69.0988L242.752 65.2988L250.752 52.2988L253.752 55.7988L248.052 64.2988L257.252 59.8988L260.052 63.0988L246.052 69.0988Z" fill="#0C8AE5"/>
<path d="M250.752 75.0988L263.152 67.2988L268.652 76.0988L265.752 77.8988L262.552 72.8988L260.852 73.9988L263.752 78.6988L260.852 80.4988L257.952 75.7988L256.052 76.9988L259.352 82.1988L256.352 84.0988L250.752 75.0988Z" fill="#0C8AE5"/>
<path d="M147.552 2.59914C146.252 2.79914 145.452 1.59915 145.152 -0.000851631C144.852 -1.60085 145.252 -3.00085 146.552 -3.20085C147.852 -3.40085 148.652 -2.20084 148.952 -0.600842C149.252 0.999158 148.752 2.39914 147.552 2.59914ZM146.652 -2.80085C145.752 -2.60085 145.452 -1.40084 145.752 -0.100842C145.952 1.19916 146.552 2.29915 147.552 2.19915C148.452 1.99915 148.752 0.799148 148.452 -0.500852C148.152 -1.80085 147.552 -2.90085 146.652 -2.80085Z" fill="#0C8AE5"/>
<path d="M160.252 0.999222L159.952 -3.90077C159.852 -3.80077 159.552 -3.70077 159.452 -3.60077C159.352 -3.60077 159.152 -3.50078 158.952 -3.50078L158.852 -3.90077C159.052 -3.90077 159.352 -4.00078 159.552 -4.20078C159.752 -4.30078 159.852 -4.50078 159.952 -4.80078H160.352L160.752 0.899231L160.252 0.999222Z" fill="#0C8AE5"/>
<path d="M172.452 0.800003L172.552 -4.09999C172.452 -3.99999 172.152 -3.89999 172.052 -3.89999C171.952 -3.89999 171.752 -3.8 171.552 -3.8L171.452 -4.2C171.652 -4.2 171.952 -4.29999 172.152 -4.39999C172.352 -4.49999 172.552 -4.7 172.552 -5H172.952L172.752 0.699997L172.452 0.800003Z" fill="#0C8AE5"/>
<path d="M185.252 1.89997C183.952 1.69997 183.552 0.299959 183.752 -1.30004C183.952 -2.90004 184.752 -4.10004 186.052 -4.00004C187.352 -3.80004 187.752 -2.40004 187.552 -0.800041C187.352 0.799959 186.552 1.99997 185.252 1.89997ZM185.952 -3.60003C185.052 -3.70003 184.452 -2.60004 184.252 -1.30004C184.052 -4.1008e-05 184.352 1.29997 185.252 1.39997C186.152 1.49997 186.752 0.399968 186.952 -0.900032C187.152 -2.20003 186.952 -3.40003 185.952 -3.60003Z" fill="#0C8AE5"/>
<path d="M197.952 4.10037L199.052 -0.699615C198.852 -0.599615 198.652 -0.599609 198.552 -0.599609C198.452 -0.599609 198.252 -0.599609 198.052 -0.599609V-0.999619C198.252 -0.999619 198.552 -0.999609 198.752 -1.09961C198.952 -1.19961 199.152 -1.29961 199.252 -1.59961L199.652 -1.49962L198.352 4.10037H197.952Z" fill="#0C8AE5"/>
<path d="M210.252 7.7004C209.052 7.3004 208.852 5.80041 209.352 4.30041C209.852 2.80041 210.852 1.7004 212.152 2.1004C213.352 2.5004 213.552 4.00042 213.052 5.50042C212.452 7.00042 211.452 8.1004 210.252 7.7004ZM211.952 2.50042C211.052 2.20042 210.252 3.20042 209.852 4.40042C209.452 5.60042 209.452 6.9004 210.352 7.2004C211.252 7.5004 212.052 6.50041 212.452 5.30041C212.952 4.00041 212.852 2.80042 211.952 2.50042Z" fill="#0C8AE5"/>
<path d="M222.152 12.3998C220.952 11.8998 220.952 10.3998 221.652 8.89976C222.352 7.49976 223.452 6.49977 224.652 6.99977C225.852 7.49977 225.852 8.99977 225.152 10.4998C224.452 11.8998 223.352 12.8998 222.152 12.3998ZM224.452 7.39976C223.552 6.99976 222.752 7.89974 222.152 9.09974C221.552 10.2997 221.552 11.5998 222.352 11.9998C223.252 12.3998 224.052 11.4998 224.652 10.2998C225.152 9.09976 225.252 7.79976 224.452 7.39976Z" fill="#0C8AE5"/>
<path d="M233.552 18.2996C232.452 17.5996 232.552 16.1996 233.352 14.7996C234.152 13.3996 235.352 12.5996 236.452 13.1996C237.552 13.8996 237.452 15.2996 236.652 16.6996C235.852 17.9996 234.652 18.8996 233.552 18.2996ZM236.252 13.4996C235.452 12.9996 234.452 13.7996 233.752 14.9996C233.052 16.1996 232.852 17.3996 233.652 17.8996C234.452 18.3996 235.452 17.5996 236.152 16.3996C236.852 15.1996 237.152 13.9996 236.252 13.4996Z" fill="#0C8AE5"/>
<path d="M244.352 25.1996C243.252 24.3996 243.552 22.9996 244.552 21.6996C245.452 20.3996 246.752 19.6996 247.852 20.3996C248.952 21.1996 248.652 22.5996 247.652 23.8996C246.652 25.2996 245.352 25.9996 244.352 25.1996ZM247.552 20.7996C246.752 20.1996 245.752 20.9996 244.952 21.9996C244.152 23.0996 243.852 24.2996 244.552 24.7996C245.352 25.3996 246.352 24.5996 247.152 23.5996C247.952 22.5996 248.252 21.3996 247.552 20.7996Z" fill="#0C8AE5"/>
<path d="M254.352 33.2004L257.652 29.5004C257.452 29.5004 257.252 29.4004 257.152 29.4004C257.052 29.4004 256.852 29.3004 256.752 29.2004L256.952 28.9004C257.052 29.0004 257.352 29.1004 257.652 29.2004C257.852 29.2004 258.152 29.2004 258.352 29.1004L258.652 29.4004L254.852 33.7004L254.352 33.2004Z" fill="#0C8AE5"/>
<path d="M263.152 41.7L266.752 38.3C266.552 38.3 266.352 38.1 266.252 38.1C266.152 38.1 265.952 38 265.852 37.8L266.052 37.5C266.152 37.6 266.452 37.8 266.652 37.8C266.852 37.9 267.152 37.9 267.352 37.7L267.652 38L263.452 41.9L263.152 41.7Z" fill="#0C8AE5"/>
<path d="M271.452 51.5994C270.652 50.5994 271.352 49.1994 272.652 48.2994C273.952 47.2994 275.352 46.9994 276.152 47.9994C276.952 48.9994 276.252 50.3994 274.952 51.2994C273.652 52.2994 272.252 52.5994 271.452 51.5994ZM275.752 48.1994C275.152 47.3994 273.952 47.7994 272.952 48.5994C271.852 49.3994 271.252 50.4994 271.752 51.1994C272.252 51.8994 273.552 51.5994 274.552 50.7994C275.652 50.0994 276.352 48.9994 275.752 48.1994Z" fill="#0C8AE5"/>
<path d="M278.652 62.0993C277.952 60.9993 278.852 59.7993 280.152 58.8993C281.452 58.0993 282.952 57.8993 283.652 58.9993C284.352 60.0993 283.452 61.2993 282.152 62.1993C280.852 62.9993 279.352 63.1993 278.652 62.0993ZM283.352 59.2993C282.852 58.4993 281.652 58.7993 280.452 59.4993C279.352 60.1993 278.552 61.1993 279.052 61.9993C279.552 62.7993 280.752 62.4993 281.952 61.7993C283.052 61.0993 283.852 60.0993 283.352 59.2993Z" fill="#0C8AE5"/>
<path d="M284.851 73.3994C284.251 72.1994 285.251 71.0994 286.651 70.3994C288.051 69.6994 289.551 69.6994 290.151 70.7994C290.751 71.9994 289.751 73.0994 288.351 73.7994C286.951 74.4994 285.451 74.4994 284.851 73.3994ZM289.751 70.9994C289.351 70.1994 288.051 70.2994 286.851 70.8994C285.651 71.4994 284.751 72.3994 285.151 73.1994C285.551 74.0994 286.851 73.8994 288.051 73.2994C289.351 72.6994 290.251 71.7994 289.751 70.9994Z" fill="#0C8AE5"/>
<path d="M289.852 85.2006C289.352 84.0006 290.452 82.9006 291.952 82.4006C293.452 81.9006 294.952 82.0006 295.352 83.2006C295.852 84.4006 294.752 85.5006 293.252 86.0006C291.852 86.5006 290.352 86.4006 289.852 85.2006ZM295.052 83.3006C294.752 82.4006 293.452 82.4006 292.252 82.9006C291.052 83.4006 290.052 84.2006 290.352 85.1006C290.652 86.0006 291.952 86.0006 293.152 85.5006C294.352 85.0006 295.352 84.1006 295.052 83.3006Z" fill="#0C8AE5"/>
<path d="M293.852 97.3992L298.552 96.1992C298.452 96.0992 298.252 95.8992 298.252 95.7992C298.252 95.6992 298.052 95.4992 298.052 95.3992L298.452 95.1992C298.552 95.3992 298.652 95.6992 298.852 95.7992C298.952 95.8992 299.252 96.0992 299.552 96.0992L299.652 96.4992L294.052 97.8992L293.852 97.3992Z" fill="#0C8AE5"/>
<path d="M296.352 109.999C296.152 108.699 297.452 107.899 298.952 107.599C300.552 107.399 301.952 107.699 302.152 108.999C302.352 110.299 301.052 111.099 299.552 111.399C297.952 111.599 296.552 111.199 296.352 109.999ZM301.752 109.099C301.652 108.199 300.352 107.899 299.052 108.099C297.752 108.299 296.652 108.899 296.752 109.899C296.852 110.799 298.152 111.099 299.452 110.899C300.752 110.699 301.852 109.999 301.752 109.099Z" fill="#0C8AE5"/>
<path d="M297.752 122.701L302.652 122.401C302.552 122.301 302.452 122.001 302.352 121.901C302.352 121.801 302.252 121.601 302.252 121.401L302.652 121.301C302.652 121.501 302.752 121.801 302.952 122.001C303.052 122.201 303.252 122.301 303.552 122.401V122.801L297.852 123.101L297.752 122.701Z" fill="#0C8AE5"/>
<path d="M297.952 134.9L302.852 135.1C302.752 135 302.652 134.7 302.652 134.6C302.652 134.5 302.552 134.3 302.552 134.1L302.952 134C302.952 134.2 303.052 134.5 303.152 134.7C303.252 134.9 303.452 135.1 303.752 135.1V135.5L298.052 135.3L297.952 134.9Z" fill="#0C8AE5"/>
<path d="M296.752 147.699C296.952 146.399 298.352 145.999 299.952 146.199C301.552 146.399 302.752 147.199 302.652 148.499C302.452 149.799 301.052 150.199 299.452 149.999C297.852 149.799 296.552 148.999 296.752 147.699ZM302.152 148.499C302.252 147.599 301.152 146.999 299.852 146.799C298.552 146.599 297.252 146.899 297.152 147.799C297.052 148.699 298.152 149.299 299.452 149.499C300.752 149.699 302.052 149.399 302.152 148.499Z" fill="#0C8AE5"/>
<path d="M294.452 160.301L299.252 161.501C299.152 161.301 299.152 161.101 299.152 161.001C299.152 160.901 299.152 160.701 299.152 160.501H299.552C299.552 160.701 299.552 161.001 299.652 161.201C299.752 161.401 299.852 161.601 300.152 161.701L300.052 162.101L294.452 160.701V160.301Z" fill="#0C8AE5"/>
<path d="M290.952 172.1L295.552 173.7C295.452 173.5 295.452 173.3 295.452 173.2C295.452 173.1 295.452 172.9 295.452 172.7L295.852 172.8C295.852 173 295.752 173.3 295.852 173.5C295.852 173.7 296.052 173.9 296.252 174.1L296.152 174.5L290.752 172.6L290.952 172.1Z" fill="#0C8AE5"/>
<path d="M286.452 183.5L290.952 185.5C290.952 185.3 290.952 185.1 290.952 185C290.952 184.9 290.952 184.7 291.052 184.5L291.452 184.6C291.352 184.8 291.352 185.1 291.352 185.3C291.352 185.5 291.452 185.7 291.652 185.9L291.452 186.3L286.252 183.9L286.452 183.5Z" fill="#0C8AE5"/>
<path d="M280.452 194.901C281.152 193.801 282.552 193.901 283.952 194.701C285.352 195.501 286.152 196.701 285.552 197.801C284.952 198.901 283.452 198.801 282.052 198.001C280.652 197.201 279.752 196.001 280.452 194.901ZM285.152 197.601C285.652 196.801 284.852 195.801 283.652 195.101C282.452 194.401 281.252 194.201 280.752 195.001C280.252 195.801 281.052 196.801 282.252 197.501C283.452 198.201 284.652 198.401 285.152 197.601Z" fill="#0C8AE5"/>
<path d="M273.452 205.601C274.252 204.501 275.652 204.801 276.952 205.801C278.252 206.701 278.952 208.001 278.252 209.101C277.452 210.201 276.052 209.901 274.752 208.901C273.452 208.001 272.652 206.701 273.452 205.601ZM277.852 208.801C278.452 208.001 277.652 207.001 276.652 206.201C275.552 205.401 274.352 205.101 273.852 205.801C273.252 206.601 274.052 207.601 275.052 208.401C276.152 209.201 277.352 209.601 277.852 208.801Z" fill="#0C8AE5"/>
<path d="M265.552 215.699L269.252 218.999C269.252 218.799 269.352 218.599 269.352 218.499C269.352 218.399 269.452 218.199 269.552 218.099L269.852 218.299C269.752 218.399 269.652 218.699 269.552 218.999C269.552 219.199 269.552 219.499 269.652 219.699L269.352 219.999L265.052 216.199L265.552 215.699Z" fill="#0C8AE5"/>
<path d="M256.952 224.5L260.252 228.1C260.252 227.9 260.452 227.7 260.452 227.6C260.452 227.5 260.552 227.3 260.752 227.2L261.052 227.4C260.952 227.5 260.752 227.8 260.752 228C260.652 228.2 260.652 228.5 260.852 228.7L260.552 229L256.652 224.8L256.952 224.5Z" fill="#0C8AE5"/>
<path d="M247.152 232.701C248.152 231.901 249.552 232.601 250.452 233.901C251.452 235.201 251.752 236.601 250.752 237.401C249.752 238.201 248.352 237.501 247.452 236.201C246.452 234.901 246.052 233.501 247.152 232.701ZM250.452 237.001C251.252 236.401 250.852 235.201 250.052 234.201C249.252 233.101 248.152 232.501 247.452 233.001C246.652 233.601 247.052 234.801 247.852 235.801C248.652 236.901 249.652 237.601 250.452 237.001Z" fill="#0C8AE5"/>
<path d="M236.552 240C237.652 239.3 238.952 240.2 239.752 241.5C240.552 242.8 240.752 244.3 239.652 245C238.552 245.7 237.352 244.8 236.452 243.5C235.652 242.1 235.452 240.6 236.552 240ZM239.452 244.6C240.252 244.1 239.952 242.9 239.252 241.7C238.552 240.6 237.552 239.8 236.752 240.3C235.952 240.8 236.252 242 236.952 243.2C237.652 244.3 238.652 245.1 239.452 244.6Z" fill="#0C8AE5"/>
<path d="M225.352 246.199L227.452 250.599C227.552 250.399 227.752 250.199 227.752 250.199C227.852 250.099 227.952 249.999 228.152 249.899L228.352 250.199C228.152 250.299 227.952 250.499 227.852 250.699C227.752 250.899 227.652 251.099 227.752 251.399L227.352 251.599L224.852 246.399L225.352 246.199Z" fill="#0C8AE5"/>
<path d="M213.552 251.2C214.752 250.8 215.852 251.8 216.352 253.3C216.852 254.8 216.752 256.3 215.552 256.7C214.352 257.1 213.252 256.1 212.752 254.6C212.152 253.1 212.252 251.6 213.552 251.2ZM215.352 256.3C216.252 256 216.252 254.7 215.752 253.5C215.252 252.3 214.452 251.3 213.552 251.6C212.652 251.9 212.652 253.2 213.152 254.4C213.652 255.6 214.552 256.6 215.352 256.3Z" fill="#0C8AE5"/>
<path d="M201.252 255.001C202.552 254.701 203.452 255.801 203.852 257.401C204.252 258.901 203.952 260.401 202.752 260.701C201.452 261.001 200.552 259.901 200.152 258.301C199.752 256.801 199.952 255.301 201.252 255.001ZM202.652 260.301C203.552 260.101 203.652 258.801 203.352 257.501C203.052 256.201 202.352 255.201 201.352 255.401C200.452 255.601 200.352 256.901 200.652 258.201C200.952 259.501 201.752 260.501 202.652 260.301Z" fill="#0C8AE5"/>
<path d="M188.651 257.6C189.951 257.4 190.751 258.701 190.951 260.201C191.151 261.801 190.751 263.2 189.551 263.4C188.251 263.6 187.451 262.3 187.151 260.8C187.051 259.2 187.451 257.8 188.651 257.6ZM189.551 263.001C190.451 262.901 190.751 261.6 190.551 260.3C190.351 259 189.751 257.901 188.751 258.001C187.851 258.101 187.551 259.401 187.751 260.701C187.951 262.001 188.651 263.101 189.551 263.001Z" fill="#0C8AE5"/>
<path d="M175.952 259L176.252 263.9C176.352 263.8 176.652 263.7 176.752 263.6C176.852 263.6 177.052 263.5 177.252 263.5L177.352 263.9C177.152 263.9 176.852 264 176.652 264.2C176.452 264.3 176.352 264.5 176.252 264.8H175.852L175.552 259.1L175.952 259Z" fill="#0C8AE5"/>
<path d="M163.752 259.1L163.552 264C163.652 263.9 163.952 263.8 164.052 263.8C164.152 263.8 164.352 263.7 164.552 263.7L164.652 264.1C164.452 264.1 164.152 264.2 163.952 264.3C163.752 264.4 163.552 264.6 163.552 264.9H163.152L163.352 259.2L163.752 259.1Z" fill="#0C8AE5"/>
<path d="M150.952 257.899C152.252 258.099 152.652 259.499 152.452 261.099C152.252 262.699 151.452 263.899 150.152 263.799C148.852 263.599 148.452 262.199 148.652 260.599C148.852 258.999 149.652 257.699 150.952 257.899ZM150.152 263.299C151.052 263.399 151.652 262.299 151.852 260.999C152.052 259.699 151.752 258.399 150.852 258.299C149.952 258.199 149.352 259.299 149.152 260.599C148.952 261.999 149.252 263.199 150.152 263.299Z" fill="#0C8AE5"/>
<path d="M138.352 255.499C139.652 255.799 139.852 257.299 139.552 258.799C139.152 260.299 138.252 261.499 136.952 261.199C135.652 260.899 135.452 259.399 135.752 257.899C136.152 256.399 137.052 255.199 138.352 255.499ZM137.052 260.799C137.952 260.999 138.652 259.999 138.952 258.699C139.252 257.399 139.152 256.099 138.252 255.899C137.352 255.699 136.652 256.699 136.352 257.999C135.952 259.399 136.152 260.599 137.052 260.799Z" fill="#0C8AE5"/>
<path d="M126.052 251.899L124.452 256.499C124.652 256.399 124.852 256.399 124.952 256.399C125.052 256.399 125.252 256.399 125.452 256.399L125.352 256.799C125.152 256.799 124.852 256.699 124.652 256.799C124.452 256.799 124.252 256.999 124.052 257.199L123.652 257.099L125.552 251.699L126.052 251.899Z" fill="#0C8AE5"/>
<path d="M114.652 247.3L112.552 251.8C112.752 251.8 112.952 251.8 113.052 251.8C113.152 251.8 113.352 251.8 113.552 251.9L113.452 252.3C113.252 252.2 112.952 252.2 112.752 252.2C112.552 252.2 112.352 252.3 112.152 252.5L111.752 252.3L114.152 247.1L114.652 247.3Z" fill="#0C8AE5"/>
<path d="M103.352 241.299C104.452 241.999 104.352 243.499 103.552 244.799C102.752 246.199 101.552 246.999 100.452 246.399C99.3516 245.699 99.4517 244.199 100.252 242.899C100.952 241.499 102.152 240.599 103.352 241.299ZM100.552 245.999C101.352 246.499 102.352 245.699 103.052 244.499C103.752 243.399 103.952 242.099 103.152 241.599C102.352 241.099 101.352 241.899 100.652 243.099C99.9517 244.299 99.7517 245.499 100.552 245.999Z" fill="#0C8AE5"/>
<path d="M92.5522 234.3C93.6522 235.1 93.2522 236.5 92.3522 237.8C91.4522 239.1 90.1522 239.8 89.0522 239C87.9522 238.2 88.3522 236.8 89.2522 235.5C90.2522 234.2 91.5522 233.5 92.5522 234.3ZM89.3522 238.7C90.1522 239.3 91.1522 238.6 91.9522 237.5C92.7522 236.4 93.0522 235.2 92.3522 234.7C91.5522 234.1 90.5522 234.8 89.7522 235.9C88.9522 236.9 88.6522 238.1 89.3522 238.7Z" fill="#0C8AE5"/>
<path d="M82.5519 226.301L79.252 230.001C79.452 230.001 79.652 230.101 79.752 230.101C79.852 230.101 80.0519 230.201 80.1519 230.301L79.9519 230.601C79.8519 230.501 79.552 230.401 79.252 230.301C79.052 230.301 78.7519 230.301 78.5519 230.401L78.252 230.101L82.0519 225.801L82.5519 226.301Z" fill="#0C8AE5"/>
<path d="M73.8516 217.7L70.2516 221C70.4516 221 70.6516 221.2 70.7516 221.2C70.8516 221.2 71.0516 221.3 71.1516 221.5L70.9515 221.8C70.8515 221.7 70.5516 221.5 70.3516 221.5C70.1516 221.4 69.8516 221.4 69.6516 221.6L69.3516 221.3L73.5516 217.4L73.8516 217.7Z" fill="#0C8AE5"/>
<path d="M65.6518 207.799C66.4518 208.799 65.7518 210.199 64.4518 211.099C63.1518 211.999 61.7518 212.399 60.9518 211.299C60.1518 210.299 60.8518 208.899 62.1518 207.999C63.3518 207.099 64.8518 206.699 65.6518 207.799ZM61.2519 211.099C61.8519 211.899 63.0519 211.499 64.0519 210.699C65.1519 209.899 65.8519 208.799 65.2519 208.099C64.6519 207.299 63.4518 207.699 62.4518 208.499C61.3518 209.299 60.7519 210.299 61.2519 211.099Z" fill="#0C8AE5"/>
<path d="M58.3524 197.199L54.1523 199.799C54.3523 199.899 54.5524 199.999 54.5524 200.099C54.6524 200.199 54.7524 200.299 54.8524 200.399L54.5524 200.699C54.4524 200.599 54.1524 200.299 54.0524 200.199C53.8524 200.099 53.6524 199.999 53.3524 200.099L53.1523 199.699L58.0524 196.699L58.3524 197.199Z" fill="#0C8AE5"/>
<path d="M52.5524 186.5L48.1523 188.6C48.3523 188.7 48.5524 188.9 48.5524 188.9C48.6524 189 48.7524 189.1 48.8524 189.3L48.5524 189.5C48.4524 189.3 48.2524 189.1 48.0524 189C47.8524 188.9 47.6524 188.8 47.3524 188.9L47.1523 188.5L52.3524 186L52.5524 186.5Z" fill="#0C8AE5"/>
<path d="M47.6523 175.199L43.0524 176.899C43.1524 176.999 43.3523 177.199 43.4523 177.299C43.5523 177.399 43.6524 177.499 43.7524 177.699L43.4523 177.899C43.3523 177.699 43.1524 177.499 43.0524 177.299C42.8524 177.199 42.6524 177.099 42.3524 177.099L42.1523 176.699L47.5524 174.699L47.6523 175.199Z" fill="#0C8AE5"/>
<path d="M43.9523 163.5L39.2524 164.8C39.3524 164.9 39.5524 165.1 39.5524 165.2C39.5524 165.3 39.7524 165.5 39.7524 165.6L39.3524 165.8C39.2524 165.6 39.1523 165.3 38.9523 165.2C38.7523 165.1 38.5524 164.9 38.2524 164.9L38.1523 164.5L43.6523 163L43.9523 163.5Z" fill="#0C8AE5"/>
<path d="M41.3521 150.9C41.5521 152.2 40.3521 153 38.7521 153.3C37.1521 153.6 35.7521 153.2 35.5521 151.9C35.3521 150.6 36.5521 149.8 38.1521 149.5C39.6521 149.3 41.1521 149.7 41.3521 150.9ZM35.952 151.8C36.152 152.7 37.3521 153 38.6521 152.7C39.9521 152.5 41.052 151.9 40.952 150.9C40.752 150 39.5521 149.7 38.2521 150C36.8521 150.3 35.752 150.9 35.952 151.8Z" fill="#0C8AE5"/>
<path d="M39.7522 138.199L34.8522 138.499C34.9522 138.599 35.0522 138.899 35.1522 138.999C35.1522 139.099 35.2522 139.299 35.2522 139.499L34.8522 139.599C34.8522 139.399 34.7522 139.099 34.5522 138.899C34.4522 138.699 34.2521 138.599 33.9521 138.499V138.099L39.6522 137.699L39.7522 138.199Z" fill="#0C8AE5"/>
<path d="M39.5519 126L34.6519 125.9C34.7519 126 34.8519 126.3 34.8519 126.4C34.8519 126.5 34.9519 126.7 34.9519 126.9L34.5519 127C34.5519 126.8 34.4519 126.5 34.3519 126.3C34.2519 126.1 34.052 125.9 33.752 125.9V125.5L39.4519 125.7L39.5519 126Z" fill="#0C8AE5"/>
<path d="M40.5522 113.8L35.6522 113.2C35.7522 113.3 35.7522 113.6 35.8522 113.7C35.8522 113.8 35.9521 114 35.9521 114.2H35.5522C35.5522 114 35.5521 113.7 35.4521 113.5C35.3521 113.3 35.2521 113.1 34.9521 113L35.0522 112.6L40.7522 113.3L40.5522 113.8Z" fill="#0C8AE5"/>
<path d="M42.8518 101.101C42.5518 102.401 41.0518 102.701 39.5518 102.301C38.0518 101.901 36.8517 101.001 37.1517 99.8006C37.4517 98.5006 38.9517 98.2005 40.4517 98.6005C41.9517 99.0005 43.1518 99.9005 42.8518 101.101ZM37.5518 99.9006C37.3518 100.801 38.3517 101.501 39.6517 101.801C40.9517 102.101 42.2517 101.901 42.4517 101.001C42.6517 100.101 41.6518 99.4005 40.3518 99.1005C39.0518 98.8005 37.7518 99.0006 37.5518 99.9006Z" fill="#0C8AE5"/>
<path d="M46.3517 88.7997C45.9517 89.9997 44.4517 90.1997 42.9517 89.6997C41.4517 89.1997 40.3518 88.1997 40.7518 86.8997C41.1518 85.6997 42.6517 85.4997 44.1517 85.9997C45.6517 86.5997 46.7517 87.5997 46.3517 88.7997ZM41.1517 87.0997C40.8517 87.9997 41.8518 88.7997 43.0518 89.1997C44.3518 89.5997 45.5517 89.5997 45.8517 88.6997C46.1517 87.7997 45.1517 86.9997 43.9517 86.5997C42.7517 86.0997 41.4517 86.1997 41.1517 87.0997Z" fill="#0C8AE5"/>
<path d="M50.9519 76.8L46.4519 74.8C46.4519 75 46.4519 75.2 46.4519 75.3C46.4519 75.4 46.4519 75.6 46.3519 75.8L45.9519 75.7C46.0519 75.5 46.0519 75.2 46.0519 75C46.0519 74.8 45.952 74.6 45.752 74.4L45.9519 74L51.1519 76.4L50.9519 76.8Z" fill="#0C8AE5"/>
<path d="M56.9519 65.5001C56.2519 66.6001 54.8519 66.5001 53.4519 65.7001C52.0519 64.9001 51.2519 63.7001 51.8519 62.6001C52.4519 61.5001 53.9519 61.6001 55.3519 62.4001C56.6519 63.1001 57.5519 64.3001 56.9519 65.5001ZM52.1519 62.7001C51.6519 63.5001 52.4519 64.5001 53.6519 65.2001C54.8519 65.9001 56.052 66.1001 56.552 65.3001C57.052 64.5001 56.252 63.5001 55.052 62.8001C53.852 62.1001 52.6519 61.9001 52.1519 62.7001Z" fill="#0C8AE5"/>
<path d="M63.852 54.7005C63.052 55.8005 61.652 55.5005 60.352 54.5005C59.052 53.6005 58.352 52.3005 59.052 51.2005C59.852 50.1005 61.252 50.4005 62.552 51.4005C63.852 52.3005 64.652 53.6005 63.852 54.7005ZM59.4519 51.5005C58.8519 52.3005 59.6519 53.3005 60.6519 54.1005C61.7519 54.9005 62.9519 55.2005 63.4519 54.5005C64.0519 53.7005 63.252 52.7005 62.252 51.9005C61.152 51.1005 59.9519 50.7005 59.4519 51.5005Z" fill="#0C8AE5"/>
<path d="M71.7522 44.6004L68.0522 41.4004C68.0522 41.6004 67.9521 41.8004 67.9521 41.9004C67.9521 42.0004 67.8522 42.2004 67.7522 42.3004L67.4521 42.1004C67.5521 42.0004 67.6522 41.7004 67.7522 41.4004C67.7522 41.2004 67.7522 40.9004 67.6522 40.7004L67.9521 40.4004L72.2522 44.2004L71.7522 44.6004Z" fill="#0C8AE5"/>
<path d="M80.2518 35.8008L76.8517 32.2008C76.8517 32.4008 76.6517 32.6008 76.6517 32.7008C76.6517 32.8008 76.5517 33.0008 76.3517 33.1008L76.0518 32.9008C76.1518 32.8008 76.3517 32.5008 76.3517 32.3008C76.4517 32.1008 76.4518 31.8008 76.2518 31.6008L76.5518 31.3008L80.4517 35.5008L80.2518 35.8008Z" fill="#0C8AE5"/>
<path d="M90.1522 27.5005C89.1522 28.3005 87.7522 27.6005 86.8522 26.3005C85.8522 25.1005 85.5522 23.6005 86.5522 22.8005C87.5522 22.0005 88.9522 22.7005 89.8522 24.0005C90.8522 25.3005 91.1522 26.7005 90.1522 27.5005ZM86.7522 23.2004C86.0522 23.8004 86.3522 25.0005 87.1522 26.0005C87.9522 27.1005 89.0522 27.7004 89.7522 27.2004C90.4522 26.6004 90.1522 25.4005 89.3522 24.4005C88.6522 23.3005 87.5522 22.6004 86.7522 23.2004Z" fill="#0C8AE5"/>
<path d="M100.652 20.1992C99.552 20.8992 98.352 19.9992 97.452 18.6992C96.652 17.3992 96.4521 15.8992 97.5521 15.1992C98.6521 14.4992 99.8521 15.3992 100.752 16.6992C101.652 17.9992 101.752 19.4992 100.652 20.1992ZM97.7521 15.5992C96.9521 16.0992 97.252 17.2992 97.952 18.4992C98.652 19.5992 99.652 20.3992 100.452 19.8992C101.252 19.3992 100.952 18.1992 100.252 16.9992C99.5521 15.7992 98.5521 15.0992 97.7521 15.5992Z" fill="#0C8AE5"/>
<path d="M111.852 13.9L109.652 9.5C109.552 9.7 109.352 9.89999 109.352 9.89999C109.252 9.99999 109.152 10.1 108.952 10.2L108.752 9.89999C108.952 9.79999 109.152 9.59999 109.252 9.39999C109.352 9.19999 109.452 8.99998 109.352 8.69998L109.752 8.5L112.252 13.7L111.852 13.9Z" fill="#0C8AE5"/>
<path d="M123.652 8.89957C122.452 9.39957 121.352 8.29956 120.852 6.79956C120.352 5.29956 120.352 3.79957 121.652 3.39957C122.852 2.89957 123.951 3.99957 124.451 5.49957C124.951 6.99957 124.852 8.49957 123.652 8.89957ZM121.752 3.79956C120.852 4.09956 120.852 5.39955 121.352 6.59955C121.852 7.79955 122.652 8.79957 123.552 8.49957C124.452 8.19957 124.451 6.89955 123.951 5.69955C123.451 4.49955 122.652 3.49956 121.752 3.79956Z" fill="#0C8AE5"/>
<path d="M135.951 5.10093C134.651 5.40093 133.752 4.30093 133.352 2.70093C132.952 1.10093 133.151 -0.299055 134.451 -0.599055C135.751 -0.899055 136.652 0.200939 137.052 1.80094C137.452 3.30094 137.151 4.80093 135.951 5.10093ZM134.552 -0.199061C133.652 0.000939324 133.552 1.30093 133.852 2.60093C134.152 3.90093 134.952 4.90093 135.852 4.70093C136.752 4.50093 136.852 3.20095 136.552 1.90095C136.152 0.600945 135.452 -0.399061 134.552 -0.199061Z" fill="#0C8AE5"/>
<path d="M36.8518 146.699C36.8518 146.499 36.8518 146.299 36.8518 146.099C38.7518 145.499 40.6518 144.799 42.5518 144.199C45.2518 143.399 48.0518 142.799 50.7518 141.999C53.3518 141.299 55.9518 140.499 58.6518 139.799C59.3518 139.599 60.0518 139.299 60.8518 139.099C63.8518 138.399 66.7518 137.799 69.7518 137.199C71.6518 136.799 73.5517 136.199 75.4517 135.799C77.0517 135.499 78.7518 135.599 80.2518 134.999C82.3518 134.099 84.5518 133.699 86.8518 133.299C88.8518 132.999 90.8518 132.799 92.8518 132.499C93.5518 132.399 94.2517 132.199 94.9517 131.999C95.9517 131.799 97.0518 131.899 97.7518 131.399C99.5518 130.199 101.652 130.499 103.552 130.199C105.752 129.799 108.052 129.699 110.252 129.399C114.552 128.899 118.652 127.099 123.152 127.299C123.252 127.299 123.352 127.299 123.452 127.299C126.452 126.899 129.352 126.399 132.252 126.099C135.252 125.799 138.252 125.699 141.252 125.499C142.252 125.399 143.152 125.299 144.152 125.399C146.852 125.799 149.552 126.399 152.352 126.899C153.152 126.999 154.152 126.899 154.952 126.599C156.052 126.099 156.952 125.299 157.852 124.599C160.052 122.999 162.152 121.399 164.352 119.799C164.652 119.599 164.952 119.399 165.052 119.099C165.352 117.699 166.652 117.199 167.752 116.499C168.052 116.299 168.552 116.199 168.652 115.899C169.152 114.399 170.452 113.799 171.652 113.099C172.852 112.399 173.452 111.499 172.952 109.999C172.652 108.999 172.252 107.699 170.952 107.499C168.852 107.099 166.752 106.899 164.652 106.599C163.952 106.499 163.152 106.199 162.452 106.199C160.752 106.199 159.152 106.599 157.452 106.499C154.452 106.399 151.552 106.099 148.652 106.899C148.252 106.999 147.852 106.799 147.352 106.799C146.552 106.799 145.752 106.899 144.952 106.999C142.352 107.399 139.752 107.999 137.052 108.399C135.652 108.599 134.152 108.599 132.752 108.799C130.752 109.099 128.852 109.399 126.852 109.699C126.352 109.799 125.752 109.699 125.252 109.799C124.152 109.999 123.052 110.299 121.952 110.499C120.752 110.699 119.552 110.299 118.552 111.199C118.352 111.399 117.752 111.299 117.352 111.299C116.752 111.299 116.152 111.299 115.552 111.399C112.852 111.899 110.352 112.999 107.552 112.899C106.652 112.799 105.752 113.499 104.852 113.899C104.452 114.099 104.052 114.399 103.552 114.499C100.252 115.299 96.8518 116.099 93.3518 115.899C92.9518 115.899 92.4518 116.099 92.0518 116.199C91.2518 116.499 90.3518 116.799 89.5518 117.099C88.0518 117.499 86.5518 117.699 85.0518 118.099C84.3518 118.299 83.5518 118.499 82.8518 118.599C81.4518 118.899 80.0518 118.999 78.6518 119.399C77.1518 119.699 75.7518 120.299 74.2518 120.599C72.7518 120.999 71.2518 121.199 69.7518 121.499C69.0518 121.699 68.2518 121.999 67.5518 122.299C65.9518 122.899 64.0518 122.799 62.5518 123.899C62.3518 123.999 62.1517 123.999 61.9517 123.999C60.3517 123.499 59.1518 125.199 57.3518 124.699C56.4518 124.499 55.2518 125.399 54.1518 125.599C50.8518 126.099 47.8518 127.899 44.5518 128.299C43.6518 128.399 42.8518 128.799 42.0518 129.099C40.2518 129.899 38.1518 129.899 36.8518 131.499C36.7518 131.599 36.6517 131.599 36.4517 131.599C35.3517 131.899 34.1518 132.299 33.0518 132.599C28.9518 133.499 25.5518 136.099 21.7518 137.799C21.6518 137.899 21.4518 137.999 21.3518 138.099C19.8518 139.299 18.4518 140.699 16.8518 141.799C14.2518 143.599 12.1517 145.899 9.95175 148.099C7.45175 150.699 5.05178 153.299 2.55178 155.899C2.15178 156.399 1.65179 156.799 1.25179 157.299C0.0517938 158.799 0.0517572 159.399 1.15176 160.899C2.05176 162.099 3.05179 163.299 4.25179 164.299C5.95179 165.699 7.85176 166.799 10.1518 167.099C12.5518 167.299 14.9518 167.999 17.3518 168.399C17.7518 168.499 18.1517 168.599 18.4517 168.599C21.5517 168.299 24.6518 168.999 27.6518 169.199C28.7518 169.299 29.8517 169.199 30.9517 169.199C32.7517 169.099 34.5518 168.999 36.3518 168.899C38.2518 168.899 40.2518 169.099 42.1518 168.999C44.2518 168.899 46.2518 168.599 48.3518 168.499C50.5518 168.399 52.5518 169.199 54.8518 168.399C56.4518 167.799 58.3518 168.199 60.0518 168.199C63.8518 168.199 67.7518 168.099 71.5518 168.199C74.1518 168.299 76.5518 167.699 79.1518 167.399C80.8518 167.199 82.5518 167.299 84.2518 167.199C85.2518 167.199 86.3517 167.199 87.4517 167.099C87.9517 167.099 88.4517 166.699 88.9517 166.699C92.9517 166.799 96.9517 166.499 100.952 165.899C102.752 165.599 104.552 165.599 106.352 165.299C108.452 164.999 110.752 165.699 112.752 164.599C112.952 164.499 113.252 164.699 113.552 164.699C114.152 164.699 114.752 164.899 115.352 164.799C116.852 164.599 118.352 164.199 119.852 164.099C121.552 163.999 123.352 164.099 125.052 163.999C126.452 163.899 127.852 163.399 129.252 163.499C133.052 163.799 136.752 163.099 140.552 162.699C142.552 162.499 144.452 161.699 146.352 161.799C148.452 161.899 150.352 161.699 152.452 161.299C153.152 161.199 154.052 161.199 154.552 161.499C155.852 162.399 156.952 161.999 157.952 161.099C158.952 160.299 160.052 159.499 161.052 158.699C161.552 158.299 162.152 157.899 162.752 157.599C164.052 156.699 165.252 155.899 166.752 154.899C167.452 155.799 168.252 156.499 168.252 157.099C168.352 160.599 169.452 163.799 169.852 167.199C169.952 168.199 170.352 169.199 170.352 170.199C170.352 170.999 170.652 171.299 171.252 171.499C172.152 171.799 172.452 172.399 172.352 173.299C172.252 173.899 172.352 174.399 172.452 174.999C172.652 175.799 172.952 176.599 173.252 177.399C173.652 178.099 174.052 178.999 174.652 179.299C175.652 179.799 177.052 180.099 177.752 178.799C178.452 177.399 179.752 177.299 180.852 176.599C182.352 175.699 183.852 174.599 185.452 173.899C186.652 173.399 187.552 172.699 188.152 171.599C188.252 171.399 188.552 171.299 188.852 171.199C190.252 170.799 191.252 169.899 192.052 168.699C192.652 167.599 193.152 166.499 194.552 166.299C194.752 166.299 194.952 165.999 194.952 165.799C195.252 164.399 196.152 163.099 194.952 161.699C194.652 161.299 194.452 160.699 194.452 160.099C194.252 158.699 194.252 157.299 194.152 155.899C194.152 155.799 194.152 155.699 194.152 155.699C193.952 154.299 193.752 152.999 193.552 151.599C193.352 150.399 193.552 149.099 193.152 147.999C192.252 145.399 191.952 142.599 191.652 139.899C191.452 137.999 191.652 135.999 191.352 134.099C191.052 131.299 191.252 128.499 189.952 125.899C189.652 125.199 188.052 124.599 187.352 125.099C184.052 127.699 180.652 130.299 177.452 132.899C176.352 133.799 175.452 134.899 174.352 135.899C173.352 136.799 172.352 137.699 171.352 138.399C170.052 139.399 168.652 140.199 167.152 140.999C166.652 141.299 165.852 141.099 165.152 141.299C164.252 141.499 163.352 141.799 162.452 141.899C161.552 141.999 160.552 141.599 159.952 142.699C159.852 142.799 159.552 142.899 159.352 142.799C157.452 141.799 155.352 142.399 153.452 142.299C152.152 142.299 150.252 141.499 149.652 143.399C148.952 143.299 148.452 142.999 147.852 143.099C146.852 143.199 145.652 143.999 144.952 143.599C143.452 142.799 142.052 143.499 140.652 143.499C137.552 143.599 134.552 143.699 131.452 143.899C130.352 143.999 129.252 144.299 128.152 144.399C127.452 144.399 126.652 144.299 126.352 145.199C126.252 145.299 125.852 145.299 125.352 145.399C125.752 144.799 125.952 144.599 126.252 144.199C124.752 143.999 123.852 145.199 122.452 145.099C119.852 144.899 117.252 145.399 114.652 145.599C113.752 145.699 112.752 145.699 111.852 145.699C111.152 145.699 110.452 145.699 109.752 145.699C109.452 145.699 109.152 146.099 108.952 145.999C107.452 145.199 105.852 145.699 104.252 145.799C103.252 145.799 102.352 145.699 101.352 145.599C100.852 145.599 100.452 145.599 99.9517 145.699C98.2517 145.899 96.5518 146.199 94.8518 146.399C92.9518 146.599 90.9518 146.799 89.0518 146.999C87.9518 147.099 86.9518 147.499 85.8518 147.699C85.4518 147.699 84.9518 147.299 84.2518 146.999C83.2518 147.299 82.0518 148.099 80.5518 147.399C79.9518 147.099 79.3518 146.899 78.7518 146.799C77.9518 146.699 77.2517 146.599 76.4517 146.799C75.1517 146.999 73.7518 147.199 72.7518 147.899C71.9518 148.499 71.6518 148.399 71.1518 147.899C70.4518 147.099 69.7518 147.099 68.7518 147.199C66.7518 147.499 64.6518 147.699 62.5518 147.799C61.1518 147.899 59.8517 147.799 58.4517 147.799C57.4517 147.899 56.3518 148.599 55.3518 147.599C55.1518 147.399 54.5518 147.699 54.1518 147.699C53.8518 147.699 53.5518 147.899 53.2518 147.799C52.2518 147.699 51.1518 147.299 50.1518 147.299C46.6518 147.199 43.0518 147.199 39.5518 147.099C38.4518 147.099 37.6518 146.799 36.8518 146.699ZM292.352 128.899C291.552 128.199 291.652 128.199 290.452 129.399C290.252 129.599 289.752 129.699 289.452 129.699C288.352 129.399 287.252 128.899 286.152 128.699C284.852 128.499 283.552 128.299 282.252 128.499C280.952 128.599 280.352 127.799 279.952 126.899C278.952 124.799 278.152 122.599 277.052 120.599C275.252 117.299 274.652 113.599 273.452 110.099C272.852 108.299 272.552 106.399 272.252 104.499C271.952 102.999 271.652 101.499 271.452 99.9992C271.352 98.5992 271.352 97.0992 271.452 95.5992C271.652 93.0992 271.852 90.6992 272.052 88.1992C272.152 87.1992 272.252 86.2992 272.252 85.2992C272.152 83.9992 270.452 83.2992 269.352 83.9992C268.152 84.7992 267.052 85.6992 265.852 86.3992C264.552 87.1992 262.752 87.6992 261.852 88.7992C260.052 90.8992 256.852 91.3992 255.752 94.1992C255.752 94.2992 255.552 94.2992 255.552 94.2992C253.652 95.6992 251.652 96.9992 249.852 98.3992C249.252 98.7992 248.752 99.4992 248.552 100.099C247.852 102.099 247.052 104.099 247.452 106.299C247.452 106.499 247.452 106.699 247.452 106.899C247.352 108.199 247.252 109.499 247.252 110.799C247.252 111.799 247.652 112.799 247.452 113.799C247.052 116.699 248.352 119.299 248.852 122.099C249.152 123.799 249.852 125.499 250.252 127.199C250.452 127.999 250.252 128.399 249.252 128.099C248.152 127.799 246.952 127.499 245.752 127.499C243.752 127.399 241.852 127.499 239.852 127.499C238.352 127.499 236.952 127.799 235.552 127.599C233.952 127.299 232.552 127.599 231.052 128.099C230.452 128.299 229.752 128.199 229.152 127.999C228.252 127.699 227.452 127.399 226.552 127.899C226.152 128.099 225.552 128.099 225.052 128.099C224.552 128.099 224.052 127.899 223.552 128.099C222.552 128.399 222.452 127.899 222.352 127.099C222.252 126.299 222.152 125.499 222.152 124.699C221.952 121.999 221.652 119.399 221.752 116.699C221.852 113.799 222.252 110.899 222.752 108.099C223.052 106.699 222.652 105.599 221.752 104.799C220.952 104.199 219.852 104.199 218.852 104.799C217.552 105.699 216.252 106.399 215.052 107.399C213.252 108.799 211.452 110.299 209.652 111.799C207.852 113.299 206.652 115.399 204.252 116.199C203.852 116.299 203.652 116.799 203.352 117.099C202.952 117.399 202.552 117.699 202.252 118.099C201.352 118.899 200.252 119.499 199.652 120.499C197.652 124.099 198.552 128.199 197.952 131.999C197.552 134.199 198.152 136.499 198.452 138.799C198.652 140.399 198.952 141.999 199.052 143.599C199.052 144.899 198.752 145.999 199.552 147.399C200.452 148.899 200.652 150.899 201.252 152.599C201.652 153.599 202.152 154.599 202.752 155.699C202.552 156.599 202.552 157.599 203.352 158.499C203.852 159.099 204.652 159.599 204.952 160.299C205.752 162.299 206.252 164.499 207.052 166.499C207.352 167.199 208.052 167.699 208.652 168.299C208.852 168.499 209.052 168.699 209.152 168.899C209.752 170.099 210.152 171.299 210.852 172.499C211.052 172.899 211.552 173.299 211.952 173.299C213.752 173.299 214.852 174.399 216.052 175.399C216.352 175.599 216.752 175.699 217.352 175.899C217.152 175.399 217.052 175.099 217.052 174.899C217.052 174.399 217.052 173.799 217.252 173.399C217.352 173.199 218.052 173.299 218.452 173.399C219.352 173.499 220.252 173.599 221.152 173.599C221.352 173.599 221.652 173.299 221.752 173.099C222.452 170.999 224.452 170.899 226.052 170.499C227.352 170.099 228.352 170.099 228.352 168.499C228.352 168.199 229.052 167.599 229.152 167.699C230.652 168.299 231.652 166.899 233.052 166.899C233.152 166.899 233.352 166.799 233.452 166.599C234.152 165.199 234.752 163.699 235.452 162.299C237.052 162.199 237.052 161.899 236.552 160.499C236.152 159.399 235.752 158.699 234.552 158.499C234.352 158.499 234.252 158.199 234.152 157.999C233.652 156.099 231.752 155.099 231.352 152.999C231.052 151.599 230.152 150.199 229.552 148.899C228.952 147.299 229.052 147.099 230.752 147.099C234.652 147.099 238.552 147.099 242.452 147.199C244.852 147.199 247.352 147.199 249.752 147.199C252.352 147.199 254.952 147.399 257.552 147.399C258.652 147.399 259.352 147.799 259.652 148.799C259.752 149.099 259.952 149.299 260.052 149.599C260.952 151.199 261.852 152.799 262.852 154.399C264.052 156.399 265.252 158.399 266.552 160.399C268.052 162.599 269.552 164.699 271.052 166.799C272.252 168.499 273.452 170.199 274.652 171.899C275.452 172.999 276.152 173.999 276.952 175.099C277.452 175.699 278.152 176.299 278.652 176.899C280.252 178.899 281.252 181.299 283.252 182.999C283.552 183.299 284.252 183.599 284.552 183.499C286.252 182.799 287.952 182.099 289.552 181.199C291.552 180.099 293.552 178.799 295.452 177.499C296.552 176.699 297.652 175.899 298.652 174.999C299.352 174.399 299.652 173.299 300.852 173.699C300.952 173.699 301.252 173.399 301.352 173.199C301.952 171.799 303.152 171.099 304.452 170.499C305.552 169.999 306.452 167.999 305.852 166.899C305.252 165.699 304.552 164.499 303.752 163.399C302.552 161.699 300.952 160.499 299.952 158.599C299.152 156.999 297.852 155.699 296.852 154.199C295.652 152.599 294.552 150.899 293.452 149.299C293.252 148.899 293.052 148.499 292.952 148.099C293.352 147.999 293.852 147.699 294.252 147.699C296.952 147.599 299.552 147.599 302.252 147.499C305.952 147.399 309.652 147.399 313.252 147.399C316.952 147.399 320.552 147.399 324.252 147.399C325.052 147.399 325.752 147.099 326.552 147.099C328.652 147.099 330.752 147.299 332.852 147.299C336.752 147.299 340.752 146.999 344.652 147.199C346.452 147.299 347.852 146.599 349.252 145.699C350.652 144.799 352.052 143.699 353.452 142.799C354.252 142.299 355.252 141.999 356.152 141.599C356.852 141.299 357.452 140.599 358.052 140.499C359.552 140.399 360.652 139.599 360.852 138.199C360.852 137.899 361.352 137.399 361.652 137.299C363.352 136.999 364.452 135.699 365.852 134.899C366.752 134.399 367.352 133.599 368.052 132.899C368.352 132.599 368.652 131.999 368.552 131.599C368.252 130.699 368.352 130.199 369.252 129.799C369.452 129.699 369.552 129.099 369.452 128.799C369.252 128.299 368.952 127.899 368.652 127.499C367.852 127.299 367.152 127.099 366.452 126.999C366.052 126.899 365.652 126.799 365.352 126.899C363.752 127.799 361.852 127.699 360.152 127.899C358.752 128.099 357.252 128.799 356.052 128.399C352.852 127.499 349.552 128.699 346.352 128.199C344.552 127.899 342.652 128.299 340.852 128.299C339.452 128.299 338.052 128.199 336.752 128.299C335.552 128.399 334.352 128.799 333.052 128.199C332.552 127.999 331.752 128.199 331.052 128.299C331.452 128.599 331.652 128.799 331.952 128.899C331.852 129.099 331.752 129.299 331.652 129.399C331.052 129.399 330.552 129.299 329.952 129.299C329.052 129.299 328.152 129.399 327.252 129.499C327.052 129.499 326.752 129.699 326.552 129.599C325.452 129.399 324.452 128.799 323.352 129.399C323.252 129.399 322.952 129.299 322.952 129.199C322.452 128.199 321.552 128.499 320.652 128.499C319.152 128.499 317.752 128.699 316.352 128.599C314.452 128.499 312.352 127.799 310.752 128.299C308.452 128.999 306.252 127.399 304.152 128.499C304.052 128.499 303.952 128.499 303.952 128.499C301.852 128.499 299.752 128.499 297.652 128.599C297.052 128.599 296.352 128.599 295.752 128.599C294.352 128.799 293.552 128.899 292.352 128.899Z" fill="#0CE5CA"/>
<path d="M36.8516 146.699C37.6516 146.899 38.4516 147.199 39.2516 147.199C42.7516 147.299 46.3516 147.299 49.8516 147.399C50.8516 147.399 51.9515 147.799 52.9515 147.899C53.2515 147.899 53.5516 147.799 53.8516 147.799C54.2516 147.799 54.8516 147.499 55.0516 147.699C56.0516 148.699 57.1516 147.999 58.1516 147.899C59.5516 147.799 60.8516 147.999 62.2516 147.899C64.3516 147.799 66.4515 147.599 68.4515 147.299C69.4515 147.199 70.2516 147.199 70.8516 147.999C71.3516 148.599 71.6515 148.699 72.4515 147.999C73.4515 147.299 74.8516 147.099 76.1516 146.899C76.8516 146.799 77.6515 146.799 78.4515 146.899C79.0515 146.999 79.6516 147.199 80.2516 147.499C81.7516 148.099 82.9515 147.399 83.9515 147.099C84.6515 147.399 85.1516 147.799 85.5516 147.799C86.6516 147.699 87.6516 147.299 88.7516 147.099C90.6516 146.799 92.5516 146.699 94.5516 146.499C96.2516 146.299 97.9516 145.999 99.6516 145.799C100.152 145.699 100.552 145.699 101.052 145.699C102.052 145.699 102.952 145.899 103.952 145.899C105.552 145.799 107.052 145.299 108.652 146.099C108.852 146.199 109.152 145.899 109.452 145.799C110.152 145.799 110.852 145.799 111.552 145.799C112.452 145.799 113.452 145.699 114.352 145.699C116.952 145.499 119.552 145.099 122.152 145.199C123.552 145.299 124.452 144.099 125.952 144.299C125.652 144.699 125.452 144.899 125.052 145.499C125.552 145.399 126.052 145.399 126.052 145.299C126.452 144.399 127.152 144.599 127.852 144.499C128.952 144.399 130.052 144.099 131.152 143.999C134.252 143.799 137.252 143.699 140.352 143.599C141.752 143.599 143.152 142.899 144.652 143.699C145.352 144.099 146.552 143.299 147.552 143.199C148.052 143.099 148.652 143.399 149.352 143.499C149.952 141.599 151.852 142.399 153.152 142.399C155.152 142.399 157.152 141.899 159.052 142.899C159.252 142.999 159.552 142.899 159.652 142.799C160.252 141.699 161.252 142.099 162.152 141.999C163.052 141.899 163.952 141.599 164.852 141.399C165.552 141.299 166.252 141.399 166.852 141.099C168.352 140.299 169.652 139.399 171.052 138.499C172.152 137.699 173.152 136.899 174.052 135.999C175.152 134.999 176.052 133.999 177.152 132.999C180.452 130.399 183.752 127.799 187.052 125.199C187.652 124.699 189.252 125.299 189.652 125.999C190.952 128.599 190.652 131.499 191.052 134.199C191.252 136.099 191.052 138.099 191.352 139.999C191.652 142.699 192.052 145.499 192.852 148.099C193.252 149.199 193.152 150.499 193.252 151.699C193.452 153.099 193.652 154.399 193.852 155.799C193.852 155.899 193.852 155.999 193.852 155.999C193.952 157.399 194.052 158.799 194.152 160.199C194.252 160.699 194.352 161.399 194.652 161.799C195.852 163.199 194.952 164.499 194.652 165.899C194.652 166.099 194.452 166.399 194.252 166.399C192.852 166.599 192.352 167.699 191.752 168.799C191.052 169.999 190.052 170.899 188.552 171.299C188.352 171.399 188.052 171.499 187.852 171.699C187.252 172.799 186.352 173.499 185.152 173.999C183.552 174.699 182.052 175.799 180.552 176.699C179.452 177.299 178.152 177.499 177.452 178.899C176.852 180.099 175.352 179.899 174.352 179.399C173.752 179.099 173.352 178.199 172.952 177.499C172.552 176.799 172.352 175.999 172.152 175.099C172.052 174.599 171.952 173.999 172.052 173.399C172.152 172.499 171.852 171.899 170.952 171.599C170.352 171.399 170.052 170.999 170.052 170.299C170.052 169.299 169.652 168.299 169.552 167.299C169.052 163.899 167.952 160.699 167.952 157.199C167.952 156.599 167.152 155.899 166.452 154.999C165.052 155.999 163.752 156.799 162.452 157.699C161.852 158.099 161.352 158.499 160.752 158.799C159.752 159.599 158.652 160.399 157.652 161.199C156.552 161.999 155.552 162.499 154.252 161.599C153.752 161.199 152.852 161.299 152.152 161.399C150.152 161.699 148.152 161.999 146.052 161.899C144.152 161.799 142.152 162.499 140.252 162.799C136.452 163.199 132.752 163.899 128.952 163.599C127.552 163.499 126.152 163.999 124.752 164.099C123.052 164.199 121.252 164.099 119.552 164.199C118.052 164.299 116.552 164.699 115.052 164.899C114.452 164.999 113.852 164.899 113.252 164.799C113.052 164.799 112.652 164.599 112.452 164.699C110.352 165.799 108.152 165.199 106.052 165.399C104.252 165.599 102.452 165.699 100.652 165.999C96.6516 166.599 92.6516 166.999 88.6516 166.799C88.1516 166.799 87.6516 167.099 87.1516 167.199C86.1516 167.299 85.0515 167.199 83.9515 167.299C82.2515 167.299 80.5516 167.299 78.8516 167.499C76.3516 167.799 73.8516 168.399 71.2516 168.299C67.4516 168.199 63.5516 168.199 59.7516 168.299C57.9516 168.299 56.1516 167.899 54.5516 168.499C52.2516 169.299 50.2516 168.499 48.0516 168.599C45.9516 168.699 43.9516 169.099 41.8516 169.099C39.9516 169.199 37.9516 168.999 36.0516 168.999C34.2516 168.999 32.4516 169.199 30.6516 169.299C29.5516 169.299 28.4516 169.399 27.3516 169.299C24.2516 169.099 21.2516 168.399 18.1516 168.699C17.7516 168.699 17.3516 168.599 17.0516 168.499C14.6516 168.099 12.2516 167.499 9.85157 167.199C7.55157 166.999 5.65155 165.899 3.95155 164.399C2.85155 163.399 1.85157 162.199 0.851572 160.999C-0.348428 159.499 -0.248452 158.899 0.951548 157.399C1.35155 156.899 1.8516 156.399 2.2516 155.999C4.7516 153.399 7.15156 150.799 9.65156 148.199C11.8516 145.999 13.8516 143.699 16.5516 141.899C18.1516 140.799 19.5516 139.399 21.0516 138.199C21.1516 138.099 21.2515 137.999 21.4515 137.899C25.2515 136.199 28.5516 133.599 32.7516 132.699C33.8516 132.399 35.0516 132.099 36.1516 131.699C36.2516 131.699 36.4516 131.699 36.5516 131.599C37.9516 129.899 40.0516 129.999 41.7516 129.199C42.5516 128.799 43.4516 128.499 44.2516 128.399C47.6516 127.999 50.5515 126.199 53.9515 125.699C55.0515 125.499 56.2516 124.599 57.1516 124.799C58.8516 125.299 60.1516 123.599 61.7516 124.099C61.9516 124.199 62.2516 124.099 62.3516 123.999C63.8516 122.999 65.7516 122.999 67.3516 122.399C68.0516 122.099 68.7516 121.799 69.5516 121.599C71.0516 121.199 72.5516 120.999 74.0516 120.699C75.5516 120.299 76.9515 119.799 78.4515 119.499C79.8515 119.199 81.2516 118.999 82.6516 118.699C83.3516 118.599 84.1516 118.299 84.8516 118.199C86.3516 117.899 87.8516 117.599 89.3516 117.199C90.1516 116.999 91.0516 116.599 91.8516 116.299C92.2516 116.199 92.7516 115.899 93.1516 115.999C96.6516 116.199 99.9516 115.399 103.352 114.599C103.752 114.499 104.152 114.199 104.652 113.999C105.552 113.599 106.452 112.999 107.352 112.999C110.152 113.199 112.652 111.999 115.352 111.499C115.952 111.399 116.552 111.499 117.152 111.399C117.552 111.399 118.152 111.499 118.352 111.299C119.352 110.399 120.652 110.799 121.752 110.599C122.852 110.399 123.952 110.099 125.052 109.899C125.552 109.799 126.152 109.899 126.652 109.799C128.652 109.499 130.552 109.199 132.552 108.899C133.952 108.699 135.452 108.699 136.852 108.499C139.452 108.099 142.052 107.599 144.752 107.099C145.552 106.999 146.352 106.899 147.152 106.899C147.552 106.899 148.052 107.099 148.452 106.999C151.352 106.199 154.352 106.499 157.252 106.599C158.952 106.599 160.552 106.299 162.252 106.299C162.952 106.299 163.752 106.599 164.452 106.699C166.552 106.999 168.652 107.199 170.752 107.599C172.052 107.799 172.452 109.199 172.752 110.099C173.252 111.599 172.552 112.499 171.452 113.199C170.252 113.899 168.952 114.499 168.452 115.999C168.352 116.299 167.852 116.399 167.552 116.599C166.552 117.299 165.252 117.699 164.852 119.199C164.752 119.499 164.452 119.699 164.152 119.899C161.952 121.499 159.852 123.099 157.652 124.699C156.652 125.399 155.752 126.199 154.752 126.699C153.952 127.099 152.952 127.099 152.152 126.999C149.452 126.599 146.752 125.999 143.952 125.499C143.052 125.399 142.052 125.499 141.052 125.599C138.052 125.799 135.052 125.899 132.052 126.199C129.052 126.499 126.152 126.999 123.252 127.399C123.152 127.399 123.052 127.399 122.952 127.399C118.552 127.199 114.452 128.999 110.052 129.499C107.852 129.799 105.552 129.899 103.352 130.299C101.452 130.699 99.3516 130.299 97.5516 131.499C96.8516 131.999 95.6516 131.899 94.7516 132.099C94.0516 132.199 93.3516 132.499 92.6516 132.599C90.6516 132.899 88.6516 133.099 86.6516 133.399C84.4516 133.799 82.1516 134.099 80.0516 135.099C78.6516 135.699 76.8516 135.599 75.2516 135.899C73.3516 136.299 71.4516 136.799 69.5516 137.299C66.5516 137.999 63.6516 138.599 60.6516 139.199C59.9516 139.399 59.2515 139.699 58.4515 139.899C55.8515 140.599 53.2516 141.399 50.5516 142.099C47.8516 142.799 45.0516 143.499 42.3516 144.299C40.4516 144.799 38.5516 145.499 36.6516 146.199C36.8516 146.299 36.8516 146.499 36.8516 146.699Z" fill="#0CE5CA"/>
<path d="M292.351 128.899C293.551 128.799 294.351 128.799 295.051 128.699C295.651 128.699 296.351 128.699 296.951 128.699C299.051 128.699 301.151 128.699 303.251 128.599C303.351 128.599 303.451 128.699 303.451 128.599C305.551 127.499 307.751 129.099 310.051 128.399C311.751 127.899 313.751 128.599 315.651 128.699C317.051 128.699 318.551 128.599 319.951 128.599C320.751 128.599 321.751 128.299 322.251 129.299C322.251 129.399 322.551 129.499 322.651 129.499C323.751 128.899 324.851 129.399 325.851 129.699C326.051 129.699 326.351 129.599 326.551 129.599C327.451 129.499 328.351 129.499 329.251 129.399C329.851 129.399 330.351 129.399 330.951 129.499C331.051 129.299 331.151 129.099 331.251 128.999C331.051 128.799 330.751 128.599 330.351 128.399C331.051 128.399 331.751 128.099 332.351 128.299C333.651 128.899 334.851 128.499 336.051 128.399C337.451 128.299 338.851 128.399 340.151 128.399C341.951 128.399 343.951 127.999 345.651 128.299C348.851 128.799 352.051 127.599 355.351 128.499C356.551 128.799 358.151 128.199 359.451 127.999C361.251 127.799 363.051 127.899 364.651 126.999C364.951 126.899 365.351 126.999 365.751 127.099C366.451 127.199 367.251 127.399 367.951 127.599C368.151 127.999 368.551 128.399 368.751 128.899C368.851 129.199 368.751 129.899 368.551 129.899C367.651 130.299 367.551 130.799 367.851 131.699C367.951 132.099 367.651 132.699 367.351 132.999C366.651 133.799 365.951 134.599 365.151 134.999C363.751 135.799 362.651 137.099 360.951 137.399C360.651 137.399 360.251 137.899 360.151 138.299C359.951 139.699 358.851 140.499 357.351 140.599C356.651 140.599 356.151 141.399 355.451 141.699C354.551 142.099 353.551 142.399 352.751 142.899C351.351 143.799 349.951 144.899 348.551 145.799C347.151 146.699 345.751 147.399 343.951 147.299C340.051 147.199 336.151 147.399 332.151 147.399C330.051 147.399 327.951 147.199 325.851 147.199C325.051 147.199 324.351 147.499 323.551 147.499C319.851 147.499 316.251 147.499 312.551 147.499C308.851 147.499 305.151 147.599 301.551 147.599C298.851 147.599 296.251 147.699 293.551 147.799C293.151 147.799 292.651 148.099 292.251 148.199C292.451 148.599 292.551 148.999 292.751 149.399C293.851 151.099 295.051 152.699 296.151 154.299C297.151 155.799 298.451 157.099 299.251 158.699C300.251 160.599 301.951 161.799 303.051 163.499C303.851 164.599 304.551 165.799 305.151 166.999C305.751 168.099 304.851 170.099 303.751 170.599C302.451 171.199 301.251 171.899 300.651 173.299C300.551 173.499 300.251 173.799 300.151 173.799C298.951 173.399 298.551 174.499 297.951 175.099C296.951 175.999 295.851 176.899 294.751 177.599C292.851 178.899 290.851 180.199 288.851 181.299C287.251 182.199 285.551 182.899 283.851 183.599C283.551 183.699 282.951 183.399 282.551 183.099C280.551 181.499 279.551 178.999 277.951 176.999C277.451 176.399 276.751 175.799 276.251 175.199C275.451 174.199 274.751 173.099 273.951 171.999C272.751 170.299 271.551 168.599 270.351 166.899C268.851 164.799 267.251 162.699 265.851 160.499C264.551 158.499 263.351 156.499 262.151 154.499C261.151 152.899 260.251 151.299 259.351 149.699C259.251 149.499 259.051 149.199 258.951 148.899C258.651 147.899 257.951 147.499 256.851 147.499C254.251 147.499 251.651 147.399 249.051 147.299C246.651 147.299 244.151 147.299 241.751 147.299C237.851 147.299 233.951 147.199 230.051 147.199C228.351 147.199 228.251 147.399 228.851 148.999C229.351 150.399 230.351 151.699 230.651 153.099C231.051 155.099 232.951 156.199 233.451 158.099C233.451 158.299 233.651 158.599 233.851 158.599C235.051 158.799 235.451 159.499 235.851 160.599C236.351 161.999 236.351 162.199 234.751 162.399C234.051 163.799 233.451 165.299 232.751 166.699C232.651 166.799 232.451 166.999 232.351 166.999C231.051 166.999 229.951 168.399 228.451 167.799C228.251 167.699 227.651 168.299 227.651 168.599C227.651 170.199 226.651 170.199 225.351 170.599C223.851 170.999 221.751 171.099 221.051 173.199C220.951 173.399 220.651 173.699 220.451 173.699C219.551 173.699 218.651 173.599 217.751 173.499C217.351 173.499 216.651 173.399 216.551 173.499C216.351 173.899 216.351 174.499 216.351 174.999C216.351 175.199 216.451 175.499 216.651 175.999C216.051 175.799 215.651 175.699 215.351 175.499C214.151 174.499 213.051 173.399 211.251 173.399C210.851 173.399 210.351 172.999 210.151 172.599C209.551 171.399 209.051 170.199 208.451 168.999C208.351 168.799 208.051 168.599 207.951 168.399C207.451 167.799 206.651 167.299 206.351 166.599C205.551 164.599 205.051 162.399 204.251 160.399C203.951 159.699 203.151 159.199 202.651 158.599C201.851 157.699 201.851 156.699 202.051 155.799C201.551 154.699 200.951 153.699 200.551 152.699C199.951 150.999 199.751 149.099 198.851 147.499C198.051 146.199 198.451 144.999 198.351 143.699C198.351 142.099 197.951 140.499 197.751 138.899C197.551 136.599 196.951 134.299 197.251 132.099C197.951 128.299 197.051 124.199 198.951 120.599C199.451 119.599 200.651 118.999 201.551 118.199C201.951 117.899 202.351 117.599 202.651 117.199C202.951 116.899 203.151 116.399 203.551 116.299C205.851 115.399 207.151 113.299 208.951 111.899C210.751 110.399 212.551 108.899 214.351 107.499C215.551 106.599 216.851 105.799 218.151 104.899C219.151 104.199 220.251 104.199 221.051 104.899C221.951 105.699 222.351 106.799 222.051 108.199C221.551 110.999 221.151 113.899 221.051 116.799C220.951 119.499 221.251 122.099 221.451 124.799C221.451 125.599 221.651 126.399 221.651 127.199C221.751 127.999 221.851 128.399 222.851 128.199C223.351 128.099 223.851 128.199 224.351 128.199C224.851 128.199 225.451 128.299 225.851 127.999C226.751 127.399 227.651 127.799 228.451 128.099C229.051 128.299 229.851 128.399 230.351 128.199C231.851 127.599 233.251 127.399 234.851 127.699C236.251 127.899 237.751 127.599 239.151 127.599C241.151 127.599 243.051 127.499 245.051 127.599C246.251 127.599 247.451 127.899 248.551 128.199C249.551 128.499 249.751 128.099 249.551 127.299C249.151 125.599 248.451 123.899 248.151 122.199C247.651 119.399 246.351 116.799 246.751 113.899C246.851 112.899 246.551 111.899 246.551 110.899C246.551 109.599 246.751 108.299 246.751 106.999C246.751 106.799 246.751 106.599 246.751 106.399C246.251 104.199 247.151 102.199 247.851 100.199C248.051 99.599 248.651 98.8991 249.151 98.4991C251.051 97.0991 252.951 95.7991 254.851 94.3991C254.951 94.3991 255.051 94.2991 255.051 94.2991C256.151 91.4991 259.351 90.9991 261.151 88.8991C262.151 87.7991 263.851 87.2991 265.151 86.4991C266.351 85.6991 267.451 84.899 268.651 84.099C269.751 83.399 271.451 84.1991 271.551 85.3991C271.651 86.3991 271.451 87.2991 271.351 88.2991C271.151 90.7991 270.851 93.199 270.751 95.699C270.651 97.199 270.651 98.599 270.751 100.099C270.851 101.599 271.251 103.099 271.551 104.599C271.951 106.499 272.151 108.399 272.751 110.199C273.951 113.699 274.551 117.399 276.351 120.699C277.451 122.699 278.251 124.899 279.251 126.999C279.651 127.899 280.251 128.699 281.551 128.599C282.851 128.499 284.151 128.599 285.451 128.799C286.551 128.999 287.651 129.499 288.751 129.799C289.051 129.899 289.551 129.799 289.751 129.499C291.651 128.199 291.651 128.199 292.351 128.899Z" fill="#0CE5CA"/>
</svg>
