<svg width="134" height="134" viewBox="0 0 134 134" fill="none" xmlns="http://www.w3.org/2000/svg">
<path d="M133.5 67C133.5 103.727 103.727 133.5 67 133.5C30.2731 133.5 0.5 103.727 0.5 67C0.5 30.2731 30.2731 0.5 67 0.5C103.727 0.5 133.5 30.2731 133.5 67Z" fill="#0CE5CA" stroke="#0CE5CA"/>
<path d="M76.8325 108.24L88.3087 22H67.3465C65.7053 24.0372 60.422 27.704 55.2653 30.4203C50.1086 33.1365 42.8967 35.8527 40.0662 36.5317L43.8821 54.1871C45.1694 53.7797 51.0759 51.6067 53.1205 50.656C55.1651 49.7054 58.2592 48.0756 59.0346 47.3966L50.938 108.24H76.8325Z" fill="#27282A"/>
</svg>
