<svg width="154" height="154" viewBox="0 0 154 154" fill="none" xmlns="http://www.w3.org/2000/svg">
<path d="M39.6302 1.43945C64.6702 1.43945 89.7002 1.43945 114.74 1.43945C118 1.99945 117.74 1.92944 119.23 2.23944C138.94 6.27944 152.83 23.2094 152.87 43.3394C152.91 65.8594 152.91 88.3794 152.85 110.899C152.84 113.639 152.61 116.429 152.08 119.109C148.13 138.889 131.14 152.799 110.93 152.829C88.4602 152.869 65.9902 152.869 43.5202 152.799C40.7302 152.789 37.8702 152.619 35.1602 151.999C18.2602 148.109 7.42026 137.749 2.73026 121.029C2.15026 118.969 1.90023 116.809 1.49023 114.699C1.49023 89.6595 1.49023 64.6294 1.49023 39.5894C1.75023 38.0994 1.94025 36.5894 2.29025 35.1194C6.25025 18.2294 16.5802 7.38945 33.2802 2.68945C35.3502 2.09945 35.0002 1.99945 39.6302 1.43945ZM77.1902 139.279C77.1902 139.299 77.1902 139.329 77.1902 139.349C88.1802 139.349 99.1702 139.339 110.16 139.349C113.53 139.349 116.83 138.989 120.04 137.919C131.03 134.259 139.52 123.699 139.43 110.259C139.29 88.1795 139.39 66.0994 139.39 44.0194C139.39 40.6994 139.01 37.4495 137.96 34.2895C134.3 23.2695 123.7 14.8094 110.3 14.8994C88.2202 15.0494 66.1402 14.9395 44.0602 14.9395C40.7402 14.9395 37.4903 15.3194 34.3203 16.3694C23.4003 19.9894 14.8402 30.5394 14.9302 44.0294C15.0802 66.1094 14.9802 88.1894 14.9602 110.269C14.9602 114.049 15.5202 117.699 16.8402 121.259C20.6302 131.479 30.9302 139.089 41.8402 139.249C53.6302 139.409 65.4102 139.279 77.1902 139.279Z" stroke="#25282A" stroke-width="2" stroke-miterlimit="10"/>
<path d="M116.21 77.189C116.18 98.659 98.6401 116.169 77.1801 116.169C55.6501 116.159 38.1001 98.549 38.1701 77.029C38.2401 55.559 55.8101 38.079 77.2701 38.129C98.7401 38.169 116.24 55.729 116.21 77.189ZM102.69 77.089C102.65 62.929 91.2201 51.559 77.1001 51.639C62.9801 51.709 51.7001 63.019 51.6801 77.119C51.6601 91.259 63.0501 102.659 77.1901 102.649C91.3501 102.629 102.73 91.219 102.69 77.089Z" stroke="#25282A" stroke-width="2" stroke-miterlimit="10"/>
<path d="M117.87 46.4189C112.43 46.4389 107.96 41.9989 107.96 36.5889C107.97 31.2089 112.52 26.6789 117.87 26.7289C123.23 26.7789 127.64 31.1789 127.71 36.5289C127.78 41.8989 123.3 46.3989 117.87 46.4189Z" stroke="#25282A" stroke-width="2" stroke-miterlimit="10"/>
</svg>
