<svg width="99" height="24" viewBox="0 0 99 24" fill="none" xmlns="http://www.w3.org/2000/svg">
<path d="M37.005 13.095L36.165 19.725H31.545L32.43 12.84C32.46 12.66 32.46 12.51 32.46 12.36C32.46 11.52 32.07 11.055 31.215 11.055C30.195 11.055 29.685 12.105 29.535 12.585L28.62 19.725H24L25.575 7.41H29.91V9.135C30.42 8.505 31.515 7.125 33.81 7.125C36.105 7.125 37.245 8.625 37.245 10.545C37.26 11.43 37.08 12.45 37.005 13.095Z" fill="#0DFF9A" stroke="#0DFF9A" stroke-width="0.25" stroke-miterlimit="10"/>
<path d="M48.1201 14.3694C46.8451 14.9994 44.9401 15.2544 43.0201 15.2544C43.0201 15.8844 43.53 16.6494 45.06 16.6494C46.59 16.6494 48.1201 15.8394 48.4951 15.5844L49.8001 18.2843C48.7801 19.1693 46.7101 19.9943 44.1601 19.9943C41.6101 19.9943 38.415 18.8245 38.415 14.3544C38.415 9.8844 41.73 7.10938 45.42 7.10938C49.11 7.10938 50.4151 8.99937 50.4151 10.9044C50.4451 12.8394 49.3951 13.7244 48.1201 14.3694ZM44.9851 10.1844C44.4751 10.1844 43.2301 10.6644 43.0651 12.6894C43.0651 12.6894 44.1151 12.5844 44.7301 12.4344C45.3451 12.2844 46.08 11.9544 46.08 11.1894C46.08 10.4244 45.4951 10.1844 44.9851 10.1844Z" fill="#0DFF9A" stroke="#0DFF9A" stroke-width="0.25" stroke-miterlimit="10"/>
<path d="M60.031 13.4982L63.091 19.7231H58.0959L56.851 15.9282L54.586 19.7231H49.666L54.406 13.4982L51.466 7.4082H56.431L57.556 11.0832L59.4909 7.4082H64.411L60.031 13.4982Z" fill="#0DFF9A" stroke="#0DFF9A" stroke-width="0.25" stroke-miterlimit="10"/>
<path d="M72.9903 10.695H70.3953L69.9303 14.235C69.8553 14.745 69.8103 15.12 69.8103 15.63C69.8103 16.14 69.9903 16.365 70.7553 16.365C71.5203 16.365 72.1053 16.245 72.1053 16.245V19.455C71.7453 19.635 70.3203 19.995 68.4153 19.995C66.5103 19.995 65.0553 19.08 65.0553 17.16C65.0553 16.53 65.1303 15.765 65.2353 15L65.8053 10.695H64.3203L64.7553 7.41H66.2553L67.1253 4.5H71.2353L70.8603 7.41H73.4552L72.9903 10.695Z" fill="#0DFF9A" stroke="#0DFF9A" stroke-width="0.25" stroke-miterlimit="10"/>
</svg>
