<svg width="1008" height="226" viewBox="0 0 1008 226" fill="none" xmlns="http://www.w3.org/2000/svg">
<path d="M76.981 187.791C77.581 188.491 78.201 189.221 78.871 190.001C80.191 189.071 81.401 187.901 82.841 187.321C84.301 186.731 85.991 186.691 87.591 186.441C88.701 186.271 89.5811 185.791 90.3811 184.981C90.9611 184.391 91.761 184.011 92.581 183.461C93.151 184.121 93.621 184.661 94.271 185.411C101.321 184.311 108.531 182.991 115.841 184.281C116.551 186.431 115.321 187.781 114.241 189.031C113.201 190.241 111.851 191.181 110.641 192.251C109.941 192.871 109.121 192.941 108.231 192.931C105.221 192.901 102.201 192.921 99.191 192.971C98.231 192.991 97.261 193.141 96.311 193.281C95.901 193.341 95.5211 193.531 94.9911 193.711C95.1411 194.401 95.261 195.001 95.391 195.591C97.451 196.051 99.371 195.651 101.301 195.581C102.911 195.521 104.521 195.531 106.121 195.621C106.741 195.651 107.371 195.931 107.951 196.191C108.721 196.541 108.951 197.381 108.421 198.081C107.451 199.361 106.481 200.661 105.371 201.811C103.531 203.701 103.481 203.631 100.591 204.011C99.651 204.131 98.7211 204.331 97.7111 204.511C97.5711 206.661 98.301 208.461 98.971 210.251C99.701 212.161 100.581 214.021 101.301 215.931C101.511 216.481 101.561 217.231 101.371 217.771C100.591 219.941 96.901 223.421 94.201 224.601C92.731 223.231 91.511 221.631 90.921 219.631C89.951 216.321 89.0811 212.991 88.1311 209.681C87.7511 208.361 87.771 206.901 86.791 205.671C84.341 205.841 81.821 206.691 79.671 204.771C78.101 205.231 76.7911 206.061 75.9111 207.271C74.5811 209.101 72.801 209.821 70.701 210.101C70.071 210.181 69.461 210.351 68.891 210.471C68.621 211.491 69.361 211.721 69.901 211.941C74.241 213.701 78.661 215.001 83.641 213.801C83.691 214.421 83.891 214.951 83.731 215.351C83.421 216.141 83.0211 216.951 82.4611 217.571C80.9611 219.261 79.381 220.881 77.791 222.481C76.721 223.551 75.2811 223.781 73.8811 223.681C70.1111 223.401 66.411 222.701 62.871 221.291C58.991 219.751 56.221 216.991 54.141 213.461C53.541 212.441 52.9511 211.401 52.4611 210.331C50.4411 205.891 50.121 201.421 52.331 196.931C52.421 196.751 52.401 196.521 52.441 196.291C52.231 195.631 51.631 195.671 51.121 195.671C50.151 195.671 49.191 195.771 48.221 195.801C47.511 195.821 46.5611 196.191 46.2711 195.231C46.1111 194.721 46.341 193.951 46.651 193.461C47.991 191.381 49.4411 189.401 51.3211 187.721C52.6311 186.551 54.041 185.991 55.691 185.981C57.411 185.971 59.1311 186.061 60.8511 186.161C66.2311 186.521 71.631 186.601 76.981 187.791ZM81.271 202.501C82.661 200.781 83.741 199.451 84.811 198.121C85.421 197.361 85.461 196.521 85.011 195.711C84.541 194.871 83.751 195.081 83.011 195.271C82.591 195.381 82.181 195.521 81.761 195.581C79.761 195.831 77.8411 196.651 75.8511 196.521C75.3711 196.071 74.991 195.711 74.611 195.361C73.871 195.581 73.161 195.871 72.441 195.971C71.701 196.071 70.941 195.981 70.191 195.951C67.611 195.851 65.0411 195.721 62.4611 195.651C61.4111 195.621 60.3011 195.351 59.1311 196.241C59.2511 198.231 59.421 200.291 60.791 201.891C63.301 201.781 65.541 201.711 67.791 201.591C69.931 201.481 72.081 201.331 74.221 201.211C76.431 201.081 78.591 200.341 80.791 200.601C80.941 201.171 81.041 201.571 81.271 202.501Z" fill="#0DFF9A"/>
<path d="M125.84 204.531C125.83 204.211 125.89 203.871 125.79 203.591C124.81 200.831 125.7 198.601 127.51 196.461C129.19 194.481 130.98 192.631 133.04 191.051C134.31 190.071 135.22 190.001 136.57 190.951C137.71 191.751 138.77 192.681 139.78 193.651C144.69 198.351 149.99 202.581 155.55 206.481C155.97 206.771 156.46 206.971 156.85 207.171C157.59 206.611 157.25 206.071 157.1 205.611C156.27 203.041 155.71 200.431 155.36 197.751C155.04 195.241 155.4 193.061 157.24 191.201C157.99 190.441 158.57 189.511 159.25 188.681C160.06 187.701 161.21 187.141 163.28 186.701C163.47 188.401 163.67 190.091 163.86 191.791C163.93 192.431 163.9 193.101 164.08 193.711C165.36 197.811 166.68 201.901 168 205.991C168.2 206.601 168.39 207.241 168.74 207.771C170.08 209.791 170.49 212.141 171.27 214.371C172.02 216.511 171.33 218.281 169.98 219.721C168.45 221.361 166.63 222.731 164.88 224.151C163.82 225.021 162.64 224.781 161.56 224.121C159.25 222.731 156.89 221.411 154.68 219.871C149.99 216.611 145.4 213.221 140.74 209.911C139.89 209.311 139.18 208.411 137.8 208.261C137.78 208.841 137.69 209.341 137.75 209.811C137.86 210.661 138.09 211.491 138.21 212.341C138.35 213.351 138.06 214.251 137.36 215.021C135.92 216.621 134.5 218.241 133.06 219.841C132.85 220.081 132.58 220.281 132.31 220.451C131.42 221.031 130.27 220.751 129.89 219.751C129.47 218.651 129.15 217.501 128.89 216.361C128.56 214.911 128.34 213.431 128.08 212.041C127.26 211.611 127.02 212.241 126.71 212.601C125.5 213.971 124.37 215.421 123.13 216.761C122.13 217.831 121.08 217.951 120.01 217.011C119.22 216.321 118.48 215.461 117.99 214.541C115.82 210.431 114.32 206.041 113.03 201.581C112.34 199.201 112.77 197.091 114.44 195.271C115.89 193.681 117.36 192.121 118.87 190.591C119.39 190.061 120.04 189.601 121.12 190.071C121.99 194.991 123.08 200.011 125.84 204.531Z" fill="#0DFF9A"/>
<path d="M9.43009 193.03C7.31009 192.44 5.0401 191.8 2.7701 191.18C2.2501 191.04 1.7001 191 1.2001 190.83C0.460097 190.58 0.0300984 189.52 0.530098 188.97C2.3401 186.99 3.28009 184.37 5.40009 182.61C6.23009 181.92 7.0101 181.58 8.0201 181.73C8.5501 181.8 9.08011 181.93 9.60011 182.07C18.9801 184.59 28.1401 187.74 36.8501 192.08C38.8701 193.09 40.8401 194.23 42.7101 195.5C44.0301 196.4 45.2301 197.53 46.3201 198.71C48.0801 200.62 48.4001 202.9 47.6101 205.35C47.0101 207.22 46.0401 208.89 44.7501 210.37C43.9701 211.26 43.1401 212.12 42.3401 212.98C38.5401 217.06 33.8401 219.11 28.2701 219.12C26.5501 219.12 24.8301 219.04 23.1101 218.93C21.9701 218.86 21.1601 218.27 20.5501 217.23C19.6801 215.74 18.9001 214.25 18.3501 212.6C16.5201 207.05 13.9601 201.84 10.9801 196.82C10.4001 195.82 10.0901 194.66 9.43009 193.03ZM27.5601 208.88C30.0701 210.14 32.6401 209.93 35.2001 209.52C36.5401 209.3 38.0001 209.32 39.1401 207.93C37.4501 204.94 34.5401 203.45 31.7701 201.95C29.6101 200.78 27.4901 199.22 24.6501 199.19C25.6501 202.5 26.5701 205.56 27.5601 208.88Z" fill="#0DFF9A"/>
<path d="M191.391 211.27C196.221 214.42 200.371 217.07 205.931 216.57C205.691 217.37 205.681 218.1 205.321 218.48C203.391 220.5 201.421 222.49 199.351 224.36C198.161 225.43 196.581 225.59 195.071 225.18C193.311 224.7 191.511 224.23 189.891 223.43C187.191 222.1 184.561 220.62 182.021 219.01C179.641 217.5 177.681 215.49 176.201 213.06C175.481 211.88 174.501 210.82 173.971 209.56C173.491 208.4 173.521 207.04 173.221 205.79C172.361 202.21 172.931 198.97 175.371 196.12C175.641 195.8 175.841 195.43 176.051 195.11C175.691 194.35 175.121 194.57 174.651 194.66C174.021 194.78 173.421 195.05 172.791 195.15C172.521 195.19 172.111 195.04 171.941 194.83C171.781 194.64 171.741 194.18 171.871 193.97C172.291 193.23 172.741 192.47 173.301 191.84C174.441 190.55 175.601 189.26 176.861 188.09C178.551 186.52 180.491 185.42 182.891 185.32C183.961 185.27 185.041 185.09 186.111 185.1C189.981 185.12 193.861 185.2 197.731 185.24C199.301 185.26 200.711 185.59 201.721 187.14C200.521 189.14 198.451 190.43 197.001 192.28C196.671 192.7 195.861 192.87 195.241 192.93C194.171 193.05 193.091 192.96 192.011 193.04C189.121 193.24 186.221 193.47 183.331 193.72C183.031 193.75 182.761 193.99 182.391 194.17C181.781 196.56 182.421 198.79 183.331 201.22C189.851 202.71 196.531 202.09 203.411 202.4C203.141 203.26 203.121 204.12 202.681 204.58C200.901 206.44 199.041 208.22 197.111 209.92C196.591 210.37 195.741 210.48 195.011 210.65C194.071 210.85 193.121 210.97 191.391 211.27Z" fill="#0DFF9A"/>
<path d="M331.28 201.89C332.43 202.08 333.58 202.31 334.74 202.46C338.26 202.92 341.79 203.35 345.31 203.81C347.33 204.08 347.52 204.17 349.18 205.28C348.83 206.97 347.58 208.04 346.31 208.99C342.02 212.19 342 212.19 336.52 211.82C333.94 211.65 331.38 211.3 328.8 211.09C327.42 210.98 326.03 211.01 324.4 210.98C324.49 211.77 324.41 212.43 324.65 212.93C325.53 214.77 324.86 216.25 323.75 217.68C322.34 219.49 320.41 220.67 318.55 221.93C317.95 222.34 317.23 222.02 316.82 221.5C316.37 220.91 316.06 220.21 315.77 219.52C314.65 216.84 313.52 214.16 312.47 211.45C311.76 209.62 310.89 207.92 309.66 206.78C309.44 205.13 309.32 203.77 309.08 202.42C308.63 199.88 308.02 197.36 307.65 194.81C307.32 192.58 307.07 190.31 308.38 187.95C307.62 187.85 307.1 187.65 306.66 187.76C304.78 188.22 302.92 188.76 301.06 189.29C300.56 189.43 300.08 189.61 299.65 189.75C299 189.04 299.19 188.41 299.52 187.85C302 183.6 305.39 180.55 310.31 179.29C319.67 176.89 328.46 178.3 336.8 182.97C338 183.64 339.05 184.62 340.05 185.57C341.93 187.36 342.09 189.53 341.02 191.78C340.56 192.74 339.97 193.66 339.28 194.48C337.47 196.63 335.34 198.45 333.03 200.05C332.43 200.47 331.81 200.86 331.19 201.26C331.21 201.46 331.25 201.67 331.28 201.89ZM330.82 193.98C327.4 190.24 321.12 187.65 317.09 188.07C316.95 191.21 317.81 194.96 319.2 196.91C322.96 196.07 326.9 195.68 330.82 193.98Z" fill="#0DFF9A"/>
<path d="M251.55 220.02C246.99 219.8 242.571 218.61 238.421 216.37C235.951 215.04 234.151 213.06 233.011 210.57C231.921 208.21 232.041 205.69 233.221 203.4C234.891 200.14 236.85 197.05 239.37 194.34C240.79 192.82 242.441 191.64 244.321 190.79C245.441 190.28 246.281 189.56 246.971 188.53C247.621 187.55 248.441 186.68 249.231 185.8C250.791 184.06 252.801 183.51 255.071 183.72C261.061 184.27 265.601 187.2 268.821 192.21C270.631 195.03 271.14 198.09 270.75 201.45C270.33 205.13 268.861 208.26 266.691 211.13C265.461 212.76 264.111 214.31 262.761 215.84C260.601 218.29 257.931 219.74 254.601 219.84C253.621 219.87 252.65 219.95 251.55 220.02ZM250.77 193.63C249.19 195.26 247.8 196.73 246.37 198.15C245.68 198.83 244.931 199.31 243.791 199.08C243.131 198.94 242.33 199.27 241.65 199.53C239.99 200.17 239.66 201.28 240.62 202.85C241.6 204.45 243.03 205.57 244.65 206.48C249.05 208.97 253.771 210.22 258.821 210.19C262.371 210.17 263.15 209.38 262.99 205.79C262.96 205.15 262.84 204.5 262.65 203.9C261.12 199.21 257.881 196.1 253.421 194.21C252.561 193.86 251.57 193.8 250.77 193.63Z" fill="#0DFF9A"/>
<path d="M281.37 188.11C282.35 188.73 282.4 189.53 282.11 190.43C281.65 191.86 281.16 193.29 280.74 194.73C279.24 199.77 280.57 202.93 285.39 205.33C286.93 206.09 288.55 206.71 290.19 207.22C291.18 207.53 292.27 207.51 293.39 207.65C294.11 205.95 293.75 204.45 293.22 203.1C292.4 201 291.35 199 290.35 196.97C289.92 196.1 289.33 195.31 288.92 194.44C288.27 193.06 288.46 191.73 289.29 190.46C290.06 189.3 290.79 188.11 291.52 186.92C292.38 185.52 293.32 184.23 295.08 183.82C295.34 184.03 295.72 184.18 295.81 184.43C296.95 187.68 298.66 190.66 300.22 193.71C301.26 195.74 301.95 197.89 302.22 200.15C302.73 204.33 300.95 207.71 298.35 210.75C297.37 211.89 296.23 212.89 295.18 213.98C292.11 217.18 288.33 217.85 284.18 216.97C281.42 216.38 278.9 215.26 276.51 213.69C272.96 211.36 271.51 208.11 271.9 204.05C272.3 199.93 273.26 195.97 276.38 192.89C276.91 192.37 277.25 191.66 277.71 191.07C278.7 189.75 279.82 188.61 281.37 188.11Z" fill="#0DFF9A"/>
<path d="M447.98 205.67C448.07 204.78 448.24 204.07 448.18 203.38C447.96 200.81 447.67 198.25 447.4 195.68C447.38 195.47 447.34 195.25 447.34 195.04C447.25 191.87 450.25 186.52 452.98 184.98C453.59 184.64 454.31 184.93 454.51 185.63C454.68 186.25 454.81 186.89 454.91 187.53C455.56 191.68 456.2 195.83 456.83 199.98C456.99 201.04 457 202.14 457.23 203.18C457.99 206.63 456.3 209.22 454.3 211.69C453.56 212.61 452.61 213.36 451.86 214.27C450.83 215.53 449.51 216.1 447.93 216.19C445.97 216.31 444.05 216.12 442.19 215.5C437.36 213.87 432.75 211.82 429.11 208.08C428.97 207.94 428.73 207.9 428.41 207.76C428.29 208.92 428.34 210.09 428.02 211.14C427.69 212.25 427.14 213.37 426.44 214.29C425.21 215.92 423.93 217.54 422.43 218.91C420.8 220.4 418.62 220.98 416.46 221.1C413.67 221.25 410.85 221.31 408.08 221.01C403.78 220.55 399.65 219.38 395.97 216.91C395.07 217.46 394.25 217.95 393.41 218.46C392.06 217.92 391.82 216.7 391.5 215.61C390.52 212.31 389.6 208.99 388.65 205.67C388.5 205.15 388.33 204.64 388.2 204.12C387.73 202.26 386.86 200.75 384.93 200.05C384.55 199.91 384.27 199.53 383.93 199.25C383.91 198.9 383.76 198.51 383.89 198.28C384.95 196.41 385.08 194.48 384.64 192.41C384.4 191.28 384.46 190.09 384.37 188.73C376.92 186.88 369.22 186.33 362.2 183.59C361.43 182.55 361.53 181.61 362.06 180.73C362.95 179.26 363.9 177.82 364.89 176.41C365.25 175.89 365.79 175.5 366.25 175.06C367.05 174.31 367.98 174.29 368.97 174.57C369.18 174.63 369.39 174.68 369.58 174.78C373.74 177.02 378.39 177.44 382.9 178.43C389.2 179.81 395.6 180.59 401.92 181.8C406.56 182.68 411.32 182.97 416.02 183.52C416.75 183.61 417.48 183.67 418.12 183.74C418.94 184.91 418.71 185.95 418.19 186.93C416.96 189.24 415.03 191 413.28 192.89C412.9 193.29 412.12 193.43 411.51 193.47C410.22 193.57 408.93 193.51 407.63 193.56C406.77 193.59 405.91 193.66 405.06 193.76C404.54 193.82 404.03 193.99 403.52 194.12C403.65 195.23 404.49 195.33 405.14 195.55C406.86 196.16 408.62 196.67 410.36 197.25C415.79 199.07 420.98 201.39 425.75 204.6C426 204.77 426.31 204.86 426.74 205.06C426.6 203.47 426.46 202.01 426.36 200.56C426.21 198.34 426.74 196.3 428.08 194.48C429.36 192.75 430.37 190.82 432.09 189.45C432.42 189.19 432.77 188.96 433.15 188.69C434.11 189.26 434.19 190.19 434.07 190.96C433.35 195.65 435.69 198.73 439.18 201.36C441.79 203.31 444.53 204.88 447.98 205.67ZM416.75 211.9C414.01 209.42 411.08 208.42 408.23 207.33C401.84 204.89 400.63 204.62 398.81 204.8C398.55 205.9 399.11 206.69 399.9 207.29C400.58 207.81 401.33 208.26 402.11 208.6C405.96 210.29 409.97 211.46 414.14 212.02C414.82 212.12 415.53 211.97 416.75 211.9Z" fill="#0DFF9A"/>
<path d="M518.81 181.551C520.64 182.681 518.7 184.751 520.23 186.181C522.09 186.441 524.21 186.401 526.35 186.141C530.62 185.621 534.9 185.171 539.17 184.711C539.67 184.661 540.18 184.701 540.96 184.701C540.51 186.911 539.35 188.381 538.09 189.781C535.94 192.181 533.46 193.751 530.03 193.751C527.58 193.751 525.13 194.291 522.68 194.621C522.06 194.701 521.45 194.891 520.89 195.021C520.51 200.031 523.24 208.371 526.69 212.901C526.78 213.901 526.36 214.741 525.69 215.491C523.83 217.551 521.96 219.601 519.52 221.111C517.45 219.751 516.08 217.981 515.39 215.781C514.46 212.811 513.64 209.791 512.91 206.771C512.23 203.951 511.74 201.081 511.14 198.241C511.01 197.611 510.79 197.011 510.56 196.211C509.86 196.121 509.14 195.951 508.42 195.941C505.95 195.911 503.47 195.991 501 195.921C498.43 195.841 495.83 195.781 493.4 194.271C493.46 193.891 493.39 193.411 493.59 193.101C494.97 190.901 496.66 188.961 498.62 187.251C499.92 186.121 501.32 185.591 503.07 186.201C505.89 187.181 508.83 186.761 511.72 186.811C512.81 186.831 513.49 186.181 514.13 185.411C515.46 183.851 516.85 182.361 518.81 181.551Z" fill="#0DFF9A"/>
<path d="M504.48 205.47C504.54 207.07 504.11 208.19 503.16 209.15C501.72 210.6 500.29 212.06 498.88 213.54C497.38 215.11 495.44 215.74 493.38 215.96C489.02 216.43 485 215.48 481.61 212.6C480.57 211.72 479.63 210.58 478.99 209.38C477.51 206.62 476.55 203.64 476.26 200.49C475.96 197.25 476.73 194.28 478.74 191.7C479.8 190.34 480.88 189 482.02 187.71C482.8 186.83 483.71 186.08 484.99 185.42C485.23 185.99 485.54 186.42 485.58 186.87C485.63 187.5 485.53 188.16 485.4 188.79C484.52 192.99 485.43 196.92 487.28 200.66C489.52 205.18 494.44 207.36 498.78 206.76C500.15 206.57 501.48 206.08 502.84 205.75C503.31 205.64 503.8 205.58 504.48 205.47Z" fill="#0DFF9A"/>
<path d="M477.32 207.06C476.98 208.69 476.37 210.04 475.24 211.11C473.83 212.44 472.43 213.78 470.97 215.05C470.09 215.82 469.21 215.73 468.48 214.7C467.55 213.39 466.55 212.05 465.99 210.57C464.43 206.44 463.09 202.24 461.65 198.06C460.73 195.39 461.16 192.99 462.99 190.81C464.44 189.08 465.65 187.14 467.51 185.77C467.85 185.52 468.22 185.29 468.6 185.09C469.08 184.85 469.79 185.18 469.89 185.68C469.95 185.99 470.02 186.32 470.01 186.64C469.93 189.28 470.72 191.75 471.58 194.19C471.72 194.6 471.87 195 472.02 195.41C473.42 199.47 474.7 203.59 477.32 207.06Z" fill="#0DFF9A"/>
<path d="M767.799 211.961C767.439 212.161 767.129 212.251 766.929 212.451C764.999 214.321 762.999 216.121 761.169 218.091C757.029 222.561 746.469 223.781 740.289 220.141C735.089 217.081 733.259 210.531 737.489 205.521C739.289 203.391 741.179 201.321 743.069 199.191C742.499 198.681 742.209 199.381 741.799 199.471C741.389 199.561 740.999 199.791 740.589 199.901C739.919 200.081 739.259 199.421 739.469 198.761C739.629 198.251 739.789 197.701 740.109 197.301C741.469 195.631 742.779 193.901 744.309 192.401C748.789 188.011 754.089 187.341 759.829 189.401C762.799 190.461 765.409 192.161 767.559 194.451C768.639 194.341 768.979 193.411 769.599 192.881C770.249 192.321 770.799 191.651 771.389 191.021C772.719 189.601 774.099 188.261 775.819 187.291C776.759 186.761 777.659 186.691 778.559 187.281C779.459 187.871 780.339 188.501 781.169 189.171C787.719 194.431 794.259 199.701 800.819 204.951C801.379 205.401 802.049 205.731 802.629 206.091C803.569 205.351 803.149 204.611 802.939 203.941C802.159 201.361 801.349 198.801 800.569 196.221C800.259 195.191 800.009 194.141 799.679 193.121C799.129 191.421 799.639 189.921 800.549 188.531C801.309 187.361 802.139 186.251 802.959 185.121C804.179 183.461 804.539 183.211 806.979 182.391C807.269 182.881 807.729 183.361 807.859 183.931C809.219 189.701 811.329 195.251 812.909 200.951C814.169 205.511 814.999 210.181 816.029 214.801C816.409 216.521 816.039 218.031 814.709 219.211C812.869 220.851 810.989 222.461 809.099 224.051C808.319 224.701 807.499 224.591 806.749 223.971C805.169 222.671 803.659 221.281 802.029 220.051C797.299 216.491 792.499 213.021 787.769 209.451C785.189 207.511 782.699 205.441 780.149 203.461C779.319 202.811 778.419 202.251 777.689 201.741C776.759 202.011 776.779 202.571 776.729 203.101C776.709 203.311 776.729 203.531 776.729 203.751C776.839 209.151 776.869 209.271 779.489 214.471C780.619 216.711 780.529 217.921 778.819 219.651C777.459 221.021 775.959 222.261 774.459 223.481C773.529 224.241 772.799 224.171 771.889 223.281C771.279 222.691 770.719 222.011 770.299 221.281C769.209 219.391 768.629 217.331 768.409 215.151C768.289 214.111 768.429 213.011 767.799 211.961ZM751.069 197.661C749.899 198.421 748.769 199.041 747.759 199.831C746.749 200.611 745.869 201.551 744.929 202.421C743.969 203.321 743.809 204.461 743.979 205.681C744.399 208.721 746.199 210.721 748.839 212.061C752.259 213.791 755.899 213.691 759.569 213.321C760.569 213.221 761.039 212.581 761.279 211.661C762.309 207.711 761.489 204.211 758.719 201.201C756.639 198.931 753.909 198.091 751.069 197.661Z" fill="#0DFF9A"/>
<path d="M939.899 194.581C941.099 193.511 942.139 192.581 943.179 191.661C943.579 191.301 943.959 190.921 944.389 190.591C948.919 187.101 948.359 187.351 954.109 187.861C959.259 188.321 964.429 188.611 969.599 188.781C973.799 188.911 978.009 188.801 982.209 188.701C984.249 188.651 986.289 188.371 988.319 188.171C990.699 187.941 992.999 187.421 994.989 185.971C995.239 185.791 995.579 185.711 995.889 185.651C996.739 185.481 997.679 186.421 997.399 187.251C997.169 187.941 996.829 188.691 996.309 189.161C994.239 191.051 992.089 192.851 989.639 194.241C987.829 195.271 985.819 195.681 983.799 196.031C979.959 196.701 976.089 196.851 972.199 196.841C970.039 196.841 967.929 197.141 965.679 197.301C965.719 199.751 966.829 201.611 967.759 203.501C970.029 208.151 972.849 212.501 975.429 216.971C975.749 217.521 975.999 218.101 976.229 218.561C975.599 220.921 973.889 222.021 972.039 222.961C970.699 223.641 969.339 224.271 967.799 225.021C966.789 225.031 966.029 224.231 965.469 223.301C962.429 218.221 959.119 213.281 956.729 207.841C955.559 205.181 954.699 202.391 955.139 199.381C955.229 198.751 955.149 198.101 955.149 197.301C954.509 197.111 953.939 196.811 953.349 196.781C950.339 196.631 947.319 196.541 944.299 196.471C943.659 196.451 943.009 196.561 942.379 196.691C941.879 196.791 941.389 197.021 940.739 197.241C940.859 197.881 940.909 198.391 941.059 198.881C942.009 202.081 942.929 205.291 943.949 208.471C944.569 210.411 945.309 212.331 946.089 214.221C946.509 215.251 946.399 216.141 945.729 216.931C944.819 217.991 943.889 219.061 942.849 219.981C941.799 220.901 940.609 221.661 939.449 222.451C938.389 223.171 937.309 223.291 936.119 222.641C932.429 220.631 928.709 218.681 924.999 216.701C923.489 215.891 921.979 215.081 920.379 214.221C918.369 216.351 915.439 216.931 913.539 219.061C913.039 219.621 912.019 219.491 911.469 218.961C911.089 218.591 910.739 218.161 910.479 217.701C909.579 216.111 908.569 214.551 907.869 212.871C906.419 209.391 904.799 206.011 903.099 202.641C900.979 198.441 901.779 198.251 904.229 195.551C905.169 194.521 906.219 193.561 907.299 192.681C908.289 191.871 909.399 191.201 910.339 190.541C912.169 190.601 912.989 191.801 913.729 192.971C915.129 195.191 916.999 196.961 918.839 198.791C922.319 202.251 926.509 204.701 930.669 207.191C930.929 207.341 931.269 207.341 931.819 207.471C931.849 206.891 932.009 206.371 931.869 205.951C931.139 203.701 930.339 201.471 929.569 199.231C929.329 198.521 929.039 197.811 928.909 197.071C928.709 195.991 928.669 194.851 929.439 193.981C931.519 191.651 933.599 189.301 936.529 187.961C936.709 187.881 936.949 187.931 937.329 187.911C938.519 189.851 938.119 192.491 939.899 194.581Z" fill="#0DFF9A"/>
<path d="M610.26 207.66C609.57 208.53 609.99 209.52 610.04 210.44C610.11 211.71 609.76 212.79 608.93 213.7C607.78 214.98 606.63 216.27 605.36 217.43C604.28 218.42 603.05 218.23 602.39 216.95C601.8 215.82 601.42 214.57 601.06 213.34C600.64 211.91 600.46 210.4 599.5 209.15C598.75 209.1 598.76 209.8 598.54 210.19C596.98 212.94 594.91 215.27 592.69 217.47C586.28 223.82 575.71 220.76 573.03 213.08C572.46 211.46 572.03 209.78 571.51 208.14C571.29 207.44 571.01 206.77 570.75 206.08C569.53 206.16 568.47 206.26 567.42 206.28C566.87 206.29 566.47 205.66 566.62 205.12C566.73 204.71 566.85 204.28 567.07 203.93C567.52 203.2 567.98 202.46 568.53 201.8C570.18 199.81 571.05 197.6 570.95 194.97C570.88 193.07 571.61 191.39 572.75 189.89C573.46 188.94 574.11 187.94 574.84 187.02C575.66 185.99 576.54 185.06 578.11 185.55C578.46 185.66 578.97 185.47 579.33 185.28C581.11 184.31 583.03 184.24 584.99 184.25C587.79 184.26 590.59 184.19 593.39 184.22C594.46 184.23 595.54 184.39 596.6 184.53C597 184.59 597.39 184.8 597.76 184.94C598.41 186.42 597.64 187.61 596.99 188.62C596.26 189.77 595.15 190.69 594.16 191.66C593.2 192.61 592.04 192.95 590.65 192.98C587.53 193.05 584.41 193.3 581.3 193.49C580.87 193.52 580.39 193.48 580.04 193.68C579.62 193.91 579.18 194.29 579 194.72C578.78 195.24 579.46 195.76 580.36 195.64C583.99 195.18 587.61 194.67 591.23 194.16C592.08 194.04 592.91 193.78 593.77 193.66C594.86 193.52 595.52 194.26 595.12 195.2C594.7 196.18 594.28 197.22 593.62 198.04C592.54 199.37 591.32 200.61 590.04 201.75C589.51 202.22 588.71 202.44 587.99 202.63C586.43 203.03 584.83 203.3 583.26 203.68C582.55 203.85 581.87 204.13 581.01 204.41C581.64 207.91 583.82 209.81 586.87 210.64C588.49 211.08 590.29 211 591.99 210.92C592.78 210.88 593.64 210.41 594.29 209.9C595.72 208.77 597.03 207.49 598.52 206.16C598.4 205.4 598.28 204.56 598.13 203.74C597.9 202.47 597.62 201.21 597.42 199.93C597.24 198.74 597.32 197.54 597.96 196.48C599.48 193.99 601.22 191.66 603.41 189.71C604.4 188.83 605.25 188.82 606.32 189.58C606.76 189.89 607.18 190.24 607.53 190.65C609.72 193.23 612.41 195.2 615.32 196.87C619.8 199.44 624.33 201.93 628.85 204.43C629.11 204.57 629.45 204.58 629.97 204.7C630 203.42 629.7 202.33 629.4 201.22C628.98 199.66 628.51 198.11 628.23 196.52C628.07 195.59 627.93 194.44 628.33 193.68C629.66 191.13 630.86 188.43 633.43 186.77C634.47 186.09 635.35 186.35 635.67 187.53C636.19 189.4 636.66 191.27 637.12 193.15C638.3 198.02 640.52 202.43 643.14 206.66C643.25 206.84 643.39 207.01 643.5 207.2C645.85 210.96 645.85 211.47 643.07 214.86C642.12 216.02 641.02 217.05 639.99 218.16C639.02 219.21 637.89 219.59 636.49 219.14C634.85 218.6 633.19 218.16 631.57 217.56C627.02 215.89 622.64 213.85 618.43 211.42C616.01 210.03 613.45 208.89 610.94 207.65C610.73 207.54 610.48 207.64 610.26 207.66Z" fill="#0DFF9A"/>
<path d="M853.639 216.5C852.319 220.55 849.019 222.27 846.079 224.33C844.899 225.15 843.549 224.94 842.439 224.12C840.449 222.65 838.409 221.21 836.619 219.53C834.899 217.92 833.489 215.99 831.899 214.23C831.069 213.31 830.519 212.08 829.069 211.42C828.619 212.93 828.729 214.33 828.899 215.65C829.089 217.07 828.619 218.22 827.899 219.29C826.379 221.57 824.159 223.11 821.879 224.54C821.549 224.75 821.059 224.69 820.589 224.76C819.589 223.52 819.659 222.14 819.709 220.74C819.859 217.19 820.089 213.63 820.069 210.08C820.059 206.53 819.799 202.98 819.629 199.43C819.589 198.57 819.459 197.71 819.399 196.85C819.219 194.08 819.549 191.59 821.899 189.54C823.509 188.14 824.799 186.36 826.649 185.21C827.529 184.67 828.379 184.73 828.909 185.58C829.539 186.57 830.129 187.63 830.469 188.74C832.829 196.31 837.419 202.53 842.369 208.52C842.619 208.82 843.009 209 843.329 209.22C844.259 208.46 843.929 207.53 843.959 206.72C844.129 202.52 844.419 198.33 845.259 194.2C845.409 193.49 845.609 192.66 846.089 192.17C847.969 190.25 849.969 188.45 851.939 186.62C852.249 186.33 852.649 185.97 853.019 185.96C853.489 185.94 854.179 186.11 854.399 186.44C854.799 187.05 854.989 187.82 855.149 188.55C857.309 198.36 861.489 207.29 866.949 215.65C867.999 217.26 869.329 218.69 870.529 220.21C869.749 222.88 867.799 223.98 865.399 224.55C864.769 224.7 864.149 224.84 863.519 225C861.149 225.59 859.269 224.76 857.859 222.88C856.829 221.5 855.949 220.01 855.009 218.58C854.619 217.96 854.209 217.36 853.639 216.5Z" fill="#0DFF9A"/>
<path d="M702.649 209.431C702.679 208.981 702.649 208.851 702.699 208.771C703.609 207.101 703.339 205.571 702.459 203.921C701.149 201.451 700.269 198.801 699.519 196.091C699.019 194.261 699.179 192.711 700.359 191.251C702.309 188.841 704.039 186.221 706.709 184.471C707.989 183.631 709.299 182.941 710.859 182.851C716.879 182.511 722.619 183.621 728.069 186.221C728.259 186.311 728.459 186.411 728.639 186.511C731.529 188.211 732.279 190.641 730.699 193.621C730.149 194.651 729.459 195.661 728.629 196.481C726.499 198.601 724.409 200.801 721.729 202.281C721.489 202.411 721.359 202.721 720.999 203.161C721.879 203.401 722.569 203.671 723.279 203.761C726.269 204.111 729.269 204.391 732.259 204.711C733.399 204.831 734.819 204.611 735.269 206.041C735.649 207.261 734.529 208.021 733.839 208.761C729.589 213.281 730.229 212.711 725.009 212.791C723.309 212.821 721.589 212.651 720.009 213.041C719.879 213.281 719.769 213.401 719.789 213.471C720.779 215.891 719.879 217.551 717.779 218.851C716.509 219.641 715.339 220.601 714.119 221.471C713.409 221.981 712.639 221.941 712.049 221.361C711.369 220.701 710.749 219.951 710.249 219.141C709.189 217.401 708.159 215.621 707.229 213.811C706.409 212.211 705.339 210.971 703.639 210.271C703.299 210.101 703.019 209.731 702.649 209.431ZM710.169 192.451C710.149 194.901 711.459 196.861 712.459 199.091C713.309 198.931 714.049 198.891 714.729 198.641C716.639 197.961 718.529 197.211 720.399 196.441C720.639 196.341 720.759 195.961 720.929 195.711C717.949 193.181 713.759 191.911 710.169 192.451Z" fill="#0DFF9A"/>
<path d="M882.72 209.651C884.43 211.741 886.09 213.031 888.06 213.971C891.12 215.441 894.41 215.971 897.72 216.441C899.31 216.661 900.65 215.931 902.01 215.271C902.64 214.961 903.28 214.301 904.06 214.961C904.6 215.421 904.47 216.111 903.8 217.301C902.87 218.961 901.41 220.061 899.9 221.101C899.02 221.711 897.99 222.141 897.19 222.841C895.71 224.131 893.99 224.601 892.12 224.651C886.02 224.801 880.36 223.561 875.57 219.481C873.73 217.911 872.44 215.941 871.28 213.861C869.75 211.131 869.75 211.131 867.53 209.791C867.49 209.581 867.34 209.301 867.42 209.181C868.55 207.501 868.69 205.631 868.82 203.661C868.94 201.861 869.54 200.081 870.01 198.321C870.14 197.831 870.51 197.371 870.85 196.971C872.89 194.571 875.34 192.631 877.91 190.841C878.48 190.441 879.29 190.241 880.01 190.201C881.95 190.101 883.89 190.121 885.83 190.121C888.95 190.111 892.08 190.091 895.2 190.121C896.03 190.131 896.97 189.941 897.6 191.001C897.31 192.201 896.56 193.271 895.6 194.091C894.3 195.211 892.88 196.201 891.44 197.151C890.17 197.981 888.76 198.431 887.19 198.431C884.93 198.431 882.67 198.561 880.41 198.701C879.69 198.741 878.86 198.801 878.72 199.961C878.91 200.091 879.14 200.361 879.39 200.381C884.12 200.891 888.84 201.241 893.42 199.481C893.62 199.401 893.84 199.241 894.02 199.281C894.41 199.351 894.85 199.431 895.14 199.681C895.31 199.831 895.32 200.311 895.22 200.591C894.55 202.491 893.26 203.921 891.67 205.091C890.46 205.981 889.24 206.881 887.93 207.611C886.91 208.181 885.75 208.481 884.65 208.901C884.17 209.051 883.7 209.251 882.72 209.651Z" fill="#0DFF9A"/>
<path d="M668.51 205.471C668.51 204.491 668.58 203.761 668.5 203.041C668.24 200.801 667.94 198.551 667.6 196.321C667.24 193.971 667.5 191.851 669.21 190.011C669.93 189.231 670.39 188.211 671.02 187.341C672.1 185.851 672.77 185.461 674.84 185.041C675.01 185.481 675.28 185.931 675.36 186.421C676.2 191.741 677 197.061 677.83 202.371C678.06 203.861 678.42 205.321 678.66 206.811C678.85 207.971 679.07 209.151 679.08 210.321C679.09 211.031 678.86 211.831 678.49 212.441C677.01 214.851 675.03 216.821 672.85 218.601C672.01 219.291 671.12 219.221 670.12 218.871C666.24 217.521 662.55 215.781 659.05 213.631C654.62 210.911 650.62 207.641 647.21 203.711C645.81 202.101 644.62 200.281 643.53 198.441C642.59 196.861 642.53 195.221 643.93 193.691C645.45 192.031 646.84 190.261 648.31 188.551C648.59 188.231 648.94 187.961 649.3 187.731C649.99 187.281 650.87 187.531 651.13 188.371C653.01 194.381 657.74 198.041 662.26 201.851C663.65 203.021 665.27 203.921 666.82 204.891C667.24 205.161 667.78 205.231 668.51 205.471Z" fill="#0DFF9A"/>
<path d="M681.789 195.091C681.969 194.391 682.009 193.451 682.439 192.761C684.099 190.081 686.239 187.811 688.809 185.981C689.619 185.401 690.529 185.871 690.709 186.881C690.729 186.991 690.749 187.091 690.749 187.201C690.729 189.991 691.899 192.411 692.989 194.891C695.329 200.211 697.649 205.541 699.889 210.911C701.119 213.851 700.609 215.431 698.069 217.311C696.949 218.141 695.769 218.891 694.639 219.711C693.489 220.541 692.719 220.481 692.009 219.211C690.649 216.761 689.359 214.281 688.139 211.761C686.679 208.761 685.389 205.681 683.919 202.691C682.779 200.331 682.389 197.781 681.789 195.091Z" fill="#0DFF9A"/>
<path d="M1001.37 209.281C1001.19 209.631 1001.06 210.061 1000.79 210.371C1000.44 210.771 1000.02 211.141 999.55 211.381C997.25 212.581 994.78 213.321 992.27 213.921C991.75 214.051 990.84 213.821 990.55 213.421C989.4 211.881 988.22 210.331 987.63 208.441C987.24 207.191 987.41 206.131 988.38 205.191C990.54 203.101 992.73 201.041 995.37 199.531C996.81 198.711 997.78 199.101 998.35 200.681C999.08 202.701 999.84 204.711 1000.56 206.741C1000.85 207.551 1001.08 208.381 1001.37 209.281Z" fill="#0DFF9A"/>
<path d="M929.809 124.179C928.959 124.179 928.419 124.119 927.899 124.189C924.879 124.579 921.879 124.489 918.869 124.059C918.439 123.999 918.009 124.009 917.579 123.939C915.799 123.639 914.489 124.219 913.459 125.769C912.689 126.919 911.649 127.899 910.669 128.899C909.889 129.699 908.989 130.249 907.659 129.619C906.999 127.149 908.789 124.919 908.639 122.259C907.949 122.199 907.269 122.139 906.649 122.089C906.489 122.479 906.309 122.699 906.349 122.859C906.999 125.319 906.219 127.269 904.399 128.959C902.979 130.279 901.699 131.729 900.309 133.079C899.959 133.419 899.409 133.559 898.719 133.909C897.969 131.839 897.269 129.949 896.609 128.049C895.979 126.219 895.399 124.379 894.769 122.439C892.609 121.809 890.479 122.069 888.359 122.029C888.359 122.959 888.559 123.839 888.309 124.559C888.039 125.339 887.449 126.069 886.829 126.639C885.239 128.089 883.599 129.479 881.909 130.799C881.179 131.369 880.229 131.389 879.499 130.769C878.609 129.999 877.739 129.169 877.059 128.219C876.309 127.179 875.749 125.989 875.169 124.839C874.029 122.569 874.049 122.559 872.219 121.019C873.239 119.229 873.139 117.219 873.159 115.179C873.169 113.039 873.509 110.889 873.689 108.749C873.759 107.909 873.809 107.069 873.859 106.409C873.639 106.139 873.579 106.039 873.499 105.989C873.409 105.939 873.289 105.909 873.189 105.929C868.029 106.869 862.869 107.809 857.569 108.779C857.749 109.499 857.819 110.139 858.059 110.719C859.489 114.209 860.949 117.679 862.399 121.159C862.649 121.759 862.979 122.339 863.119 122.959C863.539 124.889 864.089 126.689 865.839 127.919C866.529 128.399 866.459 129.289 866.049 129.989C864.559 132.499 862.609 134.669 860.679 136.839C860.169 137.409 859.189 137.399 858.639 136.799C857.929 136.009 857.209 135.169 856.719 134.229C852.889 126.849 849.669 119.219 847.309 111.239C846.749 109.359 846.579 109.319 844.569 109.419C840.909 109.589 837.249 109.769 833.599 109.749C831.259 109.739 830.849 109.459 828.619 108.219C828.659 107.879 828.569 107.389 828.769 107.079C830.239 104.699 831.769 102.379 833.829 100.419C835.089 99.2292 836.379 98.9192 837.949 99.5392C841.119 100.789 844.429 101.049 847.799 100.949C849.149 100.909 850.329 100.709 851.169 99.4592C851.899 98.3792 852.969 97.6292 854.289 97.2092C855.629 97.9092 854.849 99.4192 855.639 100.489C857.239 101.209 859.109 100.939 860.869 100.759C865.579 100.279 870.279 99.6192 874.959 98.8692C877.609 98.4492 880.269 97.8692 882.489 96.1692C882.569 96.1092 882.689 96.0392 882.789 96.0492C883.189 96.1092 883.639 96.1092 883.959 96.3092C884.149 96.4292 884.259 96.8992 884.199 97.1592C884.039 97.7792 883.789 98.3792 883.499 98.9592C881.799 102.369 881.719 106.009 881.909 109.689C881.939 110.199 882.229 110.689 882.459 111.359C885.129 111.709 887.769 112.079 890.429 112.399C890.819 112.449 891.239 112.249 891.669 112.159C892.189 110.729 891.519 109.539 891.219 108.329C890.579 105.719 889.809 103.139 889.179 100.519C888.229 96.5692 888.929 93.0492 892.049 90.1892C892.919 89.3892 893.589 88.3892 894.429 87.5492C895.089 86.8892 895.729 86.0692 897.079 86.2292C897.239 86.9892 897.519 87.7992 897.549 88.6092C897.669 92.9492 898.609 97.1192 899.859 101.269C901.469 106.629 902.799 112.069 904.269 117.469C904.549 118.479 904.939 119.449 905.309 120.519C908.949 117.529 910.919 114.729 912.259 110.919C912.939 108.989 913.669 107.079 914.479 105.199C916.139 101.349 918.899 98.3392 921.989 95.6192C922.629 95.0592 923.399 94.6192 924.159 94.2392C925.019 93.7992 925.889 93.9892 926.439 94.8192C927.219 95.9792 927.879 97.2192 928.539 98.4492C929.199 99.6792 929.799 100.939 930.549 102.419C931.139 101.949 931.639 101.619 932.039 101.199C933.149 100.029 934.179 98.7692 935.319 97.6292C936.739 96.2092 938.389 95.3492 940.519 95.4992C942.769 95.6592 945.039 95.5692 947.299 95.6992C953.649 96.0792 959.989 96.4392 966.349 96.0192C967.939 95.9092 969.549 96.1592 971.299 96.2592C971.299 98.0792 970.189 99.1892 969.309 100.289C968.319 101.549 967.039 102.579 965.859 103.679C964.589 104.859 962.949 105.009 961.339 105.169C959.959 105.309 958.559 105.309 956.969 105.379C956.969 106.129 956.839 106.749 956.989 107.299C958.819 114.079 961.179 120.659 964.599 126.949C962.809 130.419 959.999 132.859 957.329 135.249C955.959 135.079 955.459 134.199 955.039 133.349C953.189 129.579 951.349 125.809 950.239 121.709C949.209 117.869 947.999 114.079 946.839 110.139C946.379 110.349 945.939 110.409 945.879 110.589C945.159 112.799 943.709 114.519 942.209 116.219C941.509 117.019 940.899 117.899 940.169 118.859C940.619 119.689 940.969 120.459 941.419 121.149C942.599 122.949 943.869 124.689 945.039 126.509C945.949 127.919 945.959 129.329 944.789 130.669C943.159 132.529 941.609 134.459 939.959 136.299C939.059 137.309 938.079 137.209 937.299 136.029C935.819 133.779 934.429 131.469 932.989 129.189C931.999 127.569 930.949 125.949 929.809 124.179ZM938.039 115.289C939.549 115.589 940.749 114.759 941.859 113.969C943.079 113.099 944.229 112.029 944.669 110.529C945.179 108.829 945.769 107.099 945.439 105.329C941.959 104.489 934.679 104.219 932.189 104.789C932.729 107.459 935.819 113.049 938.039 115.289ZM923.529 114.199C922.359 110.599 921.199 108.399 919.539 106.589C918.589 108.559 918.229 110.589 918.219 112.759C919.849 113.739 921.359 114.639 923.529 114.199Z" fill="#0DFF9A"/>
<path d="M58.6201 110.709C58.4601 109.849 58.3901 109.009 58.1601 108.229C57.3401 105.519 57.1201 102.739 56.9001 99.9394C56.7601 98.1494 57.1401 96.5194 58.2801 95.0894C59.4201 93.6594 60.4701 92.1494 61.6701 90.7694C62.3701 89.9694 63.2601 89.3294 64.1201 88.6894C64.6801 88.2794 65.5301 88.6794 65.6201 89.3394C65.6901 89.8694 65.7301 90.4094 65.7101 90.9494C65.5801 94.1094 66.1001 97.1794 66.9101 100.209C67.7801 103.429 68.7301 106.629 69.6601 109.829C69.8101 110.329 70.0801 110.799 70.3601 111.419C71.2301 111.419 72.0801 111.409 72.9201 111.419C74.4401 111.439 75.4501 110.939 76.2101 109.409C77.7101 106.389 80.0801 103.979 82.5601 101.739C83.0701 101.279 83.8601 101.009 84.5601 100.879C89.4301 99.9894 94.3501 99.4194 99.3001 99.2294C101.32 99.1494 103.35 99.3394 105.36 99.4094C105.91 100.669 105.72 101.609 104.96 102.529C104.14 103.519 103.38 104.559 102.63 105.599C101.96 106.519 101.12 107.109 99.9701 107.229C98.5801 107.369 97.1901 107.549 95.8001 107.689C93.6901 107.899 91.5501 107.949 89.5101 108.709C94.1801 109.369 98.8501 109.389 103.77 109.299C103.8 109.799 104.01 110.369 103.82 110.719C103 112.209 102.34 113.819 100.76 114.779C100.04 115.219 99.4501 115.909 98.9301 116.579C98.0601 117.689 96.9301 118.159 95.5801 118.269C93.4401 118.449 91.3001 118.629 88.9101 118.829C89.1501 119.409 89.2401 119.929 89.5301 120.299C93.1501 124.869 97.9701 126.829 103.7 126.589C104.62 126.549 105.53 126.039 106.42 125.699C107.21 125.389 107.97 125.009 108.75 124.669C108.82 124.639 108.95 124.719 109.27 124.799C109.25 125.139 109.33 125.569 109.17 125.879C108.58 127.019 108.05 128.229 107.24 129.199C106.06 130.589 104.62 131.749 103.36 133.069C101.52 134.989 99.2001 135.689 96.6601 135.849C88.2801 136.389 80.1001 130.669 77.7401 122.579C77.1101 120.409 76.7101 118.179 76.1901 115.979C76.1001 115.589 75.9601 115.209 75.8401 114.819C75.5101 114.929 75.2601 114.949 75.1201 115.079C72.4801 117.599 72.5001 117.599 73.9401 121.039C74.6901 122.829 75.3301 124.659 76.1001 126.439C76.4701 127.309 76.5001 128.119 76.0001 128.899C75.3101 129.979 74.5901 131.039 73.8401 132.079C73.5901 132.419 73.2201 132.669 72.9001 132.959C71.7001 134.029 70.5001 135.099 69.1401 136.299C68.6501 135.739 68.1201 135.359 67.8901 134.839C66.3501 131.409 64.8701 127.939 63.3701 124.489C62.9001 123.409 62.4601 122.329 61.9901 121.209C60.0601 120.839 58.2901 120.779 56.6001 121.259C56.2601 122.099 56.7601 122.389 57.1701 122.709C57.9301 123.299 58.7101 123.849 59.4501 124.399C59.4001 125.999 58.9301 127.119 57.5601 127.989C55.9501 129.019 54.5701 130.409 53.0601 131.599C51.8201 132.569 50.8601 132.589 49.5001 131.709C47.4601 130.389 45.9701 128.529 44.8201 126.439C43.6301 124.279 42.6201 122.019 41.4701 119.679C40.6801 119.309 39.7201 118.879 38.9101 118.499C38.5401 117.309 39.0601 116.619 39.6201 115.949C40.2001 115.269 40.5901 114.509 40.5401 113.599C40.4401 111.779 40.3001 109.969 40.1801 108.219C39.7701 108.109 39.5401 107.969 39.3701 108.019C35.7601 109.019 32.1501 110.039 28.4001 111.089C28.4101 112.549 28.9601 113.819 29.3701 115.129C30.4501 118.619 31.5601 122.109 32.4901 125.649C33.0101 127.629 32.2701 129.489 31.1301 131.119C30.2101 132.439 29.1401 133.659 28.1201 134.909C27.3601 135.839 26.4101 135.859 25.7201 134.849C25.2501 134.159 24.8701 133.349 24.6801 132.539C23.1801 126.369 20.9801 120.379 19.8901 114.099C19.7801 113.479 19.5301 112.889 19.2801 112.099C18.4701 112.099 17.7401 112.049 17.0201 112.109C12.6201 112.429 8.21008 112.779 3.81008 113.099C2.86008 113.169 1.78008 113.429 1.22008 112.349C0.76008 111.459 1.37008 110.699 1.83008 109.979C2.75008 108.519 3.67008 107.069 4.64008 105.639C5.93008 103.749 7.66007 102.609 10.0401 102.619C11.1201 102.629 12.2001 102.509 13.2701 102.539C16.9401 102.629 20.5801 102.519 24.2201 101.929C26.6501 101.539 29.1601 101.649 31.6201 101.419C35.2701 101.079 38.8701 100.409 42.3401 99.1494C44.1801 98.4794 45.9301 97.6894 47.3601 96.3094C47.5901 96.0894 47.8401 95.8794 48.1201 95.7094C48.7601 95.3194 49.8301 95.8594 49.8101 96.6094C49.7901 97.3494 49.7001 98.1194 49.4801 98.8294C48.5401 101.939 49.2001 105.029 49.5401 108.129C49.6301 108.929 50.0701 109.579 50.9101 109.749C53.1201 110.209 55.3301 110.639 57.5501 111.039C57.8101 111.059 58.1301 110.859 58.6201 110.709Z" fill="#0DFF9A"/>
<path d="M339.739 118.699C339.859 120.429 340.629 121.609 341.189 122.849C341.449 123.439 341.859 123.959 342.089 124.559C342.649 126.039 342.769 127.429 341.479 128.729C340.579 129.639 339.829 130.669 338.779 131.459C337.589 132.349 336.569 133.459 335.399 134.529C334.399 133.859 333.529 133.269 332.499 132.569C330.459 134.219 328.389 135.899 326.209 137.659C325.649 137.239 325.039 136.959 324.679 136.489C322.979 134.269 321.349 131.999 319.709 129.729C319.209 129.039 318.759 128.309 318.279 127.579C317.059 127.879 315.949 128.309 314.809 128.399C313.639 128.489 312.449 128.229 311.269 128.179C308.579 128.069 305.889 127.999 303.189 127.889C301.149 127.809 299.099 127.739 297.059 127.549C295.889 127.439 294.999 127.789 294.129 128.529C292.419 129.989 290.659 131.369 288.939 132.759C287.899 132.519 287.719 131.709 287.709 131.009C287.629 126.589 287.539 122.159 288.639 117.829C288.959 116.589 289.359 115.319 289.979 114.199C292.839 109.039 296.649 104.709 301.559 101.379C303.529 100.039 305.569 99.9291 307.699 100.809C308.589 101.179 309.449 101.659 310.269 102.159C316.509 105.969 322.029 110.519 325.659 117.049C326.479 118.529 327.539 119.889 328.619 121.509C329.339 120.679 329.109 119.919 329.069 119.249C328.969 117.529 328.809 115.819 328.709 114.099C328.629 112.639 329.099 111.279 329.929 110.149C331.919 107.459 334.119 104.949 336.749 102.839C337.939 101.879 339.109 101.829 340.309 102.619C341.479 103.389 342.639 104.189 343.679 105.109C347.389 108.399 351.029 111.769 354.729 115.069C356.089 116.289 357.509 117.459 358.929 118.609C359.309 118.919 359.789 119.099 360.209 119.329C360.759 118.609 360.279 118.169 360.149 117.679C359.469 115.079 358.769 112.479 358.139 109.869C357.679 107.919 358.289 106.259 359.709 104.869C361.249 103.369 362.739 101.819 364.329 100.369C364.839 99.9091 365.609 99.7291 366.359 99.3691C366.619 99.9491 366.919 100.319 366.939 100.709C367.069 104.229 368.429 107.419 369.519 110.689C370.889 114.779 372.269 118.859 373.609 122.959C373.839 123.669 373.899 124.439 374.059 125.169C374.499 127.119 373.919 128.729 372.609 130.219C370.889 132.189 368.709 133.589 366.729 135.229C365.619 136.149 364.259 136.019 363.039 135.469C361.569 134.799 360.119 134.059 358.789 133.159C353.609 129.669 348.439 126.169 343.979 121.739C343.069 120.829 342.039 120.019 341.039 119.219C340.769 119.009 340.359 118.939 339.739 118.699ZM311.589 118.599C308.279 114.899 304.889 112.659 301.309 110.699C300.669 110.349 299.889 110.209 299.159 110.059C298.459 109.919 297.889 110.189 297.599 110.879C296.689 113.069 296.559 115.379 296.419 117.639C298.959 117.839 301.279 118.059 303.609 118.209C306.029 118.369 308.459 118.449 311.589 118.599Z" fill="#0DFF9A"/>
<path d="M275.98 131.19C274.55 134.63 271.2 135.6 268.91 137.57C267.64 137.66 266.89 137.07 266.28 136.28C265.15 134.84 264.07 133.36 262.95 131.91C262.64 131.5 262.29 131.12 261.97 130.74C260.52 132.05 259.26 133.3 257.87 134.41C256.54 135.48 255.08 136.41 253.73 137.36C252.01 137.19 250.92 136.16 249.87 135.05C246.98 131.98 244.46 128.62 242.3 125C241.88 124.3 241.33 123.69 240.72 122.88C240.29 123.42 239.92 123.7 239.78 124.07C238.58 127.31 235.63 128.94 233.3 131.13C232.24 132.13 230.91 131.82 229.66 131.24C226.57 129.82 224.02 127.69 221.74 125.21C220.66 124.03 219.61 122.83 218.12 121.16C218.22 122.37 218.18 122.98 218.32 123.53C218.72 125.04 218.23 126.45 217.33 127.47C215.56 129.47 213.54 131.24 211.6 133.09C211.47 133.21 211.19 133.17 210.79 133.23C210.54 132.74 210.09 132.22 210.03 131.65C209.78 129.3 209.58 126.93 209.5 124.57C209.43 122.53 209.27 120.43 209.65 118.45C210.23 115.41 210.56 112.28 211.81 109.38C211.94 109.08 212.01 108.74 212.2 108.5C214.49 105.52 216.74 102.5 219.74 100.36C220.82 100.26 221.31 100.87 221.66 101.53C222.01 102.19 222.28 102.91 222.44 103.64C223.73 109.34 227.18 113.7 231.14 117.75C231.43 118.04 231.82 118.22 232.09 118.41C233.02 118.13 232.98 117.4 233.12 116.82C233.41 115.56 233.68 114.29 233.84 113.01C234.39 108.69 236.79 105.49 239.94 102.72C240.67 102.08 241.31 101.34 242.05 100.72C242.79 100.11 243.87 100.42 244.16 101.3C244.36 101.91 244.46 102.56 244.55 103.19C244.84 105.36 245.5 107.42 246.6 109.28C249.13 113.54 251.62 117.83 254.42 121.91C255.97 124.18 257.73 126.4 259.96 128.11C260.59 127.61 260.12 127.28 259.95 126.96C258.57 124.28 257.06 121.66 255.79 118.93C254.42 116 253.54 112.95 253.6 109.61C253.64 107.67 254.26 106.09 255.41 104.3C254.2 104.18 253.31 104.09 252.22 103.99C252.33 103.32 252.25 102.69 252.52 102.36C254.22 100.29 255.58 97.9397 257.86 96.3697C259.46 95.2697 261.03 94.8497 263.01 95.2597C266.49 95.9697 269.99 96.4797 273.36 97.7297C277.51 99.2797 281.47 101.21 285.25 103.48C288.57 105.48 289.47 108.59 287.83 112.1C287.47 112.87 287.03 113.65 286.47 114.28C282.86 118.34 279 122.07 273.56 123.61C273.26 123.7 272.98 123.87 272.7 124.03C272.61 124.08 272.56 124.19 272.38 124.41C272.92 126.88 275.28 128.52 275.98 131.19ZM263.27 106.14C263.8 109.91 265.88 114.53 268.17 117.04C271.57 117.08 274.9 116.39 278.13 115.15C278.57 114.98 278.92 114.58 279.3 114.3C277.81 111.84 276.9 111.08 273.43 109.28C268.5 106.72 266.17 105.97 263.27 106.14Z" fill="#0DFF9A"/>
<path d="M436.06 122.719C436.49 122.429 436.94 122.139 437.36 121.829C438.35 121.109 439.34 121.149 440.39 121.709C441.43 122.269 442.5 122.789 443.56 123.309C447.26 125.119 451.22 126.119 455.17 127.169C455.35 127.219 455.57 127.109 455.78 127.069C456.24 126.489 455.8 126.069 455.47 125.679C453.37 123.199 450.96 121.029 448.18 119.359C444.95 117.419 441.62 115.669 438.32 113.849C437.1 113.169 435.83 112.569 434.62 111.869C433.97 111.499 433.36 111.039 432.82 110.519C430.98 108.779 430.87 107.759 432.42 105.809C433.42 104.549 434.58 103.409 435.66 102.219C437.63 100.059 439.8 98.9488 443 99.2388C448.41 99.7388 453.68 100.429 458.63 102.799C459.91 103.409 461.06 104.169 461.96 105.299C462.55 106.039 462.74 106.809 462.29 107.689C461.36 109.489 460.45 111.299 459.4 113.339C460.21 114.169 461.17 115.159 462.13 116.139C464.01 118.059 465.82 120.029 467.09 122.449C468.86 125.839 468.63 128.519 465.98 131.269C464.27 133.039 462.36 134.619 460.42 136.139C459.7 136.699 458.66 137.049 457.74 137.109C456.03 137.219 454.24 137.319 452.6 136.939C448.52 135.989 444.48 134.839 440.47 133.629C439.27 133.269 438.09 132.579 437.11 131.779C436.1 130.959 435.38 129.859 436.09 128.369C436.29 127.949 436.28 127.279 436.09 126.849C435.47 125.479 435.73 124.139 436.06 122.719ZM455.88 110.639C455.76 110.479 455.64 110.319 455.5 110.179C455.48 110.159 455.33 110.259 455.24 110.309C455.38 110.469 455.51 110.629 455.66 110.769C455.68 110.789 455.8 110.689 455.88 110.639Z" fill="#0DFF9A"/>
<path d="M429.569 124.46C429.699 126.98 428.639 128.43 427.299 129.67C426.039 130.83 424.619 131.82 423.309 132.93C421.999 134.02 420.509 134.42 418.829 134.44C410.949 134.56 404.309 131.67 398.959 125.97C397.049 123.94 395.669 121.43 394.879 118.71C394.149 116.23 394.499 113.8 395.899 111.59C396.579 110.52 397.359 109.51 398.149 108.38C397.309 108.15 396.639 107.96 395.789 107.73C396.219 106.91 396.469 106.19 396.909 105.62C398.929 103.07 401.359 100.95 404.009 99.0897C404.439 98.7897 404.959 98.5497 405.479 98.4497C408.649 97.8497 411.829 97.3597 415.089 97.7297C417.079 97.9597 418.709 99.0597 420.499 99.7397C421.059 99.9497 421.249 100.96 420.839 101.44C419.239 103.3 417.609 105.14 416.179 106.77C412.399 106.71 408.969 106.65 405.539 106.62C405.249 106.62 404.959 106.84 404.499 107.03C403.999 109.02 404.129 110.96 405.229 112.99C406.279 112.79 407.279 112.48 408.299 112.44C409.359 112.4 410.439 112.61 411.509 112.71C412.259 112.78 413.009 112.86 413.759 112.88C416.439 112.95 419.129 112.99 421.819 113.06C422.529 113.08 423.249 113.19 424.159 113.28C424.009 113.88 423.999 114.31 423.809 114.65C422.379 117.15 420.109 118.84 417.859 120.46C416.789 121.23 415.249 121.35 413.699 121.83C413.929 122.18 414.059 122.59 414.339 122.75C416.489 124.02 418.789 124.88 421.249 125.34C423.949 125.84 426.579 125.69 429.569 124.46Z" fill="#0DFF9A"/>
<path d="M181.01 135.441C178.25 135.311 176.02 135.271 174.01 133.931C169.33 130.821 167.43 124.291 170.04 119.051C172.97 113.171 177.29 108.401 182.59 104.551C184.18 103.401 185.98 102.741 188.05 103.301C188.63 103.461 189.32 103.381 189.92 103.261C190.86 103.061 191.77 102.641 192.71 102.481C193.65 102.321 194.66 102.161 195.58 102.331C200.12 103.191 204.01 105.331 207.43 108.441C209.64 110.451 209.8 112.941 209.23 115.541C208.94 116.871 208.24 118.161 207.53 119.351C205.12 123.351 201.93 126.691 198.42 129.731C197.11 130.871 195.56 131.551 193.92 132.181C191.1 133.261 188.29 134.341 185.31 134.851C183.72 135.111 182.12 135.291 181.01 135.441ZM181.28 111.891C178.58 112.951 177.81 113.501 177.35 115.201C175.8 120.971 179.71 125.271 183.67 125.641C187.37 125.981 190.98 125.741 194.55 124.871C196.3 124.441 197.99 123.671 199.65 122.951C201.23 122.261 201.71 120.911 201.65 119.251C201.53 115.971 199.5 113.041 196.21 111.961C192.16 110.631 188.17 110.621 184.53 113.281C183.75 113.851 183.07 114.551 182.32 115.151C181.84 115.531 181.31 115.841 180.72 116.231C179.6 114.451 181.34 113.301 181.28 111.891Z" fill="#0DFF9A"/>
<path d="M167.71 123.551C166.51 126.441 164.72 128.611 162.59 130.401C161.49 131.331 159.94 131.801 158.53 132.271C154.58 133.591 150.53 133.961 146.41 133.101C141.76 132.121 138.14 129.751 135.62 125.581C133.32 121.781 132.52 117.811 133.39 113.511C133.64 112.261 134.08 111.001 134.7 109.891C137.41 105.031 141.11 100.981 145.45 97.5306C148.11 95.4206 151.09 94.9906 154.28 96.1406C156.3 96.8706 158.38 97.4806 160.33 98.3806C166.11 101.031 166.81 108.111 163.6 111.361C162.17 112.821 160.84 114.371 159.41 115.841C158.85 116.411 158.13 116.641 157.36 116.111C156.77 115.711 156.5 115.171 156.65 114.461C156.67 114.351 156.69 114.251 156.71 114.141C157.47 111.151 156.09 108.911 154.12 106.911C152.07 104.831 149.5 104.241 146.7 104.441C145.85 104.501 145.01 104.771 144.17 104.971C142.46 105.381 141.68 106.531 141.57 108.231C141.35 111.471 142.2 114.461 143.93 117.151C147.11 122.111 151.84 124.291 157.61 124.361C159.87 124.391 162.13 124.201 164.32 123.491C165.75 123.021 165.77 123.071 167.71 123.551Z" fill="#0DFF9A"/>
<path d="M395.019 129.58C394.809 130.82 394.189 131.86 393.069 132.67C391.859 133.55 390.789 134.62 389.609 135.55C389.029 136 388.339 136.35 387.669 136.66C386.919 137 386.179 136.84 385.559 136.31C385.079 135.89 384.619 135.42 384.199 134.94C380.129 130.23 377.109 124.98 375.849 118.81C375.419 116.7 375.099 114.59 375.129 112.42C375.159 109.94 375.859 107.79 377.629 106.01C378.229 105.41 378.809 104.73 379.179 103.98C380.089 102.12 381.689 101.15 383.439 100.18C384.569 101.11 384.729 102.24 384.819 103.42C384.949 105.24 385.109 107.06 385.219 108.88C385.469 113.3 387.209 117.23 389.329 120.98C390.959 123.85 392.969 126.52 395.019 129.58Z" fill="#0DFF9A"/>
<path d="M776.49 102.759C775.92 104.019 775.09 104.839 774.29 105.669C773.77 106.209 773.12 106.629 772.6 107.159C771.07 108.699 769.28 109.429 767.09 109.379C765.39 109.339 763.65 109.199 762.06 109.699C761.49 110.669 761.8 111.489 762.06 112.299C763.12 115.569 764.18 118.839 765.28 122.099C765.45 122.599 765.79 123.039 766.08 123.499C766.43 124.049 766.94 124.529 767.14 125.119C767.63 126.529 768.13 127.969 768.32 129.439C768.49 130.719 767.24 131.499 766.56 132.419C765.54 133.789 764.29 134.999 763.05 136.199C762.11 137.109 761.05 136.859 760.42 135.669C756.95 129.059 754.26 122.159 752.69 114.829C752.31 113.049 751.71 111.329 751.17 109.449C747.11 109.089 743.15 109.029 739.37 108.959C737.29 110.589 736.29 112.879 734.31 114.249C734.05 114.429 733.86 114.709 733.61 114.919C733.05 115.419 732.53 116.039 731.65 115.779C730.51 115.439 730.8 114.449 730.7 113.629C730.57 112.559 730.53 111.469 730.27 110.429C729.81 108.619 728.76 107.449 726.73 107.209C723.91 106.869 721.41 107.659 718.99 108.949C718.22 109.359 718.05 110.089 718.17 110.889C718.41 112.429 719.08 113.779 720.23 114.819C721.1 115.609 722.03 116.379 723.03 116.999C728.37 120.299 734.09 122.189 740.48 121.709C742.42 121.559 744.34 121.599 746.09 120.559C746.3 120.439 746.68 120.619 747.17 120.689C746.99 121.159 746.94 121.619 746.69 121.889C745.01 123.709 743.4 125.619 741.56 127.249C739.47 129.099 736.77 129.689 734.06 129.909C729.39 130.299 724.81 129.739 720.38 128.149C719.77 127.929 719.18 127.649 718.56 127.489C717.89 127.309 717.32 127.509 716.84 128.059C715.57 129.519 714.25 130.919 713 132.389C712.01 133.559 710.76 134.149 709.28 133.889C703.77 132.929 698.27 131.869 693.29 129.099C691.55 128.129 690.07 126.879 688.97 125.279C687.56 123.249 686.34 121.089 685.12 118.939C684.02 116.999 683.89 114.789 684.03 112.649C684.11 111.529 684.7 110.399 685.23 109.359C685.71 108.429 686.43 107.609 687.17 106.569C686 106.029 684.98 106.659 683.99 106.599C683.05 106.549 682.1 106.589 680.99 106.589C681.07 106.079 681.02 105.619 681.2 105.289C682.68 102.629 684.59 100.289 686.91 98.3387C687.61 97.7487 688.6 97.3987 689.51 97.2087C690.66 96.9587 691.86 96.9288 693.05 96.8788C697.14 96.7188 701.23 96.5987 705.31 96.4687C705.63 96.4587 705.96 96.4587 706.28 96.4287C707.1 96.3687 707.87 96.6087 708.2 97.3387C708.56 98.1287 708.06 98.7588 707.41 99.2588C706.39 100.049 705.32 100.789 704.4 101.689C701.96 104.069 699.03 105.189 695.67 105.299C695.35 105.309 695.02 105.349 694.71 105.389C692.47 105.709 692.32 105.989 693.17 108.549C695.43 108.819 697.77 108.509 700.1 108.429C701.71 108.369 703.33 108.299 704.93 108.149C706.32 108.019 707.69 107.759 709.07 107.569C709.57 107.499 710.07 107.499 710.72 107.449C710.49 109.279 709.42 110.359 708.38 111.409C707.1 112.709 705.82 114.019 704.4 115.159C703.6 115.809 702.56 116.239 701.56 116.559C700.35 116.939 699.08 117.099 697.91 117.339C697.66 118.139 698.05 118.529 698.47 118.859C700.62 120.539 703.04 121.699 705.61 122.559C707.74 123.279 709.91 123.889 712.05 124.549C712.79 123.769 712.06 123.329 711.68 122.919C710.21 121.379 709.34 119.609 709.2 117.449C709.13 116.329 709.24 115.279 709.79 114.329C710.54 113.029 711.26 111.679 712.2 110.509C714.29 107.909 716.55 105.449 719.09 103.259C721.76 100.959 724.81 99.4487 728.12 98.3687C728.53 98.2387 728.96 98.1587 729.38 98.0787C733.31 97.3987 735.94 98.4288 738.46 101.729C738.79 101.639 739.25 101.619 739.56 101.399C741.34 100.119 743.34 99.9688 745.42 100.069C748.65 100.219 751.88 100.489 755.1 100.449C759.84 100.399 764.53 101.129 769.26 101.079C770.22 101.069 771.2 101.239 772.13 101.459C773.5 101.809 774.82 102.259 776.49 102.759Z" fill="#0DFF9A"/>
<path d="M638.961 119.259C637.781 119.119 637.341 119.789 636.911 120.389C635.801 121.929 634.331 122.479 632.451 122.419C628.791 122.299 625.131 122.339 621.471 122.319C620.731 122.319 619.981 122.319 619.301 122.319C618.721 123.419 619.431 124.089 619.801 124.799C620.611 126.359 620.331 127.849 619.161 128.949C617.601 130.409 615.831 131.659 614.101 132.929C613.821 133.139 613.231 133.129 612.891 132.989C612.321 132.749 611.771 132.369 611.311 131.929C610.931 131.569 610.681 131.059 610.411 130.599C607.531 125.789 605.091 120.769 603.231 115.469C602.541 113.509 602.201 111.539 602.451 109.449C602.591 108.289 602.481 107.089 602.481 106.199C603.161 104.869 604.061 104.159 604.461 102.949C605.091 101.079 606.901 100.049 608.591 99.0693C610.681 97.8593 613.011 97.2993 615.331 96.9793C618.091 96.6093 620.901 96.5993 623.691 96.4793C626.701 96.3393 629.361 97.6193 632.001 98.7793C633.021 99.2293 633.841 100.249 634.571 101.159C635.581 102.419 635.711 103.909 635.161 105.439C634.491 107.309 633.311 108.829 631.891 110.179C631.121 110.909 630.331 111.599 629.951 112.739C631.311 113.469 632.591 113.849 634.001 113.919C635.401 113.989 636.791 114.149 638.171 114.379C639.211 114.549 640.211 114.899 641.491 115.239C642.581 114.389 643.801 113.449 643.781 111.539C643.771 110.949 644.091 110.259 644.471 109.779C646.111 107.649 647.821 105.569 649.521 103.489C650.721 102.009 652.351 101.509 654.151 101.769C656.591 102.129 659.071 102.449 660.831 104.549C661.221 105.019 661.891 105.269 662.451 105.579C664.841 106.939 666.631 108.939 668.411 110.969C669.101 111.749 669.281 112.649 669.191 113.669C668.951 116.269 667.661 118.339 665.991 120.229C664.991 121.359 663.931 122.419 662.911 123.539C661.331 125.269 659.401 126.409 657.111 126.839C654.781 127.269 652.441 127.649 650.101 127.929C647.721 128.219 645.361 128.049 643.101 127.169C639.871 125.909 638.651 123.949 638.881 120.429C638.931 120.099 638.941 119.779 638.961 119.259ZM660.341 118.009C659.781 115.989 659.621 115.689 658.391 114.679C656.791 113.369 654.961 112.489 652.991 111.879C650.321 111.049 649.781 111.209 648.021 113.399C647.691 113.809 647.491 114.309 647.271 114.699C647.811 116.709 649.261 117.619 650.951 118.119C653.231 118.789 655.571 119.129 657.951 118.669C658.761 118.509 659.541 118.229 660.341 118.009ZM624.041 107.969C620.091 105.449 615.711 104.909 612.171 106.309C611.931 107.629 612.631 108.719 613.151 110.009C616.891 110.489 620.111 108.919 624.041 107.969Z" fill="#0DFF9A"/>
<path d="M558.97 106.43C557.42 105.69 556.07 106.43 554.47 106.48C554.41 106 554.16 105.44 554.32 105.06C555.49 102.41 556.63 99.7102 559.32 98.1602C560.25 97.6302 561.17 97.0002 562.18 96.7202C563.85 96.2602 565.5 95.8302 566.75 94.2402C567.34 94.7702 567.67 95.1302 568.07 95.4102C568.48 95.7002 568.93 96.0902 569.39 96.1302C572.28 96.4102 575.17 96.6002 578.06 96.8302C579.02 96.9102 580 96.9702 580.94 97.1502C584.1 97.7802 587.27 98.3002 590.48 98.6802C592.78 98.9502 595.08 99.8203 597.23 100.76C599.82 101.89 600.22 104.02 598.94 106.05C596.18 110.41 592.97 114.27 587.52 115.26C584.56 115.8 581.57 116.14 578.6 116.59C577.99 116.68 577.4 116.84 576.62 117.01C577.38 120.84 579.78 123.75 580.94 127.1C580.32 129.46 579.24 131.32 577.05 132.47C576.22 132.9 575.62 133.77 574.86 134.36C574.2 134.87 573.39 134.81 572.81 134.2C572.37 133.74 572.02 133.19 571.68 132.66C570 130.02 568.84 127.13 567.54 124.29C565.62 120.09 563.41 116.02 561.35 111.87C560.73 110.63 560.25 109.32 559.7 108.04C559.44 107.46 559.17 106.89 558.97 106.43ZM571.66 106.28C572.63 108.69 572.74 108.83 574.41 108.72C576.11 108.6 577.8 108.37 579.49 108.13C579.9 108.07 580.53 108.26 580.72 107.42C577.79 106.69 574.92 106.03 571.66 106.28Z" fill="#0DFF9A"/>
<path d="M676.869 93.3496C677.089 93.6996 677.429 94.0096 677.489 94.3796C677.679 95.5396 677.899 96.7296 677.879 97.8996C677.809 101.62 678.729 105.14 679.829 108.64C681.599 114.28 683.439 119.9 685.039 125.59C685.939 128.79 686.589 132.08 687.059 135.37C687.899 141.33 685.639 146.1 680.949 149.77C679.849 150.63 678.769 151.55 677.569 152.24C674.789 153.83 672.799 153.56 670.579 151.31C669.229 149.94 667.939 148.52 667.089 146.72C666.129 144.68 664.859 142.8 663.849 140.79C662.389 137.89 662.029 134.87 663.189 131.76C663.599 130.66 663.949 129.54 664.359 128.44C664.549 127.94 664.769 127.42 665.669 127.55C665.699 128.12 665.779 128.72 665.739 129.31C665.509 132.65 666.689 135.39 669.079 137.72C671.419 140.01 674.049 141.83 677.059 143.09C677.429 143.25 677.859 143.27 678.339 143.38C678.909 142.12 678.649 140.94 678.429 139.82C677.709 136.13 676.939 132.47 675.689 128.9C673.959 123.93 672.089 118.97 671.259 113.74C670.789 110.79 669.969 107.86 670.239 104.82C670.299 104.09 670.359 103.19 670.799 102.7C672.329 100.95 672.759 98.6696 673.859 96.7196C674.779 95.0396 674.729 94.9696 676.869 93.3496Z" fill="#0DFF9A"/>
<path d="M787.11 119.19C788.85 120.52 790.28 121.61 791.69 122.68C792.37 122.09 791.92 121.74 791.65 121.49C789.9 119.9 788.13 118.33 786.33 116.8C784.7 115.4 782.96 114.11 781.39 112.65C780.18 111.54 780.19 110.95 781.09 109.55C781.5 108.92 781.96 108.31 782.5 107.79C784.35 105.99 786.18 104.15 788.15 102.48C789.02 101.74 790.16 101.08 791.26 100.9C795.98 100.13 800.7 100.17 805.36 101.43C805.46 101.46 805.57 101.47 805.68 101.49C806.68 101.7 807.68 102.09 807.86 103.15C808.07 104.37 807.49 105.45 806.5 106.23C806.08 106.56 805.66 106.98 805.17 107.11C803.47 107.56 802.09 108.35 800.88 109.71C800.3 110.36 798.98 110.34 797.81 110.67C799.27 112.21 800.68 113.67 802.05 115.17C803.58 116.84 805.07 118.53 806.12 120.58C807.01 122.33 807.25 124.06 806.26 125.82C805.63 126.94 805.11 128.2 804.22 129.07C802.39 130.87 800.41 132.56 798.36 134.1C796.54 135.47 794.3 135.58 792.15 135.16C790.47 134.84 788.82 134.24 787.25 133.55C785.34 132.71 784.67 131.11 785.02 129.03C785.2 127.98 785.35 126.92 785.44 125.86C785.61 123.66 786.02 121.52 787.11 119.19Z" fill="#0DFF9A"/>
<path d="M513.87 95.3301C513.1 95.9701 512.42 96.5101 511.78 97.0801C511.18 97.6201 510.06 97.2901 509.68 98.2701C510.31 98.7101 510.78 98.2501 511.23 98.1001C517.35 96.0301 523.46 93.8901 529.59 91.8701C531 91.4001 532.53 91.1601 534.02 91.0701C535.67 90.9701 536.39 92.1601 535.72 93.6401C535.46 94.2201 535.13 94.8001 534.7 95.2801C533.12 97.0401 531.5 98.7601 529.88 100.48C529.34 101.05 528.65 101.21 527.84 101.25C526.56 101.31 525.27 101.47 524.03 101.79C520.38 102.74 516.76 103.77 513.13 104.8C512.54 104.97 511.99 105.3 511.15 105.68C512.75 106.53 514.16 106.24 515.52 106.23C519.29 106.18 523.06 106.02 526.83 106.1C529.3 106.15 531.79 106.38 534.22 106.8C537.09 107.29 537.54 108.8 535.79 111.11C534.22 113.19 532.24 114.85 530.36 116.61C529.38 117.53 528.13 117.88 526.88 118.23C523.77 119.12 520.67 120.01 517.58 120.96C515.65 121.56 513.72 122.21 512.07 123.32C512.09 124.28 512.76 124.25 513.21 124.32C516.51 124.85 519.83 125.19 523.18 125.04C525.01 124.96 526.84 124.98 528.67 124.83C530.37 124.69 532.06 124.39 533.98 124.14C533.68 125.78 533.32 127.03 532.11 127.94C530.14 129.43 528.26 131.06 526.25 132.49C525.4 133.09 524.32 133.5 523.29 133.7C517.52 134.82 511.71 134.71 505.92 133.84C504.78 133.67 503.64 133.2 502.61 132.64C500.8 131.66 500.33 130.26 500.99 128.28C501.19 127.68 501.48 127.08 501.84 126.56C504.59 122.52 507.64 118.77 512.12 116.49C512.29 116.4 512.41 116.19 512.69 115.88C511.48 115.22 510.26 115.36 509.02 115.39C506.01 115.46 502.99 115.5 499.98 115.45C498.92 115.43 497.82 115.27 496.81 114.94C494.6 114.23 494 112.69 495.15 110.67C497.55 106.48 500.64 102.96 505.07 100.81C505.91 100.4 506.74 99.9601 507.84 99.4001C503.55 97.2801 500.23 94.4801 497.34 91.1401C496.73 90.4401 496.21 89.6901 496.73 88.8301C498.5 85.9201 500 82.7501 503.07 81.0801C504.38 81.1301 504.96 82.0101 505.58 82.6901C507.91 85.2301 510.18 87.8201 512.44 90.4301C513.6 91.7601 514.4 93.2601 513.87 95.3301Z" fill="#0DFF9A"/>
<path d="M526.279 141.169C526.459 140.479 526.499 139.439 526.969 138.659C528.119 136.729 529.409 134.879 530.769 133.079C531.339 132.329 532.169 131.759 532.959 131.209C533.249 131.009 533.829 130.949 534.139 131.109C534.449 131.259 534.649 131.739 534.759 132.119C534.849 132.399 534.759 132.759 534.679 133.069C534.099 135.499 534.819 137.529 536.669 139.149C537.699 140.059 537.869 141.129 537.479 142.349C537.359 142.739 537.149 143.269 536.839 143.409C535.579 143.969 534.679 145.179 533.209 145.379C532.579 145.469 531.959 145.679 531.359 145.899C530.459 146.239 529.579 146.769 528.619 146.139C527.589 145.469 526.869 144.559 526.599 143.349C526.439 142.719 526.399 142.079 526.279 141.169Z" fill="#0DFF9A"/>
<path d="M503.47 24.281C504.31 27.801 505.66 31.201 507.34 34.411C509.03 37.641 511.17 40.6309 513.16 43.8009C512.45 46.1509 510.91 47.801 508.58 48.791C507.8 49.121 507.1 49.671 506.4 50.161C505.57 50.741 504.75 50.721 504.02 50.101C503.13 49.331 502.18 48.5609 501.53 47.6109C499.08 44.0509 497.13 40.251 495.63 36.161C494.37 32.721 493.39 29.231 492.53 25.561C491.71 25.501 490.98 25.381 490.26 25.401C486.16 25.531 482.07 25.571 477.99 25.071C476.76 24.921 475.45 24.7409 474.09 25.6109C474.74 26.6209 475.28 27.521 475.89 28.371C476.82 29.671 477.81 30.941 478.77 32.221C480.89 32.041 482.76 31.6209 484.62 31.0809C486.41 30.5609 488.17 29.721 490.31 30.101C489.14 33.571 485.81 34.831 483.89 37.291C484.08 39.231 486.32 39.821 486.56 41.801C485.38 45.591 482.04 47.481 478.91 49.881C478.21 49.341 477.49 48.901 476.91 48.321C475.15 46.571 473.44 44.781 471.72 42.991C471.18 42.421 470.6 41.931 469.78 42.011C465.61 42.411 461.44 42.851 457.24 43.271C457.06 43.801 456.87 44.181 456.8 44.591C456.35 47.031 455.18 48.991 453.21 50.521C452.37 51.181 451.69 52.041 450.89 52.761C450.52 53.091 450.03 53.291 449.39 53.671C448.29 51.561 449.15 49.491 448.82 47.561C448.19 47.171 447.8 47.601 447.42 47.941C446.06 49.161 444.67 50.361 443.36 51.631C442.08 52.871 440.61 53.231 438.9 52.941C437.18 52.651 435.55 52.111 434.06 51.191C430.39 48.911 427.55 45.901 426.04 41.771C425.52 40.351 424.94 38.961 424.55 37.501C424.33 36.701 424.5 35.801 424.41 34.951C424.03 31.141 424.29 27.431 426.14 24.051C425.3 23.111 424.4 23.6709 423.59 23.5809C422.75 23.4909 422.26 22.741 422.54 21.971C422.65 21.671 422.75 21.341 422.94 21.101C424.5 19.181 426.08 17.271 427.67 15.381C429.03 13.761 430.91 13.151 432.89 13.251C437.52 13.491 442.13 13.911 446.75 14.261C446.86 14.271 446.96 14.291 447.07 14.311C449.19 14.751 449.74 16.031 448.5 17.761C448.07 18.361 447.46 18.8409 446.92 19.3609C446.23 20.0309 445.37 20.591 444.86 21.371C443.92 22.811 442.63 23.331 441.02 23.281C439.51 23.231 438 23.1009 436.5 23.0809C435.44 23.0609 434.34 22.851 433.18 23.541C432.62 24.911 432.75 26.311 433.61 27.811C439.39 28.591 445.12 27.591 451.04 26.811C450.94 28.541 450.5 29.771 449.35 30.731C447.7 32.111 446.06 33.521 444.43 34.931C443.51 35.721 442.46 36.201 441.26 36.441C440.01 36.691 438.78 37.031 437.54 37.341C437.98 39.091 439.07 40.401 441.45 41.751C442.89 42.561 444.34 43.621 446.07 43.091C446.44 42.321 445.98 42.1209 445.68 41.8609C444.89 41.1709 444.83 40.311 445.41 39.551C446.77 37.741 448.09 35.881 449.67 34.281C451.01 32.931 451.92 31.591 452.29 29.641C453.48 23.351 456.97 18.401 461.74 14.241C463.02 13.121 464.19 13.211 465.09 14.281C466.2 15.591 467.33 16.9109 468.27 18.3309C469.7 20.4809 471.14 22.591 473.05 24.471C474.71 21.851 476.47 19.591 478.49 17.501C480.31 15.621 482.34 14.931 484.91 15.451C488.41 16.151 491.97 16.241 495.53 16.241C502.26 16.241 508.85 15.181 515.38 13.711C517.7 13.191 519.89 12.271 521.94 11.031C522.98 10.401 523.89 10.951 523.95 12.151C523.99 12.791 524.02 13.461 523.9 14.091C522.93 19.091 524.27 23.771 526.11 28.271C527.77 32.351 529.23 36.551 531.72 40.251C531.89 40.501 531.9 40.861 531.98 41.131C531.57 42.731 530.55 43.841 529.28 44.691C527.86 45.641 526.29 46.361 525.11 47.701C524.54 48.351 523.4 48.191 522.77 47.531C522.33 47.071 521.91 46.551 521.62 45.981C520.02 42.931 518.21 39.951 516.96 36.761C515.28 32.461 513.79 28.031 514.11 23.271C514.13 22.951 514.08 22.621 514.01 22.311C513.97 22.111 513.83 21.931 513.73 21.741C511.61 21.651 505.59 23.131 503.47 24.281ZM463.86 33.3309C462.53 31.2109 461.56 29.381 459.61 28.201C458.76 29.911 458.35 31.461 459.01 33.221C460.54 33.541 461.96 33.7509 463.86 33.3309Z" fill="#0DFF9A"/>
<path d="M407.31 36.7696C409.48 37.5096 411.2 37.4896 412.9 37.6396C414.93 37.8196 416.97 38.0496 418.97 38.4296C420.4 38.6996 420.67 39.5096 419.96 40.8096C419.6 41.4696 419.27 42.1496 418.82 42.7496C416.89 45.3196 414.76 47.4496 411.12 47.1696C409.43 47.0396 407.7 47.3296 405.71 47.4496C406 47.9496 406.17 48.2896 406.39 48.6096C406.63 48.9596 406.92 49.2796 407.18 49.5996C407.28 51.6996 406 53.0596 404.77 54.3796C403.67 55.5596 402.45 56.6196 401.26 57.7096C400.43 58.4696 399.8 58.6096 398.97 57.9196C397.82 56.9696 396.62 55.9696 395.8 54.7496C394.56 52.8796 393.48 50.8596 392.62 48.7896C391.86 46.9796 391.15 45.2296 389.38 44.0696C389.5 43.4796 389.49 42.9096 389.72 42.4696C390.3 41.3096 390.14 40.1196 389.87 38.9896C389.04 35.3996 388.67 31.7696 388.67 28.0896C388.67 27.4696 388.51 26.8396 388.43 26.3096C386.81 25.3596 385.68 26.7496 384.46 26.9196C383.56 26.4996 383.55 25.8096 383.89 25.2496C385.92 21.9396 387.94 18.6296 391.45 16.5896C392.18 16.1696 392.77 15.5096 393.4 14.9296C393.95 14.4196 394.45 13.8396 395 13.3396C396.85 11.6596 397.18 11.7696 398.17 14.4896C398.74 14.4596 399.37 14.4796 399.98 14.3896C403.74 13.8396 407.5 13.9996 411.27 14.2396C412 14.2896 412.79 14.4396 413.43 14.7696C414.31 15.2196 415.22 15.3996 416.17 15.6096C420.63 16.5896 422.53 20.7296 420.47 24.8296C420.28 25.2096 420.07 25.5996 419.81 25.9396C416.79 29.8996 413.58 33.6496 408.9 35.7896C408.54 35.9496 408.2 36.2196 407.31 36.7696ZM411.63 26.9896C411.29 25.7696 410.33 25.4396 409.46 25.0796C406.23 23.7596 402.82 23.4796 399.38 23.5196C399.07 23.5196 398.68 23.5396 398.46 23.7196C398.08 24.0296 397.5 24.4996 397.54 24.8496C397.85 27.4796 397.83 30.1696 398.87 32.8496C402.7 31.5296 406.19 29.6796 409.83 28.1696C410.49 27.8996 411.05 27.3796 411.63 26.9896Z" fill="#0DFF9A"/>
<path d="M586.758 33.8407C587.668 34.5207 588.028 34.8507 588.458 35.0907C594.208 38.2707 600.458 39.8007 606.938 40.4407C607.668 40.5107 608.428 40.3407 609.168 40.2207C609.998 40.0907 610.818 39.9007 611.538 39.7607C612.178 40.2807 612.148 40.7707 611.958 41.3207C611.348 43.0707 609.888 44.0507 608.498 45.0507C606.848 46.2407 605.078 47.2807 603.368 48.3807C602.348 49.0407 601.278 49.2807 600.018 49.2707C596.638 49.2407 593.378 48.5807 590.148 47.7207C585.978 46.6107 581.908 45.1807 578.178 42.9407C575.468 41.3207 573.168 39.2507 571.178 36.7907C566.708 31.2707 566.598 23.6807 571.338 17.7007C573.468 15.0107 576.008 12.6407 578.368 10.1407C578.578 9.92072 578.888 9.7807 579.338 9.4707C579.668 10.0307 579.958 10.5307 580.338 11.1907C588.228 10.2907 596.198 9.39069 604.728 10.3607C602.988 12.7207 601.188 14.1407 599.108 15.2307C598.348 15.6307 597.498 15.8807 596.818 16.3807C594.658 17.9607 592.178 18.5807 589.598 18.8407C586.598 19.1407 583.578 19.3007 580.578 19.5507C579.828 19.6107 579.088 19.7607 578.358 19.9407C577.958 20.0407 577.608 20.3007 577.268 20.4607C577.218 22.5207 577.218 22.5207 578.068 24.4907C585.058 24.4507 592.038 24.4307 599.018 24.3507C600.628 24.3307 602.238 24.0707 603.848 23.9507C604.238 23.9207 604.638 24.0107 605.308 24.0707C604.318 26.6707 602.118 27.8007 600.318 29.1507C598.448 30.5607 596.238 31.5107 594.158 32.6307C592.068 33.7807 589.618 33.2807 586.758 33.8407Z" fill="#0DFF9A"/>
<path d="M372.739 38.29C372.589 37.92 372.339 37.45 372.209 36.95C372.099 36.54 372.109 36.09 372.119 35.67C372.199 33.49 372.119 31.37 370.659 29.53C369.079 27.53 367.119 26 364.759 25.16C359.879 23.41 355.259 24.39 350.849 26.61C350.069 29.61 350.609 32.11 352.309 34.44C355.029 38.17 358.549 40.64 363.099 41.56C367.159 42.38 371.229 42.42 375.299 41.62C375.909 41.5 376.539 41.46 377.169 41.39C377.409 43.93 377.419 43.99 376.179 45.17C374.469 46.81 372.739 48.44 370.969 50.01C370.419 50.5 369.759 51 369.079 51.15C363.389 52.4 357.699 52.66 352.309 50.08C348.529 48.27 345.499 45.45 343.719 41.61C341.629 37.1 342.029 32.54 344.479 28.27C345.819 25.95 347.419 23.76 349.079 21.65C350.829 19.41 353.129 17.81 355.729 16.65C359.219 15.11 362.789 14.06 366.669 14.2C368.659 14.27 370.499 14.66 372.249 15.6C375.229 17.21 378.159 18.98 379.459 22.26C380.969 26.09 381.419 29.99 378.449 33.5C377.269 34.89 376.099 36.3 374.899 37.68C374.379 38.29 373.759 38.68 372.739 38.29Z" fill="#0DFF9A"/>
<path d="M555.66 32.0605C555.81 30.9805 556.01 30.3605 555.96 29.7605C555.56 24.9305 555.11 20.1105 554.69 15.2805C554.58 13.9905 554.51 12.7005 554.41 11.4105C554.28 9.70046 554.95 8.25045 555.88 6.90045C556.55 5.93045 557.32 5.03047 557.96 4.04047C559 2.45047 560.33 1.29047 562.42 0.730469C562.59 1.19047 562.86 1.64046 562.9 2.10046C563.36 7.47046 563.58 12.8605 564.26 18.2005C565.15 25.1605 565.24 32.1605 565.77 39.1405C565.85 40.1705 565.53 41.0105 564.87 41.8105C563.15 43.9005 561.16 45.7005 559.03 47.3405C558.09 48.0705 557.05 48.2205 556.02 47.5705C553.84 46.1905 551.56 44.9205 549.53 43.3405C546.38 40.9005 543.47 38.1805 540.92 35.0905C540.3 34.3405 539.65 33.6205 538.95 32.9505C536.52 30.6005 534.71 27.8205 533.14 24.8505C532.59 23.8005 531.93 22.8104 531.37 21.7704C530.93 20.9604 530.92 20.1205 531.46 19.3205C533.3 16.6405 535.53 14.3305 538.03 12.2605C538.53 11.8505 539.39 11.9705 539.78 12.5005C540.29 13.1905 540.79 13.9105 541.15 14.6805C543.49 19.7605 547.21 23.8104 550.93 27.8604C552.23 29.2804 553.49 30.7705 555.66 32.0605Z" fill="#0DFF9A"/>
<path d="M674.529 24.0513C674.609 23.6213 674.569 23.1413 674.779 22.8413C676.189 20.8113 677.579 18.7513 679.129 16.8213C680.429 15.1913 682.209 14.7013 684.329 14.9013C687.639 15.2113 690.989 15.5713 694.289 15.3813C697.819 15.1813 701.319 14.4213 704.809 13.8113C705.499 13.6913 706.149 13.2013 706.769 12.8113C707.499 12.3513 708.169 11.8113 708.869 11.3013C710.409 10.1813 712.099 9.59127 714.019 9.76127C718.199 10.1413 722.399 10.3913 726.559 10.9713C729.109 11.3313 731.519 12.3813 733.769 13.7113C735.619 14.8013 737.479 15.8613 739.249 16.8913C746.999 12.8213 754.999 12.3413 763.219 14.2013C765.409 14.7013 767.499 15.6413 769.619 16.4113C770.019 16.5513 770.389 16.7913 770.769 17.0013C774.469 19.1213 774.439 22.6613 772.829 25.6513C772.179 26.8713 771.289 28.0013 770.329 29.0113C767.819 31.6813 765.289 34.3412 761.979 36.0812C761.809 36.1712 761.729 36.4013 761.589 36.5713C761.619 37.2113 762.159 37.1313 762.529 37.1613C764.459 37.3013 766.389 37.4113 768.329 37.5113C769.729 37.5813 771.129 37.5813 772.519 37.7113C773.579 37.8113 774.659 38.0013 775.429 39.1513C774.359 41.7813 772.439 43.7713 770.159 45.3713C769.439 45.8813 768.319 45.8913 767.369 45.9913C764.799 46.2513 762.219 46.4313 759.639 46.6613C759.109 46.7113 758.589 46.8113 757.949 46.9013C757.289 51.2313 753.679 53.1113 750.829 55.8413C750.239 55.3613 749.669 55.0413 749.289 54.5713C747.769 52.7413 746.369 50.8213 745.569 48.5513C745.169 47.4213 744.499 46.7113 743.239 46.6713C742.819 46.6513 742.389 46.5513 741.989 46.4013C740.699 45.9313 740.439 45.0613 741.209 43.8713C741.439 43.5113 741.729 43.1913 742.009 42.8513C742.679 42.0213 742.779 41.1012 742.469 40.1112C741.989 38.5712 741.549 37.0113 741.029 35.4813C740.019 32.4913 739.399 29.4613 739.649 26.2813C739.669 25.9813 739.509 25.6613 739.429 25.3413C738.429 25.1813 738.259 26.1513 737.709 26.5713C737.109 27.0213 736.559 27.5513 736.069 28.1213C733.679 30.9213 730.689 32.1913 726.989 32.2913C723.999 32.3713 721.029 32.9313 717.909 33.3013C717.799 35.3513 718.539 37.0213 719.219 38.6713C719.829 40.1613 720.579 41.6113 721.359 43.0213C722.269 44.6513 722.119 46.1013 720.879 47.4513C719.429 49.0313 717.989 50.6113 716.509 52.1513C715.709 52.9813 714.779 52.9113 714.029 51.9413C713.439 51.1813 712.919 50.3413 712.499 49.4813C710.039 44.4113 708.299 39.1213 707.439 33.5313C706.849 29.7113 706.089 25.9213 705.399 22.1013C705.339 22.0513 705.279 21.9613 705.189 21.9113C705.099 21.8613 704.969 21.7913 704.889 21.8113C698.859 23.4613 692.669 24.1913 686.549 25.0113C686.399 25.7913 686.789 25.8712 687.239 25.8612C691.539 25.7212 695.859 25.8013 700.099 24.8013C700.979 24.5913 701.989 24.1813 702.969 24.9113C703.109 26.6213 702.279 27.9713 701.159 29.1613C699.829 30.5713 698.509 32.0013 697.039 33.2513C696.349 33.8413 695.319 34.0913 694.409 34.3513C693.389 34.6413 692.249 34.5713 691.259 35.4913C691.639 35.8513 691.959 36.2913 692.389 36.5013C693.829 37.2213 695.309 37.8613 696.789 38.5113C698.219 39.1513 699.469 39.0713 700.499 37.6813C700.929 37.1013 701.589 36.6613 702.199 36.2513C703.069 35.6713 703.949 34.8013 705.099 35.6713C706.519 36.7413 707.729 37.9713 707.429 39.9613C707.129 41.9813 705.779 43.4213 704.519 44.8913C703.889 45.6213 703.099 46.2413 702.569 47.0413C701.299 48.9613 699.479 49.5813 697.309 49.6313C692.749 49.7413 688.579 48.5012 684.729 46.1112C682.889 44.9612 681.269 43.5713 679.889 41.8713C678.939 40.6913 678.339 40.7313 677.309 41.7413C676.019 43.0213 674.709 44.2813 673.339 45.4813C672.969 45.8113 672.379 46.0213 671.879 46.0413C670.489 46.0813 669.089 46.0913 667.709 45.9313C664.949 45.5913 662.229 44.8613 659.369 44.8213C659.079 46.2413 658.899 47.6013 658.489 48.8913C658.199 49.7813 657.699 50.6713 657.079 51.3713C655.869 52.7213 654.509 53.9513 653.179 55.1913C652.969 55.3913 652.599 55.4113 652.139 55.5613C651.869 55.1213 651.489 54.7313 651.349 54.2613C650.549 51.6913 649.809 49.1113 649.029 46.5313C648.839 45.9113 648.619 45.3013 648.409 44.6913C648.109 43.8313 647.569 43.2513 646.679 42.9213C645.899 42.6313 645.199 42.1413 644.319 41.6513C644.549 40.8913 644.679 40.2813 644.919 39.7213C645.169 39.1313 645.529 38.5813 645.869 37.9513C645.709 35.8113 644.779 33.8413 644.129 31.8013C643.509 29.8513 642.739 27.9513 642.179 25.9813C641.739 24.4513 641.499 22.8513 641.129 21.0613C638.889 20.3213 636.649 21.6013 634.399 21.5913C633.799 21.2013 633.749 20.6813 633.949 20.1513C634.359 19.0413 634.749 17.9213 635.249 16.8513C636.469 14.3013 638.299 12.3013 641.159 11.7713C648.829 10.3613 656.549 9.83126 664.289 11.3413C666.519 11.7813 668.679 12.4813 670.619 13.7013C671.349 14.1613 672.029 14.7013 672.689 15.2413C673.799 16.1513 674.239 17.3513 673.789 18.7113C673.349 20.0213 672.879 21.3913 672.129 22.5313C669.539 26.4213 666.519 29.9113 662.269 32.1213C661.889 32.3213 661.529 32.5613 661.169 32.7913C661.089 32.8513 661.039 32.9613 660.969 33.0413C661.029 33.2213 661.059 33.5513 661.149 33.5713C665.659 34.5913 670.179 35.6112 674.699 36.5812C675.409 36.7312 676.159 36.6813 677.039 36.7313C677.199 34.5813 677.129 32.5413 677.559 30.6013C677.969 28.7513 678.889 27.0013 679.619 25.1313C678.049 24.0013 676.109 25.1613 674.529 24.0513ZM748.989 22.4313C749.059 23.6013 748.989 24.4713 749.189 25.2713C749.779 27.6613 750.439 30.0413 751.139 32.4013C751.309 32.9613 751.729 33.4413 752.099 34.0413C755.979 32.3013 759.699 30.6513 763.409 28.9713C763.789 28.8013 764.139 28.5213 764.459 28.2413C764.609 28.1113 764.679 27.8813 764.819 27.6313C764.229 26.1513 762.969 25.3613 761.569 24.7813C757.679 23.1713 753.699 22.0113 748.989 22.4313ZM654.039 29.0013C658.769 27.5713 661.999 25.7513 663.529 23.6313C661.669 22.0313 659.379 21.4313 657.079 20.9913C655.259 20.6413 653.369 19.9313 651.319 20.8513C651.749 23.8413 652.749 26.4713 654.039 29.0013ZM727.609 23.1913C724.709 21.1613 721.829 20.0813 718.839 19.2413C717.599 18.8913 716.369 18.6113 715.019 19.1513C714.629 21.6413 715.339 23.8413 715.869 26.0513C716.299 26.0013 716.589 26.0613 716.699 25.9513C717.719 24.8513 718.999 24.5213 720.459 24.4513C722.279 24.3613 724.099 24.1013 725.909 23.8513C726.369 23.7913 726.799 23.5113 727.609 23.1913Z" fill="#0DFF9A"/>
<path d="M976.289 48.7609C976.449 47.4209 976.529 46.3709 976.719 45.3409C977.109 43.1409 977.359 40.8708 979.169 38.9908C981.309 40.2208 983.389 41.5209 985.549 42.6409C987.709 43.7609 989.969 44.6909 992.679 45.3209C992.379 44.6409 992.319 44.3009 992.119 44.1009C988.889 40.9309 985.549 37.8909 981.739 35.3909C977.769 32.7809 973.629 30.4809 969.419 28.3109C967.779 27.4609 966.249 26.4808 965.189 24.9008C964.379 23.6908 964.279 23.1308 965.139 21.9908C966.039 20.7908 967.049 19.6809 968.429 18.0409C966.999 18.7809 966.049 19.1809 965.209 19.7309C963.679 20.7309 961.989 20.8309 960.249 20.8809C956.379 20.9909 952.499 21.1408 948.629 21.3008C947.909 21.3308 947.199 21.5208 946.449 21.6508C946.389 23.0708 946.999 24.1109 947.539 25.1409C949.839 29.5309 952.159 33.9009 954.529 38.2609C955.819 40.6309 957.099 43.0109 958.579 45.2509C960.139 47.6209 959.389 49.3808 957.039 50.9308C955.079 52.2308 952.899 53.1809 950.919 54.2309C949.469 53.8509 948.899 52.7709 948.309 51.7509C945.739 47.2609 943.189 42.7609 940.649 38.2609C939.799 36.7609 938.839 35.3009 938.219 33.7009C937.119 30.9009 936.219 28.0209 935.259 25.1609C934.879 24.0509 934.559 22.9208 934.159 21.6208C930.099 21.5008 926.149 21.3808 922.399 21.2708C921.559 22.1208 921.809 22.8009 921.989 23.5609C923.359 29.5409 924.609 35.5409 926.069 41.5009C926.509 43.3109 926.089 44.7909 924.969 45.9709C923.119 47.9109 921.049 49.6509 919.039 51.4409C918.529 51.8909 917.829 51.9508 917.209 51.6108C916.359 51.1508 915.519 50.6609 914.729 50.1009C911.849 48.0209 909.019 45.8609 906.119 43.8209C900.569 39.9109 894.929 36.1509 888.969 32.8809C888.339 32.5309 887.649 32.2808 886.759 31.8708C886.779 34.6708 887.469 37.0608 888.749 39.1508C890.399 41.8208 890.199 42.7909 888.029 45.4709C887.149 46.5609 886.169 47.5609 885.159 48.5309C884.019 49.6209 883.089 49.5509 882.189 48.3109C880.779 46.3909 879.529 44.3709 878.869 42.0609C877.629 37.7209 876.519 33.3409 875.169 29.0309C874.479 26.8209 874.879 25.0108 876.309 23.3308C878.189 21.1208 879.929 18.7909 882.429 17.1709C883.779 16.3009 885.049 16.2809 886.349 17.1009C887.349 17.7309 888.269 18.4909 889.259 19.1409C893.119 21.6709 897.009 24.1409 901.019 26.4409C904.559 28.4809 907.879 30.9109 911.309 33.1409C911.819 33.4709 912.419 33.6809 913.179 34.0409C913.459 32.5209 913.209 31.2909 913.069 30.0309C912.729 26.7209 912.469 23.3909 912.289 20.0609C912.169 17.9109 912.959 16.0709 914.559 14.5709C915.739 13.4709 916.759 12.2008 917.959 11.1108C918.819 10.3308 919.839 9.72086 921.019 8.88086C921.309 9.57086 921.719 10.0408 921.639 10.4308C921.359 11.9208 921.169 13.4008 921.439 15.1808C921.999 14.9408 922.489 14.8208 922.849 14.5508C923.879 13.7708 924.869 12.9409 925.849 12.1009C926.729 11.3309 927.689 11.1809 928.849 11.3509C931.509 11.7309 934.199 11.9709 936.869 12.2809C939.039 12.5309 941.179 12.6908 943.139 11.0508C944.509 12.4008 946.159 12.5108 947.919 12.4908C955.139 12.4008 962.359 12.3809 969.569 12.3509C970.749 12.3509 971.919 12.4409 973.079 12.4809C973.249 13.1109 973.389 13.6009 973.519 14.0909C975.999 13.7809 978.429 13.3109 980.869 13.1909C984.309 13.0209 987.759 12.9608 991.199 13.1208C993.109 13.2108 995.009 13.7709 996.879 14.2509C998.129 14.5709 999.249 15.2308 1000.08 16.3708C999.539 18.4408 998.199 19.7909 996.639 20.9509C995.519 21.7809 994.319 22.5009 993.219 23.3509C992.359 24.0309 991.499 24.1508 990.509 23.7408C989.609 23.3708 988.699 23.0309 987.789 22.7009C986.679 22.3009 985.569 21.8708 984.349 22.2108C984.039 22.9308 984.639 23.1409 985.029 23.4109C986.989 24.7509 988.969 26.0509 990.919 27.3909C995.749 30.7009 1000.05 34.6109 1003.8 39.0909C1005.03 40.5609 1005.91 42.3309 1006.87 44.0009C1007.58 45.2309 1007.43 46.5109 1006.7 47.6909C1006.14 48.6009 1005.61 49.6108 1004.83 50.3008C1002.98 51.9408 1001.01 53.4408 999.049 54.9608C997.319 56.3008 995.299 56.4808 993.209 56.3008C992.889 56.2708 992.569 56.2208 992.259 56.1208C988.349 54.9408 984.419 53.8309 980.549 52.5309C978.599 51.9009 977.829 50.9909 976.289 48.7609Z" fill="#0DFF9A"/>
<path d="M833.329 27.0205C834.369 28.0105 835.269 28.9305 836.229 29.7705C838.279 31.5605 839.989 33.6205 841.469 35.8905C843.319 38.7505 843.439 41.7005 842.199 44.8405C840.819 48.3505 838.389 51.0605 835.759 53.6205C833.789 55.5405 831.269 56.2105 828.599 56.0205C823.349 55.6605 818.499 53.9105 813.939 51.3405C812.319 50.4205 811.139 49.0105 810.139 47.4405C809.019 45.6905 809.039 43.7605 809.299 41.8105C809.339 41.5105 809.509 41.2105 809.679 40.9405C810.369 39.8505 811.139 38.8105 811.749 37.6905C812.479 36.3605 813.519 35.5905 815.209 35.2705C816.999 37.8505 818.189 41.0105 821.299 42.5105C823.719 43.6705 825.789 45.5205 828.429 46.2305C829.669 46.5605 830.959 46.7305 832.239 46.8605C832.729 46.9105 833.259 46.6805 833.779 46.5705C834.139 44.8005 833.269 43.5705 832.399 42.3405C829.989 38.9305 826.879 36.2805 823.249 34.2905C820.989 33.0505 818.589 32.0605 816.279 30.9005C814.939 30.2305 813.569 29.5605 812.389 28.6505C810.939 27.5305 810.819 26.5205 811.789 24.9805C813.339 22.5105 815.249 20.3205 817.249 18.2005C820.929 14.2905 825.609 13.6205 830.599 13.8705C831.349 13.9105 832.079 14.1905 832.829 14.2205C835.309 14.3205 837.049 15.6705 838.509 17.5005C839.399 18.6205 839.439 19.6105 838.559 20.7305C837.689 21.8205 836.669 22.7905 835.769 23.8605C834.969 24.8405 834.209 25.8805 833.329 27.0205Z" fill="#0DFF9A"/>
<path d="M804.229 13.9009C804.429 15.7809 803.319 16.8909 802.429 18.0809C802.179 18.4209 801.689 18.5809 801.459 18.9209C799.839 21.3109 797.479 21.9209 794.759 21.9909C792.839 22.0409 790.929 22.4809 789.059 22.7409C788.249 24.3309 788.329 25.7809 788.629 27.3609C791.269 27.9609 793.809 27.7009 796.379 27.5509C798.909 27.4009 801.399 26.5809 804.159 26.9609C803.879 28.7009 802.909 29.8409 801.999 30.9909C801.469 31.6609 800.729 32.1709 800.179 32.8309C798.579 34.7309 796.559 35.8509 794.139 36.3109C793.419 36.4509 792.729 36.7209 791.789 37.0009C793.349 40.2809 795.999 42.0109 798.819 43.5409C801.719 45.1209 804.789 44.8509 807.909 43.8609C808.109 45.5909 807.239 46.5309 806.499 47.3509C804.979 49.0209 803.359 50.6309 801.609 52.0409C799.959 53.3709 797.879 53.7509 795.789 53.5909C791.269 53.2509 787.549 51.1809 784.579 47.8309C782.859 45.8909 781.519 43.6809 780.639 41.2009C780.139 39.7909 779.479 38.4409 778.859 37.0009C779.309 32.8109 779.779 28.5409 780.239 24.2409C779.719 23.6509 779.059 23.9209 778.469 24.0909C777.959 24.2309 777.509 24.5809 777.009 24.7609C776.249 25.0509 775.369 25.8609 774.709 24.8809C774.169 24.0809 774.799 23.1909 775.309 22.5409C777.239 20.0809 779.299 17.7309 781.739 15.7409C783.059 14.6709 784.659 14.3709 786.279 14.2609C790.999 13.9509 795.729 13.6609 800.459 13.4309C801.739 13.3709 803.029 13.5609 804.229 13.9009Z" fill="#0DFF9A"/>
<path d="M870.669 23.4511C869.649 24.3111 868.309 24.3611 866.859 24.3311C862.769 24.2611 858.669 24.3111 854.579 24.3411C854.049 24.3411 853.529 24.4911 852.999 24.5811C852.399 26.0911 853.009 27.3811 853.439 28.8711C854.049 28.9711 854.659 29.1211 855.269 29.1511C859.899 29.3811 864.519 29.5511 869.159 29.2211C870.229 29.1411 871.299 29.2111 872.609 29.2111C872.449 29.9011 872.409 30.4111 872.209 30.8411C871.139 33.1411 869.159 34.6811 867.449 36.4511C866.569 37.3611 865.449 37.6311 864.229 37.7311C863.269 37.8111 862.319 38.0011 861.369 38.1911C861.199 38.2211 861.069 38.4611 860.839 38.6911C861.949 40.1411 863.649 40.6511 865.199 41.2711C866.689 41.8611 868.339 42.0411 869.869 42.5311C871.569 43.0711 873.239 42.8111 875.139 42.3511C875.139 42.9811 875.269 43.4311 875.119 43.7311C873.809 46.3811 871.779 48.4711 869.669 50.4811C868.929 51.1811 867.989 51.3911 866.989 51.4611C860.909 51.8511 855.319 50.3411 850.759 46.3211C846.329 42.4111 843.479 37.5311 844.129 31.2511C844.189 30.7211 844.159 30.1411 844.349 29.6611C845.179 27.5811 845.839 25.3811 847.009 23.5011C848.719 20.7511 851.059 18.4511 853.689 16.5411C854.429 16.0111 855.469 15.7011 856.399 15.6611C858.649 15.5411 860.919 15.6011 863.179 15.6611C863.809 15.6811 864.429 15.9311 865.049 16.1011C866.499 16.5011 867.939 16.9011 869.389 17.3211C869.899 17.4711 870.439 17.5911 870.909 17.8211C871.689 18.2111 872.029 19.1811 871.769 20.0211C871.439 21.0011 871.119 22.0111 870.669 23.4511Z" fill="#0DFF9A"/>
<path d="M173.42 18.0813C173.35 18.5413 173.29 18.6613 173.32 18.7513C175.27 23.8913 175.09 23.8613 180.45 23.4913C182.49 23.3513 184.54 23.1913 186.58 23.1413C187.93 23.1013 188.58 24.0313 188.11 25.2613C187.88 25.8513 187.56 26.4413 187.14 26.9113C185.05 29.2213 182.93 31.5013 179.71 32.4313C179.65 33.9013 180.18 35.2113 180.74 36.4513C182.03 39.2913 183.34 42.1413 184.86 44.8613C185.67 46.3113 185.54 47.5113 184.74 48.7713C184.4 49.3113 183.99 49.8413 183.52 50.2713C182.01 51.6513 180.48 53.0113 178.92 54.3313C177.84 55.2413 177.07 55.0913 176.3 53.8013C175.41 52.3313 174.47 50.8513 173.8 49.2813C172.45 46.1113 171.29 42.8613 170.02 39.6613C169.35 37.9613 168.64 36.2713 167.89 34.6013C167.54 33.8113 166.85 33.5613 165.81 33.9013C165.69 34.4013 165.47 34.9913 165.41 35.5913C165.23 37.6013 164.4 39.3013 163.2 40.8913C161.43 43.2213 159.41 45.3013 157.23 47.2413C155.44 48.8313 153.37 49.9913 151.05 50.6413C147.52 51.6313 143.89 52.1613 140.25 52.5413C138.97 52.6713 137.67 52.6313 136.44 52.0713C135.62 51.7013 135.07 51.2413 134.79 50.2713C134.51 49.2713 133.93 48.3213 133.33 47.4613C130.48 43.4013 127.55 39.4213 125.06 35.1113C123.85 33.0113 123.53 30.6413 122.52 28.4913C122.36 28.1613 122.54 27.6513 122.63 27.2313C122.8 26.3913 123.02 25.5713 123.24 24.6413C122.2 23.5513 120.95 23.6813 119.48 23.7813C119.58 24.3213 119.59 24.7313 119.72 25.0913C121.86 30.7313 124.04 36.3513 126.15 41.9913C127.58 45.8113 127.56 46.1513 124.95 49.3013C123.45 51.1113 121.95 52.9613 119.75 54.3213C119.12 54.0513 118.38 53.8713 117.8 53.4613C115.33 51.7313 112.85 50.0013 110.47 48.1513C105.96 44.6313 101.24 41.4313 96.3796 38.4113C95.4796 37.8513 94.4996 37.4113 93.5996 36.9413C92.7096 37.6313 93.0396 38.4113 93.1896 39.0813C93.7096 41.4713 93.0596 43.4913 91.4296 45.2613C90.2596 46.5313 89.1296 47.8313 87.9396 49.0713C87.5996 49.4213 87.0796 49.6013 86.4596 49.9713C85.8596 48.6913 85.3296 47.5813 84.8696 46.5913C82.7996 48.7313 80.7996 50.8113 78.7796 52.8713C78.2596 53.4013 77.5696 53.3813 76.9996 53.0113C76.3796 52.6013 75.7996 52.0913 75.2896 51.5513C73.4496 49.5813 71.5796 47.6313 69.8596 45.5613C68.8796 44.3813 67.7996 43.7713 66.2696 43.8213C62.6096 43.9413 58.9496 44.0213 55.2796 44.0813C54.0796 44.1013 53.3096 44.6613 52.6296 45.6113C51.6896 46.9213 50.6396 48.1513 49.5496 49.3413C48.9996 49.9513 48.2596 50.4013 47.7396 50.8213C46.5496 50.5413 46.3096 49.8213 46.3596 49.0413C46.3996 48.3013 46.5696 47.5413 46.8096 46.8413C47.2496 45.5913 47.6896 44.4313 46.5496 43.2513C46.2996 42.9913 46.3996 42.1913 46.5796 41.7413C46.8996 40.9513 47.2996 40.1413 47.8696 39.5113C49.0996 38.1313 49.4496 36.5413 49.5796 34.7613C49.8396 31.2113 50.2396 27.6813 50.5896 24.1413C50.8696 21.3013 51.6596 18.6913 53.4996 16.4013C54.7096 14.9013 55.6096 13.1413 57.1996 11.9513C58.8696 10.6913 59.4096 10.6413 60.7496 12.1413C61.8896 13.4213 62.8696 14.8413 63.8496 16.2513C68.0896 22.3513 72.2496 28.5113 76.5596 34.5613C78.1196 36.7513 79.9796 38.7213 81.7396 40.7513C82.1396 41.2113 82.6996 41.5113 83.3296 42.0013C83.4896 41.4713 83.6996 41.1613 83.6296 40.9213C83.0496 38.7413 82.3296 36.5913 81.8196 34.4013C81.2596 32.0013 80.8096 29.5613 80.4596 27.1213C80.3596 26.4413 80.6296 25.5713 81.0196 24.9813C82.6596 22.4613 84.2196 19.8513 86.5196 17.8313C87.6596 16.8313 88.4896 16.6613 89.6896 17.4313C90.3196 17.8313 90.9196 18.3313 91.3996 18.9013C93.0696 20.9013 94.9996 22.6313 97.1096 24.1213C101.16 26.9813 105.26 29.7613 109.35 32.5513C109.58 32.7113 109.92 32.7113 110.3 32.8013C110.72 31.7013 110.13 30.8513 109.75 30.0113C108.85 28.0513 107.95 26.1013 106.91 24.2113C105.72 22.0413 105.94 20.1013 107.54 18.2613C108.88 16.7113 110.13 15.0813 111.54 13.6113C113.24 11.8513 113.78 12.0213 114.54 14.2613C114.85 15.1813 115.17 16.0913 115.45 17.0213C115.79 18.1513 116.3 19.1713 117.3 20.1313C117.78 19.7213 118.23 19.4313 118.55 19.0513C119.03 18.4813 119.4 17.8013 119.88 17.2213C122.09 14.5213 124.71 13.0713 128.36 14.1513C130.73 14.8513 133.18 15.2713 135.6 15.8313C136.23 15.9813 136.84 16.1913 137.47 16.3113C140.71 16.9813 140.71 16.9713 142.8 14.2213C143.06 13.8813 143.31 13.5113 143.62 13.2213C146.84 10.1813 146.19 9.93128 150.91 10.1913C154.48 10.3913 158.02 10.1413 161.56 9.75128C163.89 9.50128 166.32 9.85126 168.51 8.61126C168.82 8.44126 169.4 8.51127 169.74 8.68127C170.88 9.27127 172.05 9.04129 173.22 8.95129C181.81 8.31129 190.41 7.76127 199.03 7.71127C199.68 7.71127 200.33 7.70128 200.96 7.79128C202.1 7.97128 202.75 9.44127 201.97 10.2813C199.93 12.4813 197.87 14.7013 195.63 16.7013C194.22 17.9613 192.42 18.3613 190.49 17.6113C189.81 17.3513 189.01 17.3113 188.27 17.3313C183.75 17.4513 179.23 17.6113 174.7 17.7713C174.32 17.8313 173.91 17.9713 173.42 18.0813ZM134.59 26.9213C135.9 30.0213 141.75 39.0313 145.11 43.2613C150.9 43.1013 153.81 42.5013 155.93 41.0413C155.31 39.0213 155.04 38.5313 153.5 37.0013C151.51 35.0113 149.24 33.3713 146.82 31.9313C143.12 29.7313 139.26 27.9013 134.59 26.9213ZM161.12 19.0113C157.13 18.5713 151.92 19.1513 149.77 20.2113C153.11 22.1713 156.42 24.1113 159.82 26.1013C160.73 25.4713 161.68 24.8113 162.76 24.0713C162.2 22.3513 161.67 20.7313 161.12 19.0113ZM57.9996 29.6213C57.0296 31.2913 57.0296 31.2913 57.2896 33.1513C57.7296 33.2313 58.2196 33.3813 58.7196 33.4113C59.3196 33.4413 59.9996 33.5613 60.3596 32.6313C59.9196 31.5613 59.3896 30.4713 57.9996 29.6213Z" fill="#0DFF9A"/>
<path d="M231.171 53.9212C229.931 53.5412 229.671 52.6812 229.411 51.8712C228.951 50.4312 228.591 48.9712 228.151 47.5212C227.681 45.9812 227.161 44.4612 226.651 42.8812C225.811 42.6612 225.111 42.4412 224.391 42.2912C223.031 42.0112 222.981 40.9412 223.221 40.0812C223.281 39.8812 223.371 39.6612 223.521 39.5112C224.891 38.1612 224.781 36.6712 224.021 35.0612C223.621 34.2012 223.391 33.2712 222.991 32.0712C222.521 32.5112 222.091 32.7112 222.001 33.0212C221.011 36.4612 218.821 39.1012 216.361 41.5612C215.521 42.4012 214.651 43.2012 213.821 44.0512C209.751 48.1612 204.721 49.1112 199.231 48.5112C196.501 48.2112 194.001 47.2012 191.711 45.7312C186.461 42.3712 184.731 36.3112 187.561 30.7812C187.851 30.2112 188.201 29.6512 188.581 29.1412C191.161 25.6712 194.041 22.4712 197.311 19.6412C198.381 18.7112 199.571 18.0312 200.951 17.6312C201.861 17.3612 202.851 16.9912 203.511 16.3612C206.361 13.6512 209.421 14.2212 212.461 15.7312C214.081 16.5312 215.501 17.7312 217.141 18.8412C218.511 18.1112 219.161 16.6612 220.221 15.6512C221.391 14.5412 222.471 13.3412 223.671 12.2612C224.791 11.2512 226.011 10.3612 227.101 9.49117C228.511 9.36117 229.801 9.30118 231.071 9.10118C238.151 8.00118 245.031 8.83119 251.721 11.2612C253.211 11.8012 254.651 12.6412 255.931 13.5912C258.271 15.3512 258.711 17.3712 257.801 20.1312C257.311 21.6112 256.431 22.8212 255.431 23.9512C253.061 26.6212 250.451 29.0212 247.461 31.0012C246.671 31.5312 245.901 32.0812 244.781 32.8612C245.681 33.1912 246.221 33.5412 246.771 33.5712C249.891 33.7412 253.001 33.8612 256.121 33.9412C258.811 34.0012 261.511 33.9712 264.201 34.0112C264.821 34.0212 265.441 34.1612 265.991 34.2312C266.391 35.2612 265.821 35.8812 265.311 36.3612C262.861 38.6612 260.141 40.6212 257.051 41.9312C255.711 42.5012 254.111 42.6112 252.621 42.6612C248.961 42.7812 245.291 42.7412 241.631 42.7812C240.691 42.7912 239.741 42.8612 238.631 42.9112C238.661 43.6412 238.511 44.2312 238.721 44.6512C239.601 46.4312 238.861 47.9712 237.681 49.0212C235.601 50.8412 233.261 52.3712 231.171 53.9212ZM219.951 21.0312C219.901 21.2112 219.851 21.4012 219.751 21.7712C219.861 21.4012 219.911 21.2212 219.961 21.0412C219.771 21.0312 219.581 21.0212 219.391 21.0112C219.571 21.0212 219.761 21.0212 219.951 21.0312ZM196.091 26.7112C194.871 28.5312 194.801 28.7612 195.181 30.2912C195.861 33.0612 197.571 35.0812 199.911 36.5612C203.531 38.8512 207.511 39.3812 211.681 38.7212C213.231 38.4712 213.601 37.9812 213.521 36.2812C213.291 31.6012 210.891 28.2112 207.121 25.6812C205.761 24.7712 204.311 24.2812 202.851 26.0912C202.661 26.3312 202.351 26.4812 201.861 26.8512C200.071 26.8012 198.051 26.7512 196.091 26.7112ZM248.051 24.4012C247.011 21.8612 246.521 21.3612 244.091 20.4612C240.331 19.0612 236.451 18.2112 232.431 18.0712C231.931 18.0512 231.421 18.1912 230.931 18.2512C231.241 21.9312 233.301 27.8712 235.111 30.2612C238.731 29.3812 242.051 27.5612 245.521 26.1512C246.401 25.8012 247.371 25.5312 248.051 24.4012Z" fill="#0DFF9A"/>
<path d="M265.96 18.0913C264.42 18.0613 263.26 18.0313 261.85 18.0013C261.94 17.2513 261.79 16.4513 262.11 16.1413C263.88 14.4413 265.18 12.3013 267.23 10.8313C268.91 9.62132 270.67 9.02134 272.66 9.20134C279.84 9.85134 287.05 10.3813 294.07 12.2013C296.98 12.9613 299.83 13.9613 302.68 14.9413C305.68 15.9713 308.18 17.8913 310.65 19.7913C312.1 20.9113 313.18 22.4113 314.06 24.0513C315.85 27.3613 315.44 30.5013 313.39 33.4813C312.6 34.6213 311.6 35.6413 310.61 36.6213C306.2 41.0213 300.96 44.1813 295.36 46.7913C293.8 47.5213 292.21 48.1813 290.61 48.8313C289.92 49.1113 289.19 49.4013 288.46 49.4913C287.06 49.6513 285.92 49.0913 286.52 47.2213C287.64 43.6813 287.56 43.6413 291.26 42.3513C295.43 40.8913 299.53 39.2513 303.46 37.2113C305.5 36.1513 305.98 35.1613 305.15 33.0413C304.61 31.6613 303.82 30.3213 302.87 29.1813C300.84 26.7613 298.3 25.0113 295.37 23.7213C290.79 21.7113 285.99 20.5513 281.1 19.6913C280.28 19.5513 279.43 19.6313 278.65 19.6213C278.1 21.0413 278.77 22.1213 279.11 23.2113C280.25 26.9113 281.39 30.6213 282.7 34.2613C283.42 36.2813 284.38 38.2313 285.42 40.1113C286.09 41.3213 286.05 42.3513 285.32 43.4213C284.96 43.9513 284.59 44.5313 284.08 44.8813C282.31 46.1013 280.51 47.2813 278.65 48.3713C277.53 49.0313 276.57 48.7513 275.92 47.6113C275.06 46.1213 274.25 44.5913 273.59 43.0113C271.47 37.9413 269.89 32.6913 268.48 27.3813C267.66 24.3713 266.84 21.3713 265.96 18.0913Z" fill="#0DFF9A"/>
<path d="M5.33013 40.2705C4.47013 39.1305 4.73012 38.1205 5.34012 37.1505C5.91012 36.2405 6.56013 35.3705 7.19013 34.5005C8.31013 32.9305 8.74013 31.2205 8.30013 29.3105C8.01013 28.0505 7.82012 26.7705 7.51012 25.5105C6.81012 22.7405 7.13013 20.1805 8.85013 17.8405C9.93013 16.3705 10.9701 14.8505 12.0701 13.4005C12.4601 12.8905 12.9701 12.4605 13.4901 12.0805C14.3201 11.4605 15.5401 12.0205 15.7101 13.0805C15.7801 13.5005 15.7401 13.9405 15.7301 14.3605C15.5801 19.7405 17.2901 24.7605 18.7601 29.8205C18.8201 30.0105 19.0101 30.1605 19.2501 30.4805C20.6701 30.9505 22.2401 30.8905 24.0601 30.6705C23.9201 29.9105 23.8801 29.3005 23.6901 28.7405C22.2601 24.5605 20.8601 20.3705 19.3201 16.2405C18.4901 14.0105 18.6501 12.0605 20.0901 10.1605C21.2601 8.62048 22.3101 6.98048 23.5201 5.47048C24.0401 4.82048 24.8001 4.34048 25.5201 3.88048C26.0901 3.51048 26.8901 3.89048 27.0001 4.59048C27.8401 10.0805 29.9801 15.1505 31.9901 20.2605C33.0101 22.8605 34.2501 25.3905 35.4201 27.9305C35.7301 28.6005 36.1801 29.2105 36.6201 29.9505C37.9301 29.9805 39.2101 29.9805 40.4901 30.0505C41.8401 30.1205 42.4801 31.0105 41.9401 32.2305C41.2901 33.6905 40.4801 35.0805 39.6001 36.7605C39.8101 37.3005 40.0601 38.1105 40.4301 38.8705C41.4801 41.0005 42.5201 43.1305 43.6701 45.2005C44.3201 46.3705 44.2601 47.4105 43.6801 48.5605C42.5401 50.8505 39.5501 54.0005 37.0801 55.3905C36.0701 55.0305 35.7001 54.0805 35.2501 53.2505C33.8801 50.6905 32.5701 48.0905 31.2601 45.4905C30.6801 44.3405 30.1601 43.1505 29.5901 41.9905C28.6001 39.9805 28.5401 39.9105 26.4001 40.1405C25.1501 40.2705 23.8301 40.2205 22.4701 40.8605C22.7501 42.5905 23.3501 44.0605 24.3001 45.3405C25.4101 46.8305 25.1701 48.2705 24.0801 49.4605C22.3401 51.3605 20.4401 53.1105 18.5401 54.8505C18.0201 55.3305 17.2801 55.1405 16.7901 54.6205C16.3601 54.1505 15.9301 53.6305 15.6901 53.0505C14.3601 49.8805 13.0901 46.6805 11.8101 43.4905C11.5701 42.8905 11.3601 42.2905 11.1201 41.6605C9.39012 40.5705 7.31013 41.0305 5.33013 40.2705Z" fill="#0DFF9A"/>
<path d="M219.951 21.0195C219.761 21.0195 219.571 21.0295 219.391 21.0295C219.581 21.0395 219.771 21.0495 219.961 21.0595C219.961 21.0495 219.951 21.0195 219.951 21.0195Z" fill="#0DFF9A"/>
<path d="M219.96 21.0513C219.91 21.2313 219.86 21.4013 219.75 21.7813C219.85 21.4013 219.9 21.2213 219.95 21.0313C219.95 21.0213 219.96 21.0513 219.96 21.0513Z" fill="#0DFF9A"/>
</svg>
