<svg width="1014" height="1266" viewBox="0 0 1014 1266" fill="none" xmlns="http://www.w3.org/2000/svg">
<path d="M192.91 652.808C184.93 649.548 185.21 649.688 189.05 642.188C191.51 637.378 194.82 633.618 198.91 630.258C202.22 627.538 205.08 624.288 208.32 621.478C210.99 619.158 213.03 620.088 214.06 623.898C214.37 625.028 214.53 626.208 214.83 627.728C216.83 627.968 218.6 628.388 220.35 628.348C233.23 628.028 245.22 631.698 256.88 636.638C259.95 637.938 262.94 639.718 265.55 641.788C270.53 645.748 271.68 650.018 268.97 655.658C267 659.758 264.53 663.788 261.54 667.198C255.24 674.408 247.69 680.228 239.39 685.048C237.32 686.248 235.41 687.738 233.4 689.118C234.07 689.928 234.36 690.638 234.82 690.778C246.25 694.258 257.69 697.718 269.15 701.078C270.25 701.398 271.52 701.118 272.84 701.118C273.22 699.948 273.77 699.108 273.71 698.318C273.03 689.888 275.96 682.198 280.63 675.808C286.97 667.118 291.93 657.588 298.33 648.998C300.34 646.298 302.8 643.948 304.86 641.278C311.11 633.178 319.76 632.118 328.97 633.208C337.43 634.208 344.65 638.288 351.33 643.358C352.29 644.088 353.16 645.038 353.83 646.048C361.75 657.988 365.94 670.888 363.25 685.328C362.22 690.838 359.67 695.758 355.91 699.988C353.05 703.198 350.1 706.338 347.35 709.638C338.4 720.358 326.45 724.388 313.06 724.548C306.97 724.618 300.77 723.798 295.01 721.368C289.02 718.848 283.3 715.918 279.43 710.348C278.76 709.388 277.66 708.728 276.28 707.488C274.07 709.248 272.68 711.608 270.83 713.488C268.9 715.448 266.65 717.088 264.78 719.108C261.55 722.588 257.96 723.848 253.19 722.588C249.07 721.508 244.75 721.178 240.77 720.558C235.56 723.418 230.57 726.288 225.46 728.928C220.88 731.298 218.13 730.698 215.22 726.638C213.44 724.158 212.05 721.388 210.61 718.688C208.73 715.168 207.09 711.588 203.43 709.338C200.76 707.688 200.18 704.968 201.38 702.038C202.51 699.288 202.04 696.698 201.13 693.978C200.06 690.778 199.31 687.468 198.48 684.188C196.31 675.548 193.96 666.938 193.72 657.938C193.7 656.158 193.17 654.378 192.91 652.808ZM314.4 655.948C314.7 658.108 314.83 659.578 315.12 661.018C316.42 667.408 312.38 672.888 305.1 670.858C303.78 670.488 302.06 670.868 300.73 671.408C298.5 672.328 296.44 673.658 294.33 674.808C291.97 681.898 295.25 687.028 299.89 691.358C308.1 699.008 318.21 702.268 329.26 702.818C333.9 703.048 338.47 702.588 342.41 699.978C350.18 684.948 335.29 656.348 314.4 655.948ZM248.2 665.908C242.17 657.668 232.18 653.358 217.76 652.648C216.82 658.268 219.18 663.358 220.5 668.548C221.28 671.628 221.07 675.308 224.44 677.608C232.66 674.188 240.58 670.438 248.2 665.908Z" fill="#0DFF9D"/>
<path d="M168.839 669.689C173.019 669.049 176.269 668.539 180.099 667.949C180.399 673.389 175.839 675.529 173.829 679.819C174.469 681.549 175.129 683.869 176.149 686.019C180.219 694.639 184.109 703.349 188.629 711.729C191.139 716.389 190.169 719.899 187.049 723.409C183.099 727.849 178.039 730.599 173.119 732.849C169.199 731.859 167.749 729.119 166.369 726.339C163.079 719.739 159.829 713.109 156.539 706.519C154.489 702.409 152.369 698.339 150.259 694.199C145.059 694.199 140.189 694.199 135.329 694.199C130.439 694.199 125.539 694.199 119.969 694.199C120.389 696.309 120.319 697.919 121.019 699.059C123.249 702.679 125.769 706.119 128.289 709.779C124.289 717.379 116.519 718.989 109.279 721.209C107.899 721.629 105.489 720.639 104.349 719.499C101.979 717.149 99.7193 714.479 98.1593 711.549C92.9093 701.699 89.5193 691.219 88.4193 680.029C87.7693 673.399 89.2093 667.199 91.6493 661.149C92.4293 659.219 93.3493 657.359 94.5393 654.719C85.4493 652.889 76.9593 653.849 68.5293 653.829C66.8793 653.829 65.2193 654.869 63.3593 655.499C63.7593 663.019 65.5093 669.789 67.3193 676.579C71.5093 692.309 75.5193 708.099 79.7293 723.829C80.3293 726.069 80.4092 728.029 79.2692 730.009C75.7292 736.149 70.9193 741.159 65.9193 745.699C62.1893 744.669 61.7193 741.629 60.5493 739.259C59.4693 737.069 58.7292 734.689 58.0892 732.329C54.0092 717.189 50.0493 702.019 45.9493 686.889C42.9993 675.989 41.5193 665.199 47.7993 654.639C46.3693 654.169 45.5593 653.679 44.7593 653.679C36.4593 653.689 28.1492 653.699 19.8492 653.909C17.4192 653.969 14.9593 654.519 12.6093 655.189C11.6693 655.459 10.9993 656.659 10.1893 657.419C9.57925 657.989 8.98925 658.919 8.29925 659.019C4.10925 659.599 -0.460749 654.209 1.30925 650.629C4.59925 643.979 9.10925 638.129 14.2193 632.779C15.1893 631.769 16.8492 631.159 18.2792 630.919C20.3792 630.569 22.5693 630.629 24.7193 630.659C54.2393 630.989 83.7593 631.349 113.279 631.699C114.199 631.709 115.129 631.599 116.049 631.679C119.899 632.019 121.549 634.719 119.659 638.059C117.849 641.249 115.939 644.499 113.479 647.179C108.839 652.229 108.249 657.939 109.279 664.109C129.819 670.649 133.699 671.479 140.739 670.829C141.929 667.979 139.999 665.579 139.429 663.009C138.179 657.319 136.699 651.679 135.429 645.999C132.749 633.969 135.659 623.469 144.289 614.619C146.639 612.209 148.979 609.779 151.569 607.649C152.249 607.089 153.919 607.329 154.919 607.719C155.499 607.949 156.019 609.259 155.959 610.039C155.549 615.869 155.089 621.629 155.989 627.499C158.219 641.919 163.579 655.289 168.839 669.689Z" fill="#0DFF9D"/>
<path d="M589.22 688.989C592.38 684.049 591.53 679.969 590.56 675.679C589.07 669.099 588.17 662.389 586.97 655.749C586.51 653.189 586.8 650.769 588.45 648.759C593.53 642.589 598.65 636.429 606.2 633.059C606.71 632.829 607.4 633.029 607.99 633.029C610.33 634.189 610.29 636.439 610.6 638.559C611.81 646.769 612.99 654.979 614.34 663.159C614.68 665.199 615.61 667.138 616.29 669.198C629.07 670.498 641.27 673.878 654.47 672.948C653.99 670.438 653.7 668.668 653.3 666.938C652.19 662.148 650.62 657.429 649.97 652.589C648.64 642.679 650.65 633.658 658.26 626.438C663.13 621.828 667.81 617.009 673.92 614.559C676.17 615.709 676.3 617.359 675.79 618.769C671.54 630.479 674.09 641.829 677.47 653.119C678.79 657.529 680.41 661.859 681.85 666.229C682.93 669.499 683.93 672.809 688.37 672.169C686.91 679.379 686.77 679.429 689.25 685.399C692.9 694.189 696.78 702.879 700.54 711.629C701.14 713.029 701.68 714.459 702.26 715.929C699.13 725.279 689.8 727.249 683.74 732.419C679.96 732.089 678.52 729.609 677.3 727.149C673.47 719.449 669.75 711.689 666.08 703.909C664.65 700.879 663.44 697.728 661.96 694.208C655.92 694.208 650.14 694.208 644.36 694.208C638.54 694.208 632.72 694.208 627.12 694.208C626.6 695.078 625.94 695.698 626.06 696.068C628.16 702.678 625.33 707.449 620.32 711.289C616.47 714.239 612.42 716.949 608.68 719.609C604.83 717.579 603.78 714.208 602.41 711.198C600.24 706.448 598.14 701.629 596.55 696.669C595.46 693.199 593.47 690.839 589.22 688.989Z" fill="#0DFF9D"/>
<path d="M544.269 703.069C544.389 702.249 544.679 701.339 544.619 700.449C543.579 684.719 553.619 676.709 565.689 670.109C565.889 669.999 566.259 670.209 566.599 670.279C568.839 671.619 568.339 673.919 568.439 675.989C568.929 686.109 569.479 696.229 569.839 706.349C570.139 714.739 571.819 722.849 574.679 730.669C576.009 734.309 575.489 737.109 573.419 740.119C569.449 745.899 563.229 748.619 557.979 752.699C552.619 749.819 550.999 745.119 549.949 740.349C548.639 734.359 547.929 728.239 546.899 722.179C546.499 719.819 545.959 717.479 545.389 714.679C540.619 716.139 537.149 718.889 534.319 721.809C523.019 733.479 494.229 733.609 478.949 722.979C472.989 718.829 469.869 713.209 469.659 705.879C469.429 697.669 472.019 690.109 474.859 682.639C477.599 675.419 481.599 668.839 486.229 662.659C495.909 649.719 507.769 639.109 521.249 630.269C525.639 627.389 530.299 625.059 535.549 624.149C542.339 622.979 546.799 625.399 549.379 631.869C550.169 633.849 550.689 635.979 551.019 638.089C551.199 639.229 551.039 640.679 550.459 641.629C547.289 646.789 543.019 650.649 536.819 651.679C533.109 652.289 529.469 652.329 526.729 648.879C523.439 644.749 518.989 645.419 514.939 646.999C512.179 648.079 509.449 649.969 507.459 652.169C499.009 661.509 493.509 672.369 492.199 685.039C491.149 695.239 494.119 700.889 503.419 704.939C513.429 709.289 523.939 711.209 534.889 708.609C538.599 707.749 541.839 706.269 544.269 703.069Z" fill="#0DFF9D"/>
<path d="M445.91 619.158C449.09 619.878 450.82 621.978 451.9 624.648C458.88 641.988 463.37 659.618 459.87 678.598C456.68 695.898 446.74 708.058 432.16 716.918C427.85 719.538 422.96 720.538 417.94 719.778C402.93 717.478 389.81 711.238 378.91 700.558C373.92 695.668 371.09 689.538 369.44 682.888C368.14 677.658 368.87 672.528 371.2 667.618C376.34 656.818 384.11 648.268 393.66 641.248C394.06 640.948 394.83 641.148 396.05 641.078C396.21 642.398 396.84 643.918 396.44 645.088C395.57 647.688 394.34 650.198 393 652.598C389.73 658.438 389.65 664.458 392.44 670.308C394.13 673.858 396.3 677.418 399.05 680.188C408.18 689.358 419.23 695.128 432.07 697.218C433.24 697.408 434.49 697.128 435.43 697.078C438.4 695.228 438.61 692.288 439.18 689.658C441.09 680.758 440.27 671.888 438.23 663.128C437.25 658.948 435.97 654.818 434.57 650.748C432.96 646.088 430.42 641.288 432.54 636.518C435.46 629.938 437.19 622.178 445.91 619.158Z" fill="#0DFF9D"/>
<path d="M532.448 477.359C546.698 480.189 561.468 478.719 576.158 479.339C589.968 479.919 603.778 480.379 617.588 480.969C619.708 481.059 621.808 481.529 623.978 481.839C626.438 481.209 627.618 477.849 631.148 478.689C632.298 478.969 634.148 476.949 635.478 475.759C643.198 468.869 651.158 467.869 659.738 473.289C663.868 475.899 667.568 479.199 671.398 482.259C672.338 483.009 673.368 483.939 673.798 485.009C677.588 494.389 683.428 502.699 687.758 511.809C690.458 517.509 690.418 523.079 688.468 528.779C685.388 537.799 678.838 544.389 672.368 550.959C671.148 552.189 669.218 552.789 667.538 553.479C650.928 560.239 634.508 559.089 618.358 551.919C610.708 548.529 605.298 542.869 602.408 534.919C600.688 530.179 600.348 525.489 601.628 520.469C603.858 511.669 607.418 503.659 613.518 496.859C614.528 495.729 615.298 494.389 616.138 493.119C616.268 492.919 616.158 492.569 616.158 491.999C615.288 492.109 614.278 491.949 613.648 492.369C612.388 493.189 611.138 494.159 610.238 495.339C606.788 499.879 602.328 501.809 596.638 501.539C592.038 501.319 587.418 501.559 582.808 501.669C581.008 501.709 579.218 501.979 577.078 502.169C575.988 510.029 579.608 516.819 580.728 523.959C581.858 531.149 581.348 538.819 585.578 544.969C585.188 549.629 582.808 552.729 579.718 555.389C576.928 557.799 574.168 560.249 571.278 562.539C568.548 564.709 566.108 564.189 564.588 560.979C563.408 558.499 562.168 555.869 561.848 553.199C559.768 535.719 554.018 519.179 549.238 501.879C543.848 500.909 538.328 501.839 532.878 501.549C527.788 501.279 522.388 502.129 517.568 498.109C518.268 496.129 518.568 493.899 519.718 492.279C523.408 487.059 526.228 481.059 532.448 477.359ZM670.698 534.849C671.098 523.889 666.598 515.259 660.588 507.299C656.868 502.369 652.278 498.299 646.658 495.449C643.488 493.839 640.158 493.069 636.868 494.119C633.118 495.309 629.598 497.229 625.968 498.809C622.768 500.199 621.568 502.939 621.178 506.119C620.258 513.589 622.158 520.029 627.828 525.329C634.668 531.719 643.048 534.639 651.958 535.779C657.858 536.539 664.058 538.289 670.698 534.849Z" fill="#0DFF9D"/>
<path d="M454.449 512.768C454.829 514.498 455.369 515.678 455.289 516.808C454.869 522.578 457.539 526.968 461.619 530.508C473.359 540.698 486.949 545.088 502.479 542.988C502.719 542.958 502.909 542.618 503.559 542.018C503.139 537.838 500.559 534.428 497.789 531.238C491.059 523.478 482.969 517.427 473.609 513.197C456.799 505.607 439.679 498.848 421.829 494.048C421.529 493.968 421.219 493.947 420.929 493.837C412.819 490.967 408.559 488.717 415.879 479.717C417.229 478.057 418.119 476.028 419.469 474.368C423.999 468.818 429.079 464.887 436.769 463.437C452.499 460.457 468.259 458.048 484.229 457.518C492.469 457.248 500.749 458.007 508.889 459.977C516.629 461.857 522.379 465.678 524.939 474.038C522.469 482.398 515.609 487.777 509.379 493.567C507.899 494.947 505.889 494.357 504.319 493.087C503.849 492.707 503.339 492.237 503.149 491.697C500.459 484.167 493.989 482.587 487.189 481.097C481.119 479.767 475.089 479.297 468.999 479.727C468.129 482.117 469.949 482.458 471.189 483.048C478.679 486.588 486.269 489.928 493.679 493.628C501.159 497.368 507.629 502.537 513.419 508.577C517.299 512.617 520.249 517.228 522.599 522.288C525.989 529.588 525.539 536.648 521.339 543.388C517.259 549.948 512.249 555.788 506.359 560.798C502.549 564.038 498.139 566.018 492.999 566.398C484.019 567.048 475.249 566.137 466.549 563.857C457.879 561.587 451.089 556.567 445.359 549.967C442.059 546.167 439.299 542.128 442.849 536.798C443.609 535.668 443.239 533.798 443.459 532.288C444.429 525.758 447.309 520.027 451.079 514.727C451.679 513.867 453.019 513.558 454.449 512.768Z" fill="#0DFF9D"/>
<path d="M705.818 462.349C710.158 462.349 713.488 462.429 716.818 462.339C730.008 461.989 742.368 465.149 754.128 470.999C757.788 472.819 761.008 475.149 763.438 478.379C766.828 482.889 767.968 487.839 764.968 492.999C763.278 495.899 761.518 498.889 759.188 501.239C754.018 506.469 748.968 511.929 742.308 515.429C741.528 515.839 740.748 516.269 739.828 516.759C742.918 520.259 746.258 520.979 749.458 521.899C759.778 524.859 770.138 527.689 780.448 530.709C784.788 531.989 789.468 532.589 793.498 536.089C791.838 540.139 789.358 543.449 786.088 546.209C785.148 546.999 783.858 547.469 783.138 548.399C778.908 553.889 773.908 554.349 767.598 552.009C762.178 549.999 756.288 549.319 750.638 547.919C744.378 546.379 738.168 544.669 731.918 543.069C730.488 542.699 729.028 542.469 727.308 542.119C726.968 543.309 726.388 544.199 726.558 544.889C727.678 549.289 725.888 552.679 723.148 555.829C719.518 560.009 714.848 562.939 711.018 567.269C709.498 565.919 708.308 565.309 707.808 564.339C706.408 561.619 704.958 558.849 704.108 555.929C697.888 534.679 692.768 513.149 688.498 491.419C686.528 481.369 691.228 474.369 698.248 468.279C700.758 466.109 703.488 464.169 705.818 462.349ZM742.758 498.459C739.628 492.799 735.048 490.549 730.568 489.109C724.968 487.319 719.378 484.239 712.758 485.589C712.638 487.189 712.308 488.409 712.508 489.529C713.308 494.059 714.168 498.579 715.218 503.049C715.598 504.689 716.568 506.189 717.308 507.849C725.868 504.699 733.888 501.739 742.758 498.459Z" fill="#0DFF9D"/>
<path d="M852.958 563.828C851.478 568.218 847.778 569.758 844.648 571.198C841.108 572.828 836.998 573.498 833.058 573.908C829.468 574.278 826.528 572.198 824.648 569.198C822.538 565.828 820.488 562.338 818.988 558.668C816.548 552.708 814.218 546.658 812.528 540.458C811.088 535.188 810.608 529.658 809.488 522.968C808.578 522.308 806.728 520.748 804.678 519.508C793.958 512.958 785.868 503.828 778.958 493.518C778.278 492.498 777.638 491.438 777.068 490.358C771.398 479.628 771.508 478.478 779.298 469.278C782.858 465.078 786.658 461.138 791.618 458.938C795.388 460.488 795.548 463.828 796.578 466.638C800.858 478.198 808.198 487.478 817.838 495.008C818.998 495.908 820.378 496.528 822.258 497.628C823.758 494.958 825.238 492.718 826.328 490.308C827.848 486.958 829.328 483.548 830.368 480.028C833.488 469.498 840.948 462.218 848.668 455.148C850.658 453.328 852.928 451.708 856.558 451.568C856.558 453.298 856.988 454.868 856.498 456.048C849.758 472.188 843.028 488.338 835.968 504.328C833.488 509.958 832.848 515.408 834.328 521.318C837.638 534.518 842.368 547.098 849.868 558.538C851.018 560.298 851.988 562.168 852.958 563.828Z" fill="#0DFF9D"/>
<path d="M292.889 455.869C293.969 458.369 294.539 459.699 295.119 461.029C295.669 461.259 296.209 461.689 296.769 461.699C306.649 462.019 316.329 463.479 325.599 467.019C330.479 468.879 335.229 471.029 338.939 474.949C345.289 481.659 345.679 489.109 340.059 496.499C335.139 502.969 328.679 507.629 322.009 512.059C320.039 513.369 318.069 514.679 315.859 516.149C318.629 518.329 321.319 518.529 324.029 518.769C331.359 519.419 338.699 519.969 345.999 520.859C349.269 521.259 352.449 522.399 356.429 523.399C355.319 525.909 354.919 528.159 353.609 529.539C348.349 535.099 342.869 540.349 334.189 539.659C327.769 539.149 321.319 539.029 314.879 538.809C312.499 538.729 310.099 538.859 307.089 538.899C307.249 540.979 307.029 542.529 307.529 543.789C309.139 547.769 311.039 551.639 312.789 555.559C315.099 560.759 314.269 563.109 309.289 566.069C306.619 567.659 303.919 568.989 300.679 568.829C298.239 568.709 295.799 568.809 292.809 568.809C288.419 565.489 285.379 560.649 283.289 555.109C282.419 552.809 281.509 550.529 280.649 548.229C279.259 544.489 278.449 540.379 276.349 537.099C274.469 534.169 271.179 532.149 268.279 529.519C268.769 528.309 269.009 527.079 269.679 526.169C271.269 524.019 271.809 521.789 270.799 519.279C266.909 509.589 266.829 499.489 267.739 489.329C267.999 486.379 266.929 484.719 264.029 483.609C265.629 476.339 269.199 470.789 276.309 467.659C278.769 466.569 280.869 464.629 283.089 463.009C286.019 460.869 288.689 458.329 292.889 455.869ZM294.449 506.149C305.489 505.179 315.509 501.849 320.229 497.719C315.209 488.589 303.609 482.929 290.329 483.489C289.299 491.549 291.829 498.879 294.449 506.149Z" fill="#0DFF9D"/>
<path d="M64.6287 489.279C68.7387 477.759 70.9087 467.229 72.0887 456.589C73.3287 445.339 77.7887 435.359 82.7187 425.479C83.7787 423.349 85.4687 421.439 87.1887 419.759C88.6987 418.279 91.7587 419.109 92.6787 421.079C93.3187 422.449 93.9387 423.939 94.0387 425.419C94.2387 428.159 94.4387 430.999 93.9787 433.689C91.7487 446.699 89.4387 459.699 86.8687 472.649C85.4287 479.869 83.2887 486.949 81.6987 494.139C81.0187 497.209 80.1887 500.009 77.9087 502.329C75.0887 505.219 74.5687 508.929 75.4187 512.649C76.3687 516.819 77.6187 520.949 79.0787 524.969C82.1987 533.599 85.5387 542.149 88.7387 550.599C82.5887 557.879 74.8487 558.799 66.2287 559.069C57.7687 545.749 49.4387 532.559 53.5087 515.099C51.8487 514.109 50.0687 513.029 48.2687 511.989C41.8987 508.289 35.3987 504.799 29.1787 500.869C22.0487 496.369 16.6687 490.109 12.2587 482.939C10.2387 479.659 9.84868 476.699 12.5587 473.709C16.6687 469.169 20.7387 464.579 24.9587 460.139C25.9587 459.089 27.4887 458.539 29.2687 457.469C30.7887 459.099 32.7587 460.349 33.4987 462.119C39.2887 476.069 51.6887 482.189 64.6287 489.279Z" fill="#0DFF9D"/>
<path d="M131.459 478.59C138.519 470.55 146.629 472.92 154.059 477.11C162.999 482.15 170.529 488.9 173.389 499.5C173.929 501.52 175.169 503.35 176.069 505.28C178.699 510.89 178.929 516.31 175.789 521.97C170.429 531.62 162.859 539.12 153.769 545.03C150.819 546.95 146.999 548 143.449 548.43C138.299 549.04 133.029 548.78 127.819 548.8C122.689 548.81 118.339 546.45 114.209 543.81C111.129 541.84 108.369 539.4 105.389 537.27C98.5092 532.35 96.1292 525.4 96.2192 517.3C96.2292 516.69 96.1992 516.01 96.4492 515.48C98.6392 510.77 100.269 505.63 103.269 501.49C108.469 494.31 114.479 487.72 120.239 480.95C121.209 479.81 122.579 478.99 123.789 478.07C126.279 476.16 128.789 476.25 131.459 478.59ZM155.079 527.05C156.169 523.62 155.019 520.47 153.749 517.31C149.339 506.33 141.049 499.48 130.279 495.3C127.799 494.34 125.259 493.55 122.909 492.74C123.019 490.75 123.099 489.34 123.209 487.31C115.229 495.26 113.589 502.21 117.189 510.85C122.729 524.13 140.749 531.87 155.079 527.05Z" fill="#0DFF9D"/>
<path d="M232.448 534.18C234.698 531.28 233.918 528.49 233.698 525.78C233.178 519.35 232.798 512.9 231.978 506.51C231.508 502.89 232.188 499.83 234.348 497C237.148 493.34 239.898 489.65 242.778 486.05C243.728 484.87 244.908 483.82 246.128 482.91C248.058 481.47 250.678 482.11 251.348 484.43C252.618 488.84 253.908 493.3 254.488 497.83C255.388 504.83 255.558 511.92 256.278 518.95C257.298 528.8 254.578 537.17 247.058 543.78C244.988 545.6 242.808 547.31 240.738 549.13C234.068 555 226.768 556.79 217.738 555.12C209.408 553.57 201.648 551.28 194.608 546.71C184.018 539.83 178.548 530.15 178.698 517.33C178.738 513.77 179.418 510.55 181.628 507.86C187.078 501.23 192.668 494.73 198.268 488.23C199.038 487.34 200.078 486.63 201.108 486.04C201.528 485.8 202.378 485.97 202.828 486.27C203.258 486.55 203.768 487.3 203.678 487.72C203.168 490.11 202.688 492.54 201.838 494.82C197.198 507.39 202.358 518.31 211.118 525.2C217.398 530.18 224.288 534.06 232.448 534.18Z" fill="#0DFF9D"/>
<path d="M445.969 38.9292C444.469 41.9692 445.879 44.2392 447.089 46.2492C447.749 47.3492 449.529 48.2092 450.889 48.3592C454.239 48.7292 457.639 48.6992 461.019 48.6992C471.459 48.6892 481.909 48.5992 492.349 48.5592C492.959 48.5592 493.589 48.5492 494.189 48.6392C496.539 48.9692 499.539 48.1092 500.869 50.6892C502.459 53.7892 499.919 55.8492 498.009 57.7692C494.769 61.0292 491.459 64.2192 488.059 67.3192C485.639 69.5292 482.599 69.7992 479.419 69.7492C473.579 69.6492 467.729 69.7192 461.889 69.8492C460.159 69.8892 458.439 70.3592 456.089 70.7392C458.449 81.1592 462.649 90.4092 464.599 100.339C463.529 105.069 460.109 108.229 456.799 111.419C454.369 113.759 451.869 116.049 449.259 118.179C447.369 119.729 445.019 119.019 443.979 116.709C443.349 115.319 442.939 113.819 442.439 112.369C438.339 100.469 434.259 88.5492 430.119 76.6692C429.619 75.2392 428.779 73.9392 427.969 72.3092C425.519 72.3092 423.129 72.3892 420.749 72.2892C418.339 72.1792 415.939 71.8792 413.169 71.6292C410.129 77.9992 405.999 83.5792 401.669 89.1492C394.579 98.2792 385.219 101.639 374.459 102.459C369.569 102.829 364.629 102.519 359.679 102.519C356.759 105.019 354.009 107.369 351.039 109.919C347.369 108.179 345.219 105.149 342.799 102.489C340.939 100.439 339.239 98.2492 337.559 96.0492C335.639 93.5492 333.439 91.9092 330.169 91.0692C325.719 89.9192 325.369 88.3692 327.039 83.4092C327.329 82.5492 327.709 81.7092 328.229 80.4292C325.159 74.3992 321.569 68.2892 318.889 61.8192C316.319 55.6192 314.689 49.0392 312.459 42.0492C308.569 40.6992 304.279 39.3492 299.879 41.6192C298.229 44.2792 299.439 46.5592 300.259 48.8392C304.079 59.5592 307.739 70.3392 311.869 80.9292C313.139 84.1792 313.279 87.2592 311.499 89.6792C307.369 95.3292 303.709 101.499 297.809 105.489C294.269 105.699 291.789 103.789 289.209 102.189C274.059 92.7792 258.939 83.3292 243.789 73.9392C241.239 72.3592 238.569 70.9692 235.999 69.5092C233.859 72.4292 235.369 74.7592 235.899 76.9792C237.439 83.4192 236.379 89.2192 232.109 94.2892C229.209 97.7392 227.409 102.229 222.929 104.609C219.499 102.729 218.189 99.5292 217.359 96.3792C214.229 84.4892 211.219 72.5592 208.499 60.5692C206.859 53.3592 208.139 46.5392 212.799 40.4992C215.609 36.8592 217.939 32.8292 220.899 29.3292C224.109 25.5492 225.979 25.7992 230.249 29.2192C236.479 34.2092 242.599 39.3692 249.139 43.9292C258.439 50.3992 268.079 56.3892 277.419 62.4792C279.629 60.8192 278.519 59.3092 278.039 58.0992C275.789 52.3892 273.649 46.6092 270.949 41.1092C268.539 36.1992 268.179 31.8692 271.849 27.4392C274.389 24.3692 276.449 20.8892 278.989 17.8192C280.289 16.2492 282.169 15.1592 284.289 13.4492C285.669 15.2092 286.999 16.4292 287.749 17.9292C290.599 23.6692 293.269 29.4892 296.349 36.0092C298.109 33.9592 299.499 32.4492 300.769 30.8392C303.249 27.7192 305.689 24.5592 308.119 21.4092C310.579 18.2292 313.659 16.7592 317.759 17.4092C327.469 18.9492 337.259 20.0292 346.889 21.9592C355.609 23.7092 364.149 26.3492 372.279 30.1392C374.209 31.0392 376.299 31.5892 378.739 32.4492C380.269 30.9892 381.909 29.6892 383.219 28.1092C384.779 26.2192 386.079 24.1092 387.459 22.0792C391.859 15.6292 397.539 13.2692 405.599 14.2392C414.689 15.3292 423.979 14.7492 433.179 14.9892C436.199 15.0692 439.209 15.5992 442.229 15.6292C456.369 15.7692 470.519 15.9192 484.659 15.8192C492.029 15.7692 499.389 15.1492 506.759 14.8592C509.319 14.7592 510.699 16.6592 509.809 19.1492C509.199 20.8592 508.569 22.7392 507.389 24.0292C503.459 28.3392 499.739 33.0692 495.049 36.3992C491.209 39.1292 486.109 40.0292 481.089 39.0192C478.409 38.4792 475.719 37.6592 473.029 37.6492C465.039 37.6292 457.039 37.9192 449.049 38.1792C447.949 38.1992 446.819 38.7092 445.969 38.9292ZM391.029 79.7292C389.099 73.8692 389.169 73.7992 386.459 71.0692C374.939 59.4392 360.609 52.9292 345.149 48.5392C344.229 48.2792 343.129 48.6292 341.289 48.7392C346.629 58.6992 352.109 67.4492 357.779 76.0892C359.209 78.2692 361.229 79.5792 363.839 79.6892C372.659 80.0992 381.469 80.9492 391.029 79.7292ZM390.049 38.2092C393.729 41.0892 395.679 42.5692 397.569 44.1092C399.229 45.4692 400.869 46.8692 402.429 48.3392C404.209 50.0192 406.029 51.6892 407.609 53.5492C408.989 55.1792 410.019 57.0892 411.259 58.8392C412.559 60.6792 412.819 63.2792 415.459 65.1392C417.719 62.0192 419.809 59.4292 421.549 56.6092C422.289 55.3992 422.819 53.5992 422.519 52.2792C421.449 47.5692 421.249 42.5492 418.179 37.9492C409.509 37.2592 400.789 37.1692 390.049 38.2092Z" fill="#0DFF9D"/>
<path d="M537.609 24.9597C545.349 29.0997 552.619 32.9996 560.319 37.1196C566.529 29.1096 571.589 19.8096 579.799 14.3496C585.409 14.7496 590.239 15.3196 595.079 15.3896C608.849 15.5896 621.839 18.9397 634.229 24.7797C638.989 27.0297 643.259 29.9796 646.729 34.0496C650.039 37.9296 650.699 42.1797 649.119 46.9597C647.529 51.7597 644.569 55.6396 641.149 59.2196C638.839 61.6396 636.449 63.9896 634.039 66.4196C641.409 71.5596 660.419 75.2296 678.759 75.2396C680.219 73.9896 679.519 72.4196 679.259 70.9796C677.889 63.4196 676.439 55.8796 675.059 48.3196C674.549 45.4996 672.899 44.0997 670.119 43.7097C665.269 43.0197 660.439 42.2196 654.949 41.3596C655.139 39.7596 654.809 37.9597 655.559 37.0897C659.959 31.9797 664.529 26.9996 669.209 22.1396C671.269 19.9996 673.899 19.8096 676.889 20.3796C694.409 23.7396 711.779 27.5897 728.389 34.3397C736.379 37.5897 744.339 40.8396 751.629 45.4996C756.029 48.3096 760.369 51.1996 763.759 55.3196C769.179 61.9096 769.789 67.2496 765.709 74.8196C765.419 75.3596 765.099 75.8896 764.739 76.3896C754.869 90.1596 742.859 101.27 726.509 106.89C716.899 110.19 707.319 113.48 699.739 120.71C699.109 121.31 698.139 121.56 696.779 122.26C695.759 120.93 694.279 119.73 693.759 118.22C690.179 107.76 686.799 97.2396 683.339 86.7396C682.609 84.5196 681.819 82.3096 680.759 79.2596C678.799 81.2396 677.269 82.3196 676.359 83.7896C673.679 88.0796 669.579 90.8297 665.879 94.0197C663.159 96.3697 659.969 96.9096 656.389 96.4396C650.609 95.6696 644.759 95.3997 638.989 94.5797C630.789 93.4297 622.639 91.9596 614.459 90.6596C613.339 90.4796 612.189 90.4996 610.199 90.3696C611.589 93.2596 612.619 95.4097 613.869 98.0297C612.099 107.49 603.319 111.22 597.609 117.19C593.609 116.46 591.609 114.03 590.139 111.35C587.629 106.78 585.259 102.11 583.279 97.2996C581.059 91.8996 579.379 86.2896 577.379 80.7996C576.799 79.2196 575.919 77.7496 574.639 75.1096C570.249 84.2496 564.679 91.1397 558.469 97.4597C555.279 100.7 551.609 103.62 547.729 106C542.079 109.48 535.839 110.8 529.139 109.26C524.069 108.09 518.719 107.79 513.869 106.06C509.329 104.44 504.989 101.84 501.079 98.9597C494.099 93.7997 490.809 84.7396 496.499 75.2296C501.419 67.0096 507.249 59.4996 513.809 52.5496C516.349 49.8596 518.469 46.9796 520.519 43.8896C524.239 38.2896 528.729 33.1997 533.049 28.0197C533.949 26.8997 535.509 26.3197 537.609 24.9597ZM701.439 52.5996C702.639 61.0196 704.749 67.6796 706.729 74.3196C708.779 81.1796 709.619 88.5496 714.279 94.8196C724.499 89.7296 735.839 88.8196 744.769 83.0996C745.879 79.7196 744.919 77.4196 743.269 75.5596C741.039 73.0596 738.739 70.4996 736.049 68.5596C726.049 61.3796 714.949 56.4596 701.439 52.5996ZM533.499 52.8997C529.329 54.7897 525.969 56.1797 522.749 57.8397C520.599 58.9497 518.439 60.2296 516.659 61.8496C513.549 64.6696 513.079 68.2996 515.179 71.8696C516.099 73.4396 517.269 74.9596 518.639 76.1396C529.089 85.1596 541.049 87.9497 554.309 85.1497C557.269 69.9897 549.639 58.5197 533.499 52.8997ZM625.569 55.1696C623.789 50.4096 620.559 48.6397 617.349 47.0197C609.229 42.9397 600.939 39.3196 591.159 38.6396C590.299 42.9996 592.379 46.2396 593.339 49.6196C594.249 52.8496 595.359 56.0496 596.689 59.1396C598.059 62.3296 598.419 66.1696 601.619 68.5696C605.359 65.8096 608.539 62.9196 612.209 60.8796C616.159 58.6696 620.569 57.2596 625.569 55.1696Z" fill="#0DFF9D"/>
<path d="M109.919 75.4492C113.939 69.9092 117.129 65.4391 120.409 61.0391C123.139 57.3891 123.189 57.4292 128.939 55.1292C129.859 52.7292 131.089 49.9492 132.019 47.0692C135.659 35.8592 141.089 25.5492 147.749 15.8992C149.819 12.8992 152.429 10.2192 155.089 7.69916C157.239 5.66916 159.719 6.13916 161.299 8.75916C164.469 14.0192 167.469 19.3791 170.469 24.7391C180.239 42.2291 191.889 58.4291 204.129 74.2391C206.009 76.6691 207.699 79.2391 209.409 81.7991C213.709 88.2091 213.319 94.5691 208.799 100.619C205.869 104.549 202.649 108.269 199.399 111.949C197.399 114.209 194.649 113.609 193.799 110.549C190.719 99.4691 182.579 91.7591 176.539 82.9091C161.369 85.9991 146.729 85.1392 131.649 83.8992C128.349 88.4192 125.149 92.8792 121.879 97.2792C119.569 100.389 117.469 101.389 115.999 100.159C113.949 98.4391 114.549 96.3792 115.289 94.2692C116.499 90.8192 117.629 87.3391 118.769 83.9291C114.539 81.7591 112.889 81.7292 111.859 84.5292C109.029 92.1492 103.159 96.9392 96.7991 102.129C95.4391 100.739 93.9691 99.6691 93.0491 98.2491C89.5591 92.8291 86.2791 87.2591 82.8291 81.8091C81.2091 79.2491 79.3891 76.8292 77.2591 73.7592C73.6391 76.7492 71.5191 80.8591 67.1991 81.8591C63.0191 82.8291 58.8191 83.6892 54.1891 84.6992C54.3691 88.2992 55.0891 91.8792 53.0591 95.2792C50.4691 99.6192 44.6391 106.759 39.7591 110.529C36.4591 108.509 34.9891 105.209 33.8991 101.669C32.8091 98.1491 31.8591 94.5792 30.7391 91.0692C29.8091 88.1392 27.8891 86.5392 24.6091 86.5292C20.9991 86.5192 17.2891 86.8791 13.5391 85.0991C14.1591 77.1491 20.4191 72.1391 23.2591 64.9691C22.5991 57.6391 18.1991 49.7091 22.6591 42.0491C26.2491 35.8791 28.3791 28.4091 35.9391 24.3691C40.8591 36.3891 42.7191 48.8691 46.8691 60.6191C54.3191 62.1891 61.1691 62.0391 68.0391 60.3591C68.9691 56.8791 66.8091 54.7591 65.7191 52.3491C62.6891 45.6391 59.5091 38.9992 56.5491 32.2592C53.7391 25.8592 54.1391 19.7792 58.6191 14.0692C61.0691 10.9392 62.9391 7.36917 65.3591 4.20917C66.3691 2.87917 68.1091 2.10914 70.1591 0.619141C70.9891 2.55914 71.7991 3.80913 72.0791 5.16913C73.6891 13.0891 76.7391 20.4392 80.7891 27.3892C88.6691 40.9392 96.5391 54.4891 104.499 67.9891C105.899 70.3191 107.699 72.4092 109.919 75.4492ZM146.839 39.4691C144.669 46.5291 141.819 51.2991 141.529 57.2491C147.369 59.8791 153.199 61.4891 159.849 60.1891C158.819 54.2391 155.079 50.4292 152.419 46.0892C151.219 44.1292 149.449 42.5191 146.839 39.4691Z" fill="#0DFF9D"/>
<path d="M382.57 379.409C379.33 369.619 376.91 360.469 385.06 352.179C385.9 352.699 386.97 352.969 387.27 353.609C389.24 357.749 392.83 360.209 396.59 362.249C410.74 369.909 425.78 375.139 441.57 378.199C443.02 378.479 444.52 378.529 445.79 378.669C447.24 376.639 446.23 375.439 445.23 374.299C438.24 366.319 429.83 360.159 420.3 355.629C413.64 352.469 406.76 349.789 399.97 346.909C392.34 343.669 384.69 340.459 377.06 337.219C375.93 336.739 374.79 336.249 373.73 335.639C364.33 330.219 364.72 326.719 370.18 319.739C372.83 316.349 375.72 313.159 378.39 309.789C382.26 304.899 387.45 302.549 393.46 301.889C402.32 300.919 411.18 299.889 420.06 299.319C429 298.749 437.83 300.129 446.56 301.989C448.62 302.429 450.67 303.269 452.52 304.279C456.16 306.279 456.61 309.259 453.91 312.669C452.77 314.109 451.44 315.409 450.15 316.719C447.78 319.129 445.25 321.379 443.04 323.919C440.4 326.949 437.43 327.369 433.96 325.769C427.41 322.769 420.54 321.659 411.79 322.009C414.34 323.589 415.6 324.559 417.02 325.229C423.97 328.489 431.03 331.519 437.93 334.899C449.13 340.389 458.63 347.939 466.19 358.029C471.47 365.089 471.96 372.019 467.29 379.359C462.27 387.249 456 393.889 447.8 398.569C442.75 401.459 437.13 402.029 431.71 401.179C424.78 400.099 417.68 398.719 411.27 395.999C401.13 391.699 391.21 386.719 382.57 379.409Z" fill="#0DFF9D"/>
<path d="M208.559 312.439C205.809 315.939 204.869 318.139 203.219 319.039C198.419 321.639 193.319 323.709 188.359 326.019C186.709 326.789 184.849 327.369 183.539 328.539C178.929 332.629 173.409 334.129 167.509 334.759C161.099 335.439 154.689 336.139 148.129 336.839C145.719 339.409 144.169 342.229 143.859 346.269C158.149 343.599 172.249 344.409 186.299 343.889C189.359 343.769 192.409 343.259 195.469 343.129C196.849 343.069 198.249 343.509 200.579 343.869C199.259 346.169 198.579 347.789 197.519 349.109C192.379 355.499 185.159 359.209 178.209 362.989C173.689 365.449 168.309 366.069 162.959 365.939C158.389 365.829 153.749 365.899 148.829 368.409C149.989 369.799 150.719 371.059 151.789 371.889C158.789 377.319 167.119 379.549 175.569 381.319C178.269 381.889 181.069 381.949 183.819 382.269C190.249 383.029 196.199 382.529 199.619 376.069C203.649 377.899 204.469 378.859 203.389 381.189C202.099 383.949 200.769 386.869 198.759 389.079C194.629 393.609 190.189 397.909 185.519 401.899C183.789 403.369 181.089 404.349 178.799 404.399C172.369 404.549 165.759 404.929 159.539 403.659C152.389 402.199 145.319 399.629 138.679 396.539C123.649 389.529 117.509 372.599 124.699 357.639C127.089 352.669 129.339 347.629 131.669 342.609C130.189 341.229 128.209 340.239 127.879 338.849C127.519 337.329 128.659 335.439 129.169 333.719C129.249 333.439 129.489 333.199 129.659 332.939C137.649 320.159 141.589 317.449 156.609 314.859C160.539 314.179 164.529 313.689 168.519 313.539C181.089 313.069 193.669 312.829 208.559 312.439Z" fill="#0DFF9D"/>
<path d="M17.1592 318.67C15.7992 312.78 19.0692 309.24 22.0492 305.83C23.0492 304.68 25.3392 304.21 27.0392 304.2C53.1592 304.11 79.2692 301.98 105.409 303.7C110.919 304.06 116.469 303.8 122.009 303.89C125.079 303.94 128.189 303.89 131.329 306.23C130.789 307.41 130.489 308.96 129.569 309.89C126.339 313.13 122.989 316.27 119.499 319.25C114.629 323.41 108.789 325.1 102.469 325.26C98.1692 325.37 93.8592 325.41 89.5592 325.49C86.8192 325.55 84.0892 325.64 80.8392 325.73C80.3092 328.07 79.2892 330.13 79.5192 332.04C80.1092 336.89 80.8992 341.78 82.2592 346.46C85.1592 356.49 88.3792 366.44 91.6592 376.35C92.8092 379.83 91.6092 382.26 89.2892 384.6C85.4092 388.52 80.1492 389.46 75.2392 391.04C74.1792 391.38 72.1992 390.31 71.2892 389.31C70.0992 388.01 69.3492 386.2 68.7492 384.48C65.8392 376.06 62.9092 367.64 60.2592 359.14C57.4092 350 58.3592 340.92 61.4492 331.99C62.0292 330.33 62.7492 328.72 63.6492 326.49C61.1792 326.2 59.4392 325.84 57.6892 325.81C52.4592 325.72 47.2392 325.76 42.0092 325.76C37.0692 325.76 32.4292 325.43 28.0092 322.34C25.1292 320.35 21.1492 319.95 17.1592 318.67Z" fill="#0DFF9D"/>
<path d="M292.829 367.369C292.549 368.759 292.619 369.799 292.159 370.489C286.439 378.959 279.499 386.479 271.149 392.189C258.669 400.729 243.019 399.749 231.169 391.899C226.049 388.509 223.169 383.359 221.169 377.839C218.189 369.599 217.679 361.099 219.299 352.399C222.109 337.309 229.579 324.909 240.379 314.299C241.249 313.449 242.189 312.559 243.279 312.099C243.969 311.799 245.189 311.969 245.799 312.429C246.419 312.899 247.039 314.119 246.839 314.759C246.139 317.089 245.239 319.389 244.149 321.569C240.959 327.969 238.949 334.699 238.299 341.819C238.109 343.949 238.019 346.129 238.229 348.259C240.589 371.729 263.249 383.019 283.979 371.089C286.349 369.719 288.739 368.369 291.129 367.049C291.329 366.949 291.679 367.139 292.829 367.369Z" fill="#0DFF9D"/>
<path d="M371.51 368.23C370.73 369.53 370.16 370.97 369.18 372.02C364.16 377.41 359.03 382.7 353.93 388.01C349.49 392.63 343.95 394.99 337.7 396.04C328.92 397.52 320.49 396.25 312.51 392.62C304.29 388.88 299.64 382.39 299.2 373.17C298.79 364.78 299.75 356.54 302.57 348.64C305.47 340.51 309.12 332.73 314.5 325.85C317.14 322.46 319.29 318.7 321.9 315.28C323.87 312.69 325.67 309.7 329.91 308.84C329.97 310.95 330.47 312.8 329.98 314.32C328.46 318.99 326.62 323.56 324.78 328.11C321.76 335.59 319.78 343.28 319.67 351.39C319.51 363.22 324.35 369.89 335.93 372.64C345.72 374.96 355.41 374.81 364.54 369.56C366.42 368.48 368.35 366.08 371.51 368.23Z" fill="#0DFF9D"/>
<path d="M149.24 202.788C145.97 208.858 145.04 213.728 144.69 218.548C144.04 227.378 140.1 234.258 133.76 240.078C132.18 241.528 130.87 243.258 129.29 244.708C126.17 247.578 123.87 247.838 120.28 245.108C117.12 242.708 113.96 240.108 111.52 237.018C106.97 231.258 102.94 225.078 98.7 219.068C97.85 217.858 97.05 216.608 95.62 214.458C94.75 216.648 93.84 217.898 93.82 219.168C93.77 222.218 94.02 225.288 94.39 228.318C94.68 230.688 96.7 233.098 95.09 235.388C93 238.358 90.65 241.268 87.93 243.648C85.24 245.998 81.03 244.998 79.15 241.918C77.38 239.018 76.14 235.908 76.41 232.348C77.04 224.088 77.39 215.798 78.21 207.548C79.03 199.298 80.21 191.088 81.41 182.878C81.71 180.798 82.21 178.488 83.39 176.848C86.97 171.888 90.66 166.948 94.83 162.488C98.73 158.318 101.09 159.028 103.55 164.528C104.8 167.318 105.77 170.248 106.74 173.158C110.72 185.198 116.43 196.378 123.36 206.948C124.83 209.188 125.98 211.878 129.78 212.568C130.88 210.268 132.18 207.898 133.17 205.408C135.56 199.418 137.72 193.338 140.13 187.348C143.86 178.058 149.9 170.368 157.06 163.498C157.72 162.868 158.42 162.248 159.17 161.728C161.1 160.388 163.53 161.068 164.43 163.418C165.52 166.278 166.51 169.208 167.2 172.188C171.39 190.238 177.7 207.488 186.73 223.688C189.41 228.498 192.64 232.988 195.86 238.008C195.84 241.908 193.86 245.058 190.27 247.458C187.48 249.328 184.91 251.538 182.19 253.528C178.64 256.128 176.43 256.008 173.38 252.658C168.16 246.928 164.16 240.348 161.18 233.238C157.75 225.038 154.69 216.668 151.47 208.378C150.93 207.018 150.38 205.648 149.24 202.788Z" fill="#0DFF9D"/>
<path d="M564.59 225.928C565.45 221.228 565.2 217.318 564.59 213.428C563.57 206.978 563.36 200.798 566.75 194.698C568.64 191.298 568.88 187.018 570.38 183.338C571.76 179.968 573.62 176.728 575.72 173.748C576.58 172.518 578.64 172.138 580.9 170.988C581.67 174.728 582.43 177.648 582.86 180.608C584.5 191.838 585.83 203.118 587.68 214.318C588.83 221.268 590.38 228.188 592.34 234.948C593.98 240.578 592.97 244.868 588.89 249.138C585.64 252.538 581.8 254.918 578.11 257.638C574.52 260.278 570.91 260.068 568.02 257.318C563.69 253.188 558.32 250.918 553.39 247.848C552.87 247.528 552.34 247.198 551.78 246.948C535.42 239.668 520.72 229.728 506.6 218.848C505.91 218.318 505 218.088 504.26 217.748C502.08 218.608 502.82 220.338 502.93 221.688C503.07 223.518 503.51 225.318 503.85 227.128C504.4 230.088 506.11 233.048 504.23 236.028C501.92 239.688 499.24 243.088 495.15 244.908C492.42 246.128 489.57 247.078 486.96 248.068C483.59 246.698 483.31 243.798 482.85 241.118C480.57 227.818 478.33 214.518 476.16 201.198C475.77 198.788 475.47 196.298 475.64 193.888C475.77 192.148 476.33 190.108 477.42 188.818C481.39 184.148 485.52 179.598 489.88 175.288C492.67 172.528 494.9 172.688 498.04 175.098C499.01 175.838 499.98 176.638 500.76 177.568C505.52 183.308 511.55 187.558 517.4 192.038C522.27 195.768 526.76 200.008 531.68 203.668C540.79 210.428 550.08 216.968 559.36 223.498C560.76 224.508 562.51 224.988 564.59 225.928Z" fill="#0DFF9D"/>
<path d="M356.58 197.129C353.8 195.879 350.73 194.539 347.7 193.129C337.93 188.579 323.57 193.109 316.8 199.519C313.14 202.989 312.65 209.809 315.51 214.939C317.5 218.509 320.24 221.539 323.84 223.349C328.2 225.539 332.72 227.669 337.41 228.859C350.05 232.069 362.85 232.869 376.18 229.399C382.07 220.249 388.02 210.529 398.69 204.139C399.39 205.579 400.38 206.759 400.46 207.989C400.56 209.459 400 211.019 399.51 212.459C396.7 220.729 397.67 228.879 400.57 236.839C402.87 243.169 405.57 249.349 408.19 255.849C405.1 264.689 397.89 269.719 390.6 274.609C384.12 269.429 384.12 269.429 374.61 240.659C370 242.489 366.12 245.429 362.1 248.179C359.62 249.879 356.86 251.919 354.04 252.229C341.83 253.589 329.54 254.729 317.54 250.679C310.8 248.399 304.46 245.489 299.51 240.029C292.34 232.119 290.79 223.369 295.34 213.689C296.51 211.199 297.88 208.759 299.45 206.499C305.8 197.369 313.32 189.279 321.95 182.259C327.48 177.759 333.69 174.469 340.31 171.839C346.17 169.499 352.23 169.109 358.42 169.359C364.33 169.599 368.9 172.529 372.85 176.609C374.74 178.559 375.04 180.799 373.88 183.389C372.3 186.919 369.72 189.449 366.54 191.419C363.43 193.339 360.19 195.069 356.58 197.129Z" fill="#0DFF9D"/>
<path d="M203.901 232.008C199.601 230.168 194.791 231.008 192.811 226.008C195.971 219.238 200.631 213.198 206.591 208.318C208.541 206.728 211.561 206.428 214.781 205.298C218.211 197.198 221.371 188.238 223.231 178.908C225.471 167.708 232.451 159.738 240.471 152.368C240.921 151.958 241.421 151.578 241.941 151.258C243.961 149.998 246.111 150.738 247.151 153.148C247.881 154.838 248.511 156.588 249.011 158.358C256.351 184.468 268.801 207.958 285.281 229.398C287.151 231.838 288.881 234.388 290.631 236.908C292.371 239.418 292.611 242.108 290.971 244.708C286.831 251.238 281.751 256.848 275.221 260.698C271.701 259.968 270.621 257.308 269.061 255.058C262.951 246.238 256.771 237.458 250.521 228.538C245.301 229.808 240.681 231.368 235.931 231.958C231.091 232.558 226.121 232.198 221.431 232.248C217.131 236.418 213.221 240.308 209.201 244.088C207.691 245.508 206.051 247.438 203.661 245.838C201.501 244.388 202.001 242.048 202.341 239.938C202.721 237.548 203.271 235.178 203.901 232.008ZM239.561 209.778C237.991 204.368 236.891 200.348 233.711 196.558C231.241 200.558 228.671 203.878 230.021 208.988C232.851 209.218 235.491 209.438 239.561 209.778Z" fill="#0DFF9D"/>
<path d="M721.4 260.618C717.8 267.838 716.8 268.658 702.08 276.098C698.6 275.588 697.12 272.858 696.2 269.898C694.39 264.038 692.82 258.098 691.19 252.178C690.39 249.288 689.67 246.368 688.73 242.758C684.23 245.008 680.29 246.668 676.65 248.858C671.69 251.838 666.66 253.218 660.85 251.978C654.26 250.568 647.46 251.248 640.76 249.818C631.19 247.768 624.53 242.318 620.33 234.138C614.97 223.678 614.58 212.528 620.93 202.398C629.76 188.328 641.63 177.348 657.28 170.968C672.68 164.698 685.45 170.178 694.42 179.098C695.46 180.128 696.06 181.608 697.1 183.258C694.68 185.458 692.56 187.668 690.15 189.478C688.2 190.938 686.04 191.668 683.27 190.948C677.68 189.488 671.93 188.998 666.34 187.088C657.95 184.228 649.95 187.168 642.51 191.148C639.76 192.618 638.08 195.448 637.49 198.598C635.5 209.138 638.21 218.228 646.81 224.868C649.88 227.248 653.7 228.968 657.45 230.098C665.83 232.608 676.86 232.748 687.16 231.118C689.2 221.448 696.58 215.338 703.55 208.928C704.67 207.898 705.89 206.828 707.26 206.238C708.54 205.688 710.32 205.198 711.46 205.678C713.62 206.598 713.16 208.698 712.32 210.418C710.45 214.258 710.86 218.268 711.53 222.178C712.87 230.048 714.24 237.928 716.13 245.678C717.38 250.688 719.56 255.478 721.4 260.618Z" fill="#0DFF9D"/>
<path d="M38.4299 168.129C39.4899 169.669 40.9299 170.939 41.3499 172.499C43.6099 180.789 45.6499 189.139 47.7099 197.479C49.3999 204.339 50.9799 211.219 52.6699 218.069C54.7399 226.449 57.4399 234.569 63.5199 241.199C62.0899 245.949 58.5099 248.389 54.7799 250.419C51.8499 252.009 48.5799 253.039 45.4099 254.159C42.7799 255.089 40.5799 254.379 39.0499 251.929C37.7599 249.869 36.6199 247.639 35.8499 245.339C33.9999 239.809 32.3199 234.229 30.7299 228.619C27.7199 217.999 24.9999 207.289 21.8099 196.719C20.3499 191.879 20.7799 187.729 23.8299 183.729C25.8799 181.049 27.7299 178.209 29.7199 175.489C31.9199 172.499 34.4999 169.949 38.4299 168.129Z" fill="#0DFF9D"/>
<path d="M469.109 233.928C468.309 237.518 466.979 240.058 464.059 241.798C460.399 243.988 456.999 246.608 453.439 248.968C450.799 250.718 448.129 250.178 446.359 247.328C444.419 244.208 442.579 240.988 440.989 237.678C435.799 226.888 430.559 216.138 427.259 204.548C425.429 198.108 426.239 192.468 430.799 187.398C434.899 182.848 438.089 177.448 443.309 173.968C444.239 173.348 445.699 172.768 446.609 173.078C447.479 173.378 448.559 174.888 448.509 175.798C447.669 189.048 454.109 200.178 458.899 211.748C461.929 219.128 465.549 226.268 469.109 233.928Z" fill="#0DFF9D"/>
<path d="M758.399 864.34C763.519 873.22 767.939 880.89 772.339 888.54C769.269 896.68 766.699 899.89 756.589 908.22C753.679 908.28 752.319 906.01 751.139 903.99C746.199 895.5 741.249 887.01 736.709 878.31C734.019 873.16 731.629 867.91 726.949 864.21C728.189 855.44 725.049 847.72 723.079 839.67C718.739 842.08 706.589 853.92 701.889 860.27C706.409 869.69 716.409 874.94 721.289 884.08C719.619 891.77 713.709 896.09 708.969 901.21C707.319 902.99 705.449 904.73 702.199 904.12C692.659 892.95 682.909 881.53 672.679 869.55C662.329 870.71 651.419 871.93 640.549 873.15C638.019 876.81 635.889 880.96 632.759 884.12C629.599 887.31 627.739 891.99 623.199 893.49C620.319 892.95 619.639 890.82 619.209 888.72C618.159 883.55 618.079 878.35 619.179 873.16C619.689 870.73 620.089 868.46 617.839 866.39C616.269 864.95 616.999 862.9 618.059 861.32C620.469 857.76 623.059 854.32 625.499 850.78C627.929 847.25 630.419 843.75 632.619 840.07C639.229 829 645.099 817.43 654.159 808.02C657.129 804.93 660.279 801.98 663.589 799.26C666.099 797.2 669.129 798.01 670.389 801.04C671.679 804.14 672.579 807.42 673.409 810.68C676.219 821.66 684.149 837.49 691.319 845.96C696.919 845.4 702.579 844.21 708.089 842.29C712.589 840.72 716.209 837.93 718.939 834.09C721.949 829.85 723.629 824.97 726.109 819.9C721.559 818.55 717.609 819.05 713.729 818.99C709.789 818.93 705.859 818.98 701.619 818.98C701.459 818.36 700.809 817.3 701.109 816.74C703.939 811.34 706.489 805.77 711.059 801.45C714.369 798.33 718.079 796.6 722.629 796.65C725.699 796.68 728.819 796.35 731.839 796.75C747.979 798.86 764.079 801.31 779.539 806.59C785.879 808.76 792.069 811.57 797.329 816.04C801.919 819.93 803.079 824.55 801.109 830.08C799.449 834.72 797.599 839.22 793.959 842.81C791.339 845.39 789.199 848.45 786.619 851.08C782.479 855.29 777.739 858.48 771.789 859.87C767.679 860.81 763.719 862.52 758.399 864.34ZM781.499 838.66C774.919 829.59 758.379 822.59 744.359 822.91C743.709 831.32 746.469 838.7 750.349 846.11C761.269 844.37 771.929 844.15 781.499 838.66ZM651.759 828.61C647.019 834.26 643.949 839.51 642.849 846.17C648.559 848.95 653.799 850.85 660.289 849C659.729 847.14 659.449 845.66 658.859 844.31C656.669 839.34 654.379 834.4 651.759 828.61Z" fill="#0DFF9D"/>
<path d="M100.659 826.49C97.4693 830.38 94.4193 833.71 91.8293 837.36C86.3493 845.05 78.7893 849.26 69.8193 851.41C65.3793 852.47 60.9793 853.73 56.1593 855.01C56.2693 857.2 55.9693 859.06 56.4993 860.64C59.1693 868.46 61.0093 876.62 65.4593 883.75C66.5393 885.48 66.4093 887.3 65.5093 889.01C62.4893 894.69 57.7993 898.47 51.8193 900.7C49.4893 901.57 47.4393 900.78 46.0893 898.94C44.8393 897.24 43.9093 895.25 43.1193 893.27C34.3793 871.46 28.0493 849.08 27.1893 825.42C27.1493 824.19 26.9593 822.97 26.9693 821.74C26.9993 818.22 24.8693 816.04 22.2093 814.35C20.6793 813.38 18.7793 813.01 17.1593 812.17C15.1793 811.14 14.2093 808.85 14.9193 806.68C16.2793 802.53 18.4193 798.75 21.9193 796.09C23.2693 795.06 25.2893 794.74 27.0593 794.46C41.2093 792.22 55.2393 793.32 69.1393 796.45C74.5293 797.66 79.8593 799.17 85.1293 800.83C92.9693 803.31 99.7193 807.31 103.009 815.28C106.099 815.4 106.449 812.8 107.699 811.25C110.199 808.14 112.479 804.85 115.159 801.92C115.979 801.03 117.879 800.71 119.199 800.88C119.819 800.96 120.659 802.8 120.649 803.84C120.559 816.39 124.839 827.98 128.349 839.74C128.599 840.59 129.269 841.32 130.039 842.57C136.629 843.51 143.509 843.34 150.329 843.27C151.389 839.44 149.459 836.77 148.539 833.93C146.359 827.21 143.949 820.6 143.289 813.45C142.609 806.07 143.879 799.39 148.689 793.61C151.629 790.08 154.529 786.5 157.709 783.2C158.539 782.34 160.359 782.43 162.299 781.93C162.419 785.02 162.679 787.43 162.559 789.81C162.169 797.65 163.959 805.04 166.679 812.31C173.379 830.2 181.919 847.21 191.189 863.88C193.429 867.9 195.369 872.09 197.479 876.18C199.529 880.15 198.989 883.97 196.609 887.52C192.959 892.99 187.849 896.69 181.429 899.7C177.289 894.36 175.119 888.22 171.849 882.75C168.699 877.5 165.599 872.22 162.559 867.11C153.739 867.37 145.289 867.61 135.999 867.88C137.079 871.16 137.909 873.67 138.829 876.46C138.799 876.72 138.839 877.36 138.649 877.91C136.229 885.09 130.019 888.88 124.599 893.31C122.559 894.98 119.549 894.21 118.429 891.58C116.509 887.07 114.809 882.44 113.469 877.73C111.289 870.06 109.499 862.28 107.499 854.55C106.889 852.17 106.199 849.81 105.469 847.47C103.659 841.6 101.669 835.77 101.859 829.49C101.919 828.76 101.289 827.97 100.659 826.49ZM47.0593 819.93C46.7893 825.5 47.5593 830.24 49.7893 834.59C55.7693 834.86 64.6293 833.28 72.4293 830.44C73.6393 830 75.6393 830.02 75.4693 827.82C66.0593 822.17 55.9593 819.27 47.0593 819.93Z" fill="#0DFF9D"/>
<path d="M250.349 815.759C251.629 815.029 251.949 814.929 252.149 814.719C260.029 806.599 257.479 806.979 271.499 807.729C274.849 807.909 278.169 808.769 281.489 809.339C283.899 809.749 286.299 810.259 288.719 810.609C294.669 811.469 300.389 811.409 304.749 806.279C305.069 805.909 305.869 805.949 306.549 805.779C309.249 806.519 307.839 809.579 309.989 811.619C319.019 814.899 329.359 811.749 339.959 813.679C339.109 816.249 338.929 818.929 337.539 820.569C333.999 824.749 330.049 828.619 325.969 832.279C324.759 833.369 322.579 833.549 320.799 833.809C318.119 834.199 315.389 834.299 313.179 834.479C310.809 837.379 311.999 839.819 312.689 842.049C315.669 851.739 318.839 861.359 321.949 871.009C322.609 873.059 323.109 875.169 323.979 877.129C326.939 883.809 325.729 889.769 320.849 894.959C317.749 898.259 315.449 902.429 311.349 904.469C308.079 903.799 307.429 901.179 306.649 898.969C303.369 889.709 300.259 880.389 297.129 871.079C293.999 861.759 290.869 852.429 290.109 842.519C289.919 840.099 289.419 837.709 289.009 835.009C284.779 833.139 280.649 833.479 275.859 834.329C276.439 836.609 276.779 838.649 277.469 840.559C281.329 851.309 279.119 860.769 272.669 870.089C261.779 885.819 246.789 892.079 228.289 890.899C219.369 890.339 211.759 887.049 206.559 879.079C202.079 872.219 200.149 865.439 203.919 857.579C205.199 854.899 205.889 851.679 205.899 848.709C205.899 845.429 206.929 842.619 208.409 839.989C212.979 831.849 218.919 824.899 226.769 819.679C232.349 815.969 238.239 813.889 245.039 815.269C246.799 815.629 248.659 815.609 250.349 815.759ZM259.069 865.459C261.139 862.049 259.609 859.229 258.499 856.409C256.529 851.419 253.369 847.299 249.039 844.169C240.239 837.829 230.889 835.659 220.779 840.399C216.859 848.669 219.589 855.009 225.389 860.619C228.339 863.469 231.889 865.329 235.809 866.289C243.679 868.219 251.529 868.249 259.069 865.459Z" fill="#0DFF9D"/>
<path d="M573.9 867.509C579.5 871.229 585.42 872.499 591.24 873.989C592.12 874.209 593.08 874.099 593.99 874.249C600.68 875.389 607.14 877.019 611.83 883.369C609.05 886.859 606.34 890.919 602.95 894.309C599.8 897.469 595.6 898.449 591.01 897.669C582.56 896.249 574.07 895.029 565.46 893.699C560.27 899.459 555.88 905.699 549.52 910.589C548.29 909.129 547.06 908.139 546.43 906.859C544.82 903.549 543.39 900.149 542.06 896.719C540.28 892.159 539.39 887.059 536.78 883.069C533.85 878.589 536.86 873.989 535.03 869.709C534.2 867.769 534.13 865.519 533.55 863.449C530.24 851.539 528.77 839.369 528.45 827.039C528.42 825.849 528.01 824.669 527.79 823.549C517.71 822.879 517.92 822.989 522.55 814.299C527.51 804.999 535.58 800.719 545.47 799.639C555.3 798.569 565.04 799.909 574.72 801.949C584.72 804.059 594.13 807.629 603 812.639C605.38 813.979 607.73 815.499 609.75 817.319C614.31 821.419 615.62 826.409 613.36 832.319C611.37 837.519 609.22 842.539 605.03 846.449C603.02 848.329 601.31 850.529 599.43 852.559C595.62 856.689 591.12 859.699 585.82 861.739C581.93 863.239 577.6 864.049 573.9 867.509ZM593.54 841.209C592.98 837.949 590.53 836.059 588.07 834.299C579.16 827.899 568.74 825.309 558.29 822.899C555.38 822.229 552.31 821.349 549.07 823.699C548.99 825.249 548.5 827.109 548.89 828.759C550.97 837.559 551.72 846.729 555.53 855.019C568.21 852.419 588.07 845.189 593.54 841.209Z" fill="#0DFF9D"/>
<path d="M848.299 888.719C845.569 897.459 837.199 899.959 831.269 905.699C829.339 904.469 827.309 903.649 825.929 902.199C824.039 900.229 822.439 897.9 821.059 895.52C812.599 880.95 808.009 865.139 806.199 848.459C805.219 839.449 807.219 831.53 813.559 824.67C817.079 820.86 819.819 816.349 822.979 812.209C823.689 811.279 824.669 810.569 825.819 809.479C827.999 811.359 827.309 813.54 827.179 815.5C826.879 820.08 826.579 824.669 826.079 829.229C825.599 833.639 826.949 837.649 828.089 842.219C834.019 842.829 839.719 842.43 846.099 842.56C845.749 833.14 843.959 824.01 849.319 816.18C853.789 809.66 858.399 803.13 865.369 799.27C867.489 799.78 867.149 801.209 867.079 802.319C866.989 803.839 866.689 805.37 866.379 806.87C863.799 819.44 868.449 830.45 873.829 841.28C874.489 842.6 875.829 843.57 876.769 844.76C877.499 845.69 878.599 846.689 878.679 847.719C879.359 856.659 884.599 863.749 888.369 871.349C892.729 880.139 897.759 888.61 902.809 897.03C905.409 901.38 905.119 904.869 901.859 908.709C897.869 913.409 893.429 917.43 888.129 920.8C883.959 918.22 882.149 914.289 879.919 910.709C872.599 898.949 866.599 886.51 860.659 874.03C856.689 865.68 856.629 865.62 847.549 865.68C844.239 865.7 840.819 864.869 837.009 866.719C837.179 867.999 836.959 869.62 837.599 870.74C840.929 876.62 844.479 882.349 848.299 888.719Z" fill="#0DFF9D"/>
<path d="M494.19 867.239C495.11 861.759 495.2 856.759 498.62 852.749C502.91 847.709 505.81 841.359 511.82 838.169C514.08 838.949 514.11 840.579 514.11 842.069C514.13 845.449 514.07 848.829 513.91 852.199C513.31 865.389 515.29 877.919 523.48 889.099C520.92 896.999 515.05 902.489 509.68 908.269C508.98 909.029 506.61 909.029 505.51 908.449C503.99 907.639 502.52 906.139 501.77 904.579C499.51 899.899 497.5 895.089 495.62 890.249C494.75 888.009 494.39 885.569 493.85 883.439C491.64 882.369 490.69 883.829 489.64 884.809C485.86 888.319 481.07 889.859 476.27 890.519C464.01 892.199 451.71 892.559 440.07 887.269C436.47 885.629 432.81 883.729 429.87 881.159C420.24 872.749 417.17 861.229 422.74 849.479C429.26 835.729 438.65 823.919 452.11 816.079C461.19 810.799 471.1 809.389 481.45 810.789C482.96 810.999 484.51 811.269 485.91 811.849C493.08 814.829 494.15 819.369 489.04 825.279C487.86 826.639 486.37 827.759 484.93 828.879C483.97 829.619 482.35 829.899 481.89 830.819C478.56 837.549 473.89 835.999 468.12 834.209C460.68 831.889 452.91 832.359 445.7 836.039C440.52 838.679 439.17 841.559 440.33 847.339C441.2 851.669 443.01 855.579 446.56 858.339C449.21 860.399 451.93 862.579 454.97 863.889C467.38 869.219 480.16 871.209 494.19 867.239Z" fill="#0DFF9D"/>
<path d="M948.599 843.75C949.429 840.18 949.979 837.82 950.529 835.47C951.849 829.8 953.059 824.09 954.509 818.45C957.299 807.67 963.569 799.15 972.119 792.22C972.759 791.7 973.719 791.59 974.449 791.32C977.089 793.07 975.969 795.22 975.409 797.18C972.299 808.12 969.809 819.19 968.659 830.52C968.229 834.78 967.939 839.08 968.069 843.35C968.259 849.61 967.279 855.29 964.079 860.94C958.279 871.19 957.949 881.89 963.589 892.56C968.069 901.05 967.199 904 959.019 908.88C957.179 909.97 955.169 910.77 953.239 911.71C948.119 914.2 946.409 913.87 942.919 909.83C940.029 906.48 938.239 902.71 937.879 898.23C937.489 893.28 937.739 888.43 939.069 883.63C939.959 880.4 940.679 877.12 941.549 873.55C939.729 872.07 938.269 870.47 936.469 869.5C930.179 866.11 924.799 861.57 919.709 856.66C913.739 850.91 907.559 845.32 902.099 839.12C898.089 834.57 894.989 829.19 891.649 824.07C889.169 820.27 889.909 816.73 892.499 813.03C896.729 806.99 901.279 801.37 907.619 796.64C911.179 803.07 913.839 809.37 917.809 814.68C921.999 820.29 927.259 825.14 932.369 829.99C937.179 834.58 941.419 839.94 948.599 843.75Z" fill="#0DFF9D"/>
<path d="M376.48 816.63C387.39 816.14 396.72 819.93 405.64 824.85C407.95 826.13 410.01 828.33 411.5 830.56C418.63 841.28 420.15 852.89 414.8 864.65C410.7 873.67 404.01 880.99 396.3 887.2C387.47 894.31 376.87 896.11 366 895.88C360.26 895.76 354.31 894.85 348.88 893.02C334.05 888.02 327.43 872.34 333.48 857.88C333.84 857.03 334.19 856.17 334.66 855.38C339.49 847.23 344.38 839.11 349.17 830.94C355.39 820.3 364.81 815.89 376.48 816.63ZM398.22 869.52C400.53 855.89 393.66 842.5 376.64 839.97C371.23 839.17 365.63 839.26 360.15 839.53C354.91 839.79 351.23 843.77 350.7 849.07C349.9 857.1 352.55 863.56 359.86 867.56C362.26 868.87 364.81 870.04 367.43 870.75C376.14 873.11 384.97 873.21 393.79 871.29C395.25 870.97 396.59 870.19 398.22 869.52Z" fill="#0DFF9D"/>
<path d="M270.488 1205.79C275.228 1195.51 279.608 1185.01 287.958 1176.89C288.538 1176.32 288.648 1175.26 289.068 1174.2C285.998 1171.98 282.568 1172.29 279.278 1172.5C276.318 1172.69 273.378 1173.35 270.778 1173.75C268.568 1171.1 269.348 1168.94 270.658 1167.3C274.108 1162.99 277.838 1158.89 281.488 1154.75C285.518 1150.19 290.668 1148.9 296.528 1149.65C301.398 1150.27 306.288 1150.81 311.168 1151.4C320.928 1152.58 330.698 1153.72 340.438 1155.01C342.808 1155.32 345.098 1156.14 347.238 1156.67C347.878 1159.89 345.998 1161.68 344.258 1162.16C339.018 1163.6 334.398 1167.25 328.548 1166.58C325.648 1166.25 323.228 1167.32 321.148 1169.53C317.758 1173.13 313.338 1174.13 308.538 1174.06C305.498 1174.01 302.468 1174.2 299.538 1174.28C296.468 1177.87 295.848 1181.57 296.498 1186.01C302.298 1189.28 308.668 1188.08 314.608 1188.57C320.328 1189.05 326.178 1188.03 332.388 1187.65C334.178 1188.81 333.478 1190.5 332.218 1192.01C326.198 1199.22 318.998 1204.78 309.948 1207.7C308.208 1208.26 306.508 1208.96 304.098 1209.84C304.918 1211.37 305.348 1212.79 306.258 1213.75C312.388 1220.25 320.248 1223.63 328.748 1225.65C332.428 1226.52 334.628 1224.52 333.888 1220.46C332.818 1214.51 334.558 1209.4 337.928 1204.87C343.058 1197.97 348.568 1191.35 353.928 1184.63C354.868 1183.45 355.878 1182.32 357.138 1180.83C355.898 1179.71 354.868 1178.78 353.808 1177.84C355.448 1167.51 362.788 1158.71 372.708 1155.03C386.258 1150.01 398.218 1153.37 408.678 1162.46C415.868 1168.71 422.428 1175.61 424.068 1185.79C424.478 1188.36 426.438 1190.68 428.138 1193.99C432.508 1179.7 441.698 1169.86 451.718 1160.73C460.458 1152.76 470.798 1148.71 482.768 1148.72C490.188 1148.72 495.658 1152.05 500.248 1157.46C502.478 1160.09 503.008 1162.9 501.318 1165.96C499.228 1169.75 497.118 1173.61 491.738 1172.66C489.338 1172.23 488.758 1173.66 487.898 1175.51C486.748 1178 484.918 1178.55 482.748 1177.58C481.358 1176.96 480.018 1176.18 478.758 1175.31C470.498 1169.63 461.918 1170.7 453.248 1174.08C450.718 1175.06 449.498 1177.11 449.268 1179.79C448.898 1184.15 449.178 1188.39 451.298 1192.35C458.338 1205.49 468.708 1213.58 484.108 1214.13C489.338 1214.32 494.498 1214.01 500.108 1212.84C501.048 1207.64 501.248 1202.34 503.078 1197.69C504.838 1193.23 508.368 1189.49 510.978 1185.34C513.788 1180.86 517.298 1177.3 522.618 1174.74C524.758 1179.27 522.528 1183.17 522.898 1186.98C523.248 1190.65 522.918 1194.39 523.398 1198.03C523.918 1201.97 524.898 1205.87 525.918 1209.73C526.938 1213.59 528.278 1217.37 529.418 1221.2C530.468 1224.73 531.288 1228.35 532.508 1231.82C533.818 1235.56 535.478 1239.17 537.018 1242.92C533.908 1250.36 528.058 1255.36 522.228 1260.29C521.458 1260.94 519.018 1260.65 518.108 1259.89C516.528 1258.57 515.128 1256.7 514.368 1254.78C512.448 1249.93 510.938 1244.93 509.248 1239.99C507.458 1234.79 505.648 1229.6 503.768 1224.18C499.408 1224.53 497.318 1227.55 495.168 1229.79C491.678 1233.43 487.638 1234.91 482.838 1234.97C477.018 1235.04 471.188 1235.28 465.368 1235.11C447.858 1234.6 437.278 1224.5 430.418 1209.43C429.908 1208.32 429.588 1207.12 429.218 1205.94C428.858 1204.79 428.558 1203.63 427.898 1201.3C425.198 1211.49 419.808 1218.94 414.358 1226.38C406.638 1236.91 396.368 1241.74 383.358 1240.86C381.218 1240.72 379.058 1240.78 376.908 1240.85C365.948 1241.22 355.548 1238.95 345.608 1234.39C344.508 1233.88 343.348 1233.49 342.058 1232.99C338.568 1234.66 336.348 1237.73 334.028 1240.43C326.758 1248.89 317.828 1249.56 308.008 1246.64C292.198 1241.94 281.508 1231.69 275.438 1216.42C274.128 1213.07 272.408 1209.87 270.488 1205.79ZM407.788 1216.11C409.168 1211.8 408.638 1207.36 407.228 1202.9C404.118 1193.06 397.508 1185.96 389.248 1180.29C385.418 1177.66 380.888 1176.39 376.258 1176.15C374.608 1176.06 372.378 1176.64 371.298 1177.76C365.778 1183.51 360.498 1189.49 355.258 1195.5C353.008 1198.07 352.998 1200.96 354.608 1204.03C356.558 1207.74 359.528 1210.24 363.138 1212.11C370.578 1215.98 378.488 1218.46 386.848 1218.78C393.778 1219.05 400.978 1220.49 407.788 1216.11Z" fill="#0DFF9D"/>
<path d="M641.258 1213.13C641.528 1212.21 641.518 1211.83 641.708 1211.64C647.348 1205.88 649.358 1198.56 650.738 1190.93C651.228 1188.22 652.158 1185.59 652.778 1182.9C656.108 1168.36 664.938 1157.74 676.468 1148.84C680.138 1146.01 684.148 1145.76 687.308 1150.63C688.968 1153.2 690.388 1155.94 691.848 1158.64C696.828 1167.84 702.068 1176.87 708.848 1184.88C710.418 1186.73 712.188 1188.41 714.058 1190.37C724.138 1188.95 732.818 1184.47 741.138 1179.27C742.808 1178.22 744.038 1176.14 744.938 1174.27C746.258 1171.54 747.098 1168.57 748.348 1165.15C747.148 1164.13 745.328 1163.22 744.628 1161.78C744.148 1160.79 744.928 1158.82 745.708 1157.68C747.068 1155.7 747.188 1154.07 746.288 1151.76C745.128 1148.8 746.408 1145.89 749.288 1145.24C757.878 1143.33 766.318 1139.83 775.458 1142.69C779.838 1144.06 784.388 1144.97 788.908 1145.78C799.438 1147.65 808.458 1152.79 817.218 1158.54C817.728 1158.88 818.188 1159.29 818.708 1159.62C827.348 1165.11 826.318 1173.96 821.898 1179.63C815.098 1188.37 807.168 1196.18 796.258 1199.96C791.628 1201.56 786.938 1203.02 782.328 1204.67C780.658 1205.26 779.118 1206.21 777.308 1207.1C779.328 1215.37 783.388 1222.16 788.258 1228.51C791.058 1232.17 794.168 1235.58 797.018 1239.2C799.218 1242 799.118 1243.96 796.828 1246.61C792.468 1251.64 786.738 1254.54 780.618 1256.76C778.358 1257.58 776.248 1256.84 774.778 1255.09C771.038 1250.64 766.988 1246.34 763.928 1241.44C759.878 1234.95 756.118 1228.2 754.018 1220.72C753.938 1220.42 753.788 1220.15 753.708 1219.85C752.188 1214.39 747.378 1210.52 747.648 1203.88C747.878 1198.26 745.448 1192.53 744.168 1186.85C744.108 1186.57 743.838 1186.34 743.658 1186.09C737.948 1187.07 730.698 1192.58 724.578 1200.73C728.258 1208.64 736.138 1212.98 741.728 1219.43C740.478 1224.87 735.858 1227.32 732.718 1230.9C731.938 1231.79 730.528 1232.11 729.698 1232.98C722.518 1240.46 721.018 1237.89 714.648 1232.17C709.168 1227.24 704.058 1221.9 698.828 1216.71C697.028 1214.92 695.148 1213.45 692.388 1213.85C683.298 1215.19 674.208 1216.52 664.458 1217.96C661.138 1228.05 657.788 1238.69 647.388 1244.35C644.468 1243.95 643.288 1241.98 643.238 1239.82C643.128 1235.56 643.198 1231.23 643.788 1227.02C644.888 1219.47 645.068 1219.5 641.258 1213.13ZM765.378 1166.86C765.848 1174.96 767.238 1182.13 770.118 1188.97C770.418 1189.68 771.468 1190.08 772.048 1190.54C788.818 1186.73 793.828 1185.03 799.718 1181.19C793.038 1173.35 778.638 1167.18 765.378 1166.86ZM670.578 1180.47C668.928 1185.77 666.638 1189.45 667.958 1194.16C671.768 1195.02 675.238 1195.5 679.378 1193.77C677.338 1188.97 675.478 1184.62 670.578 1180.47Z" fill="#0DFF9D"/>
<path d="M542.398 1166.01C540.418 1165.67 538.698 1165.38 536.318 1164.97C536.728 1163.42 536.918 1161.99 537.488 1160.73C538.108 1159.35 539.288 1158.21 539.868 1156.81C544.398 1146.01 553.578 1143.07 563.878 1143.82C579.208 1144.93 594.348 1147.73 608.418 1154.31C613.348 1156.62 618.128 1159.64 622.278 1163.17C630.808 1170.42 631.798 1181.23 625.068 1190.34C619.558 1197.81 612.818 1204.02 604.578 1208.48C603.278 1209.18 602.058 1210.05 599.908 1211.4C601.648 1212.31 602.508 1213.07 603.458 1213.21C609.198 1214.04 614.958 1214.73 620.628 1215.45C622.008 1219.19 619.918 1221.41 617.948 1222.96C613.168 1226.71 608.228 1230.38 602.928 1233.3C600.458 1234.66 597.008 1234.4 593.978 1234.54C590.028 1234.73 586.058 1234.59 581.438 1234.59C581.808 1236.32 581.858 1237.82 582.448 1239.06C583.898 1242.09 585.598 1245 587.098 1247.78C584.468 1254.37 584.468 1254.37 569.378 1265.27C567.938 1264.13 565.938 1263.16 564.818 1261.57C560.018 1254.79 555.848 1247.64 553.218 1239.7C550.588 1231.76 550.558 1231.76 544.708 1226.9C544.928 1225.94 544.898 1224.6 545.498 1223.69C547.378 1220.87 547.358 1218 546.528 1214.89C545.178 1209.85 543.978 1204.78 542.718 1199.72C539.958 1188.58 538.948 1177.42 542.398 1166.01ZM563.558 1167.72C562.608 1179.78 566.348 1196.72 571.448 1204.42C582.158 1202.37 592.678 1199.02 603.158 1195.57C604.798 1195.03 606.178 1193.68 607.838 1192.59C607.498 1191.11 607.418 1189.88 606.938 1188.82C604.828 1184.14 601.058 1180.99 596.838 1178.36C588.938 1173.44 580.208 1170.46 571.268 1168.17C568.988 1167.6 566.478 1167.87 563.558 1167.72Z" fill="#0DFF9D"/>
<path d="M856.998 1148.91C855.868 1157.2 854.468 1164.72 853.918 1172.31C853.368 1179.98 854.568 1187.59 856.568 1195.56C864.778 1198.11 873.188 1198.43 881.478 1198.71C883.428 1194.89 881.468 1192.01 880.318 1189.44C876.568 1181.04 876.258 1172.16 875.698 1163.26C875.418 1158.74 876.478 1154.81 879.848 1151.53C883.798 1147.68 887.488 1143.56 891.408 1139.66C892.188 1138.88 893.448 1138.57 894.628 1137.98C897.538 1140.44 897.478 1143.54 897.758 1146.54C898.188 1151.12 898.428 1155.74 899.188 1160.26C901.438 1173.71 906.938 1186.14 911.798 1198.74C916.768 1211.63 922.428 1224.26 927.758 1237.02C928.338 1238.42 928.718 1239.9 929.238 1241.48C925.218 1248.41 919.078 1251.92 911.088 1253.54C906.778 1252.1 903.768 1248.75 901.788 1244.42C899.228 1238.84 896.848 1233.17 894.358 1227.55C893.378 1225.34 892.318 1223.16 891.118 1220.58C886.678 1220.91 882.458 1221.55 878.248 1221.43C874.068 1221.31 869.908 1220.33 865.238 1221.45C866.458 1227.54 870.208 1231.35 872.848 1235.81C871.698 1239.38 868.998 1241.42 865.928 1242.8C861.798 1244.66 857.528 1246.25 853.228 1247.67C851.058 1248.39 848.838 1247.76 847.498 1245.75C845.628 1242.94 843.728 1240.11 842.298 1237.07C840.598 1233.47 839.348 1229.65 837.958 1225.91C836.668 1222.47 835.638 1218.89 832.918 1217.51C832.698 1211.49 832.868 1206.3 832.248 1201.22C831.418 1194.42 831.538 1187.75 832.688 1181.02C833.388 1176.96 834.858 1173.31 837.228 1170.05C841.208 1164.6 845.308 1159.23 849.458 1153.91C850.768 1152.23 852.388 1150.78 853.958 1149.34C854.288 1149.02 855.068 1149.16 856.998 1148.91Z" fill="#0DFF9D"/>
<path d="M210.309 1230.84C204.099 1229.66 201.479 1235.44 196.179 1236.68C195.169 1235.79 193.489 1234.86 192.629 1233.44C189.599 1228.45 186.749 1223.34 184.019 1218.18C180.279 1211.12 176.649 1204 173.049 1196.87C169.569 1189.97 166.709 1182.87 166.299 1174.99C166.209 1173.21 165.479 1171.46 164.959 1169.32C169.919 1164.6 175.039 1159.87 179.979 1154.96C183.439 1151.52 187.299 1150.85 191.789 1152.36C194.119 1153.14 196.559 1153.59 198.869 1154.41C212.839 1159.36 226.019 1165.97 238.429 1174.03C246.549 1179.3 252.729 1186.67 258.039 1194.57C262.819 1201.69 261.869 1209.49 257.149 1216.27C248.829 1228.24 238.479 1237.55 222.969 1238.84C219.909 1239.09 216.869 1239.66 213.799 1239.78C210.489 1239.91 209.179 1238.11 209.569 1234.35C209.689 1233.26 210.029 1232.16 210.309 1230.84ZM197.809 1183.53C201.789 1194.33 206.489 1203.21 210.829 1212.25C211.999 1214.69 213.069 1217.33 215.979 1218.7C223.619 1218.56 231.479 1218.76 238.809 1215.2C234.299 1203.51 214.729 1188.11 197.809 1183.53Z" fill="#0DFF9D"/>
<path d="M999.638 1251.41C993.958 1256.44 987.108 1257.53 980.818 1259.72C979.078 1260.33 976.738 1259.21 974.898 1258.92C971.648 1253.71 970.238 1248.52 969.948 1242.84C969.398 1232.41 968.508 1222 967.698 1210.83C965.938 1209.55 963.768 1207.89 961.518 1206.36C948.708 1197.67 937.318 1187.42 927.878 1175.13C925.278 1171.75 923.288 1167.89 921.178 1164.15C919.468 1161.12 919.948 1158.05 922.288 1155.63C927.368 1150.34 931.768 1144.31 938.068 1140.62C941.398 1140.68 942.438 1142.89 943.378 1145.23C949.848 1161.43 963.008 1171.58 976.268 1181.64C976.658 1181.94 977.408 1181.78 978.128 1181.84C978.458 1181.47 979.068 1181.1 979.218 1180.59C981.368 1173.54 983.488 1166.47 985.558 1159.4C987.878 1151.46 988.688 1143.09 992.248 1135.48C996.298 1126.8 1003.2 1121.15 1011.45 1116.53C1013.65 1119.18 1013.04 1121.63 1012.48 1123.89C1007.14 1145.32 1001.72 1166.74 996.318 1188.15C990.948 1196.91 992.568 1206.62 992.818 1216.05C992.998 1222.77 993.598 1229.55 994.798 1236.16C995.698 1241.17 997.848 1245.95 999.638 1251.41Z" fill="#0DFF9D"/>
<path d="M74.8385 1212.44C76.4285 1205.53 77.8785 1200.53 78.6785 1195.43C80.4485 1184.21 82.4185 1172.97 81.4585 1161.51C81.3285 1160.01 81.1485 1158.18 81.8385 1157C85.8285 1150.16 89.4085 1142.87 97.1285 1139.23C97.6185 1139 98.3185 1139.2 98.8685 1139.2C101.779 1141.43 101.819 1144.65 101.639 1147.65C101.169 1155.61 100.809 1163.62 99.5985 1171.49C97.2185 1186.97 94.2085 1202.35 91.6485 1217.81C90.8185 1222.81 89.2585 1227.25 85.6185 1230.9C81.7185 1234.81 78.0085 1238.91 74.1485 1242.85C72.1085 1244.93 69.7185 1244.6 67.3385 1243.44C61.7185 1240.71 57.0385 1236.69 52.9785 1232.06C48.9285 1227.45 45.2385 1222.53 41.5085 1217.65C32.7185 1206.15 24.8785 1194.06 18.4285 1181.07C16.4285 1177.04 16.1385 1173.62 19.2385 1170.1C23.0885 1165.73 26.6085 1161.06 30.6085 1156.83C32.9485 1154.35 35.5485 1155.08 37.3385 1158.19C37.9485 1159.25 38.3885 1160.41 38.8885 1161.53C46.2585 1177.96 56.9785 1192.19 68.3285 1205.98C69.8085 1207.82 71.6885 1209.35 74.8385 1212.44Z" fill="#0DFF9D"/>
<path d="M137.788 1238.94C134.078 1236.7 133.518 1233.84 132.658 1231.31C128.518 1219.12 124.218 1206.97 120.628 1194.62C119.118 1189.41 119.038 1183.75 118.658 1178.27C118.328 1173.51 119.758 1169.15 123.128 1165.61C126.288 1162.29 129.378 1158.88 132.768 1155.81C133.958 1154.74 135.968 1154.58 138.068 1153.85C138.528 1156.21 139.088 1157.94 139.178 1159.7C139.678 1169.92 142.338 1179.64 145.488 1189.3C148.438 1198.33 150.908 1207.52 153.898 1216.54C155.688 1221.93 154.208 1226.29 150.398 1229.87C146.618 1233.4 142.458 1236.53 137.788 1238.94Z" fill="#0DFF9D"/>
<path d="M129.039 1041.87C130.469 1044.64 129.359 1046.65 127.579 1047.85C123.809 1050.39 120.839 1054.24 116.059 1055.22C115.769 1055.28 115.459 1055.42 115.229 1055.6C106.649 1062.21 96.5394 1062.45 86.3294 1063.11C71.8594 1064.05 57.4394 1064.28 43.0394 1062.56C38.7794 1062.05 34.5594 1061.19 30.3694 1060.27C28.5994 1059.88 26.7994 1059.16 25.2694 1058.18C15.5494 1051.96 15.2294 1047.56 20.7894 1039.35C27.0994 1030.04 35.0294 1022.46 45.2894 1017.53C47.1394 1016.64 48.9094 1015.58 50.9294 1014.48C49.0294 1011.83 46.6494 1012.8 44.7194 1012.38C42.6194 1011.92 40.4694 1011.63 38.3294 1011.53C27.6794 1011.03 27.6994 1006.19 31.9094 998.999C35.8894 992.189 41.9594 987.359 49.3894 984.659C56.3194 982.149 63.3794 979.959 70.4794 977.999C82.0194 974.809 93.6394 971.909 105.239 968.939C107.309 968.409 109.469 967.839 111.559 967.899C112.849 967.939 114.619 968.859 115.239 969.929C115.869 971.009 115.719 972.909 115.229 974.179C114.699 975.529 113.429 976.629 112.369 977.739C108.529 981.759 104.029 984.919 99.3594 987.899C96.3494 989.819 93.0494 990.039 89.6594 990.309C82.6194 990.879 75.5994 991.619 68.5794 992.339C66.4694 992.559 64.5394 993.279 61.7994 995.289C73.8494 995.779 84.5094 997.589 95.2794 995.929C97.0694 995.649 99.1294 995.499 100.749 996.119C102.269 996.709 103.839 998.189 104.479 999.669C104.929 1000.69 104.229 1002.74 103.359 1003.7C100.659 1006.63 97.8694 1009.58 94.6794 1011.93C89.5094 1015.74 84.1694 1019.01 77.5594 1020.5C67.4094 1022.8 57.5194 1026.3 47.5494 1029.35C44.6394 1030.24 41.6094 1031 39.2294 1034.2C40.8794 1035.46 42.3194 1037.3 44.1294 1037.81C49.7294 1039.37 55.4194 1041.03 61.1694 1041.56C78.9694 1043.21 96.8094 1042.51 114.639 1041.71C119.499 1041.51 124.399 1040.87 129.039 1041.87Z" fill="#0DFF9D"/>
<path d="M128.889 1093.37C128.639 1097.44 126.589 1100.09 122.849 1101.72C118.379 1103.67 113.999 1105.85 109.599 1107.95C107.209 1109.09 104.939 1108.81 102.539 1107.79C96.0791 1105.06 90.9891 1101 88.2491 1094.31C86.9691 1091.18 87.0791 1088.28 89.1491 1085.65C93.3291 1080.35 97.7591 1075.26 103.459 1071.49C105.639 1070.05 107.879 1070.48 108.689 1072.95C110.959 1079.86 116.069 1084 121.909 1087.63C124.439 1089.22 127.489 1090.3 128.889 1093.37Z" fill="#0DFF9D"/>
<path d="M66.819 959.049C65.499 964.729 61.659 966.869 58.009 969.029C55.669 970.419 52.889 971.069 50.519 972.409C46.679 974.569 43.289 973.409 40.329 971.049C37.979 969.169 35.899 966.789 34.209 964.289C30.899 959.379 31.079 956.389 35.139 951.999C39.279 947.519 43.699 943.289 48.179 939.149C49.919 937.539 52.639 938.239 53.439 940.559C55.429 946.249 59.389 950.459 63.319 954.739C64.549 956.079 65.619 957.549 66.819 959.049Z" fill="#0DFF9D"/>
</svg>
