<svg width="937" height="234" viewBox="0 0 937 234" fill="none" xmlns="http://www.w3.org/2000/svg">
<path d="M479.408 102.34C476.008 100.95 476.118 101.01 477.758 97.8104C478.808 95.7604 480.218 94.1504 481.968 92.7204C483.378 91.5604 484.598 90.1704 485.988 88.9704C487.128 87.9804 487.998 88.3804 488.438 90.0004C488.568 90.4804 488.639 90.9804 488.769 91.6304C489.619 91.7304 490.378 91.9104 491.128 91.9004C496.628 91.7604 501.748 93.3304 506.718 95.4404C508.028 96.0004 509.298 96.7504 510.418 97.6404C512.538 99.3304 513.038 101.15 511.878 103.56C511.038 105.31 509.979 107.03 508.709 108.49C506.019 111.57 502.798 114.05 499.258 116.11C498.378 116.62 497.558 117.26 496.698 117.85C496.988 118.2 497.108 118.5 497.308 118.56C502.188 120.05 507.069 121.52 511.959 122.96C512.429 123.1 512.969 122.98 513.529 122.98C513.689 122.48 513.929 122.12 513.899 121.79C513.609 118.19 514.858 114.91 516.848 112.18C519.558 108.47 521.668 104.4 524.408 100.74C525.268 99.5904 526.318 98.5804 527.198 97.4504C529.868 93.9904 533.558 93.5404 537.488 94.0004C541.098 94.4304 544.179 96.1703 547.029 98.3303C547.439 98.6403 547.809 99.0504 548.089 99.4804C551.469 104.58 553.258 110.08 552.108 116.24C551.668 118.59 550.578 120.69 548.978 122.5C547.758 123.87 546.498 125.21 545.328 126.62C541.508 131.2 536.408 132.92 530.698 132.98C528.098 133.01 525.458 132.66 522.998 131.62C520.438 130.54 517.998 129.3 516.348 126.92C516.068 126.51 515.598 126.23 515.008 125.7C514.058 126.45 513.468 127.46 512.678 128.26C511.858 129.1 510.898 129.8 510.098 130.66C508.718 132.15 507.188 132.68 505.158 132.15C503.398 131.69 501.558 131.55 499.858 131.28C497.638 132.5 495.508 133.73 493.328 134.85C491.378 135.86 490.199 135.61 488.959 133.87C488.199 132.81 487.608 131.63 486.988 130.48C486.188 128.98 485.488 127.45 483.928 126.49C482.788 125.79 482.538 124.63 483.058 123.38C483.538 122.21 483.338 121.1 482.948 119.94C482.488 118.57 482.168 117.16 481.818 115.76C480.888 112.07 479.888 108.4 479.788 104.56C479.748 103.77 479.518 103 479.408 102.34ZM531.258 103.68C531.388 104.6 531.438 105.23 531.568 105.84C532.118 108.57 530.398 110.91 527.288 110.04C526.728 109.88 525.988 110.04 525.428 110.28C524.478 110.67 523.598 111.24 522.698 111.73C521.688 114.76 523.088 116.95 525.068 118.79C528.578 122.06 532.888 123.45 537.598 123.68C539.578 123.78 541.529 123.58 543.209 122.47C546.529 116.05 540.178 103.85 531.258 103.68ZM503.008 107.93C500.438 104.41 496.169 102.57 490.019 102.27C489.619 104.67 490.628 106.84 491.188 109.05C491.518 110.37 491.428 111.93 492.868 112.92C496.378 111.46 499.748 109.86 503.008 107.93Z" fill="#0DFF9D"/>
<path d="M469.139 109.54C470.919 109.26 472.309 109.05 473.949 108.8C474.079 111.12 472.129 112.03 471.269 113.87C471.539 114.61 471.829 115.6 472.259 116.52C473.999 120.2 475.659 123.92 477.589 127.49C478.659 129.48 478.249 130.98 476.919 132.47C475.229 134.37 473.069 135.54 470.969 136.5C469.289 136.08 468.679 134.91 468.089 133.72C466.689 130.9 465.299 128.08 463.889 125.26C463.009 123.51 462.109 121.77 461.209 120C458.989 120 456.909 120 454.839 120C452.749 120 450.659 120 448.289 120C448.469 120.9 448.439 121.59 448.739 122.07C449.689 123.61 450.769 125.08 451.839 126.65C450.129 129.89 446.819 130.58 443.729 131.53C443.139 131.71 442.109 131.29 441.629 130.8C440.619 129.8 439.659 128.66 438.989 127.41C436.749 123.2 435.299 118.73 434.829 113.96C434.549 111.13 435.169 108.49 436.209 105.9C436.539 105.08 436.939 104.28 437.439 103.16C433.559 102.38 429.939 102.79 426.339 102.78C425.629 102.78 424.929 103.22 424.129 103.49C424.299 106.7 425.049 109.59 425.819 112.49C427.609 119.21 429.319 125.94 431.119 132.65C431.379 133.6 431.409 134.44 430.919 135.29C429.409 137.91 427.359 140.05 425.219 141.99C423.629 141.55 423.429 140.25 422.929 139.24C422.469 138.31 422.149 137.29 421.879 136.28C420.139 129.82 418.449 123.35 416.699 116.89C415.439 112.24 414.809 107.63 417.489 103.13C416.879 102.93 416.539 102.72 416.189 102.72C412.649 102.73 409.099 102.73 405.559 102.82C404.519 102.85 403.469 103.08 402.469 103.36C402.069 103.47 401.779 103.99 401.439 104.31C401.179 104.55 400.929 104.95 400.639 104.99C398.849 105.24 396.899 102.94 397.659 101.41C399.059 98.5705 400.989 96.0705 403.169 93.7905C403.579 93.3605 404.289 93.1005 404.899 93.0005C405.799 92.8505 406.729 92.8805 407.649 92.8905C420.249 93.0305 432.849 93.1905 445.439 93.3405C445.829 93.3405 446.229 93.3004 446.619 93.3304C448.259 93.4804 448.969 94.6304 448.159 96.0504C447.389 97.4104 446.569 98.8005 445.519 99.9405C443.539 102.1 443.289 104.53 443.729 107.16C452.489 109.95 454.149 110.31 457.159 110.03C457.669 108.81 456.839 107.79 456.599 106.69C456.059 104.26 455.429 101.86 454.889 99.4305C453.749 94.3005 454.989 89.8105 458.669 86.0405C459.669 85.0105 460.669 83.9805 461.779 83.0605C462.069 82.8205 462.779 82.9205 463.209 83.0905C463.459 83.1905 463.679 83.7504 463.659 84.0804C463.479 86.5704 463.289 89.0305 463.669 91.5305C464.609 97.6905 466.889 103.39 469.139 109.54Z" fill="#0DFF9D"/>
<path d="M648.549 117.78C649.899 115.67 649.539 113.93 649.119 112.1C648.479 109.29 648.099 106.43 647.589 103.59C647.389 102.5 647.519 101.46 648.219 100.61C650.389 97.9797 652.569 95.3498 655.799 93.9098C656.019 93.8098 656.309 93.8997 656.559 93.8997C657.559 94.3897 657.539 95.3498 657.669 96.2598C658.189 99.7598 658.689 103.27 659.259 106.76C659.399 107.63 659.799 108.46 660.089 109.34C665.549 109.9 670.749 111.34 676.379 110.94C676.169 109.87 676.049 109.11 675.879 108.37C675.409 106.33 674.739 104.31 674.459 102.24C673.889 98.0097 674.749 94.1597 677.999 91.0797C680.079 89.1097 682.069 87.0498 684.679 86.0098C685.639 86.4998 685.699 87.2098 685.479 87.8098C683.669 92.8098 684.749 97.6498 686.199 102.47C686.759 104.35 687.449 106.2 688.069 108.07C688.529 109.47 688.959 110.88 690.849 110.6C690.229 113.68 690.169 113.7 691.229 116.24C692.789 119.99 694.439 123.7 696.049 127.43C696.309 128.03 696.539 128.64 696.789 129.26C695.449 133.25 691.469 134.09 688.879 136.3C687.259 136.16 686.649 135.1 686.129 134.05C684.499 130.76 682.909 127.45 681.339 124.13C680.729 122.83 680.209 121.49 679.579 119.99C676.999 119.99 674.539 119.99 672.069 119.99C669.589 119.99 667.099 119.99 664.709 119.99C664.489 120.36 664.209 120.63 664.259 120.78C665.149 123.6 663.949 125.64 661.809 127.28C660.169 128.54 658.439 129.7 656.839 130.83C655.199 129.96 654.749 128.52 654.159 127.24C653.229 125.21 652.339 123.16 651.659 121.04C651.209 119.57 650.359 118.57 648.549 117.78Z" fill="#0DFF9D"/>
<path d="M629.359 123.78C629.409 123.43 629.53 123.04 629.51 122.66C629.07 115.95 633.35 112.53 638.5 109.71C638.58 109.66 638.74 109.75 638.89 109.78C639.85 110.35 639.629 111.33 639.679 112.22C639.889 116.54 640.12 120.86 640.28 125.18C640.41 128.76 641.119 132.22 642.349 135.56C642.919 137.11 642.69 138.31 641.81 139.59C640.12 142.06 637.459 143.22 635.219 144.96C632.929 143.73 632.239 141.73 631.789 139.69C631.229 137.13 630.929 134.52 630.489 131.93C630.319 130.92 630.089 129.92 629.849 128.73C627.809 129.35 626.33 130.53 625.13 131.77C620.31 136.75 608.02 136.81 601.5 132.27C598.95 130.5 597.619 128.1 597.539 124.97C597.439 121.47 598.55 118.24 599.76 115.05C600.93 111.97 602.639 109.16 604.609 106.52C608.739 101 613.8 96.4704 619.56 92.7004C621.43 91.4704 623.419 90.4804 625.659 90.0904C628.559 89.5904 630.46 90.6204 631.56 93.3904C631.9 94.2404 632.12 95.1404 632.26 96.0404C632.34 96.5304 632.27 97.1404 632.02 97.5504C630.67 99.7504 628.84 101.4 626.2 101.84C624.62 102.1 623.06 102.12 621.89 100.65C620.49 98.8904 618.589 99.1704 616.859 99.8504C615.679 100.31 614.519 101.12 613.669 102.06C610.069 106.05 607.709 110.68 607.159 116.09C606.709 120.44 607.98 122.86 611.95 124.58C616.22 126.44 620.71 127.26 625.38 126.15C626.94 125.78 628.329 125.15 629.359 123.78Z" fill="#0DFF9D"/>
<path d="M587.389 87.9805C588.749 88.2905 589.489 89.1805 589.949 90.3205C592.929 97.7205 594.839 105.25 593.349 113.35C591.989 120.73 587.749 125.92 581.519 129.7C579.679 130.82 577.589 131.25 575.449 130.92C569.049 129.94 563.449 127.27 558.789 122.72C556.659 120.63 555.449 118.02 554.749 115.18C554.199 112.95 554.499 110.76 555.499 108.66C557.689 104.05 561.009 100.4 565.089 97.4105C565.259 97.2805 565.589 97.3705 566.109 97.3405C566.179 97.9005 566.449 98.5504 566.279 99.0504C565.909 100.16 565.379 101.23 564.809 102.26C563.419 104.75 563.379 107.32 564.569 109.82C565.289 111.34 566.219 112.85 567.389 114.03C571.279 117.94 575.999 120.41 581.479 121.3C581.979 121.38 582.509 121.26 582.909 121.24C584.179 120.45 584.269 119.2 584.509 118.07C585.319 114.27 584.979 110.49 584.099 106.75C583.679 104.96 583.129 103.2 582.539 101.47C581.849 99.4805 580.769 97.4305 581.669 95.4005C582.929 92.5805 583.669 89.2605 587.389 87.9805Z" fill="#0DFF9D"/>
<path d="M229.861 97.869C235.941 99.079 242.241 98.449 248.511 98.709C254.401 98.959 260.301 99.149 266.191 99.399C267.091 99.439 267.991 99.639 268.921 99.769C269.971 99.499 270.471 98.069 271.981 98.429C272.471 98.549 273.261 97.689 273.831 97.179C277.121 94.239 280.521 93.809 284.181 96.129C285.941 97.249 287.521 98.649 289.161 99.959C289.561 100.279 290.001 100.679 290.191 101.129C291.811 105.129 294.301 108.679 296.151 112.569C297.301 114.999 297.291 117.379 296.451 119.809C295.131 123.659 292.341 126.469 289.581 129.269C289.061 129.799 288.241 130.049 287.521 130.339C280.431 133.229 273.431 132.729 266.531 129.669C263.271 128.219 260.951 125.809 259.721 122.409C258.991 120.389 258.841 118.379 259.391 116.239C260.341 112.479 261.861 109.069 264.471 106.159C264.901 105.679 265.231 105.109 265.591 104.559C265.651 104.479 265.601 104.319 265.601 104.079C265.231 104.129 264.801 104.059 264.531 104.239C263.991 104.589 263.461 104.999 263.071 105.509C261.601 107.449 259.701 108.269 257.261 108.159C255.301 108.069 253.331 108.169 251.361 108.219C250.591 108.239 249.831 108.349 248.921 108.439C248.451 111.799 250.001 114.689 250.481 117.739C250.961 120.809 250.751 124.079 252.551 126.699C252.381 128.689 251.371 130.009 250.051 131.149C248.861 132.179 247.681 133.219 246.451 134.199C245.281 135.129 244.251 134.909 243.591 133.529C243.091 132.469 242.561 131.349 242.421 130.209C241.531 122.749 239.081 115.689 237.041 108.309C234.741 107.899 232.381 108.289 230.061 108.169C227.891 108.049 225.581 108.419 223.531 106.699C223.831 105.849 223.961 104.899 224.451 104.209C226.011 102.009 227.211 99.449 229.861 97.869ZM288.871 122.399C289.041 117.719 287.121 114.039 284.561 110.639C282.971 108.539 281.011 106.799 278.621 105.579C277.271 104.889 275.841 104.569 274.441 105.009C272.841 105.519 271.341 106.339 269.791 107.009C268.421 107.599 267.911 108.769 267.751 110.129C267.361 113.319 268.171 116.069 270.591 118.329C273.511 121.059 277.091 122.299 280.891 122.789C283.391 123.119 286.031 123.869 288.871 122.399Z" fill="#0DFF9D"/>
<path d="M196.58 112.979C196.74 113.719 196.97 114.219 196.94 114.699C196.76 117.159 197.901 119.039 199.641 120.549C204.651 124.899 210.45 126.769 217.08 125.869C217.18 125.859 217.261 125.709 217.541 125.449C217.361 123.669 216.26 122.209 215.08 120.849C212.21 117.539 208.751 114.949 204.761 113.149C197.591 109.909 190.28 107.029 182.66 104.979C182.53 104.949 182.4 104.939 182.28 104.889C178.82 103.659 177 102.709 180.12 98.8591C180.7 98.1491 181.08 97.2791 181.65 96.5791C183.58 94.2091 185.75 92.5391 189.03 91.9091C195.75 90.6391 202.471 89.6091 209.291 89.3891C212.811 89.2691 216.34 89.5991 219.81 90.4391C223.11 91.2391 225.57 92.8691 226.66 96.4391C225.6 100.009 222.68 102.299 220.02 104.779C219.39 105.369 218.53 105.119 217.86 104.569C217.66 104.409 217.44 104.209 217.36 103.979C216.21 100.769 213.45 100.089 210.55 99.4491C207.96 98.8791 205.391 98.6791 202.791 98.8691C202.421 99.8891 203.19 100.029 203.72 100.279C206.92 101.789 210.15 103.209 213.32 104.789C216.51 106.379 219.27 108.589 221.75 111.169C223.4 112.889 224.661 114.859 225.671 117.019C227.121 120.139 226.92 123.149 225.13 126.029C223.39 128.829 221.25 131.319 218.74 133.459C217.11 134.839 215.231 135.689 213.041 135.849C209.211 136.129 205.47 135.739 201.75 134.769C198.05 133.799 195.151 131.659 192.701 128.839C191.291 127.219 190.11 125.499 191.63 123.219C191.95 122.739 191.801 121.939 191.891 121.289C192.301 118.499 193.531 116.059 195.141 113.789C195.391 113.449 195.97 113.309 196.58 112.979Z" fill="#0DFF9D"/>
<path d="M303.86 91.4588C305.71 91.4588 307.13 91.4888 308.55 91.4488C314.18 91.2988 319.45 92.6488 324.47 95.1388C326.03 95.9188 327.4 96.9088 328.44 98.2888C329.89 100.209 330.38 102.329 329.09 104.529C328.37 105.769 327.62 107.039 326.62 108.049C324.41 110.279 322.26 112.609 319.42 114.099C319.09 114.279 318.75 114.459 318.36 114.669C319.68 116.159 321.1 116.469 322.47 116.859C326.88 118.119 331.3 119.329 335.7 120.619C337.55 121.159 339.55 121.419 341.27 122.919C340.56 124.649 339.5 126.059 338.11 127.239C337.71 127.579 337.16 127.779 336.85 128.179C335.04 130.519 332.91 130.719 330.22 129.719C327.91 128.859 325.39 128.569 322.98 127.979C320.31 127.319 317.66 126.599 314.99 125.909C314.38 125.749 313.76 125.649 313.02 125.499C312.87 126.009 312.63 126.389 312.7 126.679C313.18 128.559 312.41 129.999 311.24 131.349C309.69 133.129 307.7 134.389 306.06 136.229C305.41 135.649 304.9 135.389 304.69 134.979C304.09 133.819 303.47 132.639 303.11 131.389C300.45 122.319 298.27 113.129 296.45 103.859C295.61 99.5688 297.62 96.5788 300.61 93.9788C301.7 93.0688 302.86 92.2388 303.86 91.4588ZM319.62 106.869C318.29 104.449 316.33 103.489 314.42 102.879C312.03 102.119 309.65 100.799 306.82 101.379C306.77 102.059 306.63 102.579 306.71 103.059C307.05 104.989 307.42 106.919 307.86 108.829C308.02 109.529 308.43 110.169 308.75 110.879C312.41 109.529 315.83 108.269 319.62 106.869Z" fill="#0DFF9D"/>
<path d="M366.651 134.769C366.021 136.639 364.441 137.299 363.101 137.909C361.591 138.609 359.831 138.889 358.161 139.059C356.631 139.219 355.371 138.329 354.571 137.049C353.671 135.609 352.791 134.119 352.151 132.559C351.111 130.019 350.121 127.429 349.391 124.789C348.771 122.539 348.571 120.179 348.091 117.329C347.701 117.049 346.911 116.379 346.041 115.849C341.471 113.049 338.011 109.159 335.061 104.759C334.771 104.329 334.501 103.869 334.251 103.409C331.831 98.8291 331.881 98.3392 335.201 94.4192C336.721 92.6292 338.341 90.9492 340.461 90.0092C342.071 90.6692 342.141 92.0991 342.581 93.2991C344.411 98.2291 347.541 102.189 351.651 105.409C352.141 105.799 352.731 106.059 353.531 106.529C354.171 105.389 354.801 104.439 355.271 103.409C355.921 101.979 356.551 100.519 357.001 99.0191C358.331 94.5291 361.511 91.4191 364.811 88.3991C365.661 87.6191 366.631 86.9291 368.181 86.8691C368.181 87.6091 368.361 88.2791 368.151 88.7791C365.271 95.6691 362.401 102.559 359.391 109.389C358.331 111.789 358.061 114.119 358.691 116.639C360.101 122.269 362.121 127.639 365.321 132.519C365.831 133.259 366.241 134.059 366.651 134.769Z" fill="#0DFF9D"/>
<path d="M121.949 91.8496C122.409 92.9196 122.659 93.4796 122.899 94.0496C123.129 94.1496 123.369 94.3296 123.599 94.3396C127.819 94.4696 131.949 95.0996 135.899 96.6096C137.979 97.3996 140.009 98.3196 141.589 99.9896C144.299 102.86 144.469 106.03 142.069 109.19C139.969 111.95 137.209 113.94 134.359 115.83C133.519 116.39 132.679 116.95 131.739 117.57C132.919 118.5 134.069 118.59 135.229 118.69C138.359 118.97 141.489 119.2 144.609 119.58C146.009 119.75 147.359 120.24 149.059 120.66C148.589 121.73 148.409 122.69 147.849 123.28C145.599 125.65 143.259 127.89 139.559 127.6C136.819 127.38 134.069 127.33 131.319 127.24C130.299 127.21 129.279 127.26 127.999 127.28C128.069 128.17 127.969 128.83 128.189 129.36C128.879 131.06 129.689 132.71 130.429 134.38C131.419 136.6 131.059 137.6 128.939 138.87C127.799 139.55 126.649 140.12 125.259 140.05C124.219 140 123.179 140.04 121.899 140.04C120.029 138.62 118.729 136.56 117.839 134.19C117.469 133.21 117.079 132.24 116.719 131.25C116.129 129.65 115.779 127.9 114.889 126.5C114.089 125.25 112.679 124.39 111.449 123.27C111.659 122.75 111.759 122.23 112.049 121.84C112.729 120.92 112.959 119.97 112.529 118.9C110.869 114.76 110.839 110.45 111.219 106.12C111.329 104.86 110.869 104.15 109.639 103.68C110.319 100.58 111.849 98.2096 114.879 96.8696C115.929 96.4096 116.829 95.5796 117.769 94.8896C119.019 93.9796 120.159 92.8996 121.949 91.8496ZM122.619 113.31C127.329 112.89 131.609 111.47 133.619 109.71C131.479 105.82 126.529 103.4 120.859 103.64C120.419 107.07 121.499 110.2 122.619 113.31Z" fill="#0DFF9D"/>
<path d="M24.5296 106.11C26.2796 101.19 27.2096 96.6996 27.7096 92.1596C28.2396 87.3596 30.1396 83.0996 32.2496 78.8796C32.6996 77.9696 33.4196 77.1596 34.1596 76.4396C34.7996 75.8096 36.1096 76.1596 36.4996 76.9996C36.7696 77.5796 37.0396 78.2196 37.0796 78.8496C37.1696 80.0196 37.2496 81.2296 37.0496 82.3796C36.0996 87.9296 35.1096 93.4796 34.0096 99.0096C33.3996 102.09 32.4796 105.11 31.7996 108.18C31.5096 109.49 31.1496 110.68 30.1796 111.68C28.9696 112.91 28.7596 114.5 29.1196 116.08C29.5196 117.86 30.0596 119.62 30.6796 121.34C32.0096 125.02 33.4396 128.67 34.7996 132.28C32.1796 135.39 28.8696 135.78 25.1896 135.9C21.5796 130.21 18.0296 124.58 19.7596 117.13C19.0496 116.71 18.2896 116.25 17.5196 115.8C14.7996 114.22 12.0296 112.73 9.3696 111.05C6.3296 109.13 4.02961 106.46 2.14961 103.4C1.28961 102 1.1196 100.74 2.2796 99.4596C4.0296 97.5196 5.7696 95.5596 7.5696 93.6696C7.9996 93.2196 8.64961 92.9896 9.40961 92.5296C10.0596 93.2296 10.8996 93.7595 11.2196 94.5195C13.7196 100.47 19.0096 103.08 24.5296 106.11Z" fill="#0DFF9D"/>
<path d="M53.0489 101.539C56.0589 98.1087 59.5189 99.1187 62.6889 100.909C66.5089 103.059 69.7189 105.939 70.9389 110.469C71.1689 111.329 71.6989 112.109 72.0789 112.939C73.1989 115.329 73.2989 117.649 71.9589 120.059C69.6689 124.179 66.4389 127.379 62.5589 129.899C61.2989 130.719 59.6689 131.169 58.1589 131.349C55.9589 131.609 53.7189 131.499 51.4889 131.509C49.2989 131.519 47.4489 130.509 45.6789 129.379C44.3689 128.539 43.1889 127.499 41.9089 126.589C38.9689 124.489 37.9589 121.519 37.9889 118.069C37.9889 117.809 37.9789 117.519 38.0889 117.299C39.0289 115.289 39.7189 113.099 40.9989 111.329C43.2189 108.259 45.7889 105.449 48.2389 102.559C48.6489 102.069 49.2389 101.729 49.7589 101.329C50.8489 100.509 51.9189 100.549 53.0489 101.539ZM63.1389 122.229C63.5989 120.769 63.1189 119.419 62.5689 118.069C60.6889 113.379 57.1489 110.459 52.5489 108.679C51.4889 108.269 50.4089 107.929 49.3989 107.589C49.4489 106.739 49.4789 106.139 49.5289 105.269C46.1189 108.659 45.4189 111.629 46.9589 115.319C49.3289 120.979 57.0189 124.279 63.1389 122.229Z" fill="#0DFF9D"/>
<path d="M96.1486 125.269C97.1086 124.029 96.7786 122.839 96.6786 121.689C96.4586 118.949 96.2986 116.189 95.9386 113.459C95.7386 111.919 96.0286 110.609 96.9486 109.399C98.1386 107.839 99.3186 106.259 100.549 104.729C100.949 104.219 101.459 103.779 101.979 103.389C102.799 102.769 103.919 103.049 104.209 104.039C104.749 105.919 105.299 107.829 105.549 109.759C105.929 112.749 106.009 115.769 106.309 118.769C106.739 122.969 105.589 126.539 102.369 129.369C101.489 130.149 100.559 130.869 99.6686 131.649C96.8186 134.149 93.7086 134.919 89.8486 134.209C86.2886 133.549 82.9786 132.569 79.9786 130.619C75.4586 127.679 73.1286 123.549 73.1886 118.079C73.2086 116.559 73.4986 115.179 74.4386 114.039C76.7586 111.209 79.1486 108.439 81.5386 105.659C81.8686 105.279 82.3086 104.979 82.7486 104.729C82.9286 104.629 83.2886 104.699 83.4786 104.829C83.6686 104.949 83.8786 105.269 83.8386 105.449C83.6186 106.469 83.4186 107.509 83.0586 108.479C81.0786 113.839 83.2786 118.499 87.0186 121.439C89.7286 123.559 92.6686 125.219 96.1486 125.269Z" fill="#0DFF9D"/>
<path d="M186.029 16.3798C185.389 17.6798 185.989 18.6498 186.509 19.4998C186.789 19.9698 187.549 20.3397 188.129 20.3997C189.559 20.5597 191.009 20.5498 192.449 20.5398C196.909 20.5298 201.359 20.4998 205.819 20.4798C206.079 20.4798 206.349 20.4798 206.609 20.5098C207.609 20.6498 208.889 20.2798 209.459 21.3898C210.139 22.7098 209.059 23.5898 208.239 24.4098C206.859 25.7998 205.439 27.1598 203.989 28.4798C202.959 29.4198 201.659 29.5397 200.299 29.5197C197.809 29.4797 195.309 29.5098 192.819 29.5598C192.079 29.5798 191.349 29.7798 190.339 29.9398C191.349 34.3898 193.139 38.3398 193.969 42.5698C193.509 44.5898 192.059 45.9397 190.639 47.2997C189.599 48.2997 188.539 49.2698 187.419 50.1898C186.609 50.8498 185.609 50.5498 185.169 49.5598C184.899 48.9698 184.729 48.3297 184.509 47.7097C182.759 42.6297 181.019 37.5498 179.249 32.4698C179.039 31.8598 178.679 31.2997 178.329 30.6097C177.289 30.6097 176.259 30.6498 175.249 30.5998C174.219 30.5498 173.199 30.4298 172.019 30.3198C170.719 33.0398 168.959 35.4197 167.109 37.7997C164.079 41.6997 160.089 43.1298 155.499 43.4798C153.409 43.6398 151.309 43.5098 149.189 43.5098C147.939 44.5798 146.769 45.5798 145.499 46.6698C143.929 45.9298 143.019 44.6398 141.979 43.4998C141.189 42.6298 140.459 41.6898 139.739 40.7498C138.919 39.6798 137.979 38.9798 136.589 38.6198C134.689 38.1298 134.539 37.4698 135.249 35.3498C135.369 34.9798 135.539 34.6297 135.759 34.0797C134.449 31.4997 132.919 28.8998 131.769 26.1398C130.669 23.4998 129.979 20.6898 129.029 17.6998C127.369 17.1198 125.539 16.5497 123.659 17.5197C122.949 18.6597 123.469 19.6298 123.819 20.5998C125.449 25.1698 127.009 29.7697 128.779 34.2997C129.319 35.6897 129.379 36.9998 128.619 38.0398C126.859 40.4498 125.299 43.0898 122.779 44.7898C121.269 44.8798 120.209 44.0598 119.109 43.3798C112.649 39.3698 106.189 35.3298 99.7293 31.3198C98.6393 30.6498 97.4993 30.0497 96.3993 29.4297C95.4893 30.6797 96.1293 31.6698 96.3593 32.6198C97.0193 35.3698 96.5693 37.8398 94.7393 40.0098C93.4993 41.4798 92.7293 43.3998 90.8193 44.4098C89.3593 43.6098 88.7993 42.2397 88.4393 40.8997C87.1093 35.8197 85.8193 30.7298 84.6593 25.6198C83.9593 22.5398 84.5093 19.6297 86.4893 17.0497C87.6893 15.4997 88.6793 13.7698 89.9493 12.2798C91.3193 10.6698 92.1193 10.7698 93.9393 12.2298C96.5993 14.3598 99.2093 16.5598 101.999 18.5098C105.969 21.2698 110.079 23.8297 114.069 26.4297C115.009 25.7197 114.539 25.0798 114.329 24.5598C113.369 22.1198 112.459 19.6598 111.309 17.3098C110.279 15.2098 110.129 13.3698 111.689 11.4798C112.779 10.1698 113.649 8.68975 114.739 7.36975C115.289 6.69975 116.099 6.23977 116.999 5.50977C117.589 6.25977 118.159 6.77977 118.479 7.41977C119.699 9.86977 120.839 12.3598 122.149 15.1398C122.899 14.2698 123.489 13.6197 124.039 12.9297C125.099 11.5997 126.139 10.2497 127.179 8.89975C128.229 7.53975 129.539 6.91976 131.299 7.18976C135.439 7.84976 139.619 8.30976 143.729 9.12976C147.449 9.87976 151.099 10.9998 154.569 12.6198C155.389 12.9998 156.279 13.2398 157.329 13.5998C157.979 12.9798 158.679 12.4198 159.239 11.7498C159.909 10.9498 160.459 10.0397 161.049 9.17975C162.929 6.42975 165.349 5.41974 168.789 5.82974C172.669 6.29974 176.629 6.04975 180.559 6.14975C181.849 6.17975 183.129 6.40977 184.419 6.41977C190.459 6.47977 196.489 6.53976 202.529 6.49976C205.669 6.47976 208.819 6.21975 211.959 6.08975C213.049 6.04975 213.639 6.85977 213.259 7.91977C212.999 8.64977 212.729 9.44976 212.229 9.99976C210.549 11.8398 208.959 13.8598 206.969 15.2798C205.329 16.4498 203.159 16.8297 201.009 16.3997C199.869 16.1697 198.719 15.8198 197.569 15.8198C194.159 15.8098 190.749 15.9397 187.339 16.0497C186.879 16.0697 186.399 16.2898 186.029 16.3798ZM162.589 33.7898C161.759 31.2898 161.789 31.2598 160.639 30.0898C155.729 25.1298 149.609 22.3498 143.009 20.4798C142.619 20.3698 142.149 20.5198 141.359 20.5698C143.639 24.8198 145.979 28.5497 148.399 32.2397C149.009 33.1697 149.869 33.7298 150.989 33.7798C154.739 33.9498 158.509 34.3198 162.589 33.7898ZM162.159 16.0698C163.729 17.2998 164.559 17.9298 165.369 18.5898C166.079 19.1698 166.779 19.7697 167.439 20.3997C168.199 21.1197 168.979 21.8298 169.649 22.6198C170.239 23.3098 170.679 24.1298 171.209 24.8798C171.769 25.6598 171.869 26.7698 172.999 27.5698C173.959 26.2398 174.859 25.1297 175.599 23.9297C175.919 23.4097 176.139 22.6497 176.009 22.0797C175.559 20.0697 175.469 17.9298 174.159 15.9698C170.469 15.6698 166.749 15.6298 162.159 16.0698Z" fill="#0DFF9D"/>
<path d="M225.141 10.4187C228.441 12.1887 231.551 13.8486 234.831 15.6086C237.481 12.1886 239.641 8.21867 243.141 5.88867C245.541 6.05867 247.601 6.29864 249.661 6.32864C255.541 6.41864 261.081 7.83865 266.371 10.3387C268.401 11.2987 270.231 12.5586 271.701 14.2986C273.111 15.9586 273.391 17.7687 272.721 19.8087C272.041 21.8587 270.781 23.5087 269.321 25.0387C268.331 26.0687 267.311 27.0686 266.291 28.1086C269.431 30.3086 277.551 31.8687 285.381 31.8787C286.001 31.3487 285.701 30.6787 285.591 30.0587C285.011 26.8287 284.391 23.6087 283.801 20.3887C283.581 19.1887 282.881 18.5887 281.691 18.4187C279.621 18.1287 277.561 17.7787 275.221 17.4187C275.301 16.7387 275.161 15.9687 275.481 15.5987C277.361 13.4187 279.311 11.2887 281.301 9.21866C282.181 8.30866 283.301 8.21866 284.581 8.46866C292.061 9.89866 299.471 11.5486 306.561 14.4286C309.971 15.8186 313.371 17.2087 316.481 19.1887C318.361 20.3887 320.211 21.6187 321.661 23.3787C323.971 26.1887 324.231 28.4687 322.491 31.6987C322.371 31.9287 322.231 32.1587 322.081 32.3687C317.871 38.2487 312.741 42.9887 305.761 45.3887C301.661 46.7987 297.571 48.1987 294.331 51.2887C294.061 51.5487 293.651 51.6487 293.071 51.9487C292.631 51.3787 292.001 50.8687 291.781 50.2187C290.251 45.7587 288.811 41.2687 287.331 36.7887C287.021 35.8387 286.681 34.8987 286.231 33.5987C285.391 34.4387 284.741 34.9087 284.351 35.5287C283.211 37.3587 281.451 38.5287 279.881 39.8987C278.721 40.8987 277.361 41.1386 275.831 40.9286C273.361 40.5986 270.871 40.4787 268.401 40.1387C264.901 39.6487 261.421 39.0187 257.931 38.4687C257.451 38.3887 256.961 38.3987 256.111 38.3487C256.701 39.5787 257.141 40.4987 257.681 41.6187C256.931 45.6587 253.181 47.2486 250.741 49.7986C249.031 49.4886 248.181 48.4487 247.551 47.3087C246.481 45.3587 245.471 43.3687 244.621 41.3087C243.671 39.0087 242.961 36.6086 242.101 34.2686C241.851 33.5886 241.481 32.9687 240.931 31.8387C239.061 35.7387 236.681 38.6787 234.031 41.3787C232.671 42.7587 231.101 44.0087 229.451 45.0287C227.041 46.5087 224.381 47.0787 221.521 46.4187C219.351 45.9187 217.071 45.7886 215.001 45.0486C213.061 44.3586 211.211 43.2486 209.541 42.0186C206.561 39.8186 205.161 35.9487 207.581 31.8887C209.681 28.3787 212.171 25.1686 214.971 22.2086C216.051 21.0586 216.961 19.8287 217.841 18.5087C219.431 16.1187 221.351 13.9486 223.191 11.7386C223.581 11.2486 224.251 10.9987 225.141 10.4187ZM295.061 22.2187C295.571 25.8087 296.471 28.6486 297.321 31.4886C298.191 34.4186 298.551 37.5586 300.541 40.2386C304.901 38.0686 309.741 37.6786 313.551 35.2386C314.021 33.7986 313.621 32.8186 312.911 32.0186C311.961 30.9486 310.981 29.8587 309.831 29.0287C305.561 25.9587 300.821 23.8587 295.061 22.2187ZM223.391 22.3387C221.611 23.1487 220.181 23.7387 218.801 24.4487C217.881 24.9187 216.961 25.4687 216.201 26.1587C214.871 27.3587 214.671 28.9087 215.571 30.4387C215.961 31.1087 216.461 31.7587 217.051 32.2587C221.511 36.1087 226.611 37.2987 232.271 36.0987C233.531 29.6387 230.281 24.7387 223.391 22.3387ZM262.681 23.3087C261.921 21.2787 260.541 20.5186 259.171 19.8286C255.711 18.0886 252.171 16.5387 247.991 16.2487C247.621 18.1087 248.511 19.4887 248.921 20.9387C249.311 22.3187 249.781 23.6887 250.351 24.9987C250.941 26.3587 251.091 27.9986 252.451 29.0186C254.041 27.8386 255.411 26.6086 256.971 25.7386C258.671 24.8086 260.551 24.1987 262.681 23.3087Z" fill="#0DFF9D"/>
<path d="M42.6102 31.9691C44.3302 29.6091 45.6902 27.6991 47.0902 25.8191C48.2502 24.2591 48.2802 24.279 50.7302 23.299C51.1202 22.279 51.6502 21.089 52.0502 19.859C53.6002 15.079 55.9202 10.6791 58.7602 6.55905C59.6402 5.27905 60.7602 4.13905 61.8902 3.05905C62.8102 2.18905 63.8602 2.38906 64.5402 3.50906C65.8902 5.75906 67.1702 8.03904 68.4502 10.329C72.6202 17.789 77.5902 24.709 82.8202 31.459C83.6202 32.499 84.3402 33.599 85.0702 34.679C86.9102 37.419 86.7402 40.129 84.8102 42.709C83.5602 44.389 82.1802 45.979 80.8002 47.549C79.9502 48.519 78.7702 48.2591 78.4102 46.9491C77.0902 42.2191 73.6202 38.9291 71.0402 35.1591C64.5602 36.4791 58.3202 36.109 51.8802 35.579C50.4702 37.509 49.1102 39.4091 47.7102 41.2891C46.7202 42.6191 45.8302 43.039 45.2002 42.519C44.3302 41.789 44.5802 40.9091 44.9002 40.0091C45.4102 38.5391 45.9002 37.0491 46.3902 35.5991C44.5902 34.6691 43.8802 34.659 43.4402 35.859C42.2302 39.109 39.7302 41.149 37.0102 43.369C36.4302 42.779 35.8002 42.319 35.4102 41.709C33.9202 39.399 32.5202 37.0191 31.0502 34.6891C30.3602 33.5991 29.5802 32.5591 28.6702 31.2491C27.1202 32.5291 26.2202 34.279 24.3802 34.709C22.6002 35.119 20.8002 35.4891 18.8302 35.9191C18.9102 37.4591 19.2202 38.9891 18.3502 40.4391C17.2402 42.2891 14.7502 45.3391 12.6702 46.9491C11.2602 46.0891 10.6302 44.6791 10.1702 43.1691C9.71023 41.6691 9.30024 40.1391 8.82024 38.6391C8.42024 37.3891 7.60024 36.7091 6.21024 36.6991C4.67024 36.6991 3.09023 36.8491 1.49023 36.0891C1.75023 32.6991 4.43024 30.5591 5.64024 27.4991C5.36024 24.3691 3.48024 20.9891 5.39024 17.7191C6.92024 15.0891 7.83023 11.899 11.0602 10.179C13.1602 15.309 13.9502 20.639 15.7302 25.649C18.9102 26.319 21.8302 26.2591 24.7702 25.5391C25.1702 24.0491 24.2502 23.149 23.7802 22.119C22.4902 19.259 21.1302 16.4191 19.8702 13.5391C18.6702 10.8091 18.8402 8.21905 20.7502 5.77905C21.8002 4.44905 22.6002 2.91906 23.6302 1.56906C24.0602 0.999061 24.8002 0.669062 25.6802 0.0390625C26.0402 0.869062 26.3802 1.39906 26.5002 1.97906C27.1902 5.35907 28.4902 8.49905 30.2202 11.459C33.5802 17.239 36.9402 23.0291 40.3402 28.7891C40.9002 29.7791 41.6602 30.6691 42.6102 31.9691ZM58.3702 16.609C57.4502 19.619 56.2302 21.6591 56.1002 24.1991C58.5902 25.3191 61.0802 26.009 63.9202 25.459C63.4802 22.919 61.8902 21.2991 60.7502 19.4391C60.2402 18.5991 59.4802 17.909 58.3702 16.609Z" fill="#0DFF9D"/>
<path d="M842.381 40.2582C841.001 36.0782 839.971 32.1782 843.441 28.6382C843.801 28.8582 844.261 28.9782 844.381 29.2482C845.221 31.0182 846.751 32.0682 848.361 32.9382C854.401 36.2082 860.821 38.4382 867.561 39.7482C868.181 39.8682 868.821 39.8882 869.361 39.9482C869.981 39.0782 869.551 38.5682 869.121 38.0882C866.141 34.6782 862.551 32.0582 858.481 30.1182C855.641 28.7682 852.701 27.6282 849.801 26.3982C846.541 25.0182 843.281 23.6482 840.021 22.2582C839.541 22.0582 839.051 21.8482 838.601 21.5882C834.591 19.2782 834.751 17.7782 837.091 14.7982C838.221 13.3582 839.461 11.9882 840.601 10.5482C842.251 8.45817 844.471 7.45818 847.031 7.17818C850.811 6.76818 854.591 6.32817 858.381 6.07817C862.191 5.83817 865.961 6.41818 869.691 7.21818C870.571 7.40818 871.441 7.75819 872.241 8.19819C873.791 9.0482 873.991 10.3182 872.841 11.7782C872.351 12.3982 871.781 12.9482 871.231 13.5082C870.221 14.5382 869.141 15.4982 868.191 16.5782C867.061 17.8682 865.801 18.0482 864.311 17.3682C861.521 16.0882 858.581 15.6182 854.851 15.7682C855.941 16.4482 856.481 16.8582 857.081 17.1382C860.051 18.5282 863.061 19.8182 866.001 21.2682C870.781 23.6082 874.841 26.8382 878.061 31.1382C880.311 34.1482 880.521 37.1082 878.531 40.2382C876.391 43.6082 873.711 46.4382 870.211 48.4382C868.051 49.6682 865.661 49.9082 863.341 49.5582C860.381 49.0982 857.351 48.5082 854.621 47.3482C850.301 45.5082 846.071 43.3782 842.381 40.2582Z" fill="#0DFF9D"/>
<path d="M768.121 11.6777C766.951 13.1677 766.541 14.1077 765.841 14.4877C763.791 15.5977 761.621 16.4777 759.501 17.4677C758.801 17.7977 758.001 18.0478 757.441 18.5378C755.471 20.2778 753.121 20.9277 750.601 21.1877C747.861 21.4777 745.131 21.7777 742.331 22.0777C741.301 23.1777 740.641 24.3777 740.511 26.0977C746.611 24.9577 752.631 25.3077 758.621 25.0777C759.931 25.0277 761.231 24.8078 762.531 24.7578C763.121 24.7378 763.721 24.9177 764.711 25.0777C764.151 26.0577 763.861 26.7477 763.411 27.3177C761.221 30.0477 758.141 31.6277 755.171 33.2477C753.241 34.2977 750.941 34.5578 748.661 34.5078C746.711 34.4578 744.731 34.4877 742.631 35.5577C743.121 36.1477 743.441 36.6878 743.891 37.0378C746.881 39.3578 750.431 40.3077 754.041 41.0677C755.191 41.3077 756.391 41.3378 757.561 41.4778C760.301 41.7978 762.851 41.5877 764.301 38.8277C766.021 39.6077 766.371 40.0178 765.911 41.0078C765.361 42.1878 764.791 43.4277 763.931 44.3777C762.171 46.3077 760.271 48.1477 758.281 49.8477C757.541 50.4777 756.391 50.8878 755.411 50.9178C752.671 50.9778 749.851 51.1477 747.191 50.5977C744.141 49.9777 741.121 48.8777 738.291 47.5577C731.881 44.5677 729.261 37.3377 732.331 30.9577C733.351 28.8377 734.311 26.6878 735.301 24.5378C734.671 23.9478 733.821 23.5277 733.681 22.9377C733.521 22.2877 734.011 21.4877 734.231 20.7477C734.271 20.6277 734.371 20.5278 734.441 20.4178C737.851 14.9678 739.531 13.8078 745.941 12.6978C747.621 12.4078 749.321 12.1978 751.021 12.1378C756.391 11.9478 761.761 11.8377 768.121 11.6777Z" fill="#0DFF9D"/>
<path d="M686.431 14.3291C685.851 11.8191 687.241 10.3091 688.521 8.84914C688.951 8.35914 689.921 8.15914 690.651 8.15914C701.801 8.11914 712.941 7.20914 724.091 7.94914C726.441 8.09914 728.811 7.98913 731.171 8.02913C732.481 8.04913 733.811 8.02913 735.151 9.02913C734.921 9.52913 734.791 10.1991 734.401 10.5891C733.021 11.9691 731.591 13.3091 730.101 14.5791C728.021 16.3591 725.531 17.0791 722.831 17.1491C720.991 17.1991 719.161 17.2091 717.321 17.2491C716.151 17.2691 714.981 17.3091 713.601 17.3491C713.371 18.3491 712.941 19.2291 713.041 20.0391C713.291 22.1091 713.631 24.1991 714.211 26.1991C715.451 30.4791 716.821 34.7291 718.221 38.9591C718.711 40.4391 718.201 41.4791 717.211 42.4791C715.561 44.1491 713.311 44.5491 711.211 45.2291C710.761 45.3791 709.911 44.9191 709.521 44.4891C709.011 43.9391 708.691 43.1591 708.441 42.4291C707.201 38.8391 705.951 35.2391 704.821 31.6091C703.611 27.7091 704.011 23.8291 705.331 20.0191C705.581 19.3091 705.891 18.6191 706.271 17.6691C705.221 17.5491 704.471 17.3891 703.721 17.3791C701.491 17.3391 699.261 17.3591 697.031 17.3591C694.921 17.3591 692.941 17.2191 691.061 15.8991C689.831 15.0491 688.131 14.8791 686.431 14.3291Z" fill="#0DFF9D"/>
<path d="M804.08 35.1185C803.96 35.7085 803.99 36.1586 803.79 36.4486C801.35 40.0686 798.39 43.2685 794.82 45.7085C789.49 49.3485 782.82 48.9385 777.76 45.5885C775.58 44.1385 774.35 41.9485 773.49 39.5885C772.22 36.0685 772 32.4486 772.69 28.7286C773.89 22.2886 777.08 16.9986 781.69 12.4686C782.06 12.1086 782.46 11.7285 782.93 11.5285C783.23 11.3985 783.75 11.4786 784.01 11.6686C784.27 11.8686 784.54 12.3886 784.46 12.6586C784.16 13.6486 783.78 14.6386 783.31 15.5686C781.95 18.2986 781.09 21.1785 780.81 24.2085C780.73 25.1185 780.69 26.0485 780.78 26.9585C781.79 36.9785 791.46 41.7886 800.3 36.6986C801.31 36.1186 802.33 35.5386 803.35 34.9786C803.44 34.9386 803.59 35.0185 804.08 35.1185Z" fill="#0DFF9D"/>
<path d="M837.661 35.4886C837.331 36.0386 837.091 36.6586 836.671 37.1086C834.531 39.4086 832.341 41.6686 830.161 43.9286C828.261 45.8986 825.901 46.9086 823.231 47.3586C819.481 47.9886 815.891 47.4487 812.481 45.8987C808.971 44.3087 806.991 41.5287 806.801 37.5987C806.631 34.0187 807.031 30.4987 808.241 27.1287C809.481 23.6587 811.041 20.3387 813.331 17.3987C814.461 15.9587 815.381 14.3487 816.491 12.8887C817.331 11.7787 818.101 10.5087 819.911 10.1387C819.931 11.0387 820.151 11.8287 819.941 12.4787C819.291 14.4687 818.511 16.4187 817.721 18.3687C816.431 21.5587 815.581 24.8387 815.541 28.3087C815.471 33.3587 817.541 36.2087 822.481 37.3787C826.661 38.3687 830.791 38.3087 834.691 36.0587C835.491 35.5887 836.311 34.5686 837.661 35.4886Z" fill="#0DFF9D"/>
<path d="M411.55 25.1883C410.15 27.7783 409.76 29.8583 409.61 31.9183C409.33 35.6883 407.65 38.6283 404.94 41.1083C404.27 41.7283 403.71 42.4683 403.03 43.0883C401.7 44.3083 400.72 44.4283 399.18 43.2583C397.83 42.2383 396.48 41.1183 395.44 39.8083C393.5 37.3483 391.78 34.7183 389.97 32.1483C389.61 31.6283 389.27 31.0983 388.66 30.1783C388.29 31.1083 387.9 31.6483 387.89 32.1883C387.87 33.4883 387.97 34.7983 388.13 36.0883C388.25 37.0983 389.12 38.1283 388.43 39.1083C387.54 40.3783 386.53 41.6183 385.37 42.6283C384.22 43.6283 382.43 43.2083 381.62 41.8883C380.87 40.6483 380.34 39.3183 380.45 37.8083C380.72 34.2783 380.87 30.7383 381.22 27.2283C381.57 23.7083 382.08 20.1983 382.58 16.6983C382.71 15.8083 382.92 14.8283 383.43 14.1283C384.96 12.0083 386.53 9.90833 388.31 7.99833C389.98 6.21833 390.98 6.51833 392.03 8.86833C392.56 10.0583 392.98 11.3083 393.39 12.5483C395.09 17.6883 397.53 22.4583 400.48 26.9683C401.11 27.9283 401.6 29.0683 403.22 29.3683C403.69 28.3883 404.24 27.3783 404.67 26.3183C405.69 23.7583 406.61 21.1683 407.64 18.6083C409.23 14.6483 411.81 11.3583 414.87 8.42832C415.15 8.15832 415.45 7.89834 415.77 7.66834C416.59 7.09834 417.63 7.38835 418.01 8.38835C418.48 9.60835 418.9 10.8583 419.19 12.1283C420.98 19.8283 423.67 27.1983 427.52 34.1083C428.66 36.1583 430.04 38.0783 431.42 40.2183C431.41 41.8783 430.57 43.2283 429.03 44.2483C427.84 45.0483 426.74 45.9883 425.58 46.8383C424.07 47.9483 423.12 47.8983 421.82 46.4683C419.59 44.0283 417.88 41.2183 416.61 38.1783C415.14 34.6783 413.84 31.1083 412.47 27.5683C412.27 26.9883 412.03 26.4083 411.55 25.1883Z" fill="#0DFF9D"/>
<path d="M588.81 35.0591C589.18 33.0491 589.07 31.3792 588.81 29.7292C588.38 26.9792 588.28 24.3391 589.73 21.7391C590.54 20.2891 590.64 18.4592 591.28 16.8892C591.87 15.4492 592.66 14.0691 593.56 12.7991C593.93 12.2791 594.8 12.1091 595.77 11.6191C596.1 13.2191 596.42 14.4592 596.61 15.7292C597.31 20.5192 597.88 25.3391 598.67 30.1191C599.16 33.0891 599.82 36.0392 600.66 38.9192C601.36 41.3192 600.93 43.1492 599.19 44.9792C597.8 46.4292 596.16 47.4491 594.59 48.6091C593.06 49.7391 591.52 49.6491 590.29 48.4691C588.44 46.7091 586.15 45.7391 584.05 44.4291C583.83 44.2891 583.6 44.1491 583.36 44.0491C576.38 40.9391 570.1 36.6991 564.08 32.0591C563.79 31.8291 563.4 31.7391 563.08 31.5891C562.15 31.9591 562.47 32.6891 562.51 33.2691C562.57 34.0491 562.76 34.8191 562.9 35.5891C563.14 36.8491 563.86 38.1192 563.06 39.3892C562.07 40.9492 560.93 42.3991 559.18 43.1791C558.01 43.6991 556.8 44.0991 555.68 44.5291C554.24 43.9491 554.12 42.7091 553.93 41.5591C552.95 35.8891 552 30.2091 551.07 24.5191C550.9 23.4891 550.78 22.4291 550.85 21.3991C550.9 20.6591 551.14 19.7891 551.61 19.2391C553.3 17.2491 555.07 15.3091 556.93 13.4691C558.12 12.2891 559.07 12.3592 560.41 13.3892C560.82 13.7092 561.24 14.0491 561.57 14.4391C563.6 16.8891 566.18 18.6991 568.67 20.6191C570.75 22.2091 572.66 24.0191 574.77 25.5791C578.66 28.4691 582.62 31.2492 586.58 34.0392C587.17 34.4492 587.92 34.6591 588.81 35.0591Z" fill="#0DFF9D"/>
<path d="M500.029 22.7678C498.839 22.2378 497.529 21.6678 496.239 21.0578C492.069 19.1178 485.939 21.0478 483.049 23.7878C481.489 25.2678 481.279 28.1778 482.499 30.3678C483.349 31.8878 484.519 33.1878 486.059 33.9578C487.919 34.8878 489.849 35.7978 491.849 36.3078C497.239 37.6778 502.709 38.0178 508.399 36.5378C510.909 32.6278 513.449 28.4878 518.009 25.7578C518.309 26.3778 518.729 26.8778 518.769 27.3978C518.809 28.0278 518.569 28.6878 518.359 29.3078C517.159 32.8378 517.569 36.3178 518.809 39.7178C519.789 42.4178 520.939 45.0578 522.059 47.8278C520.739 51.5978 517.669 53.7478 514.549 55.8378C511.779 53.6278 511.779 53.6278 507.719 41.3478C505.749 42.1278 504.099 43.3878 502.379 44.5578C501.319 45.2778 500.139 46.1578 498.939 46.2878C493.729 46.8678 488.479 47.3578 483.359 45.6278C480.479 44.6578 477.779 43.4078 475.669 41.0878C472.609 37.7078 471.949 33.9778 473.889 29.8478C474.389 28.7878 474.969 27.7478 475.639 26.7778C478.349 22.8778 481.559 19.4278 485.239 16.4278C487.599 14.5078 490.249 13.1078 493.069 11.9778C495.569 10.9778 498.159 10.8078 500.799 10.9178C503.319 11.0178 505.269 12.2678 506.959 14.0078C507.769 14.8378 507.889 15.7978 507.399 16.8978C506.729 18.4078 505.619 19.4878 504.269 20.3278C502.959 21.1478 501.579 21.8878 500.029 22.7678Z" fill="#0DFF9D"/>
<path d="M434.871 37.6586C433.031 36.8686 430.981 37.2286 430.141 35.0986C431.491 32.2086 433.481 29.6286 436.021 27.5486C436.851 26.8686 438.141 26.7386 439.511 26.2586C440.981 22.7986 442.321 18.9786 443.121 14.9986C444.081 10.2186 447.051 6.8186 450.481 3.6686C450.671 3.4886 450.881 3.3286 451.111 3.1986C451.971 2.6586 452.891 2.9786 453.331 4.0086C453.641 4.7286 453.911 5.4786 454.121 6.2286C457.251 17.3686 462.571 27.3986 469.601 36.5486C470.401 37.5886 471.141 38.6786 471.881 39.7586C472.621 40.8286 472.731 41.9786 472.021 43.0886C470.251 45.8786 468.081 48.2686 465.301 49.9086C463.801 49.5986 463.341 48.4586 462.671 47.4986C460.061 43.7286 457.421 39.9886 454.761 36.1786C452.531 36.7186 450.561 37.3886 448.541 37.6386C446.471 37.8986 444.361 37.7386 442.351 37.7686C440.521 39.5486 438.851 41.2086 437.131 42.8186C436.491 43.4186 435.791 44.2486 434.761 43.5686C433.841 42.9486 434.051 41.9486 434.201 41.0486C434.371 40.0186 434.601 39.0086 434.871 37.6586ZM450.091 28.1686C449.421 25.8586 448.951 24.1486 447.591 22.5286C446.541 24.2386 445.441 25.6486 446.011 27.8386C447.231 27.9286 448.351 28.0186 450.091 28.1686Z" fill="#0DFF9D"/>
<path d="M655.73 49.8693C654.19 52.9493 653.77 53.2993 647.48 56.4793C645.99 56.2593 645.36 55.0993 644.97 53.8393C644.2 51.3393 643.531 48.7993 642.831 46.2793C642.491 45.0493 642.181 43.7993 641.781 42.2593C639.861 43.2193 638.18 43.9293 636.63 44.8593C634.51 46.1293 632.37 46.7193 629.89 46.1893C627.08 45.5893 624.18 45.8793 621.32 45.2693C617.24 44.3993 614.39 42.0693 612.6 38.5793C610.31 34.1193 610.14 29.3593 612.86 25.0293C616.63 19.0293 621.69 14.3393 628.37 11.6193C634.94 8.93928 640.39 11.2793 644.22 15.0893C644.66 15.5293 644.92 16.1593 645.36 16.8593C644.33 17.7993 643.42 18.7393 642.39 19.5093C641.56 20.1293 640.64 20.4493 639.45 20.1393C637.06 19.5193 634.61 19.3093 632.22 18.4893C628.64 17.2693 625.23 18.5193 622.05 20.2193C620.87 20.8493 620.16 22.0593 619.91 23.3993C619.06 27.8993 620.22 31.7793 623.89 34.6093C625.2 35.6193 626.83 36.3593 628.43 36.8393C632.01 37.9093 636.71 37.9693 641.11 37.2693C641.98 33.1393 645.13 30.5293 648.1 27.7993C648.58 27.3593 649.1 26.8993 649.68 26.6493C650.23 26.4193 650.99 26.1993 651.47 26.4093C652.39 26.7993 652.201 27.6993 651.841 28.4293C651.041 30.0693 651.22 31.7793 651.5 33.4493C652.07 36.8093 652.651 40.1693 653.461 43.4793C654.011 45.6293 654.95 47.6693 655.73 49.8693Z" fill="#0DFF9D"/>
<path d="M364.26 10.3887C364.71 11.0487 365.33 11.5887 365.51 12.2487C366.48 15.7887 367.35 19.3487 368.23 22.9087C368.95 25.8387 369.62 28.7687 370.35 31.6987C371.23 35.2787 372.38 38.7387 374.98 41.5687C374.37 43.5987 372.84 44.6387 371.25 45.4987C370 46.1787 368.61 46.6187 367.25 47.0987C366.13 47.4987 365.19 47.1887 364.53 46.1487C363.98 45.2687 363.49 44.3187 363.17 43.3387C362.38 40.9787 361.66 38.5987 360.98 36.1987C359.7 31.6687 358.54 27.0987 357.17 22.5887C356.55 20.5187 356.73 18.7486 358.03 17.0486C358.9 15.9086 359.69 14.6987 360.54 13.5287C361.48 12.2587 362.58 11.1687 364.26 10.3887Z" fill="#0DFF9D"/>
<path d="M548.059 38.479C547.719 40.009 547.149 41.099 545.899 41.839C544.339 42.769 542.889 43.889 541.369 44.899C540.239 45.649 539.109 45.419 538.349 44.199C537.519 42.869 536.739 41.499 536.059 40.079C533.849 35.479 531.609 30.889 530.199 25.939C529.419 23.189 529.769 20.789 531.709 18.619C533.459 16.679 534.819 14.369 537.049 12.889C537.449 12.619 538.069 12.379 538.459 12.509C538.829 12.639 539.289 13.279 539.269 13.669C538.909 19.319 541.659 24.079 543.699 29.009C544.989 32.159 546.539 35.209 548.059 38.479Z" fill="#0DFF9D"/>
<path d="M317.64 201.689C319.82 205.479 321.71 208.749 323.59 212.019C322.28 215.489 321.18 216.859 316.87 220.419C315.63 220.449 315.05 219.479 314.55 218.609C312.44 214.989 310.33 211.359 308.39 207.649C307.24 205.449 306.22 203.209 304.22 201.629C304.75 197.889 303.41 194.589 302.57 191.159C300.72 192.189 295.53 197.239 293.53 199.949C295.46 203.969 299.73 206.209 301.81 210.109C301.1 213.389 298.58 215.229 296.55 217.419C295.85 218.179 295.05 218.919 293.66 218.659C289.59 213.889 285.43 209.019 281.06 203.909C276.64 204.399 271.99 204.929 267.35 205.439C266.27 206.999 265.36 208.769 264.03 210.119C262.68 211.479 261.89 213.479 259.95 214.119C258.72 213.889 258.43 212.979 258.25 212.079C257.8 209.869 257.77 207.649 258.24 205.439C258.46 204.399 258.63 203.439 257.67 202.549C257 201.929 257.31 201.059 257.77 200.389C258.8 198.869 259.9 197.399 260.94 195.889C261.98 194.379 263.04 192.889 263.98 191.319C266.8 186.599 269.31 181.659 273.17 177.639C274.44 176.319 275.78 175.059 277.19 173.899C278.26 173.019 279.56 173.359 280.09 174.659C280.64 175.979 281.02 177.379 281.38 178.769C282.58 183.459 285.96 190.209 289.03 193.829C291.42 193.589 293.84 193.079 296.19 192.259C298.11 191.589 299.65 190.399 300.82 188.759C302.11 186.949 302.82 184.869 303.88 182.699C301.94 182.119 300.25 182.339 298.59 182.309C296.91 182.279 295.23 182.299 293.42 182.299C293.35 182.029 293.08 181.579 293.2 181.339C294.41 179.029 295.5 176.659 297.45 174.819C298.86 173.489 300.45 172.749 302.39 172.769C303.7 172.779 305.03 172.639 306.32 172.809C313.21 173.709 320.08 174.759 326.68 177.009C329.39 177.939 332.03 179.129 334.27 181.039C336.23 182.699 336.73 184.669 335.88 187.029C335.17 189.009 334.38 190.929 332.83 192.459C331.71 193.559 330.8 194.869 329.7 195.989C327.93 197.789 325.91 199.149 323.37 199.739C321.6 200.189 319.91 200.919 317.64 201.689ZM327.5 190.729C324.69 186.859 317.63 183.869 311.65 184.009C311.37 187.599 312.55 190.749 314.2 193.909C318.87 193.169 323.41 193.079 327.5 190.729ZM272.13 186.449C270.11 188.859 268.79 191.099 268.33 193.939C270.77 195.129 273 195.939 275.77 195.149C275.53 194.359 275.41 193.719 275.16 193.149C274.22 191.019 273.25 188.919 272.13 186.449Z" fill="#0DFF9D"/>
<path d="M36.9302 185.539C35.5702 187.199 34.2702 188.619 33.1602 190.179C30.8202 193.459 27.6002 195.259 23.7702 196.169C21.8702 196.619 20.0002 197.159 17.9402 197.709C17.9902 198.639 17.8602 199.439 18.0902 200.109C19.2302 203.449 20.0102 206.929 21.9102 209.969C22.3702 210.709 22.3202 211.489 21.9302 212.219C20.6402 214.639 18.6402 216.259 16.0902 217.209C15.1002 217.579 14.2202 217.239 13.6402 216.459C13.1002 215.739 12.7102 214.879 12.3702 214.039C8.6402 204.729 5.9402 195.179 5.5702 185.079C5.5502 184.559 5.47021 184.029 5.48021 183.509C5.49021 182.009 4.5802 181.079 3.4502 180.359C2.8002 179.949 1.9902 179.789 1.2902 179.429C0.440205 178.989 0.0302055 178.009 0.330205 177.089C0.910205 175.319 1.8202 173.709 3.3202 172.569C3.9002 172.129 4.76021 171.989 5.51021 171.869C11.5502 170.909 17.5402 171.379 23.4702 172.719C25.7702 173.239 28.0502 173.879 30.2902 174.589C33.6402 175.649 36.5202 177.359 37.9202 180.759C39.2402 180.809 39.3902 179.699 39.9202 179.039C40.9902 177.709 41.9602 176.309 43.1002 175.059C43.4502 174.679 44.2602 174.539 44.8202 174.619C45.0802 174.649 45.4402 175.439 45.4402 175.879C45.4002 181.239 47.2302 186.179 48.7302 191.199C48.8402 191.559 49.1202 191.869 49.4502 192.409C52.2602 192.809 55.2002 192.739 58.1102 192.709C58.5602 191.069 57.7402 189.939 57.3402 188.719C56.4102 185.849 55.3802 183.029 55.1002 179.979C54.8102 176.829 55.3502 173.979 57.4002 171.509C58.6502 169.999 59.8902 168.479 61.2502 167.069C61.6002 166.699 62.3802 166.739 63.2102 166.529C63.2602 167.849 63.3702 168.879 63.3202 169.889C63.1502 173.239 63.9202 176.389 65.0802 179.489C67.9402 187.129 71.5802 194.389 75.5402 201.499C76.5002 203.219 77.3302 204.999 78.2302 206.749C79.1002 208.439 78.8702 210.069 77.8602 211.589C76.3002 213.919 74.1202 215.499 71.3802 216.789C69.6102 214.509 68.6902 211.889 67.2902 209.559C65.9502 207.319 64.6202 205.069 63.3302 202.879C59.5702 202.989 55.9602 203.089 52.0002 203.209C52.4602 204.609 52.8202 205.679 53.2102 206.869C53.2002 206.979 53.2102 207.249 53.1302 207.489C52.1002 210.559 49.4502 212.169 47.1302 214.059C46.2602 214.769 44.9702 214.449 44.5002 213.319C43.6802 211.399 42.9502 209.419 42.3802 207.409C41.4502 204.139 40.6802 200.809 39.8302 197.519C39.5702 196.509 39.2702 195.499 38.9702 194.499C38.2002 191.989 37.3502 189.509 37.4302 186.829C37.4702 186.509 37.2002 186.169 36.9302 185.539ZM14.0602 182.739C13.9502 185.119 14.2702 187.139 15.2302 188.999C17.7802 189.119 21.5602 188.439 24.8902 187.229C25.4102 187.039 26.2602 187.049 26.1902 186.109C22.1702 183.699 17.8502 182.459 14.0602 182.739Z" fill="#0DFF9D"/>
<path d="M100.81 180.959C101.36 180.649 101.49 180.599 101.58 180.509C104.95 177.049 103.85 177.209 109.84 177.529C111.27 177.609 112.68 177.969 114.11 178.219C115.14 178.399 116.16 178.609 117.2 178.759C119.74 179.129 122.18 179.099 124.04 176.909C124.18 176.749 124.52 176.769 124.81 176.689C125.96 177.009 125.36 178.309 126.28 179.179C130.13 180.579 134.54 179.239 139.07 180.059C138.71 181.159 138.63 182.299 138.04 182.999C136.53 184.779 134.84 186.439 133.1 187.999C132.58 188.469 131.65 188.539 130.89 188.649C129.75 188.819 128.58 188.859 127.64 188.939C126.63 190.179 127.14 191.219 127.43 192.169C128.7 196.299 130.06 200.409 131.38 204.529C131.66 205.399 131.88 206.309 132.25 207.139C133.51 209.989 132.99 212.539 130.91 214.749C129.59 216.159 128.6 217.939 126.86 218.809C125.47 218.519 125.19 217.399 124.85 216.459C123.45 212.509 122.12 208.529 120.79 204.559C119.45 200.579 118.12 196.599 117.79 192.369C117.71 191.339 117.49 190.319 117.32 189.169C115.52 188.369 113.75 188.519 111.71 188.879C111.96 189.859 112.1 190.719 112.4 191.539C114.05 196.129 113.1 200.159 110.35 204.139C105.7 210.849 99.3004 213.519 91.4104 213.019C87.6004 212.779 84.3604 211.379 82.1304 207.979C80.2204 205.049 79.3904 202.159 81.0004 198.799C81.5504 197.659 81.8404 196.279 81.8404 195.009C81.8404 193.609 82.2804 192.409 82.9104 191.289C84.8604 187.819 87.4004 184.849 90.7504 182.619C93.1304 181.039 95.6404 180.149 98.5504 180.739C99.3004 180.899 100.09 180.899 100.81 180.959ZM104.53 202.169C105.41 200.719 104.76 199.509 104.29 198.309C103.45 196.179 102.1 194.419 100.25 193.089C96.5004 190.379 92.5104 189.459 88.1904 191.479C86.5204 195.009 87.6804 197.719 90.1604 200.109C91.4204 201.329 92.9404 202.119 94.6104 202.529C97.9704 203.349 101.32 203.359 104.53 202.169Z" fill="#0DFF9D"/>
<path d="M238.9 203.049C241.29 204.639 243.81 205.179 246.3 205.809C246.68 205.909 247.09 205.859 247.47 205.919C250.33 206.399 253.08 207.099 255.09 209.809C253.9 211.299 252.75 213.029 251.3 214.479C249.95 215.829 248.16 216.249 246.2 215.919C242.59 215.309 238.97 214.789 235.3 214.229C233.08 216.689 231.21 219.349 228.5 221.439C227.97 220.819 227.45 220.399 227.18 219.849C226.49 218.439 225.88 216.989 225.31 215.519C224.55 213.569 224.17 211.399 223.06 209.689C221.81 207.779 223.09 205.819 222.31 203.989C221.96 203.159 221.92 202.199 221.68 201.319C220.27 196.239 219.64 191.039 219.5 185.779C219.49 185.269 219.31 184.769 219.22 184.289C214.92 183.999 215.01 184.049 216.98 180.339C219.1 176.369 222.54 174.539 226.76 174.079C230.96 173.619 235.11 174.189 239.24 175.069C243.51 175.969 247.52 177.489 251.31 179.629C252.32 180.199 253.33 180.849 254.19 181.629C256.14 183.379 256.7 185.509 255.73 188.029C254.88 190.249 253.96 192.389 252.17 194.059C251.31 194.859 250.58 195.799 249.78 196.669C248.15 198.429 246.23 199.719 243.97 200.589C242.33 201.219 240.48 201.569 238.9 203.049ZM247.28 191.819C247.04 190.429 245.99 189.619 244.95 188.869C241.15 186.139 236.7 185.039 232.24 183.999C231 183.709 229.69 183.339 228.3 184.339C228.27 184.999 228.06 185.799 228.22 186.499C229.11 190.249 229.43 194.169 231.05 197.709C236.47 196.609 244.95 193.519 247.28 191.819Z" fill="#0DFF9D"/>
<path d="M356.01 212.1C354.85 215.83 351.27 216.9 348.74 219.35C347.92 218.83 347.05 218.47 346.46 217.86C345.65 217.02 344.97 216.02 344.38 215.01C340.77 208.79 338.81 202.05 338.04 194.93C337.62 191.08 338.48 187.7 341.18 184.78C342.68 183.16 343.85 181.23 345.2 179.46C345.5 179.06 345.92 178.76 346.41 178.29C347.34 179.09 347.05 180.02 346.99 180.86C346.86 182.82 346.73 184.77 346.52 186.72C346.32 188.6 346.89 190.31 347.38 192.26C349.91 192.52 352.35 192.35 355.06 192.41C354.91 188.39 354.15 184.49 356.43 181.15C358.34 178.37 360.31 175.58 363.28 173.93C364.19 174.15 364.04 174.76 364.01 175.23C363.97 175.88 363.84 176.53 363.71 177.17C362.61 182.53 364.59 187.23 366.89 191.86C367.17 192.42 367.74 192.84 368.15 193.35C368.46 193.75 368.93 194.17 368.96 194.62C369.25 198.44 371.49 201.46 373.1 204.71C374.96 208.46 377.11 212.07 379.26 215.67C380.37 217.53 380.25 219.01 378.86 220.66C377.16 222.67 375.26 224.38 373 225.82C371.22 224.72 370.45 223.04 369.5 221.51C366.38 216.49 363.82 211.18 361.28 205.86C359.58 202.3 359.56 202.27 355.68 202.3C354.27 202.31 352.81 201.95 351.18 202.74C351.25 203.29 351.16 203.98 351.43 204.46C352.86 206.94 354.38 209.38 356.01 212.1Z" fill="#0DFF9D"/>
<path d="M204.88 202.93C205.27 200.59 205.31 198.46 206.77 196.75C208.6 194.6 209.84 191.89 212.4 190.53C213.37 190.86 213.38 191.56 213.38 192.19C213.39 193.63 213.36 195.07 213.3 196.51C213.04 202.14 213.89 207.49 217.38 212.26C216.29 215.63 213.78 217.98 211.49 220.44C211.19 220.76 210.18 220.77 209.71 220.52C209.06 220.17 208.44 219.53 208.11 218.87C207.15 216.87 206.29 214.82 205.48 212.75C205.11 211.79 204.95 210.75 204.73 209.84C203.79 209.38 203.38 210.01 202.93 210.42C201.32 211.92 199.27 212.58 197.23 212.86C192 213.58 186.75 213.73 181.78 211.47C180.25 210.77 178.68 209.96 177.43 208.86C173.32 205.27 172.01 200.35 174.39 195.34C177.17 189.47 181.18 184.43 186.93 181.08C190.8 178.82 195.04 178.22 199.45 178.82C200.09 178.91 200.76 179.03 201.35 179.27C204.41 180.54 204.87 182.48 202.68 185C202.18 185.58 201.54 186.06 200.93 186.53C200.52 186.85 199.83 186.97 199.63 187.36C198.21 190.23 196.22 189.57 193.76 188.8C190.59 187.81 187.27 188.01 184.19 189.58C181.98 190.71 181.4 191.94 181.9 194.4C182.27 196.25 183.04 197.92 184.56 199.09C185.69 199.97 186.85 200.9 188.15 201.46C193.44 203.78 198.89 204.63 204.88 202.93Z" fill="#0DFF9D"/>
<path d="M398.809 192.909C399.169 191.389 399.399 190.379 399.629 189.369C400.189 186.949 400.709 184.509 401.329 182.109C402.519 177.509 405.199 173.869 408.839 170.919C409.109 170.699 409.519 170.649 409.839 170.539C410.969 171.289 410.489 172.209 410.249 173.039C408.919 177.709 407.859 182.429 407.369 187.269C407.189 189.089 407.059 190.919 407.119 192.749C407.199 195.419 406.779 197.849 405.419 200.259C402.939 204.629 402.799 209.199 405.209 213.759C407.119 217.379 406.749 218.639 403.259 220.729C402.479 221.199 401.619 221.539 400.789 221.939C398.609 222.999 397.869 222.859 396.379 221.139C395.149 219.709 394.379 218.099 394.229 216.189C394.059 214.079 394.169 212.009 394.739 209.959C395.119 208.579 395.429 207.179 395.799 205.659C395.019 205.029 394.399 204.339 393.629 203.929C390.939 202.479 388.649 200.539 386.479 198.449C383.929 195.999 381.299 193.609 378.959 190.959C377.249 189.019 375.929 186.719 374.499 184.539C373.439 182.919 373.759 181.409 374.859 179.829C376.659 177.249 378.609 174.849 381.309 172.839C382.829 175.589 383.969 178.269 385.659 180.539C387.449 182.929 389.689 184.999 391.869 187.079C393.939 188.989 395.749 191.279 398.809 192.909Z" fill="#0DFF9D"/>
<path d="M154.64 181.33C159.3 181.12 163.28 182.74 167.08 184.84C168.07 185.38 168.95 186.32 169.58 187.28C172.62 191.86 173.27 196.81 170.99 201.83C169.24 205.68 166.39 208.8 163.09 211.45C159.32 214.49 154.8 215.25 150.16 215.16C147.71 215.11 145.17 214.72 142.85 213.94C136.52 211.81 133.7 205.11 136.28 198.94C136.43 198.58 136.58 198.21 136.78 197.87C138.84 194.39 140.93 190.93 142.97 187.44C145.65 182.9 149.67 181.02 154.64 181.33ZM163.92 203.91C164.9 198.09 161.97 192.38 154.71 191.3C152.4 190.96 150.01 191 147.67 191.11C145.43 191.22 143.86 192.92 143.64 195.18C143.3 198.61 144.43 201.37 147.55 203.07C148.57 203.63 149.66 204.13 150.78 204.43C154.5 205.44 158.27 205.48 162.03 204.66C162.65 204.53 163.23 204.19 163.92 203.91Z" fill="#0DFF9D"/>
<path d="M620.109 200.928C622.129 196.538 623.999 192.058 627.559 188.598C627.809 188.358 627.849 187.898 628.029 187.448C626.719 186.498 625.259 186.638 623.849 186.728C622.579 186.808 621.329 187.088 620.219 187.258C619.279 186.128 619.609 185.208 620.169 184.508C621.639 182.668 623.229 180.918 624.789 179.148C626.509 177.198 628.709 176.648 631.209 176.968C633.289 177.238 635.369 177.458 637.459 177.718C641.629 178.228 645.789 178.708 649.949 179.258C650.959 179.388 651.939 179.738 652.849 179.968C653.119 181.338 652.319 182.108 651.579 182.308C649.339 182.928 647.369 184.478 644.869 184.198C643.629 184.058 642.599 184.518 641.709 185.458C640.259 186.998 638.379 187.428 636.329 187.388C635.029 187.368 633.739 187.448 632.489 187.478C631.179 189.008 630.919 190.588 631.189 192.488C633.669 193.878 636.379 193.368 638.919 193.578C641.359 193.788 643.859 193.348 646.509 193.188C647.269 193.678 646.979 194.408 646.439 195.048C643.869 198.128 640.799 200.498 636.929 201.748C636.189 201.988 635.459 202.288 634.429 202.658C634.779 203.308 634.959 203.918 635.349 204.328C637.969 207.098 641.319 208.548 644.949 209.408C646.519 209.778 647.459 208.928 647.149 207.198C646.689 204.658 647.439 202.478 648.879 200.548C651.069 197.598 653.419 194.778 655.709 191.908C656.109 191.408 656.539 190.918 657.079 190.288C656.549 189.808 656.109 189.418 655.659 189.008C656.359 184.598 659.489 180.848 663.719 179.278C669.499 177.138 674.609 178.568 679.069 182.448C682.139 185.118 684.939 188.058 685.639 192.398C685.819 193.498 686.649 194.488 687.379 195.898C689.249 189.798 693.169 185.598 697.439 181.698C701.169 178.298 705.579 176.568 710.689 176.568C713.859 176.568 716.189 177.988 718.149 180.298C719.099 181.418 719.329 182.618 718.609 183.928C717.719 185.548 716.819 187.198 714.519 186.788C713.499 186.608 713.249 187.218 712.879 188.008C712.389 189.068 711.609 189.308 710.679 188.888C710.089 188.628 709.519 188.288 708.979 187.918C705.459 185.498 701.789 185.948 698.089 187.388C697.009 187.808 696.489 188.688 696.389 189.828C696.229 191.688 696.349 193.498 697.259 195.188C700.259 200.798 704.689 204.248 711.259 204.488C713.489 204.568 715.689 204.438 718.089 203.938C718.489 201.718 718.579 199.458 719.359 197.468C720.109 195.568 721.619 193.968 722.729 192.198C723.929 190.288 725.429 188.768 727.699 187.668C728.609 189.598 727.659 191.268 727.819 192.888C727.969 194.448 727.829 196.048 728.029 197.608C728.249 199.288 728.669 200.958 729.109 202.598C729.539 204.248 730.119 205.858 730.609 207.488C731.059 208.998 731.409 210.538 731.929 212.018C732.489 213.608 733.199 215.158 733.849 216.758C732.519 219.938 730.029 222.068 727.539 224.168C727.209 224.448 726.169 224.318 725.779 223.998C725.099 223.438 724.509 222.638 724.179 221.818C723.359 219.748 722.719 217.608 721.989 215.508C721.229 213.288 720.449 211.078 719.649 208.758C717.789 208.908 716.899 210.198 715.979 211.158C714.489 212.708 712.769 213.338 710.719 213.368C708.229 213.398 705.749 213.498 703.259 213.428C695.789 213.208 691.269 208.898 688.339 202.468C688.119 201.988 687.989 201.478 687.829 200.978C687.679 200.488 687.549 199.988 687.269 198.998C686.119 203.348 683.819 206.528 681.489 209.698C678.189 214.198 673.809 216.258 668.259 215.878C667.349 215.818 666.419 215.838 665.509 215.868C660.829 216.028 656.389 215.058 652.149 213.108C651.679 212.888 651.189 212.728 650.639 212.508C649.149 213.218 648.199 214.528 647.209 215.688C644.109 219.298 640.289 219.578 636.109 218.338C629.359 216.338 624.799 211.958 622.209 205.438C621.659 204.038 620.929 202.668 620.109 200.928ZM678.709 205.328C679.299 203.488 679.069 201.598 678.469 199.688C677.139 195.488 674.319 192.458 670.799 190.038C669.169 188.918 667.229 188.368 665.259 188.268C664.559 188.228 663.599 188.478 663.139 188.958C660.789 191.408 658.529 193.968 656.289 196.528C655.329 197.628 655.319 198.858 656.009 200.168C656.839 201.748 658.109 202.818 659.649 203.618C662.819 205.268 666.199 206.328 669.769 206.468C672.729 206.588 675.799 207.198 678.709 205.328Z" fill="#0DFF9D"/>
<path d="M778.35 204.059C778.46 203.669 778.46 203.499 778.54 203.419C780.95 200.959 781.81 197.839 782.39 194.579C782.6 193.419 783 192.299 783.26 191.149C784.68 184.939 788.45 180.409 793.37 176.609C794.93 175.399 796.65 175.299 798 177.379C798.71 178.479 799.31 179.649 799.94 180.799C802.06 184.729 804.3 188.579 807.2 191.999C807.87 192.789 808.63 193.509 809.42 194.339C813.72 193.729 817.43 191.819 820.98 189.599C821.69 189.149 822.22 188.259 822.6 187.469C823.16 186.299 823.52 185.039 824.06 183.579C823.55 183.139 822.77 182.759 822.47 182.139C822.27 181.719 822.6 180.879 822.93 180.389C823.51 179.539 823.56 178.849 823.18 177.859C822.68 176.599 823.23 175.349 824.46 175.079C828.12 174.259 831.73 172.769 835.63 173.989C837.5 174.579 839.44 174.959 841.37 175.309C845.87 176.109 849.71 178.299 853.45 180.749C853.67 180.889 853.87 181.069 854.09 181.209C857.78 183.549 857.34 187.329 855.45 189.749C852.55 193.479 849.16 196.819 844.51 198.429C842.53 199.109 840.53 199.739 838.56 200.439C837.85 200.689 837.19 201.099 836.42 201.479C837.28 205.009 839.02 207.909 841.09 210.619C842.29 212.179 843.61 213.639 844.83 215.179C845.77 216.369 845.73 217.209 844.75 218.339C842.89 220.489 840.44 221.719 837.83 222.669C836.87 223.019 835.96 222.699 835.34 221.959C833.74 220.059 832.01 218.229 830.71 216.139C828.98 213.369 827.38 210.489 826.48 207.299C826.44 207.169 826.38 207.059 826.35 206.929C825.7 204.599 823.65 202.949 823.76 200.119C823.86 197.719 822.82 195.279 822.28 192.849C822.25 192.729 822.14 192.629 822.06 192.519C819.62 192.939 816.53 195.289 813.91 198.769C815.48 202.149 818.84 203.999 821.23 206.749C820.7 209.069 818.72 210.119 817.38 211.639C817.05 212.019 816.45 212.159 816.09 212.529C813.03 215.719 812.38 214.619 809.67 212.179C807.33 210.079 805.15 207.799 802.92 205.579C802.15 204.819 801.35 204.189 800.17 204.359C796.29 204.929 792.41 205.499 788.25 206.109C786.83 210.419 785.4 214.959 780.96 217.369C779.71 217.199 779.21 216.359 779.19 215.439C779.14 213.619 779.17 211.769 779.43 209.979C779.9 206.769 779.98 206.779 778.35 204.059ZM831.32 184.319C831.52 187.779 832.11 190.839 833.34 193.749C833.47 194.049 833.91 194.219 834.17 194.419C841.33 192.789 843.47 192.069 845.98 190.429C843.13 187.089 836.98 184.449 831.32 184.319ZM790.86 190.119C790.16 192.379 789.18 193.949 789.74 195.959C791.36 196.329 792.85 196.529 794.62 195.789C793.75 193.749 792.95 191.889 790.86 190.119Z" fill="#0DFF9D"/>
<path d="M736.16 183.949C735.32 183.809 734.58 183.679 733.57 183.509C733.74 182.849 733.82 182.239 734.07 181.699C734.34 181.109 734.84 180.619 735.09 180.029C737.02 175.419 740.94 174.169 745.34 174.489C751.88 174.959 758.35 176.159 764.35 178.969C766.46 179.949 768.5 181.249 770.26 182.749C773.9 185.839 774.32 190.459 771.45 194.339C769.1 197.529 766.22 200.179 762.7 202.079C762.14 202.379 761.62 202.749 760.71 203.329C761.45 203.719 761.82 204.039 762.23 204.099C764.68 204.449 767.14 204.749 769.56 205.059C770.15 206.659 769.26 207.599 768.42 208.259C766.38 209.859 764.27 211.429 762.01 212.669C760.96 213.249 759.48 213.139 758.19 213.199C756.5 213.279 754.81 213.219 752.84 213.219C753 213.959 753.02 214.599 753.27 215.129C753.89 216.419 754.61 217.669 755.25 218.849C754.13 221.659 754.13 221.659 747.69 226.309C747.07 225.819 746.22 225.409 745.74 224.729C743.69 221.839 741.91 218.789 740.79 215.389C739.67 211.999 739.66 211.999 737.16 209.929C737.25 209.519 737.24 208.949 737.5 208.559C738.3 207.359 738.29 206.129 737.94 204.809C737.36 202.659 736.85 200.489 736.32 198.339C735.12 193.589 734.69 188.819 736.16 183.949ZM745.19 184.679C744.79 189.829 746.38 197.059 748.56 200.339C753.13 199.469 757.62 198.029 762.09 196.559C762.79 196.329 763.38 195.749 764.09 195.289C763.95 194.659 763.91 194.129 763.71 193.679C762.81 191.679 761.2 190.339 759.4 189.219C756.03 187.119 752.3 185.849 748.49 184.869C747.5 184.629 746.44 184.749 745.19 184.679Z" fill="#0DFF9D"/>
<path d="M870.419 176.66C869.939 180.2 869.339 183.41 869.109 186.65C868.869 189.92 869.389 193.17 870.239 196.57C873.739 197.66 877.329 197.8 880.869 197.92C881.699 196.29 880.859 195.06 880.369 193.96C878.769 190.38 878.639 186.58 878.399 182.79C878.279 180.86 878.729 179.19 880.169 177.78C881.859 176.14 883.429 174.38 885.099 172.72C885.429 172.39 885.969 172.26 886.469 172C887.709 173.05 887.689 174.37 887.809 175.65C887.989 177.6 888.099 179.57 888.419 181.51C889.379 187.25 891.729 192.56 893.799 197.93C895.919 203.43 898.339 208.82 900.609 214.27C900.859 214.87 901.019 215.5 901.239 216.18C899.529 219.14 896.899 220.63 893.499 221.33C891.659 220.71 890.379 219.29 889.529 217.44C888.439 215.06 887.419 212.64 886.359 210.24C885.939 209.3 885.489 208.37 884.979 207.26C883.089 207.4 881.279 207.67 879.489 207.62C877.709 207.57 875.929 207.15 873.939 207.63C874.459 210.23 876.059 211.85 877.189 213.76C876.699 215.28 875.549 216.15 874.239 216.74C872.479 217.53 870.659 218.21 868.819 218.82C867.899 219.13 866.949 218.86 866.369 218C865.569 216.8 864.759 215.59 864.149 214.3C863.419 212.76 862.889 211.13 862.299 209.54C861.749 208.07 861.309 206.54 860.149 205.96C860.059 203.39 860.129 201.18 859.859 199.01C859.509 196.11 859.559 193.26 860.049 190.39C860.349 188.66 860.969 187.1 861.989 185.71C863.689 183.38 865.439 181.09 867.209 178.82C867.769 178.1 868.459 177.48 869.129 176.87C869.269 176.7 869.599 176.76 870.419 176.66Z" fill="#0DFF9D"/>
<path d="M594.43 211.62C591.78 211.12 590.66 213.58 588.4 214.11C587.97 213.73 587.25 213.34 586.88 212.73C585.59 210.6 584.37 208.42 583.2 206.22C581.6 203.21 580.06 200.17 578.52 197.13C577.03 194.18 575.82 191.16 575.64 187.79C575.6 187.03 575.29 186.28 575.07 185.37C577.19 183.35 579.37 181.34 581.48 179.24C582.96 177.77 584.6 177.49 586.52 178.13C587.51 178.46 588.55 178.66 589.54 179C595.5 181.11 601.13 183.93 606.42 187.38C609.89 189.63 612.52 192.77 614.79 196.15C616.83 199.19 616.42 202.52 614.41 205.41C610.86 210.52 606.44 214.49 599.82 215.04C598.51 215.15 597.21 215.39 595.91 215.44C594.5 215.5 593.94 214.73 594.11 213.12C594.17 212.65 594.31 212.18 594.43 211.62ZM589.09 191.43C590.79 196.04 592.79 199.83 594.65 203.69C595.15 204.73 595.6 205.86 596.85 206.44C600.11 206.38 603.47 206.46 606.59 204.95C604.67 199.96 596.31 193.38 589.09 191.43Z" fill="#0DFF9D"/>
<path d="M931.3 220.4C928.87 222.55 925.95 223.01 923.27 223.95C922.53 224.21 921.53 223.73 920.74 223.61C919.35 221.39 918.75 219.17 918.63 216.75C918.4 212.3 918.01 207.86 917.67 203.09C916.92 202.55 915.99 201.84 915.03 201.18C909.56 197.47 904.7 193.1 900.67 187.85C899.56 186.41 898.71 184.76 897.81 183.17C897.08 181.88 897.29 180.57 898.28 179.53C900.45 177.27 902.32 174.7 905.01 173.12C906.43 173.14 906.88 174.09 907.28 175.09C910.04 182 915.66 186.34 921.32 190.63C921.49 190.76 921.81 190.69 922.11 190.72C922.25 190.56 922.51 190.4 922.58 190.19C923.5 187.18 924.4 184.17 925.28 181.15C926.27 177.76 926.62 174.19 928.13 170.94C929.86 167.24 932.8 164.82 936.32 162.85C937.26 163.98 937 165.03 936.76 165.99C934.48 175.14 932.17 184.28 929.86 193.42C927.57 197.16 928.26 201.3 928.36 205.33C928.44 208.2 928.69 211.09 929.21 213.91C929.62 216.03 930.54 218.07 931.3 220.4Z" fill="#0DFF9D"/>
<path d="M536.62 203.77C537.3 200.82 537.92 198.69 538.26 196.51C539.02 191.72 539.86 186.93 539.45 182.03C539.4 181.39 539.32 180.61 539.61 180.11C541.31 177.19 542.84 174.08 546.13 172.53C546.34 172.43 546.64 172.52 546.87 172.52C548.11 173.47 548.13 174.85 548.05 176.13C547.85 179.53 547.69 182.95 547.18 186.31C546.16 192.92 544.88 199.48 543.79 206.08C543.44 208.21 542.77 210.11 541.22 211.67C539.56 213.34 537.97 215.09 536.32 216.77C535.45 217.66 534.43 217.52 533.41 217.02C531.01 215.85 529.01 214.14 527.28 212.16C525.55 210.19 523.98 208.09 522.38 206.01C518.63 201.1 515.28 195.94 512.53 190.4C511.67 188.68 511.55 187.22 512.87 185.72C514.51 183.85 516.02 181.86 517.72 180.06C518.72 179 519.83 179.31 520.59 180.64C520.85 181.09 521.04 181.59 521.25 182.07C524.4 189.08 528.97 195.15 533.82 201.04C534.47 201.8 535.27 202.45 536.62 203.77Z" fill="#0DFF9D"/>
<path d="M563.48 215.08C561.9 214.12 561.66 212.91 561.29 211.82C559.52 206.62 557.69 201.43 556.16 196.16C555.51 193.94 555.48 191.52 555.32 189.18C555.18 187.15 555.79 185.29 557.23 183.78C558.58 182.36 559.9 180.91 561.34 179.6C561.85 179.14 562.71 179.08 563.6 178.76C563.8 179.77 564.03 180.51 564.07 181.25C564.29 185.61 565.42 189.76 566.76 193.88C568.02 197.74 569.07 201.66 570.35 205.5C571.11 207.8 570.48 209.66 568.86 211.19C567.25 212.71 565.47 214.05 563.48 215.08Z" fill="#0DFF9D"/>
<path d="M487.571 204.85C488.181 206.03 487.711 206.89 486.951 207.4C485.341 208.49 484.071 210.13 482.041 210.55C481.911 210.58 481.781 210.63 481.681 210.71C478.021 213.53 473.701 213.63 469.351 213.92C463.171 214.32 457.021 214.42 450.881 213.69C449.061 213.47 447.261 213.11 445.471 212.71C444.711 212.54 443.951 212.23 443.301 211.82C439.151 209.17 439.011 207.29 441.391 203.78C444.081 199.81 447.471 196.57 451.841 194.47C452.631 194.09 453.391 193.64 454.251 193.17C453.441 192.04 452.421 192.45 451.601 192.27C450.711 192.08 449.791 191.95 448.871 191.91C444.321 191.7 444.331 189.63 446.131 186.56C447.831 183.65 450.421 181.59 453.591 180.44C456.551 179.37 459.561 178.44 462.591 177.6C467.521 176.24 472.471 175 477.431 173.73C478.311 173.5 479.231 173.26 480.131 173.29C480.681 173.31 481.431 173.7 481.701 174.16C481.971 174.62 481.911 175.43 481.691 175.97C481.461 176.55 480.921 177.02 480.471 177.49C478.831 179.21 476.911 180.55 474.921 181.83C473.631 182.65 472.231 182.74 470.781 182.86C467.781 183.1 464.781 183.42 461.781 183.73C460.881 183.82 460.061 184.13 458.891 184.99C464.031 185.2 468.581 185.97 473.181 185.26C473.951 185.14 474.821 185.08 475.511 185.34C476.161 185.59 476.831 186.22 477.101 186.86C477.291 187.29 476.991 188.17 476.621 188.58C475.471 189.83 474.281 191.09 472.921 192.09C470.711 193.72 468.441 195.11 465.621 195.75C461.291 196.73 457.071 198.22 452.811 199.53C451.571 199.91 450.271 200.23 449.261 201.6C449.971 202.14 450.581 202.92 451.351 203.14C453.741 203.81 456.171 204.51 458.621 204.74C466.221 205.44 473.831 205.14 481.441 204.8C483.491 204.7 485.591 204.42 487.571 204.85Z" fill="#0DFF9D"/>
<path d="M487.501 226.83C487.391 228.57 486.521 229.7 484.921 230.4C483.011 231.23 481.141 232.16 479.261 233.06C478.241 233.55 477.271 233.43 476.251 232.99C473.491 231.82 471.321 230.09 470.151 227.24C469.611 225.91 469.651 224.67 470.531 223.54C472.321 221.28 474.201 219.1 476.641 217.5C477.571 216.88 478.531 217.07 478.871 218.12C479.841 221.07 482.021 222.83 484.511 224.39C485.601 225.06 486.901 225.52 487.501 226.83Z" fill="#0DFF9D"/>
<path d="M461.01 169.499C460.45 171.929 458.81 172.839 457.25 173.759C456.25 174.349 455.07 174.629 454.05 175.199C452.41 176.119 450.96 175.629 449.7 174.619C448.7 173.819 447.81 172.799 447.09 171.739C445.68 169.649 445.76 168.369 447.49 166.489C449.25 164.579 451.14 162.769 453.05 161.009C453.79 160.319 454.95 160.619 455.3 161.609C456.15 164.039 457.84 165.829 459.52 167.659C460.04 168.229 460.5 168.859 461.01 169.499Z" fill="#0DFF9D"/>
</svg>
