<svg width="34" height="12" viewBox="0 0 34 12" fill="none" xmlns="http://www.w3.org/2000/svg">
<path d="M8.66998 6.73001L8.10999 11.15H5.02997L5.62 6.56C5.64 6.44 5.64001 6.33999 5.64001 6.23999C5.64001 5.67999 5.38 5.37 4.81 5.37C4.13 5.37 3.79 6.06998 3.69 6.38998L3.08002 11.15H0L1.04999 2.94H3.94V4.09C4.28 3.67 5.00998 2.75 6.53998 2.75C8.06998 2.75 8.83002 3.75 8.83002 5.03C8.84002 5.62 8.71998 6.30001 8.66998 6.73001Z" fill="none" stroke="#0DFF9A" stroke-width="0.25" stroke-miterlimit="10"/>
<path d="M16.0804 7.58023C15.2304 8.00023 13.9604 8.17023 12.6804 8.17023C12.6804 8.59023 13.0203 9.10025 14.0403 9.10025C15.0603 9.10025 16.0804 8.56023 16.3304 8.39023L17.2004 10.1902C16.5204 10.7802 15.1404 11.3302 13.4404 11.3302C11.7404 11.3302 9.61035 10.5503 9.61035 7.57025C9.61035 4.59025 11.8203 2.74023 14.2803 2.74023C16.7403 2.74023 17.6104 4.00023 17.6104 5.27023C17.6304 6.56023 16.9304 7.15023 16.0804 7.58023ZM13.9904 4.79025C13.6504 4.79025 12.8204 5.11024 12.7104 6.46024C12.7104 6.46024 13.4104 6.39025 13.8204 6.29025C14.2304 6.19025 14.7203 5.97024 14.7203 5.46024C14.7203 4.95024 14.3304 4.79025 13.9904 4.79025Z" fill="none" stroke="#0DFF9A" stroke-width="0.25" stroke-miterlimit="10"/>
<path d="M24.0204 6.99945L26.0604 11.1494H22.7303L21.9004 8.61945L20.3904 11.1494H17.1104L20.2704 6.99945L18.3104 2.93945H21.6204L22.3704 5.38943L23.6603 2.93945H26.9404L24.0204 6.99945Z" fill="none" stroke="#0DFF9A" stroke-width="0.25" stroke-miterlimit="10"/>
<path d="M32.6599 5.13H30.9299L30.6199 7.48999C30.5699 7.82999 30.5399 8.07998 30.5399 8.41998C30.5399 8.75998 30.6599 8.91 31.1699 8.91C31.6799 8.91 32.0699 8.82999 32.0699 8.82999V10.97C31.8299 11.09 30.8799 11.33 29.6099 11.33C28.3399 11.33 27.3699 10.72 27.3699 9.44C27.3699 9.02 27.4199 8.51 27.4899 8L27.8699 5.13H26.8799L27.1699 2.94H28.1699L28.7499 1H31.4899L31.2399 2.94H32.9698L32.6599 5.13Z" fill="none" stroke="#0DFF9A" stroke-width="0.25" stroke-miterlimit="10"/>
</svg>
