<svg width="66" height="16" viewBox="0 0 66 16" fill="none" xmlns="http://www.w3.org/2000/svg">
<path d="M6.67999 12.9491C5.06999 12.9491 4.54004 11.7791 4.54004 11.7791L4.08002 15.5191H1L2.39001 4.55914H5.28003V5.62915C5.28003 5.62915 6.08003 4.36914 7.78003 4.36914C9.48003 4.36914 10.58 5.57912 10.58 8.03912C10.58 10.4991 9.13999 12.9491 6.67999 12.9491ZM6.42004 6.74915C5.57004 6.74915 4.87 7.74913 4.87 9.10913C4.87 9.86913 5.16004 10.5391 5.92004 10.5391C6.77004 10.5391 7.47003 9.53914 7.47003 8.17914C7.47003 7.40914 7.19004 6.74915 6.42004 6.74915Z" fill="#0DFF9A" stroke="#0DFF9A" stroke-width="0.25" stroke-miterlimit="10"/>
<path d="M17.2996 7.49939C17.2996 7.49939 16.8796 7.32938 16.4496 7.32938C16.0196 7.32938 15.6996 7.42939 15.3496 7.74939C14.9996 8.06939 14.8396 8.44938 14.6696 8.86938L14.1796 12.7594H11.0996L12.1496 4.54938H15.0396V5.78937C15.4596 4.93937 16.1996 4.35938 16.9596 4.35938C17.7196 4.35938 17.9796 4.66937 17.9796 4.66937L17.2996 7.49939Z" fill="#0DFF9A" stroke="#0DFF9A" stroke-width="0.25" stroke-miterlimit="10"/>
<path d="M24.0303 9.19937C23.1803 9.61937 21.9103 9.78937 20.6303 9.78937C20.6303 10.2094 20.9704 10.7194 21.9904 10.7194C23.0104 10.7194 24.0303 10.1794 24.2803 10.0094L25.1503 11.8094C24.4703 12.3994 23.0903 12.9494 21.3903 12.9494C19.6903 12.9494 17.5703 12.1694 17.5703 9.18939C17.5703 6.20939 19.7804 4.35938 22.2404 4.35938C24.7004 4.35938 25.5703 5.61937 25.5703 6.88937C25.5803 8.17937 24.8803 8.76937 24.0303 9.19937ZM21.9403 6.40939C21.6003 6.40939 20.7703 6.72938 20.6703 8.07938C20.6703 8.07938 21.3703 8.00939 21.7703 7.90939C22.1803 7.80939 22.6703 7.58938 22.6703 7.07938C22.6703 6.56938 22.2803 6.40939 21.9403 6.40939Z" fill="#0DFF9A" stroke="#0DFF9A" stroke-width="0.25" stroke-miterlimit="10"/>
<path d="M31.0202 12.7705H27.8602L25.9902 4.56055H29.1502L29.8302 9.68054L31.8702 4.56055H35.0102L31.0202 12.7705Z" fill="#0DFF9A" stroke="#0DFF9A" stroke-width="0.25" stroke-miterlimit="10"/>
<path d="M37.4999 12.77H34.4199L35.4699 4.56H38.5499L37.4999 12.77ZM37.1699 4.06C36.1499 4.06 35.6099 3.54999 35.6099 2.60999C35.6099 1.67999 36.3399 1 37.3599 1C38.3799 1 38.9199 1.51 38.9199 2.44C38.9199 3.38 38.1899 4.06 37.1699 4.06Z" fill="#0DFF9A" stroke="#0DFF9A" stroke-width="0.25" stroke-miterlimit="10"/>
<path d="M42.9996 12.9494C40.3696 12.9494 39.0596 11.5694 39.0596 9.18939C39.0596 6.29939 40.9596 4.35938 43.8496 4.35938C46.4796 4.35938 47.7896 5.73938 47.7896 8.11938C47.7996 11.0194 45.8896 12.9494 42.9996 12.9494ZM43.6296 6.64938C42.6896 6.64938 42.1696 7.83938 42.1696 9.10938C42.1696 9.95938 42.3696 10.6394 43.2196 10.6394C44.1496 10.6394 44.6796 9.44938 44.6796 8.17938C44.6896 7.32938 44.4796 6.64938 43.6296 6.64938Z" fill="#0DFF9A" stroke="#0DFF9A" stroke-width="0.25" stroke-miterlimit="10"/>
<path d="M56.2802 12.7708H53.3901V11.6108C53.0701 12.0508 52.3902 12.9508 50.8602 12.9508C49.3302 12.9508 48.6201 11.9108 48.6201 10.6408C48.6201 10.0508 48.7001 9.40079 48.7501 8.97079L49.3101 4.55078H52.3901L51.7902 9.14078C51.7702 9.26078 51.7701 9.36078 51.7701 9.46078C51.7701 10.0208 52.0202 10.3308 52.6002 10.3308C53.2802 10.3308 53.5301 9.63079 53.6401 9.31079L54.2501 4.55078H57.3301L56.2802 12.7708Z" fill="#0DFF9A" stroke="#0DFF9A" stroke-width="0.25" stroke-miterlimit="10"/>
<path d="M64.1195 7.31015C63.9295 7.16015 63.4895 6.87013 63.0695 6.70013C62.6395 6.53013 62.1195 6.41016 61.7095 6.41016C61.2995 6.41016 60.9995 6.48015 60.9995 6.75015C60.9995 7.02015 61.3895 7.16014 61.8295 7.33014C62.2695 7.50014 62.5596 7.60013 62.7996 7.70013C63.0396 7.80013 63.4595 7.99016 63.7195 8.16016C63.9795 8.33016 64.7595 8.89014 64.7595 10.0801C64.7595 11.2701 64.0995 11.9301 63.6595 12.2601C63.2195 12.5801 62.5395 12.9601 61.1795 12.9601C59.8195 12.9601 58.8895 12.5701 58.4395 12.3301C57.9995 12.0901 57.5195 11.7502 57.2695 11.5002L58.5396 9.71014C58.7096 9.88014 59.1995 10.2502 59.8695 10.5302C60.5295 10.8002 60.9195 10.8401 61.2595 10.8401C61.5995 10.8401 61.9395 10.8101 61.9395 10.4801C61.9395 10.1501 61.3295 9.97015 61.0595 9.87015C60.7895 9.77015 60.2595 9.56014 60.0195 9.46014C59.7795 9.36014 59.4295 9.17013 59.2595 9.07013C59.0895 8.97013 58.1895 8.42015 58.1895 7.15015C58.1895 5.70015 59.1795 5.04014 59.6895 4.80014C60.2195 4.56014 60.7795 4.41016 61.6995 4.41016C62.6195 4.41016 63.1995 4.58013 63.6395 4.73013C64.0795 4.88013 64.7795 5.17014 65.2695 5.61014L64.1195 7.31015Z" fill="#0DFF9A" stroke="#0DFF9A" stroke-width="0.25" stroke-miterlimit="10"/>
</svg>
